%TF.GenerationSoftware,KiCad,Pcbnew,(6.0.0)*%
%TF.CreationDate,2022-02-06T18:29:28+08:00*%
%TF.ProjectId,STM32_FOC,53544d33-325f-4464-9f43-2e6b69636164,rev?*%
%TF.SameCoordinates,Original*%
%TF.FileFunction,Legend,Bot*%
%TF.FilePolarity,Positive*%
%FSLAX46Y46*%
G04 Gerber Fmt 4.6, Leading zero omitted, Abs format (unit mm)*
G04 Created by KiCad (PCBNEW (6.0.0)) date 2022-02-06 18:29:28*
%MOMM*%
%LPD*%
G01*
G04 APERTURE LIST*
G04 Aperture macros list*
%AMRoundRect*
0 Rectangle with rounded corners*
0 $1 Rounding radius*
0 $2 $3 $4 $5 $6 $7 $8 $9 X,Y pos of 4 corners*
0 Add a 4 corners polygon primitive as box body*
4,1,4,$2,$3,$4,$5,$6,$7,$8,$9,$2,$3,0*
0 Add four circle primitives for the rounded corners*
1,1,$1+$1,$2,$3*
1,1,$1+$1,$4,$5*
1,1,$1+$1,$6,$7*
1,1,$1+$1,$8,$9*
0 Add four rect primitives between the rounded corners*
20,1,$1+$1,$2,$3,$4,$5,0*
20,1,$1+$1,$4,$5,$6,$7,0*
20,1,$1+$1,$6,$7,$8,$9,0*
20,1,$1+$1,$8,$9,$2,$3,0*%
%AMHorizOval*
0 Thick line with rounded ends*
0 $1 width*
0 $2 $3 position (X,Y) of the first rounded end (center of the circle)*
0 $4 $5 position (X,Y) of the second rounded end (center of the circle)*
0 Add line between two ends*
20,1,$1,$2,$3,$4,$5,0*
0 Add two circle primitives to create the rounded ends*
1,1,$1,$2,$3*
1,1,$1,$4,$5*%
G04 Aperture macros list end*
%ADD10C,0.150000*%
%ADD11C,0.100000*%
%ADD12C,0.120000*%
%ADD13RoundRect,0.251000X0.382903X-0.309654X0.486430X0.076717X-0.382903X0.309654X-0.486430X-0.076717X0*%
%ADD14HorizOval,0.902000X-0.241481X0.064705X0.241481X-0.064705X0*%
%ADD15RoundRect,0.251000X0.200000X0.450000X-0.200000X0.450000X-0.200000X-0.450000X0.200000X-0.450000X0*%
%ADD16O,0.902000X1.402000*%
%ADD17RoundRect,0.113500X-0.325000X-0.062500X0.325000X-0.062500X0.325000X0.062500X-0.325000X0.062500X0*%
%ADD18RoundRect,0.113500X-0.062500X-0.325000X0.062500X-0.325000X0.062500X0.325000X-0.062500X0.325000X0*%
%ADD19RoundRect,0.051000X-0.875000X-0.875000X0.875000X-0.875000X0.875000X0.875000X-0.875000X0.875000X0*%
%ADD20RoundRect,0.191000X-0.140000X-0.170000X0.140000X-0.170000X0.140000X0.170000X-0.140000X0.170000X0*%
G04 APERTURE END LIST*
D10*
%TO.C,U3*%
X100761904Y-95902380D02*
X100761904Y-96711904D01*
X100714285Y-96807142D01*
X100666666Y-96854761D01*
X100571428Y-96902380D01*
X100380952Y-96902380D01*
X100285714Y-96854761D01*
X100238095Y-96807142D01*
X100190476Y-96711904D01*
X100190476Y-95902380D01*
X99809523Y-95902380D02*
X99190476Y-95902380D01*
X99523809Y-96283333D01*
X99380952Y-96283333D01*
X99285714Y-96330952D01*
X99238095Y-96378571D01*
X99190476Y-96473809D01*
X99190476Y-96711904D01*
X99238095Y-96807142D01*
X99285714Y-96854761D01*
X99380952Y-96902380D01*
X99666666Y-96902380D01*
X99761904Y-96854761D01*
X99809523Y-96807142D01*
D11*
%TO.C,C18*%
X103321428Y-102968571D02*
X103345238Y-102992380D01*
X103416666Y-103016190D01*
X103464285Y-103016190D01*
X103535714Y-102992380D01*
X103583333Y-102944761D01*
X103607142Y-102897142D01*
X103630952Y-102801904D01*
X103630952Y-102730476D01*
X103607142Y-102635238D01*
X103583333Y-102587619D01*
X103535714Y-102540000D01*
X103464285Y-102516190D01*
X103416666Y-102516190D01*
X103345238Y-102540000D01*
X103321428Y-102563809D01*
X102845238Y-103016190D02*
X103130952Y-103016190D01*
X102988095Y-103016190D02*
X102988095Y-102516190D01*
X103035714Y-102587619D01*
X103083333Y-102635238D01*
X103130952Y-102659047D01*
X102559523Y-102730476D02*
X102607142Y-102706666D01*
X102630952Y-102682857D01*
X102654761Y-102635238D01*
X102654761Y-102611428D01*
X102630952Y-102563809D01*
X102607142Y-102540000D01*
X102559523Y-102516190D01*
X102464285Y-102516190D01*
X102416666Y-102540000D01*
X102392857Y-102563809D01*
X102369047Y-102611428D01*
X102369047Y-102635238D01*
X102392857Y-102682857D01*
X102416666Y-102706666D01*
X102464285Y-102730476D01*
X102559523Y-102730476D01*
X102607142Y-102754285D01*
X102630952Y-102778095D01*
X102654761Y-102825714D01*
X102654761Y-102920952D01*
X102630952Y-102968571D01*
X102607142Y-102992380D01*
X102559523Y-103016190D01*
X102464285Y-103016190D01*
X102416666Y-102992380D01*
X102392857Y-102968571D01*
X102369047Y-102920952D01*
X102369047Y-102825714D01*
X102392857Y-102778095D01*
X102416666Y-102754285D01*
X102464285Y-102730476D01*
%TO.C,C19*%
X103311428Y-104058571D02*
X103335238Y-104082380D01*
X103406666Y-104106190D01*
X103454285Y-104106190D01*
X103525714Y-104082380D01*
X103573333Y-104034761D01*
X103597142Y-103987142D01*
X103620952Y-103891904D01*
X103620952Y-103820476D01*
X103597142Y-103725238D01*
X103573333Y-103677619D01*
X103525714Y-103630000D01*
X103454285Y-103606190D01*
X103406666Y-103606190D01*
X103335238Y-103630000D01*
X103311428Y-103653809D01*
X102835238Y-104106190D02*
X103120952Y-104106190D01*
X102978095Y-104106190D02*
X102978095Y-103606190D01*
X103025714Y-103677619D01*
X103073333Y-103725238D01*
X103120952Y-103749047D01*
X102597142Y-104106190D02*
X102501904Y-104106190D01*
X102454285Y-104082380D01*
X102430476Y-104058571D01*
X102382857Y-103987142D01*
X102359047Y-103891904D01*
X102359047Y-103701428D01*
X102382857Y-103653809D01*
X102406666Y-103630000D01*
X102454285Y-103606190D01*
X102549523Y-103606190D01*
X102597142Y-103630000D01*
X102620952Y-103653809D01*
X102644761Y-103701428D01*
X102644761Y-103820476D01*
X102620952Y-103868095D01*
X102597142Y-103891904D01*
X102549523Y-103915714D01*
X102454285Y-103915714D01*
X102406666Y-103891904D01*
X102382857Y-103868095D01*
X102359047Y-103820476D01*
D12*
%TO.C,U3*%
X101135000Y-101610000D02*
X101610000Y-101610000D01*
X101135000Y-98390000D02*
X101610000Y-98390000D01*
X98390000Y-98390000D02*
X98390000Y-98865000D01*
X98865000Y-101610000D02*
X98390000Y-101610000D01*
X101610000Y-101610000D02*
X101610000Y-101135000D01*
X98865000Y-98390000D02*
X98390000Y-98390000D01*
X101610000Y-98390000D02*
X101610000Y-98865000D01*
%TO.C,C18*%
X101192164Y-103210000D02*
X101407836Y-103210000D01*
X101192164Y-102490000D02*
X101407836Y-102490000D01*
%TO.C,C19*%
X101192164Y-104260000D02*
X101407836Y-104260000D01*
X101192164Y-103540000D02*
X101407836Y-103540000D01*
%TD*%
%LPC*%
D13*
%TO.C,J3*%
X87882381Y-101237036D03*
D14*
X88205905Y-100029629D03*
X88529429Y-98822221D03*
X88852952Y-97614814D03*
X89176476Y-96407407D03*
X89500000Y-95200000D03*
X89823524Y-93992592D03*
X90147048Y-92785185D03*
%TD*%
D15*
%TO.C,J1*%
X101250000Y-112350000D03*
D16*
X100000000Y-112350000D03*
X98750000Y-112350000D03*
%TD*%
D17*
%TO.C,U3*%
X98537500Y-100750000D03*
X98537500Y-100250000D03*
X98537500Y-99750000D03*
X98537500Y-99250000D03*
D18*
X99250000Y-98537500D03*
X99750000Y-98537500D03*
X100250000Y-98537500D03*
X100750000Y-98537500D03*
D17*
X101462500Y-99250000D03*
X101462500Y-99750000D03*
X101462500Y-100250000D03*
X101462500Y-100750000D03*
D18*
X100750000Y-101462500D03*
X100250000Y-101462500D03*
X99750000Y-101462500D03*
X99250000Y-101462500D03*
D19*
X100000000Y-100000000D03*
%TD*%
D20*
%TO.C,C18*%
X100820000Y-102850000D03*
X101780000Y-102850000D03*
%TD*%
%TO.C,C19*%
X100820000Y-103900000D03*
X101780000Y-103900000D03*
%TD*%
M02*
