%TF.GenerationSoftware,KiCad,Pcbnew,(6.0.0)*%
%TF.CreationDate,2022-02-06T18:29:28+08:00*%
%TF.ProjectId,STM32_FOC,53544d33-325f-4464-9f43-2e6b69636164,rev?*%
%TF.SameCoordinates,Original*%
%TF.FileFunction,Legend,Top*%
%TF.FilePolarity,Positive*%
%FSLAX46Y46*%
G04 Gerber Fmt 4.6, Leading zero omitted, Abs format (unit mm)*
G04 Created by KiCad (PCBNEW (6.0.0)) date 2022-02-06 18:29:28*
%MOMM*%
%LPD*%
G01*
G04 APERTURE LIST*
G04 Aperture macros list*
%AMRoundRect*
0 Rectangle with rounded corners*
0 $1 Rounding radius*
0 $2 $3 $4 $5 $6 $7 $8 $9 X,Y pos of 4 corners*
0 Add a 4 corners polygon primitive as box body*
4,1,4,$2,$3,$4,$5,$6,$7,$8,$9,$2,$3,0*
0 Add four circle primitives for the rounded corners*
1,1,$1+$1,$2,$3*
1,1,$1+$1,$4,$5*
1,1,$1+$1,$6,$7*
1,1,$1+$1,$8,$9*
0 Add four rect primitives between the rounded corners*
20,1,$1+$1,$2,$3,$4,$5,0*
20,1,$1+$1,$4,$5,$6,$7,0*
20,1,$1+$1,$6,$7,$8,$9,0*
20,1,$1+$1,$8,$9,$2,$3,0*%
%AMHorizOval*
0 Thick line with rounded ends*
0 $1 width*
0 $2 $3 position (X,Y) of the first rounded end (center of the circle)*
0 $4 $5 position (X,Y) of the second rounded end (center of the circle)*
0 Add line between two ends*
20,1,$1,$2,$3,$4,$5,0*
0 Add two circle primitives to create the rounded ends*
1,1,$1,$2,$3*
1,1,$1,$4,$5*%
G04 Aperture macros list end*
%ADD10C,0.150000*%
%ADD11C,0.100000*%
%ADD12C,0.120000*%
%ADD13C,0.127000*%
%ADD14C,0.200000*%
%ADD15C,0.010000*%
%ADD16RoundRect,0.191000X0.140000X0.170000X-0.140000X0.170000X-0.140000X-0.170000X0.140000X-0.170000X0*%
%ADD17RoundRect,0.191000X0.170000X-0.140000X0.170000X0.140000X-0.170000X0.140000X-0.170000X-0.140000X0*%
%ADD18RoundRect,0.191000X-0.140000X-0.170000X0.140000X-0.170000X0.140000X0.170000X-0.140000X0.170000X0*%
%ADD19RoundRect,0.191000X-0.170000X0.140000X-0.170000X-0.140000X0.170000X-0.140000X0.170000X0.140000X0*%
%ADD20RoundRect,0.126000X0.325000X-0.075000X0.325000X0.075000X-0.325000X0.075000X-0.325000X-0.075000X0*%
%ADD21RoundRect,0.186000X0.135000X0.185000X-0.135000X0.185000X-0.135000X-0.185000X0.135000X-0.185000X0*%
%ADD22RoundRect,0.186000X-0.185000X0.135000X-0.185000X-0.135000X0.185000X-0.135000X0.185000X0.135000X0*%
%ADD23RoundRect,0.051000X0.900000X-0.200000X0.900000X0.200000X-0.900000X0.200000X-0.900000X-0.200000X0*%
%ADD24RoundRect,0.051000X0.800000X-0.200000X0.800000X0.200000X-0.800000X0.200000X-0.800000X-0.200000X0*%
%ADD25RoundRect,0.301000X0.650000X-0.325000X0.650000X0.325000X-0.650000X0.325000X-0.650000X-0.325000X0*%
%ADD26RoundRect,0.198500X0.147500X0.172500X-0.147500X0.172500X-0.147500X-0.172500X0.147500X-0.172500X0*%
%ADD27RoundRect,0.186000X0.185000X-0.135000X0.185000X0.135000X-0.185000X0.135000X-0.185000X-0.135000X0*%
%ADD28RoundRect,0.126000X-0.662500X-0.075000X0.662500X-0.075000X0.662500X0.075000X-0.662500X0.075000X0*%
%ADD29RoundRect,0.126000X-0.075000X-0.662500X0.075000X-0.662500X0.075000X0.662500X-0.075000X0.662500X0*%
%ADD30RoundRect,0.201000X-0.642526X-0.016873X-0.564881X-0.306651X0.642526X0.016873X0.564881X0.306651X0*%
%ADD31RoundRect,0.301000X-0.718438X0.169842X-0.537265X-0.506306X0.718438X-0.169842X0.537265X0.506306X0*%
%ADD32RoundRect,0.186000X-0.135000X-0.185000X0.135000X-0.185000X0.135000X0.185000X-0.135000X0.185000X0*%
%ADD33RoundRect,0.276000X0.250000X-0.225000X0.250000X0.225000X-0.250000X0.225000X-0.250000X-0.225000X0*%
%ADD34RoundRect,0.251000X0.382903X-0.309654X0.486430X0.076717X-0.382903X0.309654X-0.486430X-0.076717X0*%
%ADD35HorizOval,0.902000X-0.241481X0.064705X0.241481X-0.064705X0*%
%ADD36RoundRect,0.251000X0.200000X0.450000X-0.200000X0.450000X-0.200000X-0.450000X0.200000X-0.450000X0*%
%ADD37O,0.902000X1.402000*%
G04 APERTURE END LIST*
D10*
X97233333Y-96261904D02*
X97233333Y-96833333D01*
X97195238Y-96947619D01*
X97119047Y-97023809D01*
X97004761Y-97061904D01*
X96928571Y-97061904D01*
X97995238Y-97061904D02*
X97614285Y-97061904D01*
X97614285Y-96261904D01*
X98719047Y-96985714D02*
X98680952Y-97023809D01*
X98566666Y-97061904D01*
X98490476Y-97061904D01*
X98376190Y-97023809D01*
X98300000Y-96947619D01*
X98261904Y-96871428D01*
X98223809Y-96719047D01*
X98223809Y-96604761D01*
X98261904Y-96452380D01*
X98300000Y-96376190D01*
X98376190Y-96300000D01*
X98490476Y-96261904D01*
X98566666Y-96261904D01*
X98680952Y-96300000D01*
X98719047Y-96338095D01*
X99290476Y-96261904D02*
X99290476Y-96833333D01*
X99252380Y-96947619D01*
X99176190Y-97023809D01*
X99061904Y-97061904D01*
X98985714Y-97061904D01*
X100052380Y-97061904D02*
X99671428Y-97061904D01*
X99671428Y-96261904D01*
X100776190Y-96985714D02*
X100738095Y-97023809D01*
X100623809Y-97061904D01*
X100547619Y-97061904D01*
X100433333Y-97023809D01*
X100357142Y-96947619D01*
X100319047Y-96871428D01*
X100280952Y-96719047D01*
X100280952Y-96604761D01*
X100319047Y-96452380D01*
X100357142Y-96376190D01*
X100433333Y-96300000D01*
X100547619Y-96261904D01*
X100623809Y-96261904D01*
X100738095Y-96300000D01*
X100776190Y-96338095D01*
X101347619Y-96261904D02*
X101347619Y-96833333D01*
X101309523Y-96947619D01*
X101233333Y-97023809D01*
X101119047Y-97061904D01*
X101042857Y-97061904D01*
X102109523Y-97061904D02*
X101728571Y-97061904D01*
X101728571Y-96261904D01*
X102833333Y-96985714D02*
X102795238Y-97023809D01*
X102680952Y-97061904D01*
X102604761Y-97061904D01*
X102490476Y-97023809D01*
X102414285Y-96947619D01*
X102376190Y-96871428D01*
X102338095Y-96719047D01*
X102338095Y-96604761D01*
X102376190Y-96452380D01*
X102414285Y-96376190D01*
X102490476Y-96300000D01*
X102604761Y-96261904D01*
X102680952Y-96261904D01*
X102795238Y-96300000D01*
X102833333Y-96338095D01*
D11*
%TO.C,C1*%
X94416666Y-99278571D02*
X94392857Y-99302380D01*
X94321428Y-99326190D01*
X94273809Y-99326190D01*
X94202380Y-99302380D01*
X94154761Y-99254761D01*
X94130952Y-99207142D01*
X94107142Y-99111904D01*
X94107142Y-99040476D01*
X94130952Y-98945238D01*
X94154761Y-98897619D01*
X94202380Y-98850000D01*
X94273809Y-98826190D01*
X94321428Y-98826190D01*
X94392857Y-98850000D01*
X94416666Y-98873809D01*
X94892857Y-99326190D02*
X94607142Y-99326190D01*
X94750000Y-99326190D02*
X94750000Y-98826190D01*
X94702380Y-98897619D01*
X94654761Y-98945238D01*
X94607142Y-98969047D01*
%TO.C,C2*%
X95416666Y-91328571D02*
X95392857Y-91352380D01*
X95321428Y-91376190D01*
X95273809Y-91376190D01*
X95202380Y-91352380D01*
X95154761Y-91304761D01*
X95130952Y-91257142D01*
X95107142Y-91161904D01*
X95107142Y-91090476D01*
X95130952Y-90995238D01*
X95154761Y-90947619D01*
X95202380Y-90900000D01*
X95273809Y-90876190D01*
X95321428Y-90876190D01*
X95392857Y-90900000D01*
X95416666Y-90923809D01*
X95607142Y-90923809D02*
X95630952Y-90900000D01*
X95678571Y-90876190D01*
X95797619Y-90876190D01*
X95845238Y-90900000D01*
X95869047Y-90923809D01*
X95892857Y-90971428D01*
X95892857Y-91019047D01*
X95869047Y-91090476D01*
X95583333Y-91376190D01*
X95892857Y-91376190D01*
%TO.C,C3*%
X94416666Y-102578571D02*
X94392857Y-102602380D01*
X94321428Y-102626190D01*
X94273809Y-102626190D01*
X94202380Y-102602380D01*
X94154761Y-102554761D01*
X94130952Y-102507142D01*
X94107142Y-102411904D01*
X94107142Y-102340476D01*
X94130952Y-102245238D01*
X94154761Y-102197619D01*
X94202380Y-102150000D01*
X94273809Y-102126190D01*
X94321428Y-102126190D01*
X94392857Y-102150000D01*
X94416666Y-102173809D01*
X94583333Y-102126190D02*
X94892857Y-102126190D01*
X94726190Y-102316666D01*
X94797619Y-102316666D01*
X94845238Y-102340476D01*
X94869047Y-102364285D01*
X94892857Y-102411904D01*
X94892857Y-102530952D01*
X94869047Y-102578571D01*
X94845238Y-102602380D01*
X94797619Y-102626190D01*
X94654761Y-102626190D01*
X94607142Y-102602380D01*
X94583333Y-102578571D01*
%TO.C,C4*%
X94316666Y-94328571D02*
X94292857Y-94352380D01*
X94221428Y-94376190D01*
X94173809Y-94376190D01*
X94102380Y-94352380D01*
X94054761Y-94304761D01*
X94030952Y-94257142D01*
X94007142Y-94161904D01*
X94007142Y-94090476D01*
X94030952Y-93995238D01*
X94054761Y-93947619D01*
X94102380Y-93900000D01*
X94173809Y-93876190D01*
X94221428Y-93876190D01*
X94292857Y-93900000D01*
X94316666Y-93923809D01*
X94745238Y-94042857D02*
X94745238Y-94376190D01*
X94626190Y-93852380D02*
X94507142Y-94209523D01*
X94816666Y-94209523D01*
%TO.C,C9*%
X96816666Y-90428571D02*
X96792857Y-90452380D01*
X96721428Y-90476190D01*
X96673809Y-90476190D01*
X96602380Y-90452380D01*
X96554761Y-90404761D01*
X96530952Y-90357142D01*
X96507142Y-90261904D01*
X96507142Y-90190476D01*
X96530952Y-90095238D01*
X96554761Y-90047619D01*
X96602380Y-90000000D01*
X96673809Y-89976190D01*
X96721428Y-89976190D01*
X96792857Y-90000000D01*
X96816666Y-90023809D01*
X97054761Y-90476190D02*
X97150000Y-90476190D01*
X97197619Y-90452380D01*
X97221428Y-90428571D01*
X97269047Y-90357142D01*
X97292857Y-90261904D01*
X97292857Y-90071428D01*
X97269047Y-90023809D01*
X97245238Y-90000000D01*
X97197619Y-89976190D01*
X97102380Y-89976190D01*
X97054761Y-90000000D01*
X97030952Y-90023809D01*
X97007142Y-90071428D01*
X97007142Y-90190476D01*
X97030952Y-90238095D01*
X97054761Y-90261904D01*
X97102380Y-90285714D01*
X97197619Y-90285714D01*
X97245238Y-90261904D01*
X97269047Y-90238095D01*
X97292857Y-90190476D01*
%TO.C,C14*%
X95928571Y-111928571D02*
X95904761Y-111952380D01*
X95833333Y-111976190D01*
X95785714Y-111976190D01*
X95714285Y-111952380D01*
X95666666Y-111904761D01*
X95642857Y-111857142D01*
X95619047Y-111761904D01*
X95619047Y-111690476D01*
X95642857Y-111595238D01*
X95666666Y-111547619D01*
X95714285Y-111500000D01*
X95785714Y-111476190D01*
X95833333Y-111476190D01*
X95904761Y-111500000D01*
X95928571Y-111523809D01*
X96404761Y-111976190D02*
X96119047Y-111976190D01*
X96261904Y-111976190D02*
X96261904Y-111476190D01*
X96214285Y-111547619D01*
X96166666Y-111595238D01*
X96119047Y-111619047D01*
X96833333Y-111642857D02*
X96833333Y-111976190D01*
X96714285Y-111452380D02*
X96595238Y-111809523D01*
X96904761Y-111809523D01*
%TO.C,C16*%
X93028571Y-112178571D02*
X93004761Y-112202380D01*
X92933333Y-112226190D01*
X92885714Y-112226190D01*
X92814285Y-112202380D01*
X92766666Y-112154761D01*
X92742857Y-112107142D01*
X92719047Y-112011904D01*
X92719047Y-111940476D01*
X92742857Y-111845238D01*
X92766666Y-111797619D01*
X92814285Y-111750000D01*
X92885714Y-111726190D01*
X92933333Y-111726190D01*
X93004761Y-111750000D01*
X93028571Y-111773809D01*
X93504761Y-112226190D02*
X93219047Y-112226190D01*
X93361904Y-112226190D02*
X93361904Y-111726190D01*
X93314285Y-111797619D01*
X93266666Y-111845238D01*
X93219047Y-111869047D01*
X93933333Y-111726190D02*
X93838095Y-111726190D01*
X93790476Y-111750000D01*
X93766666Y-111773809D01*
X93719047Y-111845238D01*
X93695238Y-111940476D01*
X93695238Y-112130952D01*
X93719047Y-112178571D01*
X93742857Y-112202380D01*
X93790476Y-112226190D01*
X93885714Y-112226190D01*
X93933333Y-112202380D01*
X93957142Y-112178571D01*
X93980952Y-112130952D01*
X93980952Y-112011904D01*
X93957142Y-111964285D01*
X93933333Y-111940476D01*
X93885714Y-111916666D01*
X93790476Y-111916666D01*
X93742857Y-111940476D01*
X93719047Y-111964285D01*
X93695238Y-112011904D01*
%TO.C,R2*%
X98366666Y-87205479D02*
X98200000Y-86967384D01*
X98080952Y-87205479D02*
X98080952Y-86705479D01*
X98271428Y-86705479D01*
X98319047Y-86729289D01*
X98342857Y-86753098D01*
X98366666Y-86800717D01*
X98366666Y-86872146D01*
X98342857Y-86919765D01*
X98319047Y-86943574D01*
X98271428Y-86967384D01*
X98080952Y-86967384D01*
X98557142Y-86753098D02*
X98580952Y-86729289D01*
X98628571Y-86705479D01*
X98747619Y-86705479D01*
X98795238Y-86729289D01*
X98819047Y-86753098D01*
X98842857Y-86800717D01*
X98842857Y-86848336D01*
X98819047Y-86919765D01*
X98533333Y-87205479D01*
X98842857Y-87205479D01*
%TO.C,R8*%
X105641666Y-104656190D02*
X105475000Y-104418095D01*
X105355952Y-104656190D02*
X105355952Y-104156190D01*
X105546428Y-104156190D01*
X105594047Y-104180000D01*
X105617857Y-104203809D01*
X105641666Y-104251428D01*
X105641666Y-104322857D01*
X105617857Y-104370476D01*
X105594047Y-104394285D01*
X105546428Y-104418095D01*
X105355952Y-104418095D01*
X105927380Y-104370476D02*
X105879761Y-104346666D01*
X105855952Y-104322857D01*
X105832142Y-104275238D01*
X105832142Y-104251428D01*
X105855952Y-104203809D01*
X105879761Y-104180000D01*
X105927380Y-104156190D01*
X106022619Y-104156190D01*
X106070238Y-104180000D01*
X106094047Y-104203809D01*
X106117857Y-104251428D01*
X106117857Y-104275238D01*
X106094047Y-104322857D01*
X106070238Y-104346666D01*
X106022619Y-104370476D01*
X105927380Y-104370476D01*
X105879761Y-104394285D01*
X105855952Y-104418095D01*
X105832142Y-104465714D01*
X105832142Y-104560952D01*
X105855952Y-104608571D01*
X105879761Y-104632380D01*
X105927380Y-104656190D01*
X106022619Y-104656190D01*
X106070238Y-104632380D01*
X106094047Y-104608571D01*
X106117857Y-104560952D01*
X106117857Y-104465714D01*
X106094047Y-104418095D01*
X106070238Y-104394285D01*
X106022619Y-104370476D01*
%TO.C,C5*%
X104116666Y-102728571D02*
X104092857Y-102752380D01*
X104021428Y-102776190D01*
X103973809Y-102776190D01*
X103902380Y-102752380D01*
X103854761Y-102704761D01*
X103830952Y-102657142D01*
X103807142Y-102561904D01*
X103807142Y-102490476D01*
X103830952Y-102395238D01*
X103854761Y-102347619D01*
X103902380Y-102300000D01*
X103973809Y-102276190D01*
X104021428Y-102276190D01*
X104092857Y-102300000D01*
X104116666Y-102323809D01*
X104569047Y-102276190D02*
X104330952Y-102276190D01*
X104307142Y-102514285D01*
X104330952Y-102490476D01*
X104378571Y-102466666D01*
X104497619Y-102466666D01*
X104545238Y-102490476D01*
X104569047Y-102514285D01*
X104592857Y-102561904D01*
X104592857Y-102680952D01*
X104569047Y-102728571D01*
X104545238Y-102752380D01*
X104497619Y-102776190D01*
X104378571Y-102776190D01*
X104330952Y-102752380D01*
X104307142Y-102728571D01*
%TO.C,C17*%
X92028571Y-110328571D02*
X92004761Y-110352380D01*
X91933333Y-110376190D01*
X91885714Y-110376190D01*
X91814285Y-110352380D01*
X91766666Y-110304761D01*
X91742857Y-110257142D01*
X91719047Y-110161904D01*
X91719047Y-110090476D01*
X91742857Y-109995238D01*
X91766666Y-109947619D01*
X91814285Y-109900000D01*
X91885714Y-109876190D01*
X91933333Y-109876190D01*
X92004761Y-109900000D01*
X92028571Y-109923809D01*
X92504761Y-110376190D02*
X92219047Y-110376190D01*
X92361904Y-110376190D02*
X92361904Y-109876190D01*
X92314285Y-109947619D01*
X92266666Y-109995238D01*
X92219047Y-110019047D01*
X92671428Y-109876190D02*
X93004761Y-109876190D01*
X92790476Y-110376190D01*
%TO.C,C15*%
X107958571Y-107268571D02*
X107934761Y-107292380D01*
X107863333Y-107316190D01*
X107815714Y-107316190D01*
X107744285Y-107292380D01*
X107696666Y-107244761D01*
X107672857Y-107197142D01*
X107649047Y-107101904D01*
X107649047Y-107030476D01*
X107672857Y-106935238D01*
X107696666Y-106887619D01*
X107744285Y-106840000D01*
X107815714Y-106816190D01*
X107863333Y-106816190D01*
X107934761Y-106840000D01*
X107958571Y-106863809D01*
X108434761Y-107316190D02*
X108149047Y-107316190D01*
X108291904Y-107316190D02*
X108291904Y-106816190D01*
X108244285Y-106887619D01*
X108196666Y-106935238D01*
X108149047Y-106959047D01*
X108887142Y-106816190D02*
X108649047Y-106816190D01*
X108625238Y-107054285D01*
X108649047Y-107030476D01*
X108696666Y-107006666D01*
X108815714Y-107006666D01*
X108863333Y-107030476D01*
X108887142Y-107054285D01*
X108910952Y-107101904D01*
X108910952Y-107220952D01*
X108887142Y-107268571D01*
X108863333Y-107292380D01*
X108815714Y-107316190D01*
X108696666Y-107316190D01*
X108649047Y-107292380D01*
X108625238Y-107268571D01*
%TO.C,D1*%
X98022488Y-86302132D02*
X98022488Y-85802132D01*
X98141536Y-85802132D01*
X98212964Y-85825942D01*
X98260583Y-85873561D01*
X98284393Y-85921180D01*
X98308202Y-86016418D01*
X98308202Y-86087846D01*
X98284393Y-86183084D01*
X98260583Y-86230703D01*
X98212964Y-86278322D01*
X98141536Y-86302132D01*
X98022488Y-86302132D01*
X98784393Y-86302132D02*
X98498678Y-86302132D01*
X98641536Y-86302132D02*
X98641536Y-85802132D01*
X98593916Y-85873561D01*
X98546297Y-85921180D01*
X98498678Y-85944989D01*
%TO.C,R1*%
X104116666Y-90976190D02*
X103950000Y-90738095D01*
X103830952Y-90976190D02*
X103830952Y-90476190D01*
X104021428Y-90476190D01*
X104069047Y-90500000D01*
X104092857Y-90523809D01*
X104116666Y-90571428D01*
X104116666Y-90642857D01*
X104092857Y-90690476D01*
X104069047Y-90714285D01*
X104021428Y-90738095D01*
X103830952Y-90738095D01*
X104592857Y-90976190D02*
X104307142Y-90976190D01*
X104450000Y-90976190D02*
X104450000Y-90476190D01*
X104402380Y-90547619D01*
X104354761Y-90595238D01*
X104307142Y-90619047D01*
%TO.C,C20*%
X106878571Y-104638571D02*
X106854761Y-104662380D01*
X106783333Y-104686190D01*
X106735714Y-104686190D01*
X106664285Y-104662380D01*
X106616666Y-104614761D01*
X106592857Y-104567142D01*
X106569047Y-104471904D01*
X106569047Y-104400476D01*
X106592857Y-104305238D01*
X106616666Y-104257619D01*
X106664285Y-104210000D01*
X106735714Y-104186190D01*
X106783333Y-104186190D01*
X106854761Y-104210000D01*
X106878571Y-104233809D01*
X107069047Y-104233809D02*
X107092857Y-104210000D01*
X107140476Y-104186190D01*
X107259523Y-104186190D01*
X107307142Y-104210000D01*
X107330952Y-104233809D01*
X107354761Y-104281428D01*
X107354761Y-104329047D01*
X107330952Y-104400476D01*
X107045238Y-104686190D01*
X107354761Y-104686190D01*
X107664285Y-104186190D02*
X107711904Y-104186190D01*
X107759523Y-104210000D01*
X107783333Y-104233809D01*
X107807142Y-104281428D01*
X107830952Y-104376666D01*
X107830952Y-104495714D01*
X107807142Y-104590952D01*
X107783333Y-104638571D01*
X107759523Y-104662380D01*
X107711904Y-104686190D01*
X107664285Y-104686190D01*
X107616666Y-104662380D01*
X107592857Y-104638571D01*
X107569047Y-104590952D01*
X107545238Y-104495714D01*
X107545238Y-104376666D01*
X107569047Y-104281428D01*
X107592857Y-104233809D01*
X107616666Y-104210000D01*
X107664285Y-104186190D01*
%TO.C,U1*%
X99509047Y-94676190D02*
X99509047Y-95080952D01*
X99532857Y-95128571D01*
X99556666Y-95152380D01*
X99604285Y-95176190D01*
X99699523Y-95176190D01*
X99747142Y-95152380D01*
X99770952Y-95128571D01*
X99794761Y-95080952D01*
X99794761Y-94676190D01*
X100294761Y-95176190D02*
X100009047Y-95176190D01*
X100151904Y-95176190D02*
X100151904Y-94676190D01*
X100104285Y-94747619D01*
X100056666Y-94795238D01*
X100009047Y-94819047D01*
%TO.C,C8*%
X105816666Y-96078571D02*
X105792857Y-96102380D01*
X105721428Y-96126190D01*
X105673809Y-96126190D01*
X105602380Y-96102380D01*
X105554761Y-96054761D01*
X105530952Y-96007142D01*
X105507142Y-95911904D01*
X105507142Y-95840476D01*
X105530952Y-95745238D01*
X105554761Y-95697619D01*
X105602380Y-95650000D01*
X105673809Y-95626190D01*
X105721428Y-95626190D01*
X105792857Y-95650000D01*
X105816666Y-95673809D01*
X106102380Y-95840476D02*
X106054761Y-95816666D01*
X106030952Y-95792857D01*
X106007142Y-95745238D01*
X106007142Y-95721428D01*
X106030952Y-95673809D01*
X106054761Y-95650000D01*
X106102380Y-95626190D01*
X106197619Y-95626190D01*
X106245238Y-95650000D01*
X106269047Y-95673809D01*
X106292857Y-95721428D01*
X106292857Y-95745238D01*
X106269047Y-95792857D01*
X106245238Y-95816666D01*
X106197619Y-95840476D01*
X106102380Y-95840476D01*
X106054761Y-95864285D01*
X106030952Y-95888095D01*
X106007142Y-95935714D01*
X106007142Y-96030952D01*
X106030952Y-96078571D01*
X106054761Y-96102380D01*
X106102380Y-96126190D01*
X106197619Y-96126190D01*
X106245238Y-96102380D01*
X106269047Y-96078571D01*
X106292857Y-96030952D01*
X106292857Y-95935714D01*
X106269047Y-95888095D01*
X106245238Y-95864285D01*
X106197619Y-95840476D01*
%TO.C,C6*%
X94416666Y-101478571D02*
X94392857Y-101502380D01*
X94321428Y-101526190D01*
X94273809Y-101526190D01*
X94202380Y-101502380D01*
X94154761Y-101454761D01*
X94130952Y-101407142D01*
X94107142Y-101311904D01*
X94107142Y-101240476D01*
X94130952Y-101145238D01*
X94154761Y-101097619D01*
X94202380Y-101050000D01*
X94273809Y-101026190D01*
X94321428Y-101026190D01*
X94392857Y-101050000D01*
X94416666Y-101073809D01*
X94845238Y-101026190D02*
X94750000Y-101026190D01*
X94702380Y-101050000D01*
X94678571Y-101073809D01*
X94630952Y-101145238D01*
X94607142Y-101240476D01*
X94607142Y-101430952D01*
X94630952Y-101478571D01*
X94654761Y-101502380D01*
X94702380Y-101526190D01*
X94797619Y-101526190D01*
X94845238Y-101502380D01*
X94869047Y-101478571D01*
X94892857Y-101430952D01*
X94892857Y-101311904D01*
X94869047Y-101264285D01*
X94845238Y-101240476D01*
X94797619Y-101216666D01*
X94702380Y-101216666D01*
X94654761Y-101240476D01*
X94630952Y-101264285D01*
X94607142Y-101311904D01*
%TO.C,R3*%
X94416666Y-100426190D02*
X94250000Y-100188095D01*
X94130952Y-100426190D02*
X94130952Y-99926190D01*
X94321428Y-99926190D01*
X94369047Y-99950000D01*
X94392857Y-99973809D01*
X94416666Y-100021428D01*
X94416666Y-100092857D01*
X94392857Y-100140476D01*
X94369047Y-100164285D01*
X94321428Y-100188095D01*
X94130952Y-100188095D01*
X94583333Y-99926190D02*
X94892857Y-99926190D01*
X94726190Y-100116666D01*
X94797619Y-100116666D01*
X94845238Y-100140476D01*
X94869047Y-100164285D01*
X94892857Y-100211904D01*
X94892857Y-100330952D01*
X94869047Y-100378571D01*
X94845238Y-100402380D01*
X94797619Y-100426190D01*
X94654761Y-100426190D01*
X94607142Y-100402380D01*
X94583333Y-100378571D01*
%TO.C,C13*%
X106028571Y-107678571D02*
X106004761Y-107702380D01*
X105933333Y-107726190D01*
X105885714Y-107726190D01*
X105814285Y-107702380D01*
X105766666Y-107654761D01*
X105742857Y-107607142D01*
X105719047Y-107511904D01*
X105719047Y-107440476D01*
X105742857Y-107345238D01*
X105766666Y-107297619D01*
X105814285Y-107250000D01*
X105885714Y-107226190D01*
X105933333Y-107226190D01*
X106004761Y-107250000D01*
X106028571Y-107273809D01*
X106504761Y-107726190D02*
X106219047Y-107726190D01*
X106361904Y-107726190D02*
X106361904Y-107226190D01*
X106314285Y-107297619D01*
X106266666Y-107345238D01*
X106219047Y-107369047D01*
X106671428Y-107226190D02*
X106980952Y-107226190D01*
X106814285Y-107416666D01*
X106885714Y-107416666D01*
X106933333Y-107440476D01*
X106957142Y-107464285D01*
X106980952Y-107511904D01*
X106980952Y-107630952D01*
X106957142Y-107678571D01*
X106933333Y-107702380D01*
X106885714Y-107726190D01*
X106742857Y-107726190D01*
X106695238Y-107702380D01*
X106671428Y-107678571D01*
D10*
%TO.C,U4*%
X93317380Y-108204404D02*
X94126904Y-108204404D01*
X94222142Y-108156785D01*
X94269761Y-108109166D01*
X94317380Y-108013928D01*
X94317380Y-107823452D01*
X94269761Y-107728214D01*
X94222142Y-107680595D01*
X94126904Y-107632976D01*
X93317380Y-107632976D01*
X93650714Y-106728214D02*
X94317380Y-106728214D01*
X93269761Y-106966309D02*
X93984047Y-107204404D01*
X93984047Y-106585357D01*
D12*
%TO.C,C1*%
X93207836Y-99460000D02*
X92992164Y-99460000D01*
X93207836Y-98740000D02*
X92992164Y-98740000D01*
%TO.C,C2*%
X95140000Y-92507836D02*
X95140000Y-92292164D01*
X95860000Y-92507836D02*
X95860000Y-92292164D01*
%TO.C,C3*%
X93207836Y-102040000D02*
X92992164Y-102040000D01*
X93207836Y-102760000D02*
X92992164Y-102760000D01*
%TO.C,C4*%
X93207836Y-93740000D02*
X92992164Y-93740000D01*
X93207836Y-94460000D02*
X92992164Y-94460000D01*
%TO.C,C9*%
X97192164Y-90740000D02*
X97407836Y-90740000D01*
X97192164Y-91460000D02*
X97407836Y-91460000D01*
%TO.C,C14*%
X95915000Y-113107836D02*
X95915000Y-112892164D01*
X96635000Y-113107836D02*
X96635000Y-112892164D01*
%TO.C,C16*%
X94390000Y-111942164D02*
X94390000Y-112157836D01*
X95110000Y-111942164D02*
X95110000Y-112157836D01*
%TO.C,JP1*%
X105250000Y-93200000D02*
X105250000Y-91800000D01*
X105250000Y-93200000D02*
X106450000Y-93200000D01*
X106450000Y-91800000D02*
X105250000Y-91800000D01*
X106450000Y-93200000D02*
X106450000Y-91800000D01*
%TO.C,R2*%
X100153641Y-86670000D02*
X99846359Y-86670000D01*
X100153641Y-87430000D02*
X99846359Y-87430000D01*
%TO.C,R8*%
X106050000Y-102926359D02*
X106050000Y-103233641D01*
X105290000Y-102926359D02*
X105290000Y-103233641D01*
D11*
%TO.C,Y1*%
X94197000Y-98300000D02*
G75*
G03*
X94197000Y-98300000I-127000J0D01*
G01*
D12*
%TO.C,C5*%
X104092164Y-101960000D02*
X104307836Y-101960000D01*
X104092164Y-101240000D02*
X104307836Y-101240000D01*
%TO.C,C17*%
X93390000Y-110042164D02*
X93390000Y-110257836D01*
X94110000Y-110042164D02*
X94110000Y-110257836D01*
%TO.C,C15*%
X109190000Y-110201252D02*
X109190000Y-108778748D01*
X107370000Y-110201252D02*
X107370000Y-108778748D01*
D11*
%TO.C,D1*%
X101140000Y-86000000D02*
G75*
G03*
X101140000Y-86000000I-50000J0D01*
G01*
D12*
%TO.C,R1*%
X104580000Y-92203641D02*
X104580000Y-91896359D01*
X103820000Y-92203641D02*
X103820000Y-91896359D01*
%TO.C,C20*%
X106490000Y-103217836D02*
X106490000Y-103002164D01*
X107210000Y-103217836D02*
X107210000Y-103002164D01*
%TO.C,U1*%
X96390000Y-93390000D02*
X96390000Y-93840000D01*
X103610000Y-100610000D02*
X103610000Y-100160000D01*
X96390000Y-93840000D02*
X95100000Y-93840000D01*
X103160000Y-100610000D02*
X103610000Y-100610000D01*
X96840000Y-93390000D02*
X96390000Y-93390000D01*
X96390000Y-100610000D02*
X96390000Y-100160000D01*
X96840000Y-100610000D02*
X96390000Y-100610000D01*
X103610000Y-93390000D02*
X103610000Y-93840000D01*
X103160000Y-93390000D02*
X103610000Y-93390000D01*
%TO.C,C8*%
X106160000Y-94392164D02*
X106160000Y-94607836D01*
X105440000Y-94392164D02*
X105440000Y-94607836D01*
%TO.C,C6*%
X93207836Y-101660000D02*
X92992164Y-101660000D01*
X93207836Y-100940000D02*
X92992164Y-100940000D01*
%TO.C,J2*%
X112461202Y-101825528D02*
X111350388Y-102123170D01*
X108705257Y-92251408D02*
X108977017Y-93265630D01*
X109816072Y-91953766D02*
X108705257Y-92251408D01*
X111350388Y-102123170D02*
X111078628Y-101108948D01*
X108977017Y-93265630D02*
X108020750Y-93521861D01*
X112021764Y-92574026D02*
X114061258Y-100185521D01*
%TO.C,R3*%
X92946359Y-100580000D02*
X93253641Y-100580000D01*
X92946359Y-99820000D02*
X93253641Y-99820000D01*
%TO.C,C13*%
X106760000Y-109540580D02*
X106760000Y-109259420D01*
X105740000Y-109540580D02*
X105740000Y-109259420D01*
D13*
%TO.C,U4*%
X105170000Y-109317500D02*
X105170000Y-104917500D01*
X94830000Y-109317500D02*
X94830000Y-104917500D01*
D14*
X95565000Y-111357500D02*
G75*
G03*
X95565000Y-111357500I-100000J0D01*
G01*
D12*
%TO.C,J3*%
X88837971Y-91295615D02*
X87420937Y-96584059D01*
X86773176Y-102285684D02*
X86824939Y-102092499D01*
X90483512Y-91529481D02*
X89710772Y-91322426D01*
X86824939Y-102092499D02*
X86003902Y-101872503D01*
X89659008Y-91515611D02*
X88837971Y-91295615D01*
X87545916Y-102492740D02*
X86773176Y-102285684D01*
X89739159Y-97205225D02*
X88322124Y-102493669D01*
X88322124Y-102493669D02*
X87597680Y-102299554D01*
X91156193Y-91916781D02*
X90431749Y-91722667D01*
X87597680Y-102299554D02*
X87545916Y-102492740D01*
X86003902Y-101872503D02*
X87420937Y-96584059D01*
X88887810Y-103473465D02*
X89146629Y-102507539D01*
X90431749Y-91722667D02*
X90483512Y-91529481D01*
X91780813Y-91556156D02*
X88477347Y-90670995D01*
X85379283Y-102233127D02*
X88682749Y-103118289D01*
X89710772Y-91322426D02*
X89659008Y-91515611D01*
X88682749Y-103118289D02*
X91780813Y-91556156D01*
X88887810Y-103473465D02*
X87921884Y-103214646D01*
X89739159Y-97205225D02*
X91156193Y-91916781D01*
X88477347Y-90670995D02*
X85379283Y-102233127D01*
%TO.C,J1*%
X103150000Y-110800000D02*
X102150000Y-110800000D01*
X102550000Y-113150000D02*
X102350000Y-113150000D01*
X97650000Y-113150000D02*
X97650000Y-114000000D01*
X102350000Y-114000000D02*
X100000000Y-114000000D01*
X97450000Y-113150000D02*
X97650000Y-113150000D01*
X97650000Y-111600000D02*
X97650000Y-112350000D01*
X102350000Y-111600000D02*
X102350000Y-112350000D01*
X102350000Y-112350000D02*
X102550000Y-112350000D01*
X102860000Y-114510000D02*
X102860000Y-111090000D01*
X100000000Y-111600000D02*
X102350000Y-111600000D01*
X102350000Y-113150000D02*
X102350000Y-114000000D01*
X97140000Y-114510000D02*
X102860000Y-114510000D01*
X97140000Y-111090000D02*
X97140000Y-114510000D01*
X103150000Y-110800000D02*
X103150000Y-111800000D01*
X102550000Y-112350000D02*
X102550000Y-113150000D01*
X97450000Y-112350000D02*
X97450000Y-113150000D01*
X97650000Y-114000000D02*
X100000000Y-114000000D01*
X100000000Y-111600000D02*
X97650000Y-111600000D01*
X102860000Y-111090000D02*
X97140000Y-111090000D01*
X97650000Y-112350000D02*
X97450000Y-112350000D01*
%TD*%
%LPC*%
D15*
%TO.C,U4*%
X99455000Y-110787500D02*
X99455000Y-109047500D01*
X99455000Y-109047500D02*
X99895000Y-109047500D01*
X99895000Y-109047500D02*
X99895000Y-110787500D01*
X99895000Y-110787500D02*
X99455000Y-110787500D01*
G36*
X99895000Y-110787500D02*
G01*
X99455000Y-110787500D01*
X99455000Y-109047500D01*
X99895000Y-109047500D01*
X99895000Y-110787500D01*
G37*
X99895000Y-110787500D02*
X99455000Y-110787500D01*
X99455000Y-109047500D01*
X99895000Y-109047500D01*
X99895000Y-110787500D01*
X96205000Y-110787500D02*
X96205000Y-109047500D01*
X96205000Y-109047500D02*
X96645000Y-109047500D01*
X96645000Y-109047500D02*
X96645000Y-110787500D01*
X96645000Y-110787500D02*
X96205000Y-110787500D01*
G36*
X96645000Y-110787500D02*
G01*
X96205000Y-110787500D01*
X96205000Y-109047500D01*
X96645000Y-109047500D01*
X96645000Y-110787500D01*
G37*
X96645000Y-110787500D02*
X96205000Y-110787500D01*
X96205000Y-109047500D01*
X96645000Y-109047500D01*
X96645000Y-110787500D01*
X101405000Y-105187500D02*
X101405000Y-103447500D01*
X101405000Y-103447500D02*
X101845000Y-103447500D01*
X101845000Y-103447500D02*
X101845000Y-105187500D01*
X101845000Y-105187500D02*
X101405000Y-105187500D01*
G36*
X101845000Y-105187500D02*
G01*
X101405000Y-105187500D01*
X101405000Y-103447500D01*
X101845000Y-103447500D01*
X101845000Y-105187500D01*
G37*
X101845000Y-105187500D02*
X101405000Y-105187500D01*
X101405000Y-103447500D01*
X101845000Y-103447500D01*
X101845000Y-105187500D01*
X98155000Y-105187500D02*
X98155000Y-103447500D01*
X98155000Y-103447500D02*
X98595000Y-103447500D01*
X98595000Y-103447500D02*
X98595000Y-105187500D01*
X98595000Y-105187500D02*
X98155000Y-105187500D01*
G36*
X98595000Y-105187500D02*
G01*
X98155000Y-105187500D01*
X98155000Y-103447500D01*
X98595000Y-103447500D01*
X98595000Y-105187500D01*
G37*
X98595000Y-105187500D02*
X98155000Y-105187500D01*
X98155000Y-103447500D01*
X98595000Y-103447500D01*
X98595000Y-105187500D01*
X104005000Y-105187500D02*
X104005000Y-103447500D01*
X104005000Y-103447500D02*
X104445000Y-103447500D01*
X104445000Y-103447500D02*
X104445000Y-105187500D01*
X104445000Y-105187500D02*
X104005000Y-105187500D01*
G36*
X104445000Y-105187500D02*
G01*
X104005000Y-105187500D01*
X104005000Y-103447500D01*
X104445000Y-103447500D01*
X104445000Y-105187500D01*
G37*
X104445000Y-105187500D02*
X104005000Y-105187500D01*
X104005000Y-103447500D01*
X104445000Y-103447500D01*
X104445000Y-105187500D01*
X102055000Y-110787500D02*
X102055000Y-109047500D01*
X102055000Y-109047500D02*
X102495000Y-109047500D01*
X102495000Y-109047500D02*
X102495000Y-110787500D01*
X102495000Y-110787500D02*
X102055000Y-110787500D01*
G36*
X102495000Y-110787500D02*
G01*
X102055000Y-110787500D01*
X102055000Y-109047500D01*
X102495000Y-109047500D01*
X102495000Y-110787500D01*
G37*
X102495000Y-110787500D02*
X102055000Y-110787500D01*
X102055000Y-109047500D01*
X102495000Y-109047500D01*
X102495000Y-110787500D01*
X95555000Y-105187500D02*
X95555000Y-103447500D01*
X95555000Y-103447500D02*
X95995000Y-103447500D01*
X95995000Y-103447500D02*
X95995000Y-105187500D01*
X95995000Y-105187500D02*
X95555000Y-105187500D01*
G36*
X95995000Y-105187500D02*
G01*
X95555000Y-105187500D01*
X95555000Y-103447500D01*
X95995000Y-103447500D01*
X95995000Y-105187500D01*
G37*
X95995000Y-105187500D02*
X95555000Y-105187500D01*
X95555000Y-103447500D01*
X95995000Y-103447500D01*
X95995000Y-105187500D01*
X100105000Y-110787500D02*
X100105000Y-109047500D01*
X100105000Y-109047500D02*
X100545000Y-109047500D01*
X100545000Y-109047500D02*
X100545000Y-110787500D01*
X100545000Y-110787500D02*
X100105000Y-110787500D01*
G36*
X100545000Y-110787500D02*
G01*
X100105000Y-110787500D01*
X100105000Y-109047500D01*
X100545000Y-109047500D01*
X100545000Y-110787500D01*
G37*
X100545000Y-110787500D02*
X100105000Y-110787500D01*
X100105000Y-109047500D01*
X100545000Y-109047500D01*
X100545000Y-110787500D01*
X95555000Y-110787500D02*
X95555000Y-109047500D01*
X95555000Y-109047500D02*
X95995000Y-109047500D01*
X95995000Y-109047500D02*
X95995000Y-110787500D01*
X95995000Y-110787500D02*
X95555000Y-110787500D01*
G36*
X95995000Y-110787500D02*
G01*
X95555000Y-110787500D01*
X95555000Y-109047500D01*
X95995000Y-109047500D01*
X95995000Y-110787500D01*
G37*
X95995000Y-110787500D02*
X95555000Y-110787500D01*
X95555000Y-109047500D01*
X95995000Y-109047500D01*
X95995000Y-110787500D01*
X100755000Y-110787500D02*
X100755000Y-109047500D01*
X100755000Y-109047500D02*
X101195000Y-109047500D01*
X101195000Y-109047500D02*
X101195000Y-110787500D01*
X101195000Y-110787500D02*
X100755000Y-110787500D01*
G36*
X101195000Y-110787500D02*
G01*
X100755000Y-110787500D01*
X100755000Y-109047500D01*
X101195000Y-109047500D01*
X101195000Y-110787500D01*
G37*
X101195000Y-110787500D02*
X100755000Y-110787500D01*
X100755000Y-109047500D01*
X101195000Y-109047500D01*
X101195000Y-110787500D01*
X103355000Y-110787500D02*
X103355000Y-109047500D01*
X103355000Y-109047500D02*
X103795000Y-109047500D01*
X103795000Y-109047500D02*
X103795000Y-110787500D01*
X103795000Y-110787500D02*
X103355000Y-110787500D01*
G36*
X103795000Y-110787500D02*
G01*
X103355000Y-110787500D01*
X103355000Y-109047500D01*
X103795000Y-109047500D01*
X103795000Y-110787500D01*
G37*
X103795000Y-110787500D02*
X103355000Y-110787500D01*
X103355000Y-109047500D01*
X103795000Y-109047500D01*
X103795000Y-110787500D01*
X102055000Y-105187500D02*
X102055000Y-103447500D01*
X102055000Y-103447500D02*
X102495000Y-103447500D01*
X102495000Y-103447500D02*
X102495000Y-105187500D01*
X102495000Y-105187500D02*
X102055000Y-105187500D01*
G36*
X102495000Y-105187500D02*
G01*
X102055000Y-105187500D01*
X102055000Y-103447500D01*
X102495000Y-103447500D01*
X102495000Y-105187500D01*
G37*
X102495000Y-105187500D02*
X102055000Y-105187500D01*
X102055000Y-103447500D01*
X102495000Y-103447500D01*
X102495000Y-105187500D01*
X96855000Y-105187500D02*
X96855000Y-103447500D01*
X96855000Y-103447500D02*
X97295000Y-103447500D01*
X97295000Y-103447500D02*
X97295000Y-105187500D01*
X97295000Y-105187500D02*
X96855000Y-105187500D01*
G36*
X97295000Y-105187500D02*
G01*
X96855000Y-105187500D01*
X96855000Y-103447500D01*
X97295000Y-103447500D01*
X97295000Y-105187500D01*
G37*
X97295000Y-105187500D02*
X96855000Y-105187500D01*
X96855000Y-103447500D01*
X97295000Y-103447500D01*
X97295000Y-105187500D01*
X103355000Y-105187500D02*
X103355000Y-103447500D01*
X103355000Y-103447500D02*
X103795000Y-103447500D01*
X103795000Y-103447500D02*
X103795000Y-105187500D01*
X103795000Y-105187500D02*
X103355000Y-105187500D01*
G36*
X103795000Y-105187500D02*
G01*
X103355000Y-105187500D01*
X103355000Y-103447500D01*
X103795000Y-103447500D01*
X103795000Y-105187500D01*
G37*
X103795000Y-105187500D02*
X103355000Y-105187500D01*
X103355000Y-103447500D01*
X103795000Y-103447500D01*
X103795000Y-105187500D01*
X100105000Y-105187500D02*
X100105000Y-103447500D01*
X100105000Y-103447500D02*
X100545000Y-103447500D01*
X100545000Y-103447500D02*
X100545000Y-105187500D01*
X100545000Y-105187500D02*
X100105000Y-105187500D01*
G36*
X100545000Y-105187500D02*
G01*
X100105000Y-105187500D01*
X100105000Y-103447500D01*
X100545000Y-103447500D01*
X100545000Y-105187500D01*
G37*
X100545000Y-105187500D02*
X100105000Y-105187500D01*
X100105000Y-103447500D01*
X100545000Y-103447500D01*
X100545000Y-105187500D01*
X96205000Y-105187500D02*
X96205000Y-103447500D01*
X96205000Y-103447500D02*
X96645000Y-103447500D01*
X96645000Y-103447500D02*
X96645000Y-105187500D01*
X96645000Y-105187500D02*
X96205000Y-105187500D01*
G36*
X96645000Y-105187500D02*
G01*
X96205000Y-105187500D01*
X96205000Y-103447500D01*
X96645000Y-103447500D01*
X96645000Y-105187500D01*
G37*
X96645000Y-105187500D02*
X96205000Y-105187500D01*
X96205000Y-103447500D01*
X96645000Y-103447500D01*
X96645000Y-105187500D01*
X98805000Y-105187500D02*
X98805000Y-103447500D01*
X98805000Y-103447500D02*
X99245000Y-103447500D01*
X99245000Y-103447500D02*
X99245000Y-105187500D01*
X99245000Y-105187500D02*
X98805000Y-105187500D01*
G36*
X99245000Y-105187500D02*
G01*
X98805000Y-105187500D01*
X98805000Y-103447500D01*
X99245000Y-103447500D01*
X99245000Y-105187500D01*
G37*
X99245000Y-105187500D02*
X98805000Y-105187500D01*
X98805000Y-103447500D01*
X99245000Y-103447500D01*
X99245000Y-105187500D01*
X98155000Y-110787500D02*
X98155000Y-109047500D01*
X98155000Y-109047500D02*
X98595000Y-109047500D01*
X98595000Y-109047500D02*
X98595000Y-110787500D01*
X98595000Y-110787500D02*
X98155000Y-110787500D01*
G36*
X98595000Y-110787500D02*
G01*
X98155000Y-110787500D01*
X98155000Y-109047500D01*
X98595000Y-109047500D01*
X98595000Y-110787500D01*
G37*
X98595000Y-110787500D02*
X98155000Y-110787500D01*
X98155000Y-109047500D01*
X98595000Y-109047500D01*
X98595000Y-110787500D01*
X102705000Y-110787500D02*
X102705000Y-109047500D01*
X102705000Y-109047500D02*
X103145000Y-109047500D01*
X103145000Y-109047500D02*
X103145000Y-110787500D01*
X103145000Y-110787500D02*
X102705000Y-110787500D01*
G36*
X103145000Y-110787500D02*
G01*
X102705000Y-110787500D01*
X102705000Y-109047500D01*
X103145000Y-109047500D01*
X103145000Y-110787500D01*
G37*
X103145000Y-110787500D02*
X102705000Y-110787500D01*
X102705000Y-109047500D01*
X103145000Y-109047500D01*
X103145000Y-110787500D01*
X98805000Y-110787500D02*
X98805000Y-109047500D01*
X98805000Y-109047500D02*
X99245000Y-109047500D01*
X99245000Y-109047500D02*
X99245000Y-110787500D01*
X99245000Y-110787500D02*
X98805000Y-110787500D01*
G36*
X99245000Y-110787500D02*
G01*
X98805000Y-110787500D01*
X98805000Y-109047500D01*
X99245000Y-109047500D01*
X99245000Y-110787500D01*
G37*
X99245000Y-110787500D02*
X98805000Y-110787500D01*
X98805000Y-109047500D01*
X99245000Y-109047500D01*
X99245000Y-110787500D01*
X97505000Y-110787500D02*
X97505000Y-109047500D01*
X97505000Y-109047500D02*
X97945000Y-109047500D01*
X97945000Y-109047500D02*
X97945000Y-110787500D01*
X97945000Y-110787500D02*
X97505000Y-110787500D01*
G36*
X97945000Y-110787500D02*
G01*
X97505000Y-110787500D01*
X97505000Y-109047500D01*
X97945000Y-109047500D01*
X97945000Y-110787500D01*
G37*
X97945000Y-110787500D02*
X97505000Y-110787500D01*
X97505000Y-109047500D01*
X97945000Y-109047500D01*
X97945000Y-110787500D01*
X99455000Y-105187500D02*
X99455000Y-103447500D01*
X99455000Y-103447500D02*
X99895000Y-103447500D01*
X99895000Y-103447500D02*
X99895000Y-105187500D01*
X99895000Y-105187500D02*
X99455000Y-105187500D01*
G36*
X99895000Y-105187500D02*
G01*
X99455000Y-105187500D01*
X99455000Y-103447500D01*
X99895000Y-103447500D01*
X99895000Y-105187500D01*
G37*
X99895000Y-105187500D02*
X99455000Y-105187500D01*
X99455000Y-103447500D01*
X99895000Y-103447500D01*
X99895000Y-105187500D01*
X96855000Y-110787500D02*
X96855000Y-109047500D01*
X96855000Y-109047500D02*
X97295000Y-109047500D01*
X97295000Y-109047500D02*
X97295000Y-110787500D01*
X97295000Y-110787500D02*
X96855000Y-110787500D01*
G36*
X97295000Y-110787500D02*
G01*
X96855000Y-110787500D01*
X96855000Y-109047500D01*
X97295000Y-109047500D01*
X97295000Y-110787500D01*
G37*
X97295000Y-110787500D02*
X96855000Y-110787500D01*
X96855000Y-109047500D01*
X97295000Y-109047500D01*
X97295000Y-110787500D01*
X101405000Y-110787500D02*
X101405000Y-109047500D01*
X101405000Y-109047500D02*
X101845000Y-109047500D01*
X101845000Y-109047500D02*
X101845000Y-110787500D01*
X101845000Y-110787500D02*
X101405000Y-110787500D01*
G36*
X101845000Y-110787500D02*
G01*
X101405000Y-110787500D01*
X101405000Y-109047500D01*
X101845000Y-109047500D01*
X101845000Y-110787500D01*
G37*
X101845000Y-110787500D02*
X101405000Y-110787500D01*
X101405000Y-109047500D01*
X101845000Y-109047500D01*
X101845000Y-110787500D01*
X97520000Y-108317500D02*
X97520000Y-105917500D01*
X97520000Y-105917500D02*
X102480000Y-105917500D01*
X102480000Y-105917500D02*
X102480000Y-108317500D01*
X102480000Y-108317500D02*
X97520000Y-108317500D01*
G36*
X102480000Y-108317500D02*
G01*
X97520000Y-108317500D01*
X97520000Y-105917500D01*
X102480000Y-105917500D01*
X102480000Y-108317500D01*
G37*
X102480000Y-108317500D02*
X97520000Y-108317500D01*
X97520000Y-105917500D01*
X102480000Y-105917500D01*
X102480000Y-108317500D01*
X102705000Y-105187500D02*
X102705000Y-103447500D01*
X102705000Y-103447500D02*
X103145000Y-103447500D01*
X103145000Y-103447500D02*
X103145000Y-105187500D01*
X103145000Y-105187500D02*
X102705000Y-105187500D01*
G36*
X103145000Y-105187500D02*
G01*
X102705000Y-105187500D01*
X102705000Y-103447500D01*
X103145000Y-103447500D01*
X103145000Y-105187500D01*
G37*
X103145000Y-105187500D02*
X102705000Y-105187500D01*
X102705000Y-103447500D01*
X103145000Y-103447500D01*
X103145000Y-105187500D01*
X97505000Y-105187500D02*
X97505000Y-103447500D01*
X97505000Y-103447500D02*
X97945000Y-103447500D01*
X97945000Y-103447500D02*
X97945000Y-105187500D01*
X97945000Y-105187500D02*
X97505000Y-105187500D01*
G36*
X97945000Y-105187500D02*
G01*
X97505000Y-105187500D01*
X97505000Y-103447500D01*
X97945000Y-103447500D01*
X97945000Y-105187500D01*
G37*
X97945000Y-105187500D02*
X97505000Y-105187500D01*
X97505000Y-103447500D01*
X97945000Y-103447500D01*
X97945000Y-105187500D01*
X100755000Y-105187500D02*
X100755000Y-103447500D01*
X100755000Y-103447500D02*
X101195000Y-103447500D01*
X101195000Y-103447500D02*
X101195000Y-105187500D01*
X101195000Y-105187500D02*
X100755000Y-105187500D01*
G36*
X101195000Y-105187500D02*
G01*
X100755000Y-105187500D01*
X100755000Y-103447500D01*
X101195000Y-103447500D01*
X101195000Y-105187500D01*
G37*
X101195000Y-105187500D02*
X100755000Y-105187500D01*
X100755000Y-103447500D01*
X101195000Y-103447500D01*
X101195000Y-105187500D01*
X104005000Y-110787500D02*
X104005000Y-109047500D01*
X104005000Y-109047500D02*
X104445000Y-109047500D01*
X104445000Y-109047500D02*
X104445000Y-110787500D01*
X104445000Y-110787500D02*
X104005000Y-110787500D01*
G36*
X104445000Y-110787500D02*
G01*
X104005000Y-110787500D01*
X104005000Y-109047500D01*
X104445000Y-109047500D01*
X104445000Y-110787500D01*
G37*
X104445000Y-110787500D02*
X104005000Y-110787500D01*
X104005000Y-109047500D01*
X104445000Y-109047500D01*
X104445000Y-110787500D01*
%TD*%
D16*
%TO.C,C1*%
X93580000Y-99100000D03*
X92620000Y-99100000D03*
%TD*%
D17*
%TO.C,C2*%
X95500000Y-92880000D03*
X95500000Y-91920000D03*
%TD*%
D16*
%TO.C,C3*%
X93580000Y-102400000D03*
X92620000Y-102400000D03*
%TD*%
%TO.C,C4*%
X93580000Y-94100000D03*
X92620000Y-94100000D03*
%TD*%
D18*
%TO.C,C9*%
X96820000Y-91100000D03*
X97780000Y-91100000D03*
%TD*%
D17*
%TO.C,C14*%
X96275000Y-113480000D03*
X96275000Y-112520000D03*
%TD*%
D19*
%TO.C,C16*%
X94750000Y-111570000D03*
X94750000Y-112530000D03*
%TD*%
D20*
%TO.C,JP1*%
X105850000Y-92800000D03*
X105850000Y-92200000D03*
%TD*%
D21*
%TO.C,R2*%
X100510000Y-87050000D03*
X99490000Y-87050000D03*
%TD*%
D22*
%TO.C,R8*%
X105670000Y-102570000D03*
X105670000Y-103590000D03*
%TD*%
D23*
%TO.C,Y1*%
X93070000Y-97800000D03*
X93070000Y-95400000D03*
D24*
X93070000Y-96600000D03*
%TD*%
D18*
%TO.C,C5*%
X103720000Y-101600000D03*
X104680000Y-101600000D03*
%TD*%
D19*
%TO.C,C17*%
X93750000Y-109670000D03*
X93750000Y-110630000D03*
%TD*%
D25*
%TO.C,C15*%
X108280000Y-110965000D03*
X108280000Y-108015000D03*
%TD*%
D26*
%TO.C,D1*%
X100485000Y-86000000D03*
X99515000Y-86000000D03*
%TD*%
D27*
%TO.C,R1*%
X104200000Y-92560000D03*
X104200000Y-91540000D03*
%TD*%
D17*
%TO.C,C20*%
X106850000Y-103590000D03*
X106850000Y-102630000D03*
%TD*%
D28*
%TO.C,U1*%
X95837500Y-94250000D03*
X95837500Y-94750000D03*
X95837500Y-95250000D03*
X95837500Y-95750000D03*
X95837500Y-96250000D03*
X95837500Y-96750000D03*
X95837500Y-97250000D03*
X95837500Y-97750000D03*
X95837500Y-98250000D03*
X95837500Y-98750000D03*
X95837500Y-99250000D03*
X95837500Y-99750000D03*
D29*
X97250000Y-101162500D03*
X97750000Y-101162500D03*
X98250000Y-101162500D03*
X98750000Y-101162500D03*
X99250000Y-101162500D03*
X99750000Y-101162500D03*
X100250000Y-101162500D03*
X100750000Y-101162500D03*
X101250000Y-101162500D03*
X101750000Y-101162500D03*
X102250000Y-101162500D03*
X102750000Y-101162500D03*
D28*
X104162500Y-99750000D03*
X104162500Y-99250000D03*
X104162500Y-98750000D03*
X104162500Y-98250000D03*
X104162500Y-97750000D03*
X104162500Y-97250000D03*
X104162500Y-96750000D03*
X104162500Y-96250000D03*
X104162500Y-95750000D03*
X104162500Y-95250000D03*
X104162500Y-94750000D03*
X104162500Y-94250000D03*
D29*
X102750000Y-92837500D03*
X102250000Y-92837500D03*
X101750000Y-92837500D03*
X101250000Y-92837500D03*
X100750000Y-92837500D03*
X100250000Y-92837500D03*
X99750000Y-92837500D03*
X99250000Y-92837500D03*
X98750000Y-92837500D03*
X98250000Y-92837500D03*
X97750000Y-92837500D03*
X97250000Y-92837500D03*
%TD*%
D19*
%TO.C,C8*%
X105800000Y-94020000D03*
X105800000Y-94980000D03*
%TD*%
D16*
%TO.C,C6*%
X93580000Y-101300000D03*
X92620000Y-101300000D03*
%TD*%
D30*
%TO.C,J2*%
X108914282Y-93862195D03*
X109173101Y-94828121D03*
X109431920Y-95794046D03*
X109690739Y-96759972D03*
X109949558Y-97725898D03*
X110208377Y-98691824D03*
X110467196Y-99657750D03*
X110726015Y-100623676D03*
D31*
X113501442Y-101225861D03*
X111016780Y-91952973D03*
%TD*%
D32*
%TO.C,R3*%
X92590000Y-100200000D03*
X93610000Y-100200000D03*
%TD*%
D33*
%TO.C,C13*%
X106250000Y-110175000D03*
X106250000Y-108625000D03*
%TD*%
D34*
%TO.C,J3*%
X87882381Y-101237036D03*
D35*
X88205905Y-100029629D03*
X88529429Y-98822221D03*
X88852952Y-97614814D03*
X89176476Y-96407407D03*
X89500000Y-95200000D03*
X89823524Y-93992592D03*
X90147048Y-92785185D03*
%TD*%
D36*
%TO.C,J1*%
X101250000Y-112350000D03*
D37*
X100000000Y-112350000D03*
X98750000Y-112350000D03*
%TD*%
M02*
