%TF.GenerationSoftware,KiCad,Pcbnew,(6.0.0)*%
%TF.CreationDate,2022-02-06T18:29:28+08:00*%
%TF.ProjectId,STM32_FOC,53544d33-325f-4464-9f43-2e6b69636164,rev?*%
%TF.SameCoordinates,Original*%
%TF.FileFunction,Copper,L4,Bot*%
%TF.FilePolarity,Positive*%
%FSLAX46Y46*%
G04 Gerber Fmt 4.6, Leading zero omitted, Abs format (unit mm)*
G04 Created by KiCad (PCBNEW (6.0.0)) date 2022-02-06 18:29:28*
%MOMM*%
%LPD*%
G01*
G04 APERTURE LIST*
G04 Aperture macros list*
%AMRoundRect*
0 Rectangle with rounded corners*
0 $1 Rounding radius*
0 $2 $3 $4 $5 $6 $7 $8 $9 X,Y pos of 4 corners*
0 Add a 4 corners polygon primitive as box body*
4,1,4,$2,$3,$4,$5,$6,$7,$8,$9,$2,$3,0*
0 Add four circle primitives for the rounded corners*
1,1,$1+$1,$2,$3*
1,1,$1+$1,$4,$5*
1,1,$1+$1,$6,$7*
1,1,$1+$1,$8,$9*
0 Add four rect primitives between the rounded corners*
20,1,$1+$1,$2,$3,$4,$5,0*
20,1,$1+$1,$4,$5,$6,$7,0*
20,1,$1+$1,$6,$7,$8,$9,0*
20,1,$1+$1,$8,$9,$2,$3,0*%
%AMHorizOval*
0 Thick line with rounded ends*
0 $1 width*
0 $2 $3 position (X,Y) of the first rounded end (center of the circle)*
0 $4 $5 position (X,Y) of the second rounded end (center of the circle)*
0 Add line between two ends*
20,1,$1,$2,$3,$4,$5,0*
0 Add two circle primitives to create the rounded ends*
1,1,$1,$2,$3*
1,1,$1,$4,$5*%
G04 Aperture macros list end*
%TA.AperFunction,ComponentPad*%
%ADD10C,0.500000*%
%TD*%
%TA.AperFunction,ComponentPad*%
%ADD11RoundRect,0.200000X0.382903X-0.309654X0.486430X0.076717X-0.382903X0.309654X-0.486430X-0.076717X0*%
%TD*%
%TA.AperFunction,ComponentPad*%
%ADD12HorizOval,0.800000X-0.241481X0.064705X0.241481X-0.064705X0*%
%TD*%
%TA.AperFunction,ComponentPad*%
%ADD13RoundRect,0.200000X0.200000X0.450000X-0.200000X0.450000X-0.200000X-0.450000X0.200000X-0.450000X0*%
%TD*%
%TA.AperFunction,ComponentPad*%
%ADD14O,0.800000X1.300000*%
%TD*%
%TA.AperFunction,SMDPad,CuDef*%
%ADD15RoundRect,0.062500X-0.325000X-0.062500X0.325000X-0.062500X0.325000X0.062500X-0.325000X0.062500X0*%
%TD*%
%TA.AperFunction,SMDPad,CuDef*%
%ADD16RoundRect,0.062500X-0.062500X-0.325000X0.062500X-0.325000X0.062500X0.325000X-0.062500X0.325000X0*%
%TD*%
%TA.AperFunction,SMDPad,CuDef*%
%ADD17R,1.750000X1.750000*%
%TD*%
%TA.AperFunction,SMDPad,CuDef*%
%ADD18RoundRect,0.140000X-0.140000X-0.170000X0.140000X-0.170000X0.140000X0.170000X-0.140000X0.170000X0*%
%TD*%
%TA.AperFunction,ViaPad*%
%ADD19C,0.500000*%
%TD*%
%TA.AperFunction,Conductor*%
%ADD20C,0.300000*%
%TD*%
%TA.AperFunction,Conductor*%
%ADD21C,0.200000*%
%TD*%
%TA.AperFunction,Conductor*%
%ADD22C,0.250000*%
%TD*%
G04 APERTURE END LIST*
D10*
%TO.P,U4,30*%
%TO.N,GND*%
X100000000Y-107117500D03*
%TO.P,U4,31*%
X98700000Y-107117500D03*
%TO.P,U4,34*%
X101300000Y-107117500D03*
%TO.P,U4,41*%
X98700000Y-106117500D03*
%TO.P,U4,42*%
X98700000Y-108117500D03*
%TO.P,U4,43*%
X100000000Y-108117500D03*
%TO.P,U4,44*%
X100000000Y-106117500D03*
%TO.P,U4,45*%
X101300000Y-108117500D03*
%TO.P,U4,46*%
X101300000Y-106117500D03*
%TD*%
D11*
%TO.P,J3,1,Pin_1*%
%TO.N,+12V*%
X87882381Y-101237036D03*
D12*
%TO.P,J3,2,Pin_2*%
%TO.N,GND*%
X88205905Y-100029629D03*
%TO.P,J3,3,Pin_3*%
%TO.N,SWDIO*%
X88529429Y-98822221D03*
%TO.P,J3,4,Pin_4*%
%TO.N,SWCLK*%
X88852952Y-97614814D03*
%TO.P,J3,5,Pin_5*%
%TO.N,USART2_TX*%
X89176476Y-96407407D03*
%TO.P,J3,6,Pin_6*%
%TO.N,USART2_RX*%
X89500000Y-95200000D03*
%TO.P,J3,7,Pin_7*%
%TO.N,Button*%
X89823524Y-93992592D03*
%TO.P,J3,8,Pin_8*%
%TO.N,+3V3*%
X90147048Y-92785185D03*
%TD*%
D13*
%TO.P,J1,1,Pin_1*%
%TO.N,W*%
X101250000Y-112350000D03*
D14*
%TO.P,J1,2,Pin_2*%
%TO.N,V*%
X100000000Y-112350000D03*
%TO.P,J1,3,Pin_3*%
%TO.N,U*%
X98750000Y-112350000D03*
%TD*%
D15*
%TO.P,U3,1,SSD*%
%TO.N,unconnected-(U3-Pad1)*%
X98537500Y-100750000D03*
%TO.P,U3,2,A*%
%TO.N,unconnected-(U3-Pad2)*%
X98537500Y-100250000D03*
%TO.P,U3,3,Z*%
%TO.N,unconnected-(U3-Pad3)*%
X98537500Y-99750000D03*
%TO.P,U3,4,MOSI*%
%TO.N,MOSI*%
X98537500Y-99250000D03*
D16*
%TO.P,U3,5,~{CS}*%
%TO.N,CS*%
X99250000Y-98537500D03*
%TO.P,U3,6,B*%
%TO.N,unconnected-(U3-Pad6)*%
X99750000Y-98537500D03*
%TO.P,U3,7,MISO*%
%TO.N,MISO*%
X100250000Y-98537500D03*
%TO.P,U3,8,GND*%
%TO.N,GND*%
X100750000Y-98537500D03*
D15*
%TO.P,U3,9,PWM*%
%TO.N,unconnected-(U3-Pad9)*%
X101462500Y-99250000D03*
%TO.P,U3,10,TEST*%
%TO.N,GND*%
X101462500Y-99750000D03*
%TO.P,U3,11,MGL*%
%TO.N,unconnected-(U3-Pad11)*%
X101462500Y-100250000D03*
%TO.P,U3,12,SCLK*%
%TO.N,SCK*%
X101462500Y-100750000D03*
D16*
%TO.P,U3,13,VDD*%
%TO.N,+3V3*%
X100750000Y-101462500D03*
%TO.P,U3,14,NC*%
%TO.N,unconnected-(U3-Pad14)*%
X100250000Y-101462500D03*
%TO.P,U3,15,SSCK*%
%TO.N,unconnected-(U3-Pad15)*%
X99750000Y-101462500D03*
%TO.P,U3,16,MGH*%
%TO.N,unconnected-(U3-Pad16)*%
X99250000Y-101462500D03*
D17*
%TO.P,U3,17,PAD*%
%TO.N,GND*%
X100000000Y-100000000D03*
%TD*%
D18*
%TO.P,C18,1*%
%TO.N,+3V3*%
X100820000Y-102850000D03*
%TO.P,C18,2*%
%TO.N,GND*%
X101780000Y-102850000D03*
%TD*%
%TO.P,C19,1*%
%TO.N,+3V3*%
X100820000Y-103900000D03*
%TO.P,C19,2*%
%TO.N,GND*%
X101780000Y-103900000D03*
%TD*%
D19*
%TO.N,GND*%
X95500000Y-113500000D03*
X91700000Y-102400000D03*
X109400000Y-100890000D03*
X92600000Y-93300000D03*
X105800000Y-95760000D03*
X91700000Y-99100000D03*
X98600000Y-87050000D03*
X105500000Y-101600000D03*
X95150000Y-104300000D03*
X91600000Y-96600000D03*
X109200000Y-100110000D03*
X102037500Y-98537500D03*
X97800000Y-90200000D03*
X101740000Y-103120000D03*
X104200000Y-90700000D03*
X94600000Y-91900000D03*
%TO.N,+3V3*%
X103720000Y-100830000D03*
X94680000Y-92880000D03*
X108610000Y-98280000D03*
X91700000Y-100200000D03*
X108900000Y-99160000D03*
X104970000Y-93390000D03*
%TO.N,USART2_RX*%
X97250000Y-102500000D03*
%TO.N,SWCLK*%
X102475000Y-94250000D03*
%TO.N,SWDIO*%
X102575000Y-95175000D03*
%TO.N,PWMC*%
X106780000Y-100330000D03*
X105580000Y-96750000D03*
%TO.N,EN1*%
X95000000Y-100550000D03*
X98370000Y-102550000D03*
%TO.N,CS*%
X98250000Y-97800000D03*
%TO.N,SCK*%
X102850000Y-99375000D03*
%TO.N,MISO*%
X100250000Y-97550000D03*
%TO.N,MOSI*%
X101350000Y-97700000D03*
%TO.N,Button*%
X99750000Y-102500000D03*
%TD*%
D20*
%TO.N,GND*%
X101780000Y-102850000D02*
X101780000Y-103900000D01*
D21*
X102225000Y-98725000D02*
X102037500Y-98537500D01*
X102037500Y-98537500D02*
X100750000Y-98537500D01*
X100750000Y-98537500D02*
X100750000Y-99250000D01*
X102225000Y-99575000D02*
X102225000Y-98725000D01*
X101462500Y-99750000D02*
X102050000Y-99750000D01*
X102050000Y-99750000D02*
X102225000Y-99575000D01*
X100750000Y-99250000D02*
X100000000Y-100000000D01*
%TO.N,+3V3*%
X94680000Y-92880000D02*
X94320000Y-92880000D01*
D20*
X100750000Y-103830000D02*
X100820000Y-103900000D01*
D21*
X90982233Y-91950000D02*
X90147048Y-92785185D01*
X94320000Y-92880000D02*
X93390000Y-91950000D01*
X103087500Y-101462500D02*
X103720000Y-100830000D01*
X93390000Y-91950000D02*
X90982233Y-91950000D01*
X100750000Y-101462500D02*
X100750000Y-103830000D01*
X100750000Y-101462500D02*
X103087500Y-101462500D01*
D22*
%TO.N,USART2_RX*%
X87544296Y-103100000D02*
X86830000Y-102385704D01*
X86830000Y-97020000D02*
X88650000Y-95200000D01*
X86830000Y-102385704D02*
X86830000Y-97020000D01*
X89500000Y-95200000D02*
X88650000Y-95200000D01*
X96650000Y-103100000D02*
X87544296Y-103100000D01*
X97250000Y-102500000D02*
X96650000Y-103100000D01*
D21*
%TO.N,SWCLK*%
X94680000Y-94250000D02*
X93020000Y-92590000D01*
X91250000Y-93450000D02*
X91250000Y-95825000D01*
X91250000Y-95825000D02*
X89460186Y-97614814D01*
X102475000Y-94250000D02*
X94680000Y-94250000D01*
X89460186Y-97614814D02*
X88852952Y-97614814D01*
X93020000Y-92590000D02*
X92110000Y-92590000D01*
X92110000Y-92590000D02*
X91250000Y-93450000D01*
%TO.N,SWDIO*%
X102575000Y-95175000D02*
X97925000Y-95175000D01*
X90275000Y-98375000D02*
X89827779Y-98822221D01*
X97925000Y-95175000D02*
X94725000Y-98375000D01*
X94725000Y-98375000D02*
X90275000Y-98375000D01*
X89827779Y-98822221D02*
X88529429Y-98822221D01*
%TO.N,PWMC*%
X105580000Y-96750000D02*
X106190000Y-96750000D01*
X106190000Y-96750000D02*
X106780000Y-97340000D01*
X106780000Y-97340000D02*
X106780000Y-100330000D01*
%TO.N,EN1*%
X97550000Y-101650000D02*
X96100000Y-101650000D01*
X98370000Y-102550000D02*
X98370000Y-102470000D01*
X98370000Y-102470000D02*
X97550000Y-101650000D01*
X96100000Y-101650000D02*
X95000000Y-100550000D01*
D22*
%TO.N,CS*%
X98250000Y-97800000D02*
X99050000Y-97800000D01*
X99050000Y-97800000D02*
X99250000Y-98000000D01*
X99250000Y-98000000D02*
X99250000Y-98537500D01*
%TO.N,SCK*%
X102850000Y-100350000D02*
X102450000Y-100750000D01*
X102450000Y-100750000D02*
X101462500Y-100750000D01*
X102850000Y-99375000D02*
X102850000Y-100350000D01*
%TO.N,MISO*%
X100250000Y-97550000D02*
X100250000Y-98537500D01*
%TO.N,MOSI*%
X97400000Y-99250000D02*
X98537500Y-99250000D01*
X101350000Y-97000000D02*
X100850000Y-96500000D01*
X97150000Y-97250000D02*
X97150000Y-99000000D01*
X97150000Y-99000000D02*
X97400000Y-99250000D01*
X101350000Y-97700000D02*
X101350000Y-97000000D01*
X97900000Y-96500000D02*
X97150000Y-97250000D01*
X100850000Y-96500000D02*
X97900000Y-96500000D01*
%TO.N,Button*%
X98625000Y-103625000D02*
X87050000Y-103625000D01*
X86200000Y-96600000D02*
X88807408Y-93992592D01*
X87050000Y-103625000D02*
X86200000Y-102775000D01*
X86200000Y-102775000D02*
X86200000Y-96600000D01*
X88807408Y-93992592D02*
X89823524Y-93992592D01*
X99750000Y-102500000D02*
X98625000Y-103625000D01*
%TD*%
%TA.AperFunction,Conductor*%
%TO.N,MOSI*%
G36*
X101471774Y-97213427D02*
G01*
X101475199Y-97221497D01*
X101475945Y-97264702D01*
X101478806Y-97311647D01*
X101483618Y-97352360D01*
X101490418Y-97388368D01*
X101499243Y-97421195D01*
X101510128Y-97452368D01*
X101523110Y-97483411D01*
X101523171Y-97483542D01*
X101523175Y-97483551D01*
X101538200Y-97515798D01*
X101538225Y-97515852D01*
X101555509Y-97551216D01*
X101571400Y-97583674D01*
X101571960Y-97592612D01*
X101569325Y-97596929D01*
X101358433Y-97816231D01*
X101350229Y-97819819D01*
X101341567Y-97816231D01*
X101130675Y-97596929D01*
X101127410Y-97588590D01*
X101128600Y-97583675D01*
X101144490Y-97551216D01*
X101161774Y-97515852D01*
X101161799Y-97515798D01*
X101176824Y-97483551D01*
X101176828Y-97483542D01*
X101176889Y-97483411D01*
X101189871Y-97452368D01*
X101200756Y-97421195D01*
X101209581Y-97388368D01*
X101216381Y-97352360D01*
X101221193Y-97311647D01*
X101224054Y-97264702D01*
X101224801Y-97221498D01*
X101228370Y-97213285D01*
X101236499Y-97210000D01*
X101463501Y-97210000D01*
X101471774Y-97213427D01*
G37*
%TD.AperFunction*%
%TD*%
%TA.AperFunction,Conductor*%
%TO.N,Button*%
G36*
X89655227Y-93638418D02*
G01*
X90014755Y-93984159D01*
X90018343Y-93992363D01*
X90014755Y-94001025D01*
X89655227Y-94346766D01*
X89646889Y-94350031D01*
X89641715Y-94348711D01*
X89579518Y-94316328D01*
X89578989Y-94316035D01*
X89570263Y-94310903D01*
X89519585Y-94281095D01*
X89519309Y-94280925D01*
X89466714Y-94247710D01*
X89466712Y-94247707D01*
X89466711Y-94247708D01*
X89417961Y-94216902D01*
X89417951Y-94216896D01*
X89417883Y-94216853D01*
X89369876Y-94189068D01*
X89369674Y-94188971D01*
X89369668Y-94188968D01*
X89319863Y-94165098D01*
X89319588Y-94164966D01*
X89263913Y-94145156D01*
X89238081Y-94139155D01*
X89200048Y-94130320D01*
X89200045Y-94130320D01*
X89199746Y-94130250D01*
X89199437Y-94130212D01*
X89199433Y-94130211D01*
X89155410Y-94124754D01*
X89123985Y-94120858D01*
X89068394Y-94118851D01*
X89044802Y-94117999D01*
X89036658Y-94114276D01*
X89033524Y-94106307D01*
X89033524Y-93878877D01*
X89036951Y-93870604D01*
X89044802Y-93867185D01*
X89077736Y-93865995D01*
X89123985Y-93864325D01*
X89155410Y-93860429D01*
X89199433Y-93854972D01*
X89199437Y-93854971D01*
X89199746Y-93854933D01*
X89200045Y-93854863D01*
X89200048Y-93854863D01*
X89263594Y-93840101D01*
X89263592Y-93840101D01*
X89263913Y-93840027D01*
X89319588Y-93820217D01*
X89339290Y-93810774D01*
X89369668Y-93796215D01*
X89369674Y-93796212D01*
X89369876Y-93796115D01*
X89417883Y-93768330D01*
X89466711Y-93737475D01*
X89519309Y-93704258D01*
X89519585Y-93704088D01*
X89578989Y-93669148D01*
X89579518Y-93668855D01*
X89587403Y-93664750D01*
X89641715Y-93636473D01*
X89650635Y-93635692D01*
X89655227Y-93638418D01*
G37*
%TD.AperFunction*%
%TD*%
%TA.AperFunction,Conductor*%
%TO.N,Button*%
G36*
X99834562Y-102415115D02*
G01*
X99838150Y-102423777D01*
X99832203Y-102727969D01*
X99828615Y-102736173D01*
X99824298Y-102738808D01*
X99790110Y-102750523D01*
X99752922Y-102763292D01*
X99752904Y-102763298D01*
X99752882Y-102763306D01*
X99719256Y-102775558D01*
X99688125Y-102788329D01*
X99687985Y-102788397D01*
X99687975Y-102788401D01*
X99674228Y-102795033D01*
X99658386Y-102802675D01*
X99658198Y-102802783D01*
X99658191Y-102802787D01*
X99640892Y-102812756D01*
X99628934Y-102819647D01*
X99598665Y-102840300D01*
X99566473Y-102865686D01*
X99531255Y-102896858D01*
X99531187Y-102896924D01*
X99500177Y-102926880D01*
X99491846Y-102930163D01*
X99483775Y-102926738D01*
X99323261Y-102766224D01*
X99319834Y-102757951D01*
X99323118Y-102749823D01*
X99353141Y-102718744D01*
X99384313Y-102683526D01*
X99409699Y-102651334D01*
X99430352Y-102621065D01*
X99447324Y-102591613D01*
X99461670Y-102561874D01*
X99474441Y-102530743D01*
X99486693Y-102497117D01*
X99499476Y-102459889D01*
X99511192Y-102425702D01*
X99517116Y-102418987D01*
X99522031Y-102417797D01*
X99826223Y-102411850D01*
X99834562Y-102415115D01*
G37*
%TD.AperFunction*%
%TD*%
%TA.AperFunction,Conductor*%
%TO.N,+3V3*%
G36*
X94577194Y-92660930D02*
G01*
X94793858Y-92869285D01*
X94797446Y-92877489D01*
X94794181Y-92885828D01*
X94791662Y-92887813D01*
X94510530Y-93052496D01*
X94501659Y-93053721D01*
X94496876Y-93051175D01*
X94468015Y-93025707D01*
X94467073Y-93025078D01*
X94434504Y-93003330D01*
X94434497Y-93003326D01*
X94434193Y-93003123D01*
X94401231Y-92986723D01*
X94368602Y-92974204D01*
X94368497Y-92974169D01*
X94335804Y-92963273D01*
X94335662Y-92963224D01*
X94302594Y-92951730D01*
X94301886Y-92951458D01*
X94267990Y-92937153D01*
X94266923Y-92936638D01*
X94231473Y-92917243D01*
X94230310Y-92916515D01*
X94192543Y-92889666D01*
X94191492Y-92888823D01*
X94159454Y-92859966D01*
X94155600Y-92851883D01*
X94159011Y-92843000D01*
X94284190Y-92717821D01*
X94292463Y-92714394D01*
X94299917Y-92717076D01*
X94321116Y-92734605D01*
X94331442Y-92739596D01*
X94348406Y-92747796D01*
X94348408Y-92747797D01*
X94349170Y-92748165D01*
X94366023Y-92750873D01*
X94375444Y-92752388D01*
X94375446Y-92752388D01*
X94376261Y-92752519D01*
X94402771Y-92749213D01*
X94429082Y-92739790D01*
X94429446Y-92739598D01*
X94429450Y-92739596D01*
X94439746Y-92734157D01*
X94455575Y-92725796D01*
X94482635Y-92708775D01*
X94482679Y-92708746D01*
X94510523Y-92690351D01*
X94510746Y-92690207D01*
X94539659Y-92672033D01*
X94540309Y-92671653D01*
X94563508Y-92659077D01*
X94572414Y-92658147D01*
X94577194Y-92660930D01*
G37*
%TD.AperFunction*%
%TD*%
%TA.AperFunction,Conductor*%
%TO.N,+3V3*%
G36*
X90642881Y-92163791D02*
G01*
X90768442Y-92289352D01*
X90771869Y-92297625D01*
X90768786Y-92305540D01*
X90714481Y-92364648D01*
X90714302Y-92364888D01*
X90714297Y-92364894D01*
X90684492Y-92404854D01*
X90668611Y-92426145D01*
X90635816Y-92483519D01*
X90613150Y-92538518D01*
X90597667Y-92592889D01*
X90586422Y-92648378D01*
X90586404Y-92648484D01*
X90586403Y-92648489D01*
X90576485Y-92706631D01*
X90576458Y-92706785D01*
X90564911Y-92769416D01*
X90564798Y-92769959D01*
X90548737Y-92838645D01*
X90548529Y-92839412D01*
X90527379Y-92908354D01*
X90521677Y-92915259D01*
X90516425Y-92916621D01*
X90177556Y-92923245D01*
X90017792Y-92926368D01*
X90009453Y-92923103D01*
X90005865Y-92914441D01*
X90013207Y-92538833D01*
X90015612Y-92415809D01*
X90019200Y-92407606D01*
X90023878Y-92404854D01*
X90039057Y-92400197D01*
X90092830Y-92383699D01*
X90093578Y-92383497D01*
X90162274Y-92367434D01*
X90162816Y-92367321D01*
X90225447Y-92355774D01*
X90225601Y-92355747D01*
X90283743Y-92345829D01*
X90283748Y-92345828D01*
X90283854Y-92345810D01*
X90339343Y-92334565D01*
X90339560Y-92334503D01*
X90339565Y-92334502D01*
X90393399Y-92319172D01*
X90393404Y-92319170D01*
X90393714Y-92319082D01*
X90402934Y-92315282D01*
X90448362Y-92296561D01*
X90448366Y-92296559D01*
X90448713Y-92296416D01*
X90506087Y-92263621D01*
X90506382Y-92263401D01*
X90567334Y-92217938D01*
X90567340Y-92217933D01*
X90567584Y-92217751D01*
X90602166Y-92185980D01*
X90626693Y-92163448D01*
X90635103Y-92160374D01*
X90642881Y-92163791D01*
G37*
%TD.AperFunction*%
%TD*%
%TA.AperFunction,Conductor*%
%TO.N,+3V3*%
G36*
X103804562Y-100745115D02*
G01*
X103808150Y-100753777D01*
X103802205Y-101057845D01*
X103798617Y-101066049D01*
X103794143Y-101068737D01*
X103757636Y-101080674D01*
X103757312Y-101080774D01*
X103745377Y-101084297D01*
X103717833Y-101092427D01*
X103681947Y-101102643D01*
X103648740Y-101112735D01*
X103648604Y-101112784D01*
X103648591Y-101112788D01*
X103635353Y-101117532D01*
X103617115Y-101124068D01*
X103585971Y-101138010D01*
X103554210Y-101155927D01*
X103520732Y-101179185D01*
X103484438Y-101209151D01*
X103484304Y-101209278D01*
X103452496Y-101239371D01*
X103444131Y-101242568D01*
X103436182Y-101239145D01*
X103310855Y-101113818D01*
X103307428Y-101105545D01*
X103310629Y-101097504D01*
X103340721Y-101065695D01*
X103340848Y-101065561D01*
X103370814Y-101029267D01*
X103394072Y-100995789D01*
X103411989Y-100964028D01*
X103425931Y-100932884D01*
X103437264Y-100901259D01*
X103447356Y-100868052D01*
X103457572Y-100832166D01*
X103469222Y-100792697D01*
X103469322Y-100792373D01*
X103481263Y-100755857D01*
X103487092Y-100749058D01*
X103492155Y-100747795D01*
X103796223Y-100741850D01*
X103804562Y-100745115D01*
G37*
%TD.AperFunction*%
%TD*%
%TA.AperFunction,Conductor*%
%TO.N,+3V3*%
G36*
X100862500Y-101516986D02*
G01*
X100857094Y-101530181D01*
X100853210Y-101544130D01*
X100850624Y-101559039D01*
X100849112Y-101575111D01*
X100848448Y-101592554D01*
X100848408Y-101611571D01*
X100848410Y-101611670D01*
X100848767Y-101632369D01*
X100849301Y-101655106D01*
X100849302Y-101655154D01*
X100849786Y-101680049D01*
X100849788Y-101680185D01*
X100849909Y-101695709D01*
X100846546Y-101704008D01*
X100838209Y-101707500D01*
X100661791Y-101707500D01*
X100653518Y-101704073D01*
X100650091Y-101695710D01*
X100650211Y-101680186D01*
X100650213Y-101680049D01*
X100650696Y-101655201D01*
X100650697Y-101655153D01*
X100651232Y-101632369D01*
X100651589Y-101611670D01*
X100651591Y-101611571D01*
X100651551Y-101592554D01*
X100650887Y-101575111D01*
X100649375Y-101559039D01*
X100646789Y-101544130D01*
X100642905Y-101530181D01*
X100641522Y-101526804D01*
X100640389Y-101524037D01*
X100640424Y-101515083D01*
X100642783Y-101511493D01*
X100662126Y-101491378D01*
X100747055Y-101403062D01*
X100750641Y-101400667D01*
X100862500Y-101516986D01*
G37*
%TD.AperFunction*%
%TD*%
%TA.AperFunction,Conductor*%
%TO.N,+3V3*%
G36*
X100846983Y-103343427D02*
G01*
X100850403Y-103351282D01*
X100852084Y-103398348D01*
X100858233Y-103447630D01*
X100868289Y-103489552D01*
X100882095Y-103525824D01*
X100899494Y-103558154D01*
X100920328Y-103588251D01*
X100944440Y-103617823D01*
X100944535Y-103617930D01*
X100971673Y-103648578D01*
X101001829Y-103682180D01*
X101001979Y-103682352D01*
X101029459Y-103714201D01*
X101032269Y-103722703D01*
X101030749Y-103727666D01*
X100998271Y-103784276D01*
X100860009Y-104025266D01*
X100852920Y-104030737D01*
X100843646Y-104029357D01*
X100552999Y-103847150D01*
X100547810Y-103839852D01*
X100547820Y-103834580D01*
X100559551Y-103784276D01*
X100559681Y-103783768D01*
X100573724Y-103733784D01*
X100573840Y-103733398D01*
X100587922Y-103689192D01*
X100587976Y-103689025D01*
X100590255Y-103682226D01*
X100601716Y-103648025D01*
X100614591Y-103608049D01*
X100620175Y-103588070D01*
X100626085Y-103566921D01*
X100626086Y-103566916D01*
X100626136Y-103566738D01*
X100635900Y-103521684D01*
X100643433Y-103470481D01*
X100648283Y-103410722D01*
X100649723Y-103351416D01*
X100653350Y-103343228D01*
X100661420Y-103340000D01*
X100838710Y-103340000D01*
X100846983Y-103343427D01*
G37*
%TD.AperFunction*%
%TD*%
%TA.AperFunction,Conductor*%
%TO.N,+3V3*%
G36*
X100811537Y-101352889D02*
G01*
X100817365Y-101355276D01*
X100817372Y-101355278D01*
X100817681Y-101355405D01*
X100818003Y-101355495D01*
X100818007Y-101355496D01*
X100831339Y-101359208D01*
X100831630Y-101359289D01*
X100831915Y-101359338D01*
X100831922Y-101359340D01*
X100838214Y-101360431D01*
X100846539Y-101361875D01*
X100855447Y-101362713D01*
X100862449Y-101363372D01*
X100862457Y-101363373D01*
X100862611Y-101363387D01*
X100880054Y-101364051D01*
X100889654Y-101364071D01*
X100898968Y-101364091D01*
X100899071Y-101364091D01*
X100919869Y-101363732D01*
X100942653Y-101363197D01*
X100955272Y-101362951D01*
X100967549Y-101362713D01*
X100967686Y-101362711D01*
X100983210Y-101362591D01*
X100991509Y-101365954D01*
X100995000Y-101374291D01*
X100995000Y-101550709D01*
X100991573Y-101558982D01*
X100983210Y-101562409D01*
X100976650Y-101562358D01*
X100967685Y-101562288D01*
X100967549Y-101562286D01*
X100955272Y-101562048D01*
X100942653Y-101561802D01*
X100919869Y-101561267D01*
X100899071Y-101560908D01*
X100898968Y-101560908D01*
X100889654Y-101560928D01*
X100880054Y-101560948D01*
X100862611Y-101561612D01*
X100862457Y-101561626D01*
X100862449Y-101561627D01*
X100855425Y-101562288D01*
X100846539Y-101563124D01*
X100831630Y-101565710D01*
X100817681Y-101569594D01*
X100804486Y-101575000D01*
X100688167Y-101463142D01*
X100690564Y-101459554D01*
X100719283Y-101431936D01*
X100719289Y-101431930D01*
X100752875Y-101399632D01*
X100798993Y-101355283D01*
X100807332Y-101352018D01*
X100811537Y-101352889D01*
G37*
%TD.AperFunction*%
%TD*%
%TA.AperFunction,Conductor*%
%TO.N,USART2_RX*%
G36*
X89331703Y-94845826D02*
G01*
X89691231Y-95191567D01*
X89694819Y-95199771D01*
X89691231Y-95208433D01*
X89331703Y-95554174D01*
X89323365Y-95557439D01*
X89318191Y-95556119D01*
X89255994Y-95523736D01*
X89255465Y-95523443D01*
X89246739Y-95518311D01*
X89196061Y-95488503D01*
X89195785Y-95488333D01*
X89143190Y-95455118D01*
X89143188Y-95455115D01*
X89143187Y-95455116D01*
X89094437Y-95424310D01*
X89094427Y-95424304D01*
X89094359Y-95424261D01*
X89046352Y-95396476D01*
X89046150Y-95396379D01*
X89046144Y-95396376D01*
X88996339Y-95372506D01*
X88996064Y-95372374D01*
X88940389Y-95352564D01*
X88914557Y-95346563D01*
X88876524Y-95337728D01*
X88876521Y-95337728D01*
X88876222Y-95337658D01*
X88875913Y-95337620D01*
X88875909Y-95337619D01*
X88831886Y-95332162D01*
X88800461Y-95328266D01*
X88744870Y-95326259D01*
X88721278Y-95325407D01*
X88713134Y-95321684D01*
X88710000Y-95313715D01*
X88710000Y-95086285D01*
X88713427Y-95078012D01*
X88721278Y-95074593D01*
X88754212Y-95073403D01*
X88800461Y-95071733D01*
X88831886Y-95067837D01*
X88875909Y-95062380D01*
X88875913Y-95062379D01*
X88876222Y-95062341D01*
X88876521Y-95062271D01*
X88876524Y-95062271D01*
X88940070Y-95047509D01*
X88940068Y-95047509D01*
X88940389Y-95047435D01*
X88996064Y-95027625D01*
X89015766Y-95018182D01*
X89046144Y-95003623D01*
X89046150Y-95003620D01*
X89046352Y-95003523D01*
X89094359Y-94975738D01*
X89143187Y-94944883D01*
X89195785Y-94911666D01*
X89196061Y-94911496D01*
X89255465Y-94876556D01*
X89255994Y-94876263D01*
X89263879Y-94872158D01*
X89318191Y-94843881D01*
X89327111Y-94843100D01*
X89331703Y-94845826D01*
G37*
%TD.AperFunction*%
%TD*%
%TA.AperFunction,Conductor*%
%TO.N,USART2_RX*%
G36*
X97334562Y-102415115D02*
G01*
X97338150Y-102423777D01*
X97332203Y-102727969D01*
X97328615Y-102736173D01*
X97324298Y-102738808D01*
X97290110Y-102750523D01*
X97252922Y-102763292D01*
X97252904Y-102763298D01*
X97252882Y-102763306D01*
X97219256Y-102775558D01*
X97188125Y-102788329D01*
X97187985Y-102788397D01*
X97187975Y-102788401D01*
X97174228Y-102795033D01*
X97158386Y-102802675D01*
X97158198Y-102802783D01*
X97158191Y-102802787D01*
X97140892Y-102812756D01*
X97128934Y-102819647D01*
X97098665Y-102840300D01*
X97066473Y-102865686D01*
X97031255Y-102896858D01*
X97031187Y-102896924D01*
X97000177Y-102926880D01*
X96991846Y-102930163D01*
X96983775Y-102926738D01*
X96823261Y-102766224D01*
X96819834Y-102757951D01*
X96823118Y-102749823D01*
X96853141Y-102718744D01*
X96884313Y-102683526D01*
X96909699Y-102651334D01*
X96930352Y-102621065D01*
X96947324Y-102591613D01*
X96961670Y-102561874D01*
X96974441Y-102530743D01*
X96986693Y-102497117D01*
X96999476Y-102459889D01*
X97011192Y-102425702D01*
X97017116Y-102418987D01*
X97022031Y-102417797D01*
X97326223Y-102411850D01*
X97334562Y-102415115D01*
G37*
%TD.AperFunction*%
%TD*%
%TA.AperFunction,Conductor*%
%TO.N,SWCLK*%
G36*
X102372018Y-94030761D02*
G01*
X102591231Y-94241567D01*
X102594819Y-94249771D01*
X102591231Y-94258433D01*
X102372018Y-94469239D01*
X102363679Y-94472504D01*
X102358616Y-94471241D01*
X102324366Y-94453871D01*
X102324105Y-94453734D01*
X102287904Y-94434032D01*
X102255304Y-94415881D01*
X102224688Y-94399536D01*
X102194311Y-94385188D01*
X102162430Y-94373024D01*
X102144389Y-94367996D01*
X102127565Y-94363307D01*
X102127559Y-94363306D01*
X102127302Y-94363234D01*
X102087184Y-94356008D01*
X102060499Y-94353459D01*
X102040511Y-94351550D01*
X102040505Y-94351550D01*
X102040331Y-94351533D01*
X102040162Y-94351528D01*
X102040157Y-94351528D01*
X101996376Y-94350315D01*
X101988201Y-94346660D01*
X101985000Y-94338619D01*
X101985000Y-94161381D01*
X101988427Y-94153108D01*
X101996376Y-94149685D01*
X102040157Y-94148471D01*
X102040162Y-94148471D01*
X102040331Y-94148466D01*
X102040505Y-94148449D01*
X102040511Y-94148449D01*
X102060499Y-94146540D01*
X102087184Y-94143991D01*
X102127302Y-94136765D01*
X102127559Y-94136693D01*
X102127565Y-94136692D01*
X102144389Y-94132003D01*
X102162430Y-94126975D01*
X102194311Y-94114811D01*
X102224688Y-94100463D01*
X102255304Y-94084118D01*
X102287904Y-94065967D01*
X102324086Y-94046276D01*
X102324387Y-94046118D01*
X102358616Y-94028759D01*
X102367545Y-94028074D01*
X102372018Y-94030761D01*
G37*
%TD.AperFunction*%
%TD*%
%TA.AperFunction,Conductor*%
%TO.N,SWCLK*%
G36*
X89034901Y-97259131D02*
G01*
X89085202Y-97287723D01*
X89086175Y-97288344D01*
X89139312Y-97326080D01*
X89139756Y-97326414D01*
X89189814Y-97366134D01*
X89237526Y-97404304D01*
X89237649Y-97404392D01*
X89283368Y-97437154D01*
X89283372Y-97437157D01*
X89283670Y-97437370D01*
X89283991Y-97437543D01*
X89283994Y-97437545D01*
X89328665Y-97461639D01*
X89328667Y-97461640D01*
X89329244Y-97461951D01*
X89329878Y-97462126D01*
X89329880Y-97462127D01*
X89360634Y-97470627D01*
X89375246Y-97474666D01*
X89422671Y-97472133D01*
X89423608Y-97471735D01*
X89423609Y-97471735D01*
X89471766Y-97451289D01*
X89471767Y-97451288D01*
X89472517Y-97450970D01*
X89517594Y-97414434D01*
X89526178Y-97411887D01*
X89533233Y-97415250D01*
X89658577Y-97540594D01*
X89662004Y-97548867D01*
X89658227Y-97557476D01*
X89603374Y-97607953D01*
X89602547Y-97608646D01*
X89544804Y-97652693D01*
X89543888Y-97653326D01*
X89490553Y-97686502D01*
X89489704Y-97686982D01*
X89439437Y-97712709D01*
X89438874Y-97712978D01*
X89400493Y-97730106D01*
X89390264Y-97734671D01*
X89342260Y-97755595D01*
X89293983Y-97778988D01*
X89244261Y-97808217D01*
X89191922Y-97846650D01*
X89191700Y-97846852D01*
X89142157Y-97891874D01*
X89133729Y-97894902D01*
X89128376Y-97893311D01*
X88666290Y-97622627D01*
X88660884Y-97615489D01*
X88662109Y-97606618D01*
X88664094Y-97604099D01*
X88721163Y-97549219D01*
X88798741Y-97474615D01*
X89021010Y-97260870D01*
X89029349Y-97257605D01*
X89034901Y-97259131D01*
G37*
%TD.AperFunction*%
%TD*%
%TA.AperFunction,Conductor*%
%TO.N,SWDIO*%
G36*
X102472018Y-94955761D02*
G01*
X102691231Y-95166567D01*
X102694819Y-95174771D01*
X102691231Y-95183433D01*
X102472018Y-95394239D01*
X102463679Y-95397504D01*
X102458616Y-95396241D01*
X102424366Y-95378871D01*
X102424105Y-95378734D01*
X102387904Y-95359032D01*
X102355304Y-95340881D01*
X102324688Y-95324536D01*
X102294311Y-95310188D01*
X102262430Y-95298024D01*
X102244389Y-95292996D01*
X102227565Y-95288307D01*
X102227559Y-95288306D01*
X102227302Y-95288234D01*
X102187184Y-95281008D01*
X102160499Y-95278459D01*
X102140511Y-95276550D01*
X102140505Y-95276550D01*
X102140331Y-95276533D01*
X102140162Y-95276528D01*
X102140157Y-95276528D01*
X102096376Y-95275315D01*
X102088201Y-95271660D01*
X102085000Y-95263619D01*
X102085000Y-95086381D01*
X102088427Y-95078108D01*
X102096376Y-95074685D01*
X102140157Y-95073471D01*
X102140162Y-95073471D01*
X102140331Y-95073466D01*
X102140505Y-95073449D01*
X102140511Y-95073449D01*
X102160499Y-95071540D01*
X102187184Y-95068991D01*
X102227302Y-95061765D01*
X102227559Y-95061693D01*
X102227565Y-95061692D01*
X102244389Y-95057003D01*
X102262430Y-95051975D01*
X102294311Y-95039811D01*
X102324688Y-95025463D01*
X102355304Y-95009118D01*
X102387904Y-94990967D01*
X102424086Y-94971276D01*
X102424387Y-94971118D01*
X102458616Y-94953759D01*
X102467545Y-94953074D01*
X102472018Y-94955761D01*
G37*
%TD.AperFunction*%
%TD*%
%TA.AperFunction,Conductor*%
%TO.N,SWDIO*%
G36*
X88711269Y-98466192D02*
G01*
X88753485Y-98488585D01*
X88774988Y-98499992D01*
X88775671Y-98500385D01*
X88835586Y-98537591D01*
X88836050Y-98537894D01*
X88888514Y-98574024D01*
X88888642Y-98574114D01*
X88936850Y-98608272D01*
X88984039Y-98639557D01*
X88984229Y-98639663D01*
X88984231Y-98639664D01*
X89033145Y-98666895D01*
X89033150Y-98666897D01*
X89033433Y-98667055D01*
X89033737Y-98667181D01*
X89033742Y-98667184D01*
X89088001Y-98689773D01*
X89088005Y-98689774D01*
X89088350Y-98689918D01*
X89108322Y-98695362D01*
X89151767Y-98707206D01*
X89151775Y-98707208D01*
X89152110Y-98707299D01*
X89187357Y-98712429D01*
X89227727Y-98718305D01*
X89227729Y-98718305D01*
X89228030Y-98718349D01*
X89228326Y-98718362D01*
X89228331Y-98718362D01*
X89263583Y-98719855D01*
X89308225Y-98721746D01*
X89316345Y-98725520D01*
X89319429Y-98733436D01*
X89319429Y-98911006D01*
X89316002Y-98919279D01*
X89308225Y-98922696D01*
X89257525Y-98924843D01*
X89228331Y-98926079D01*
X89228326Y-98926079D01*
X89228030Y-98926092D01*
X89227729Y-98926136D01*
X89227727Y-98926136D01*
X89187357Y-98932012D01*
X89152110Y-98937142D01*
X89151775Y-98937233D01*
X89151767Y-98937235D01*
X89108322Y-98949079D01*
X89088350Y-98954523D01*
X89088005Y-98954667D01*
X89088001Y-98954668D01*
X89033742Y-98977257D01*
X89033737Y-98977260D01*
X89033433Y-98977386D01*
X89033150Y-98977544D01*
X89033145Y-98977546D01*
X88984231Y-99004777D01*
X88984039Y-99004884D01*
X88936850Y-99036169D01*
X88936739Y-99036247D01*
X88936724Y-99036258D01*
X88888642Y-99070327D01*
X88888514Y-99070417D01*
X88836050Y-99106547D01*
X88835586Y-99106850D01*
X88775671Y-99144056D01*
X88774988Y-99144450D01*
X88750653Y-99157358D01*
X88711269Y-99178250D01*
X88702354Y-99179099D01*
X88697676Y-99176347D01*
X88532607Y-99017608D01*
X88338198Y-98830654D01*
X88334610Y-98822450D01*
X88338198Y-98813788D01*
X88433417Y-98722221D01*
X88697676Y-98468095D01*
X88706015Y-98464830D01*
X88711269Y-98466192D01*
G37*
%TD.AperFunction*%
%TD*%
%TA.AperFunction,Conductor*%
%TO.N,PWMC*%
G36*
X105696384Y-96528759D02*
G01*
X105730633Y-96546128D01*
X105730894Y-96546265D01*
X105767095Y-96565967D01*
X105799695Y-96584118D01*
X105830311Y-96600463D01*
X105860688Y-96614811D01*
X105892569Y-96626975D01*
X105910610Y-96632003D01*
X105927434Y-96636692D01*
X105927440Y-96636693D01*
X105927697Y-96636765D01*
X105967815Y-96643991D01*
X105994500Y-96646540D01*
X106014488Y-96648449D01*
X106014494Y-96648449D01*
X106014668Y-96648466D01*
X106014837Y-96648471D01*
X106014842Y-96648471D01*
X106058624Y-96649685D01*
X106066799Y-96653340D01*
X106070000Y-96661381D01*
X106070000Y-96838619D01*
X106066573Y-96846892D01*
X106058624Y-96850315D01*
X106014842Y-96851528D01*
X106014837Y-96851528D01*
X106014668Y-96851533D01*
X106014494Y-96851550D01*
X106014488Y-96851550D01*
X105994500Y-96853459D01*
X105967815Y-96856008D01*
X105927697Y-96863234D01*
X105927440Y-96863306D01*
X105927434Y-96863307D01*
X105910610Y-96867996D01*
X105892569Y-96873024D01*
X105860688Y-96885188D01*
X105830311Y-96899536D01*
X105799695Y-96915881D01*
X105767095Y-96934032D01*
X105730894Y-96953734D01*
X105730633Y-96953871D01*
X105713960Y-96962327D01*
X105696383Y-96971241D01*
X105687454Y-96971926D01*
X105682981Y-96969239D01*
X105666929Y-96953802D01*
X105463769Y-96758433D01*
X105460181Y-96750229D01*
X105463769Y-96741567D01*
X105682982Y-96530761D01*
X105691321Y-96527496D01*
X105696384Y-96528759D01*
G37*
%TD.AperFunction*%
%TD*%
%TA.AperFunction,Conductor*%
%TO.N,PWMC*%
G36*
X106876892Y-99843427D02*
G01*
X106880315Y-99851376D01*
X106881533Y-99895331D01*
X106886008Y-99942184D01*
X106893234Y-99982302D01*
X106903024Y-100017430D01*
X106915188Y-100049311D01*
X106929536Y-100079688D01*
X106945881Y-100110304D01*
X106945919Y-100110372D01*
X106945927Y-100110387D01*
X106963977Y-100142805D01*
X106964032Y-100142904D01*
X106983724Y-100179086D01*
X106983882Y-100179387D01*
X107001241Y-100213616D01*
X107001926Y-100222545D01*
X106999239Y-100227018D01*
X106788433Y-100446231D01*
X106780229Y-100449819D01*
X106771567Y-100446231D01*
X106560761Y-100227018D01*
X106557496Y-100218679D01*
X106558759Y-100213616D01*
X106576118Y-100179387D01*
X106576276Y-100179086D01*
X106595967Y-100142904D01*
X106596022Y-100142805D01*
X106614072Y-100110387D01*
X106614080Y-100110372D01*
X106614118Y-100110304D01*
X106630463Y-100079688D01*
X106644811Y-100049311D01*
X106656975Y-100017430D01*
X106666765Y-99982302D01*
X106673991Y-99942184D01*
X106678466Y-99895331D01*
X106679685Y-99851376D01*
X106683340Y-99843201D01*
X106691381Y-99840000D01*
X106868619Y-99840000D01*
X106876892Y-99843427D01*
G37*
%TD.AperFunction*%
%TD*%
%TA.AperFunction,Conductor*%
%TO.N,EN1*%
G36*
X98137853Y-102096091D02*
G01*
X98161570Y-102118826D01*
X98174343Y-102131071D01*
X98214155Y-102165605D01*
X98250256Y-102193414D01*
X98283881Y-102216146D01*
X98316263Y-102235447D01*
X98348639Y-102252965D01*
X98376371Y-102267311D01*
X98382189Y-102270321D01*
X98382243Y-102270349D01*
X98418216Y-102289198D01*
X98418461Y-102289331D01*
X98457877Y-102311195D01*
X98458224Y-102311394D01*
X98495648Y-102333890D01*
X98500973Y-102341088D01*
X98501073Y-102346309D01*
X98477507Y-102459100D01*
X98438873Y-102644006D01*
X98433826Y-102651403D01*
X98424581Y-102652963D01*
X98129481Y-102579159D01*
X98122287Y-102573828D01*
X98120676Y-102568949D01*
X98117212Y-102533574D01*
X98117201Y-102533456D01*
X98113779Y-102494435D01*
X98110143Y-102459100D01*
X98110141Y-102459086D01*
X98110128Y-102458958D01*
X98105178Y-102426106D01*
X98097858Y-102394904D01*
X98087095Y-102364380D01*
X98071817Y-102333560D01*
X98050950Y-102301469D01*
X98023423Y-102267135D01*
X97995924Y-102237849D01*
X97992759Y-102229472D01*
X97996180Y-102221567D01*
X98121483Y-102096264D01*
X98129756Y-102092837D01*
X98137853Y-102096091D01*
G37*
%TD.AperFunction*%
%TD*%
%TA.AperFunction,Conductor*%
%TO.N,EN1*%
G36*
X95227845Y-100467795D02*
G01*
X95236049Y-100471383D01*
X95238737Y-100475857D01*
X95250674Y-100512363D01*
X95250774Y-100512687D01*
X95262427Y-100552166D01*
X95272643Y-100588052D01*
X95282735Y-100621259D01*
X95294068Y-100652884D01*
X95308010Y-100684028D01*
X95325927Y-100715789D01*
X95349185Y-100749267D01*
X95349335Y-100749448D01*
X95349339Y-100749454D01*
X95379031Y-100785416D01*
X95379151Y-100785561D01*
X95404542Y-100812400D01*
X95409371Y-100817504D01*
X95412568Y-100825869D01*
X95409145Y-100833818D01*
X95283818Y-100959145D01*
X95275545Y-100962572D01*
X95267504Y-100959371D01*
X95235695Y-100929278D01*
X95235561Y-100929151D01*
X95199267Y-100899185D01*
X95165789Y-100875927D01*
X95134028Y-100858010D01*
X95102884Y-100844068D01*
X95084646Y-100837532D01*
X95071408Y-100832788D01*
X95071395Y-100832784D01*
X95071259Y-100832735D01*
X95038052Y-100822643D01*
X95002166Y-100812427D01*
X94974622Y-100804297D01*
X94962687Y-100800774D01*
X94962363Y-100800674D01*
X94925857Y-100788737D01*
X94919058Y-100782908D01*
X94917795Y-100777845D01*
X94911850Y-100473777D01*
X94915115Y-100465438D01*
X94923777Y-100461850D01*
X95227845Y-100467795D01*
G37*
%TD.AperFunction*%
%TD*%
%TA.AperFunction,Conductor*%
%TO.N,CS*%
G36*
X98366325Y-97578600D02*
G01*
X98398783Y-97594490D01*
X98434117Y-97611760D01*
X98434144Y-97611773D01*
X98434147Y-97611774D01*
X98466588Y-97626889D01*
X98497631Y-97639871D01*
X98515465Y-97646098D01*
X98528600Y-97650685D01*
X98528606Y-97650687D01*
X98528804Y-97650756D01*
X98561631Y-97659581D01*
X98561829Y-97659618D01*
X98561836Y-97659620D01*
X98579635Y-97662981D01*
X98597639Y-97666381D01*
X98638352Y-97671193D01*
X98685297Y-97674054D01*
X98728502Y-97674801D01*
X98736715Y-97678370D01*
X98740000Y-97686499D01*
X98740000Y-97913501D01*
X98736573Y-97921774D01*
X98728503Y-97925199D01*
X98685297Y-97925945D01*
X98638352Y-97928806D01*
X98597639Y-97933618D01*
X98579635Y-97937018D01*
X98561836Y-97940379D01*
X98561829Y-97940381D01*
X98561631Y-97940418D01*
X98528804Y-97949243D01*
X98528606Y-97949312D01*
X98528600Y-97949314D01*
X98515465Y-97953901D01*
X98497631Y-97960128D01*
X98466588Y-97973110D01*
X98466457Y-97973171D01*
X98466448Y-97973175D01*
X98434201Y-97988200D01*
X98434117Y-97988239D01*
X98398783Y-98005509D01*
X98366325Y-98021400D01*
X98357389Y-98021960D01*
X98353071Y-98019325D01*
X98133769Y-97808433D01*
X98130181Y-97800229D01*
X98133769Y-97791567D01*
X98353071Y-97580675D01*
X98361410Y-97577410D01*
X98366325Y-97578600D01*
G37*
%TD.AperFunction*%
%TD*%
%TA.AperFunction,Conductor*%
%TO.N,SCK*%
G36*
X102858433Y-99258769D02*
G01*
X103069325Y-99478071D01*
X103072590Y-99486410D01*
X103071400Y-99491324D01*
X103055509Y-99523783D01*
X103038225Y-99559147D01*
X103023110Y-99591588D01*
X103010128Y-99622631D01*
X102999243Y-99653804D01*
X102990418Y-99686631D01*
X102983618Y-99722639D01*
X102978806Y-99763352D01*
X102975945Y-99810297D01*
X102975943Y-99810435D01*
X102975199Y-99853502D01*
X102971630Y-99861715D01*
X102963501Y-99865000D01*
X102736499Y-99865000D01*
X102728226Y-99861573D01*
X102724801Y-99853502D01*
X102724056Y-99810436D01*
X102724056Y-99810435D01*
X102724054Y-99810297D01*
X102721193Y-99763352D01*
X102716381Y-99722639D01*
X102709581Y-99686631D01*
X102700756Y-99653804D01*
X102689871Y-99622631D01*
X102676889Y-99591588D01*
X102661774Y-99559147D01*
X102644490Y-99523783D01*
X102628600Y-99491325D01*
X102628040Y-99482388D01*
X102630675Y-99478071D01*
X102841567Y-99258769D01*
X102849771Y-99255181D01*
X102858433Y-99258769D01*
G37*
%TD.AperFunction*%
%TD*%
%TA.AperFunction,Conductor*%
%TO.N,MISO*%
G36*
X100258433Y-97433769D02*
G01*
X100469325Y-97653071D01*
X100472590Y-97661410D01*
X100471400Y-97666324D01*
X100455509Y-97698783D01*
X100438225Y-97734147D01*
X100423110Y-97766588D01*
X100410128Y-97797631D01*
X100399243Y-97828804D01*
X100390418Y-97861631D01*
X100383618Y-97897639D01*
X100378806Y-97938352D01*
X100375945Y-97985297D01*
X100375943Y-97985435D01*
X100375199Y-98028502D01*
X100371630Y-98036715D01*
X100363501Y-98040000D01*
X100136499Y-98040000D01*
X100128226Y-98036573D01*
X100124801Y-98028502D01*
X100124056Y-97985436D01*
X100124056Y-97985435D01*
X100124054Y-97985297D01*
X100121193Y-97938352D01*
X100116381Y-97897639D01*
X100109581Y-97861631D01*
X100100756Y-97828804D01*
X100089871Y-97797631D01*
X100076889Y-97766588D01*
X100061774Y-97734147D01*
X100044490Y-97698783D01*
X100028600Y-97666325D01*
X100028040Y-97657388D01*
X100030675Y-97653071D01*
X100241567Y-97433769D01*
X100249771Y-97430181D01*
X100258433Y-97433769D01*
G37*
%TD.AperFunction*%
%TD*%
%TA.AperFunction,Conductor*%
%TO.N,GND*%
G36*
X100763438Y-85369991D02*
G01*
X100769987Y-85370334D01*
X101447900Y-85423687D01*
X101528063Y-85429996D01*
X101534625Y-85430686D01*
X102288502Y-85529936D01*
X102295000Y-85530966D01*
X103042664Y-85669537D01*
X103049097Y-85670904D01*
X103788519Y-85848423D01*
X103794857Y-85850122D01*
X104523926Y-86066082D01*
X104530200Y-86068120D01*
X105246983Y-86321947D01*
X105253141Y-86324311D01*
X105955645Y-86615297D01*
X105961671Y-86617980D01*
X106647983Y-86945334D01*
X106653861Y-86948329D01*
X106904112Y-87084204D01*
X107322116Y-87311162D01*
X107327787Y-87314436D01*
X107879602Y-87652588D01*
X107976155Y-87711756D01*
X107981687Y-87715349D01*
X108608340Y-88146036D01*
X108613665Y-88149905D01*
X109216939Y-88612814D01*
X109222044Y-88616947D01*
X109534059Y-88883433D01*
X109800247Y-89110779D01*
X109805149Y-89115193D01*
X110356721Y-89638615D01*
X110361385Y-89643279D01*
X110884807Y-90194851D01*
X110889218Y-90199750D01*
X111383053Y-90777956D01*
X111387186Y-90783061D01*
X111850095Y-91386335D01*
X111853964Y-91391660D01*
X112027774Y-91644555D01*
X112284651Y-92018313D01*
X112288244Y-92023845D01*
X112347412Y-92120398D01*
X112685564Y-92672213D01*
X112688838Y-92677884D01*
X112914903Y-93094244D01*
X113051671Y-93346139D01*
X113054666Y-93352017D01*
X113382020Y-94038329D01*
X113384703Y-94044355D01*
X113675689Y-94746859D01*
X113678053Y-94753017D01*
X113771973Y-95018238D01*
X113914428Y-95420516D01*
X113931880Y-95469800D01*
X113933917Y-95476070D01*
X114149151Y-96202688D01*
X114149873Y-96205126D01*
X114151577Y-96211481D01*
X114320330Y-96914391D01*
X114329094Y-96950894D01*
X114330463Y-96957336D01*
X114463348Y-97674318D01*
X114469033Y-97704991D01*
X114470064Y-97711498D01*
X114549047Y-98311435D01*
X114569314Y-98465377D01*
X114570004Y-98471937D01*
X114629666Y-99230013D01*
X114630009Y-99236562D01*
X114649914Y-99996702D01*
X114649914Y-100003284D01*
X114630009Y-100763438D01*
X114629666Y-100769987D01*
X114586545Y-101317890D01*
X114570004Y-101528063D01*
X114569314Y-101534623D01*
X114471879Y-102274718D01*
X114470065Y-102288493D01*
X114469034Y-102295000D01*
X114342396Y-102978282D01*
X114330465Y-103042654D01*
X114329096Y-103049097D01*
X114176773Y-103683570D01*
X114151581Y-103788502D01*
X114149878Y-103794857D01*
X113939623Y-104504665D01*
X113933918Y-104523926D01*
X113931881Y-104530196D01*
X113921150Y-104560500D01*
X113678053Y-105246983D01*
X113675689Y-105253141D01*
X113384703Y-105955645D01*
X113382020Y-105961671D01*
X113054666Y-106647983D01*
X113051671Y-106653861D01*
X112944452Y-106851335D01*
X112688838Y-107322116D01*
X112685564Y-107327787D01*
X112642971Y-107397293D01*
X112288244Y-107976155D01*
X112284651Y-107981687D01*
X111853973Y-108608328D01*
X111850095Y-108613665D01*
X111387186Y-109216939D01*
X111383053Y-109222044D01*
X110889221Y-109800247D01*
X110884807Y-109805149D01*
X110361385Y-110356721D01*
X110356721Y-110361385D01*
X109805149Y-110884807D01*
X109800250Y-110889218D01*
X109222044Y-111383053D01*
X109216939Y-111387186D01*
X108613665Y-111850095D01*
X108608340Y-111853964D01*
X108373000Y-112015709D01*
X107981687Y-112284651D01*
X107976155Y-112288244D01*
X107327787Y-112685564D01*
X107322116Y-112688838D01*
X107031671Y-112846537D01*
X106653861Y-113051671D01*
X106647983Y-113054666D01*
X105961671Y-113382020D01*
X105955645Y-113384703D01*
X105253141Y-113675689D01*
X105246983Y-113678053D01*
X104530200Y-113931880D01*
X104523930Y-113933917D01*
X103794857Y-114149878D01*
X103788519Y-114151577D01*
X103049097Y-114329096D01*
X103042664Y-114330463D01*
X102295000Y-114469034D01*
X102288502Y-114470064D01*
X101660548Y-114552736D01*
X101534623Y-114569314D01*
X101528063Y-114570004D01*
X101447900Y-114576313D01*
X100769987Y-114629666D01*
X100763438Y-114630009D01*
X100003284Y-114649914D01*
X99996716Y-114649914D01*
X99236562Y-114630009D01*
X99230013Y-114629666D01*
X98552100Y-114576313D01*
X98471937Y-114570004D01*
X98465377Y-114569314D01*
X98339452Y-114552736D01*
X97711498Y-114470064D01*
X97705000Y-114469034D01*
X96957336Y-114330463D01*
X96950903Y-114329096D01*
X96211481Y-114151577D01*
X96205143Y-114149878D01*
X95476070Y-113933917D01*
X95469800Y-113931880D01*
X94753017Y-113678053D01*
X94746859Y-113675689D01*
X94044355Y-113384703D01*
X94038329Y-113382020D01*
X93352017Y-113054666D01*
X93346139Y-113051671D01*
X92968329Y-112846537D01*
X92677884Y-112688838D01*
X92672213Y-112685564D01*
X92604096Y-112643822D01*
X97999500Y-112643822D01*
X98014657Y-112773828D01*
X98017153Y-112780705D01*
X98017154Y-112780708D01*
X98041049Y-112846537D01*
X98074369Y-112938331D01*
X98170323Y-113084685D01*
X98297372Y-113205040D01*
X98448702Y-113292939D01*
X98616193Y-113343667D01*
X98790862Y-113354503D01*
X98798078Y-113353263D01*
X98798080Y-113353263D01*
X98956125Y-113326106D01*
X98956127Y-113326105D01*
X98963340Y-113324866D01*
X99124373Y-113256346D01*
X99265324Y-113152617D01*
X99280303Y-113134986D01*
X99339650Y-113096023D01*
X99410643Y-113095330D01*
X99462979Y-113125094D01*
X99504558Y-113164482D01*
X99547372Y-113205040D01*
X99698702Y-113292939D01*
X99866193Y-113343667D01*
X100040862Y-113354503D01*
X100048078Y-113353263D01*
X100048080Y-113353263D01*
X100206125Y-113326106D01*
X100206127Y-113326105D01*
X100213340Y-113324866D01*
X100374373Y-113256346D01*
X100487503Y-113173091D01*
X100554224Y-113148825D01*
X100623473Y-113164482D01*
X100651281Y-113185478D01*
X100651890Y-113186087D01*
X100657078Y-113192922D01*
X100777217Y-113284113D01*
X100804869Y-113295061D01*
X100909923Y-113336655D01*
X100909925Y-113336656D01*
X100917453Y-113339636D01*
X101007228Y-113350500D01*
X101492772Y-113350500D01*
X101582547Y-113339636D01*
X101590075Y-113336656D01*
X101590077Y-113336655D01*
X101695131Y-113295061D01*
X101722783Y-113284113D01*
X101842922Y-113192922D01*
X101934113Y-113072783D01*
X101989636Y-112932547D01*
X102000500Y-112842772D01*
X102000500Y-111857228D01*
X101989636Y-111767453D01*
X101934113Y-111627217D01*
X101842922Y-111507078D01*
X101722783Y-111415887D01*
X101619852Y-111375134D01*
X101590077Y-111363345D01*
X101590075Y-111363344D01*
X101582547Y-111360364D01*
X101492772Y-111349500D01*
X101007228Y-111349500D01*
X100917453Y-111360364D01*
X100909925Y-111363344D01*
X100909923Y-111363345D01*
X100880148Y-111375134D01*
X100777217Y-111415887D01*
X100770376Y-111421079D01*
X100770377Y-111421079D01*
X100666411Y-111499994D01*
X100657078Y-111507078D01*
X100651883Y-111513922D01*
X100651409Y-111514396D01*
X100589098Y-111548423D01*
X100518282Y-111543360D01*
X100475659Y-111516777D01*
X100457943Y-111499994D01*
X100457938Y-111499990D01*
X100452628Y-111494960D01*
X100301298Y-111407061D01*
X100133807Y-111356333D01*
X99959138Y-111345497D01*
X99951922Y-111346737D01*
X99951920Y-111346737D01*
X99793875Y-111373894D01*
X99793873Y-111373895D01*
X99786660Y-111375134D01*
X99625627Y-111443654D01*
X99484676Y-111547383D01*
X99469697Y-111565014D01*
X99410350Y-111603977D01*
X99339357Y-111604670D01*
X99287021Y-111574906D01*
X99207942Y-111499994D01*
X99202628Y-111494960D01*
X99051298Y-111407061D01*
X98883807Y-111356333D01*
X98709138Y-111345497D01*
X98701922Y-111346737D01*
X98701920Y-111346737D01*
X98543875Y-111373894D01*
X98543873Y-111373895D01*
X98536660Y-111375134D01*
X98375627Y-111443654D01*
X98234676Y-111547383D01*
X98229938Y-111552960D01*
X98229934Y-111552964D01*
X98126107Y-111675176D01*
X98126104Y-111675180D01*
X98121368Y-111680755D01*
X98041781Y-111836616D01*
X98040042Y-111843721D01*
X98040041Y-111843725D01*
X98036737Y-111857228D01*
X98000185Y-112006606D01*
X97999500Y-112017648D01*
X97999500Y-112643822D01*
X92604096Y-112643822D01*
X92023845Y-112288244D01*
X92018313Y-112284651D01*
X91627000Y-112015709D01*
X91391660Y-111853964D01*
X91386335Y-111850095D01*
X90783061Y-111387186D01*
X90777956Y-111383053D01*
X90199750Y-110889218D01*
X90194851Y-110884807D01*
X89643279Y-110361385D01*
X89638615Y-110356721D01*
X89115193Y-109805149D01*
X89110779Y-109800247D01*
X88616947Y-109222044D01*
X88612814Y-109216939D01*
X88149905Y-108613665D01*
X88146027Y-108608328D01*
X87715349Y-107981687D01*
X87711756Y-107976155D01*
X87357029Y-107397293D01*
X87314436Y-107327787D01*
X87311162Y-107322116D01*
X87055548Y-106851335D01*
X86948329Y-106653861D01*
X86945334Y-106647983D01*
X86617980Y-105961671D01*
X86615297Y-105955645D01*
X86324311Y-105253141D01*
X86321947Y-105246983D01*
X86078850Y-104560500D01*
X86068119Y-104530196D01*
X86066082Y-104523926D01*
X86060377Y-104504665D01*
X85850122Y-103794857D01*
X85848419Y-103788502D01*
X85823228Y-103683570D01*
X85733896Y-103311477D01*
X85737443Y-103240570D01*
X85778763Y-103182836D01*
X85844737Y-103156606D01*
X85914418Y-103170209D01*
X85945511Y-103192969D01*
X86666130Y-103913589D01*
X86673098Y-103922311D01*
X86673556Y-103921921D01*
X86679375Y-103928758D01*
X86684165Y-103936350D01*
X86690894Y-103942293D01*
X86690895Y-103942294D01*
X86721699Y-103969499D01*
X86727386Y-103974845D01*
X86737915Y-103985374D01*
X86744486Y-103990298D01*
X86745485Y-103991047D01*
X86753327Y-103997432D01*
X86786255Y-104026513D01*
X86794381Y-104030328D01*
X86799706Y-104033826D01*
X86806546Y-104037936D01*
X86812122Y-104040988D01*
X86819305Y-104046372D01*
X86827713Y-104049524D01*
X86860454Y-104061798D01*
X86869774Y-104065725D01*
X86872990Y-104067235D01*
X86909548Y-104084399D01*
X86918418Y-104085780D01*
X86924498Y-104087639D01*
X86932219Y-104089665D01*
X86938432Y-104091031D01*
X86946843Y-104094184D01*
X86970801Y-104095964D01*
X86990676Y-104097441D01*
X87000723Y-104098595D01*
X87008145Y-104099751D01*
X87008147Y-104099751D01*
X87012956Y-104100500D01*
X87027162Y-104100500D01*
X87036499Y-104100846D01*
X87045120Y-104101487D01*
X87082674Y-104104277D01*
X87091450Y-104102404D01*
X87100407Y-104101793D01*
X87100414Y-104101899D01*
X87113667Y-104100500D01*
X89942467Y-104100500D01*
X90010588Y-104120502D01*
X90057081Y-104174158D01*
X90067185Y-104244432D01*
X90045680Y-104298771D01*
X89960513Y-104420403D01*
X89946005Y-104441122D01*
X89943682Y-104446104D01*
X89943679Y-104446109D01*
X89878935Y-104584953D01*
X89846174Y-104655209D01*
X89785036Y-104883379D01*
X89765044Y-105111893D01*
X89764448Y-105118700D01*
X89764927Y-105124175D01*
X89764927Y-105124178D01*
X89766395Y-105140959D01*
X89785036Y-105354021D01*
X89786460Y-105359334D01*
X89786460Y-105359336D01*
X89805888Y-105431840D01*
X89846174Y-105582191D01*
X89848496Y-105587171D01*
X89848497Y-105587173D01*
X89943679Y-105791291D01*
X89943682Y-105791296D01*
X89946005Y-105796278D01*
X89949161Y-105800785D01*
X89949162Y-105800787D01*
X90057595Y-105955645D01*
X90081495Y-105989778D01*
X90248527Y-106156810D01*
X90253035Y-106159967D01*
X90253038Y-106159969D01*
X90265386Y-106168615D01*
X90442026Y-106292300D01*
X90447008Y-106294623D01*
X90447013Y-106294626D01*
X90651132Y-106389808D01*
X90656114Y-106392131D01*
X90661422Y-106393553D01*
X90661424Y-106393554D01*
X90878969Y-106451845D01*
X90878971Y-106451845D01*
X90884284Y-106453269D01*
X91119605Y-106473857D01*
X91354926Y-106453269D01*
X91360239Y-106451845D01*
X91360241Y-106451845D01*
X91577786Y-106393554D01*
X91577788Y-106393553D01*
X91583096Y-106392131D01*
X91588078Y-106389808D01*
X91792197Y-106294626D01*
X91792202Y-106294623D01*
X91797184Y-106292300D01*
X91973824Y-106168615D01*
X91986172Y-106159969D01*
X91986175Y-106159967D01*
X91990683Y-106156810D01*
X92157715Y-105989778D01*
X92181616Y-105955645D01*
X92290048Y-105800787D01*
X92290049Y-105800785D01*
X92293205Y-105796278D01*
X92295528Y-105791296D01*
X92295531Y-105791291D01*
X92390713Y-105587173D01*
X92390714Y-105587171D01*
X92393036Y-105582191D01*
X92433323Y-105431840D01*
X92452750Y-105359336D01*
X92452750Y-105359334D01*
X92454174Y-105354021D01*
X92474006Y-105127346D01*
X107520249Y-105127346D01*
X107540837Y-105362667D01*
X107542261Y-105367980D01*
X107542261Y-105367982D01*
X107593356Y-105558669D01*
X107601975Y-105590837D01*
X107604297Y-105595817D01*
X107604298Y-105595819D01*
X107699480Y-105799937D01*
X107699483Y-105799942D01*
X107701806Y-105804924D01*
X107704962Y-105809431D01*
X107704963Y-105809433D01*
X107833971Y-105993675D01*
X107837296Y-105998424D01*
X108004328Y-106165456D01*
X108008836Y-106168613D01*
X108008839Y-106168615D01*
X108089519Y-106225108D01*
X108197827Y-106300946D01*
X108202809Y-106303269D01*
X108202814Y-106303272D01*
X108396425Y-106393554D01*
X108411915Y-106400777D01*
X108417223Y-106402199D01*
X108417225Y-106402200D01*
X108634770Y-106460491D01*
X108634772Y-106460491D01*
X108640085Y-106461915D01*
X108875406Y-106482503D01*
X109110727Y-106461915D01*
X109116040Y-106460491D01*
X109116042Y-106460491D01*
X109333587Y-106402200D01*
X109333589Y-106402199D01*
X109338897Y-106400777D01*
X109354387Y-106393554D01*
X109547998Y-106303272D01*
X109548003Y-106303269D01*
X109552985Y-106300946D01*
X109661293Y-106225108D01*
X109741973Y-106168615D01*
X109741976Y-106168613D01*
X109746484Y-106165456D01*
X109913516Y-105998424D01*
X109916842Y-105993675D01*
X110045849Y-105809433D01*
X110045850Y-105809431D01*
X110049006Y-105804924D01*
X110051329Y-105799942D01*
X110051332Y-105799937D01*
X110146514Y-105595819D01*
X110146515Y-105595817D01*
X110148837Y-105590837D01*
X110157457Y-105558669D01*
X110208551Y-105367982D01*
X110208551Y-105367980D01*
X110209975Y-105362667D01*
X110230563Y-105127346D01*
X110209975Y-104892025D01*
X110148837Y-104663855D01*
X110116076Y-104593599D01*
X110051332Y-104454755D01*
X110051329Y-104454750D01*
X110049006Y-104449768D01*
X110032212Y-104425784D01*
X109916675Y-104260779D01*
X109916673Y-104260776D01*
X109913516Y-104256268D01*
X109746484Y-104089236D01*
X109741976Y-104086079D01*
X109741973Y-104086077D01*
X109648421Y-104020571D01*
X109552985Y-103953746D01*
X109548003Y-103951423D01*
X109547998Y-103951420D01*
X109343879Y-103856238D01*
X109343878Y-103856237D01*
X109338897Y-103853915D01*
X109333589Y-103852493D01*
X109333587Y-103852492D01*
X109116042Y-103794201D01*
X109116040Y-103794201D01*
X109110727Y-103792777D01*
X108875406Y-103772189D01*
X108640085Y-103792777D01*
X108634772Y-103794201D01*
X108634770Y-103794201D01*
X108417225Y-103852492D01*
X108417223Y-103852493D01*
X108411915Y-103853915D01*
X108406935Y-103856237D01*
X108406933Y-103856238D01*
X108202815Y-103951420D01*
X108202810Y-103951423D01*
X108197828Y-103953746D01*
X108193321Y-103956902D01*
X108193319Y-103956903D01*
X108008839Y-104086077D01*
X108008836Y-104086079D01*
X108004328Y-104089236D01*
X107837296Y-104256268D01*
X107834139Y-104260776D01*
X107834137Y-104260779D01*
X107718600Y-104425784D01*
X107701806Y-104449768D01*
X107699483Y-104454750D01*
X107699480Y-104454755D01*
X107634736Y-104593599D01*
X107601975Y-104663855D01*
X107540837Y-104892025D01*
X107520845Y-105120539D01*
X107520249Y-105127346D01*
X92474006Y-105127346D01*
X92474762Y-105118700D01*
X92454174Y-104883379D01*
X92393036Y-104655209D01*
X92360275Y-104584953D01*
X92295531Y-104446109D01*
X92295528Y-104446104D01*
X92293205Y-104441122D01*
X92278698Y-104420403D01*
X92193530Y-104298771D01*
X92170842Y-104231497D01*
X92188127Y-104162636D01*
X92239897Y-104114052D01*
X92296743Y-104100500D01*
X98557627Y-104100500D01*
X98568723Y-104101739D01*
X98568771Y-104101141D01*
X98577717Y-104101861D01*
X98586473Y-104103842D01*
X98636441Y-104100742D01*
X98644242Y-104100500D01*
X98659145Y-104100500D01*
X98668514Y-104099158D01*
X98678566Y-104098129D01*
X98722417Y-104095408D01*
X98730862Y-104092359D01*
X98737098Y-104091068D01*
X98744849Y-104089135D01*
X98750938Y-104087354D01*
X98759829Y-104086081D01*
X98771917Y-104080585D01*
X98799836Y-104067892D01*
X98809201Y-104064080D01*
X98842083Y-104052209D01*
X98842086Y-104052207D01*
X98850530Y-104049159D01*
X98857777Y-104043864D01*
X98863407Y-104040871D01*
X98870257Y-104036868D01*
X98875644Y-104033423D01*
X98883820Y-104029706D01*
X98917113Y-104001019D01*
X98925029Y-103994734D01*
X98931101Y-103990298D01*
X98931108Y-103990292D01*
X98935035Y-103987423D01*
X98945076Y-103977382D01*
X98951923Y-103971024D01*
X98980202Y-103946657D01*
X98987004Y-103940796D01*
X98991888Y-103933261D01*
X98997787Y-103926499D01*
X98997867Y-103926569D01*
X99006252Y-103916206D01*
X99757315Y-103165143D01*
X99758864Y-103163620D01*
X99760165Y-103162363D01*
X99766958Y-103155801D01*
X99770968Y-103152091D01*
X99788340Y-103136716D01*
X99793821Y-103132137D01*
X99802483Y-103125306D01*
X99809497Y-103120157D01*
X99810633Y-103119382D01*
X99826937Y-103109962D01*
X99827325Y-103109775D01*
X99834206Y-103106709D01*
X99843321Y-103102970D01*
X99848001Y-103101158D01*
X99868540Y-103093674D01*
X99870708Y-103092907D01*
X99873456Y-103091963D01*
X99897944Y-103086205D01*
X99906762Y-103085044D01*
X99914389Y-103081885D01*
X99914392Y-103081884D01*
X100025453Y-103035881D01*
X100096043Y-103028292D01*
X100159530Y-103060072D01*
X100195525Y-103121892D01*
X100196016Y-103126411D01*
X100245335Y-103257972D01*
X100250718Y-103265154D01*
X100273916Y-103296107D01*
X100298765Y-103362613D01*
X100299054Y-103374732D01*
X100298887Y-103381608D01*
X100273750Y-103454114D01*
X100250717Y-103484846D01*
X100250715Y-103484849D01*
X100245335Y-103492028D01*
X100196016Y-103623589D01*
X100189500Y-103683569D01*
X100189501Y-104116430D01*
X100189870Y-104119824D01*
X100189870Y-104119830D01*
X100194520Y-104162636D01*
X100196016Y-104176411D01*
X100245335Y-104307972D01*
X100250715Y-104315151D01*
X100250717Y-104315154D01*
X100314593Y-104400383D01*
X100329597Y-104420403D01*
X100336777Y-104425784D01*
X100434846Y-104499283D01*
X100434849Y-104499285D01*
X100442028Y-104504665D01*
X100450431Y-104507815D01*
X100566194Y-104551212D01*
X100566195Y-104551212D01*
X100573589Y-104553984D01*
X100581439Y-104554837D01*
X100581440Y-104554837D01*
X100630163Y-104560130D01*
X100633569Y-104560500D01*
X100819945Y-104560500D01*
X101006430Y-104560499D01*
X101009824Y-104560130D01*
X101009830Y-104560130D01*
X101058553Y-104554838D01*
X101058557Y-104554837D01*
X101066411Y-104553984D01*
X101197972Y-104504665D01*
X101205151Y-104499285D01*
X101205154Y-104499283D01*
X101303223Y-104425784D01*
X101310403Y-104420403D01*
X101325407Y-104400383D01*
X101389283Y-104315154D01*
X101389285Y-104315151D01*
X101394665Y-104307972D01*
X101443984Y-104176411D01*
X101445481Y-104162636D01*
X101450131Y-104119828D01*
X101450131Y-104119827D01*
X101450500Y-104116431D01*
X101450499Y-103683570D01*
X101443984Y-103623589D01*
X101394665Y-103492028D01*
X101389285Y-103484849D01*
X101389283Y-103484846D01*
X101363590Y-103450565D01*
X101338742Y-103384059D01*
X101353795Y-103314676D01*
X101363590Y-103299435D01*
X101366085Y-103296107D01*
X101372977Y-103286910D01*
X101389283Y-103265154D01*
X101389285Y-103265151D01*
X101394665Y-103257972D01*
X101419033Y-103192969D01*
X101441212Y-103133806D01*
X101441212Y-103133805D01*
X101443984Y-103126411D01*
X101450500Y-103066431D01*
X101450499Y-102633570D01*
X101447909Y-102609723D01*
X101444838Y-102581447D01*
X101444837Y-102581443D01*
X101443984Y-102573589D01*
X101394665Y-102442028D01*
X101389285Y-102434849D01*
X101389283Y-102434846D01*
X101315787Y-102336780D01*
X101315784Y-102336777D01*
X101310403Y-102329597D01*
X101303223Y-102324216D01*
X101303219Y-102324212D01*
X101250936Y-102285029D01*
X101208420Y-102228170D01*
X101200500Y-102184202D01*
X101200500Y-102039000D01*
X101220502Y-101970879D01*
X101274158Y-101924386D01*
X101326500Y-101913000D01*
X103053280Y-101913000D01*
X103068089Y-101913873D01*
X103101810Y-101917864D01*
X103111074Y-101916172D01*
X103111075Y-101916172D01*
X103159501Y-101907328D01*
X103163404Y-101906678D01*
X103212145Y-101899350D01*
X103212146Y-101899350D01*
X103221462Y-101897949D01*
X103227975Y-101894821D01*
X103235073Y-101893525D01*
X103287147Y-101866475D01*
X103290637Y-101864732D01*
X103343579Y-101839309D01*
X103348865Y-101834423D01*
X103348913Y-101834390D01*
X103355288Y-101831079D01*
X103360328Y-101826775D01*
X103397555Y-101789548D01*
X103401121Y-101786118D01*
X103436141Y-101753746D01*
X103443056Y-101747354D01*
X103446749Y-101740995D01*
X103452266Y-101734837D01*
X103700144Y-101486959D01*
X103702647Y-101484524D01*
X103713306Y-101474440D01*
X103719673Y-101468811D01*
X103722886Y-101466158D01*
X103766472Y-101442762D01*
X103779765Y-101438722D01*
X103781889Y-101438097D01*
X103813663Y-101429052D01*
X103813785Y-101429017D01*
X103813861Y-101428995D01*
X103815576Y-101428498D01*
X103816914Y-101428110D01*
X103839190Y-101421535D01*
X103858410Y-101417460D01*
X103860719Y-101417156D01*
X103876762Y-101415044D01*
X104022841Y-101354536D01*
X104148282Y-101258282D01*
X104244536Y-101132841D01*
X104305044Y-100986762D01*
X104325682Y-100830000D01*
X104312427Y-100729318D01*
X104306122Y-100681426D01*
X104305044Y-100673238D01*
X104244536Y-100527159D01*
X104148282Y-100401718D01*
X104022841Y-100305464D01*
X103876762Y-100244956D01*
X103843736Y-100240608D01*
X103728188Y-100225396D01*
X103720000Y-100224318D01*
X103711812Y-100225396D01*
X103596265Y-100240608D01*
X103563238Y-100244956D01*
X103555609Y-100248116D01*
X103499718Y-100271267D01*
X103429129Y-100278856D01*
X103365642Y-100247077D01*
X103329414Y-100186019D01*
X103325500Y-100154858D01*
X103325500Y-99840200D01*
X103325519Y-99838027D01*
X103325714Y-99826721D01*
X103325929Y-99821227D01*
X103327337Y-99798132D01*
X103327973Y-99791016D01*
X103329270Y-99780038D01*
X103330590Y-99771433D01*
X103330842Y-99770099D01*
X103335668Y-99752031D01*
X103335818Y-99751600D01*
X103338547Y-99744474D01*
X103339631Y-99741884D01*
X103342370Y-99735334D01*
X103344378Y-99730790D01*
X103353634Y-99710923D01*
X103354573Y-99708955D01*
X103355890Y-99706261D01*
X103369127Y-99684890D01*
X103374536Y-99677841D01*
X103381022Y-99662184D01*
X103431884Y-99539391D01*
X103435044Y-99531762D01*
X103455682Y-99375000D01*
X103439869Y-99254887D01*
X103436122Y-99226426D01*
X103435044Y-99218238D01*
X103374536Y-99072159D01*
X103278282Y-98946718D01*
X103152841Y-98850464D01*
X103006762Y-98789956D01*
X102850000Y-98769318D01*
X102693238Y-98789956D01*
X102547159Y-98850464D01*
X102421718Y-98946718D01*
X102416695Y-98953264D01*
X102416691Y-98953268D01*
X102366977Y-99018056D01*
X102309639Y-99059923D01*
X102238768Y-99064145D01*
X102176865Y-99029381D01*
X102154748Y-98998554D01*
X102130291Y-98950553D01*
X102130288Y-98950549D01*
X102125789Y-98941719D01*
X102033281Y-98849211D01*
X101916715Y-98789818D01*
X101820003Y-98774500D01*
X101462537Y-98774500D01*
X101104998Y-98774501D01*
X101082400Y-98778080D01*
X101018077Y-98788267D01*
X101018076Y-98788267D01*
X101008285Y-98789818D01*
X100999452Y-98794319D01*
X100999448Y-98794320D01*
X100908702Y-98840557D01*
X100838925Y-98853661D01*
X100773141Y-98826960D01*
X100732235Y-98768933D01*
X100725500Y-98728290D01*
X100725500Y-98233222D01*
X100745502Y-98165101D01*
X100799158Y-98118608D01*
X100869432Y-98108504D01*
X100928204Y-98133259D01*
X101047159Y-98224536D01*
X101193238Y-98285044D01*
X101201426Y-98286122D01*
X101217119Y-98288188D01*
X101350000Y-98305682D01*
X101358188Y-98304604D01*
X101498574Y-98286122D01*
X101506762Y-98285044D01*
X101652841Y-98224536D01*
X101778282Y-98128282D01*
X101874536Y-98002841D01*
X101935044Y-97856762D01*
X101955682Y-97700000D01*
X101935044Y-97543238D01*
X101874536Y-97397159D01*
X101869511Y-97390610D01*
X101869505Y-97390600D01*
X101869124Y-97390104D01*
X101855889Y-97368737D01*
X101854597Y-97366093D01*
X101853645Y-97364100D01*
X101844371Y-97344196D01*
X101842354Y-97339628D01*
X101838548Y-97330526D01*
X101835859Y-97323516D01*
X101835717Y-97323110D01*
X101830842Y-97304900D01*
X101830590Y-97303566D01*
X101829272Y-97294979D01*
X101827973Y-97283983D01*
X101827337Y-97276870D01*
X101825928Y-97253762D01*
X101825713Y-97248264D01*
X101825519Y-97237004D01*
X101825500Y-97234833D01*
X101825500Y-97067373D01*
X101826739Y-97056277D01*
X101826141Y-97056229D01*
X101826861Y-97047283D01*
X101828842Y-97038527D01*
X101825742Y-96988553D01*
X101825500Y-96980752D01*
X101825500Y-96965855D01*
X101824159Y-96956490D01*
X101823129Y-96946430D01*
X101821142Y-96914391D01*
X101820409Y-96902583D01*
X101817359Y-96894135D01*
X101816067Y-96887896D01*
X101814138Y-96880158D01*
X101812353Y-96874054D01*
X101811081Y-96865171D01*
X101792893Y-96825167D01*
X101789081Y-96815803D01*
X101777209Y-96782919D01*
X101777209Y-96782918D01*
X101774159Y-96774471D01*
X101768860Y-96767218D01*
X101765856Y-96761569D01*
X101761856Y-96754725D01*
X101758835Y-96750000D01*
X104974318Y-96750000D01*
X104994956Y-96906762D01*
X105055464Y-97052841D01*
X105151718Y-97178282D01*
X105158264Y-97183305D01*
X105170152Y-97192427D01*
X105277159Y-97274536D01*
X105423238Y-97335044D01*
X105580000Y-97355682D01*
X105588188Y-97354604D01*
X105728574Y-97336122D01*
X105736762Y-97335044D01*
X105772558Y-97320217D01*
X105848982Y-97288561D01*
X105882841Y-97274536D01*
X105889395Y-97269507D01*
X105889398Y-97269505D01*
X105897528Y-97263266D01*
X105914006Y-97252554D01*
X105922880Y-97247725D01*
X105992276Y-97232733D01*
X106058760Y-97257640D01*
X106072201Y-97269304D01*
X106292595Y-97489698D01*
X106326621Y-97552010D01*
X106329500Y-97578793D01*
X106329500Y-99851457D01*
X106329452Y-99854947D01*
X106329047Y-99869565D01*
X106328524Y-99878054D01*
X106328127Y-99882211D01*
X106313850Y-99929572D01*
X106307324Y-99941796D01*
X106306289Y-99943694D01*
X106290227Y-99972542D01*
X106290012Y-99972929D01*
X106288544Y-99975598D01*
X106288433Y-99975800D01*
X106277436Y-99996008D01*
X106266731Y-100012475D01*
X106255464Y-100027159D01*
X106194956Y-100173238D01*
X106174318Y-100330000D01*
X106194956Y-100486762D01*
X106255464Y-100632841D01*
X106351718Y-100758282D01*
X106477159Y-100854536D01*
X106623238Y-100915044D01*
X106780000Y-100935682D01*
X106788188Y-100934604D01*
X106808553Y-100931923D01*
X106936762Y-100915044D01*
X107082841Y-100854536D01*
X107208282Y-100758282D01*
X107304536Y-100632841D01*
X107365044Y-100486762D01*
X107385682Y-100330000D01*
X107365044Y-100173238D01*
X107311196Y-100043238D01*
X107307695Y-100034785D01*
X107307694Y-100034784D01*
X107304536Y-100027159D01*
X107299511Y-100020611D01*
X107299509Y-100020607D01*
X107293269Y-100012475D01*
X107282560Y-99996003D01*
X107271571Y-99975812D01*
X107271314Y-99975342D01*
X107269987Y-99972929D01*
X107269786Y-99972568D01*
X107269772Y-99972542D01*
X107253710Y-99943694D01*
X107252675Y-99941796D01*
X107246149Y-99929572D01*
X107231873Y-99882222D01*
X107231475Y-99878049D01*
X107230954Y-99869585D01*
X107230954Y-99869565D01*
X107230548Y-99854919D01*
X107230500Y-99851432D01*
X107230500Y-98280000D01*
X108004318Y-98280000D01*
X108024956Y-98436762D01*
X108085464Y-98582841D01*
X108099939Y-98601705D01*
X108174303Y-98698618D01*
X108181718Y-98708282D01*
X108188264Y-98713305D01*
X108298826Y-98798142D01*
X108340693Y-98855480D01*
X108344915Y-98926351D01*
X108338531Y-98946323D01*
X108314956Y-99003238D01*
X108294318Y-99160000D01*
X108314956Y-99316762D01*
X108375464Y-99462841D01*
X108471718Y-99588282D01*
X108597159Y-99684536D01*
X108743238Y-99745044D01*
X108900000Y-99765682D01*
X108908188Y-99764604D01*
X109048574Y-99746122D01*
X109056762Y-99745044D01*
X109202841Y-99684536D01*
X109328282Y-99588282D01*
X109424536Y-99462841D01*
X109485044Y-99316762D01*
X109505682Y-99160000D01*
X109485044Y-99003238D01*
X109424536Y-98857159D01*
X109328282Y-98731718D01*
X109288044Y-98700842D01*
X109211174Y-98641858D01*
X109169307Y-98584520D01*
X109165085Y-98513649D01*
X109171469Y-98493677D01*
X109191884Y-98444391D01*
X109195044Y-98436762D01*
X109215682Y-98280000D01*
X109195044Y-98123238D01*
X109134536Y-97977159D01*
X109038282Y-97851718D01*
X108912841Y-97755464D01*
X108766762Y-97694956D01*
X108728852Y-97689965D01*
X108633418Y-97677401D01*
X108610000Y-97674318D01*
X108586582Y-97677401D01*
X108491149Y-97689965D01*
X108453238Y-97694956D01*
X108307159Y-97755464D01*
X108181718Y-97851718D01*
X108085464Y-97977159D01*
X108024956Y-98123238D01*
X108004318Y-98280000D01*
X107230500Y-98280000D01*
X107230500Y-97374220D01*
X107231373Y-97359411D01*
X107234257Y-97335043D01*
X107235364Y-97325690D01*
X107233611Y-97316091D01*
X107224828Y-97267999D01*
X107224178Y-97264096D01*
X107216850Y-97215355D01*
X107216850Y-97215354D01*
X107215449Y-97206038D01*
X107212321Y-97199525D01*
X107211025Y-97192427D01*
X107183975Y-97140353D01*
X107182225Y-97136850D01*
X107169115Y-97109548D01*
X107156809Y-97083921D01*
X107151923Y-97078635D01*
X107151890Y-97078587D01*
X107148579Y-97072212D01*
X107144275Y-97067172D01*
X107107048Y-97029945D01*
X107103618Y-97026379D01*
X107071246Y-96991359D01*
X107064854Y-96984444D01*
X107058495Y-96980751D01*
X107052337Y-96975234D01*
X106532753Y-96455650D01*
X106522899Y-96444561D01*
X106507707Y-96425291D01*
X106507705Y-96425289D01*
X106501872Y-96417890D01*
X106494125Y-96412535D01*
X106494123Y-96412534D01*
X106453625Y-96384545D01*
X106450403Y-96382243D01*
X106410758Y-96352960D01*
X106410757Y-96352959D01*
X106403184Y-96347366D01*
X106396368Y-96344973D01*
X106390431Y-96340869D01*
X106381451Y-96338029D01*
X106381449Y-96338028D01*
X106350575Y-96328264D01*
X106334481Y-96323174D01*
X106330750Y-96321929D01*
X106284263Y-96305604D01*
X106284261Y-96305604D01*
X106275369Y-96302481D01*
X106268181Y-96302199D01*
X106268122Y-96302188D01*
X106261270Y-96300020D01*
X106254663Y-96299500D01*
X106201984Y-96299500D01*
X106197037Y-96299403D01*
X106140006Y-96297162D01*
X106132900Y-96299046D01*
X106124653Y-96299500D01*
X106058575Y-96299500D01*
X106055084Y-96299452D01*
X106040433Y-96299046D01*
X106031932Y-96298522D01*
X106027770Y-96298124D01*
X105980432Y-96283852D01*
X105973910Y-96280371D01*
X105968195Y-96277320D01*
X105966268Y-96276269D01*
X105937666Y-96260343D01*
X105937502Y-96260252D01*
X105937356Y-96260171D01*
X105934405Y-96258547D01*
X105934404Y-96258546D01*
X105913993Y-96247437D01*
X105897526Y-96236732D01*
X105882841Y-96225464D01*
X105736762Y-96164956D01*
X105683159Y-96157899D01*
X105588188Y-96145396D01*
X105580000Y-96144318D01*
X105571812Y-96145396D01*
X105476842Y-96157899D01*
X105423238Y-96164956D01*
X105277159Y-96225464D01*
X105151718Y-96321718D01*
X105055464Y-96447159D01*
X104994956Y-96593238D01*
X104974318Y-96750000D01*
X101758835Y-96750000D01*
X101758424Y-96749358D01*
X101754706Y-96741180D01*
X101726021Y-96707890D01*
X101719731Y-96699969D01*
X101717882Y-96697438D01*
X101712423Y-96689965D01*
X101702382Y-96679924D01*
X101696024Y-96673077D01*
X101671657Y-96644798D01*
X101665796Y-96637996D01*
X101658261Y-96633112D01*
X101651499Y-96627213D01*
X101651569Y-96627133D01*
X101641206Y-96618748D01*
X101233872Y-96211414D01*
X101226900Y-96202688D01*
X101226442Y-96203077D01*
X101220626Y-96196243D01*
X101215835Y-96188650D01*
X101178293Y-96155494D01*
X101172606Y-96150148D01*
X101162085Y-96139627D01*
X101154513Y-96133952D01*
X101146682Y-96127576D01*
X101120474Y-96104430D01*
X101120475Y-96104430D01*
X101113745Y-96098487D01*
X101105618Y-96094671D01*
X101100281Y-96091166D01*
X101093463Y-96087070D01*
X101087880Y-96084013D01*
X101080695Y-96078628D01*
X101072290Y-96075477D01*
X101072288Y-96075476D01*
X101039546Y-96063202D01*
X101030226Y-96059275D01*
X101027010Y-96057765D01*
X100990452Y-96040601D01*
X100981582Y-96039220D01*
X100975502Y-96037361D01*
X100967781Y-96035335D01*
X100961568Y-96033969D01*
X100953157Y-96030816D01*
X100926120Y-96028807D01*
X100909324Y-96027559D01*
X100899277Y-96026405D01*
X100891855Y-96025249D01*
X100891853Y-96025249D01*
X100887044Y-96024500D01*
X100872838Y-96024500D01*
X100863501Y-96024154D01*
X100849329Y-96023101D01*
X100817326Y-96020723D01*
X100808550Y-96022596D01*
X100799593Y-96023207D01*
X100799586Y-96023101D01*
X100786333Y-96024500D01*
X98016793Y-96024500D01*
X97948672Y-96004498D01*
X97902179Y-95950842D01*
X97892075Y-95880568D01*
X97921569Y-95815988D01*
X97927698Y-95809405D01*
X98074698Y-95662405D01*
X98137010Y-95628379D01*
X98163793Y-95625500D01*
X102096446Y-95625500D01*
X102099933Y-95625548D01*
X102104338Y-95625670D01*
X102114563Y-95625953D01*
X102123063Y-95626476D01*
X102125836Y-95626742D01*
X102127232Y-95626875D01*
X102174567Y-95641147D01*
X102181048Y-95644606D01*
X102186804Y-95647679D01*
X102188731Y-95648730D01*
X102217333Y-95664656D01*
X102217454Y-95664723D01*
X102217643Y-95664828D01*
X102219699Y-95665960D01*
X102220568Y-95666438D01*
X102220742Y-95666533D01*
X102241002Y-95677559D01*
X102257477Y-95688270D01*
X102272159Y-95699536D01*
X102418238Y-95760044D01*
X102575000Y-95780682D01*
X102583188Y-95779604D01*
X102629675Y-95773484D01*
X102731762Y-95760044D01*
X102877841Y-95699536D01*
X102973583Y-95626071D01*
X102996736Y-95608305D01*
X103003282Y-95603282D01*
X103099536Y-95477841D01*
X103160044Y-95331762D01*
X103180682Y-95175000D01*
X103160044Y-95018238D01*
X103099536Y-94872159D01*
X103003282Y-94746718D01*
X102996736Y-94741695D01*
X102994460Y-94739419D01*
X102960434Y-94677107D01*
X102965499Y-94606292D01*
X102983592Y-94573621D01*
X102994507Y-94559396D01*
X102994509Y-94559392D01*
X102999536Y-94552841D01*
X103060044Y-94406762D01*
X103080682Y-94250000D01*
X103060044Y-94093238D01*
X102999536Y-93947159D01*
X102903282Y-93821718D01*
X102777841Y-93725464D01*
X102631762Y-93664956D01*
X102475000Y-93644318D01*
X102318238Y-93664956D01*
X102172159Y-93725464D01*
X102157475Y-93736731D01*
X102141008Y-93747436D01*
X102120845Y-93758409D01*
X102120598Y-93758544D01*
X102117643Y-93760171D01*
X102117450Y-93760278D01*
X102088731Y-93776269D01*
X102086872Y-93777284D01*
X102074569Y-93783852D01*
X102027211Y-93798126D01*
X102023042Y-93798524D01*
X102014570Y-93799046D01*
X102001541Y-93799407D01*
X101999914Y-93799452D01*
X101996424Y-93799500D01*
X94918794Y-93799500D01*
X94850673Y-93779498D01*
X94829699Y-93762595D01*
X94748253Y-93681149D01*
X94714227Y-93618837D01*
X94719292Y-93548022D01*
X94761839Y-93491186D01*
X94820902Y-93467132D01*
X94828574Y-93466122D01*
X94836762Y-93465044D01*
X94982841Y-93404536D01*
X95001785Y-93390000D01*
X104364318Y-93390000D01*
X104365396Y-93398188D01*
X104380966Y-93516451D01*
X104384956Y-93546762D01*
X104445464Y-93692841D01*
X104474354Y-93730491D01*
X104518223Y-93787662D01*
X104541718Y-93818282D01*
X104667159Y-93914536D01*
X104813238Y-93975044D01*
X104970000Y-93995682D01*
X104978188Y-93994604D01*
X105118574Y-93976122D01*
X105126762Y-93975044D01*
X105272841Y-93914536D01*
X105398282Y-93818282D01*
X105421778Y-93787662D01*
X105465646Y-93730491D01*
X105494536Y-93692841D01*
X105555044Y-93546762D01*
X105559035Y-93516451D01*
X105574604Y-93398188D01*
X105575682Y-93390000D01*
X105555044Y-93233238D01*
X105494536Y-93087159D01*
X105398282Y-92961718D01*
X105272841Y-92865464D01*
X105126762Y-92804956D01*
X104970000Y-92784318D01*
X104813238Y-92804956D01*
X104667159Y-92865464D01*
X104541718Y-92961718D01*
X104445464Y-93087159D01*
X104384956Y-93233238D01*
X104364318Y-93390000D01*
X95001785Y-93390000D01*
X95108282Y-93308282D01*
X95204536Y-93182841D01*
X95265044Y-93036762D01*
X95285682Y-92880000D01*
X95265044Y-92723238D01*
X95204536Y-92577159D01*
X95108282Y-92451718D01*
X94982841Y-92355464D01*
X94836762Y-92294956D01*
X94680000Y-92274318D01*
X94523238Y-92294956D01*
X94515610Y-92298116D01*
X94515605Y-92298117D01*
X94494122Y-92307016D01*
X94423533Y-92314606D01*
X94356808Y-92279704D01*
X93732748Y-91655645D01*
X93722893Y-91644555D01*
X93701872Y-91617890D01*
X93694125Y-91612535D01*
X93694123Y-91612534D01*
X93657875Y-91587482D01*
X93653615Y-91584538D01*
X93650403Y-91582243D01*
X93610758Y-91552960D01*
X93610757Y-91552959D01*
X93603184Y-91547366D01*
X93596368Y-91544973D01*
X93590431Y-91540869D01*
X93581451Y-91538029D01*
X93581449Y-91538028D01*
X93561283Y-91531650D01*
X93534481Y-91523174D01*
X93530750Y-91521929D01*
X93484263Y-91505604D01*
X93484261Y-91505604D01*
X93475369Y-91502481D01*
X93468181Y-91502199D01*
X93468122Y-91502188D01*
X93461270Y-91500020D01*
X93454663Y-91499500D01*
X93401984Y-91499500D01*
X93397037Y-91499403D01*
X93340006Y-91497162D01*
X93332900Y-91499046D01*
X93324653Y-91499500D01*
X91016453Y-91499500D01*
X91001644Y-91498627D01*
X90977276Y-91495743D01*
X90967923Y-91494636D01*
X90958659Y-91496328D01*
X90958658Y-91496328D01*
X90910232Y-91505172D01*
X90906329Y-91505822D01*
X90857588Y-91513150D01*
X90857587Y-91513150D01*
X90848271Y-91514551D01*
X90841758Y-91517679D01*
X90834660Y-91518975D01*
X90782586Y-91546025D01*
X90779096Y-91547768D01*
X90726154Y-91573191D01*
X90720868Y-91578077D01*
X90720820Y-91578110D01*
X90714445Y-91581421D01*
X90709405Y-91585725D01*
X90672178Y-91622952D01*
X90668613Y-91626381D01*
X90626677Y-91665146D01*
X90622984Y-91671505D01*
X90617467Y-91677663D01*
X90385907Y-91909223D01*
X90382054Y-91912917D01*
X90365383Y-91928232D01*
X90365374Y-91928241D01*
X90348719Y-91943541D01*
X90338812Y-91951750D01*
X90320048Y-91965746D01*
X90307250Y-91974133D01*
X90301590Y-91977368D01*
X90287068Y-91984475D01*
X90285350Y-91985183D01*
X90271847Y-91989871D01*
X90261220Y-91992897D01*
X90251748Y-91995202D01*
X90221539Y-92001324D01*
X90217778Y-92002027D01*
X90187630Y-92007169D01*
X90133837Y-92004669D01*
X90061016Y-91985157D01*
X90061005Y-91985155D01*
X90057483Y-91984211D01*
X89927984Y-91965203D01*
X89920687Y-91965835D01*
X89920686Y-91965835D01*
X89868789Y-91970330D01*
X89753632Y-91980304D01*
X89746676Y-91982598D01*
X89746675Y-91982598D01*
X89740983Y-91984475D01*
X89587430Y-92035109D01*
X89528931Y-92071027D01*
X89444525Y-92122851D01*
X89444522Y-92122854D01*
X89438293Y-92126678D01*
X89314222Y-92250102D01*
X89221872Y-92398756D01*
X89219544Y-92405695D01*
X89219543Y-92405696D01*
X89168526Y-92557727D01*
X89168525Y-92557731D01*
X89166197Y-92564669D01*
X89150184Y-92738940D01*
X89151208Y-92746180D01*
X89151208Y-92746182D01*
X89156754Y-92785396D01*
X89174690Y-92912221D01*
X89238404Y-93075216D01*
X89242562Y-93081232D01*
X89242563Y-93081234D01*
X89251555Y-93094244D01*
X89273833Y-93161655D01*
X89256129Y-93230409D01*
X89213832Y-93273261D01*
X89121001Y-93330258D01*
X89120998Y-93330261D01*
X89114769Y-93334085D01*
X88990698Y-93457509D01*
X88986836Y-93463725D01*
X88982276Y-93469458D01*
X88979620Y-93467345D01*
X88938109Y-93504703D01*
X88883624Y-93517092D01*
X88874781Y-93517092D01*
X88863685Y-93515853D01*
X88863637Y-93516451D01*
X88854691Y-93515731D01*
X88845935Y-93513750D01*
X88798273Y-93516707D01*
X88795961Y-93516850D01*
X88788160Y-93517092D01*
X88773263Y-93517092D01*
X88768831Y-93517727D01*
X88768827Y-93517727D01*
X88763899Y-93518433D01*
X88753839Y-93519463D01*
X88709991Y-93522183D01*
X88701543Y-93525233D01*
X88695304Y-93526525D01*
X88687566Y-93528454D01*
X88681462Y-93530239D01*
X88672579Y-93531511D01*
X88664408Y-93535226D01*
X88632575Y-93549699D01*
X88623211Y-93553511D01*
X88590324Y-93565384D01*
X88590323Y-93565385D01*
X88581879Y-93568433D01*
X88574629Y-93573729D01*
X88568986Y-93576730D01*
X88562143Y-93580729D01*
X88556764Y-93584169D01*
X88548588Y-93587886D01*
X88541786Y-93593747D01*
X88515299Y-93616570D01*
X88507395Y-93622847D01*
X88497373Y-93630168D01*
X88487325Y-93640216D01*
X88480478Y-93646574D01*
X88445404Y-93676796D01*
X88440520Y-93684331D01*
X88434621Y-93691093D01*
X88434541Y-93691023D01*
X88426158Y-93701383D01*
X87210758Y-94916784D01*
X86170515Y-95957027D01*
X86108203Y-95991052D01*
X86037388Y-95985988D01*
X85980552Y-95943441D01*
X85955741Y-95876921D01*
X85960609Y-95832146D01*
X86021413Y-95626874D01*
X86066083Y-95476070D01*
X86068120Y-95469800D01*
X86085573Y-95420516D01*
X86228027Y-95018238D01*
X86321947Y-94753017D01*
X86324311Y-94746859D01*
X86615297Y-94044355D01*
X86617980Y-94038329D01*
X86945334Y-93352017D01*
X86948329Y-93346139D01*
X87085097Y-93094244D01*
X87311162Y-92677884D01*
X87314436Y-92672213D01*
X87652588Y-92120398D01*
X87711756Y-92023845D01*
X87715349Y-92018313D01*
X87972226Y-91644555D01*
X88146036Y-91391660D01*
X88149905Y-91386335D01*
X88612814Y-90783061D01*
X88616947Y-90777956D01*
X89110782Y-90199750D01*
X89115193Y-90194851D01*
X89537341Y-89750000D01*
X98644843Y-89750000D01*
X98665431Y-89985321D01*
X98666855Y-89990634D01*
X98666855Y-89990636D01*
X98686283Y-90063140D01*
X98726569Y-90213491D01*
X98728891Y-90218471D01*
X98728892Y-90218473D01*
X98824074Y-90422591D01*
X98824077Y-90422596D01*
X98826400Y-90427578D01*
X98961890Y-90621078D01*
X99128922Y-90788110D01*
X99133430Y-90791267D01*
X99133433Y-90791269D01*
X99214113Y-90847762D01*
X99322421Y-90923600D01*
X99327403Y-90925923D01*
X99327408Y-90925926D01*
X99531527Y-91021108D01*
X99536509Y-91023431D01*
X99541817Y-91024853D01*
X99541819Y-91024854D01*
X99759364Y-91083145D01*
X99759366Y-91083145D01*
X99764679Y-91084569D01*
X100000000Y-91105157D01*
X100235321Y-91084569D01*
X100240634Y-91083145D01*
X100240636Y-91083145D01*
X100458181Y-91024854D01*
X100458183Y-91024853D01*
X100463491Y-91023431D01*
X100468473Y-91021108D01*
X100672592Y-90925926D01*
X100672597Y-90925923D01*
X100677579Y-90923600D01*
X100785887Y-90847762D01*
X100866567Y-90791269D01*
X100866570Y-90791267D01*
X100871078Y-90788110D01*
X101038110Y-90621078D01*
X101173600Y-90427578D01*
X101175923Y-90422596D01*
X101175926Y-90422591D01*
X101271108Y-90218473D01*
X101271109Y-90218471D01*
X101273431Y-90213491D01*
X101313718Y-90063140D01*
X101333145Y-89990636D01*
X101333145Y-89990634D01*
X101334569Y-89985321D01*
X101355157Y-89750000D01*
X101334569Y-89514679D01*
X101273431Y-89286509D01*
X101240670Y-89216253D01*
X101175926Y-89077409D01*
X101175923Y-89077404D01*
X101173600Y-89072422D01*
X101038110Y-88878922D01*
X100871078Y-88711890D01*
X100866570Y-88708733D01*
X100866567Y-88708731D01*
X100785887Y-88652238D01*
X100677579Y-88576400D01*
X100672597Y-88574077D01*
X100672592Y-88574074D01*
X100468473Y-88478892D01*
X100468472Y-88478891D01*
X100463491Y-88476569D01*
X100458183Y-88475147D01*
X100458181Y-88475146D01*
X100240636Y-88416855D01*
X100240634Y-88416855D01*
X100235321Y-88415431D01*
X100000000Y-88394843D01*
X99764679Y-88415431D01*
X99759366Y-88416855D01*
X99759364Y-88416855D01*
X99541819Y-88475146D01*
X99541817Y-88475147D01*
X99536509Y-88476569D01*
X99531529Y-88478891D01*
X99531527Y-88478892D01*
X99327409Y-88574074D01*
X99327404Y-88574077D01*
X99322422Y-88576400D01*
X99317915Y-88579556D01*
X99317913Y-88579557D01*
X99133433Y-88708731D01*
X99133430Y-88708733D01*
X99128922Y-88711890D01*
X98961890Y-88878922D01*
X98826400Y-89072422D01*
X98824077Y-89077404D01*
X98824074Y-89077409D01*
X98759330Y-89216253D01*
X98726569Y-89286509D01*
X98665431Y-89514679D01*
X98645439Y-89743193D01*
X98644843Y-89750000D01*
X89537341Y-89750000D01*
X89638615Y-89643279D01*
X89643279Y-89638615D01*
X90194851Y-89115193D01*
X90199753Y-89110779D01*
X90465941Y-88883433D01*
X90777956Y-88616947D01*
X90783061Y-88612814D01*
X91386335Y-88149905D01*
X91391660Y-88146036D01*
X92018313Y-87715349D01*
X92023845Y-87711756D01*
X92120398Y-87652588D01*
X92672213Y-87314436D01*
X92677884Y-87311162D01*
X93095888Y-87084204D01*
X93346139Y-86948329D01*
X93352017Y-86945334D01*
X94038329Y-86617980D01*
X94044355Y-86615297D01*
X94746859Y-86324311D01*
X94753017Y-86321947D01*
X95469800Y-86068120D01*
X95476074Y-86066082D01*
X96205143Y-85850122D01*
X96211481Y-85848423D01*
X96950903Y-85670904D01*
X96957336Y-85669537D01*
X97705000Y-85530966D01*
X97711498Y-85529936D01*
X98465375Y-85430686D01*
X98471937Y-85429996D01*
X98552100Y-85423687D01*
X99230013Y-85370334D01*
X99236562Y-85369991D01*
X99996716Y-85350086D01*
X100003284Y-85350086D01*
X100763438Y-85369991D01*
G37*
%TD.AperFunction*%
%TA.AperFunction,Conductor*%
G36*
X96592532Y-97248737D02*
G01*
X96649368Y-97291284D01*
X96674179Y-97357804D01*
X96674500Y-97366793D01*
X96674500Y-98932627D01*
X96673261Y-98943723D01*
X96673859Y-98943771D01*
X96673139Y-98952717D01*
X96671158Y-98961473D01*
X96671714Y-98970433D01*
X96674258Y-99011440D01*
X96674500Y-99019242D01*
X96674500Y-99034145D01*
X96675841Y-99043508D01*
X96676871Y-99053566D01*
X96679592Y-99097417D01*
X96682641Y-99105862D01*
X96683932Y-99112098D01*
X96685865Y-99119849D01*
X96687646Y-99125938D01*
X96688919Y-99134829D01*
X96692636Y-99143004D01*
X96707108Y-99174836D01*
X96710920Y-99184201D01*
X96722791Y-99217083D01*
X96722793Y-99217086D01*
X96725841Y-99225530D01*
X96731136Y-99232777D01*
X96734129Y-99238407D01*
X96738132Y-99245257D01*
X96741577Y-99250644D01*
X96745294Y-99258820D01*
X96751154Y-99265620D01*
X96751154Y-99265621D01*
X96773981Y-99292113D01*
X96780266Y-99300029D01*
X96784702Y-99306101D01*
X96784708Y-99306108D01*
X96787577Y-99310035D01*
X96797618Y-99320076D01*
X96803976Y-99326923D01*
X96834204Y-99362004D01*
X96841739Y-99366888D01*
X96848501Y-99372787D01*
X96848431Y-99372867D01*
X96858794Y-99381252D01*
X97016128Y-99538586D01*
X97023100Y-99547312D01*
X97023558Y-99546923D01*
X97029374Y-99553757D01*
X97034165Y-99561350D01*
X97040894Y-99567292D01*
X97040894Y-99567293D01*
X97071707Y-99594506D01*
X97077394Y-99599852D01*
X97087915Y-99610373D01*
X97095487Y-99616048D01*
X97103318Y-99622424D01*
X97136255Y-99651513D01*
X97144382Y-99655329D01*
X97149719Y-99658834D01*
X97156546Y-99662936D01*
X97162125Y-99665991D01*
X97169305Y-99671372D01*
X97177706Y-99674521D01*
X97177709Y-99674523D01*
X97210455Y-99686798D01*
X97219778Y-99690727D01*
X97251423Y-99705585D01*
X97251428Y-99705586D01*
X97259548Y-99709399D01*
X97268416Y-99710780D01*
X97274477Y-99712633D01*
X97282229Y-99714667D01*
X97288436Y-99716032D01*
X97296843Y-99719183D01*
X97340660Y-99722439D01*
X97350709Y-99723593D01*
X97362956Y-99725500D01*
X97377166Y-99725500D01*
X97386504Y-99725846D01*
X97432674Y-99729277D01*
X97441450Y-99727404D01*
X97450407Y-99726793D01*
X97450414Y-99726899D01*
X97463667Y-99725500D01*
X97674012Y-99725500D01*
X97742133Y-99745502D01*
X97788626Y-99799158D01*
X97799501Y-99841141D01*
X97799501Y-99845002D01*
X97800274Y-99849883D01*
X97810109Y-99911979D01*
X97814818Y-99941715D01*
X97819319Y-99950548D01*
X97822384Y-99959982D01*
X97818818Y-99961141D01*
X97828470Y-100012602D01*
X97820591Y-100039436D01*
X97822384Y-100040018D01*
X97819319Y-100049452D01*
X97814818Y-100058285D01*
X97799500Y-100154997D01*
X97799501Y-100345002D01*
X97803750Y-100371828D01*
X97813093Y-100430821D01*
X97814818Y-100441715D01*
X97819319Y-100450548D01*
X97822384Y-100459982D01*
X97818818Y-100461141D01*
X97828470Y-100512602D01*
X97820591Y-100539436D01*
X97822384Y-100540018D01*
X97819319Y-100549452D01*
X97814818Y-100558285D01*
X97799500Y-100654997D01*
X97799501Y-100845002D01*
X97814818Y-100941715D01*
X97819319Y-100950548D01*
X97819319Y-100950549D01*
X97872313Y-101054556D01*
X97885417Y-101124333D01*
X97858717Y-101190118D01*
X97800689Y-101231024D01*
X97729758Y-101234064D01*
X97722060Y-101231896D01*
X97694481Y-101223174D01*
X97690750Y-101221929D01*
X97644263Y-101205604D01*
X97644261Y-101205604D01*
X97635369Y-101202481D01*
X97628181Y-101202199D01*
X97628122Y-101202188D01*
X97621270Y-101200020D01*
X97614663Y-101199500D01*
X97561984Y-101199500D01*
X97557037Y-101199403D01*
X97500006Y-101197162D01*
X97492900Y-101199046D01*
X97484653Y-101199500D01*
X96338793Y-101199500D01*
X96270672Y-101179498D01*
X96249698Y-101162595D01*
X95656943Y-100569840D01*
X95654542Y-100567373D01*
X95644434Y-100556688D01*
X95638816Y-100550333D01*
X95636155Y-100547110D01*
X95612765Y-100503535D01*
X95608719Y-100490225D01*
X95608117Y-100488181D01*
X95599052Y-100456336D01*
X95598109Y-100453083D01*
X95591535Y-100430811D01*
X95587461Y-100411597D01*
X95586122Y-100401426D01*
X95585044Y-100393238D01*
X95524536Y-100247159D01*
X95428282Y-100121718D01*
X95302841Y-100025464D01*
X95156762Y-99964956D01*
X95000000Y-99944318D01*
X94843238Y-99964956D01*
X94697159Y-100025464D01*
X94571718Y-100121718D01*
X94475464Y-100247159D01*
X94414956Y-100393238D01*
X94394318Y-100550000D01*
X94395396Y-100558188D01*
X94410543Y-100673238D01*
X94414956Y-100706762D01*
X94475464Y-100852841D01*
X94571718Y-100978282D01*
X94697159Y-101074536D01*
X94843238Y-101135044D01*
X94851425Y-101136122D01*
X94851429Y-101136123D01*
X94861589Y-101137460D01*
X94880816Y-101141537D01*
X94903016Y-101148090D01*
X94903085Y-101148110D01*
X94906138Y-101148995D01*
X94906214Y-101149017D01*
X94906336Y-101149052D01*
X94938110Y-101158097D01*
X94940234Y-101158722D01*
X94953527Y-101162762D01*
X94997102Y-101186148D01*
X95000344Y-101188825D01*
X95006705Y-101194449D01*
X95011239Y-101198739D01*
X95017333Y-101204504D01*
X95019835Y-101206938D01*
X95757247Y-101944350D01*
X95767101Y-101955439D01*
X95777549Y-101968691D01*
X95788128Y-101982110D01*
X95795876Y-101987465D01*
X95795878Y-101987467D01*
X95836400Y-102015474D01*
X95839619Y-102017774D01*
X95868358Y-102039000D01*
X95886817Y-102052634D01*
X95893631Y-102055027D01*
X95899569Y-102059131D01*
X95908546Y-102061970D01*
X95908548Y-102061971D01*
X95955517Y-102076825D01*
X95959266Y-102078076D01*
X96014631Y-102097519D01*
X96021818Y-102097801D01*
X96021880Y-102097813D01*
X96028730Y-102099980D01*
X96035337Y-102100500D01*
X96088016Y-102100500D01*
X96092962Y-102100597D01*
X96149994Y-102102838D01*
X96157100Y-102100954D01*
X96165347Y-102100500D01*
X96576929Y-102100500D01*
X96645050Y-102120502D01*
X96691543Y-102174158D01*
X96701647Y-102244432D01*
X96693338Y-102274718D01*
X96664956Y-102343238D01*
X96663878Y-102351424D01*
X96663878Y-102351425D01*
X96663797Y-102352043D01*
X96658057Y-102376480D01*
X96657073Y-102379347D01*
X96656342Y-102381412D01*
X96648836Y-102402014D01*
X96647032Y-102406671D01*
X96643287Y-102415799D01*
X96640179Y-102422766D01*
X96639985Y-102423169D01*
X96630630Y-102439347D01*
X96629856Y-102440482D01*
X96624692Y-102447517D01*
X96617860Y-102456180D01*
X96613276Y-102461666D01*
X96597931Y-102479003D01*
X96594204Y-102483033D01*
X96586285Y-102491231D01*
X96584756Y-102492786D01*
X96489947Y-102587595D01*
X96427635Y-102621621D01*
X96400852Y-102624500D01*
X87793444Y-102624500D01*
X87725323Y-102604498D01*
X87704349Y-102587595D01*
X87342405Y-102225651D01*
X87308379Y-102163339D01*
X87305500Y-102136556D01*
X87305500Y-102023643D01*
X87325502Y-101955522D01*
X87379158Y-101909029D01*
X87449432Y-101898925D01*
X87464111Y-101901936D01*
X88116808Y-102076825D01*
X88164119Y-102089502D01*
X88167875Y-102090037D01*
X88167877Y-102090037D01*
X88241392Y-102100500D01*
X88253646Y-102102244D01*
X88403474Y-102084908D01*
X88543122Y-102027919D01*
X88605959Y-101979178D01*
X88655514Y-101940740D01*
X88655515Y-101940739D01*
X88662300Y-101935476D01*
X88730255Y-101843973D01*
X88747402Y-101820884D01*
X88747403Y-101820883D01*
X88752226Y-101814388D01*
X88785956Y-101730484D01*
X88911624Y-101261485D01*
X88921580Y-101191527D01*
X88923225Y-101179968D01*
X88923225Y-101179967D01*
X88924365Y-101171957D01*
X88907030Y-101022129D01*
X88850041Y-100882482D01*
X88757597Y-100763304D01*
X88750703Y-100758184D01*
X88750701Y-100758182D01*
X88643007Y-100678202D01*
X88636510Y-100673377D01*
X88629003Y-100670359D01*
X88629001Y-100670358D01*
X88556123Y-100641061D01*
X88552606Y-100639647D01*
X87701509Y-100411597D01*
X87604308Y-100385552D01*
X87600643Y-100384570D01*
X87596887Y-100384035D01*
X87596885Y-100384035D01*
X87519126Y-100372968D01*
X87511116Y-100371828D01*
X87503078Y-100372758D01*
X87445982Y-100379364D01*
X87376013Y-100367324D01*
X87323662Y-100319367D01*
X87305500Y-100254199D01*
X87305500Y-100200000D01*
X91094318Y-100200000D01*
X91095396Y-100208188D01*
X91107787Y-100302304D01*
X91114956Y-100356762D01*
X91175464Y-100502841D01*
X91271718Y-100628282D01*
X91397159Y-100724536D01*
X91543238Y-100785044D01*
X91700000Y-100805682D01*
X91708188Y-100804604D01*
X91848574Y-100786122D01*
X91856762Y-100785044D01*
X92002841Y-100724536D01*
X92128282Y-100628282D01*
X92224536Y-100502841D01*
X92285044Y-100356762D01*
X92292214Y-100302304D01*
X92304604Y-100208188D01*
X92305682Y-100200000D01*
X92285044Y-100043238D01*
X92224536Y-99897159D01*
X92128282Y-99771718D01*
X92002841Y-99675464D01*
X91856762Y-99614956D01*
X91821951Y-99610373D01*
X91708188Y-99595396D01*
X91700000Y-99594318D01*
X91691812Y-99595396D01*
X91578050Y-99610373D01*
X91543238Y-99614956D01*
X91397159Y-99675464D01*
X91271718Y-99771718D01*
X91175464Y-99897159D01*
X91114956Y-100043238D01*
X91094318Y-100200000D01*
X87305500Y-100200000D01*
X87305500Y-98961159D01*
X87325502Y-98893038D01*
X87379158Y-98846545D01*
X87449432Y-98836441D01*
X87514012Y-98865935D01*
X87552396Y-98925661D01*
X87555405Y-98939568D01*
X87556047Y-98942014D01*
X87557071Y-98949257D01*
X87559734Y-98956069D01*
X87559734Y-98956070D01*
X87599690Y-99058285D01*
X87620785Y-99112252D01*
X87720286Y-99256219D01*
X87725718Y-99261118D01*
X87725720Y-99261121D01*
X87818717Y-99345003D01*
X87850237Y-99373434D01*
X87868016Y-99383188D01*
X87998754Y-99454913D01*
X87998758Y-99454915D01*
X88003669Y-99457609D01*
X88010557Y-99459921D01*
X88012314Y-99460511D01*
X88012330Y-99460516D01*
X88014157Y-99461129D01*
X88016032Y-99461631D01*
X88016034Y-99461632D01*
X88615466Y-99622250D01*
X88615471Y-99622251D01*
X88618994Y-99623195D01*
X88748493Y-99642203D01*
X88755790Y-99641571D01*
X88755791Y-99641571D01*
X88835669Y-99634652D01*
X88922845Y-99627102D01*
X88934694Y-99623195D01*
X88983191Y-99607203D01*
X89089047Y-99572297D01*
X89155066Y-99531762D01*
X89231952Y-99484555D01*
X89231955Y-99484552D01*
X89238184Y-99480728D01*
X89336235Y-99383188D01*
X89357065Y-99362467D01*
X89362255Y-99357304D01*
X89377831Y-99332231D01*
X89430767Y-99284923D01*
X89484859Y-99272721D01*
X89793559Y-99272721D01*
X89808368Y-99273594D01*
X89842089Y-99277585D01*
X89851353Y-99275893D01*
X89851354Y-99275893D01*
X89899780Y-99267049D01*
X89903683Y-99266399D01*
X89952424Y-99259071D01*
X89952425Y-99259071D01*
X89961741Y-99257670D01*
X89968254Y-99254542D01*
X89975352Y-99253246D01*
X90027426Y-99226196D01*
X90030916Y-99224453D01*
X90083858Y-99199030D01*
X90089144Y-99194144D01*
X90089192Y-99194111D01*
X90095567Y-99190800D01*
X90100607Y-99186496D01*
X90137834Y-99149269D01*
X90141400Y-99145839D01*
X90176420Y-99113467D01*
X90183335Y-99107075D01*
X90187028Y-99100716D01*
X90192545Y-99094558D01*
X90424698Y-98862405D01*
X90487010Y-98828379D01*
X90513793Y-98825500D01*
X94690780Y-98825500D01*
X94705589Y-98826373D01*
X94739310Y-98830364D01*
X94748574Y-98828672D01*
X94748575Y-98828672D01*
X94797001Y-98819828D01*
X94800904Y-98819178D01*
X94849645Y-98811850D01*
X94849646Y-98811850D01*
X94858962Y-98810449D01*
X94865475Y-98807321D01*
X94872573Y-98806025D01*
X94924647Y-98778975D01*
X94928137Y-98777232D01*
X94981079Y-98751809D01*
X94986365Y-98746923D01*
X94986413Y-98746890D01*
X94992788Y-98743579D01*
X94997828Y-98739275D01*
X95035055Y-98702048D01*
X95038621Y-98698618D01*
X95058924Y-98679850D01*
X95080556Y-98659854D01*
X95084249Y-98653495D01*
X95089766Y-98647337D01*
X96459405Y-97277698D01*
X96521717Y-97243672D01*
X96592532Y-97248737D01*
G37*
%TD.AperFunction*%
%TA.AperFunction,Conductor*%
G36*
X100676860Y-99223038D02*
G01*
X100717766Y-99281066D01*
X100724501Y-99321708D01*
X100724501Y-99345002D01*
X100739818Y-99441715D01*
X100744319Y-99450548D01*
X100744319Y-99450549D01*
X100769516Y-99500000D01*
X100799211Y-99558281D01*
X100891719Y-99650789D01*
X100893352Y-99651621D01*
X100933963Y-99704288D01*
X100940037Y-99775024D01*
X100906904Y-99837816D01*
X100896658Y-99846695D01*
X100891719Y-99849211D01*
X100799211Y-99941719D01*
X100739818Y-100058285D01*
X100724500Y-100154997D01*
X100724501Y-100345002D01*
X100728750Y-100371828D01*
X100738093Y-100430821D01*
X100739818Y-100441715D01*
X100744319Y-100450548D01*
X100747384Y-100459982D01*
X100743818Y-100461141D01*
X100753470Y-100512602D01*
X100745591Y-100539436D01*
X100747384Y-100540018D01*
X100744319Y-100549452D01*
X100739818Y-100558285D01*
X100738267Y-100568077D01*
X100729318Y-100624580D01*
X100698906Y-100688733D01*
X100638638Y-100726261D01*
X100624582Y-100729318D01*
X100558285Y-100739818D01*
X100549451Y-100744319D01*
X100540018Y-100747384D01*
X100538859Y-100743818D01*
X100487398Y-100753470D01*
X100460564Y-100745591D01*
X100459982Y-100747384D01*
X100450548Y-100744319D01*
X100441715Y-100739818D01*
X100345003Y-100724500D01*
X100250010Y-100724500D01*
X100154998Y-100724501D01*
X100124577Y-100729319D01*
X100068077Y-100738267D01*
X100068076Y-100738267D01*
X100058285Y-100739818D01*
X100049452Y-100744319D01*
X100040018Y-100747384D01*
X100038859Y-100743818D01*
X99987398Y-100753470D01*
X99960564Y-100745591D01*
X99959982Y-100747384D01*
X99950548Y-100744319D01*
X99941715Y-100739818D01*
X99845003Y-100724500D01*
X99750010Y-100724500D01*
X99654998Y-100724501D01*
X99624577Y-100729319D01*
X99568077Y-100738267D01*
X99568076Y-100738267D01*
X99558285Y-100739818D01*
X99549452Y-100744319D01*
X99540018Y-100747384D01*
X99538859Y-100743818D01*
X99487398Y-100753470D01*
X99460564Y-100745591D01*
X99459982Y-100747384D01*
X99450548Y-100744319D01*
X99441715Y-100739818D01*
X99375419Y-100729318D01*
X99311267Y-100698906D01*
X99273739Y-100638638D01*
X99270682Y-100624582D01*
X99260182Y-100558285D01*
X99255681Y-100549451D01*
X99252616Y-100540018D01*
X99256182Y-100538859D01*
X99246530Y-100487398D01*
X99254409Y-100460564D01*
X99252616Y-100459982D01*
X99255681Y-100450548D01*
X99260182Y-100441715D01*
X99261908Y-100430821D01*
X99266563Y-100401426D01*
X99275500Y-100345003D01*
X99275499Y-100154998D01*
X99260182Y-100058285D01*
X99255681Y-100049452D01*
X99252616Y-100040018D01*
X99256182Y-100038859D01*
X99246530Y-99987398D01*
X99254409Y-99960564D01*
X99252616Y-99959982D01*
X99255681Y-99950548D01*
X99260182Y-99941715D01*
X99275500Y-99845003D01*
X99275499Y-99654998D01*
X99266327Y-99597084D01*
X99261733Y-99568077D01*
X99261733Y-99568076D01*
X99260182Y-99558285D01*
X99255680Y-99549449D01*
X99252616Y-99540018D01*
X99256182Y-99538859D01*
X99246530Y-99487398D01*
X99254409Y-99460564D01*
X99252616Y-99459982D01*
X99255681Y-99450548D01*
X99260182Y-99441715D01*
X99270682Y-99375419D01*
X99301094Y-99311267D01*
X99361362Y-99273739D01*
X99375418Y-99270682D01*
X99441715Y-99260182D01*
X99450549Y-99255681D01*
X99459982Y-99252616D01*
X99461141Y-99256182D01*
X99512602Y-99246530D01*
X99539436Y-99254409D01*
X99540018Y-99252616D01*
X99549452Y-99255681D01*
X99558285Y-99260182D01*
X99654997Y-99275500D01*
X99749990Y-99275500D01*
X99845002Y-99275499D01*
X99900610Y-99266692D01*
X99931923Y-99261733D01*
X99931924Y-99261733D01*
X99941715Y-99260182D01*
X99950548Y-99255681D01*
X99959982Y-99252616D01*
X99961141Y-99256182D01*
X100012602Y-99246530D01*
X100039436Y-99254409D01*
X100040018Y-99252616D01*
X100049452Y-99255681D01*
X100058285Y-99260182D01*
X100154997Y-99275500D01*
X100249990Y-99275500D01*
X100345002Y-99275499D01*
X100400610Y-99266692D01*
X100431923Y-99261733D01*
X100431924Y-99261733D01*
X100441715Y-99260182D01*
X100454512Y-99253662D01*
X100500001Y-99230484D01*
X100541299Y-99209442D01*
X100611075Y-99196338D01*
X100676860Y-99223038D01*
G37*
%TD.AperFunction*%
%TA.AperFunction,Conductor*%
G36*
X102231749Y-99556487D02*
G01*
X102288585Y-99599034D01*
X102304125Y-99626324D01*
X102325464Y-99677841D01*
X102330869Y-99684885D01*
X102344110Y-99706262D01*
X102345391Y-99708883D01*
X102346366Y-99710925D01*
X102355621Y-99730790D01*
X102357629Y-99735334D01*
X102360369Y-99741884D01*
X102361452Y-99744474D01*
X102364181Y-99751600D01*
X102364331Y-99752031D01*
X102369157Y-99770099D01*
X102369409Y-99771433D01*
X102370729Y-99780038D01*
X102372026Y-99791016D01*
X102372663Y-99798132D01*
X102374072Y-99821254D01*
X102374285Y-99826719D01*
X102374481Y-99838065D01*
X102374500Y-99840241D01*
X102374500Y-99905014D01*
X102354498Y-99973135D01*
X102300842Y-100019628D01*
X102230568Y-100029732D01*
X102165988Y-100000238D01*
X102136233Y-99962216D01*
X102130291Y-99950553D01*
X102130288Y-99950549D01*
X102125789Y-99941719D01*
X102033281Y-99849211D01*
X102031648Y-99848379D01*
X101991037Y-99795712D01*
X101984963Y-99724976D01*
X102018096Y-99662184D01*
X102028342Y-99653305D01*
X102033281Y-99650789D01*
X102098622Y-99585448D01*
X102160934Y-99551422D01*
X102231749Y-99556487D01*
G37*
%TD.AperFunction*%
%TA.AperFunction,Conductor*%
G36*
X92849328Y-93060502D02*
G01*
X92870302Y-93077405D01*
X93604632Y-93811736D01*
X94337251Y-94544355D01*
X94347106Y-94555444D01*
X94368128Y-94582110D01*
X94375872Y-94587462D01*
X94375874Y-94587464D01*
X94416370Y-94615452D01*
X94419585Y-94617750D01*
X94466817Y-94652635D01*
X94473634Y-94655029D01*
X94479569Y-94659131D01*
X94488544Y-94661969D01*
X94488545Y-94661970D01*
X94510507Y-94668915D01*
X94535475Y-94676812D01*
X94539215Y-94678060D01*
X94585745Y-94694400D01*
X94585748Y-94694401D01*
X94594631Y-94697520D01*
X94601816Y-94697803D01*
X94601889Y-94697817D01*
X94608730Y-94699980D01*
X94615337Y-94700500D01*
X94667991Y-94700500D01*
X94672937Y-94700597D01*
X94729994Y-94702839D01*
X94737103Y-94700954D01*
X94745352Y-94700500D01*
X97458207Y-94700500D01*
X97526328Y-94720502D01*
X97572821Y-94774158D01*
X97582925Y-94844432D01*
X97553431Y-94909012D01*
X97547302Y-94915595D01*
X94575302Y-97887595D01*
X94512990Y-97921621D01*
X94486207Y-97924500D01*
X90309220Y-97924500D01*
X90294411Y-97923627D01*
X90270043Y-97920743D01*
X90260690Y-97919636D01*
X90251426Y-97921328D01*
X90251425Y-97921328D01*
X90202999Y-97930172D01*
X90199096Y-97930822D01*
X90150355Y-97938150D01*
X90150354Y-97938150D01*
X90141038Y-97939551D01*
X90134525Y-97942679D01*
X90127427Y-97943975D01*
X90104092Y-97956096D01*
X90034422Y-97969748D01*
X89968430Y-97943565D01*
X89927069Y-97885861D01*
X89923471Y-97814955D01*
X89956916Y-97755187D01*
X91544350Y-96167753D01*
X91555439Y-96157899D01*
X91574709Y-96142707D01*
X91574711Y-96142705D01*
X91582110Y-96136872D01*
X91592844Y-96121342D01*
X91615455Y-96088625D01*
X91617757Y-96085403D01*
X91647040Y-96045758D01*
X91647041Y-96045757D01*
X91652634Y-96038184D01*
X91655027Y-96031368D01*
X91659131Y-96025431D01*
X91676826Y-95969481D01*
X91678071Y-95965750D01*
X91694396Y-95919263D01*
X91694396Y-95919261D01*
X91697519Y-95910369D01*
X91697801Y-95903181D01*
X91697812Y-95903122D01*
X91699980Y-95896270D01*
X91700500Y-95889663D01*
X91700500Y-95836984D01*
X91700597Y-95832037D01*
X91702468Y-95784418D01*
X91702838Y-95775006D01*
X91700954Y-95767900D01*
X91700500Y-95759656D01*
X91700500Y-93688793D01*
X91720502Y-93620672D01*
X91737405Y-93599698D01*
X92259698Y-93077405D01*
X92322010Y-93043379D01*
X92348793Y-93040500D01*
X92781207Y-93040500D01*
X92849328Y-93060502D01*
G37*
%TD.AperFunction*%
%TD*%
M02*
