%TF.GenerationSoftware,KiCad,Pcbnew,(6.0.0)*%
%TF.CreationDate,2022-02-06T18:29:28+08:00*%
%TF.ProjectId,STM32_FOC,53544d33-325f-4464-9f43-2e6b69636164,rev?*%
%TF.SameCoordinates,Original*%
%TF.FileFunction,Soldermask,Bot*%
%TF.FilePolarity,Negative*%
%FSLAX46Y46*%
G04 Gerber Fmt 4.6, Leading zero omitted, Abs format (unit mm)*
G04 Created by KiCad (PCBNEW (6.0.0)) date 2022-02-06 18:29:28*
%MOMM*%
%LPD*%
G01*
G04 APERTURE LIST*
G04 Aperture macros list*
%AMRoundRect*
0 Rectangle with rounded corners*
0 $1 Rounding radius*
0 $2 $3 $4 $5 $6 $7 $8 $9 X,Y pos of 4 corners*
0 Add a 4 corners polygon primitive as box body*
4,1,4,$2,$3,$4,$5,$6,$7,$8,$9,$2,$3,0*
0 Add four circle primitives for the rounded corners*
1,1,$1+$1,$2,$3*
1,1,$1+$1,$4,$5*
1,1,$1+$1,$6,$7*
1,1,$1+$1,$8,$9*
0 Add four rect primitives between the rounded corners*
20,1,$1+$1,$2,$3,$4,$5,0*
20,1,$1+$1,$4,$5,$6,$7,0*
20,1,$1+$1,$6,$7,$8,$9,0*
20,1,$1+$1,$8,$9,$2,$3,0*%
%AMHorizOval*
0 Thick line with rounded ends*
0 $1 width*
0 $2 $3 position (X,Y) of the first rounded end (center of the circle)*
0 $4 $5 position (X,Y) of the second rounded end (center of the circle)*
0 Add line between two ends*
20,1,$1,$2,$3,$4,$5,0*
0 Add two circle primitives to create the rounded ends*
1,1,$1,$2,$3*
1,1,$1,$4,$5*%
G04 Aperture macros list end*
%ADD10RoundRect,0.251000X0.382903X-0.309654X0.486430X0.076717X-0.382903X0.309654X-0.486430X-0.076717X0*%
%ADD11HorizOval,0.902000X-0.241481X0.064705X0.241481X-0.064705X0*%
%ADD12RoundRect,0.251000X0.200000X0.450000X-0.200000X0.450000X-0.200000X-0.450000X0.200000X-0.450000X0*%
%ADD13O,0.902000X1.402000*%
%ADD14RoundRect,0.113500X-0.325000X-0.062500X0.325000X-0.062500X0.325000X0.062500X-0.325000X0.062500X0*%
%ADD15RoundRect,0.113500X-0.062500X-0.325000X0.062500X-0.325000X0.062500X0.325000X-0.062500X0.325000X0*%
%ADD16RoundRect,0.051000X-0.875000X-0.875000X0.875000X-0.875000X0.875000X0.875000X-0.875000X0.875000X0*%
%ADD17RoundRect,0.191000X-0.140000X-0.170000X0.140000X-0.170000X0.140000X0.170000X-0.140000X0.170000X0*%
G04 APERTURE END LIST*
D10*
%TO.C,J3*%
X87882381Y-101237036D03*
D11*
X88205905Y-100029629D03*
X88529429Y-98822221D03*
X88852952Y-97614814D03*
X89176476Y-96407407D03*
X89500000Y-95200000D03*
X89823524Y-93992592D03*
X90147048Y-92785185D03*
%TD*%
D12*
%TO.C,J1*%
X101250000Y-112350000D03*
D13*
X100000000Y-112350000D03*
X98750000Y-112350000D03*
%TD*%
D14*
%TO.C,U3*%
X98537500Y-100750000D03*
X98537500Y-100250000D03*
X98537500Y-99750000D03*
X98537500Y-99250000D03*
D15*
X99250000Y-98537500D03*
X99750000Y-98537500D03*
X100250000Y-98537500D03*
X100750000Y-98537500D03*
D14*
X101462500Y-99250000D03*
X101462500Y-99750000D03*
X101462500Y-100250000D03*
X101462500Y-100750000D03*
D15*
X100750000Y-101462500D03*
X100250000Y-101462500D03*
X99750000Y-101462500D03*
X99250000Y-101462500D03*
D16*
X100000000Y-100000000D03*
%TD*%
D17*
%TO.C,C18*%
X100820000Y-102850000D03*
X101780000Y-102850000D03*
%TD*%
%TO.C,C19*%
X100820000Y-103900000D03*
X101780000Y-103900000D03*
%TD*%
G36*
X99824274Y-100925000D02*
G01*
X99824274Y-100927000D01*
X99823307Y-100927848D01*
X99788718Y-100942175D01*
X99774708Y-100975999D01*
X99788761Y-101009927D01*
X99811791Y-101022236D01*
X99812847Y-101023934D01*
X99811904Y-101025698D01*
X99810848Y-101026000D01*
X99688768Y-101026000D01*
X99687036Y-101025000D01*
X99687036Y-101023000D01*
X99687657Y-101022337D01*
X99717234Y-101002576D01*
X99724377Y-100966667D01*
X99703976Y-100936133D01*
X99677164Y-100928000D01*
X99322942Y-100928000D01*
X99288720Y-100942175D01*
X99274710Y-100975999D01*
X99288763Y-101009927D01*
X99311792Y-101022236D01*
X99312848Y-101023935D01*
X99311905Y-101025698D01*
X99310849Y-101026000D01*
X99188767Y-101026000D01*
X99187035Y-101025000D01*
X99187035Y-101023000D01*
X99187656Y-101022337D01*
X99217233Y-101002575D01*
X99224376Y-100966667D01*
X99203974Y-100936133D01*
X99176880Y-100927914D01*
X99175513Y-100926454D01*
X99176094Y-100924540D01*
X99177461Y-100924000D01*
X99822542Y-100924000D01*
X99824274Y-100925000D01*
G37*
M02*
