%TF.GenerationSoftware,KiCad,Pcbnew,(6.0.0)*%
%TF.CreationDate,2022-02-06T18:29:28+08:00*%
%TF.ProjectId,STM32_FOC,53544d33-325f-4464-9f43-2e6b69636164,rev?*%
%TF.SameCoordinates,Original*%
%TF.FileFunction,Soldermask,Top*%
%TF.FilePolarity,Negative*%
%FSLAX46Y46*%
G04 Gerber Fmt 4.6, Leading zero omitted, Abs format (unit mm)*
G04 Created by KiCad (PCBNEW (6.0.0)) date 2022-02-06 18:29:28*
%MOMM*%
%LPD*%
G01*
G04 APERTURE LIST*
G04 Aperture macros list*
%AMRoundRect*
0 Rectangle with rounded corners*
0 $1 Rounding radius*
0 $2 $3 $4 $5 $6 $7 $8 $9 X,Y pos of 4 corners*
0 Add a 4 corners polygon primitive as box body*
4,1,4,$2,$3,$4,$5,$6,$7,$8,$9,$2,$3,0*
0 Add four circle primitives for the rounded corners*
1,1,$1+$1,$2,$3*
1,1,$1+$1,$4,$5*
1,1,$1+$1,$6,$7*
1,1,$1+$1,$8,$9*
0 Add four rect primitives between the rounded corners*
20,1,$1+$1,$2,$3,$4,$5,0*
20,1,$1+$1,$4,$5,$6,$7,0*
20,1,$1+$1,$6,$7,$8,$9,0*
20,1,$1+$1,$8,$9,$2,$3,0*%
%AMHorizOval*
0 Thick line with rounded ends*
0 $1 width*
0 $2 $3 position (X,Y) of the first rounded end (center of the circle)*
0 $4 $5 position (X,Y) of the second rounded end (center of the circle)*
0 Add line between two ends*
20,1,$1,$2,$3,$4,$5,0*
0 Add two circle primitives to create the rounded ends*
1,1,$1,$2,$3*
1,1,$1,$4,$5*%
G04 Aperture macros list end*
%ADD10C,0.010000*%
%ADD11RoundRect,0.191000X0.140000X0.170000X-0.140000X0.170000X-0.140000X-0.170000X0.140000X-0.170000X0*%
%ADD12RoundRect,0.191000X0.170000X-0.140000X0.170000X0.140000X-0.170000X0.140000X-0.170000X-0.140000X0*%
%ADD13RoundRect,0.191000X-0.140000X-0.170000X0.140000X-0.170000X0.140000X0.170000X-0.140000X0.170000X0*%
%ADD14RoundRect,0.191000X-0.170000X0.140000X-0.170000X-0.140000X0.170000X-0.140000X0.170000X0.140000X0*%
%ADD15RoundRect,0.126000X0.325000X-0.075000X0.325000X0.075000X-0.325000X0.075000X-0.325000X-0.075000X0*%
%ADD16RoundRect,0.186000X0.135000X0.185000X-0.135000X0.185000X-0.135000X-0.185000X0.135000X-0.185000X0*%
%ADD17RoundRect,0.186000X-0.185000X0.135000X-0.185000X-0.135000X0.185000X-0.135000X0.185000X0.135000X0*%
%ADD18RoundRect,0.051000X0.900000X-0.200000X0.900000X0.200000X-0.900000X0.200000X-0.900000X-0.200000X0*%
%ADD19RoundRect,0.051000X0.800000X-0.200000X0.800000X0.200000X-0.800000X0.200000X-0.800000X-0.200000X0*%
%ADD20RoundRect,0.301000X0.650000X-0.325000X0.650000X0.325000X-0.650000X0.325000X-0.650000X-0.325000X0*%
%ADD21RoundRect,0.198500X0.147500X0.172500X-0.147500X0.172500X-0.147500X-0.172500X0.147500X-0.172500X0*%
%ADD22RoundRect,0.186000X0.185000X-0.135000X0.185000X0.135000X-0.185000X0.135000X-0.185000X-0.135000X0*%
%ADD23RoundRect,0.126000X-0.662500X-0.075000X0.662500X-0.075000X0.662500X0.075000X-0.662500X0.075000X0*%
%ADD24RoundRect,0.126000X-0.075000X-0.662500X0.075000X-0.662500X0.075000X0.662500X-0.075000X0.662500X0*%
%ADD25RoundRect,0.201000X-0.642526X-0.016873X-0.564881X-0.306651X0.642526X0.016873X0.564881X0.306651X0*%
%ADD26RoundRect,0.301000X-0.718438X0.169842X-0.537265X-0.506306X0.718438X-0.169842X0.537265X0.506306X0*%
%ADD27RoundRect,0.186000X-0.135000X-0.185000X0.135000X-0.185000X0.135000X0.185000X-0.135000X0.185000X0*%
%ADD28RoundRect,0.276000X0.250000X-0.225000X0.250000X0.225000X-0.250000X0.225000X-0.250000X-0.225000X0*%
%ADD29RoundRect,0.251000X0.382903X-0.309654X0.486430X0.076717X-0.382903X0.309654X-0.486430X-0.076717X0*%
%ADD30HorizOval,0.902000X-0.241481X0.064705X0.241481X-0.064705X0*%
%ADD31RoundRect,0.251000X0.200000X0.450000X-0.200000X0.450000X-0.200000X-0.450000X0.200000X-0.450000X0*%
%ADD32O,0.902000X1.402000*%
G04 APERTURE END LIST*
D10*
%TO.C,U4*%
X99455000Y-110787500D02*
X99455000Y-109047500D01*
X99455000Y-109047500D02*
X99895000Y-109047500D01*
X99895000Y-109047500D02*
X99895000Y-110787500D01*
X99895000Y-110787500D02*
X99455000Y-110787500D01*
G36*
X99895000Y-110787500D02*
G01*
X99455000Y-110787500D01*
X99455000Y-109047500D01*
X99895000Y-109047500D01*
X99895000Y-110787500D01*
G37*
X99895000Y-110787500D02*
X99455000Y-110787500D01*
X99455000Y-109047500D01*
X99895000Y-109047500D01*
X99895000Y-110787500D01*
X96205000Y-110787500D02*
X96205000Y-109047500D01*
X96205000Y-109047500D02*
X96645000Y-109047500D01*
X96645000Y-109047500D02*
X96645000Y-110787500D01*
X96645000Y-110787500D02*
X96205000Y-110787500D01*
G36*
X96645000Y-110787500D02*
G01*
X96205000Y-110787500D01*
X96205000Y-109047500D01*
X96645000Y-109047500D01*
X96645000Y-110787500D01*
G37*
X96645000Y-110787500D02*
X96205000Y-110787500D01*
X96205000Y-109047500D01*
X96645000Y-109047500D01*
X96645000Y-110787500D01*
X101405000Y-105187500D02*
X101405000Y-103447500D01*
X101405000Y-103447500D02*
X101845000Y-103447500D01*
X101845000Y-103447500D02*
X101845000Y-105187500D01*
X101845000Y-105187500D02*
X101405000Y-105187500D01*
G36*
X101845000Y-105187500D02*
G01*
X101405000Y-105187500D01*
X101405000Y-103447500D01*
X101845000Y-103447500D01*
X101845000Y-105187500D01*
G37*
X101845000Y-105187500D02*
X101405000Y-105187500D01*
X101405000Y-103447500D01*
X101845000Y-103447500D01*
X101845000Y-105187500D01*
X98155000Y-105187500D02*
X98155000Y-103447500D01*
X98155000Y-103447500D02*
X98595000Y-103447500D01*
X98595000Y-103447500D02*
X98595000Y-105187500D01*
X98595000Y-105187500D02*
X98155000Y-105187500D01*
G36*
X98595000Y-105187500D02*
G01*
X98155000Y-105187500D01*
X98155000Y-103447500D01*
X98595000Y-103447500D01*
X98595000Y-105187500D01*
G37*
X98595000Y-105187500D02*
X98155000Y-105187500D01*
X98155000Y-103447500D01*
X98595000Y-103447500D01*
X98595000Y-105187500D01*
X104005000Y-105187500D02*
X104005000Y-103447500D01*
X104005000Y-103447500D02*
X104445000Y-103447500D01*
X104445000Y-103447500D02*
X104445000Y-105187500D01*
X104445000Y-105187500D02*
X104005000Y-105187500D01*
G36*
X104445000Y-105187500D02*
G01*
X104005000Y-105187500D01*
X104005000Y-103447500D01*
X104445000Y-103447500D01*
X104445000Y-105187500D01*
G37*
X104445000Y-105187500D02*
X104005000Y-105187500D01*
X104005000Y-103447500D01*
X104445000Y-103447500D01*
X104445000Y-105187500D01*
X102055000Y-110787500D02*
X102055000Y-109047500D01*
X102055000Y-109047500D02*
X102495000Y-109047500D01*
X102495000Y-109047500D02*
X102495000Y-110787500D01*
X102495000Y-110787500D02*
X102055000Y-110787500D01*
G36*
X102495000Y-110787500D02*
G01*
X102055000Y-110787500D01*
X102055000Y-109047500D01*
X102495000Y-109047500D01*
X102495000Y-110787500D01*
G37*
X102495000Y-110787500D02*
X102055000Y-110787500D01*
X102055000Y-109047500D01*
X102495000Y-109047500D01*
X102495000Y-110787500D01*
X95555000Y-105187500D02*
X95555000Y-103447500D01*
X95555000Y-103447500D02*
X95995000Y-103447500D01*
X95995000Y-103447500D02*
X95995000Y-105187500D01*
X95995000Y-105187500D02*
X95555000Y-105187500D01*
G36*
X95995000Y-105187500D02*
G01*
X95555000Y-105187500D01*
X95555000Y-103447500D01*
X95995000Y-103447500D01*
X95995000Y-105187500D01*
G37*
X95995000Y-105187500D02*
X95555000Y-105187500D01*
X95555000Y-103447500D01*
X95995000Y-103447500D01*
X95995000Y-105187500D01*
X100105000Y-110787500D02*
X100105000Y-109047500D01*
X100105000Y-109047500D02*
X100545000Y-109047500D01*
X100545000Y-109047500D02*
X100545000Y-110787500D01*
X100545000Y-110787500D02*
X100105000Y-110787500D01*
G36*
X100545000Y-110787500D02*
G01*
X100105000Y-110787500D01*
X100105000Y-109047500D01*
X100545000Y-109047500D01*
X100545000Y-110787500D01*
G37*
X100545000Y-110787500D02*
X100105000Y-110787500D01*
X100105000Y-109047500D01*
X100545000Y-109047500D01*
X100545000Y-110787500D01*
X95555000Y-110787500D02*
X95555000Y-109047500D01*
X95555000Y-109047500D02*
X95995000Y-109047500D01*
X95995000Y-109047500D02*
X95995000Y-110787500D01*
X95995000Y-110787500D02*
X95555000Y-110787500D01*
G36*
X95995000Y-110787500D02*
G01*
X95555000Y-110787500D01*
X95555000Y-109047500D01*
X95995000Y-109047500D01*
X95995000Y-110787500D01*
G37*
X95995000Y-110787500D02*
X95555000Y-110787500D01*
X95555000Y-109047500D01*
X95995000Y-109047500D01*
X95995000Y-110787500D01*
X100755000Y-110787500D02*
X100755000Y-109047500D01*
X100755000Y-109047500D02*
X101195000Y-109047500D01*
X101195000Y-109047500D02*
X101195000Y-110787500D01*
X101195000Y-110787500D02*
X100755000Y-110787500D01*
G36*
X101195000Y-110787500D02*
G01*
X100755000Y-110787500D01*
X100755000Y-109047500D01*
X101195000Y-109047500D01*
X101195000Y-110787500D01*
G37*
X101195000Y-110787500D02*
X100755000Y-110787500D01*
X100755000Y-109047500D01*
X101195000Y-109047500D01*
X101195000Y-110787500D01*
X103355000Y-110787500D02*
X103355000Y-109047500D01*
X103355000Y-109047500D02*
X103795000Y-109047500D01*
X103795000Y-109047500D02*
X103795000Y-110787500D01*
X103795000Y-110787500D02*
X103355000Y-110787500D01*
G36*
X103795000Y-110787500D02*
G01*
X103355000Y-110787500D01*
X103355000Y-109047500D01*
X103795000Y-109047500D01*
X103795000Y-110787500D01*
G37*
X103795000Y-110787500D02*
X103355000Y-110787500D01*
X103355000Y-109047500D01*
X103795000Y-109047500D01*
X103795000Y-110787500D01*
X102055000Y-105187500D02*
X102055000Y-103447500D01*
X102055000Y-103447500D02*
X102495000Y-103447500D01*
X102495000Y-103447500D02*
X102495000Y-105187500D01*
X102495000Y-105187500D02*
X102055000Y-105187500D01*
G36*
X102495000Y-105187500D02*
G01*
X102055000Y-105187500D01*
X102055000Y-103447500D01*
X102495000Y-103447500D01*
X102495000Y-105187500D01*
G37*
X102495000Y-105187500D02*
X102055000Y-105187500D01*
X102055000Y-103447500D01*
X102495000Y-103447500D01*
X102495000Y-105187500D01*
X96855000Y-105187500D02*
X96855000Y-103447500D01*
X96855000Y-103447500D02*
X97295000Y-103447500D01*
X97295000Y-103447500D02*
X97295000Y-105187500D01*
X97295000Y-105187500D02*
X96855000Y-105187500D01*
G36*
X97295000Y-105187500D02*
G01*
X96855000Y-105187500D01*
X96855000Y-103447500D01*
X97295000Y-103447500D01*
X97295000Y-105187500D01*
G37*
X97295000Y-105187500D02*
X96855000Y-105187500D01*
X96855000Y-103447500D01*
X97295000Y-103447500D01*
X97295000Y-105187500D01*
X103355000Y-105187500D02*
X103355000Y-103447500D01*
X103355000Y-103447500D02*
X103795000Y-103447500D01*
X103795000Y-103447500D02*
X103795000Y-105187500D01*
X103795000Y-105187500D02*
X103355000Y-105187500D01*
G36*
X103795000Y-105187500D02*
G01*
X103355000Y-105187500D01*
X103355000Y-103447500D01*
X103795000Y-103447500D01*
X103795000Y-105187500D01*
G37*
X103795000Y-105187500D02*
X103355000Y-105187500D01*
X103355000Y-103447500D01*
X103795000Y-103447500D01*
X103795000Y-105187500D01*
X100105000Y-105187500D02*
X100105000Y-103447500D01*
X100105000Y-103447500D02*
X100545000Y-103447500D01*
X100545000Y-103447500D02*
X100545000Y-105187500D01*
X100545000Y-105187500D02*
X100105000Y-105187500D01*
G36*
X100545000Y-105187500D02*
G01*
X100105000Y-105187500D01*
X100105000Y-103447500D01*
X100545000Y-103447500D01*
X100545000Y-105187500D01*
G37*
X100545000Y-105187500D02*
X100105000Y-105187500D01*
X100105000Y-103447500D01*
X100545000Y-103447500D01*
X100545000Y-105187500D01*
X96205000Y-105187500D02*
X96205000Y-103447500D01*
X96205000Y-103447500D02*
X96645000Y-103447500D01*
X96645000Y-103447500D02*
X96645000Y-105187500D01*
X96645000Y-105187500D02*
X96205000Y-105187500D01*
G36*
X96645000Y-105187500D02*
G01*
X96205000Y-105187500D01*
X96205000Y-103447500D01*
X96645000Y-103447500D01*
X96645000Y-105187500D01*
G37*
X96645000Y-105187500D02*
X96205000Y-105187500D01*
X96205000Y-103447500D01*
X96645000Y-103447500D01*
X96645000Y-105187500D01*
X98805000Y-105187500D02*
X98805000Y-103447500D01*
X98805000Y-103447500D02*
X99245000Y-103447500D01*
X99245000Y-103447500D02*
X99245000Y-105187500D01*
X99245000Y-105187500D02*
X98805000Y-105187500D01*
G36*
X99245000Y-105187500D02*
G01*
X98805000Y-105187500D01*
X98805000Y-103447500D01*
X99245000Y-103447500D01*
X99245000Y-105187500D01*
G37*
X99245000Y-105187500D02*
X98805000Y-105187500D01*
X98805000Y-103447500D01*
X99245000Y-103447500D01*
X99245000Y-105187500D01*
X98155000Y-110787500D02*
X98155000Y-109047500D01*
X98155000Y-109047500D02*
X98595000Y-109047500D01*
X98595000Y-109047500D02*
X98595000Y-110787500D01*
X98595000Y-110787500D02*
X98155000Y-110787500D01*
G36*
X98595000Y-110787500D02*
G01*
X98155000Y-110787500D01*
X98155000Y-109047500D01*
X98595000Y-109047500D01*
X98595000Y-110787500D01*
G37*
X98595000Y-110787500D02*
X98155000Y-110787500D01*
X98155000Y-109047500D01*
X98595000Y-109047500D01*
X98595000Y-110787500D01*
X102705000Y-110787500D02*
X102705000Y-109047500D01*
X102705000Y-109047500D02*
X103145000Y-109047500D01*
X103145000Y-109047500D02*
X103145000Y-110787500D01*
X103145000Y-110787500D02*
X102705000Y-110787500D01*
G36*
X103145000Y-110787500D02*
G01*
X102705000Y-110787500D01*
X102705000Y-109047500D01*
X103145000Y-109047500D01*
X103145000Y-110787500D01*
G37*
X103145000Y-110787500D02*
X102705000Y-110787500D01*
X102705000Y-109047500D01*
X103145000Y-109047500D01*
X103145000Y-110787500D01*
X98805000Y-110787500D02*
X98805000Y-109047500D01*
X98805000Y-109047500D02*
X99245000Y-109047500D01*
X99245000Y-109047500D02*
X99245000Y-110787500D01*
X99245000Y-110787500D02*
X98805000Y-110787500D01*
G36*
X99245000Y-110787500D02*
G01*
X98805000Y-110787500D01*
X98805000Y-109047500D01*
X99245000Y-109047500D01*
X99245000Y-110787500D01*
G37*
X99245000Y-110787500D02*
X98805000Y-110787500D01*
X98805000Y-109047500D01*
X99245000Y-109047500D01*
X99245000Y-110787500D01*
X97505000Y-110787500D02*
X97505000Y-109047500D01*
X97505000Y-109047500D02*
X97945000Y-109047500D01*
X97945000Y-109047500D02*
X97945000Y-110787500D01*
X97945000Y-110787500D02*
X97505000Y-110787500D01*
G36*
X97945000Y-110787500D02*
G01*
X97505000Y-110787500D01*
X97505000Y-109047500D01*
X97945000Y-109047500D01*
X97945000Y-110787500D01*
G37*
X97945000Y-110787500D02*
X97505000Y-110787500D01*
X97505000Y-109047500D01*
X97945000Y-109047500D01*
X97945000Y-110787500D01*
X99455000Y-105187500D02*
X99455000Y-103447500D01*
X99455000Y-103447500D02*
X99895000Y-103447500D01*
X99895000Y-103447500D02*
X99895000Y-105187500D01*
X99895000Y-105187500D02*
X99455000Y-105187500D01*
G36*
X99895000Y-105187500D02*
G01*
X99455000Y-105187500D01*
X99455000Y-103447500D01*
X99895000Y-103447500D01*
X99895000Y-105187500D01*
G37*
X99895000Y-105187500D02*
X99455000Y-105187500D01*
X99455000Y-103447500D01*
X99895000Y-103447500D01*
X99895000Y-105187500D01*
X96855000Y-110787500D02*
X96855000Y-109047500D01*
X96855000Y-109047500D02*
X97295000Y-109047500D01*
X97295000Y-109047500D02*
X97295000Y-110787500D01*
X97295000Y-110787500D02*
X96855000Y-110787500D01*
G36*
X97295000Y-110787500D02*
G01*
X96855000Y-110787500D01*
X96855000Y-109047500D01*
X97295000Y-109047500D01*
X97295000Y-110787500D01*
G37*
X97295000Y-110787500D02*
X96855000Y-110787500D01*
X96855000Y-109047500D01*
X97295000Y-109047500D01*
X97295000Y-110787500D01*
X101405000Y-110787500D02*
X101405000Y-109047500D01*
X101405000Y-109047500D02*
X101845000Y-109047500D01*
X101845000Y-109047500D02*
X101845000Y-110787500D01*
X101845000Y-110787500D02*
X101405000Y-110787500D01*
G36*
X101845000Y-110787500D02*
G01*
X101405000Y-110787500D01*
X101405000Y-109047500D01*
X101845000Y-109047500D01*
X101845000Y-110787500D01*
G37*
X101845000Y-110787500D02*
X101405000Y-110787500D01*
X101405000Y-109047500D01*
X101845000Y-109047500D01*
X101845000Y-110787500D01*
X97520000Y-108317500D02*
X97520000Y-105917500D01*
X97520000Y-105917500D02*
X102480000Y-105917500D01*
X102480000Y-105917500D02*
X102480000Y-108317500D01*
X102480000Y-108317500D02*
X97520000Y-108317500D01*
G36*
X102480000Y-108317500D02*
G01*
X97520000Y-108317500D01*
X97520000Y-105917500D01*
X102480000Y-105917500D01*
X102480000Y-108317500D01*
G37*
X102480000Y-108317500D02*
X97520000Y-108317500D01*
X97520000Y-105917500D01*
X102480000Y-105917500D01*
X102480000Y-108317500D01*
X102705000Y-105187500D02*
X102705000Y-103447500D01*
X102705000Y-103447500D02*
X103145000Y-103447500D01*
X103145000Y-103447500D02*
X103145000Y-105187500D01*
X103145000Y-105187500D02*
X102705000Y-105187500D01*
G36*
X103145000Y-105187500D02*
G01*
X102705000Y-105187500D01*
X102705000Y-103447500D01*
X103145000Y-103447500D01*
X103145000Y-105187500D01*
G37*
X103145000Y-105187500D02*
X102705000Y-105187500D01*
X102705000Y-103447500D01*
X103145000Y-103447500D01*
X103145000Y-105187500D01*
X97505000Y-105187500D02*
X97505000Y-103447500D01*
X97505000Y-103447500D02*
X97945000Y-103447500D01*
X97945000Y-103447500D02*
X97945000Y-105187500D01*
X97945000Y-105187500D02*
X97505000Y-105187500D01*
G36*
X97945000Y-105187500D02*
G01*
X97505000Y-105187500D01*
X97505000Y-103447500D01*
X97945000Y-103447500D01*
X97945000Y-105187500D01*
G37*
X97945000Y-105187500D02*
X97505000Y-105187500D01*
X97505000Y-103447500D01*
X97945000Y-103447500D01*
X97945000Y-105187500D01*
X100755000Y-105187500D02*
X100755000Y-103447500D01*
X100755000Y-103447500D02*
X101195000Y-103447500D01*
X101195000Y-103447500D02*
X101195000Y-105187500D01*
X101195000Y-105187500D02*
X100755000Y-105187500D01*
G36*
X101195000Y-105187500D02*
G01*
X100755000Y-105187500D01*
X100755000Y-103447500D01*
X101195000Y-103447500D01*
X101195000Y-105187500D01*
G37*
X101195000Y-105187500D02*
X100755000Y-105187500D01*
X100755000Y-103447500D01*
X101195000Y-103447500D01*
X101195000Y-105187500D01*
X104005000Y-110787500D02*
X104005000Y-109047500D01*
X104005000Y-109047500D02*
X104445000Y-109047500D01*
X104445000Y-109047500D02*
X104445000Y-110787500D01*
X104445000Y-110787500D02*
X104005000Y-110787500D01*
G36*
X104445000Y-110787500D02*
G01*
X104005000Y-110787500D01*
X104005000Y-109047500D01*
X104445000Y-109047500D01*
X104445000Y-110787500D01*
G37*
X104445000Y-110787500D02*
X104005000Y-110787500D01*
X104005000Y-109047500D01*
X104445000Y-109047500D01*
X104445000Y-110787500D01*
X99455000Y-110787500D02*
X99455000Y-109047500D01*
X99455000Y-109047500D02*
X99895000Y-109047500D01*
X99895000Y-109047500D02*
X99895000Y-110787500D01*
X99895000Y-110787500D02*
X99455000Y-110787500D01*
G36*
X99895000Y-110787500D02*
G01*
X99455000Y-110787500D01*
X99455000Y-109047500D01*
X99895000Y-109047500D01*
X99895000Y-110787500D01*
G37*
X99895000Y-110787500D02*
X99455000Y-110787500D01*
X99455000Y-109047500D01*
X99895000Y-109047500D01*
X99895000Y-110787500D01*
X96205000Y-110787500D02*
X96205000Y-109047500D01*
X96205000Y-109047500D02*
X96645000Y-109047500D01*
X96645000Y-109047500D02*
X96645000Y-110787500D01*
X96645000Y-110787500D02*
X96205000Y-110787500D01*
G36*
X96645000Y-110787500D02*
G01*
X96205000Y-110787500D01*
X96205000Y-109047500D01*
X96645000Y-109047500D01*
X96645000Y-110787500D01*
G37*
X96645000Y-110787500D02*
X96205000Y-110787500D01*
X96205000Y-109047500D01*
X96645000Y-109047500D01*
X96645000Y-110787500D01*
X101405000Y-105187500D02*
X101405000Y-103447500D01*
X101405000Y-103447500D02*
X101845000Y-103447500D01*
X101845000Y-103447500D02*
X101845000Y-105187500D01*
X101845000Y-105187500D02*
X101405000Y-105187500D01*
G36*
X101845000Y-105187500D02*
G01*
X101405000Y-105187500D01*
X101405000Y-103447500D01*
X101845000Y-103447500D01*
X101845000Y-105187500D01*
G37*
X101845000Y-105187500D02*
X101405000Y-105187500D01*
X101405000Y-103447500D01*
X101845000Y-103447500D01*
X101845000Y-105187500D01*
X98155000Y-105187500D02*
X98155000Y-103447500D01*
X98155000Y-103447500D02*
X98595000Y-103447500D01*
X98595000Y-103447500D02*
X98595000Y-105187500D01*
X98595000Y-105187500D02*
X98155000Y-105187500D01*
G36*
X98595000Y-105187500D02*
G01*
X98155000Y-105187500D01*
X98155000Y-103447500D01*
X98595000Y-103447500D01*
X98595000Y-105187500D01*
G37*
X98595000Y-105187500D02*
X98155000Y-105187500D01*
X98155000Y-103447500D01*
X98595000Y-103447500D01*
X98595000Y-105187500D01*
X104005000Y-105187500D02*
X104005000Y-103447500D01*
X104005000Y-103447500D02*
X104445000Y-103447500D01*
X104445000Y-103447500D02*
X104445000Y-105187500D01*
X104445000Y-105187500D02*
X104005000Y-105187500D01*
G36*
X104445000Y-105187500D02*
G01*
X104005000Y-105187500D01*
X104005000Y-103447500D01*
X104445000Y-103447500D01*
X104445000Y-105187500D01*
G37*
X104445000Y-105187500D02*
X104005000Y-105187500D01*
X104005000Y-103447500D01*
X104445000Y-103447500D01*
X104445000Y-105187500D01*
X102055000Y-110787500D02*
X102055000Y-109047500D01*
X102055000Y-109047500D02*
X102495000Y-109047500D01*
X102495000Y-109047500D02*
X102495000Y-110787500D01*
X102495000Y-110787500D02*
X102055000Y-110787500D01*
G36*
X102495000Y-110787500D02*
G01*
X102055000Y-110787500D01*
X102055000Y-109047500D01*
X102495000Y-109047500D01*
X102495000Y-110787500D01*
G37*
X102495000Y-110787500D02*
X102055000Y-110787500D01*
X102055000Y-109047500D01*
X102495000Y-109047500D01*
X102495000Y-110787500D01*
X95555000Y-105187500D02*
X95555000Y-103447500D01*
X95555000Y-103447500D02*
X95995000Y-103447500D01*
X95995000Y-103447500D02*
X95995000Y-105187500D01*
X95995000Y-105187500D02*
X95555000Y-105187500D01*
G36*
X95995000Y-105187500D02*
G01*
X95555000Y-105187500D01*
X95555000Y-103447500D01*
X95995000Y-103447500D01*
X95995000Y-105187500D01*
G37*
X95995000Y-105187500D02*
X95555000Y-105187500D01*
X95555000Y-103447500D01*
X95995000Y-103447500D01*
X95995000Y-105187500D01*
X100105000Y-110787500D02*
X100105000Y-109047500D01*
X100105000Y-109047500D02*
X100545000Y-109047500D01*
X100545000Y-109047500D02*
X100545000Y-110787500D01*
X100545000Y-110787500D02*
X100105000Y-110787500D01*
G36*
X100545000Y-110787500D02*
G01*
X100105000Y-110787500D01*
X100105000Y-109047500D01*
X100545000Y-109047500D01*
X100545000Y-110787500D01*
G37*
X100545000Y-110787500D02*
X100105000Y-110787500D01*
X100105000Y-109047500D01*
X100545000Y-109047500D01*
X100545000Y-110787500D01*
X95555000Y-110787500D02*
X95555000Y-109047500D01*
X95555000Y-109047500D02*
X95995000Y-109047500D01*
X95995000Y-109047500D02*
X95995000Y-110787500D01*
X95995000Y-110787500D02*
X95555000Y-110787500D01*
G36*
X95995000Y-110787500D02*
G01*
X95555000Y-110787500D01*
X95555000Y-109047500D01*
X95995000Y-109047500D01*
X95995000Y-110787500D01*
G37*
X95995000Y-110787500D02*
X95555000Y-110787500D01*
X95555000Y-109047500D01*
X95995000Y-109047500D01*
X95995000Y-110787500D01*
X100755000Y-110787500D02*
X100755000Y-109047500D01*
X100755000Y-109047500D02*
X101195000Y-109047500D01*
X101195000Y-109047500D02*
X101195000Y-110787500D01*
X101195000Y-110787500D02*
X100755000Y-110787500D01*
G36*
X101195000Y-110787500D02*
G01*
X100755000Y-110787500D01*
X100755000Y-109047500D01*
X101195000Y-109047500D01*
X101195000Y-110787500D01*
G37*
X101195000Y-110787500D02*
X100755000Y-110787500D01*
X100755000Y-109047500D01*
X101195000Y-109047500D01*
X101195000Y-110787500D01*
X103355000Y-110787500D02*
X103355000Y-109047500D01*
X103355000Y-109047500D02*
X103795000Y-109047500D01*
X103795000Y-109047500D02*
X103795000Y-110787500D01*
X103795000Y-110787500D02*
X103355000Y-110787500D01*
G36*
X103795000Y-110787500D02*
G01*
X103355000Y-110787500D01*
X103355000Y-109047500D01*
X103795000Y-109047500D01*
X103795000Y-110787500D01*
G37*
X103795000Y-110787500D02*
X103355000Y-110787500D01*
X103355000Y-109047500D01*
X103795000Y-109047500D01*
X103795000Y-110787500D01*
X102055000Y-105187500D02*
X102055000Y-103447500D01*
X102055000Y-103447500D02*
X102495000Y-103447500D01*
X102495000Y-103447500D02*
X102495000Y-105187500D01*
X102495000Y-105187500D02*
X102055000Y-105187500D01*
G36*
X102495000Y-105187500D02*
G01*
X102055000Y-105187500D01*
X102055000Y-103447500D01*
X102495000Y-103447500D01*
X102495000Y-105187500D01*
G37*
X102495000Y-105187500D02*
X102055000Y-105187500D01*
X102055000Y-103447500D01*
X102495000Y-103447500D01*
X102495000Y-105187500D01*
X96855000Y-105187500D02*
X96855000Y-103447500D01*
X96855000Y-103447500D02*
X97295000Y-103447500D01*
X97295000Y-103447500D02*
X97295000Y-105187500D01*
X97295000Y-105187500D02*
X96855000Y-105187500D01*
G36*
X97295000Y-105187500D02*
G01*
X96855000Y-105187500D01*
X96855000Y-103447500D01*
X97295000Y-103447500D01*
X97295000Y-105187500D01*
G37*
X97295000Y-105187500D02*
X96855000Y-105187500D01*
X96855000Y-103447500D01*
X97295000Y-103447500D01*
X97295000Y-105187500D01*
X103355000Y-105187500D02*
X103355000Y-103447500D01*
X103355000Y-103447500D02*
X103795000Y-103447500D01*
X103795000Y-103447500D02*
X103795000Y-105187500D01*
X103795000Y-105187500D02*
X103355000Y-105187500D01*
G36*
X103795000Y-105187500D02*
G01*
X103355000Y-105187500D01*
X103355000Y-103447500D01*
X103795000Y-103447500D01*
X103795000Y-105187500D01*
G37*
X103795000Y-105187500D02*
X103355000Y-105187500D01*
X103355000Y-103447500D01*
X103795000Y-103447500D01*
X103795000Y-105187500D01*
X100105000Y-105187500D02*
X100105000Y-103447500D01*
X100105000Y-103447500D02*
X100545000Y-103447500D01*
X100545000Y-103447500D02*
X100545000Y-105187500D01*
X100545000Y-105187500D02*
X100105000Y-105187500D01*
G36*
X100545000Y-105187500D02*
G01*
X100105000Y-105187500D01*
X100105000Y-103447500D01*
X100545000Y-103447500D01*
X100545000Y-105187500D01*
G37*
X100545000Y-105187500D02*
X100105000Y-105187500D01*
X100105000Y-103447500D01*
X100545000Y-103447500D01*
X100545000Y-105187500D01*
X96205000Y-105187500D02*
X96205000Y-103447500D01*
X96205000Y-103447500D02*
X96645000Y-103447500D01*
X96645000Y-103447500D02*
X96645000Y-105187500D01*
X96645000Y-105187500D02*
X96205000Y-105187500D01*
G36*
X96645000Y-105187500D02*
G01*
X96205000Y-105187500D01*
X96205000Y-103447500D01*
X96645000Y-103447500D01*
X96645000Y-105187500D01*
G37*
X96645000Y-105187500D02*
X96205000Y-105187500D01*
X96205000Y-103447500D01*
X96645000Y-103447500D01*
X96645000Y-105187500D01*
X98805000Y-105187500D02*
X98805000Y-103447500D01*
X98805000Y-103447500D02*
X99245000Y-103447500D01*
X99245000Y-103447500D02*
X99245000Y-105187500D01*
X99245000Y-105187500D02*
X98805000Y-105187500D01*
G36*
X99245000Y-105187500D02*
G01*
X98805000Y-105187500D01*
X98805000Y-103447500D01*
X99245000Y-103447500D01*
X99245000Y-105187500D01*
G37*
X99245000Y-105187500D02*
X98805000Y-105187500D01*
X98805000Y-103447500D01*
X99245000Y-103447500D01*
X99245000Y-105187500D01*
X98155000Y-110787500D02*
X98155000Y-109047500D01*
X98155000Y-109047500D02*
X98595000Y-109047500D01*
X98595000Y-109047500D02*
X98595000Y-110787500D01*
X98595000Y-110787500D02*
X98155000Y-110787500D01*
G36*
X98595000Y-110787500D02*
G01*
X98155000Y-110787500D01*
X98155000Y-109047500D01*
X98595000Y-109047500D01*
X98595000Y-110787500D01*
G37*
X98595000Y-110787500D02*
X98155000Y-110787500D01*
X98155000Y-109047500D01*
X98595000Y-109047500D01*
X98595000Y-110787500D01*
X102705000Y-110787500D02*
X102705000Y-109047500D01*
X102705000Y-109047500D02*
X103145000Y-109047500D01*
X103145000Y-109047500D02*
X103145000Y-110787500D01*
X103145000Y-110787500D02*
X102705000Y-110787500D01*
G36*
X103145000Y-110787500D02*
G01*
X102705000Y-110787500D01*
X102705000Y-109047500D01*
X103145000Y-109047500D01*
X103145000Y-110787500D01*
G37*
X103145000Y-110787500D02*
X102705000Y-110787500D01*
X102705000Y-109047500D01*
X103145000Y-109047500D01*
X103145000Y-110787500D01*
X98805000Y-110787500D02*
X98805000Y-109047500D01*
X98805000Y-109047500D02*
X99245000Y-109047500D01*
X99245000Y-109047500D02*
X99245000Y-110787500D01*
X99245000Y-110787500D02*
X98805000Y-110787500D01*
G36*
X99245000Y-110787500D02*
G01*
X98805000Y-110787500D01*
X98805000Y-109047500D01*
X99245000Y-109047500D01*
X99245000Y-110787500D01*
G37*
X99245000Y-110787500D02*
X98805000Y-110787500D01*
X98805000Y-109047500D01*
X99245000Y-109047500D01*
X99245000Y-110787500D01*
X97505000Y-110787500D02*
X97505000Y-109047500D01*
X97505000Y-109047500D02*
X97945000Y-109047500D01*
X97945000Y-109047500D02*
X97945000Y-110787500D01*
X97945000Y-110787500D02*
X97505000Y-110787500D01*
G36*
X97945000Y-110787500D02*
G01*
X97505000Y-110787500D01*
X97505000Y-109047500D01*
X97945000Y-109047500D01*
X97945000Y-110787500D01*
G37*
X97945000Y-110787500D02*
X97505000Y-110787500D01*
X97505000Y-109047500D01*
X97945000Y-109047500D01*
X97945000Y-110787500D01*
X99455000Y-105187500D02*
X99455000Y-103447500D01*
X99455000Y-103447500D02*
X99895000Y-103447500D01*
X99895000Y-103447500D02*
X99895000Y-105187500D01*
X99895000Y-105187500D02*
X99455000Y-105187500D01*
G36*
X99895000Y-105187500D02*
G01*
X99455000Y-105187500D01*
X99455000Y-103447500D01*
X99895000Y-103447500D01*
X99895000Y-105187500D01*
G37*
X99895000Y-105187500D02*
X99455000Y-105187500D01*
X99455000Y-103447500D01*
X99895000Y-103447500D01*
X99895000Y-105187500D01*
X96855000Y-110787500D02*
X96855000Y-109047500D01*
X96855000Y-109047500D02*
X97295000Y-109047500D01*
X97295000Y-109047500D02*
X97295000Y-110787500D01*
X97295000Y-110787500D02*
X96855000Y-110787500D01*
G36*
X97295000Y-110787500D02*
G01*
X96855000Y-110787500D01*
X96855000Y-109047500D01*
X97295000Y-109047500D01*
X97295000Y-110787500D01*
G37*
X97295000Y-110787500D02*
X96855000Y-110787500D01*
X96855000Y-109047500D01*
X97295000Y-109047500D01*
X97295000Y-110787500D01*
X101405000Y-110787500D02*
X101405000Y-109047500D01*
X101405000Y-109047500D02*
X101845000Y-109047500D01*
X101845000Y-109047500D02*
X101845000Y-110787500D01*
X101845000Y-110787500D02*
X101405000Y-110787500D01*
G36*
X101845000Y-110787500D02*
G01*
X101405000Y-110787500D01*
X101405000Y-109047500D01*
X101845000Y-109047500D01*
X101845000Y-110787500D01*
G37*
X101845000Y-110787500D02*
X101405000Y-110787500D01*
X101405000Y-109047500D01*
X101845000Y-109047500D01*
X101845000Y-110787500D01*
X97520000Y-108317500D02*
X97520000Y-105917500D01*
X97520000Y-105917500D02*
X102480000Y-105917500D01*
X102480000Y-105917500D02*
X102480000Y-108317500D01*
X102480000Y-108317500D02*
X97520000Y-108317500D01*
G36*
X102480000Y-108317500D02*
G01*
X97520000Y-108317500D01*
X97520000Y-105917500D01*
X102480000Y-105917500D01*
X102480000Y-108317500D01*
G37*
X102480000Y-108317500D02*
X97520000Y-108317500D01*
X97520000Y-105917500D01*
X102480000Y-105917500D01*
X102480000Y-108317500D01*
X102705000Y-105187500D02*
X102705000Y-103447500D01*
X102705000Y-103447500D02*
X103145000Y-103447500D01*
X103145000Y-103447500D02*
X103145000Y-105187500D01*
X103145000Y-105187500D02*
X102705000Y-105187500D01*
G36*
X103145000Y-105187500D02*
G01*
X102705000Y-105187500D01*
X102705000Y-103447500D01*
X103145000Y-103447500D01*
X103145000Y-105187500D01*
G37*
X103145000Y-105187500D02*
X102705000Y-105187500D01*
X102705000Y-103447500D01*
X103145000Y-103447500D01*
X103145000Y-105187500D01*
X97505000Y-105187500D02*
X97505000Y-103447500D01*
X97505000Y-103447500D02*
X97945000Y-103447500D01*
X97945000Y-103447500D02*
X97945000Y-105187500D01*
X97945000Y-105187500D02*
X97505000Y-105187500D01*
G36*
X97945000Y-105187500D02*
G01*
X97505000Y-105187500D01*
X97505000Y-103447500D01*
X97945000Y-103447500D01*
X97945000Y-105187500D01*
G37*
X97945000Y-105187500D02*
X97505000Y-105187500D01*
X97505000Y-103447500D01*
X97945000Y-103447500D01*
X97945000Y-105187500D01*
X100755000Y-105187500D02*
X100755000Y-103447500D01*
X100755000Y-103447500D02*
X101195000Y-103447500D01*
X101195000Y-103447500D02*
X101195000Y-105187500D01*
X101195000Y-105187500D02*
X100755000Y-105187500D01*
G36*
X101195000Y-105187500D02*
G01*
X100755000Y-105187500D01*
X100755000Y-103447500D01*
X101195000Y-103447500D01*
X101195000Y-105187500D01*
G37*
X101195000Y-105187500D02*
X100755000Y-105187500D01*
X100755000Y-103447500D01*
X101195000Y-103447500D01*
X101195000Y-105187500D01*
X104005000Y-110787500D02*
X104005000Y-109047500D01*
X104005000Y-109047500D02*
X104445000Y-109047500D01*
X104445000Y-109047500D02*
X104445000Y-110787500D01*
X104445000Y-110787500D02*
X104005000Y-110787500D01*
G36*
X104445000Y-110787500D02*
G01*
X104005000Y-110787500D01*
X104005000Y-109047500D01*
X104445000Y-109047500D01*
X104445000Y-110787500D01*
G37*
X104445000Y-110787500D02*
X104005000Y-110787500D01*
X104005000Y-109047500D01*
X104445000Y-109047500D01*
X104445000Y-110787500D01*
%TD*%
D11*
%TO.C,C1*%
X93580000Y-99100000D03*
X92620000Y-99100000D03*
%TD*%
D12*
%TO.C,C2*%
X95500000Y-92880000D03*
X95500000Y-91920000D03*
%TD*%
D11*
%TO.C,C3*%
X93580000Y-102400000D03*
X92620000Y-102400000D03*
%TD*%
%TO.C,C4*%
X93580000Y-94100000D03*
X92620000Y-94100000D03*
%TD*%
D13*
%TO.C,C9*%
X96820000Y-91100000D03*
X97780000Y-91100000D03*
%TD*%
D12*
%TO.C,C14*%
X96275000Y-113480000D03*
X96275000Y-112520000D03*
%TD*%
D14*
%TO.C,C16*%
X94750000Y-111570000D03*
X94750000Y-112530000D03*
%TD*%
D15*
%TO.C,JP1*%
X105850000Y-92800000D03*
X105850000Y-92200000D03*
%TD*%
D16*
%TO.C,R2*%
X100510000Y-87050000D03*
X99490000Y-87050000D03*
%TD*%
D17*
%TO.C,R8*%
X105670000Y-102570000D03*
X105670000Y-103590000D03*
%TD*%
D18*
%TO.C,Y1*%
X93070000Y-97800000D03*
X93070000Y-95400000D03*
D19*
X93070000Y-96600000D03*
%TD*%
D13*
%TO.C,C5*%
X103720000Y-101600000D03*
X104680000Y-101600000D03*
%TD*%
D14*
%TO.C,C17*%
X93750000Y-109670000D03*
X93750000Y-110630000D03*
%TD*%
D20*
%TO.C,C15*%
X108280000Y-110965000D03*
X108280000Y-108015000D03*
%TD*%
D21*
%TO.C,D1*%
X100485000Y-86000000D03*
X99515000Y-86000000D03*
%TD*%
D22*
%TO.C,R1*%
X104200000Y-92560000D03*
X104200000Y-91540000D03*
%TD*%
D12*
%TO.C,C20*%
X106850000Y-103590000D03*
X106850000Y-102630000D03*
%TD*%
D23*
%TO.C,U1*%
X95837500Y-94250000D03*
X95837500Y-94750000D03*
X95837500Y-95250000D03*
X95837500Y-95750000D03*
X95837500Y-96250000D03*
X95837500Y-96750000D03*
X95837500Y-97250000D03*
X95837500Y-97750000D03*
X95837500Y-98250000D03*
X95837500Y-98750000D03*
X95837500Y-99250000D03*
X95837500Y-99750000D03*
D24*
X97250000Y-101162500D03*
X97750000Y-101162500D03*
X98250000Y-101162500D03*
X98750000Y-101162500D03*
X99250000Y-101162500D03*
X99750000Y-101162500D03*
X100250000Y-101162500D03*
X100750000Y-101162500D03*
X101250000Y-101162500D03*
X101750000Y-101162500D03*
X102250000Y-101162500D03*
X102750000Y-101162500D03*
D23*
X104162500Y-99750000D03*
X104162500Y-99250000D03*
X104162500Y-98750000D03*
X104162500Y-98250000D03*
X104162500Y-97750000D03*
X104162500Y-97250000D03*
X104162500Y-96750000D03*
X104162500Y-96250000D03*
X104162500Y-95750000D03*
X104162500Y-95250000D03*
X104162500Y-94750000D03*
X104162500Y-94250000D03*
D24*
X102750000Y-92837500D03*
X102250000Y-92837500D03*
X101750000Y-92837500D03*
X101250000Y-92837500D03*
X100750000Y-92837500D03*
X100250000Y-92837500D03*
X99750000Y-92837500D03*
X99250000Y-92837500D03*
X98750000Y-92837500D03*
X98250000Y-92837500D03*
X97750000Y-92837500D03*
X97250000Y-92837500D03*
%TD*%
D14*
%TO.C,C8*%
X105800000Y-94020000D03*
X105800000Y-94980000D03*
%TD*%
D11*
%TO.C,C6*%
X93580000Y-101300000D03*
X92620000Y-101300000D03*
%TD*%
D25*
%TO.C,J2*%
X108914282Y-93862195D03*
X109173101Y-94828121D03*
X109431920Y-95794046D03*
X109690739Y-96759972D03*
X109949558Y-97725898D03*
X110208377Y-98691824D03*
X110467196Y-99657750D03*
X110726015Y-100623676D03*
D26*
X113501442Y-101225861D03*
X111016780Y-91952973D03*
%TD*%
D27*
%TO.C,R3*%
X92590000Y-100200000D03*
X93610000Y-100200000D03*
%TD*%
D28*
%TO.C,C13*%
X106250000Y-110175000D03*
X106250000Y-108625000D03*
%TD*%
D29*
%TO.C,J3*%
X87882381Y-101237036D03*
D30*
X88205905Y-100029629D03*
X88529429Y-98822221D03*
X88852952Y-97614814D03*
X89176476Y-96407407D03*
X89500000Y-95200000D03*
X89823524Y-93992592D03*
X90147048Y-92785185D03*
%TD*%
D31*
%TO.C,J1*%
X101250000Y-112350000D03*
D32*
X100000000Y-112350000D03*
X98750000Y-112350000D03*
%TD*%
G36*
X98550587Y-100503606D02*
G01*
X98551000Y-100504824D01*
X98551000Y-101820207D01*
X98550000Y-101821939D01*
X98548000Y-101821939D01*
X98547337Y-101821318D01*
X98526578Y-101790248D01*
X98490670Y-101783105D01*
X98460045Y-101803567D01*
X98452848Y-101820941D01*
X98451261Y-101822159D01*
X98449413Y-101821394D01*
X98449000Y-101820176D01*
X98449000Y-100504793D01*
X98450000Y-100503061D01*
X98452000Y-100503061D01*
X98452663Y-100503682D01*
X98473422Y-100534752D01*
X98509330Y-100541895D01*
X98539955Y-100521433D01*
X98547152Y-100504059D01*
X98548739Y-100502841D01*
X98550587Y-100503606D01*
G37*
G36*
X101050587Y-100503606D02*
G01*
X101051000Y-100504824D01*
X101051000Y-101820207D01*
X101050000Y-101821939D01*
X101048000Y-101821939D01*
X101047337Y-101821318D01*
X101026578Y-101790248D01*
X100990670Y-101783105D01*
X100960045Y-101803567D01*
X100952848Y-101820941D01*
X100951261Y-101822159D01*
X100949413Y-101821394D01*
X100949000Y-101820176D01*
X100949000Y-100504793D01*
X100950000Y-100503061D01*
X100952000Y-100503061D01*
X100952663Y-100503682D01*
X100973422Y-100534752D01*
X101009330Y-100541895D01*
X101039955Y-100521433D01*
X101047152Y-100504059D01*
X101048739Y-100502841D01*
X101050587Y-100503606D01*
G37*
G36*
X99050587Y-100503606D02*
G01*
X99051000Y-100504824D01*
X99051000Y-101820207D01*
X99050000Y-101821939D01*
X99048000Y-101821939D01*
X99047337Y-101821318D01*
X99026578Y-101790248D01*
X98990670Y-101783105D01*
X98960045Y-101803567D01*
X98952848Y-101820941D01*
X98951261Y-101822159D01*
X98949413Y-101821394D01*
X98949000Y-101820176D01*
X98949000Y-100504793D01*
X98950000Y-100503061D01*
X98952000Y-100503061D01*
X98952663Y-100503682D01*
X98973422Y-100534752D01*
X99009330Y-100541895D01*
X99039955Y-100521433D01*
X99047152Y-100504059D01*
X99048739Y-100502841D01*
X99050587Y-100503606D01*
G37*
G36*
X98050587Y-100503606D02*
G01*
X98051000Y-100504824D01*
X98051000Y-101820207D01*
X98050000Y-101821939D01*
X98048000Y-101821939D01*
X98047337Y-101821318D01*
X98026578Y-101790248D01*
X97990670Y-101783105D01*
X97960045Y-101803567D01*
X97952848Y-101820941D01*
X97951261Y-101822159D01*
X97949413Y-101821394D01*
X97949000Y-101820176D01*
X97949000Y-100504793D01*
X97950000Y-100503061D01*
X97952000Y-100503061D01*
X97952663Y-100503682D01*
X97973422Y-100534752D01*
X98009330Y-100541895D01*
X98039955Y-100521433D01*
X98047152Y-100504059D01*
X98048739Y-100502841D01*
X98050587Y-100503606D01*
G37*
G36*
X100050587Y-100503606D02*
G01*
X100051000Y-100504824D01*
X100051000Y-101820207D01*
X100050000Y-101821939D01*
X100048000Y-101821939D01*
X100047337Y-101821318D01*
X100026578Y-101790248D01*
X99990670Y-101783105D01*
X99960045Y-101803567D01*
X99952848Y-101820941D01*
X99951261Y-101822159D01*
X99949413Y-101821394D01*
X99949000Y-101820176D01*
X99949000Y-100504793D01*
X99950000Y-100503061D01*
X99952000Y-100503061D01*
X99952663Y-100503682D01*
X99973422Y-100534752D01*
X100009330Y-100541895D01*
X100039955Y-100521433D01*
X100047152Y-100504059D01*
X100048739Y-100502841D01*
X100050587Y-100503606D01*
G37*
G36*
X102550587Y-100503606D02*
G01*
X102551000Y-100504824D01*
X102551000Y-101820207D01*
X102550000Y-101821939D01*
X102548000Y-101821939D01*
X102547337Y-101821318D01*
X102526578Y-101790248D01*
X102490670Y-101783105D01*
X102460045Y-101803567D01*
X102452848Y-101820941D01*
X102451261Y-101822159D01*
X102449413Y-101821394D01*
X102449000Y-101820176D01*
X102449000Y-100504793D01*
X102450000Y-100503061D01*
X102452000Y-100503061D01*
X102452663Y-100503682D01*
X102473422Y-100534752D01*
X102509330Y-100541895D01*
X102539955Y-100521433D01*
X102547152Y-100504059D01*
X102548739Y-100502841D01*
X102550587Y-100503606D01*
G37*
G36*
X99550587Y-100503606D02*
G01*
X99551000Y-100504824D01*
X99551000Y-101820207D01*
X99550000Y-101821939D01*
X99548000Y-101821939D01*
X99547337Y-101821318D01*
X99526578Y-101790248D01*
X99490670Y-101783105D01*
X99460045Y-101803567D01*
X99452848Y-101820941D01*
X99451261Y-101822159D01*
X99449413Y-101821394D01*
X99449000Y-101820176D01*
X99449000Y-100504793D01*
X99450000Y-100503061D01*
X99452000Y-100503061D01*
X99452663Y-100503682D01*
X99473422Y-100534752D01*
X99509330Y-100541895D01*
X99539955Y-100521433D01*
X99547152Y-100504059D01*
X99548739Y-100502841D01*
X99550587Y-100503606D01*
G37*
G36*
X101550587Y-100503606D02*
G01*
X101551000Y-100504824D01*
X101551000Y-101820207D01*
X101550000Y-101821939D01*
X101548000Y-101821939D01*
X101547337Y-101821318D01*
X101526578Y-101790248D01*
X101490670Y-101783105D01*
X101460045Y-101803567D01*
X101452848Y-101820941D01*
X101451261Y-101822159D01*
X101449413Y-101821394D01*
X101449000Y-101820176D01*
X101449000Y-100504793D01*
X101450000Y-100503061D01*
X101452000Y-100503061D01*
X101452663Y-100503682D01*
X101473422Y-100534752D01*
X101509330Y-100541895D01*
X101539955Y-100521433D01*
X101547152Y-100504059D01*
X101548739Y-100502841D01*
X101550587Y-100503606D01*
G37*
G36*
X97550587Y-100503606D02*
G01*
X97551000Y-100504824D01*
X97551000Y-101820207D01*
X97550000Y-101821939D01*
X97548000Y-101821939D01*
X97547337Y-101821318D01*
X97526578Y-101790248D01*
X97490670Y-101783105D01*
X97460045Y-101803567D01*
X97452848Y-101820941D01*
X97451261Y-101822159D01*
X97449413Y-101821394D01*
X97449000Y-101820176D01*
X97449000Y-100504793D01*
X97450000Y-100503061D01*
X97452000Y-100503061D01*
X97452663Y-100503682D01*
X97473422Y-100534752D01*
X97509330Y-100541895D01*
X97539955Y-100521433D01*
X97547152Y-100504059D01*
X97548739Y-100502841D01*
X97550587Y-100503606D01*
G37*
G36*
X100550587Y-100503606D02*
G01*
X100551000Y-100504824D01*
X100551000Y-101820207D01*
X100550000Y-101821939D01*
X100548000Y-101821939D01*
X100547337Y-101821318D01*
X100526578Y-101790248D01*
X100490670Y-101783105D01*
X100460045Y-101803567D01*
X100452848Y-101820941D01*
X100451261Y-101822159D01*
X100449413Y-101821394D01*
X100449000Y-101820176D01*
X100449000Y-100504793D01*
X100450000Y-100503061D01*
X100452000Y-100503061D01*
X100452663Y-100503682D01*
X100473422Y-100534752D01*
X100509330Y-100541895D01*
X100539955Y-100521433D01*
X100547152Y-100504059D01*
X100548739Y-100502841D01*
X100550587Y-100503606D01*
G37*
G36*
X102050587Y-100503606D02*
G01*
X102051000Y-100504824D01*
X102051000Y-101820207D01*
X102050000Y-101821939D01*
X102048000Y-101821939D01*
X102047337Y-101821318D01*
X102026578Y-101790248D01*
X101990670Y-101783105D01*
X101960045Y-101803567D01*
X101952848Y-101820941D01*
X101951261Y-101822159D01*
X101949413Y-101821394D01*
X101949000Y-101820176D01*
X101949000Y-100504793D01*
X101950000Y-100503061D01*
X101952000Y-100503061D01*
X101952663Y-100503682D01*
X101973422Y-100534752D01*
X102009330Y-100541895D01*
X102039955Y-100521433D01*
X102047152Y-100504059D01*
X102048739Y-100502841D01*
X102050587Y-100503606D01*
G37*
G36*
X104821939Y-99450000D02*
G01*
X104821939Y-99452000D01*
X104821318Y-99452663D01*
X104790248Y-99473422D01*
X104783105Y-99509330D01*
X104803567Y-99539955D01*
X104820941Y-99547152D01*
X104822159Y-99548739D01*
X104821394Y-99550587D01*
X104820176Y-99551000D01*
X103504793Y-99551000D01*
X103503061Y-99550000D01*
X103503061Y-99548000D01*
X103503682Y-99547337D01*
X103534752Y-99526578D01*
X103541895Y-99490670D01*
X103521433Y-99460045D01*
X103504059Y-99452848D01*
X103502841Y-99451261D01*
X103503606Y-99449413D01*
X103504824Y-99449000D01*
X104820207Y-99449000D01*
X104821939Y-99450000D01*
G37*
G36*
X96496939Y-99450000D02*
G01*
X96496939Y-99452000D01*
X96496318Y-99452663D01*
X96465248Y-99473422D01*
X96458105Y-99509330D01*
X96478567Y-99539955D01*
X96495941Y-99547152D01*
X96497159Y-99548739D01*
X96496394Y-99550587D01*
X96495176Y-99551000D01*
X95179793Y-99551000D01*
X95178061Y-99550000D01*
X95178061Y-99548000D01*
X95178682Y-99547337D01*
X95209752Y-99526578D01*
X95216895Y-99490670D01*
X95196433Y-99460045D01*
X95179059Y-99452848D01*
X95177841Y-99451261D01*
X95178606Y-99449413D01*
X95179824Y-99449000D01*
X96495207Y-99449000D01*
X96496939Y-99450000D01*
G37*
G36*
X104821939Y-98950000D02*
G01*
X104821939Y-98952000D01*
X104821318Y-98952663D01*
X104790248Y-98973422D01*
X104783105Y-99009330D01*
X104803567Y-99039955D01*
X104820941Y-99047152D01*
X104822159Y-99048739D01*
X104821394Y-99050587D01*
X104820176Y-99051000D01*
X103504793Y-99051000D01*
X103503061Y-99050000D01*
X103503061Y-99048000D01*
X103503682Y-99047337D01*
X103534752Y-99026578D01*
X103541895Y-98990670D01*
X103521433Y-98960045D01*
X103504059Y-98952848D01*
X103502841Y-98951261D01*
X103503606Y-98949413D01*
X103504824Y-98949000D01*
X104820207Y-98949000D01*
X104821939Y-98950000D01*
G37*
G36*
X96496939Y-98950000D02*
G01*
X96496939Y-98952000D01*
X96496318Y-98952663D01*
X96465248Y-98973422D01*
X96458105Y-99009330D01*
X96478567Y-99039955D01*
X96495941Y-99047152D01*
X96497159Y-99048739D01*
X96496394Y-99050587D01*
X96495176Y-99051000D01*
X95179793Y-99051000D01*
X95178061Y-99050000D01*
X95178061Y-99048000D01*
X95178682Y-99047337D01*
X95209752Y-99026578D01*
X95216895Y-98990670D01*
X95196433Y-98960045D01*
X95179059Y-98952848D01*
X95177841Y-98951261D01*
X95178606Y-98949413D01*
X95179824Y-98949000D01*
X96495207Y-98949000D01*
X96496939Y-98950000D01*
G37*
G36*
X104821939Y-98450000D02*
G01*
X104821939Y-98452000D01*
X104821318Y-98452663D01*
X104790248Y-98473422D01*
X104783105Y-98509330D01*
X104803567Y-98539955D01*
X104820941Y-98547152D01*
X104822159Y-98548739D01*
X104821394Y-98550587D01*
X104820176Y-98551000D01*
X103504793Y-98551000D01*
X103503061Y-98550000D01*
X103503061Y-98548000D01*
X103503682Y-98547337D01*
X103534752Y-98526578D01*
X103541895Y-98490670D01*
X103521433Y-98460045D01*
X103504059Y-98452848D01*
X103502841Y-98451261D01*
X103503606Y-98449413D01*
X103504824Y-98449000D01*
X104820207Y-98449000D01*
X104821939Y-98450000D01*
G37*
G36*
X96496939Y-98450000D02*
G01*
X96496939Y-98452000D01*
X96496318Y-98452663D01*
X96465248Y-98473422D01*
X96458105Y-98509330D01*
X96478567Y-98539955D01*
X96495941Y-98547152D01*
X96497159Y-98548739D01*
X96496394Y-98550587D01*
X96495176Y-98551000D01*
X95179793Y-98551000D01*
X95178061Y-98550000D01*
X95178061Y-98548000D01*
X95178682Y-98547337D01*
X95209752Y-98526578D01*
X95216895Y-98490670D01*
X95196433Y-98460045D01*
X95179059Y-98452848D01*
X95177841Y-98451261D01*
X95178606Y-98449413D01*
X95179824Y-98449000D01*
X96495207Y-98449000D01*
X96496939Y-98450000D01*
G37*
G36*
X104821939Y-97950000D02*
G01*
X104821939Y-97952000D01*
X104821318Y-97952663D01*
X104790248Y-97973422D01*
X104783105Y-98009330D01*
X104803567Y-98039955D01*
X104820941Y-98047152D01*
X104822159Y-98048739D01*
X104821394Y-98050587D01*
X104820176Y-98051000D01*
X103504793Y-98051000D01*
X103503061Y-98050000D01*
X103503061Y-98048000D01*
X103503682Y-98047337D01*
X103534752Y-98026578D01*
X103541895Y-97990670D01*
X103521433Y-97960045D01*
X103504059Y-97952848D01*
X103502841Y-97951261D01*
X103503606Y-97949413D01*
X103504824Y-97949000D01*
X104820207Y-97949000D01*
X104821939Y-97950000D01*
G37*
G36*
X96496939Y-97950000D02*
G01*
X96496939Y-97952000D01*
X96496318Y-97952663D01*
X96465248Y-97973422D01*
X96458105Y-98009330D01*
X96478567Y-98039955D01*
X96495941Y-98047152D01*
X96497159Y-98048739D01*
X96496394Y-98050587D01*
X96495176Y-98051000D01*
X95179793Y-98051000D01*
X95178061Y-98050000D01*
X95178061Y-98048000D01*
X95178682Y-98047337D01*
X95209752Y-98026578D01*
X95216895Y-97990670D01*
X95196433Y-97960045D01*
X95179059Y-97952848D01*
X95177841Y-97951261D01*
X95178606Y-97949413D01*
X95179824Y-97949000D01*
X96495207Y-97949000D01*
X96496939Y-97950000D01*
G37*
G36*
X104821939Y-97450000D02*
G01*
X104821939Y-97452000D01*
X104821318Y-97452663D01*
X104790248Y-97473422D01*
X104783105Y-97509330D01*
X104803567Y-97539955D01*
X104820941Y-97547152D01*
X104822159Y-97548739D01*
X104821394Y-97550587D01*
X104820176Y-97551000D01*
X103504793Y-97551000D01*
X103503061Y-97550000D01*
X103503061Y-97548000D01*
X103503682Y-97547337D01*
X103534752Y-97526578D01*
X103541895Y-97490670D01*
X103521433Y-97460045D01*
X103504059Y-97452848D01*
X103502841Y-97451261D01*
X103503606Y-97449413D01*
X103504824Y-97449000D01*
X104820207Y-97449000D01*
X104821939Y-97450000D01*
G37*
G36*
X96496939Y-97450000D02*
G01*
X96496939Y-97452000D01*
X96496318Y-97452663D01*
X96465248Y-97473422D01*
X96458105Y-97509330D01*
X96478567Y-97539955D01*
X96495941Y-97547152D01*
X96497159Y-97548739D01*
X96496394Y-97550587D01*
X96495176Y-97551000D01*
X95179793Y-97551000D01*
X95178061Y-97550000D01*
X95178061Y-97548000D01*
X95178682Y-97547337D01*
X95209752Y-97526578D01*
X95216895Y-97490670D01*
X95196433Y-97460045D01*
X95179059Y-97452848D01*
X95177841Y-97451261D01*
X95178606Y-97449413D01*
X95179824Y-97449000D01*
X96495207Y-97449000D01*
X96496939Y-97450000D01*
G37*
G36*
X96496939Y-96950000D02*
G01*
X96496939Y-96952000D01*
X96496318Y-96952663D01*
X96465248Y-96973422D01*
X96458105Y-97009330D01*
X96478567Y-97039955D01*
X96495941Y-97047152D01*
X96497159Y-97048739D01*
X96496394Y-97050587D01*
X96495176Y-97051000D01*
X95179793Y-97051000D01*
X95178061Y-97050000D01*
X95178061Y-97048000D01*
X95178682Y-97047337D01*
X95209752Y-97026578D01*
X95216895Y-96990670D01*
X95196433Y-96960045D01*
X95179059Y-96952848D01*
X95177841Y-96951261D01*
X95178606Y-96949413D01*
X95179824Y-96949000D01*
X96495207Y-96949000D01*
X96496939Y-96950000D01*
G37*
G36*
X104821939Y-96950000D02*
G01*
X104821939Y-96952000D01*
X104821318Y-96952663D01*
X104790248Y-96973422D01*
X104783105Y-97009330D01*
X104803567Y-97039955D01*
X104820941Y-97047152D01*
X104822159Y-97048739D01*
X104821394Y-97050587D01*
X104820176Y-97051000D01*
X103504793Y-97051000D01*
X103503061Y-97050000D01*
X103503061Y-97048000D01*
X103503682Y-97047337D01*
X103534752Y-97026578D01*
X103541895Y-96990670D01*
X103521433Y-96960045D01*
X103504059Y-96952848D01*
X103502841Y-96951261D01*
X103503606Y-96949413D01*
X103504824Y-96949000D01*
X104820207Y-96949000D01*
X104821939Y-96950000D01*
G37*
G36*
X104821939Y-96450000D02*
G01*
X104821939Y-96452000D01*
X104821318Y-96452663D01*
X104790248Y-96473422D01*
X104783105Y-96509330D01*
X104803567Y-96539955D01*
X104820941Y-96547152D01*
X104822159Y-96548739D01*
X104821394Y-96550587D01*
X104820176Y-96551000D01*
X103504793Y-96551000D01*
X103503061Y-96550000D01*
X103503061Y-96548000D01*
X103503682Y-96547337D01*
X103534752Y-96526578D01*
X103541895Y-96490670D01*
X103521433Y-96460045D01*
X103504059Y-96452848D01*
X103502841Y-96451261D01*
X103503606Y-96449413D01*
X103504824Y-96449000D01*
X104820207Y-96449000D01*
X104821939Y-96450000D01*
G37*
G36*
X96496939Y-96450000D02*
G01*
X96496939Y-96452000D01*
X96496318Y-96452663D01*
X96465248Y-96473422D01*
X96458105Y-96509330D01*
X96478567Y-96539955D01*
X96495941Y-96547152D01*
X96497159Y-96548739D01*
X96496394Y-96550587D01*
X96495176Y-96551000D01*
X95179793Y-96551000D01*
X95178061Y-96550000D01*
X95178061Y-96548000D01*
X95178682Y-96547337D01*
X95209752Y-96526578D01*
X95216895Y-96490670D01*
X95196433Y-96460045D01*
X95179059Y-96452848D01*
X95177841Y-96451261D01*
X95178606Y-96449413D01*
X95179824Y-96449000D01*
X96495207Y-96449000D01*
X96496939Y-96450000D01*
G37*
G36*
X104821939Y-95950000D02*
G01*
X104821939Y-95952000D01*
X104821318Y-95952663D01*
X104790248Y-95973422D01*
X104783105Y-96009330D01*
X104803567Y-96039955D01*
X104820941Y-96047152D01*
X104822159Y-96048739D01*
X104821394Y-96050587D01*
X104820176Y-96051000D01*
X103504793Y-96051000D01*
X103503061Y-96050000D01*
X103503061Y-96048000D01*
X103503682Y-96047337D01*
X103534752Y-96026578D01*
X103541895Y-95990670D01*
X103521433Y-95960045D01*
X103504059Y-95952848D01*
X103502841Y-95951261D01*
X103503606Y-95949413D01*
X103504824Y-95949000D01*
X104820207Y-95949000D01*
X104821939Y-95950000D01*
G37*
G36*
X96496939Y-95950000D02*
G01*
X96496939Y-95952000D01*
X96496318Y-95952663D01*
X96465248Y-95973422D01*
X96458105Y-96009330D01*
X96478567Y-96039955D01*
X96495941Y-96047152D01*
X96497159Y-96048739D01*
X96496394Y-96050587D01*
X96495176Y-96051000D01*
X95179793Y-96051000D01*
X95178061Y-96050000D01*
X95178061Y-96048000D01*
X95178682Y-96047337D01*
X95209752Y-96026578D01*
X95216895Y-95990670D01*
X95196433Y-95960045D01*
X95179059Y-95952848D01*
X95177841Y-95951261D01*
X95178606Y-95949413D01*
X95179824Y-95949000D01*
X96495207Y-95949000D01*
X96496939Y-95950000D01*
G37*
G36*
X96496939Y-95450000D02*
G01*
X96496939Y-95452000D01*
X96496318Y-95452663D01*
X96465248Y-95473422D01*
X96458105Y-95509330D01*
X96478567Y-95539955D01*
X96495941Y-95547152D01*
X96497159Y-95548739D01*
X96496394Y-95550587D01*
X96495176Y-95551000D01*
X95179793Y-95551000D01*
X95178061Y-95550000D01*
X95178061Y-95548000D01*
X95178682Y-95547337D01*
X95209752Y-95526578D01*
X95216895Y-95490670D01*
X95196433Y-95460045D01*
X95179059Y-95452848D01*
X95177841Y-95451261D01*
X95178606Y-95449413D01*
X95179824Y-95449000D01*
X96495207Y-95449000D01*
X96496939Y-95450000D01*
G37*
G36*
X104821939Y-95450000D02*
G01*
X104821939Y-95452000D01*
X104821318Y-95452663D01*
X104790248Y-95473422D01*
X104783105Y-95509330D01*
X104803567Y-95539955D01*
X104820941Y-95547152D01*
X104822159Y-95548739D01*
X104821394Y-95550587D01*
X104820176Y-95551000D01*
X103504793Y-95551000D01*
X103503061Y-95550000D01*
X103503061Y-95548000D01*
X103503682Y-95547337D01*
X103534752Y-95526578D01*
X103541895Y-95490670D01*
X103521433Y-95460045D01*
X103504059Y-95452848D01*
X103502841Y-95451261D01*
X103503606Y-95449413D01*
X103504824Y-95449000D01*
X104820207Y-95449000D01*
X104821939Y-95450000D01*
G37*
G36*
X104821939Y-94950000D02*
G01*
X104821939Y-94952000D01*
X104821318Y-94952663D01*
X104790248Y-94973422D01*
X104783105Y-95009330D01*
X104803567Y-95039955D01*
X104820941Y-95047152D01*
X104822159Y-95048739D01*
X104821394Y-95050587D01*
X104820176Y-95051000D01*
X103504793Y-95051000D01*
X103503061Y-95050000D01*
X103503061Y-95048000D01*
X103503682Y-95047337D01*
X103534752Y-95026578D01*
X103541895Y-94990670D01*
X103521433Y-94960045D01*
X103504059Y-94952848D01*
X103502841Y-94951261D01*
X103503606Y-94949413D01*
X103504824Y-94949000D01*
X104820207Y-94949000D01*
X104821939Y-94950000D01*
G37*
G36*
X96496939Y-94950000D02*
G01*
X96496939Y-94952000D01*
X96496318Y-94952663D01*
X96465248Y-94973422D01*
X96458105Y-95009330D01*
X96478567Y-95039955D01*
X96495941Y-95047152D01*
X96497159Y-95048739D01*
X96496394Y-95050587D01*
X96495176Y-95051000D01*
X95179793Y-95051000D01*
X95178061Y-95050000D01*
X95178061Y-95048000D01*
X95178682Y-95047337D01*
X95209752Y-95026578D01*
X95216895Y-94990670D01*
X95196433Y-94960045D01*
X95179059Y-94952848D01*
X95177841Y-94951261D01*
X95178606Y-94949413D01*
X95179824Y-94949000D01*
X96495207Y-94949000D01*
X96496939Y-94950000D01*
G37*
G36*
X96496939Y-94450000D02*
G01*
X96496939Y-94452000D01*
X96496318Y-94452663D01*
X96465248Y-94473422D01*
X96458105Y-94509330D01*
X96478567Y-94539955D01*
X96495941Y-94547152D01*
X96497159Y-94548739D01*
X96496394Y-94550587D01*
X96495176Y-94551000D01*
X95179793Y-94551000D01*
X95178061Y-94550000D01*
X95178061Y-94548000D01*
X95178682Y-94547337D01*
X95209752Y-94526578D01*
X95216895Y-94490670D01*
X95196433Y-94460045D01*
X95179059Y-94452848D01*
X95177841Y-94451261D01*
X95178606Y-94449413D01*
X95179824Y-94449000D01*
X96495207Y-94449000D01*
X96496939Y-94450000D01*
G37*
G36*
X104821939Y-94450000D02*
G01*
X104821939Y-94452000D01*
X104821318Y-94452663D01*
X104790248Y-94473422D01*
X104783105Y-94509330D01*
X104803567Y-94539955D01*
X104820941Y-94547152D01*
X104822159Y-94548739D01*
X104821394Y-94550587D01*
X104820176Y-94551000D01*
X103504793Y-94551000D01*
X103503061Y-94550000D01*
X103503061Y-94548000D01*
X103503682Y-94547337D01*
X103534752Y-94526578D01*
X103541895Y-94490670D01*
X103521433Y-94460045D01*
X103504059Y-94452848D01*
X103502841Y-94451261D01*
X103503606Y-94449413D01*
X103504824Y-94449000D01*
X104820207Y-94449000D01*
X104821939Y-94450000D01*
G37*
G36*
X102050587Y-92178606D02*
G01*
X102051000Y-92179824D01*
X102051000Y-93495207D01*
X102050000Y-93496939D01*
X102048000Y-93496939D01*
X102047337Y-93496318D01*
X102026578Y-93465248D01*
X101990670Y-93458105D01*
X101960045Y-93478567D01*
X101952848Y-93495941D01*
X101951261Y-93497159D01*
X101949413Y-93496394D01*
X101949000Y-93495176D01*
X101949000Y-92179793D01*
X101950000Y-92178061D01*
X101952000Y-92178061D01*
X101952663Y-92178682D01*
X101973422Y-92209752D01*
X102009330Y-92216895D01*
X102039955Y-92196433D01*
X102047152Y-92179059D01*
X102048739Y-92177841D01*
X102050587Y-92178606D01*
G37*
G36*
X101050587Y-92178606D02*
G01*
X101051000Y-92179824D01*
X101051000Y-93495207D01*
X101050000Y-93496939D01*
X101048000Y-93496939D01*
X101047337Y-93496318D01*
X101026578Y-93465248D01*
X100990670Y-93458105D01*
X100960045Y-93478567D01*
X100952848Y-93495941D01*
X100951261Y-93497159D01*
X100949413Y-93496394D01*
X100949000Y-93495176D01*
X100949000Y-92179793D01*
X100950000Y-92178061D01*
X100952000Y-92178061D01*
X100952663Y-92178682D01*
X100973422Y-92209752D01*
X101009330Y-92216895D01*
X101039955Y-92196433D01*
X101047152Y-92179059D01*
X101048739Y-92177841D01*
X101050587Y-92178606D01*
G37*
G36*
X98550587Y-92178606D02*
G01*
X98551000Y-92179824D01*
X98551000Y-93495207D01*
X98550000Y-93496939D01*
X98548000Y-93496939D01*
X98547337Y-93496318D01*
X98526578Y-93465248D01*
X98490670Y-93458105D01*
X98460045Y-93478567D01*
X98452848Y-93495941D01*
X98451261Y-93497159D01*
X98449413Y-93496394D01*
X98449000Y-93495176D01*
X98449000Y-92179793D01*
X98450000Y-92178061D01*
X98452000Y-92178061D01*
X98452663Y-92178682D01*
X98473422Y-92209752D01*
X98509330Y-92216895D01*
X98539955Y-92196433D01*
X98547152Y-92179059D01*
X98548739Y-92177841D01*
X98550587Y-92178606D01*
G37*
G36*
X100050587Y-92178606D02*
G01*
X100051000Y-92179824D01*
X100051000Y-93495207D01*
X100050000Y-93496939D01*
X100048000Y-93496939D01*
X100047337Y-93496318D01*
X100026578Y-93465248D01*
X99990670Y-93458105D01*
X99960045Y-93478567D01*
X99952848Y-93495941D01*
X99951261Y-93497159D01*
X99949413Y-93496394D01*
X99949000Y-93495176D01*
X99949000Y-92179793D01*
X99950000Y-92178061D01*
X99952000Y-92178061D01*
X99952663Y-92178682D01*
X99973422Y-92209752D01*
X100009330Y-92216895D01*
X100039955Y-92196433D01*
X100047152Y-92179059D01*
X100048739Y-92177841D01*
X100050587Y-92178606D01*
G37*
G36*
X102550587Y-92178606D02*
G01*
X102551000Y-92179824D01*
X102551000Y-93495207D01*
X102550000Y-93496939D01*
X102548000Y-93496939D01*
X102547337Y-93496318D01*
X102526578Y-93465248D01*
X102490670Y-93458105D01*
X102460045Y-93478567D01*
X102452848Y-93495941D01*
X102451261Y-93497159D01*
X102449413Y-93496394D01*
X102449000Y-93495176D01*
X102449000Y-92179793D01*
X102450000Y-92178061D01*
X102452000Y-92178061D01*
X102452663Y-92178682D01*
X102473422Y-92209752D01*
X102509330Y-92216895D01*
X102539955Y-92196433D01*
X102547152Y-92179059D01*
X102548739Y-92177841D01*
X102550587Y-92178606D01*
G37*
G36*
X98050587Y-92178606D02*
G01*
X98051000Y-92179824D01*
X98051000Y-93495207D01*
X98050000Y-93496939D01*
X98048000Y-93496939D01*
X98047337Y-93496318D01*
X98026578Y-93465248D01*
X97990670Y-93458105D01*
X97960045Y-93478567D01*
X97952848Y-93495941D01*
X97951261Y-93497159D01*
X97949413Y-93496394D01*
X97949000Y-93495176D01*
X97949000Y-92179793D01*
X97950000Y-92178061D01*
X97952000Y-92178061D01*
X97952663Y-92178682D01*
X97973422Y-92209752D01*
X98009330Y-92216895D01*
X98039955Y-92196433D01*
X98047152Y-92179059D01*
X98048739Y-92177841D01*
X98050587Y-92178606D01*
G37*
G36*
X99550587Y-92178606D02*
G01*
X99551000Y-92179824D01*
X99551000Y-93495207D01*
X99550000Y-93496939D01*
X99548000Y-93496939D01*
X99547337Y-93496318D01*
X99526578Y-93465248D01*
X99490670Y-93458105D01*
X99460045Y-93478567D01*
X99452848Y-93495941D01*
X99451261Y-93497159D01*
X99449413Y-93496394D01*
X99449000Y-93495176D01*
X99449000Y-92179793D01*
X99450000Y-92178061D01*
X99452000Y-92178061D01*
X99452663Y-92178682D01*
X99473422Y-92209752D01*
X99509330Y-92216895D01*
X99539955Y-92196433D01*
X99547152Y-92179059D01*
X99548739Y-92177841D01*
X99550587Y-92178606D01*
G37*
G36*
X100550587Y-92178606D02*
G01*
X100551000Y-92179824D01*
X100551000Y-93495207D01*
X100550000Y-93496939D01*
X100548000Y-93496939D01*
X100547337Y-93496318D01*
X100526578Y-93465248D01*
X100490670Y-93458105D01*
X100460045Y-93478567D01*
X100452848Y-93495941D01*
X100451261Y-93497159D01*
X100449413Y-93496394D01*
X100449000Y-93495176D01*
X100449000Y-92179793D01*
X100450000Y-92178061D01*
X100452000Y-92178061D01*
X100452663Y-92178682D01*
X100473422Y-92209752D01*
X100509330Y-92216895D01*
X100539955Y-92196433D01*
X100547152Y-92179059D01*
X100548739Y-92177841D01*
X100550587Y-92178606D01*
G37*
G36*
X101550587Y-92178606D02*
G01*
X101551000Y-92179824D01*
X101551000Y-93495207D01*
X101550000Y-93496939D01*
X101548000Y-93496939D01*
X101547337Y-93496318D01*
X101526578Y-93465248D01*
X101490670Y-93458105D01*
X101460045Y-93478567D01*
X101452848Y-93495941D01*
X101451261Y-93497159D01*
X101449413Y-93496394D01*
X101449000Y-93495176D01*
X101449000Y-92179793D01*
X101450000Y-92178061D01*
X101452000Y-92178061D01*
X101452663Y-92178682D01*
X101473422Y-92209752D01*
X101509330Y-92216895D01*
X101539955Y-92196433D01*
X101547152Y-92179059D01*
X101548739Y-92177841D01*
X101550587Y-92178606D01*
G37*
G36*
X99050587Y-92178606D02*
G01*
X99051000Y-92179824D01*
X99051000Y-93495207D01*
X99050000Y-93496939D01*
X99048000Y-93496939D01*
X99047337Y-93496318D01*
X99026578Y-93465248D01*
X98990670Y-93458105D01*
X98960045Y-93478567D01*
X98952848Y-93495941D01*
X98951261Y-93497159D01*
X98949413Y-93496394D01*
X98949000Y-93495176D01*
X98949000Y-92179793D01*
X98950000Y-92178061D01*
X98952000Y-92178061D01*
X98952663Y-92178682D01*
X98973422Y-92209752D01*
X99009330Y-92216895D01*
X99039955Y-92196433D01*
X99047152Y-92179059D01*
X99048739Y-92177841D01*
X99050587Y-92178606D01*
G37*
G36*
X97550587Y-92178606D02*
G01*
X97551000Y-92179824D01*
X97551000Y-93495207D01*
X97550000Y-93496939D01*
X97548000Y-93496939D01*
X97547337Y-93496318D01*
X97526578Y-93465248D01*
X97490670Y-93458105D01*
X97460045Y-93478567D01*
X97452848Y-93495941D01*
X97451261Y-93497159D01*
X97449413Y-93496394D01*
X97449000Y-93495176D01*
X97449000Y-92179793D01*
X97450000Y-92178061D01*
X97452000Y-92178061D01*
X97452663Y-92178682D01*
X97473422Y-92209752D01*
X97509330Y-92216895D01*
X97539955Y-92196433D01*
X97547152Y-92179059D01*
X97548739Y-92177841D01*
X97550587Y-92178606D01*
G37*
M02*
