%TF.GenerationSoftware,KiCad,Pcbnew,(6.0.0)*%
%TF.CreationDate,2022-02-06T18:29:28+08:00*%
%TF.ProjectId,STM32_FOC,53544d33-325f-4464-9f43-2e6b69636164,rev?*%
%TF.SameCoordinates,Original*%
%TF.FileFunction,Copper,L2,Inr*%
%TF.FilePolarity,Positive*%
%FSLAX46Y46*%
G04 Gerber Fmt 4.6, Leading zero omitted, Abs format (unit mm)*
G04 Created by KiCad (PCBNEW (6.0.0)) date 2022-02-06 18:29:28*
%MOMM*%
%LPD*%
G01*
G04 APERTURE LIST*
G04 Aperture macros list*
%AMRoundRect*
0 Rectangle with rounded corners*
0 $1 Rounding radius*
0 $2 $3 $4 $5 $6 $7 $8 $9 X,Y pos of 4 corners*
0 Add a 4 corners polygon primitive as box body*
4,1,4,$2,$3,$4,$5,$6,$7,$8,$9,$2,$3,0*
0 Add four circle primitives for the rounded corners*
1,1,$1+$1,$2,$3*
1,1,$1+$1,$4,$5*
1,1,$1+$1,$6,$7*
1,1,$1+$1,$8,$9*
0 Add four rect primitives between the rounded corners*
20,1,$1+$1,$2,$3,$4,$5,0*
20,1,$1+$1,$4,$5,$6,$7,0*
20,1,$1+$1,$6,$7,$8,$9,0*
20,1,$1+$1,$8,$9,$2,$3,0*%
%AMHorizOval*
0 Thick line with rounded ends*
0 $1 width*
0 $2 $3 position (X,Y) of the first rounded end (center of the circle)*
0 $4 $5 position (X,Y) of the second rounded end (center of the circle)*
0 Add line between two ends*
20,1,$1,$2,$3,$4,$5,0*
0 Add two circle primitives to create the rounded ends*
1,1,$1,$2,$3*
1,1,$1,$4,$5*%
G04 Aperture macros list end*
%TA.AperFunction,ComponentPad*%
%ADD10C,0.500000*%
%TD*%
%TA.AperFunction,ComponentPad*%
%ADD11RoundRect,0.200000X0.382903X-0.309654X0.486430X0.076717X-0.382903X0.309654X-0.486430X-0.076717X0*%
%TD*%
%TA.AperFunction,ComponentPad*%
%ADD12HorizOval,0.800000X-0.241481X0.064705X0.241481X-0.064705X0*%
%TD*%
%TA.AperFunction,ComponentPad*%
%ADD13RoundRect,0.200000X0.200000X0.450000X-0.200000X0.450000X-0.200000X-0.450000X0.200000X-0.450000X0*%
%TD*%
%TA.AperFunction,ComponentPad*%
%ADD14O,0.800000X1.300000*%
%TD*%
%TA.AperFunction,ViaPad*%
%ADD15C,0.500000*%
%TD*%
G04 APERTURE END LIST*
D10*
%TO.N,GND*%
%TO.C,U4*%
X100000000Y-107117500D03*
X98700000Y-107117500D03*
X101300000Y-107117500D03*
X98700000Y-106117500D03*
X98700000Y-108117500D03*
X100000000Y-108117500D03*
X100000000Y-106117500D03*
X101300000Y-108117500D03*
X101300000Y-106117500D03*
%TD*%
D11*
%TO.N,+12V*%
%TO.C,J3*%
X87882381Y-101237036D03*
D12*
%TO.N,GND*%
X88205905Y-100029629D03*
%TO.N,SWDIO*%
X88529429Y-98822221D03*
%TO.N,SWCLK*%
X88852952Y-97614814D03*
%TO.N,USART2_TX*%
X89176476Y-96407407D03*
%TO.N,USART2_RX*%
X89500000Y-95200000D03*
%TO.N,Button*%
X89823524Y-93992592D03*
%TO.N,+3V3*%
X90147048Y-92785185D03*
%TD*%
D13*
%TO.N,W*%
%TO.C,J1*%
X101250000Y-112350000D03*
D14*
%TO.N,V*%
X100000000Y-112350000D03*
%TO.N,U*%
X98750000Y-112350000D03*
%TD*%
D15*
%TO.N,GND*%
X95500000Y-113500000D03*
X91700000Y-102400000D03*
X109400000Y-100890000D03*
X92600000Y-93300000D03*
X105800000Y-95760000D03*
X91700000Y-99100000D03*
X98600000Y-87050000D03*
X105500000Y-101600000D03*
X95150000Y-104300000D03*
X91600000Y-96600000D03*
X109200000Y-100110000D03*
X102037500Y-98537500D03*
X97800000Y-90200000D03*
X101740000Y-103120000D03*
X104200000Y-90700000D03*
X94600000Y-91900000D03*
%TO.N,+3V3*%
X103720000Y-100830000D03*
X94680000Y-92880000D03*
X108610000Y-98280000D03*
X91700000Y-100200000D03*
X108900000Y-99160000D03*
X104970000Y-93390000D03*
%TO.N,USART2_RX*%
X97250000Y-102500000D03*
%TO.N,SWCLK*%
X102475000Y-94250000D03*
%TO.N,SWDIO*%
X102575000Y-95175000D03*
%TO.N,PWMC*%
X106780000Y-100330000D03*
X105580000Y-96750000D03*
%TO.N,EN1*%
X95000000Y-100550000D03*
X98370000Y-102550000D03*
%TO.N,CS*%
X98250000Y-97800000D03*
%TO.N,SCK*%
X102850000Y-99375000D03*
%TO.N,MISO*%
X100250000Y-97550000D03*
%TO.N,MOSI*%
X101350000Y-97700000D03*
%TO.N,Button*%
X99750000Y-102500000D03*
%TD*%
%TA.AperFunction,Conductor*%
%TO.N,GND*%
G36*
X100755167Y-85527775D02*
G01*
X100761720Y-85528118D01*
X101420004Y-85579926D01*
X101511547Y-85587131D01*
X101518109Y-85587821D01*
X102263785Y-85685991D01*
X102270283Y-85687021D01*
X103009822Y-85824086D01*
X103016239Y-85825449D01*
X103747626Y-86001039D01*
X103753964Y-86002738D01*
X104475101Y-86216349D01*
X104481375Y-86218387D01*
X105190361Y-86469452D01*
X105196519Y-86471816D01*
X105891380Y-86759637D01*
X105897406Y-86762320D01*
X106576252Y-87086113D01*
X106582130Y-87089108D01*
X106829815Y-87223590D01*
X107243116Y-87447994D01*
X107248787Y-87451268D01*
X107669740Y-87709228D01*
X107890102Y-87844266D01*
X107895634Y-87847859D01*
X108515470Y-88273861D01*
X108520795Y-88277730D01*
X109117506Y-88735603D01*
X109122629Y-88739752D01*
X109212631Y-88816621D01*
X109694524Y-89228196D01*
X109699427Y-89232610D01*
X110093059Y-89606153D01*
X110238308Y-89743989D01*
X110244998Y-89750338D01*
X110249662Y-89755002D01*
X110767390Y-90300573D01*
X110771804Y-90305476D01*
X111260246Y-90877368D01*
X111264397Y-90882494D01*
X111722270Y-91479205D01*
X111726139Y-91484530D01*
X111964584Y-91831469D01*
X112152141Y-92104366D01*
X112155734Y-92109898D01*
X112171750Y-92136034D01*
X112548732Y-92751213D01*
X112552006Y-92756884D01*
X112719625Y-93065600D01*
X112910892Y-93417870D01*
X112913887Y-93423748D01*
X113237680Y-94102594D01*
X113240363Y-94108620D01*
X113528184Y-94803481D01*
X113530548Y-94809639D01*
X113665106Y-95189620D01*
X113770940Y-95488484D01*
X113781613Y-95518625D01*
X113783650Y-95524895D01*
X113994195Y-96235681D01*
X113997257Y-96246019D01*
X113998961Y-96252374D01*
X114171162Y-96969643D01*
X114174547Y-96983743D01*
X114175914Y-96990178D01*
X114311422Y-97721313D01*
X114312978Y-97729708D01*
X114314009Y-97736215D01*
X114373062Y-98184768D01*
X114412179Y-98481893D01*
X114412869Y-98488453D01*
X114470458Y-99220177D01*
X114471881Y-99238263D01*
X114472225Y-99244833D01*
X114491914Y-99996702D01*
X114491914Y-100003284D01*
X114472455Y-100746414D01*
X114472226Y-100755149D01*
X114471882Y-100761720D01*
X114420620Y-101413064D01*
X114412869Y-101511547D01*
X114412179Y-101518107D01*
X114402386Y-101592494D01*
X114315649Y-102251330D01*
X114314010Y-102263776D01*
X114312979Y-102270283D01*
X114178570Y-102995498D01*
X114175918Y-103009805D01*
X114174551Y-103016239D01*
X113998965Y-103747609D01*
X113997262Y-103753964D01*
X113906169Y-104061488D01*
X113783651Y-104475101D01*
X113781614Y-104481371D01*
X113714964Y-104669586D01*
X113530548Y-105190361D01*
X113528184Y-105196519D01*
X113240363Y-105891380D01*
X113237680Y-105897406D01*
X112913887Y-106576252D01*
X112910892Y-106582130D01*
X112805577Y-106776097D01*
X112552006Y-107243116D01*
X112548732Y-107248787D01*
X112214367Y-107794421D01*
X112155734Y-107890102D01*
X112152141Y-107895634D01*
X111726148Y-108515458D01*
X111722270Y-108520795D01*
X111264397Y-109117506D01*
X111260246Y-109122632D01*
X110771804Y-109694524D01*
X110767390Y-109699427D01*
X110249662Y-110244998D01*
X110244998Y-110249662D01*
X109699427Y-110767390D01*
X109694524Y-110771804D01*
X109122632Y-111260246D01*
X109117506Y-111264397D01*
X108520795Y-111722270D01*
X108515470Y-111726139D01*
X108051227Y-112045205D01*
X107895634Y-112152141D01*
X107890102Y-112155734D01*
X107248787Y-112548732D01*
X107243116Y-112552006D01*
X107061013Y-112650880D01*
X106582130Y-112910892D01*
X106576252Y-112913887D01*
X105897406Y-113237680D01*
X105891380Y-113240363D01*
X105196519Y-113528184D01*
X105190361Y-113530548D01*
X104481375Y-113781613D01*
X104475105Y-113783650D01*
X103753964Y-113997262D01*
X103747626Y-113998961D01*
X103016239Y-114174551D01*
X103009822Y-114175914D01*
X102270283Y-114312979D01*
X102263785Y-114314009D01*
X101645085Y-114395462D01*
X101518107Y-114412179D01*
X101511547Y-114412869D01*
X101420004Y-114420074D01*
X100761720Y-114471882D01*
X100755167Y-114472225D01*
X100003284Y-114491914D01*
X99996716Y-114491914D01*
X99244833Y-114472225D01*
X99238280Y-114471882D01*
X98579996Y-114420074D01*
X98488453Y-114412869D01*
X98481893Y-114412179D01*
X98354915Y-114395462D01*
X97736215Y-114314009D01*
X97729717Y-114312979D01*
X96990178Y-114175914D01*
X96983761Y-114174551D01*
X96252374Y-113998961D01*
X96246036Y-113997262D01*
X95524895Y-113783650D01*
X95518625Y-113781613D01*
X94809639Y-113530548D01*
X94803481Y-113528184D01*
X94108620Y-113240363D01*
X94102594Y-113237680D01*
X93423748Y-112913887D01*
X93417870Y-112910892D01*
X92938987Y-112650880D01*
X92932964Y-112647610D01*
X97841500Y-112647610D01*
X97856458Y-112789928D01*
X97915473Y-112971556D01*
X98010960Y-113136944D01*
X98015378Y-113141851D01*
X98015379Y-113141852D01*
X98125000Y-113263598D01*
X98138747Y-113278866D01*
X98187635Y-113314385D01*
X98258093Y-113365576D01*
X98293248Y-113391118D01*
X98299276Y-113393802D01*
X98299278Y-113393803D01*
X98431663Y-113452744D01*
X98467712Y-113468794D01*
X98561113Y-113488647D01*
X98648056Y-113507128D01*
X98648061Y-113507128D01*
X98654513Y-113508500D01*
X98845487Y-113508500D01*
X98851939Y-113507128D01*
X98851944Y-113507128D01*
X98938887Y-113488647D01*
X99032288Y-113468794D01*
X99068337Y-113452744D01*
X99200722Y-113393803D01*
X99200724Y-113393802D01*
X99206752Y-113391118D01*
X99241908Y-113365576D01*
X99300939Y-113322687D01*
X99367807Y-113298828D01*
X99436958Y-113314909D01*
X99449061Y-113322687D01*
X99508093Y-113365576D01*
X99543248Y-113391118D01*
X99549276Y-113393802D01*
X99549278Y-113393803D01*
X99681663Y-113452744D01*
X99717712Y-113468794D01*
X99811113Y-113488647D01*
X99898056Y-113507128D01*
X99898061Y-113507128D01*
X99904513Y-113508500D01*
X100095487Y-113508500D01*
X100101939Y-113507128D01*
X100101944Y-113507128D01*
X100188887Y-113488647D01*
X100282288Y-113468794D01*
X100318337Y-113452744D01*
X100450722Y-113393803D01*
X100450724Y-113393802D01*
X100456752Y-113391118D01*
X100480650Y-113373755D01*
X100547518Y-113349897D01*
X100619982Y-113367915D01*
X100756301Y-113450472D01*
X100763548Y-113452743D01*
X100763550Y-113452744D01*
X100806198Y-113466109D01*
X100919938Y-113501753D01*
X100993365Y-113508500D01*
X100996263Y-113508500D01*
X101250665Y-113508499D01*
X101506634Y-113508499D01*
X101509492Y-113508236D01*
X101509501Y-113508236D01*
X101545004Y-113504974D01*
X101580062Y-113501753D01*
X101693802Y-113466109D01*
X101736450Y-113452744D01*
X101736452Y-113452743D01*
X101743699Y-113450472D01*
X101890381Y-113361639D01*
X102011639Y-113240381D01*
X102100472Y-113093699D01*
X102151753Y-112930062D01*
X102158500Y-112856635D01*
X102158499Y-111843366D01*
X102151753Y-111769938D01*
X102140719Y-111734729D01*
X102102744Y-111613550D01*
X102102743Y-111613548D01*
X102100472Y-111606301D01*
X102011639Y-111459619D01*
X101890381Y-111338361D01*
X101743699Y-111249528D01*
X101736452Y-111247257D01*
X101736450Y-111247256D01*
X101670164Y-111226483D01*
X101580062Y-111198247D01*
X101506635Y-111191500D01*
X101503737Y-111191500D01*
X101249335Y-111191501D01*
X100993366Y-111191501D01*
X100990508Y-111191764D01*
X100990499Y-111191764D01*
X100954996Y-111195026D01*
X100919938Y-111198247D01*
X100913560Y-111200246D01*
X100913559Y-111200246D01*
X100763550Y-111247256D01*
X100763548Y-111247257D01*
X100756301Y-111249528D01*
X100662729Y-111306197D01*
X100619982Y-111332085D01*
X100551352Y-111350264D01*
X100480650Y-111326245D01*
X100462094Y-111312763D01*
X100462092Y-111312762D01*
X100456752Y-111308882D01*
X100450724Y-111306198D01*
X100450722Y-111306197D01*
X100288319Y-111233891D01*
X100288318Y-111233891D01*
X100282288Y-111231206D01*
X100188888Y-111211353D01*
X100101944Y-111192872D01*
X100101939Y-111192872D01*
X100095487Y-111191500D01*
X99904513Y-111191500D01*
X99898061Y-111192872D01*
X99898056Y-111192872D01*
X99811113Y-111211353D01*
X99717712Y-111231206D01*
X99711682Y-111233891D01*
X99711681Y-111233891D01*
X99549278Y-111306197D01*
X99549276Y-111306198D01*
X99543248Y-111308882D01*
X99537907Y-111312762D01*
X99537906Y-111312763D01*
X99449061Y-111377313D01*
X99382193Y-111401172D01*
X99313042Y-111385091D01*
X99300939Y-111377313D01*
X99212094Y-111312763D01*
X99212093Y-111312762D01*
X99206752Y-111308882D01*
X99200724Y-111306198D01*
X99200722Y-111306197D01*
X99038319Y-111233891D01*
X99038318Y-111233891D01*
X99032288Y-111231206D01*
X98938888Y-111211353D01*
X98851944Y-111192872D01*
X98851939Y-111192872D01*
X98845487Y-111191500D01*
X98654513Y-111191500D01*
X98648061Y-111192872D01*
X98648056Y-111192872D01*
X98561113Y-111211353D01*
X98467712Y-111231206D01*
X98461682Y-111233891D01*
X98461681Y-111233891D01*
X98299278Y-111306197D01*
X98299276Y-111306198D01*
X98293248Y-111308882D01*
X98287907Y-111312762D01*
X98287906Y-111312763D01*
X98252674Y-111338361D01*
X98138747Y-111421134D01*
X98134326Y-111426044D01*
X98134325Y-111426045D01*
X98108936Y-111454243D01*
X98010960Y-111563056D01*
X97981807Y-111613550D01*
X97919038Y-111722270D01*
X97915473Y-111728444D01*
X97856458Y-111910072D01*
X97841500Y-112052390D01*
X97841500Y-112647610D01*
X92932964Y-112647610D01*
X92756884Y-112552006D01*
X92751213Y-112548732D01*
X92109898Y-112155734D01*
X92104366Y-112152141D01*
X91948773Y-112045205D01*
X91484530Y-111726139D01*
X91479205Y-111722270D01*
X90882494Y-111264397D01*
X90877368Y-111260246D01*
X90305476Y-110771804D01*
X90300573Y-110767390D01*
X89755002Y-110249662D01*
X89750338Y-110244998D01*
X89232610Y-109699427D01*
X89228196Y-109694524D01*
X88739754Y-109122632D01*
X88735603Y-109117506D01*
X88277730Y-108520795D01*
X88273852Y-108515458D01*
X87847859Y-107895634D01*
X87844266Y-107890102D01*
X87785633Y-107794421D01*
X87451268Y-107248787D01*
X87447994Y-107243116D01*
X87194423Y-106776097D01*
X87089108Y-106582130D01*
X87086113Y-106576252D01*
X86762320Y-105897406D01*
X86759637Y-105891380D01*
X86471816Y-105196519D01*
X86469452Y-105190361D01*
X86444076Y-105118700D01*
X89606942Y-105118700D01*
X89625565Y-105355333D01*
X89626719Y-105360140D01*
X89626720Y-105360146D01*
X89636881Y-105402469D01*
X89680977Y-105586139D01*
X89682870Y-105590710D01*
X89682871Y-105590712D01*
X89689588Y-105606927D01*
X89771812Y-105805435D01*
X89895835Y-106007821D01*
X90049991Y-106188314D01*
X90053747Y-106191522D01*
X90226722Y-106339257D01*
X90230484Y-106342470D01*
X90432870Y-106466493D01*
X90437440Y-106468386D01*
X90437442Y-106468387D01*
X90647593Y-106555434D01*
X90652166Y-106557328D01*
X90692990Y-106567129D01*
X90878159Y-106611585D01*
X90878165Y-106611586D01*
X90882972Y-106612740D01*
X91119605Y-106631363D01*
X91356238Y-106612740D01*
X91361045Y-106611586D01*
X91361051Y-106611585D01*
X91546220Y-106567129D01*
X91587044Y-106557328D01*
X91591617Y-106555434D01*
X91801768Y-106468387D01*
X91801770Y-106468386D01*
X91806340Y-106466493D01*
X92008726Y-106342470D01*
X92012488Y-106339257D01*
X92185463Y-106191522D01*
X92189219Y-106188314D01*
X92343375Y-106007821D01*
X92467398Y-105805435D01*
X92549623Y-105606927D01*
X92556339Y-105590712D01*
X92556340Y-105590710D01*
X92558233Y-105586139D01*
X92602329Y-105402469D01*
X92612490Y-105360146D01*
X92612491Y-105360140D01*
X92613645Y-105355333D01*
X92631588Y-105127346D01*
X107362743Y-105127346D01*
X107381366Y-105363979D01*
X107382520Y-105368786D01*
X107382521Y-105368792D01*
X107415436Y-105505891D01*
X107436778Y-105594785D01*
X107438671Y-105599356D01*
X107438672Y-105599358D01*
X107445389Y-105615573D01*
X107527613Y-105814081D01*
X107651636Y-106016467D01*
X107805792Y-106196960D01*
X107986285Y-106351116D01*
X108188671Y-106475139D01*
X108193241Y-106477032D01*
X108193243Y-106477033D01*
X108389882Y-106558483D01*
X108407967Y-106565974D01*
X108450778Y-106576252D01*
X108633960Y-106620231D01*
X108633966Y-106620232D01*
X108638773Y-106621386D01*
X108875406Y-106640009D01*
X109112039Y-106621386D01*
X109116846Y-106620232D01*
X109116852Y-106620231D01*
X109300034Y-106576252D01*
X109342845Y-106565974D01*
X109360930Y-106558483D01*
X109557569Y-106477033D01*
X109557571Y-106477032D01*
X109562141Y-106475139D01*
X109764527Y-106351116D01*
X109945020Y-106196960D01*
X110099176Y-106016467D01*
X110223199Y-105814081D01*
X110305424Y-105615573D01*
X110312140Y-105599358D01*
X110312141Y-105599356D01*
X110314034Y-105594785D01*
X110335376Y-105505891D01*
X110368291Y-105368792D01*
X110368292Y-105368786D01*
X110369446Y-105363979D01*
X110388069Y-105127346D01*
X110369446Y-104890713D01*
X110368292Y-104885906D01*
X110368291Y-104885900D01*
X110333504Y-104741006D01*
X110314034Y-104659907D01*
X110240084Y-104481375D01*
X110225093Y-104445183D01*
X110225092Y-104445181D01*
X110223199Y-104440611D01*
X110099176Y-104238225D01*
X109945020Y-104057732D01*
X109864423Y-103988895D01*
X109768289Y-103906789D01*
X109764527Y-103903576D01*
X109562141Y-103779553D01*
X109557571Y-103777660D01*
X109557569Y-103777659D01*
X109347418Y-103690612D01*
X109347416Y-103690611D01*
X109342845Y-103688718D01*
X109261746Y-103669248D01*
X109116852Y-103634461D01*
X109116846Y-103634460D01*
X109112039Y-103633306D01*
X108875406Y-103614683D01*
X108638773Y-103633306D01*
X108633966Y-103634460D01*
X108633960Y-103634461D01*
X108489066Y-103669248D01*
X108407967Y-103688718D01*
X108403396Y-103690611D01*
X108403394Y-103690612D01*
X108193243Y-103777659D01*
X108193241Y-103777660D01*
X108188671Y-103779553D01*
X107986285Y-103903576D01*
X107982523Y-103906789D01*
X107886390Y-103988895D01*
X107805792Y-104057732D01*
X107651636Y-104238225D01*
X107527613Y-104440611D01*
X107525720Y-104445181D01*
X107525719Y-104445183D01*
X107510728Y-104481375D01*
X107436778Y-104659907D01*
X107417308Y-104741006D01*
X107382521Y-104885900D01*
X107382520Y-104885906D01*
X107381366Y-104890713D01*
X107363216Y-105121335D01*
X107362743Y-105127346D01*
X92631588Y-105127346D01*
X92632268Y-105118700D01*
X92613645Y-104882067D01*
X92612491Y-104877260D01*
X92612490Y-104877254D01*
X92564708Y-104678232D01*
X92558233Y-104651261D01*
X92553879Y-104640750D01*
X92469292Y-104436537D01*
X92469291Y-104436535D01*
X92467398Y-104431965D01*
X92343375Y-104229579D01*
X92189219Y-104049086D01*
X92008726Y-103894930D01*
X91806340Y-103770907D01*
X91801770Y-103769014D01*
X91801768Y-103769013D01*
X91591617Y-103681966D01*
X91591615Y-103681965D01*
X91587044Y-103680072D01*
X91505945Y-103660602D01*
X91361051Y-103625815D01*
X91361045Y-103625814D01*
X91356238Y-103624660D01*
X91119605Y-103606037D01*
X90882972Y-103624660D01*
X90878165Y-103625814D01*
X90878159Y-103625815D01*
X90733265Y-103660602D01*
X90652166Y-103680072D01*
X90647595Y-103681965D01*
X90647593Y-103681966D01*
X90437442Y-103769013D01*
X90437440Y-103769014D01*
X90432870Y-103770907D01*
X90230484Y-103894930D01*
X90049991Y-104049086D01*
X89895835Y-104229579D01*
X89771812Y-104431965D01*
X89769919Y-104436535D01*
X89769918Y-104436537D01*
X89685331Y-104640750D01*
X89680977Y-104651261D01*
X89674502Y-104678232D01*
X89626720Y-104877254D01*
X89626719Y-104877260D01*
X89625565Y-104882067D01*
X89607415Y-105112689D01*
X89606942Y-105118700D01*
X86444076Y-105118700D01*
X86285036Y-104669586D01*
X86218386Y-104481371D01*
X86216349Y-104475101D01*
X86093831Y-104061488D01*
X86002738Y-103753964D01*
X86001035Y-103747609D01*
X85825449Y-103016239D01*
X85824082Y-103009805D01*
X85821431Y-102995498D01*
X85727621Y-102489343D01*
X96486775Y-102489343D01*
X96503381Y-102658699D01*
X96557094Y-102820167D01*
X96560741Y-102826189D01*
X96560742Y-102826191D01*
X96604778Y-102898902D01*
X96645246Y-102965723D01*
X96763455Y-103088132D01*
X96769351Y-103091990D01*
X96862792Y-103153136D01*
X96905846Y-103181310D01*
X96912450Y-103183766D01*
X96912452Y-103183767D01*
X96948844Y-103197301D01*
X97065341Y-103240626D01*
X97234015Y-103263132D01*
X97241026Y-103262494D01*
X97241030Y-103262494D01*
X97396462Y-103248348D01*
X97403483Y-103247709D01*
X97410185Y-103245531D01*
X97410187Y-103245531D01*
X97558623Y-103197301D01*
X97558626Y-103197300D01*
X97565322Y-103195124D01*
X97711490Y-103107990D01*
X97712339Y-103109415D01*
X97770625Y-103087233D01*
X97840097Y-103101863D01*
X97871086Y-103125324D01*
X97878557Y-103133061D01*
X97878562Y-103133065D01*
X97883455Y-103138132D01*
X98025846Y-103231310D01*
X98032450Y-103233766D01*
X98032452Y-103233767D01*
X98105594Y-103260968D01*
X98185341Y-103290626D01*
X98354015Y-103313132D01*
X98361026Y-103312494D01*
X98361030Y-103312494D01*
X98516462Y-103298348D01*
X98523483Y-103297709D01*
X98530185Y-103295531D01*
X98530187Y-103295531D01*
X98678623Y-103247301D01*
X98678626Y-103247300D01*
X98685322Y-103245124D01*
X98831490Y-103157990D01*
X98836584Y-103153139D01*
X98836588Y-103153136D01*
X98910174Y-103083060D01*
X98954721Y-103040639D01*
X98975141Y-103009904D01*
X99029496Y-102964237D01*
X99099915Y-102955204D01*
X99164040Y-102985677D01*
X99170723Y-102992107D01*
X99258556Y-103083060D01*
X99258561Y-103083064D01*
X99263455Y-103088132D01*
X99269351Y-103091990D01*
X99362792Y-103153136D01*
X99405846Y-103181310D01*
X99412450Y-103183766D01*
X99412452Y-103183767D01*
X99448844Y-103197301D01*
X99565341Y-103240626D01*
X99734015Y-103263132D01*
X99741026Y-103262494D01*
X99741030Y-103262494D01*
X99896462Y-103248348D01*
X99903483Y-103247709D01*
X99910185Y-103245531D01*
X99910187Y-103245531D01*
X100058623Y-103197301D01*
X100058626Y-103197300D01*
X100065322Y-103195124D01*
X100211490Y-103107990D01*
X100216584Y-103103139D01*
X100216588Y-103103136D01*
X100307819Y-103016257D01*
X100334721Y-102990639D01*
X100352263Y-102964237D01*
X100424990Y-102854773D01*
X100428891Y-102848902D01*
X100489319Y-102689825D01*
X100513001Y-102521313D01*
X100513299Y-102500000D01*
X100494331Y-102330892D01*
X100438368Y-102170189D01*
X100432383Y-102160610D01*
X100368228Y-102057943D01*
X100348192Y-102025879D01*
X100326461Y-102003995D01*
X100233248Y-101910129D01*
X100228286Y-101905132D01*
X100212039Y-101894821D01*
X100161955Y-101863037D01*
X100084608Y-101813951D01*
X99924300Y-101756868D01*
X99755329Y-101736720D01*
X99748326Y-101737456D01*
X99748325Y-101737456D01*
X99593101Y-101753770D01*
X99593097Y-101753771D01*
X99586093Y-101754507D01*
X99579422Y-101756778D01*
X99431673Y-101807075D01*
X99431670Y-101807076D01*
X99425003Y-101809346D01*
X99419005Y-101813036D01*
X99419003Y-101813037D01*
X99286065Y-101894821D01*
X99286063Y-101894823D01*
X99280066Y-101898512D01*
X99275033Y-101903441D01*
X99177722Y-101998736D01*
X99158486Y-102017573D01*
X99148452Y-102033143D01*
X99145697Y-102037417D01*
X99091981Y-102083840D01*
X99021694Y-102093853D01*
X98957151Y-102064277D01*
X98950381Y-102057943D01*
X98885214Y-101992319D01*
X98848286Y-101955132D01*
X98828623Y-101942653D01*
X98763550Y-101901357D01*
X98704608Y-101863951D01*
X98544300Y-101806868D01*
X98375329Y-101786720D01*
X98368326Y-101787456D01*
X98368325Y-101787456D01*
X98213101Y-101803770D01*
X98213097Y-101803771D01*
X98206093Y-101804507D01*
X98192210Y-101809233D01*
X98051673Y-101857075D01*
X98051670Y-101857076D01*
X98045003Y-101859346D01*
X98039005Y-101863036D01*
X98039003Y-101863037D01*
X97905231Y-101945334D01*
X97836730Y-101963992D01*
X97769016Y-101942653D01*
X97749803Y-101926799D01*
X97733258Y-101910138D01*
X97733254Y-101910134D01*
X97728286Y-101905132D01*
X97712039Y-101894821D01*
X97661955Y-101863037D01*
X97584608Y-101813951D01*
X97424300Y-101756868D01*
X97255329Y-101736720D01*
X97248326Y-101737456D01*
X97248325Y-101737456D01*
X97093101Y-101753770D01*
X97093097Y-101753771D01*
X97086093Y-101754507D01*
X97079422Y-101756778D01*
X96931673Y-101807075D01*
X96931670Y-101807076D01*
X96925003Y-101809346D01*
X96919005Y-101813036D01*
X96919003Y-101813037D01*
X96786065Y-101894821D01*
X96786063Y-101894823D01*
X96780066Y-101898512D01*
X96775033Y-101903441D01*
X96677722Y-101998736D01*
X96658486Y-102017573D01*
X96654675Y-102023487D01*
X96654673Y-102023489D01*
X96570121Y-102154687D01*
X96566304Y-102160610D01*
X96508103Y-102320516D01*
X96486775Y-102489343D01*
X85727621Y-102489343D01*
X85687021Y-102270283D01*
X85685990Y-102263776D01*
X85684352Y-102251330D01*
X85597614Y-101592494D01*
X85587821Y-101518107D01*
X85587131Y-101511547D01*
X85579380Y-101413064D01*
X85567157Y-101257756D01*
X86684447Y-101257756D01*
X86684727Y-101264438D01*
X86684727Y-101264439D01*
X86687083Y-101320639D01*
X86691628Y-101429090D01*
X86693747Y-101436383D01*
X86693747Y-101436384D01*
X86737351Y-101586473D01*
X86737353Y-101586477D01*
X86739470Y-101593765D01*
X86825212Y-101742275D01*
X86943905Y-101866045D01*
X86950317Y-101870114D01*
X86950318Y-101870115D01*
X87013370Y-101910129D01*
X87088693Y-101957931D01*
X87094963Y-101960244D01*
X87155177Y-101982459D01*
X87155182Y-101982461D01*
X87157872Y-101983453D01*
X87160638Y-101984194D01*
X87160647Y-101984197D01*
X87989497Y-102206285D01*
X88136615Y-102245705D01*
X88139452Y-102246193D01*
X88139454Y-102246193D01*
X88169346Y-102251330D01*
X88209287Y-102258194D01*
X88215968Y-102257914D01*
X88215969Y-102257914D01*
X88260826Y-102256034D01*
X88380621Y-102251012D01*
X88387913Y-102248893D01*
X88387916Y-102248893D01*
X88538004Y-102205289D01*
X88538008Y-102205287D01*
X88545296Y-102203170D01*
X88693806Y-102117428D01*
X88817577Y-101998736D01*
X88883524Y-101894821D01*
X88905879Y-101859595D01*
X88905880Y-101859593D01*
X88909463Y-101853947D01*
X88934984Y-101784768D01*
X88942683Y-101756034D01*
X89067081Y-101291773D01*
X89067082Y-101291768D01*
X89067827Y-101288988D01*
X89074327Y-101251166D01*
X89079183Y-101222906D01*
X89079183Y-101222902D01*
X89080315Y-101216316D01*
X89073134Y-101044982D01*
X89064065Y-101013767D01*
X89027411Y-100887599D01*
X89027409Y-100887595D01*
X89025292Y-100880307D01*
X88939550Y-100731797D01*
X88820857Y-100608027D01*
X88769167Y-100575223D01*
X88681712Y-100519722D01*
X88681711Y-100519721D01*
X88676069Y-100516141D01*
X88616632Y-100494213D01*
X88609585Y-100491613D01*
X88609580Y-100491611D01*
X88606890Y-100490619D01*
X88604124Y-100489878D01*
X88604115Y-100489875D01*
X87630931Y-100229113D01*
X87630932Y-100229113D01*
X87628147Y-100228367D01*
X87625310Y-100227879D01*
X87625308Y-100227879D01*
X87562062Y-100217010D01*
X87555475Y-100215878D01*
X87548794Y-100216158D01*
X87548793Y-100216158D01*
X87503936Y-100218038D01*
X87384141Y-100223060D01*
X87376849Y-100225179D01*
X87376846Y-100225179D01*
X87226758Y-100268783D01*
X87226754Y-100268785D01*
X87219466Y-100270902D01*
X87070956Y-100356644D01*
X86947185Y-100475336D01*
X86906565Y-100539343D01*
X86859498Y-100613509D01*
X86855299Y-100620125D01*
X86852984Y-100626401D01*
X86831450Y-100684773D01*
X86829778Y-100689304D01*
X86829035Y-100692076D01*
X86829034Y-100692080D01*
X86700357Y-101172314D01*
X86696935Y-101185084D01*
X86696448Y-101187917D01*
X86696446Y-101187927D01*
X86685579Y-101251166D01*
X86684447Y-101257756D01*
X85567157Y-101257756D01*
X85528118Y-100761720D01*
X85527774Y-100755149D01*
X85527546Y-100746414D01*
X85512958Y-100189343D01*
X90936775Y-100189343D01*
X90953381Y-100358699D01*
X90955605Y-100365384D01*
X90955605Y-100365385D01*
X90961413Y-100382845D01*
X91007094Y-100520167D01*
X91010741Y-100526189D01*
X91010742Y-100526191D01*
X91090270Y-100657506D01*
X91095246Y-100665723D01*
X91213455Y-100788132D01*
X91263131Y-100820639D01*
X91338818Y-100870167D01*
X91355846Y-100881310D01*
X91362450Y-100883766D01*
X91362452Y-100883767D01*
X91398844Y-100897301D01*
X91515341Y-100940626D01*
X91684015Y-100963132D01*
X91691026Y-100962494D01*
X91691030Y-100962494D01*
X91846462Y-100948348D01*
X91853483Y-100947709D01*
X91860185Y-100945531D01*
X91860187Y-100945531D01*
X92008623Y-100897301D01*
X92008626Y-100897300D01*
X92015322Y-100895124D01*
X92161490Y-100807990D01*
X92166584Y-100803139D01*
X92166588Y-100803136D01*
X92242589Y-100730761D01*
X92284721Y-100690639D01*
X92378891Y-100548902D01*
X92382522Y-100539343D01*
X94236775Y-100539343D01*
X94253381Y-100708699D01*
X94307094Y-100870167D01*
X94310741Y-100876189D01*
X94310742Y-100876191D01*
X94378880Y-100988699D01*
X94395246Y-101015723D01*
X94513455Y-101138132D01*
X94536384Y-101153136D01*
X94632933Y-101216316D01*
X94655846Y-101231310D01*
X94662450Y-101233766D01*
X94662452Y-101233767D01*
X94698844Y-101247301D01*
X94815341Y-101290626D01*
X94984015Y-101313132D01*
X94991026Y-101312494D01*
X94991030Y-101312494D01*
X95146462Y-101298348D01*
X95153483Y-101297709D01*
X95160185Y-101295531D01*
X95160187Y-101295531D01*
X95308623Y-101247301D01*
X95308626Y-101247300D01*
X95315322Y-101245124D01*
X95461490Y-101157990D01*
X95466584Y-101153139D01*
X95466588Y-101153136D01*
X95533833Y-101089099D01*
X95584721Y-101040639D01*
X95603188Y-101012845D01*
X95636217Y-100963132D01*
X95678891Y-100898902D01*
X95739319Y-100739825D01*
X95763001Y-100571313D01*
X95763118Y-100562964D01*
X95763244Y-100553961D01*
X95763244Y-100553955D01*
X95763299Y-100550000D01*
X95744331Y-100380892D01*
X95734031Y-100351313D01*
X95692257Y-100231357D01*
X95688368Y-100220189D01*
X95682383Y-100210610D01*
X95643090Y-100147730D01*
X95598192Y-100075879D01*
X95478286Y-99955132D01*
X95462039Y-99944821D01*
X95354927Y-99876846D01*
X95334608Y-99863951D01*
X95174300Y-99806868D01*
X95005329Y-99786720D01*
X94998326Y-99787456D01*
X94998325Y-99787456D01*
X94843101Y-99803770D01*
X94843097Y-99803771D01*
X94836093Y-99804507D01*
X94829422Y-99806778D01*
X94681673Y-99857075D01*
X94681670Y-99857076D01*
X94675003Y-99859346D01*
X94669005Y-99863036D01*
X94669003Y-99863037D01*
X94536065Y-99944821D01*
X94536063Y-99944823D01*
X94530066Y-99948512D01*
X94408486Y-100067573D01*
X94404675Y-100073487D01*
X94404673Y-100073489D01*
X94325491Y-100196355D01*
X94316304Y-100210610D01*
X94308753Y-100231357D01*
X94261239Y-100361901D01*
X94258103Y-100370516D01*
X94236775Y-100539343D01*
X92382522Y-100539343D01*
X92439319Y-100389825D01*
X92463001Y-100221313D01*
X92463151Y-100210610D01*
X92463244Y-100203961D01*
X92463244Y-100203955D01*
X92463299Y-100200000D01*
X92444331Y-100030892D01*
X92388368Y-99870189D01*
X92382383Y-99860610D01*
X92336210Y-99786720D01*
X92298192Y-99725879D01*
X92261058Y-99688484D01*
X92212262Y-99639346D01*
X92178286Y-99605132D01*
X92162039Y-99594821D01*
X92070971Y-99537028D01*
X92034608Y-99513951D01*
X91874300Y-99456868D01*
X91705329Y-99436720D01*
X91698326Y-99437456D01*
X91698325Y-99437456D01*
X91543101Y-99453770D01*
X91543097Y-99453771D01*
X91536093Y-99454507D01*
X91529422Y-99456778D01*
X91381673Y-99507075D01*
X91381670Y-99507076D01*
X91375003Y-99509346D01*
X91369005Y-99513036D01*
X91369003Y-99513037D01*
X91236065Y-99594821D01*
X91236063Y-99594823D01*
X91230066Y-99598512D01*
X91202279Y-99625723D01*
X91125215Y-99701191D01*
X91108486Y-99717573D01*
X91104675Y-99723487D01*
X91104673Y-99723489D01*
X91022163Y-99851518D01*
X91016304Y-99860610D01*
X91001400Y-99901558D01*
X90967677Y-99994213D01*
X90958103Y-100020516D01*
X90936775Y-100189343D01*
X85512958Y-100189343D01*
X85508086Y-100003284D01*
X85508086Y-99996702D01*
X85527775Y-99244833D01*
X85528119Y-99238263D01*
X85529543Y-99220177D01*
X85562193Y-98805324D01*
X87375696Y-98805324D01*
X87405570Y-98993947D01*
X87407936Y-99000111D01*
X87407937Y-99000114D01*
X87470833Y-99163961D01*
X87474009Y-99172236D01*
X87578021Y-99332401D01*
X87713060Y-99467441D01*
X87873225Y-99571454D01*
X87879394Y-99573822D01*
X87943714Y-99598512D01*
X88006822Y-99622737D01*
X88581759Y-99776792D01*
X88680011Y-99792354D01*
X88716582Y-99798146D01*
X88716584Y-99798146D01*
X88723099Y-99799178D01*
X88729686Y-99798833D01*
X88729691Y-99798833D01*
X88907218Y-99789529D01*
X88907221Y-99789528D01*
X88913813Y-99789183D01*
X88920185Y-99787476D01*
X88920189Y-99787475D01*
X89091905Y-99741464D01*
X89091906Y-99741464D01*
X89098279Y-99739756D01*
X89268439Y-99653055D01*
X89354000Y-99583770D01*
X89411722Y-99537028D01*
X89411723Y-99537027D01*
X89416854Y-99532872D01*
X89452080Y-99489372D01*
X89532882Y-99389590D01*
X89532885Y-99389586D01*
X89537038Y-99384457D01*
X89547287Y-99364343D01*
X102086775Y-99364343D01*
X102103381Y-99533699D01*
X102105605Y-99540384D01*
X102105605Y-99540385D01*
X102114610Y-99567456D01*
X102157094Y-99695167D01*
X102160741Y-99701189D01*
X102160742Y-99701191D01*
X102224743Y-99806868D01*
X102245246Y-99840723D01*
X102363455Y-99963132D01*
X102505846Y-100056310D01*
X102512450Y-100058766D01*
X102512452Y-100058767D01*
X102558465Y-100075879D01*
X102665341Y-100115626D01*
X102834015Y-100138132D01*
X102841026Y-100137494D01*
X102841030Y-100137494D01*
X102996462Y-100123348D01*
X103003483Y-100122709D01*
X103023291Y-100116273D01*
X103094259Y-100114247D01*
X103155056Y-100150910D01*
X103186380Y-100214623D01*
X103178286Y-100285157D01*
X103150383Y-100326130D01*
X103128486Y-100347573D01*
X103124675Y-100353487D01*
X103124673Y-100353489D01*
X103042012Y-100481753D01*
X103036304Y-100490610D01*
X102978103Y-100650516D01*
X102956775Y-100819343D01*
X102973381Y-100988699D01*
X103027094Y-101150167D01*
X103030741Y-101156189D01*
X103030742Y-101156191D01*
X103096300Y-101264439D01*
X103115246Y-101295723D01*
X103233455Y-101418132D01*
X103375846Y-101511310D01*
X103382450Y-101513766D01*
X103382452Y-101513767D01*
X103418844Y-101527301D01*
X103535341Y-101570626D01*
X103704015Y-101593132D01*
X103711026Y-101592494D01*
X103711030Y-101592494D01*
X103866462Y-101578348D01*
X103873483Y-101577709D01*
X103880185Y-101575531D01*
X103880187Y-101575531D01*
X104028623Y-101527301D01*
X104028626Y-101527300D01*
X104035322Y-101525124D01*
X104181490Y-101437990D01*
X104186584Y-101433139D01*
X104186588Y-101433136D01*
X104253833Y-101369099D01*
X104304721Y-101320639D01*
X104324043Y-101291558D01*
X104378473Y-101209633D01*
X104398891Y-101178902D01*
X104459319Y-101019825D01*
X104483001Y-100851313D01*
X104483299Y-100830000D01*
X104464331Y-100660892D01*
X104408368Y-100500189D01*
X104402383Y-100490610D01*
X104339404Y-100389825D01*
X104318192Y-100355879D01*
X104281911Y-100319343D01*
X106016775Y-100319343D01*
X106033381Y-100488699D01*
X106035605Y-100495384D01*
X106035605Y-100495385D01*
X106053408Y-100548902D01*
X106087094Y-100650167D01*
X106090741Y-100656189D01*
X106090742Y-100656191D01*
X106170649Y-100788132D01*
X106175246Y-100795723D01*
X106293455Y-100918132D01*
X106435846Y-101011310D01*
X106442450Y-101013766D01*
X106442452Y-101013767D01*
X106476459Y-101026414D01*
X106595341Y-101070626D01*
X106764015Y-101093132D01*
X106771026Y-101092494D01*
X106771030Y-101092494D01*
X106926462Y-101078348D01*
X106933483Y-101077709D01*
X106940185Y-101075531D01*
X106940187Y-101075531D01*
X107088623Y-101027301D01*
X107088626Y-101027300D01*
X107095322Y-101025124D01*
X107241490Y-100937990D01*
X107246584Y-100933139D01*
X107246588Y-100933136D01*
X107350731Y-100833961D01*
X107364721Y-100820639D01*
X107370731Y-100811594D01*
X107423051Y-100732845D01*
X107458891Y-100678902D01*
X107519319Y-100519825D01*
X107543001Y-100351313D01*
X107543299Y-100330000D01*
X107524331Y-100160892D01*
X107519748Y-100147730D01*
X107488767Y-100058767D01*
X107468368Y-100000189D01*
X107462383Y-99990610D01*
X107417760Y-99919200D01*
X107378192Y-99855879D01*
X107366165Y-99843767D01*
X107286095Y-99763136D01*
X107258286Y-99735132D01*
X107242039Y-99724821D01*
X107195311Y-99695167D01*
X107114608Y-99643951D01*
X106954300Y-99586868D01*
X106785329Y-99566720D01*
X106778326Y-99567456D01*
X106778325Y-99567456D01*
X106623101Y-99583770D01*
X106623097Y-99583771D01*
X106616093Y-99584507D01*
X106609422Y-99586778D01*
X106461673Y-99637075D01*
X106461670Y-99637076D01*
X106455003Y-99639346D01*
X106449005Y-99643036D01*
X106449003Y-99643037D01*
X106316065Y-99724821D01*
X106316063Y-99724823D01*
X106310066Y-99728512D01*
X106249875Y-99787456D01*
X106194882Y-99841310D01*
X106188486Y-99847573D01*
X106184675Y-99853487D01*
X106184673Y-99853489D01*
X106111526Y-99966990D01*
X106096304Y-99990610D01*
X106082875Y-100027506D01*
X106042169Y-100139346D01*
X106038103Y-100150516D01*
X106016775Y-100319343D01*
X104281911Y-100319343D01*
X104203248Y-100240129D01*
X104198286Y-100235132D01*
X104186858Y-100227879D01*
X104092331Y-100167891D01*
X104054608Y-100143951D01*
X103894300Y-100086868D01*
X103725329Y-100066720D01*
X103718326Y-100067456D01*
X103718325Y-100067456D01*
X103563101Y-100083770D01*
X103563097Y-100083771D01*
X103556093Y-100084507D01*
X103549423Y-100086778D01*
X103542545Y-100088290D01*
X103542113Y-100086325D01*
X103481054Y-100088921D01*
X103419751Y-100053110D01*
X103387541Y-99989840D01*
X103394650Y-99919200D01*
X103424492Y-99875381D01*
X103429614Y-99870503D01*
X103429617Y-99870500D01*
X103434721Y-99865639D01*
X103442794Y-99853489D01*
X103510229Y-99751990D01*
X103528891Y-99723902D01*
X103589319Y-99564825D01*
X103613001Y-99396313D01*
X103613299Y-99375000D01*
X103594331Y-99205892D01*
X103538368Y-99045189D01*
X103532756Y-99036207D01*
X103497955Y-98980516D01*
X103448192Y-98900879D01*
X103328286Y-98780132D01*
X103312039Y-98769821D01*
X103264575Y-98739700D01*
X103184608Y-98688951D01*
X103024300Y-98631868D01*
X102855329Y-98611720D01*
X102848326Y-98612456D01*
X102848325Y-98612456D01*
X102693101Y-98628770D01*
X102693097Y-98628771D01*
X102686093Y-98629507D01*
X102679422Y-98631778D01*
X102531673Y-98682075D01*
X102531670Y-98682076D01*
X102525003Y-98684346D01*
X102519005Y-98688036D01*
X102519003Y-98688037D01*
X102386065Y-98769821D01*
X102386063Y-98769823D01*
X102380066Y-98773512D01*
X102347581Y-98805324D01*
X102281679Y-98869861D01*
X102258486Y-98892573D01*
X102254675Y-98898487D01*
X102254673Y-98898489D01*
X102170121Y-99029687D01*
X102166304Y-99035610D01*
X102163894Y-99042232D01*
X102114561Y-99177774D01*
X102108103Y-99195516D01*
X102086775Y-99364343D01*
X89547287Y-99364343D01*
X89623739Y-99214298D01*
X89635010Y-99172236D01*
X89671459Y-99036207D01*
X89671460Y-99036203D01*
X89673167Y-99029831D01*
X89673513Y-99023236D01*
X89682817Y-98845710D01*
X89682817Y-98845705D01*
X89683162Y-98839118D01*
X89653288Y-98650495D01*
X89645232Y-98629507D01*
X89614077Y-98548348D01*
X89611565Y-98541804D01*
X89605826Y-98471041D01*
X89639256Y-98408407D01*
X89649897Y-98398734D01*
X89740377Y-98325465D01*
X89785824Y-98269343D01*
X89856405Y-98182183D01*
X89856408Y-98182179D01*
X89860561Y-98177050D01*
X89947262Y-98006891D01*
X89962053Y-97951690D01*
X89994982Y-97828800D01*
X89994983Y-97828796D01*
X89996690Y-97822424D01*
X89997658Y-97803961D01*
X89998424Y-97789343D01*
X97486775Y-97789343D01*
X97503381Y-97958699D01*
X97557094Y-98120167D01*
X97560741Y-98126189D01*
X97560742Y-98126191D01*
X97632771Y-98245124D01*
X97645246Y-98265723D01*
X97763455Y-98388132D01*
X97799309Y-98411594D01*
X97845099Y-98441558D01*
X97905846Y-98481310D01*
X97912450Y-98483766D01*
X97912452Y-98483767D01*
X97948844Y-98497301D01*
X98065341Y-98540626D01*
X98234015Y-98563132D01*
X98241026Y-98562494D01*
X98241030Y-98562494D01*
X98396462Y-98548348D01*
X98403483Y-98547709D01*
X98410185Y-98545531D01*
X98410187Y-98545531D01*
X98558623Y-98497301D01*
X98558626Y-98497300D01*
X98565322Y-98495124D01*
X98711490Y-98407990D01*
X98716584Y-98403139D01*
X98716588Y-98403136D01*
X98811771Y-98312494D01*
X98834721Y-98290639D01*
X98839757Y-98283060D01*
X98901161Y-98190639D01*
X98928891Y-98148902D01*
X98989319Y-97989825D01*
X99013001Y-97821313D01*
X99013299Y-97800000D01*
X98994331Y-97630892D01*
X98981149Y-97593037D01*
X98962450Y-97539343D01*
X99486775Y-97539343D01*
X99503381Y-97708699D01*
X99557094Y-97870167D01*
X99560741Y-97876189D01*
X99560742Y-97876191D01*
X99630508Y-97991387D01*
X99645246Y-98015723D01*
X99763455Y-98138132D01*
X99813939Y-98171168D01*
X99888384Y-98219883D01*
X99905846Y-98231310D01*
X99912450Y-98233766D01*
X99912452Y-98233767D01*
X99948844Y-98247301D01*
X100065341Y-98290626D01*
X100234015Y-98313132D01*
X100241026Y-98312494D01*
X100241030Y-98312494D01*
X100396462Y-98298348D01*
X100403483Y-98297709D01*
X100410185Y-98295531D01*
X100410187Y-98295531D01*
X100558623Y-98247301D01*
X100558626Y-98247300D01*
X100565322Y-98245124D01*
X100571373Y-98241517D01*
X100571375Y-98241516D01*
X100642393Y-98199181D01*
X100711147Y-98181481D01*
X100778557Y-98203763D01*
X100797546Y-98219883D01*
X100858556Y-98283060D01*
X100858561Y-98283064D01*
X100863455Y-98288132D01*
X101005846Y-98381310D01*
X101012450Y-98383766D01*
X101012452Y-98383767D01*
X101048844Y-98397301D01*
X101165341Y-98440626D01*
X101334015Y-98463132D01*
X101341026Y-98462494D01*
X101341030Y-98462494D01*
X101496462Y-98448348D01*
X101503483Y-98447709D01*
X101510185Y-98445531D01*
X101510187Y-98445531D01*
X101658623Y-98397301D01*
X101658626Y-98397300D01*
X101665322Y-98395124D01*
X101811490Y-98307990D01*
X101816584Y-98303139D01*
X101816588Y-98303136D01*
X101852074Y-98269343D01*
X107846775Y-98269343D01*
X107863381Y-98438699D01*
X107865605Y-98445384D01*
X107865605Y-98445385D01*
X107873735Y-98469825D01*
X107917094Y-98600167D01*
X107920741Y-98606189D01*
X107920742Y-98606191D01*
X107972622Y-98691854D01*
X108005246Y-98745723D01*
X108095437Y-98839118D01*
X108123455Y-98868132D01*
X108121664Y-98869861D01*
X108154930Y-98919106D01*
X108157109Y-98980390D01*
X108158103Y-98980516D01*
X108136775Y-99149343D01*
X108153381Y-99318699D01*
X108155605Y-99325384D01*
X108155605Y-99325385D01*
X108161413Y-99342845D01*
X108207094Y-99480167D01*
X108210741Y-99486189D01*
X108210742Y-99486191D01*
X108282776Y-99605132D01*
X108295246Y-99625723D01*
X108413455Y-99748132D01*
X108473698Y-99787554D01*
X108503076Y-99806778D01*
X108555846Y-99841310D01*
X108562450Y-99843766D01*
X108562452Y-99843767D01*
X108598844Y-99857301D01*
X108715341Y-99900626D01*
X108884015Y-99923132D01*
X108891026Y-99922494D01*
X108891030Y-99922494D01*
X109046462Y-99908348D01*
X109053483Y-99907709D01*
X109060185Y-99905531D01*
X109060187Y-99905531D01*
X109208623Y-99857301D01*
X109208626Y-99857300D01*
X109215322Y-99855124D01*
X109361490Y-99767990D01*
X109366584Y-99763139D01*
X109366588Y-99763136D01*
X109444980Y-99688484D01*
X109484721Y-99650639D01*
X109521807Y-99594821D01*
X109566377Y-99527737D01*
X109578891Y-99508902D01*
X109639319Y-99349825D01*
X109663001Y-99181313D01*
X109663299Y-99160000D01*
X109644331Y-98990892D01*
X109588368Y-98830189D01*
X109572831Y-98805324D01*
X109560211Y-98785129D01*
X109498192Y-98685879D01*
X109463055Y-98650495D01*
X109425280Y-98612456D01*
X109385249Y-98572144D01*
X109351442Y-98509713D01*
X109349881Y-98465825D01*
X109373001Y-98301313D01*
X109373150Y-98290639D01*
X109373244Y-98283961D01*
X109373244Y-98283955D01*
X109373299Y-98280000D01*
X109354331Y-98110892D01*
X109298368Y-97950189D01*
X109292383Y-97940610D01*
X109244188Y-97863484D01*
X109208192Y-97805879D01*
X109198735Y-97796355D01*
X109135773Y-97732952D01*
X109088286Y-97685132D01*
X109072039Y-97674821D01*
X109004108Y-97631711D01*
X108944608Y-97593951D01*
X108784300Y-97536868D01*
X108615329Y-97516720D01*
X108608326Y-97517456D01*
X108608325Y-97517456D01*
X108453101Y-97533770D01*
X108453097Y-97533771D01*
X108446093Y-97534507D01*
X108432210Y-97539233D01*
X108291673Y-97587075D01*
X108291670Y-97587076D01*
X108285003Y-97589346D01*
X108279005Y-97593036D01*
X108279003Y-97593037D01*
X108146065Y-97674821D01*
X108146063Y-97674823D01*
X108140066Y-97678512D01*
X108018486Y-97797573D01*
X108014675Y-97803487D01*
X108014673Y-97803489D01*
X107930121Y-97934687D01*
X107926304Y-97940610D01*
X107868103Y-98100516D01*
X107846775Y-98269343D01*
X101852074Y-98269343D01*
X101896063Y-98227452D01*
X101934721Y-98190639D01*
X101958551Y-98154773D01*
X101987705Y-98110892D01*
X102028891Y-98048902D01*
X102089319Y-97889825D01*
X102113001Y-97721313D01*
X102113118Y-97712964D01*
X102113244Y-97703961D01*
X102113244Y-97703955D01*
X102113299Y-97700000D01*
X102094331Y-97530892D01*
X102082776Y-97497709D01*
X102063754Y-97443088D01*
X102038368Y-97370189D01*
X102034437Y-97363897D01*
X102002412Y-97312648D01*
X101948192Y-97225879D01*
X101943136Y-97220787D01*
X101840796Y-97117730D01*
X101828286Y-97105132D01*
X101818470Y-97098902D01*
X101748514Y-97054507D01*
X101684608Y-97013951D01*
X101524300Y-96956868D01*
X101355329Y-96936720D01*
X101348326Y-96937456D01*
X101348325Y-96937456D01*
X101193101Y-96953770D01*
X101193097Y-96953771D01*
X101186093Y-96954507D01*
X101179422Y-96956778D01*
X101031673Y-97007075D01*
X101031670Y-97007076D01*
X101025003Y-97009346D01*
X101019004Y-97013036D01*
X101019001Y-97013038D01*
X100980507Y-97036720D01*
X100963647Y-97047093D01*
X100959292Y-97049772D01*
X100890791Y-97068431D01*
X100823077Y-97047093D01*
X100803863Y-97031239D01*
X100733248Y-96960129D01*
X100728286Y-96955132D01*
X100712039Y-96944821D01*
X100610973Y-96880683D01*
X100584608Y-96863951D01*
X100424300Y-96806868D01*
X100255329Y-96786720D01*
X100248326Y-96787456D01*
X100248325Y-96787456D01*
X100093101Y-96803770D01*
X100093097Y-96803771D01*
X100086093Y-96804507D01*
X100079422Y-96806778D01*
X99931673Y-96857075D01*
X99931670Y-96857076D01*
X99925003Y-96859346D01*
X99919005Y-96863036D01*
X99919003Y-96863037D01*
X99786065Y-96944821D01*
X99786063Y-96944823D01*
X99780066Y-96948512D01*
X99709510Y-97017607D01*
X99676664Y-97049772D01*
X99658486Y-97067573D01*
X99654675Y-97073487D01*
X99654673Y-97073489D01*
X99572267Y-97201357D01*
X99566304Y-97210610D01*
X99547005Y-97263634D01*
X99521249Y-97334399D01*
X99508103Y-97370516D01*
X99486775Y-97539343D01*
X98962450Y-97539343D01*
X98960509Y-97533770D01*
X98938368Y-97470189D01*
X98932383Y-97460610D01*
X98895026Y-97400828D01*
X98848192Y-97325879D01*
X98728286Y-97205132D01*
X98712039Y-97194821D01*
X98597628Y-97122214D01*
X98584608Y-97113951D01*
X98424300Y-97056868D01*
X98255329Y-97036720D01*
X98248326Y-97037456D01*
X98248325Y-97037456D01*
X98093101Y-97053770D01*
X98093097Y-97053771D01*
X98086093Y-97054507D01*
X98079422Y-97056778D01*
X97931673Y-97107075D01*
X97931670Y-97107076D01*
X97925003Y-97109346D01*
X97919005Y-97113036D01*
X97919003Y-97113037D01*
X97786065Y-97194821D01*
X97786063Y-97194823D01*
X97780066Y-97198512D01*
X97658486Y-97317573D01*
X97654675Y-97323487D01*
X97654673Y-97323489D01*
X97578608Y-97441518D01*
X97566304Y-97460610D01*
X97540193Y-97532349D01*
X97518105Y-97593037D01*
X97508103Y-97620516D01*
X97486775Y-97789343D01*
X89998424Y-97789343D01*
X90006340Y-97638303D01*
X90006340Y-97638298D01*
X90006685Y-97631711D01*
X90005502Y-97624238D01*
X89988473Y-97516720D01*
X89976811Y-97443088D01*
X89965568Y-97413799D01*
X89935089Y-97334399D01*
X89929350Y-97263634D01*
X89962780Y-97201001D01*
X89973426Y-97191323D01*
X90058769Y-97122214D01*
X90058770Y-97122213D01*
X90063901Y-97118058D01*
X90111537Y-97059233D01*
X90179929Y-96974776D01*
X90179932Y-96974772D01*
X90184085Y-96969643D01*
X90270786Y-96799484D01*
X90277439Y-96774654D01*
X90286901Y-96739343D01*
X104816775Y-96739343D01*
X104833381Y-96908699D01*
X104887094Y-97070167D01*
X104890741Y-97076189D01*
X104890742Y-97076191D01*
X104967808Y-97203441D01*
X104975246Y-97215723D01*
X105093455Y-97338132D01*
X105099351Y-97341990D01*
X105189265Y-97400828D01*
X105235846Y-97431310D01*
X105242450Y-97433766D01*
X105242452Y-97433767D01*
X105278844Y-97447301D01*
X105395341Y-97490626D01*
X105564015Y-97513132D01*
X105571026Y-97512494D01*
X105571030Y-97512494D01*
X105726462Y-97498348D01*
X105733483Y-97497709D01*
X105740185Y-97495531D01*
X105740187Y-97495531D01*
X105888623Y-97447301D01*
X105888626Y-97447300D01*
X105895322Y-97445124D01*
X106041490Y-97357990D01*
X106046584Y-97353139D01*
X106046588Y-97353136D01*
X106139351Y-97264798D01*
X106164721Y-97240639D01*
X106188608Y-97204687D01*
X106211806Y-97169770D01*
X106258891Y-97098902D01*
X106319319Y-96939825D01*
X106343001Y-96771313D01*
X106343299Y-96750000D01*
X106324331Y-96580892D01*
X106268368Y-96420189D01*
X106262383Y-96410610D01*
X106240420Y-96375464D01*
X106178192Y-96275879D01*
X106058286Y-96155132D01*
X106042039Y-96144821D01*
X105996405Y-96115861D01*
X105914608Y-96063951D01*
X105754300Y-96006868D01*
X105585329Y-95986720D01*
X105578326Y-95987456D01*
X105578325Y-95987456D01*
X105423101Y-96003770D01*
X105423097Y-96003771D01*
X105416093Y-96004507D01*
X105409422Y-96006778D01*
X105261673Y-96057075D01*
X105261670Y-96057076D01*
X105255003Y-96059346D01*
X105249005Y-96063036D01*
X105249003Y-96063037D01*
X105116065Y-96144821D01*
X105116063Y-96144823D01*
X105110066Y-96148512D01*
X104988486Y-96267573D01*
X104896304Y-96410610D01*
X104838103Y-96570516D01*
X104816775Y-96739343D01*
X90286901Y-96739343D01*
X90318506Y-96621393D01*
X90318507Y-96621389D01*
X90320214Y-96615017D01*
X90321636Y-96587891D01*
X90329864Y-96430896D01*
X90329864Y-96430891D01*
X90330209Y-96424304D01*
X90300335Y-96235681D01*
X90289092Y-96206392D01*
X90258613Y-96126992D01*
X90252874Y-96056227D01*
X90286304Y-95993594D01*
X90296950Y-95983916D01*
X90382293Y-95914807D01*
X90382294Y-95914806D01*
X90387425Y-95910651D01*
X90429440Y-95858767D01*
X90503453Y-95767369D01*
X90503456Y-95767365D01*
X90507609Y-95762236D01*
X90594310Y-95592077D01*
X90600963Y-95567247D01*
X90642030Y-95413986D01*
X90642031Y-95413982D01*
X90643738Y-95407610D01*
X90644084Y-95401015D01*
X90653388Y-95223489D01*
X90653388Y-95223484D01*
X90653733Y-95216897D01*
X90623859Y-95028274D01*
X90613968Y-95002506D01*
X90582136Y-94919584D01*
X90576397Y-94848820D01*
X90609827Y-94786186D01*
X90620473Y-94776508D01*
X90705817Y-94707399D01*
X90705818Y-94707398D01*
X90710949Y-94703243D01*
X90763973Y-94637764D01*
X90826977Y-94559961D01*
X90826980Y-94559957D01*
X90831133Y-94554828D01*
X90917834Y-94384669D01*
X90947160Y-94275223D01*
X90956774Y-94239343D01*
X101711775Y-94239343D01*
X101728381Y-94408699D01*
X101782094Y-94570167D01*
X101785741Y-94576189D01*
X101785742Y-94576191D01*
X101811060Y-94617995D01*
X101870246Y-94715723D01*
X101872729Y-94718294D01*
X101897947Y-94783188D01*
X101890803Y-94836985D01*
X101860740Y-94919584D01*
X101833103Y-94995516D01*
X101811775Y-95164343D01*
X101828381Y-95333699D01*
X101882094Y-95495167D01*
X101885741Y-95501189D01*
X101885742Y-95501191D01*
X101953949Y-95613813D01*
X101970246Y-95640723D01*
X102088455Y-95763132D01*
X102230846Y-95856310D01*
X102237450Y-95858766D01*
X102237452Y-95858767D01*
X102273844Y-95872301D01*
X102390341Y-95915626D01*
X102559015Y-95938132D01*
X102566026Y-95937494D01*
X102566030Y-95937494D01*
X102721462Y-95923348D01*
X102728483Y-95922709D01*
X102735185Y-95920531D01*
X102735187Y-95920531D01*
X102883623Y-95872301D01*
X102883626Y-95872300D01*
X102890322Y-95870124D01*
X103036490Y-95782990D01*
X103041584Y-95778139D01*
X103041588Y-95778136D01*
X103108833Y-95714099D01*
X103159721Y-95665639D01*
X103253891Y-95523902D01*
X103314319Y-95364825D01*
X103338001Y-95196313D01*
X103338299Y-95175000D01*
X103319331Y-95005892D01*
X103263368Y-94845189D01*
X103257383Y-94835610D01*
X103173192Y-94700879D01*
X103174699Y-94699938D01*
X103151456Y-94642521D01*
X103159051Y-94585320D01*
X103211815Y-94446417D01*
X103211815Y-94446416D01*
X103214319Y-94439825D01*
X103238001Y-94271313D01*
X103238299Y-94250000D01*
X103219331Y-94080892D01*
X103163368Y-93920189D01*
X103157383Y-93910610D01*
X103119321Y-93849700D01*
X103073192Y-93775879D01*
X102953286Y-93655132D01*
X102937039Y-93644821D01*
X102877267Y-93606889D01*
X102809608Y-93563951D01*
X102649300Y-93506868D01*
X102480329Y-93486720D01*
X102473326Y-93487456D01*
X102473325Y-93487456D01*
X102318101Y-93503770D01*
X102318097Y-93503771D01*
X102311093Y-93504507D01*
X102304422Y-93506778D01*
X102156673Y-93557075D01*
X102156670Y-93557076D01*
X102150003Y-93559346D01*
X102144005Y-93563036D01*
X102144003Y-93563037D01*
X102011065Y-93644821D01*
X102011063Y-93644823D01*
X102005066Y-93648512D01*
X101883486Y-93767573D01*
X101879675Y-93773487D01*
X101879673Y-93773489D01*
X101823413Y-93860787D01*
X101791304Y-93910610D01*
X101733103Y-94070516D01*
X101711775Y-94239343D01*
X90956774Y-94239343D01*
X90965554Y-94206578D01*
X90965555Y-94206574D01*
X90967262Y-94200202D01*
X90967608Y-94193607D01*
X90976912Y-94016081D01*
X90976912Y-94016076D01*
X90977257Y-94009489D01*
X90947383Y-93820866D01*
X90936140Y-93791577D01*
X90905661Y-93712177D01*
X90899922Y-93641412D01*
X90933352Y-93578779D01*
X90943998Y-93569101D01*
X91029341Y-93499992D01*
X91029342Y-93499991D01*
X91034473Y-93495836D01*
X91069699Y-93452336D01*
X91150501Y-93352554D01*
X91150504Y-93352550D01*
X91154657Y-93347421D01*
X91241358Y-93177262D01*
X91248011Y-93152432D01*
X91289078Y-92999171D01*
X91289079Y-92999167D01*
X91290786Y-92992795D01*
X91291132Y-92986200D01*
X91297256Y-92869343D01*
X93916775Y-92869343D01*
X93933381Y-93038699D01*
X93987094Y-93200167D01*
X93990741Y-93206189D01*
X93990742Y-93206191D01*
X94004497Y-93228902D01*
X94075246Y-93345723D01*
X94193455Y-93468132D01*
X94222985Y-93487456D01*
X94326792Y-93555385D01*
X94335846Y-93561310D01*
X94342450Y-93563766D01*
X94342452Y-93563767D01*
X94378844Y-93577301D01*
X94495341Y-93620626D01*
X94664015Y-93643132D01*
X94671026Y-93642494D01*
X94671030Y-93642494D01*
X94826462Y-93628348D01*
X94833483Y-93627709D01*
X94840185Y-93625531D01*
X94840187Y-93625531D01*
X94988623Y-93577301D01*
X94988626Y-93577300D01*
X94995322Y-93575124D01*
X95141490Y-93487990D01*
X95146584Y-93483139D01*
X95146588Y-93483136D01*
X95244390Y-93390000D01*
X95255581Y-93379343D01*
X104206775Y-93379343D01*
X104223381Y-93548699D01*
X104225605Y-93555384D01*
X104225605Y-93555385D01*
X104233387Y-93578779D01*
X104277094Y-93710167D01*
X104280741Y-93716189D01*
X104280742Y-93716191D01*
X104344136Y-93820866D01*
X104365246Y-93855723D01*
X104483455Y-93978132D01*
X104489351Y-93981990D01*
X104614518Y-94063897D01*
X104625846Y-94071310D01*
X104632450Y-94073766D01*
X104632452Y-94073767D01*
X104705593Y-94100968D01*
X104785341Y-94130626D01*
X104954015Y-94153132D01*
X104961026Y-94152494D01*
X104961030Y-94152494D01*
X105116462Y-94138348D01*
X105123483Y-94137709D01*
X105130185Y-94135531D01*
X105130187Y-94135531D01*
X105278623Y-94087301D01*
X105278626Y-94087300D01*
X105285322Y-94085124D01*
X105431490Y-93997990D01*
X105436584Y-93993139D01*
X105436588Y-93993136D01*
X105529468Y-93904687D01*
X105554721Y-93880639D01*
X105648891Y-93738902D01*
X105709319Y-93579825D01*
X105733001Y-93411313D01*
X105733299Y-93390000D01*
X105714331Y-93220892D01*
X105704787Y-93193484D01*
X105664018Y-93076414D01*
X105658368Y-93060189D01*
X105652383Y-93050610D01*
X105612134Y-92986200D01*
X105568192Y-92915879D01*
X105553728Y-92901313D01*
X105461734Y-92808674D01*
X105448286Y-92795132D01*
X105432039Y-92784821D01*
X105379048Y-92751192D01*
X105304608Y-92703951D01*
X105144300Y-92646868D01*
X104975329Y-92626720D01*
X104968326Y-92627456D01*
X104968325Y-92627456D01*
X104813101Y-92643770D01*
X104813097Y-92643771D01*
X104806093Y-92644507D01*
X104799422Y-92646778D01*
X104651673Y-92697075D01*
X104651670Y-92697076D01*
X104645003Y-92699346D01*
X104639005Y-92703036D01*
X104639003Y-92703037D01*
X104506065Y-92784821D01*
X104506063Y-92784823D01*
X104500066Y-92788512D01*
X104429510Y-92857607D01*
X104402598Y-92883961D01*
X104378486Y-92907573D01*
X104374675Y-92913487D01*
X104374673Y-92913489D01*
X104298497Y-93031690D01*
X104286304Y-93050610D01*
X104228103Y-93210516D01*
X104206775Y-93379343D01*
X95255581Y-93379343D01*
X95264721Y-93370639D01*
X95358891Y-93228902D01*
X95419319Y-93069825D01*
X95443001Y-92901313D01*
X95443299Y-92880000D01*
X95424331Y-92710892D01*
X95419520Y-92697075D01*
X95370686Y-92556846D01*
X95368368Y-92550189D01*
X95362383Y-92540610D01*
X95323983Y-92479159D01*
X95278192Y-92405879D01*
X95158286Y-92285132D01*
X95142039Y-92274821D01*
X95052213Y-92217816D01*
X95014608Y-92193951D01*
X94854300Y-92136868D01*
X94685329Y-92116720D01*
X94678326Y-92117456D01*
X94678325Y-92117456D01*
X94523101Y-92133770D01*
X94523097Y-92133771D01*
X94516093Y-92134507D01*
X94509422Y-92136778D01*
X94361673Y-92187075D01*
X94361670Y-92187076D01*
X94355003Y-92189346D01*
X94349005Y-92193036D01*
X94349003Y-92193037D01*
X94216065Y-92274821D01*
X94216063Y-92274823D01*
X94210066Y-92278512D01*
X94088486Y-92397573D01*
X94084675Y-92403487D01*
X94084673Y-92403489D01*
X94060283Y-92441335D01*
X93996304Y-92540610D01*
X93938103Y-92700516D01*
X93916775Y-92869343D01*
X91297256Y-92869343D01*
X91300436Y-92808674D01*
X91300436Y-92808669D01*
X91300781Y-92802082D01*
X91299413Y-92793441D01*
X91285802Y-92707506D01*
X91270907Y-92613459D01*
X91257133Y-92577575D01*
X91204834Y-92441335D01*
X91204834Y-92441334D01*
X91202467Y-92435169D01*
X91098455Y-92275004D01*
X90963417Y-92139965D01*
X90803252Y-92035952D01*
X90669655Y-91984669D01*
X90094718Y-91830614D01*
X89996466Y-91815052D01*
X89959895Y-91809260D01*
X89959893Y-91809260D01*
X89953378Y-91808228D01*
X89946791Y-91808573D01*
X89946786Y-91808573D01*
X89769259Y-91817877D01*
X89769256Y-91817878D01*
X89762664Y-91818223D01*
X89756292Y-91819930D01*
X89756288Y-91819931D01*
X89584572Y-91865942D01*
X89578198Y-91867650D01*
X89408038Y-91954351D01*
X89402907Y-91958506D01*
X89310193Y-92033584D01*
X89259623Y-92074534D01*
X89255465Y-92079669D01*
X89143595Y-92217816D01*
X89143592Y-92217820D01*
X89139439Y-92222949D01*
X89052738Y-92393108D01*
X89051030Y-92399481D01*
X89051030Y-92399482D01*
X89013215Y-92540610D01*
X89003310Y-92577575D01*
X89002965Y-92584167D01*
X89002964Y-92584170D01*
X88993912Y-92756905D01*
X88993315Y-92768288D01*
X88994347Y-92774804D01*
X88994347Y-92774805D01*
X88997635Y-92795565D01*
X89023189Y-92956911D01*
X89025555Y-92963075D01*
X89025556Y-92963078D01*
X89064911Y-93065600D01*
X89070650Y-93136365D01*
X89037220Y-93198998D01*
X89026574Y-93208676D01*
X89001597Y-93228902D01*
X88936099Y-93281941D01*
X88931941Y-93287076D01*
X88820071Y-93425223D01*
X88820068Y-93425227D01*
X88815915Y-93430356D01*
X88729214Y-93600515D01*
X88727506Y-93606888D01*
X88727506Y-93606889D01*
X88682866Y-93773489D01*
X88679786Y-93784982D01*
X88679441Y-93791574D01*
X88679440Y-93791577D01*
X88674346Y-93888788D01*
X88669791Y-93975695D01*
X88699665Y-94164318D01*
X88702032Y-94170484D01*
X88702033Y-94170488D01*
X88741387Y-94273009D01*
X88747126Y-94343773D01*
X88713695Y-94406406D01*
X88703050Y-94416084D01*
X88665592Y-94446417D01*
X88612575Y-94489349D01*
X88608417Y-94494484D01*
X88496547Y-94632631D01*
X88496544Y-94632635D01*
X88492391Y-94637764D01*
X88405690Y-94807923D01*
X88403982Y-94814296D01*
X88403982Y-94814297D01*
X88394732Y-94848820D01*
X88356262Y-94992390D01*
X88355917Y-94998982D01*
X88355916Y-94998985D01*
X88346692Y-95175000D01*
X88346267Y-95183103D01*
X88376141Y-95371726D01*
X88378507Y-95377890D01*
X88378508Y-95377893D01*
X88417863Y-95480415D01*
X88423602Y-95551180D01*
X88390172Y-95613813D01*
X88379526Y-95623491D01*
X88321477Y-95670498D01*
X88289051Y-95696756D01*
X88284893Y-95701891D01*
X88173023Y-95840038D01*
X88173020Y-95840042D01*
X88168867Y-95845171D01*
X88082166Y-96015330D01*
X88080458Y-96021703D01*
X88080458Y-96021704D01*
X88045718Y-96151357D01*
X88032738Y-96199797D01*
X88032393Y-96206389D01*
X88032392Y-96206392D01*
X88028438Y-96281854D01*
X88022743Y-96390510D01*
X88023775Y-96397026D01*
X88023775Y-96397027D01*
X88028095Y-96424304D01*
X88052617Y-96579133D01*
X88054983Y-96585297D01*
X88054984Y-96585300D01*
X88094339Y-96687822D01*
X88100078Y-96758587D01*
X88066648Y-96821220D01*
X88056002Y-96830898D01*
X87970659Y-96900007D01*
X87965527Y-96904163D01*
X87961369Y-96909298D01*
X87849499Y-97047445D01*
X87849496Y-97047449D01*
X87845343Y-97052578D01*
X87758642Y-97222737D01*
X87756934Y-97229110D01*
X87756934Y-97229111D01*
X87717172Y-97377506D01*
X87709214Y-97407204D01*
X87708869Y-97413796D01*
X87708868Y-97413799D01*
X87702289Y-97539343D01*
X87699219Y-97597917D01*
X87700251Y-97604433D01*
X87700251Y-97604434D01*
X87704571Y-97631711D01*
X87729093Y-97786540D01*
X87731460Y-97792706D01*
X87731461Y-97792710D01*
X87770815Y-97895231D01*
X87776554Y-97965995D01*
X87743123Y-98028628D01*
X87732478Y-98038306D01*
X87651058Y-98104238D01*
X87642004Y-98111570D01*
X87630164Y-98126191D01*
X87525976Y-98254852D01*
X87525973Y-98254856D01*
X87521820Y-98259985D01*
X87435119Y-98430144D01*
X87433411Y-98436517D01*
X87433411Y-98436518D01*
X87399485Y-98563132D01*
X87385691Y-98614611D01*
X87385346Y-98621203D01*
X87385345Y-98621206D01*
X87377105Y-98778441D01*
X87375696Y-98805324D01*
X85562193Y-98805324D01*
X85587131Y-98488453D01*
X85587821Y-98481893D01*
X85626938Y-98184768D01*
X85685991Y-97736215D01*
X85687022Y-97729708D01*
X85688578Y-97721313D01*
X85824086Y-96990178D01*
X85825453Y-96983743D01*
X85828839Y-96969643D01*
X86001039Y-96252374D01*
X86002743Y-96246019D01*
X86005806Y-96235681D01*
X86216350Y-95524895D01*
X86218387Y-95518625D01*
X86229061Y-95488484D01*
X86334894Y-95189620D01*
X86469452Y-94809639D01*
X86471816Y-94803481D01*
X86759637Y-94108620D01*
X86762320Y-94102594D01*
X87086113Y-93423748D01*
X87089108Y-93417870D01*
X87280375Y-93065600D01*
X87447994Y-92756884D01*
X87451268Y-92751213D01*
X87828250Y-92136034D01*
X87844266Y-92109898D01*
X87847859Y-92104366D01*
X88035416Y-91831469D01*
X88273861Y-91484530D01*
X88277730Y-91479205D01*
X88735603Y-90882494D01*
X88739754Y-90877368D01*
X89228196Y-90305476D01*
X89232610Y-90300573D01*
X89750338Y-89755002D01*
X89755002Y-89750338D01*
X89755358Y-89750000D01*
X98487337Y-89750000D01*
X98505960Y-89986633D01*
X98507114Y-89991440D01*
X98507115Y-89991446D01*
X98537204Y-90116774D01*
X98561372Y-90217439D01*
X98563265Y-90222010D01*
X98563266Y-90222012D01*
X98569983Y-90238227D01*
X98652207Y-90436735D01*
X98776230Y-90639121D01*
X98930386Y-90819614D01*
X99110879Y-90973770D01*
X99313265Y-91097793D01*
X99317835Y-91099686D01*
X99317837Y-91099687D01*
X99430934Y-91146533D01*
X99532561Y-91188628D01*
X99613660Y-91208098D01*
X99758554Y-91242885D01*
X99758560Y-91242886D01*
X99763367Y-91244040D01*
X100000000Y-91262663D01*
X100236633Y-91244040D01*
X100241440Y-91242886D01*
X100241446Y-91242885D01*
X100386340Y-91208098D01*
X100467439Y-91188628D01*
X100569066Y-91146533D01*
X100682163Y-91099687D01*
X100682165Y-91099686D01*
X100686735Y-91097793D01*
X100889121Y-90973770D01*
X101069614Y-90819614D01*
X101223770Y-90639121D01*
X101347793Y-90436735D01*
X101430018Y-90238227D01*
X101436734Y-90222012D01*
X101436735Y-90222010D01*
X101438628Y-90217439D01*
X101462796Y-90116774D01*
X101492885Y-89991446D01*
X101492886Y-89991440D01*
X101494040Y-89986633D01*
X101512663Y-89750000D01*
X101494040Y-89513367D01*
X101492886Y-89508560D01*
X101492885Y-89508554D01*
X101458098Y-89363660D01*
X101438628Y-89282561D01*
X101417000Y-89230345D01*
X101349687Y-89067837D01*
X101349686Y-89067835D01*
X101347793Y-89063265D01*
X101223770Y-88860879D01*
X101069614Y-88680386D01*
X100889121Y-88526230D01*
X100686735Y-88402207D01*
X100682165Y-88400314D01*
X100682163Y-88400313D01*
X100472012Y-88313266D01*
X100472010Y-88313265D01*
X100467439Y-88311372D01*
X100386340Y-88291902D01*
X100241446Y-88257115D01*
X100241440Y-88257114D01*
X100236633Y-88255960D01*
X100000000Y-88237337D01*
X99763367Y-88255960D01*
X99758560Y-88257114D01*
X99758554Y-88257115D01*
X99613660Y-88291902D01*
X99532561Y-88311372D01*
X99527990Y-88313265D01*
X99527988Y-88313266D01*
X99317837Y-88400313D01*
X99317835Y-88400314D01*
X99313265Y-88402207D01*
X99110879Y-88526230D01*
X98930386Y-88680386D01*
X98776230Y-88860879D01*
X98652207Y-89063265D01*
X98650314Y-89067835D01*
X98650313Y-89067837D01*
X98583000Y-89230345D01*
X98561372Y-89282561D01*
X98541902Y-89363660D01*
X98507115Y-89508554D01*
X98507114Y-89508560D01*
X98505960Y-89513367D01*
X98487810Y-89743989D01*
X98487337Y-89750000D01*
X89755358Y-89750000D01*
X89761693Y-89743989D01*
X89906941Y-89606153D01*
X90300573Y-89232610D01*
X90305476Y-89228196D01*
X90787369Y-88816621D01*
X90877371Y-88739752D01*
X90882494Y-88735603D01*
X91479205Y-88277730D01*
X91484530Y-88273861D01*
X92104366Y-87847859D01*
X92109898Y-87844266D01*
X92330260Y-87709228D01*
X92751213Y-87451268D01*
X92756884Y-87447994D01*
X93170185Y-87223590D01*
X93417870Y-87089108D01*
X93423748Y-87086113D01*
X94102594Y-86762320D01*
X94108620Y-86759637D01*
X94803481Y-86471816D01*
X94809639Y-86469452D01*
X95518625Y-86218387D01*
X95524899Y-86216349D01*
X96246036Y-86002738D01*
X96252374Y-86001039D01*
X96983761Y-85825449D01*
X96990178Y-85824086D01*
X97729717Y-85687021D01*
X97736215Y-85685991D01*
X98481891Y-85587821D01*
X98488453Y-85587131D01*
X98579996Y-85579926D01*
X99238280Y-85528118D01*
X99244833Y-85527775D01*
X99996716Y-85508086D01*
X100003284Y-85508086D01*
X100755167Y-85527775D01*
G37*
%TD.AperFunction*%
%TD*%
M02*
