M48
; DRILL file {KiCad (6.0.0)} date Sun Feb  6 18:30:58 2022
; FORMAT={-:-/ absolute / inch / decimal}
; #@! TF.CreationDate,2022-02-06T18:30:58+08:00
; #@! TF.GenerationSoftware,Kicad,Pcbnew,(6.0.0)
; #@! TF.FileFunction,MixedPlating,1,4
FMAT,2
INCH
; #@! TA.AperFunction,Plated,PTH,ViaDrill
T1C0.0118
; #@! TA.AperFunction,Plated,PTH,ComponentDrill
T2C0.0118
; #@! TA.AperFunction,Plated,PTH,ComponentDrill
T3C0.0197
%
G90
G05
T1
X3.6063Y-3.8031
X3.6102Y-3.9016
X3.6102Y-3.9449
X3.6102Y-4.0315
X3.6457Y-3.6732
X3.7244Y-3.6181
X3.7276Y-3.6567
X3.7402Y-3.9587
X3.7461Y-4.1063
X3.7598Y-4.4685
X3.8287Y-4.0354
X3.8504Y-3.5512
X3.8681Y-3.8504
X3.8728Y-4.0374
X3.8819Y-3.4272
X3.9272Y-4.0354
X3.9469Y-3.8406
X3.9902Y-3.8465
X4.0055Y-4.0598
X4.0172Y-3.8794
X4.0344Y-3.7106
X4.0384Y-3.747
X4.0492Y-3.9124
X4.0835Y-3.9697
X4.1024Y-3.5709
X4.1327Y-3.6768
X4.1535Y-4.0
X4.1567Y-3.8091
X4.1654Y-3.7701
X4.2039Y-3.95
X4.276Y-3.8693
X4.2874Y-3.9039
X4.2992Y-3.9413
X4.3071Y-3.972
T2
X3.8858Y-4.1779
X3.8858Y-4.2172
X3.8858Y-4.2566
X3.937Y-4.1779
X3.937Y-4.2172
X3.937Y-4.2566
X3.9882Y-4.1779
X3.9882Y-4.2172
X3.9882Y-4.2566
T3
X3.4599Y-3.9857
X3.4727Y-3.9382
X3.4854Y-3.8906
X3.4981Y-3.8431
X3.5109Y-3.7956
X3.5236Y-3.748
X3.5364Y-3.7005
X3.5491Y-3.653
X3.8878Y-4.4232
X3.937Y-4.4232
X3.9862Y-4.4232
T0
M30
