%TF.GenerationSoftware,KiCad,Pcbnew,(6.0.0)*%
%TF.CreationDate,2022-02-06T18:29:28+08:00*%
%TF.ProjectId,STM32_FOC,53544d33-325f-4464-9f43-2e6b69636164,rev?*%
%TF.SameCoordinates,Original*%
%TF.FileFunction,Copper,L3,Inr*%
%TF.FilePolarity,Positive*%
%FSLAX46Y46*%
G04 Gerber Fmt 4.6, Leading zero omitted, Abs format (unit mm)*
G04 Created by KiCad (PCBNEW (6.0.0)) date 2022-02-06 18:29:28*
%MOMM*%
%LPD*%
G01*
G04 APERTURE LIST*
G04 Aperture macros list*
%AMRoundRect*
0 Rectangle with rounded corners*
0 $1 Rounding radius*
0 $2 $3 $4 $5 $6 $7 $8 $9 X,Y pos of 4 corners*
0 Add a 4 corners polygon primitive as box body*
4,1,4,$2,$3,$4,$5,$6,$7,$8,$9,$2,$3,0*
0 Add four circle primitives for the rounded corners*
1,1,$1+$1,$2,$3*
1,1,$1+$1,$4,$5*
1,1,$1+$1,$6,$7*
1,1,$1+$1,$8,$9*
0 Add four rect primitives between the rounded corners*
20,1,$1+$1,$2,$3,$4,$5,0*
20,1,$1+$1,$4,$5,$6,$7,0*
20,1,$1+$1,$6,$7,$8,$9,0*
20,1,$1+$1,$8,$9,$2,$3,0*%
%AMHorizOval*
0 Thick line with rounded ends*
0 $1 width*
0 $2 $3 position (X,Y) of the first rounded end (center of the circle)*
0 $4 $5 position (X,Y) of the second rounded end (center of the circle)*
0 Add line between two ends*
20,1,$1,$2,$3,$4,$5,0*
0 Add two circle primitives to create the rounded ends*
1,1,$1,$2,$3*
1,1,$1,$4,$5*%
G04 Aperture macros list end*
%TA.AperFunction,ComponentPad*%
%ADD10C,0.500000*%
%TD*%
%TA.AperFunction,ComponentPad*%
%ADD11RoundRect,0.200000X0.382903X-0.309654X0.486430X0.076717X-0.382903X0.309654X-0.486430X-0.076717X0*%
%TD*%
%TA.AperFunction,ComponentPad*%
%ADD12HorizOval,0.800000X-0.241481X0.064705X0.241481X-0.064705X0*%
%TD*%
%TA.AperFunction,ComponentPad*%
%ADD13RoundRect,0.200000X0.200000X0.450000X-0.200000X0.450000X-0.200000X-0.450000X0.200000X-0.450000X0*%
%TD*%
%TA.AperFunction,ComponentPad*%
%ADD14O,0.800000X1.300000*%
%TD*%
%TA.AperFunction,ViaPad*%
%ADD15C,0.500000*%
%TD*%
G04 APERTURE END LIST*
D10*
%TO.N,GND*%
%TO.C,U4*%
X100000000Y-107117500D03*
X98700000Y-107117500D03*
X101300000Y-107117500D03*
X98700000Y-106117500D03*
X98700000Y-108117500D03*
X100000000Y-108117500D03*
X100000000Y-106117500D03*
X101300000Y-108117500D03*
X101300000Y-106117500D03*
%TD*%
D11*
%TO.N,+12V*%
%TO.C,J3*%
X87882381Y-101237036D03*
D12*
%TO.N,GND*%
X88205905Y-100029629D03*
%TO.N,SWDIO*%
X88529429Y-98822221D03*
%TO.N,SWCLK*%
X88852952Y-97614814D03*
%TO.N,USART2_TX*%
X89176476Y-96407407D03*
%TO.N,USART2_RX*%
X89500000Y-95200000D03*
%TO.N,Button*%
X89823524Y-93992592D03*
%TO.N,+3V3*%
X90147048Y-92785185D03*
%TD*%
D13*
%TO.N,W*%
%TO.C,J1*%
X101250000Y-112350000D03*
D14*
%TO.N,V*%
X100000000Y-112350000D03*
%TO.N,U*%
X98750000Y-112350000D03*
%TD*%
D15*
%TO.N,GND*%
X95500000Y-113500000D03*
X91700000Y-102400000D03*
X109400000Y-100890000D03*
X92600000Y-93300000D03*
X105800000Y-95760000D03*
X91700000Y-99100000D03*
X98600000Y-87050000D03*
X105500000Y-101600000D03*
X95150000Y-104300000D03*
X91600000Y-96600000D03*
X109200000Y-100110000D03*
X102037500Y-98537500D03*
X97800000Y-90200000D03*
X101740000Y-103120000D03*
X104200000Y-90700000D03*
X94600000Y-91900000D03*
%TO.N,+3V3*%
X103720000Y-100830000D03*
X94680000Y-92880000D03*
X108610000Y-98280000D03*
X91700000Y-100200000D03*
X108900000Y-99160000D03*
X104970000Y-93390000D03*
%TO.N,USART2_RX*%
X97250000Y-102500000D03*
%TO.N,SWCLK*%
X102475000Y-94250000D03*
%TO.N,SWDIO*%
X102575000Y-95175000D03*
%TO.N,PWMC*%
X106780000Y-100330000D03*
X105580000Y-96750000D03*
%TO.N,EN1*%
X95000000Y-100550000D03*
X98370000Y-102550000D03*
%TO.N,CS*%
X98250000Y-97800000D03*
%TO.N,SCK*%
X102850000Y-99375000D03*
%TO.N,MISO*%
X100250000Y-97550000D03*
%TO.N,MOSI*%
X101350000Y-97700000D03*
%TO.N,Button*%
X99750000Y-102500000D03*
%TD*%
%TA.AperFunction,Conductor*%
%TO.N,+3V3*%
G36*
X94036920Y-91830002D02*
G01*
X94083413Y-91883658D01*
X94093735Y-91919662D01*
X94109088Y-92037065D01*
X94167289Y-92169339D01*
X94260276Y-92279960D01*
X94267747Y-92284933D01*
X94267748Y-92284934D01*
X94373101Y-92355063D01*
X94373103Y-92355064D01*
X94380574Y-92360037D01*
X94389138Y-92362713D01*
X94389141Y-92362714D01*
X94449542Y-92381585D01*
X94518510Y-92403132D01*
X94662998Y-92405780D01*
X94682530Y-92400455D01*
X94793763Y-92370130D01*
X94793765Y-92370129D01*
X94802422Y-92367769D01*
X94925572Y-92292154D01*
X95022551Y-92185014D01*
X95085560Y-92054962D01*
X95105471Y-91936614D01*
X95109092Y-91915095D01*
X95140119Y-91851237D01*
X95200745Y-91814291D01*
X95233346Y-91810000D01*
X109624000Y-91810000D01*
X109692121Y-91830002D01*
X109738614Y-91883658D01*
X109750000Y-91936000D01*
X109750000Y-99637992D01*
X109729998Y-99706113D01*
X109676342Y-99752606D01*
X109606068Y-99762710D01*
X109541172Y-99732942D01*
X109540916Y-99732718D01*
X109535056Y-99725918D01*
X109462935Y-99679171D01*
X109421324Y-99652200D01*
X109421322Y-99652199D01*
X109413790Y-99647317D01*
X109376367Y-99636125D01*
X109283938Y-99608482D01*
X109283936Y-99608482D01*
X109275337Y-99605910D01*
X109266363Y-99605855D01*
X109266361Y-99605855D01*
X109203082Y-99605469D01*
X109130827Y-99605028D01*
X109122196Y-99607495D01*
X109122194Y-99607495D01*
X109000509Y-99642272D01*
X109000505Y-99642274D01*
X108991879Y-99644739D01*
X108984292Y-99649526D01*
X108984290Y-99649527D01*
X108894607Y-99706113D01*
X108869661Y-99721853D01*
X108863718Y-99728582D01*
X108863717Y-99728583D01*
X108846489Y-99748090D01*
X108773999Y-99830170D01*
X108770185Y-99838293D01*
X108770184Y-99838295D01*
X108755521Y-99869527D01*
X108712583Y-99960982D01*
X108711203Y-99969846D01*
X108711202Y-99969849D01*
X108693313Y-100084745D01*
X108690350Y-100103773D01*
X108691514Y-100112675D01*
X108691514Y-100112678D01*
X108701606Y-100189849D01*
X108709088Y-100247065D01*
X108767289Y-100379339D01*
X108773063Y-100386208D01*
X108833549Y-100458164D01*
X108860276Y-100489960D01*
X108867747Y-100494933D01*
X108867748Y-100494934D01*
X108899544Y-100516099D01*
X108945167Y-100570496D01*
X108954138Y-100640924D01*
X108943780Y-100674533D01*
X108912583Y-100740982D01*
X108911203Y-100749846D01*
X108911202Y-100749849D01*
X108896906Y-100841670D01*
X108890350Y-100883773D01*
X108891514Y-100892675D01*
X108891514Y-100892678D01*
X108897040Y-100934934D01*
X108909088Y-101027065D01*
X108967289Y-101159339D01*
X108973061Y-101166206D01*
X108973065Y-101166212D01*
X108987114Y-101182925D01*
X109015635Y-101247941D01*
X109004479Y-101318056D01*
X108957186Y-101371008D01*
X108890663Y-101390000D01*
X106038177Y-101390000D01*
X105970056Y-101369998D01*
X105932599Y-101332457D01*
X105929388Y-101325395D01*
X105923529Y-101318595D01*
X105840916Y-101222718D01*
X105840913Y-101222716D01*
X105835056Y-101215918D01*
X105713790Y-101137317D01*
X105696921Y-101132272D01*
X105583938Y-101098482D01*
X105583936Y-101098482D01*
X105575337Y-101095910D01*
X105566363Y-101095855D01*
X105566361Y-101095855D01*
X105503082Y-101095469D01*
X105430827Y-101095028D01*
X105422196Y-101097495D01*
X105422194Y-101097495D01*
X105300509Y-101132272D01*
X105300505Y-101132274D01*
X105291879Y-101134739D01*
X105284292Y-101139526D01*
X105284290Y-101139527D01*
X105177254Y-101207062D01*
X105169661Y-101211853D01*
X105073999Y-101320170D01*
X105070183Y-101328298D01*
X105066978Y-101333177D01*
X105012860Y-101379131D01*
X104961666Y-101390000D01*
X88986000Y-101390000D01*
X88917879Y-101369998D01*
X88871386Y-101316342D01*
X88860000Y-101264000D01*
X88860000Y-100665092D01*
X88880002Y-100596971D01*
X88894158Y-100580139D01*
X88893922Y-100579939D01*
X88924485Y-100543773D01*
X94490350Y-100543773D01*
X94491514Y-100552675D01*
X94491514Y-100552678D01*
X94499599Y-100614500D01*
X94509088Y-100687065D01*
X94567289Y-100819339D01*
X94660276Y-100929960D01*
X94667747Y-100934933D01*
X94667748Y-100934934D01*
X94773101Y-101005063D01*
X94773103Y-101005064D01*
X94780574Y-101010037D01*
X94789138Y-101012713D01*
X94789141Y-101012714D01*
X94835076Y-101027065D01*
X94918510Y-101053132D01*
X95062998Y-101055780D01*
X95082530Y-101050455D01*
X95193763Y-101020130D01*
X95193765Y-101020129D01*
X95202422Y-101017769D01*
X95325572Y-100942154D01*
X95422551Y-100835014D01*
X95472044Y-100732859D01*
X95481645Y-100713043D01*
X95481645Y-100713042D01*
X95485560Y-100704962D01*
X95509536Y-100562453D01*
X95509688Y-100550000D01*
X95489201Y-100406948D01*
X95451384Y-100323773D01*
X106270350Y-100323773D01*
X106271514Y-100332675D01*
X106271514Y-100332678D01*
X106281606Y-100409849D01*
X106289088Y-100467065D01*
X106347289Y-100599339D01*
X106353063Y-100606208D01*
X106413549Y-100678164D01*
X106440276Y-100709960D01*
X106447747Y-100714933D01*
X106447748Y-100714934D01*
X106553101Y-100785063D01*
X106553103Y-100785064D01*
X106560574Y-100790037D01*
X106569138Y-100792713D01*
X106569141Y-100792714D01*
X106628071Y-100811125D01*
X106698510Y-100833132D01*
X106842998Y-100835780D01*
X106887612Y-100823617D01*
X106973763Y-100800130D01*
X106973765Y-100800129D01*
X106982422Y-100797769D01*
X107105572Y-100722154D01*
X107202551Y-100615014D01*
X107244065Y-100529328D01*
X107261645Y-100493043D01*
X107261645Y-100493042D01*
X107265560Y-100484962D01*
X107289536Y-100342453D01*
X107289688Y-100330000D01*
X107269201Y-100186948D01*
X107209388Y-100055395D01*
X107203530Y-100048596D01*
X107203527Y-100048592D01*
X107120916Y-99952718D01*
X107120913Y-99952716D01*
X107115056Y-99945918D01*
X107014561Y-99880780D01*
X107001324Y-99872200D01*
X107001322Y-99872199D01*
X106993790Y-99867317D01*
X106976921Y-99862272D01*
X106863938Y-99828482D01*
X106863936Y-99828482D01*
X106855337Y-99825910D01*
X106846363Y-99825855D01*
X106846361Y-99825855D01*
X106783082Y-99825469D01*
X106710827Y-99825028D01*
X106702196Y-99827495D01*
X106702194Y-99827495D01*
X106580509Y-99862272D01*
X106580505Y-99862274D01*
X106571879Y-99864739D01*
X106564292Y-99869526D01*
X106564290Y-99869527D01*
X106457254Y-99937062D01*
X106449661Y-99941853D01*
X106353999Y-100050170D01*
X106350185Y-100058293D01*
X106350184Y-100058295D01*
X106335521Y-100089527D01*
X106292583Y-100180982D01*
X106291203Y-100189846D01*
X106291202Y-100189849D01*
X106272200Y-100311893D01*
X106270350Y-100323773D01*
X95451384Y-100323773D01*
X95429388Y-100275395D01*
X95423530Y-100268596D01*
X95423527Y-100268592D01*
X95340916Y-100172718D01*
X95340913Y-100172716D01*
X95335056Y-100165918D01*
X95252917Y-100112678D01*
X95221324Y-100092200D01*
X95221322Y-100092199D01*
X95213790Y-100087317D01*
X95134384Y-100063569D01*
X95083938Y-100048482D01*
X95083936Y-100048482D01*
X95075337Y-100045910D01*
X95066363Y-100045855D01*
X95066361Y-100045855D01*
X95003082Y-100045469D01*
X94930827Y-100045028D01*
X94922196Y-100047495D01*
X94922194Y-100047495D01*
X94800509Y-100082272D01*
X94800505Y-100082274D01*
X94791879Y-100084739D01*
X94784292Y-100089526D01*
X94784290Y-100089527D01*
X94700096Y-100142650D01*
X94669661Y-100161853D01*
X94573999Y-100270170D01*
X94512583Y-100400982D01*
X94511203Y-100409846D01*
X94511202Y-100409849D01*
X94498249Y-100493043D01*
X94490350Y-100543773D01*
X88924485Y-100543773D01*
X88931982Y-100534901D01*
X89000658Y-100453634D01*
X89072630Y-100304753D01*
X89105316Y-100142650D01*
X89104258Y-100122453D01*
X89097076Y-99985428D01*
X89097076Y-99985427D01*
X89096661Y-99977512D01*
X89047211Y-99819713D01*
X88960071Y-99679171D01*
X88962240Y-99677826D01*
X88939727Y-99623853D01*
X88952160Y-99553953D01*
X89000410Y-99501872D01*
X89019817Y-99492444D01*
X89075252Y-99471165D01*
X89075255Y-99471163D01*
X89082652Y-99468324D01*
X89201975Y-99383526D01*
X89210985Y-99377123D01*
X89210987Y-99377121D01*
X89217446Y-99372531D01*
X89324182Y-99246226D01*
X89396154Y-99097345D01*
X89396874Y-99093773D01*
X91190350Y-99093773D01*
X91191514Y-99102675D01*
X91191514Y-99102678D01*
X91200668Y-99172679D01*
X91209088Y-99237065D01*
X91267289Y-99369339D01*
X91360276Y-99479960D01*
X91367747Y-99484933D01*
X91367748Y-99484934D01*
X91473101Y-99555063D01*
X91473103Y-99555064D01*
X91480574Y-99560037D01*
X91489138Y-99562713D01*
X91489141Y-99562714D01*
X91549542Y-99581585D01*
X91618510Y-99603132D01*
X91762998Y-99605780D01*
X91782530Y-99600455D01*
X91893763Y-99570130D01*
X91893765Y-99570129D01*
X91902422Y-99567769D01*
X92025572Y-99492154D01*
X92122551Y-99385014D01*
X92159120Y-99309535D01*
X92181645Y-99263043D01*
X92181645Y-99263042D01*
X92185560Y-99254962D01*
X92209536Y-99112453D01*
X92209688Y-99100000D01*
X92189201Y-98956948D01*
X92129388Y-98825395D01*
X92123530Y-98818596D01*
X92123527Y-98818592D01*
X92040916Y-98722718D01*
X92040913Y-98722716D01*
X92035056Y-98715918D01*
X91913790Y-98637317D01*
X91855446Y-98619868D01*
X91783938Y-98598482D01*
X91783936Y-98598482D01*
X91775337Y-98595910D01*
X91766363Y-98595855D01*
X91766361Y-98595855D01*
X91703082Y-98595469D01*
X91630827Y-98595028D01*
X91622196Y-98597495D01*
X91622194Y-98597495D01*
X91500509Y-98632272D01*
X91500505Y-98632274D01*
X91491879Y-98634739D01*
X91484292Y-98639526D01*
X91484290Y-98639527D01*
X91387591Y-98700540D01*
X91369661Y-98711853D01*
X91273999Y-98820170D01*
X91270185Y-98828293D01*
X91270184Y-98828295D01*
X91248969Y-98873482D01*
X91212583Y-98950982D01*
X91211203Y-98959846D01*
X91211202Y-98959849D01*
X91198238Y-99043115D01*
X91190350Y-99093773D01*
X89396874Y-99093773D01*
X89428840Y-98935242D01*
X89427895Y-98917200D01*
X89420600Y-98778020D01*
X89420600Y-98778019D01*
X89420185Y-98770104D01*
X89370735Y-98612305D01*
X89283595Y-98471763D01*
X89285760Y-98470421D01*
X89263248Y-98416417D01*
X89275697Y-98346520D01*
X89323959Y-98294450D01*
X89343342Y-98285036D01*
X89406175Y-98260917D01*
X89487425Y-98203176D01*
X89534508Y-98169716D01*
X89534510Y-98169714D01*
X89540969Y-98165124D01*
X89647705Y-98038819D01*
X89719677Y-97889938D01*
X89739067Y-97793773D01*
X97740350Y-97793773D01*
X97741514Y-97802675D01*
X97741514Y-97802678D01*
X97757924Y-97928164D01*
X97759088Y-97937065D01*
X97817289Y-98069339D01*
X97910276Y-98179960D01*
X97917747Y-98184933D01*
X97917748Y-98184934D01*
X98023101Y-98255063D01*
X98023103Y-98255064D01*
X98030574Y-98260037D01*
X98039138Y-98262713D01*
X98039141Y-98262714D01*
X98099542Y-98281585D01*
X98168510Y-98303132D01*
X98312998Y-98305780D01*
X98332530Y-98300455D01*
X98443763Y-98270130D01*
X98443765Y-98270129D01*
X98452422Y-98267769D01*
X98575572Y-98192154D01*
X98672551Y-98085014D01*
X98725267Y-97976208D01*
X98731645Y-97963043D01*
X98731645Y-97963042D01*
X98735560Y-97954962D01*
X98759536Y-97812453D01*
X98759688Y-97800000D01*
X98744475Y-97693773D01*
X98740474Y-97665835D01*
X98740473Y-97665833D01*
X98739201Y-97656948D01*
X98731173Y-97639290D01*
X98699947Y-97570613D01*
X98687744Y-97543773D01*
X99740350Y-97543773D01*
X99741514Y-97552675D01*
X99741514Y-97552678D01*
X99755150Y-97656948D01*
X99759088Y-97687065D01*
X99817289Y-97819339D01*
X99823063Y-97826208D01*
X99835611Y-97841135D01*
X99910276Y-97929960D01*
X99917747Y-97934933D01*
X99917748Y-97934934D01*
X100023101Y-98005063D01*
X100023103Y-98005064D01*
X100030574Y-98010037D01*
X100039138Y-98012713D01*
X100039141Y-98012714D01*
X100099542Y-98031585D01*
X100168510Y-98053132D01*
X100312998Y-98055780D01*
X100332530Y-98050455D01*
X100443763Y-98020130D01*
X100443765Y-98020129D01*
X100452422Y-98017769D01*
X100575572Y-97942154D01*
X100636406Y-97874946D01*
X100667011Y-97841135D01*
X100727555Y-97804054D01*
X100798535Y-97805592D01*
X100857415Y-97845261D01*
X100875755Y-97874945D01*
X100917289Y-97969339D01*
X100923063Y-97976208D01*
X100989951Y-98055780D01*
X101010276Y-98079960D01*
X101017747Y-98084933D01*
X101017748Y-98084934D01*
X101123101Y-98155063D01*
X101123103Y-98155064D01*
X101130574Y-98160037D01*
X101139138Y-98162713D01*
X101139141Y-98162714D01*
X101172353Y-98173090D01*
X101268510Y-98203132D01*
X101343354Y-98204504D01*
X101404026Y-98205616D01*
X101404029Y-98205616D01*
X101412998Y-98205780D01*
X101421658Y-98203419D01*
X101423608Y-98203176D01*
X101493679Y-98214603D01*
X101546449Y-98262099D01*
X101565163Y-98330585D01*
X101555630Y-98371499D01*
X101556522Y-98371772D01*
X101553896Y-98380360D01*
X101550083Y-98388482D01*
X101548703Y-98397346D01*
X101548702Y-98397349D01*
X101531190Y-98509824D01*
X101527850Y-98531273D01*
X101529014Y-98540175D01*
X101529014Y-98540178D01*
X101536639Y-98598482D01*
X101546588Y-98674565D01*
X101604789Y-98806839D01*
X101697776Y-98917460D01*
X101705247Y-98922433D01*
X101705248Y-98922434D01*
X101810601Y-98992563D01*
X101810603Y-98992564D01*
X101818074Y-98997537D01*
X101826638Y-99000213D01*
X101826641Y-99000214D01*
X101887042Y-99019085D01*
X101956010Y-99040632D01*
X102100498Y-99043280D01*
X102236338Y-99006246D01*
X102307320Y-99007626D01*
X102366289Y-99047163D01*
X102394521Y-99112305D01*
X102383534Y-99181358D01*
X102362583Y-99225982D01*
X102361203Y-99234846D01*
X102361202Y-99234849D01*
X102349574Y-99309535D01*
X102340350Y-99368773D01*
X102341514Y-99377675D01*
X102341514Y-99377678D01*
X102353991Y-99473090D01*
X102359088Y-99512065D01*
X102417289Y-99644339D01*
X102423063Y-99651208D01*
X102485864Y-99725918D01*
X102510276Y-99754960D01*
X102517747Y-99759933D01*
X102517748Y-99759934D01*
X102623101Y-99830063D01*
X102623103Y-99830064D01*
X102630574Y-99835037D01*
X102639138Y-99837713D01*
X102639141Y-99837714D01*
X102699542Y-99856585D01*
X102768510Y-99878132D01*
X102912998Y-99880780D01*
X102932530Y-99875455D01*
X103043763Y-99845130D01*
X103043765Y-99845129D01*
X103052422Y-99842769D01*
X103175572Y-99767154D01*
X103272551Y-99660014D01*
X103317243Y-99567769D01*
X103331645Y-99538043D01*
X103331645Y-99538042D01*
X103335560Y-99529962D01*
X103359536Y-99387453D01*
X103359688Y-99375000D01*
X103341229Y-99246110D01*
X103340474Y-99240835D01*
X103340473Y-99240833D01*
X103339201Y-99231948D01*
X103279388Y-99100395D01*
X103273530Y-99093596D01*
X103273527Y-99093592D01*
X103190916Y-98997718D01*
X103190913Y-98997716D01*
X103185056Y-98990918D01*
X103090538Y-98929654D01*
X103071324Y-98917200D01*
X103071322Y-98917199D01*
X103063790Y-98912317D01*
X103055170Y-98909739D01*
X102933938Y-98873482D01*
X102933936Y-98873482D01*
X102925337Y-98870910D01*
X102916363Y-98870855D01*
X102916361Y-98870855D01*
X102853082Y-98870469D01*
X102780827Y-98870028D01*
X102652603Y-98906674D01*
X102581611Y-98906162D01*
X102522163Y-98867348D01*
X102493137Y-98802556D01*
X102504588Y-98730588D01*
X102510405Y-98718583D01*
X102523060Y-98692462D01*
X102547036Y-98549953D01*
X102547188Y-98537500D01*
X102526701Y-98394448D01*
X102466888Y-98262895D01*
X102461030Y-98256096D01*
X102461027Y-98256092D01*
X102378416Y-98160218D01*
X102378413Y-98160216D01*
X102372556Y-98153418D01*
X102251290Y-98074817D01*
X102187636Y-98055780D01*
X102121438Y-98035982D01*
X102121436Y-98035982D01*
X102112837Y-98033410D01*
X102103863Y-98033355D01*
X102103861Y-98033355D01*
X102039676Y-98032963D01*
X101968327Y-98032528D01*
X101964020Y-98033759D01*
X101896054Y-98023526D01*
X101842708Y-97976678D01*
X101823159Y-97908426D01*
X101829121Y-97870953D01*
X101831647Y-97863039D01*
X101835560Y-97854962D01*
X101859536Y-97712453D01*
X101859612Y-97706226D01*
X101859629Y-97704860D01*
X101859629Y-97704856D01*
X101859688Y-97700000D01*
X101839201Y-97556948D01*
X101779388Y-97425395D01*
X101773530Y-97418596D01*
X101773527Y-97418592D01*
X101690916Y-97322718D01*
X101690913Y-97322716D01*
X101685056Y-97315918D01*
X101604096Y-97263442D01*
X101571324Y-97242200D01*
X101571322Y-97242199D01*
X101563790Y-97237317D01*
X101506322Y-97220130D01*
X101433938Y-97198482D01*
X101433936Y-97198482D01*
X101425337Y-97195910D01*
X101416363Y-97195855D01*
X101416361Y-97195855D01*
X101353082Y-97195469D01*
X101280827Y-97195028D01*
X101272196Y-97197495D01*
X101272194Y-97197495D01*
X101150509Y-97232272D01*
X101150505Y-97232274D01*
X101141879Y-97234739D01*
X101134292Y-97239526D01*
X101134290Y-97239527D01*
X101027254Y-97307062D01*
X101019661Y-97311853D01*
X101013718Y-97318582D01*
X101013717Y-97318583D01*
X100934656Y-97408103D01*
X100874571Y-97445921D01*
X100803577Y-97445251D01*
X100744216Y-97406305D01*
X100725514Y-97376845D01*
X100683106Y-97283571D01*
X100683104Y-97283568D01*
X100679388Y-97275395D01*
X100673530Y-97268596D01*
X100673527Y-97268592D01*
X100590916Y-97172718D01*
X100590913Y-97172716D01*
X100585056Y-97165918D01*
X100492275Y-97105780D01*
X100471324Y-97092200D01*
X100471322Y-97092199D01*
X100463790Y-97087317D01*
X100446921Y-97082272D01*
X100333938Y-97048482D01*
X100333936Y-97048482D01*
X100325337Y-97045910D01*
X100316363Y-97045855D01*
X100316361Y-97045855D01*
X100253082Y-97045469D01*
X100180827Y-97045028D01*
X100172196Y-97047495D01*
X100172194Y-97047495D01*
X100050509Y-97082272D01*
X100050505Y-97082274D01*
X100041879Y-97084739D01*
X100034292Y-97089526D01*
X100034290Y-97089527D01*
X99950882Y-97142154D01*
X99919661Y-97161853D01*
X99913718Y-97168582D01*
X99913717Y-97168583D01*
X99889583Y-97195910D01*
X99823999Y-97270170D01*
X99820185Y-97278293D01*
X99820184Y-97278295D01*
X99806678Y-97307062D01*
X99762583Y-97400982D01*
X99761203Y-97409846D01*
X99761202Y-97409849D01*
X99741939Y-97533569D01*
X99740350Y-97543773D01*
X98687744Y-97543773D01*
X98679388Y-97525395D01*
X98673530Y-97518596D01*
X98673527Y-97518592D01*
X98590916Y-97422718D01*
X98590913Y-97422716D01*
X98585056Y-97415918D01*
X98463790Y-97337317D01*
X98446921Y-97332272D01*
X98333938Y-97298482D01*
X98333936Y-97298482D01*
X98325337Y-97295910D01*
X98316363Y-97295855D01*
X98316361Y-97295855D01*
X98253082Y-97295469D01*
X98180827Y-97295028D01*
X98172196Y-97297495D01*
X98172194Y-97297495D01*
X98050509Y-97332272D01*
X98050505Y-97332274D01*
X98041879Y-97334739D01*
X98034292Y-97339526D01*
X98034290Y-97339527D01*
X97941363Y-97398160D01*
X97919661Y-97411853D01*
X97913718Y-97418582D01*
X97913717Y-97418583D01*
X97910065Y-97422718D01*
X97823999Y-97520170D01*
X97820185Y-97528293D01*
X97820184Y-97528295D01*
X97806732Y-97556948D01*
X97762583Y-97650982D01*
X97761203Y-97659846D01*
X97761202Y-97659849D01*
X97750617Y-97727835D01*
X97740350Y-97793773D01*
X89739067Y-97793773D01*
X89752363Y-97727835D01*
X89743708Y-97562697D01*
X89694258Y-97404898D01*
X89607118Y-97264356D01*
X89609286Y-97263012D01*
X89586774Y-97209034D01*
X89599210Y-97139135D01*
X89647462Y-97087055D01*
X89666864Y-97077630D01*
X89677456Y-97073564D01*
X89729699Y-97053510D01*
X89797096Y-97005614D01*
X89858032Y-96962309D01*
X89858034Y-96962307D01*
X89864493Y-96957717D01*
X89971229Y-96831412D01*
X90043201Y-96682531D01*
X90061098Y-96593773D01*
X91090350Y-96593773D01*
X91091514Y-96602675D01*
X91091514Y-96602678D01*
X91100940Y-96674757D01*
X91109088Y-96737065D01*
X91167289Y-96869339D01*
X91260276Y-96979960D01*
X91267747Y-96984933D01*
X91267748Y-96984934D01*
X91373101Y-97055063D01*
X91373103Y-97055064D01*
X91380574Y-97060037D01*
X91389138Y-97062713D01*
X91389141Y-97062714D01*
X91449542Y-97081585D01*
X91518510Y-97103132D01*
X91662998Y-97105780D01*
X91682530Y-97100455D01*
X91793763Y-97070130D01*
X91793765Y-97070129D01*
X91802422Y-97067769D01*
X91925572Y-96992154D01*
X92022551Y-96885014D01*
X92085560Y-96754962D01*
X92087442Y-96743773D01*
X105070350Y-96743773D01*
X105071514Y-96752675D01*
X105071514Y-96752678D01*
X105080877Y-96824273D01*
X105089088Y-96887065D01*
X105147289Y-97019339D01*
X105153063Y-97026208D01*
X105219951Y-97105780D01*
X105240276Y-97129960D01*
X105247747Y-97134933D01*
X105247748Y-97134934D01*
X105353101Y-97205063D01*
X105353103Y-97205064D01*
X105360574Y-97210037D01*
X105369138Y-97212713D01*
X105369141Y-97212714D01*
X105429542Y-97231585D01*
X105498510Y-97253132D01*
X105642998Y-97255780D01*
X105662530Y-97250455D01*
X105773763Y-97220130D01*
X105773765Y-97220129D01*
X105782422Y-97217769D01*
X105905572Y-97142154D01*
X106002551Y-97035014D01*
X106065560Y-96904962D01*
X106089536Y-96762453D01*
X106089612Y-96756227D01*
X106089629Y-96754860D01*
X106089629Y-96754856D01*
X106089688Y-96750000D01*
X106069201Y-96606948D01*
X106009388Y-96475395D01*
X105963073Y-96421644D01*
X105933759Y-96356982D01*
X105944058Y-96286736D01*
X105990700Y-96233209D01*
X105999373Y-96228600D01*
X106002422Y-96227769D01*
X106010649Y-96222718D01*
X106062708Y-96190753D01*
X106125572Y-96152154D01*
X106137002Y-96139527D01*
X106216526Y-96051670D01*
X106222551Y-96045014D01*
X106254056Y-95979988D01*
X106281645Y-95923043D01*
X106281645Y-95923042D01*
X106285560Y-95914962D01*
X106309536Y-95772453D01*
X106309688Y-95760000D01*
X106292899Y-95642769D01*
X106290474Y-95625835D01*
X106290473Y-95625833D01*
X106289201Y-95616948D01*
X106229388Y-95485395D01*
X106223530Y-95478596D01*
X106223527Y-95478592D01*
X106140916Y-95382718D01*
X106140913Y-95382716D01*
X106135056Y-95375918D01*
X106050014Y-95320796D01*
X106021324Y-95302200D01*
X106021322Y-95302199D01*
X106013790Y-95297317D01*
X105996921Y-95292272D01*
X105883938Y-95258482D01*
X105883936Y-95258482D01*
X105875337Y-95255910D01*
X105866363Y-95255855D01*
X105866361Y-95255855D01*
X105803082Y-95255469D01*
X105730827Y-95255028D01*
X105722196Y-95257495D01*
X105722194Y-95257495D01*
X105600509Y-95292272D01*
X105600505Y-95292274D01*
X105591879Y-95294739D01*
X105584292Y-95299526D01*
X105584290Y-95299527D01*
X105536054Y-95329962D01*
X105469661Y-95371853D01*
X105463718Y-95378582D01*
X105463717Y-95378583D01*
X105436045Y-95409916D01*
X105373999Y-95480170D01*
X105312583Y-95610982D01*
X105311203Y-95619846D01*
X105311202Y-95619849D01*
X105291832Y-95744257D01*
X105290350Y-95753773D01*
X105291514Y-95762675D01*
X105291514Y-95762678D01*
X105301823Y-95841511D01*
X105309088Y-95897065D01*
X105367289Y-96029339D01*
X105373063Y-96036208D01*
X105417922Y-96089574D01*
X105446443Y-96154590D01*
X105435287Y-96224705D01*
X105387995Y-96277657D01*
X105377911Y-96283015D01*
X105371879Y-96284739D01*
X105307443Y-96325395D01*
X105260063Y-96355290D01*
X105249661Y-96361853D01*
X105243718Y-96368582D01*
X105243717Y-96368583D01*
X105178119Y-96442859D01*
X105153999Y-96470170D01*
X105092583Y-96600982D01*
X105091203Y-96609846D01*
X105091202Y-96609849D01*
X105078774Y-96689671D01*
X105070350Y-96743773D01*
X92087442Y-96743773D01*
X92109536Y-96612453D01*
X92109688Y-96600000D01*
X92097158Y-96512507D01*
X92090474Y-96465835D01*
X92090473Y-96465833D01*
X92089201Y-96456948D01*
X92029388Y-96325395D01*
X92023530Y-96318596D01*
X92023527Y-96318592D01*
X91940916Y-96222718D01*
X91940913Y-96222716D01*
X91935056Y-96215918D01*
X91813790Y-96137317D01*
X91782416Y-96127934D01*
X91683938Y-96098482D01*
X91683936Y-96098482D01*
X91675337Y-96095910D01*
X91666363Y-96095855D01*
X91666361Y-96095855D01*
X91603082Y-96095469D01*
X91530827Y-96095028D01*
X91522196Y-96097495D01*
X91522194Y-96097495D01*
X91400509Y-96132272D01*
X91400505Y-96132274D01*
X91391879Y-96134739D01*
X91384292Y-96139526D01*
X91384290Y-96139527D01*
X91277254Y-96207062D01*
X91269661Y-96211853D01*
X91263718Y-96218582D01*
X91263717Y-96218583D01*
X91250800Y-96233209D01*
X91173999Y-96320170D01*
X91112583Y-96450982D01*
X91111203Y-96459846D01*
X91111202Y-96459849D01*
X91108782Y-96475395D01*
X91090350Y-96593773D01*
X90061098Y-96593773D01*
X90075887Y-96520428D01*
X90067232Y-96355290D01*
X90017782Y-96197491D01*
X89930642Y-96056949D01*
X89932810Y-96055605D01*
X89910298Y-96001627D01*
X89922734Y-95931728D01*
X89970986Y-95879648D01*
X89990388Y-95870223D01*
X90000980Y-95866157D01*
X90053223Y-95846103D01*
X90156859Y-95772453D01*
X90181556Y-95754902D01*
X90181558Y-95754900D01*
X90188017Y-95750310D01*
X90294753Y-95624005D01*
X90366725Y-95475124D01*
X90399411Y-95313021D01*
X90398895Y-95303164D01*
X90391171Y-95155799D01*
X90391171Y-95155798D01*
X90390756Y-95147883D01*
X90341306Y-94990084D01*
X90254166Y-94849542D01*
X90256335Y-94848197D01*
X90233822Y-94794224D01*
X90246255Y-94724324D01*
X90294505Y-94672243D01*
X90313912Y-94662815D01*
X90369347Y-94641536D01*
X90369350Y-94641534D01*
X90376747Y-94638695D01*
X90496070Y-94553897D01*
X90505080Y-94547494D01*
X90505082Y-94547492D01*
X90511541Y-94542902D01*
X90618277Y-94416597D01*
X90690249Y-94267716D01*
X90695077Y-94243773D01*
X101965350Y-94243773D01*
X101966514Y-94252675D01*
X101966514Y-94252678D01*
X101978332Y-94343050D01*
X101984088Y-94387065D01*
X102042289Y-94519339D01*
X102135276Y-94629960D01*
X102142747Y-94634933D01*
X102142749Y-94634935D01*
X102160342Y-94646646D01*
X102171191Y-94653867D01*
X102216814Y-94708263D01*
X102225786Y-94778690D01*
X102195814Y-94842162D01*
X102148999Y-94895170D01*
X102087583Y-95025982D01*
X102086203Y-95034846D01*
X102086202Y-95034849D01*
X102068603Y-95147883D01*
X102065350Y-95168773D01*
X102066514Y-95177675D01*
X102066514Y-95177678D01*
X102076745Y-95255910D01*
X102084088Y-95312065D01*
X102142289Y-95444339D01*
X102235276Y-95554960D01*
X102242747Y-95559933D01*
X102242748Y-95559934D01*
X102348101Y-95630063D01*
X102348103Y-95630064D01*
X102355574Y-95635037D01*
X102364138Y-95637713D01*
X102364141Y-95637714D01*
X102424542Y-95656585D01*
X102493510Y-95678132D01*
X102637998Y-95680780D01*
X102657530Y-95675455D01*
X102768763Y-95645130D01*
X102768765Y-95645129D01*
X102777422Y-95642769D01*
X102900572Y-95567154D01*
X102997551Y-95460014D01*
X103060560Y-95329962D01*
X103084536Y-95187453D01*
X103084688Y-95175000D01*
X103064201Y-95031948D01*
X103004388Y-94900395D01*
X102998530Y-94893596D01*
X102998527Y-94893592D01*
X102915916Y-94797718D01*
X102915913Y-94797716D01*
X102910056Y-94790918D01*
X102880423Y-94771711D01*
X102834141Y-94717876D01*
X102824310Y-94647563D01*
X102855543Y-94581424D01*
X102891523Y-94541674D01*
X102891524Y-94541672D01*
X102897551Y-94535014D01*
X102960560Y-94404962D01*
X102984536Y-94262453D01*
X102984688Y-94250000D01*
X102964201Y-94106948D01*
X102904388Y-93975395D01*
X102898530Y-93968596D01*
X102898527Y-93968592D01*
X102815916Y-93872718D01*
X102815913Y-93872716D01*
X102810056Y-93865918D01*
X102717275Y-93805780D01*
X102696324Y-93792200D01*
X102696322Y-93792199D01*
X102688790Y-93787317D01*
X102631322Y-93770130D01*
X102558938Y-93748482D01*
X102558936Y-93748482D01*
X102550337Y-93745910D01*
X102541363Y-93745855D01*
X102541361Y-93745855D01*
X102478082Y-93745469D01*
X102405827Y-93745028D01*
X102397196Y-93747495D01*
X102397194Y-93747495D01*
X102275509Y-93782272D01*
X102275505Y-93782274D01*
X102266879Y-93784739D01*
X102259292Y-93789526D01*
X102259290Y-93789527D01*
X102233531Y-93805780D01*
X102144661Y-93861853D01*
X102048999Y-93970170D01*
X101987583Y-94100982D01*
X101965350Y-94243773D01*
X90695077Y-94243773D01*
X90722935Y-94105613D01*
X90714280Y-93940475D01*
X90664830Y-93782676D01*
X90577690Y-93642134D01*
X90458337Y-93527678D01*
X90314268Y-93446499D01*
X89744291Y-93293773D01*
X92090350Y-93293773D01*
X92091514Y-93302675D01*
X92091514Y-93302678D01*
X92097844Y-93351081D01*
X92109088Y-93437065D01*
X92167289Y-93569339D01*
X92173063Y-93576208D01*
X92234145Y-93648873D01*
X92260276Y-93679960D01*
X92267747Y-93684933D01*
X92267748Y-93684934D01*
X92373101Y-93755063D01*
X92373103Y-93755064D01*
X92380574Y-93760037D01*
X92389138Y-93762713D01*
X92389141Y-93762714D01*
X92431469Y-93775938D01*
X92518510Y-93803132D01*
X92662998Y-93805780D01*
X92682530Y-93800455D01*
X92793763Y-93770130D01*
X92793765Y-93770129D01*
X92802422Y-93767769D01*
X92925572Y-93692154D01*
X93022551Y-93585014D01*
X93060022Y-93507673D01*
X93081645Y-93463043D01*
X93081645Y-93463042D01*
X93085560Y-93454962D01*
X93109536Y-93312453D01*
X93109688Y-93300000D01*
X93089201Y-93156948D01*
X93029388Y-93025395D01*
X93023530Y-93018596D01*
X93023527Y-93018592D01*
X92940916Y-92922718D01*
X92940913Y-92922716D01*
X92935056Y-92915918D01*
X92813790Y-92837317D01*
X92796921Y-92832272D01*
X92683938Y-92798482D01*
X92683936Y-92798482D01*
X92675337Y-92795910D01*
X92666363Y-92795855D01*
X92666361Y-92795855D01*
X92603082Y-92795469D01*
X92530827Y-92795028D01*
X92522196Y-92797495D01*
X92522194Y-92797495D01*
X92400509Y-92832272D01*
X92400505Y-92832274D01*
X92391879Y-92834739D01*
X92384292Y-92839526D01*
X92384290Y-92839527D01*
X92277254Y-92907062D01*
X92269661Y-92911853D01*
X92173999Y-93020170D01*
X92112583Y-93150982D01*
X92111203Y-93159846D01*
X92111202Y-93159849D01*
X92091795Y-93284494D01*
X92090350Y-93293773D01*
X89744291Y-93293773D01*
X89711666Y-93285031D01*
X89588952Y-93268221D01*
X89581079Y-93269132D01*
X89581078Y-93269132D01*
X89559005Y-93271686D01*
X89424683Y-93287228D01*
X89270301Y-93346489D01*
X89202904Y-93394385D01*
X89141968Y-93437690D01*
X89141966Y-93437692D01*
X89135507Y-93442282D01*
X89130392Y-93448335D01*
X89082238Y-93505317D01*
X89022991Y-93544437D01*
X88952000Y-93545315D01*
X88891804Y-93507673D01*
X88861514Y-93443462D01*
X88860000Y-93423989D01*
X88860000Y-91936000D01*
X88880002Y-91867879D01*
X88933658Y-91821386D01*
X88986000Y-91810000D01*
X93968799Y-91810000D01*
X94036920Y-91830002D01*
G37*
%TD.AperFunction*%
%TD*%
%TA.AperFunction,Conductor*%
%TO.N,GND*%
G36*
X100028915Y-85254108D02*
G01*
X100485736Y-85266470D01*
X100768563Y-85274123D01*
X100774931Y-85274457D01*
X101512590Y-85331864D01*
X101518933Y-85332519D01*
X102252773Y-85427177D01*
X102259075Y-85428153D01*
X102277048Y-85431403D01*
X102987168Y-85559814D01*
X102993398Y-85561104D01*
X103180870Y-85604902D01*
X103713901Y-85729434D01*
X103720072Y-85731041D01*
X104431149Y-85935610D01*
X104437231Y-85937528D01*
X105137036Y-86177808D01*
X105143012Y-86180031D01*
X105405774Y-86285394D01*
X105829756Y-86455404D01*
X105835594Y-86457918D01*
X106507549Y-86767693D01*
X106513252Y-86770498D01*
X107168687Y-87113880D01*
X107174259Y-87116982D01*
X107811447Y-87493065D01*
X107816854Y-87496444D01*
X108434195Y-87904278D01*
X108439425Y-87907926D01*
X109035362Y-88346487D01*
X109040393Y-88350389D01*
X109613411Y-88818564D01*
X109618196Y-88822680D01*
X109952847Y-89125592D01*
X110166758Y-89319215D01*
X110171376Y-89323612D01*
X110694116Y-89847265D01*
X110698504Y-89851889D01*
X111161017Y-90364660D01*
X111194080Y-90401316D01*
X111198229Y-90406157D01*
X111253333Y-90473841D01*
X111665371Y-90979952D01*
X111669270Y-90984997D01*
X112106781Y-91581688D01*
X112110420Y-91586924D01*
X112517183Y-92204983D01*
X112520553Y-92210397D01*
X112895520Y-92848238D01*
X112898612Y-92853815D01*
X113235022Y-93498676D01*
X113240845Y-93509839D01*
X113243650Y-93515566D01*
X113552240Y-94188035D01*
X113554752Y-94193896D01*
X113614258Y-94343050D01*
X113812064Y-94838853D01*
X113828929Y-94881126D01*
X113831137Y-94887095D01*
X114053560Y-95538594D01*
X114070197Y-95587324D01*
X114072104Y-95593409D01*
X114275427Y-96304824D01*
X114277024Y-96310998D01*
X114444098Y-97031804D01*
X114445380Y-97038051D01*
X114575767Y-97766359D01*
X114576732Y-97772662D01*
X114664483Y-98462435D01*
X114670110Y-98506668D01*
X114670752Y-98512993D01*
X114726875Y-99250789D01*
X114727196Y-99257119D01*
X114745891Y-99995681D01*
X114745955Y-99998207D01*
X114745994Y-100001807D01*
X114745865Y-100038746D01*
X114745647Y-100101135D01*
X114745582Y-100104763D01*
X114721651Y-100845650D01*
X114721284Y-100852016D01*
X114660015Y-101589367D01*
X114659327Y-101595706D01*
X114644865Y-101703376D01*
X114568948Y-102268592D01*
X114560828Y-102329045D01*
X114559821Y-102335328D01*
X114434163Y-103010037D01*
X114424348Y-103062736D01*
X114423022Y-103068971D01*
X114255623Y-103768932D01*
X114250928Y-103788562D01*
X114249292Y-103794714D01*
X114222159Y-103887201D01*
X114040993Y-104504737D01*
X114039043Y-104510808D01*
X113795109Y-105209329D01*
X113792855Y-105215294D01*
X113693366Y-105459695D01*
X113528566Y-105864536D01*
X113513889Y-105900590D01*
X113511340Y-105906424D01*
X113261458Y-106441079D01*
X113198052Y-106576745D01*
X113195207Y-106582451D01*
X112848419Y-107236040D01*
X112845290Y-107241595D01*
X112540858Y-107751273D01*
X112465862Y-107876830D01*
X112462460Y-107882210D01*
X112051379Y-108497438D01*
X112047728Y-108502613D01*
X111696853Y-108974206D01*
X111606053Y-109096245D01*
X111602119Y-109101263D01*
X111130968Y-109671798D01*
X111126784Y-109676610D01*
X110627408Y-110222541D01*
X110622996Y-110227127D01*
X110096583Y-110747147D01*
X110091956Y-110751491D01*
X109863067Y-110955783D01*
X109539951Y-111244174D01*
X109535088Y-111248299D01*
X109218766Y-111503084D01*
X108993007Y-111684924D01*
X108958845Y-111712440D01*
X108953787Y-111716307D01*
X108912555Y-111746209D01*
X108354812Y-112150689D01*
X108349557Y-112154301D01*
X107729358Y-112557833D01*
X107723926Y-112561174D01*
X107084132Y-112932796D01*
X107078539Y-112935858D01*
X106420764Y-113274635D01*
X106415023Y-113277411D01*
X105740923Y-113582487D01*
X105735049Y-113584968D01*
X105046399Y-113855540D01*
X105040407Y-113857721D01*
X104338927Y-114093115D01*
X104332861Y-114094981D01*
X103752683Y-114257515D01*
X103620369Y-114294582D01*
X103614187Y-114296146D01*
X102892535Y-114459440D01*
X102886297Y-114460687D01*
X102634007Y-114504491D01*
X102157271Y-114587266D01*
X102150962Y-114588197D01*
X101416504Y-114677726D01*
X101410157Y-114678337D01*
X100965289Y-114709836D01*
X100672108Y-114730595D01*
X100665760Y-114730883D01*
X100252090Y-114739188D01*
X99925967Y-114745734D01*
X99919590Y-114745700D01*
X99180043Y-114723105D01*
X99173676Y-114722749D01*
X98436219Y-114662766D01*
X98429879Y-114662089D01*
X97696373Y-114564870D01*
X97690075Y-114563872D01*
X97123841Y-114459438D01*
X96962440Y-114429670D01*
X96956218Y-114428359D01*
X96236303Y-114257515D01*
X96230138Y-114255886D01*
X95519799Y-114048841D01*
X95513724Y-114046903D01*
X95359436Y-113993325D01*
X94814744Y-113804176D01*
X94808780Y-113801934D01*
X94122999Y-113524164D01*
X94117151Y-113521621D01*
X93592245Y-113277411D01*
X93446301Y-113209511D01*
X93440605Y-113206684D01*
X93013180Y-112980851D01*
X92786381Y-112861020D01*
X92780820Y-112857899D01*
X92416545Y-112641178D01*
X98095500Y-112641178D01*
X98111024Y-112764061D01*
X98171899Y-112917814D01*
X98176557Y-112924225D01*
X98176558Y-112924227D01*
X98193625Y-112947717D01*
X98269098Y-113051597D01*
X98396514Y-113157005D01*
X98546141Y-113227414D01*
X98641298Y-113245566D01*
X98700791Y-113256915D01*
X98700793Y-113256915D01*
X98708577Y-113258400D01*
X98873616Y-113248017D01*
X98947415Y-113224038D01*
X99023351Y-113199365D01*
X99023354Y-113199364D01*
X99030887Y-113196916D01*
X99037577Y-113192670D01*
X99037580Y-113192669D01*
X99107636Y-113148210D01*
X99170510Y-113108309D01*
X99283710Y-112987763D01*
X99285569Y-112989508D01*
X99331891Y-112953791D01*
X99402627Y-112947717D01*
X99465418Y-112980851D01*
X99479537Y-112997146D01*
X99519098Y-113051597D01*
X99646514Y-113157005D01*
X99796141Y-113227414D01*
X99891298Y-113245566D01*
X99950791Y-113256915D01*
X99950793Y-113256915D01*
X99958577Y-113258400D01*
X100123616Y-113248017D01*
X100197415Y-113224038D01*
X100273351Y-113199365D01*
X100273354Y-113199364D01*
X100280887Y-113196916D01*
X100287577Y-113192670D01*
X100287580Y-113192669D01*
X100357636Y-113148210D01*
X100420510Y-113108309D01*
X100469903Y-113055711D01*
X100480603Y-113044317D01*
X100541816Y-113008351D01*
X100612756Y-113011190D01*
X100673804Y-113055711D01*
X100719395Y-113117436D01*
X100719398Y-113117439D01*
X100724990Y-113125010D01*
X100834924Y-113206209D01*
X100963873Y-113251493D01*
X100971515Y-113252215D01*
X100971518Y-113252216D01*
X100986421Y-113253624D01*
X100995685Y-113254500D01*
X101249828Y-113254500D01*
X101504314Y-113254499D01*
X101507262Y-113254220D01*
X101507271Y-113254220D01*
X101528478Y-113252216D01*
X101528480Y-113252216D01*
X101536127Y-113251493D01*
X101665076Y-113206209D01*
X101775010Y-113125010D01*
X101856209Y-113015076D01*
X101901493Y-112886127D01*
X101904500Y-112854315D01*
X101904499Y-111845686D01*
X101903008Y-111829900D01*
X101902216Y-111821522D01*
X101902216Y-111821520D01*
X101901493Y-111813873D01*
X101856209Y-111684924D01*
X101775010Y-111574990D01*
X101665076Y-111493791D01*
X101536127Y-111448507D01*
X101528485Y-111447785D01*
X101528482Y-111447784D01*
X101513579Y-111446376D01*
X101504315Y-111445500D01*
X101250172Y-111445500D01*
X100995686Y-111445501D01*
X100992738Y-111445780D01*
X100992729Y-111445780D01*
X100971522Y-111447784D01*
X100971520Y-111447784D01*
X100963873Y-111448507D01*
X100834924Y-111493791D01*
X100724990Y-111574990D01*
X100719398Y-111582561D01*
X100676345Y-111640849D01*
X100619783Y-111683760D01*
X100549002Y-111689279D01*
X100484068Y-111652760D01*
X100480902Y-111648403D01*
X100353486Y-111542995D01*
X100203859Y-111472586D01*
X100090973Y-111451052D01*
X100049209Y-111443085D01*
X100049207Y-111443085D01*
X100041423Y-111441600D01*
X99876384Y-111451983D01*
X99868840Y-111454434D01*
X99868841Y-111454434D01*
X99726649Y-111500635D01*
X99726646Y-111500636D01*
X99719113Y-111503084D01*
X99712423Y-111507330D01*
X99712420Y-111507331D01*
X99656223Y-111542995D01*
X99579490Y-111591691D01*
X99574063Y-111597470D01*
X99574062Y-111597471D01*
X99551116Y-111621906D01*
X99466290Y-111712237D01*
X99464431Y-111710492D01*
X99418109Y-111746209D01*
X99347373Y-111752283D01*
X99284582Y-111719149D01*
X99270463Y-111702854D01*
X99235561Y-111654816D01*
X99230902Y-111648403D01*
X99103486Y-111542995D01*
X98953859Y-111472586D01*
X98840973Y-111451052D01*
X98799209Y-111443085D01*
X98799207Y-111443085D01*
X98791423Y-111441600D01*
X98626384Y-111451983D01*
X98618840Y-111454434D01*
X98618841Y-111454434D01*
X98476649Y-111500635D01*
X98476646Y-111500636D01*
X98469113Y-111503084D01*
X98462423Y-111507330D01*
X98462420Y-111507331D01*
X98406223Y-111542995D01*
X98329490Y-111591691D01*
X98324063Y-111597470D01*
X98324062Y-111597471D01*
X98301116Y-111621906D01*
X98216290Y-111712237D01*
X98136625Y-111857147D01*
X98095500Y-112017317D01*
X98095500Y-112641178D01*
X92416545Y-112641178D01*
X92144948Y-112479595D01*
X92139552Y-112476197D01*
X91523635Y-112066208D01*
X91518418Y-112062542D01*
X91466663Y-112024175D01*
X91251710Y-111864828D01*
X90924018Y-111621906D01*
X90918993Y-111617980D01*
X90347646Y-111147834D01*
X90342826Y-111143658D01*
X89796016Y-110645226D01*
X89791414Y-110640813D01*
X89270514Y-110115348D01*
X89266140Y-110110707D01*
X89176600Y-110010737D01*
X88772486Y-109559554D01*
X88768353Y-109554698D01*
X88303208Y-108979265D01*
X88299327Y-108974206D01*
X87863908Y-108376002D01*
X87860287Y-108370753D01*
X87455682Y-107751273D01*
X87452331Y-107745848D01*
X87158260Y-107241596D01*
X87079578Y-107106677D01*
X87076521Y-107101115D01*
X86736589Y-106443915D01*
X86733803Y-106438179D01*
X86427550Y-105764613D01*
X86425059Y-105758744D01*
X86424268Y-105756741D01*
X86172294Y-105118700D01*
X89860815Y-105118700D01*
X89879939Y-105337287D01*
X89881363Y-105342600D01*
X89881363Y-105342602D01*
X89915055Y-105468341D01*
X89936729Y-105549232D01*
X89939051Y-105554212D01*
X89939052Y-105554214D01*
X90027135Y-105743108D01*
X90027138Y-105743113D01*
X90029461Y-105748095D01*
X90032617Y-105752602D01*
X90032618Y-105752604D01*
X90117048Y-105873182D01*
X90155316Y-105927835D01*
X90310470Y-106082989D01*
X90314978Y-106086146D01*
X90314981Y-106086148D01*
X90327329Y-106094794D01*
X90490210Y-106208844D01*
X90495192Y-106211167D01*
X90495197Y-106211170D01*
X90684091Y-106299253D01*
X90689073Y-106301576D01*
X90694381Y-106302998D01*
X90694383Y-106302999D01*
X90895703Y-106356942D01*
X90895705Y-106356942D01*
X90901018Y-106358366D01*
X91119605Y-106377490D01*
X91338192Y-106358366D01*
X91343505Y-106356942D01*
X91343507Y-106356942D01*
X91544827Y-106302999D01*
X91544829Y-106302998D01*
X91550137Y-106301576D01*
X91555119Y-106299253D01*
X91744013Y-106211170D01*
X91744018Y-106211167D01*
X91749000Y-106208844D01*
X91911881Y-106094794D01*
X91924229Y-106086148D01*
X91924232Y-106086146D01*
X91928740Y-106082989D01*
X92083894Y-105927835D01*
X92122163Y-105873182D01*
X92206592Y-105752604D01*
X92206593Y-105752602D01*
X92209749Y-105748095D01*
X92212072Y-105743113D01*
X92212075Y-105743108D01*
X92300158Y-105554214D01*
X92300159Y-105554212D01*
X92302481Y-105549232D01*
X92324156Y-105468341D01*
X92357847Y-105342602D01*
X92357847Y-105342600D01*
X92359271Y-105337287D01*
X92377639Y-105127346D01*
X107616616Y-105127346D01*
X107635740Y-105345933D01*
X107637164Y-105351246D01*
X107637164Y-105351248D01*
X107688791Y-105543922D01*
X107692530Y-105557878D01*
X107694852Y-105562858D01*
X107694853Y-105562860D01*
X107782936Y-105751754D01*
X107782939Y-105751759D01*
X107785262Y-105756741D01*
X107788418Y-105761248D01*
X107788419Y-105761250D01*
X107907792Y-105931732D01*
X107911117Y-105936481D01*
X108066271Y-106091635D01*
X108070779Y-106094792D01*
X108070782Y-106094794D01*
X108233663Y-106208844D01*
X108246011Y-106217490D01*
X108250993Y-106219813D01*
X108250998Y-106219816D01*
X108429384Y-106302999D01*
X108444874Y-106310222D01*
X108450182Y-106311644D01*
X108450184Y-106311645D01*
X108651504Y-106365588D01*
X108651506Y-106365588D01*
X108656819Y-106367012D01*
X108875406Y-106386136D01*
X109093993Y-106367012D01*
X109099306Y-106365588D01*
X109099308Y-106365588D01*
X109300628Y-106311645D01*
X109300630Y-106311644D01*
X109305938Y-106310222D01*
X109321428Y-106302999D01*
X109499814Y-106219816D01*
X109499819Y-106219813D01*
X109504801Y-106217490D01*
X109517149Y-106208844D01*
X109680030Y-106094794D01*
X109680033Y-106094792D01*
X109684541Y-106091635D01*
X109839695Y-105936481D01*
X109843021Y-105931732D01*
X109962393Y-105761250D01*
X109962394Y-105761248D01*
X109965550Y-105756741D01*
X109967873Y-105751759D01*
X109967876Y-105751754D01*
X110055959Y-105562860D01*
X110055960Y-105562858D01*
X110058282Y-105557878D01*
X110062022Y-105543922D01*
X110113648Y-105351248D01*
X110113648Y-105351246D01*
X110115072Y-105345933D01*
X110134196Y-105127346D01*
X110115072Y-104908759D01*
X110058282Y-104696814D01*
X110043248Y-104664573D01*
X109967876Y-104502938D01*
X109967873Y-104502933D01*
X109965550Y-104497951D01*
X109936768Y-104456846D01*
X109842854Y-104322722D01*
X109842852Y-104322719D01*
X109839695Y-104318211D01*
X109684541Y-104163057D01*
X109680033Y-104159900D01*
X109680030Y-104159898D01*
X109509310Y-104040359D01*
X109509308Y-104040358D01*
X109504801Y-104037202D01*
X109499819Y-104034879D01*
X109499814Y-104034876D01*
X109310920Y-103946793D01*
X109310918Y-103946792D01*
X109305938Y-103944470D01*
X109300630Y-103943048D01*
X109300628Y-103943047D01*
X109099308Y-103889104D01*
X109099306Y-103889104D01*
X109093993Y-103887680D01*
X108875406Y-103868556D01*
X108656819Y-103887680D01*
X108651506Y-103889104D01*
X108651504Y-103889104D01*
X108450184Y-103943047D01*
X108450182Y-103943048D01*
X108444874Y-103944470D01*
X108439894Y-103946792D01*
X108439892Y-103946793D01*
X108250998Y-104034876D01*
X108250993Y-104034879D01*
X108246011Y-104037202D01*
X108241504Y-104040358D01*
X108241502Y-104040359D01*
X108070782Y-104159898D01*
X108070779Y-104159900D01*
X108066271Y-104163057D01*
X107911117Y-104318211D01*
X107907960Y-104322719D01*
X107907958Y-104322722D01*
X107814044Y-104456846D01*
X107785262Y-104497951D01*
X107782939Y-104502933D01*
X107782936Y-104502938D01*
X107707564Y-104664573D01*
X107692530Y-104696814D01*
X107635740Y-104908759D01*
X107617527Y-105116930D01*
X107616616Y-105127346D01*
X92377639Y-105127346D01*
X92378395Y-105118700D01*
X92359271Y-104900113D01*
X92357847Y-104894798D01*
X92303904Y-104693478D01*
X92303903Y-104693476D01*
X92302481Y-104688168D01*
X92300158Y-104683186D01*
X92212075Y-104494292D01*
X92212072Y-104494287D01*
X92209749Y-104489305D01*
X92187021Y-104456846D01*
X92087053Y-104314076D01*
X92087051Y-104314073D01*
X92083894Y-104309565D01*
X91928740Y-104154411D01*
X91924232Y-104151254D01*
X91924229Y-104151252D01*
X91753509Y-104031713D01*
X91753507Y-104031712D01*
X91749000Y-104028556D01*
X91744018Y-104026233D01*
X91744013Y-104026230D01*
X91555119Y-103938147D01*
X91555117Y-103938146D01*
X91550137Y-103935824D01*
X91544829Y-103934402D01*
X91544827Y-103934401D01*
X91343507Y-103880458D01*
X91343505Y-103880458D01*
X91338192Y-103879034D01*
X91119605Y-103859910D01*
X90901018Y-103879034D01*
X90895705Y-103880458D01*
X90895703Y-103880458D01*
X90694383Y-103934401D01*
X90694381Y-103934402D01*
X90689073Y-103935824D01*
X90684093Y-103938146D01*
X90684091Y-103938147D01*
X90495197Y-104026230D01*
X90495192Y-104026233D01*
X90490210Y-104028556D01*
X90485703Y-104031712D01*
X90485701Y-104031713D01*
X90314981Y-104151252D01*
X90314978Y-104151254D01*
X90310470Y-104154411D01*
X90155316Y-104309565D01*
X90152159Y-104314073D01*
X90152157Y-104314076D01*
X90052189Y-104456846D01*
X90029461Y-104489305D01*
X90027138Y-104494287D01*
X90027135Y-104494292D01*
X89939052Y-104683186D01*
X89936729Y-104688168D01*
X89935307Y-104693476D01*
X89935306Y-104693478D01*
X89881363Y-104894798D01*
X89879939Y-104900113D01*
X89861726Y-105108284D01*
X89860815Y-105118700D01*
X86172294Y-105118700D01*
X86153281Y-105070556D01*
X86151100Y-105064597D01*
X86113579Y-104953425D01*
X85914477Y-104363511D01*
X85912595Y-104357427D01*
X85711760Y-103645316D01*
X85710185Y-103639137D01*
X85545633Y-102917775D01*
X85544372Y-102911524D01*
X85471087Y-102493773D01*
X96740350Y-102493773D01*
X96741514Y-102502675D01*
X96741514Y-102502678D01*
X96749331Y-102562453D01*
X96759088Y-102637065D01*
X96817289Y-102769339D01*
X96823063Y-102776208D01*
X96865093Y-102826208D01*
X96910276Y-102879960D01*
X96917747Y-102884933D01*
X96917748Y-102884934D01*
X97023101Y-102955063D01*
X97023103Y-102955064D01*
X97030574Y-102960037D01*
X97039138Y-102962713D01*
X97039141Y-102962714D01*
X97099542Y-102981585D01*
X97168510Y-103003132D01*
X97312998Y-103005780D01*
X97332530Y-103000455D01*
X97443763Y-102970130D01*
X97443765Y-102970129D01*
X97452422Y-102967769D01*
X97575572Y-102892154D01*
X97672551Y-102785014D01*
X97684478Y-102760397D01*
X97732176Y-102707815D01*
X97800734Y-102689368D01*
X97868382Y-102710913D01*
X97913198Y-102764589D01*
X97933673Y-102811122D01*
X97937289Y-102819339D01*
X97943063Y-102826208D01*
X97992428Y-102884934D01*
X98030276Y-102929960D01*
X98037747Y-102934933D01*
X98037748Y-102934934D01*
X98143101Y-103005063D01*
X98143103Y-103005064D01*
X98150574Y-103010037D01*
X98159138Y-103012713D01*
X98159141Y-103012714D01*
X98219542Y-103031584D01*
X98288510Y-103053132D01*
X98432998Y-103055780D01*
X98452530Y-103050455D01*
X98563763Y-103020130D01*
X98563765Y-103020129D01*
X98572422Y-103017769D01*
X98695572Y-102942154D01*
X98792551Y-102835014D01*
X98855560Y-102704962D01*
X98879536Y-102562453D01*
X98879688Y-102550000D01*
X98871636Y-102493773D01*
X99240350Y-102493773D01*
X99241514Y-102502675D01*
X99241514Y-102502678D01*
X99249331Y-102562453D01*
X99259088Y-102637065D01*
X99317289Y-102769339D01*
X99323063Y-102776208D01*
X99365093Y-102826208D01*
X99410276Y-102879960D01*
X99417747Y-102884933D01*
X99417748Y-102884934D01*
X99523101Y-102955063D01*
X99523103Y-102955064D01*
X99530574Y-102960037D01*
X99539138Y-102962713D01*
X99539141Y-102962714D01*
X99599542Y-102981585D01*
X99668510Y-103003132D01*
X99812998Y-103005780D01*
X99832530Y-103000455D01*
X99943763Y-102970130D01*
X99943765Y-102970129D01*
X99952422Y-102967769D01*
X100075572Y-102892154D01*
X100172551Y-102785014D01*
X100209953Y-102707815D01*
X100231645Y-102663043D01*
X100231645Y-102663042D01*
X100235560Y-102654962D01*
X100259536Y-102512453D01*
X100259688Y-102500000D01*
X100245507Y-102400982D01*
X100240474Y-102365835D01*
X100240473Y-102365833D01*
X100239201Y-102356948D01*
X100179388Y-102225395D01*
X100173530Y-102218596D01*
X100173527Y-102218592D01*
X100090916Y-102122718D01*
X100090913Y-102122716D01*
X100085056Y-102115918D01*
X100024423Y-102076617D01*
X99971324Y-102042200D01*
X99971322Y-102042199D01*
X99963790Y-102037317D01*
X99946921Y-102032272D01*
X99833938Y-101998482D01*
X99833936Y-101998482D01*
X99825337Y-101995910D01*
X99816363Y-101995855D01*
X99816361Y-101995855D01*
X99753082Y-101995469D01*
X99680827Y-101995028D01*
X99672196Y-101997495D01*
X99672194Y-101997495D01*
X99550509Y-102032272D01*
X99550505Y-102032274D01*
X99541879Y-102034739D01*
X99534292Y-102039526D01*
X99534290Y-102039527D01*
X99466544Y-102082272D01*
X99419661Y-102111853D01*
X99413718Y-102118582D01*
X99413717Y-102118583D01*
X99369559Y-102168583D01*
X99323999Y-102220170D01*
X99262583Y-102350982D01*
X99261203Y-102359846D01*
X99261202Y-102359849D01*
X99254798Y-102400982D01*
X99240350Y-102493773D01*
X98871636Y-102493773D01*
X98859201Y-102406948D01*
X98799388Y-102275395D01*
X98793530Y-102268596D01*
X98793527Y-102268592D01*
X98710916Y-102172718D01*
X98710913Y-102172716D01*
X98705056Y-102165918D01*
X98583790Y-102087317D01*
X98566921Y-102082272D01*
X98453938Y-102048482D01*
X98453936Y-102048482D01*
X98445337Y-102045910D01*
X98436363Y-102045855D01*
X98436361Y-102045855D01*
X98373082Y-102045469D01*
X98300827Y-102045028D01*
X98292196Y-102047495D01*
X98292194Y-102047495D01*
X98170509Y-102082272D01*
X98170505Y-102082274D01*
X98161879Y-102084739D01*
X98154292Y-102089526D01*
X98154290Y-102089527D01*
X98101686Y-102122718D01*
X98039661Y-102161853D01*
X97943999Y-102270170D01*
X97940184Y-102278295D01*
X97940183Y-102278297D01*
X97935803Y-102287626D01*
X97888747Y-102340789D01*
X97820419Y-102360071D01*
X97752513Y-102339351D01*
X97707047Y-102286228D01*
X97683106Y-102233571D01*
X97683104Y-102233568D01*
X97679388Y-102225395D01*
X97673530Y-102218596D01*
X97673527Y-102218592D01*
X97590916Y-102122718D01*
X97590913Y-102122716D01*
X97585056Y-102115918D01*
X97524423Y-102076617D01*
X97471324Y-102042200D01*
X97471322Y-102042199D01*
X97463790Y-102037317D01*
X97446921Y-102032272D01*
X97333938Y-101998482D01*
X97333936Y-101998482D01*
X97325337Y-101995910D01*
X97316363Y-101995855D01*
X97316361Y-101995855D01*
X97253082Y-101995469D01*
X97180827Y-101995028D01*
X97172196Y-101997495D01*
X97172194Y-101997495D01*
X97050509Y-102032272D01*
X97050505Y-102032274D01*
X97041879Y-102034739D01*
X97034292Y-102039526D01*
X97034290Y-102039527D01*
X96966544Y-102082272D01*
X96919661Y-102111853D01*
X96913718Y-102118582D01*
X96913717Y-102118583D01*
X96869559Y-102168583D01*
X96823999Y-102220170D01*
X96762583Y-102350982D01*
X96761203Y-102359846D01*
X96761202Y-102359849D01*
X96754798Y-102400982D01*
X96740350Y-102493773D01*
X85471087Y-102493773D01*
X85416522Y-102182731D01*
X85415580Y-102176425D01*
X85336328Y-101535590D01*
X85324769Y-101442130D01*
X85324147Y-101435789D01*
X85322738Y-101416365D01*
X85312850Y-101280090D01*
X86937551Y-101280090D01*
X86947917Y-101416365D01*
X86997896Y-101543569D01*
X87083068Y-101650455D01*
X87090845Y-101655770D01*
X87189565Y-101723239D01*
X87189569Y-101723241D01*
X87195903Y-101727570D01*
X87225853Y-101738708D01*
X88200114Y-101999760D01*
X88203046Y-102000256D01*
X88224047Y-102003809D01*
X88224049Y-102003809D01*
X88231621Y-102005090D01*
X88367897Y-101994723D01*
X88376662Y-101991279D01*
X88376663Y-101991279D01*
X88486333Y-101948189D01*
X88495101Y-101944744D01*
X88601986Y-101859572D01*
X88612308Y-101844468D01*
X88674770Y-101753075D01*
X88674772Y-101753071D01*
X88679101Y-101746737D01*
X88690239Y-101716787D01*
X88691009Y-101713914D01*
X88693833Y-101703376D01*
X88730786Y-101642754D01*
X88794647Y-101611734D01*
X88851035Y-101615094D01*
X88914440Y-101633711D01*
X88918899Y-101634352D01*
X88918903Y-101634353D01*
X88947483Y-101638462D01*
X88986000Y-101644000D01*
X104961666Y-101644000D01*
X104964947Y-101643655D01*
X104964957Y-101643655D01*
X104989253Y-101641104D01*
X105014417Y-101638462D01*
X105017639Y-101637778D01*
X105064039Y-101627927D01*
X105064048Y-101627925D01*
X105065611Y-101627593D01*
X105090659Y-101620923D01*
X105097472Y-101617133D01*
X105097477Y-101617131D01*
X105171862Y-101575752D01*
X105171864Y-101575750D01*
X105177267Y-101572745D01*
X105181977Y-101568745D01*
X105181982Y-101568742D01*
X105215588Y-101540205D01*
X105231385Y-101526791D01*
X105258538Y-101496081D01*
X105276289Y-101476005D01*
X105276291Y-101476002D01*
X105279271Y-101472632D01*
X105281302Y-101469540D01*
X105285943Y-101463895D01*
X105324018Y-101420783D01*
X105351221Y-101397631D01*
X105381398Y-101378590D01*
X105414002Y-101364006D01*
X105448304Y-101354202D01*
X105483691Y-101349355D01*
X105501533Y-101349464D01*
X105502290Y-101349469D01*
X105519367Y-101349573D01*
X105554700Y-101354854D01*
X105588872Y-101365074D01*
X105621300Y-101380058D01*
X105651239Y-101399463D01*
X105678162Y-101422949D01*
X105731103Y-101484391D01*
X105731104Y-101484392D01*
X105736963Y-101491192D01*
X105735733Y-101492252D01*
X105746314Y-101502502D01*
X105752793Y-101511861D01*
X105756774Y-101515851D01*
X105789036Y-101548186D01*
X105789050Y-101548199D01*
X105790250Y-101549402D01*
X105791524Y-101550548D01*
X105791537Y-101550560D01*
X105804804Y-101562490D01*
X105810679Y-101567773D01*
X105817674Y-101571432D01*
X105817677Y-101571434D01*
X105851961Y-101589367D01*
X105898496Y-101613709D01*
X105966617Y-101633711D01*
X105971076Y-101634352D01*
X105971080Y-101634353D01*
X105999660Y-101638462D01*
X106038177Y-101644000D01*
X108890663Y-101644000D01*
X108960393Y-101634241D01*
X109026916Y-101615249D01*
X109067459Y-101599822D01*
X109077106Y-101592558D01*
X109141689Y-101543925D01*
X109146629Y-101540205D01*
X109158610Y-101526791D01*
X109192043Y-101489357D01*
X109192045Y-101489355D01*
X109193922Y-101487253D01*
X109220956Y-101450924D01*
X109255324Y-101357968D01*
X109266480Y-101287853D01*
X109269581Y-101242684D01*
X109248238Y-101145903D01*
X109219717Y-101080887D01*
X109192112Y-101036483D01*
X109183791Y-101020706D01*
X109163495Y-100974580D01*
X109153888Y-100940173D01*
X109149262Y-100904801D01*
X109149698Y-100869082D01*
X109155186Y-100833830D01*
X109165630Y-100799668D01*
X109173701Y-100782478D01*
X109186514Y-100749341D01*
X109196872Y-100715732D01*
X109206102Y-100608829D01*
X109197131Y-100538401D01*
X109187429Y-100494173D01*
X109139780Y-100407273D01*
X109116778Y-100379847D01*
X109097051Y-100356326D01*
X109097047Y-100356322D01*
X109094157Y-100352876D01*
X109050946Y-100314198D01*
X109043639Y-100307657D01*
X109043634Y-100307653D01*
X109040289Y-100304659D01*
X109039102Y-100303869D01*
X109021265Y-100286736D01*
X108996737Y-100257557D01*
X108977862Y-100227233D01*
X108963492Y-100194573D01*
X108953887Y-100160164D01*
X108953462Y-100156914D01*
X108953462Y-100156913D01*
X108949262Y-100124799D01*
X108949698Y-100089075D01*
X108955186Y-100053831D01*
X108965630Y-100019670D01*
X108974865Y-100000000D01*
X108980792Y-99987376D01*
X109000405Y-99957519D01*
X109024018Y-99930782D01*
X109051222Y-99907630D01*
X109081395Y-99888592D01*
X109114002Y-99874006D01*
X109148304Y-99864202D01*
X109183691Y-99859355D01*
X109201533Y-99859464D01*
X109202290Y-99859469D01*
X109219367Y-99859573D01*
X109254699Y-99864854D01*
X109288876Y-99875075D01*
X109321314Y-99890065D01*
X109324782Y-99892313D01*
X109396903Y-99939060D01*
X109396929Y-99939021D01*
X109397072Y-99939087D01*
X109416591Y-99951721D01*
X109435271Y-99963812D01*
X109500167Y-99993580D01*
X109502842Y-99994526D01*
X109502844Y-99994527D01*
X109534731Y-100005806D01*
X109534733Y-100005806D01*
X109543253Y-100008820D01*
X109552279Y-100009304D01*
X109552280Y-100009304D01*
X109582164Y-100010906D01*
X109642216Y-100014125D01*
X109648350Y-100013243D01*
X109648352Y-100013243D01*
X109709697Y-100004423D01*
X109709706Y-100004421D01*
X109712490Y-100004021D01*
X109756555Y-99993608D01*
X109784888Y-99977474D01*
X109837298Y-99947630D01*
X109837302Y-99947627D01*
X109842676Y-99944567D01*
X109896332Y-99898074D01*
X109927773Y-99865490D01*
X109973709Y-99777673D01*
X109993711Y-99709552D01*
X110004000Y-99637992D01*
X110004000Y-91936000D01*
X109999535Y-91894466D01*
X109998558Y-91885374D01*
X109998557Y-91885367D01*
X109998196Y-91882010D01*
X109994374Y-91864440D01*
X109987170Y-91831322D01*
X109987168Y-91831315D01*
X109986810Y-91829668D01*
X109979616Y-91803445D01*
X109956403Y-91762680D01*
X109933638Y-91722702D01*
X109933635Y-91722698D01*
X109930575Y-91717324D01*
X109894697Y-91675918D01*
X109885922Y-91665791D01*
X109885917Y-91665786D01*
X109884082Y-91663668D01*
X109851498Y-91632227D01*
X109763681Y-91586291D01*
X109695560Y-91566289D01*
X109691101Y-91565648D01*
X109691097Y-91565647D01*
X109659780Y-91561145D01*
X109624000Y-91556000D01*
X95233346Y-91556000D01*
X95217039Y-91557069D01*
X95202268Y-91558036D01*
X95202253Y-91558037D01*
X95200200Y-91558172D01*
X95185196Y-91560147D01*
X95174101Y-91561607D01*
X95174099Y-91561607D01*
X95167599Y-91562463D01*
X95068566Y-91597393D01*
X95007940Y-91634339D01*
X94971528Y-91661255D01*
X94966083Y-91668438D01*
X94966082Y-91668439D01*
X94960413Y-91675918D01*
X94911658Y-91740234D01*
X94908955Y-91745798D01*
X94884273Y-91796597D01*
X94880631Y-91804092D01*
X94858613Y-91872947D01*
X94854992Y-91894466D01*
X94854991Y-91894473D01*
X94845621Y-91950172D01*
X94844109Y-91959157D01*
X94833249Y-91993186D01*
X94817692Y-92025296D01*
X94797721Y-92054904D01*
X94773776Y-92081359D01*
X94746292Y-92104175D01*
X94715896Y-92122838D01*
X94683111Y-92137026D01*
X94661728Y-92142856D01*
X94648690Y-92146410D01*
X94613242Y-92150826D01*
X94593773Y-92150469D01*
X94577572Y-92150172D01*
X94542308Y-92144460D01*
X94525302Y-92139147D01*
X94525290Y-92139143D01*
X94525288Y-92139142D01*
X94508263Y-92133823D01*
X94476020Y-92118444D01*
X94446323Y-92098676D01*
X94419691Y-92074864D01*
X94396739Y-92047559D01*
X94377863Y-92017233D01*
X94363492Y-91984573D01*
X94353888Y-91950172D01*
X94345897Y-91889061D01*
X94345894Y-91889044D01*
X94345591Y-91886726D01*
X94337899Y-91849663D01*
X94327577Y-91813659D01*
X94324415Y-91803445D01*
X94307154Y-91773133D01*
X94278437Y-91722702D01*
X94278434Y-91722698D01*
X94275374Y-91717324D01*
X94239496Y-91675918D01*
X94230721Y-91665791D01*
X94230716Y-91665786D01*
X94228881Y-91663668D01*
X94196297Y-91632227D01*
X94108480Y-91586291D01*
X94040359Y-91566289D01*
X94035900Y-91565648D01*
X94035896Y-91565647D01*
X94004579Y-91561145D01*
X93968799Y-91556000D01*
X88986000Y-91556000D01*
X88982653Y-91556360D01*
X88982649Y-91556360D01*
X88935374Y-91561442D01*
X88935367Y-91561443D01*
X88932010Y-91561804D01*
X88928710Y-91562522D01*
X88928709Y-91562522D01*
X88881322Y-91572830D01*
X88881315Y-91572832D01*
X88879668Y-91573190D01*
X88853445Y-91580384D01*
X88817573Y-91600811D01*
X88772702Y-91626362D01*
X88772698Y-91626365D01*
X88767324Y-91629425D01*
X88756872Y-91638482D01*
X88730055Y-91661719D01*
X88713668Y-91675918D01*
X88682227Y-91708502D01*
X88636291Y-91796319D01*
X88616289Y-91864440D01*
X88606000Y-91936000D01*
X88606000Y-93423989D01*
X88606047Y-93425192D01*
X88606047Y-93425209D01*
X88606379Y-93433746D01*
X88606764Y-93443678D01*
X88608278Y-93463151D01*
X88631791Y-93551828D01*
X88662081Y-93616039D01*
X88663495Y-93618452D01*
X88680418Y-93647336D01*
X88680420Y-93647339D01*
X88684970Y-93655104D01*
X88757134Y-93723033D01*
X88817330Y-93760675D01*
X88819828Y-93761943D01*
X88819834Y-93761946D01*
X88855635Y-93780113D01*
X88907330Y-93828776D01*
X88924444Y-93885878D01*
X88932767Y-94044709D01*
X88982218Y-94202508D01*
X89069358Y-94343050D01*
X89067189Y-94344395D01*
X89089702Y-94398368D01*
X89077269Y-94468268D01*
X89029019Y-94520349D01*
X89009612Y-94529777D01*
X88954177Y-94551056D01*
X88954174Y-94551058D01*
X88946777Y-94553897D01*
X88879380Y-94601793D01*
X88818444Y-94645098D01*
X88818442Y-94645100D01*
X88811983Y-94649690D01*
X88705247Y-94775995D01*
X88633275Y-94924876D01*
X88600589Y-95086979D01*
X88609243Y-95252117D01*
X88658694Y-95409916D01*
X88730095Y-95525074D01*
X88745834Y-95550458D01*
X88743666Y-95551802D01*
X88766178Y-95605780D01*
X88753742Y-95675679D01*
X88705490Y-95727759D01*
X88686088Y-95737184D01*
X88623253Y-95761304D01*
X88593512Y-95782440D01*
X88494920Y-95852505D01*
X88494918Y-95852507D01*
X88488459Y-95857097D01*
X88381723Y-95983402D01*
X88309751Y-96132283D01*
X88277065Y-96294386D01*
X88277480Y-96302306D01*
X88277480Y-96302307D01*
X88279940Y-96349245D01*
X88285719Y-96459524D01*
X88335170Y-96617323D01*
X88366631Y-96668064D01*
X88422310Y-96757865D01*
X88420142Y-96759209D01*
X88442654Y-96813187D01*
X88430218Y-96883086D01*
X88381966Y-96935166D01*
X88362564Y-96944591D01*
X88299729Y-96968711D01*
X88273095Y-96987639D01*
X88171396Y-97059912D01*
X88171394Y-97059914D01*
X88164935Y-97064504D01*
X88058199Y-97190809D01*
X87986227Y-97339690D01*
X87953541Y-97501793D01*
X87962195Y-97666931D01*
X88011646Y-97824730D01*
X88098786Y-97965272D01*
X88096621Y-97966614D01*
X88119133Y-98020618D01*
X88106684Y-98090515D01*
X88058422Y-98142585D01*
X88039039Y-98151999D01*
X87976206Y-98176118D01*
X87908809Y-98224014D01*
X87847873Y-98267319D01*
X87847871Y-98267321D01*
X87841412Y-98271911D01*
X87734676Y-98398216D01*
X87662704Y-98547097D01*
X87630018Y-98709200D01*
X87630433Y-98717120D01*
X87630433Y-98717121D01*
X87632992Y-98765942D01*
X87638672Y-98874338D01*
X87688123Y-99032137D01*
X87775263Y-99172679D01*
X87894616Y-99287135D01*
X87901520Y-99291025D01*
X88031783Y-99364426D01*
X88031787Y-99364427D01*
X88038684Y-99368314D01*
X88046336Y-99370364D01*
X88046335Y-99370364D01*
X88594233Y-99517174D01*
X88654856Y-99554126D01*
X88685877Y-99617987D01*
X88686111Y-99620080D01*
X88685728Y-99624482D01*
X88705303Y-99721635D01*
X88727816Y-99775608D01*
X88728208Y-99775445D01*
X88733731Y-99785097D01*
X88744198Y-99813018D01*
X88747460Y-99818280D01*
X88747461Y-99818281D01*
X88806041Y-99912761D01*
X88819186Y-99941472D01*
X88839931Y-100007668D01*
X88845522Y-100038746D01*
X88849095Y-100106907D01*
X88849152Y-100108001D01*
X88846839Y-100139501D01*
X88833130Y-100207490D01*
X88823057Y-100237422D01*
X88799218Y-100286736D01*
X88792870Y-100299867D01*
X88775669Y-100326354D01*
X88737978Y-100370955D01*
X88737973Y-100370960D01*
X88730476Y-100379832D01*
X88730467Y-100379844D01*
X88699919Y-100415992D01*
X88699355Y-100417011D01*
X88698290Y-100418408D01*
X88685610Y-100433484D01*
X88682526Y-100439233D01*
X88682525Y-100439234D01*
X88663293Y-100475082D01*
X88636291Y-100525411D01*
X88616289Y-100593532D01*
X88613986Y-100609552D01*
X88584494Y-100674130D01*
X88524768Y-100712514D01*
X88456658Y-100713325D01*
X87564648Y-100474312D01*
X87561512Y-100473781D01*
X87540715Y-100470263D01*
X87540713Y-100470263D01*
X87533141Y-100468982D01*
X87396865Y-100479349D01*
X87388100Y-100482793D01*
X87388099Y-100482793D01*
X87336738Y-100502973D01*
X87269661Y-100529328D01*
X87262294Y-100535198D01*
X87262293Y-100535199D01*
X87237425Y-100555016D01*
X87162776Y-100614500D01*
X87157461Y-100622277D01*
X87089992Y-100720997D01*
X87089990Y-100721001D01*
X87085661Y-100727335D01*
X87074523Y-100757285D01*
X86942881Y-101248583D01*
X86937551Y-101280090D01*
X85312850Y-101280090D01*
X85270599Y-100697794D01*
X85270300Y-100691437D01*
X85269923Y-100674130D01*
X85259459Y-100194579D01*
X85254160Y-99951721D01*
X85254182Y-99945344D01*
X85271643Y-99339147D01*
X85275487Y-99205727D01*
X85275831Y-99199370D01*
X85275878Y-99198788D01*
X85316760Y-98685059D01*
X85334528Y-98461793D01*
X85335195Y-98455452D01*
X85431129Y-97721814D01*
X85432115Y-97715514D01*
X85439606Y-97674500D01*
X85529049Y-97184753D01*
X85565048Y-96987639D01*
X85566352Y-96981397D01*
X85611732Y-96788677D01*
X85735942Y-96261177D01*
X85737556Y-96255024D01*
X85770849Y-96140057D01*
X85933593Y-95578055D01*
X85943366Y-95544307D01*
X85945295Y-95538228D01*
X86157088Y-94924876D01*
X86186796Y-94838843D01*
X86189025Y-94832881D01*
X86214392Y-94769939D01*
X86465596Y-94146620D01*
X86468124Y-94140776D01*
X86516284Y-94036788D01*
X86779080Y-93469346D01*
X86781904Y-93463634D01*
X86785159Y-93457447D01*
X87126414Y-92808828D01*
X87129503Y-92803301D01*
X87506719Y-92166732D01*
X87510084Y-92161366D01*
X87832005Y-91675918D01*
X87919029Y-91544689D01*
X87922687Y-91539466D01*
X88138073Y-91247856D01*
X88362278Y-90944306D01*
X88366175Y-90939300D01*
X88674696Y-90563032D01*
X88835324Y-90367133D01*
X88839490Y-90362306D01*
X89336987Y-89814603D01*
X89341393Y-89809993D01*
X89401701Y-89750000D01*
X98741210Y-89750000D01*
X98760334Y-89968587D01*
X98817124Y-90180532D01*
X98819446Y-90185512D01*
X98819447Y-90185514D01*
X98907530Y-90374408D01*
X98907533Y-90374413D01*
X98909856Y-90379395D01*
X98913012Y-90383902D01*
X98913013Y-90383904D01*
X98991389Y-90495836D01*
X99035711Y-90559135D01*
X99190865Y-90714289D01*
X99195373Y-90717446D01*
X99195376Y-90717448D01*
X99366096Y-90836987D01*
X99370605Y-90840144D01*
X99375587Y-90842467D01*
X99375592Y-90842470D01*
X99564486Y-90930553D01*
X99569468Y-90932876D01*
X99574776Y-90934298D01*
X99574778Y-90934299D01*
X99776098Y-90988242D01*
X99776100Y-90988242D01*
X99781413Y-90989666D01*
X100000000Y-91008790D01*
X100218587Y-90989666D01*
X100223900Y-90988242D01*
X100223902Y-90988242D01*
X100425222Y-90934299D01*
X100425224Y-90934298D01*
X100430532Y-90932876D01*
X100435514Y-90930553D01*
X100624408Y-90842470D01*
X100624413Y-90842467D01*
X100629395Y-90840144D01*
X100633904Y-90836987D01*
X100804624Y-90717448D01*
X100804627Y-90717446D01*
X100809135Y-90714289D01*
X100964289Y-90559135D01*
X101008612Y-90495836D01*
X101086987Y-90383904D01*
X101086988Y-90383902D01*
X101090144Y-90379395D01*
X101092467Y-90374413D01*
X101092470Y-90374408D01*
X101180553Y-90185514D01*
X101180554Y-90185512D01*
X101182876Y-90180532D01*
X101239666Y-89968587D01*
X101258790Y-89750000D01*
X101239666Y-89531413D01*
X101230303Y-89496468D01*
X101184299Y-89324778D01*
X101184298Y-89324776D01*
X101182876Y-89319468D01*
X101180553Y-89314486D01*
X101092470Y-89125592D01*
X101092467Y-89125587D01*
X101090144Y-89120605D01*
X101061362Y-89079500D01*
X100967448Y-88945376D01*
X100967446Y-88945373D01*
X100964289Y-88940865D01*
X100809135Y-88785711D01*
X100804627Y-88782554D01*
X100804624Y-88782552D01*
X100633904Y-88663013D01*
X100633902Y-88663012D01*
X100629395Y-88659856D01*
X100624413Y-88657533D01*
X100624408Y-88657530D01*
X100435514Y-88569447D01*
X100435512Y-88569446D01*
X100430532Y-88567124D01*
X100425224Y-88565702D01*
X100425222Y-88565701D01*
X100223902Y-88511758D01*
X100223900Y-88511758D01*
X100218587Y-88510334D01*
X100000000Y-88491210D01*
X99781413Y-88510334D01*
X99776100Y-88511758D01*
X99776098Y-88511758D01*
X99574778Y-88565701D01*
X99574776Y-88565702D01*
X99569468Y-88567124D01*
X99564488Y-88569446D01*
X99564486Y-88569447D01*
X99375592Y-88657530D01*
X99375587Y-88657533D01*
X99370605Y-88659856D01*
X99366098Y-88663012D01*
X99366096Y-88663013D01*
X99195376Y-88782552D01*
X99195373Y-88782554D01*
X99190865Y-88785711D01*
X99035711Y-88940865D01*
X99032554Y-88945373D01*
X99032552Y-88945376D01*
X98938638Y-89079500D01*
X98909856Y-89120605D01*
X98907533Y-89125587D01*
X98907530Y-89125592D01*
X98819447Y-89314486D01*
X98817124Y-89319468D01*
X98815702Y-89324776D01*
X98815701Y-89324778D01*
X98769697Y-89496468D01*
X98760334Y-89531413D01*
X98742121Y-89739584D01*
X98741210Y-89750000D01*
X89401701Y-89750000D01*
X89865939Y-89288187D01*
X89870572Y-89283805D01*
X89876468Y-89278506D01*
X90046594Y-89125592D01*
X90420872Y-88789182D01*
X90425721Y-88785041D01*
X91000317Y-88318911D01*
X91005369Y-88315020D01*
X91514456Y-87943106D01*
X91602847Y-87878532D01*
X91608063Y-87874920D01*
X92226849Y-87469226D01*
X92232270Y-87465866D01*
X92275325Y-87440656D01*
X92870776Y-87092006D01*
X92876320Y-87088944D01*
X93532959Y-86747848D01*
X93538691Y-86745053D01*
X94211690Y-86437640D01*
X94217555Y-86435138D01*
X94363392Y-86377250D01*
X94905287Y-86162151D01*
X94911236Y-86159963D01*
X95611876Y-85922127D01*
X95617964Y-85920230D01*
X96287425Y-85730161D01*
X96329768Y-85718139D01*
X96335941Y-85716555D01*
X96416150Y-85698111D01*
X97057017Y-85550744D01*
X97063232Y-85549479D01*
X97515158Y-85469385D01*
X97791822Y-85420353D01*
X97798127Y-85419400D01*
X98532253Y-85327310D01*
X98538598Y-85326676D01*
X99276490Y-85271841D01*
X99282859Y-85271530D01*
X99759462Y-85260297D01*
X100022554Y-85254097D01*
X100028915Y-85254108D01*
G37*
%TD.AperFunction*%
%TA.AperFunction,Conductor*%
G36*
X91701533Y-98849464D02*
G01*
X91702290Y-98849469D01*
X91719367Y-98849573D01*
X91754699Y-98854854D01*
X91782666Y-98863218D01*
X91782668Y-98863218D01*
X91788878Y-98865076D01*
X91821300Y-98880058D01*
X91851239Y-98899463D01*
X91878158Y-98922945D01*
X91899331Y-98947517D01*
X91901443Y-98949968D01*
X91920692Y-98980068D01*
X91935456Y-99012542D01*
X91945481Y-99046828D01*
X91950758Y-99083676D01*
X91950285Y-99122443D01*
X91944108Y-99159157D01*
X91933248Y-99193187D01*
X91930536Y-99198785D01*
X91930534Y-99198788D01*
X91917692Y-99225294D01*
X91897715Y-99254911D01*
X91873779Y-99281355D01*
X91846292Y-99304175D01*
X91815896Y-99322838D01*
X91783111Y-99337026D01*
X91761728Y-99342856D01*
X91748690Y-99346410D01*
X91713242Y-99350826D01*
X91693773Y-99350469D01*
X91677572Y-99350172D01*
X91642308Y-99344460D01*
X91625302Y-99339147D01*
X91625290Y-99339143D01*
X91625288Y-99339142D01*
X91608263Y-99333823D01*
X91576020Y-99318444D01*
X91546323Y-99298676D01*
X91519691Y-99274864D01*
X91496739Y-99247559D01*
X91477860Y-99217228D01*
X91463494Y-99184577D01*
X91453888Y-99150172D01*
X91452524Y-99139742D01*
X91452104Y-99136532D01*
X91449262Y-99114798D01*
X91449698Y-99079082D01*
X91455186Y-99043830D01*
X91465631Y-99009669D01*
X91478889Y-98981430D01*
X91478892Y-98981427D01*
X91480788Y-98977387D01*
X91500407Y-98947517D01*
X91524020Y-98920781D01*
X91551222Y-98897630D01*
X91581392Y-98878593D01*
X91614002Y-98864006D01*
X91648304Y-98854202D01*
X91683691Y-98849355D01*
X91701533Y-98849464D01*
G37*
%TD.AperFunction*%
%TA.AperFunction,Conductor*%
G36*
X101966784Y-98285505D02*
G01*
X101966778Y-98286523D01*
X101980322Y-98286606D01*
X101980324Y-98286606D01*
X102038122Y-98286958D01*
X102038125Y-98286958D01*
X102038765Y-98286962D01*
X102056869Y-98287073D01*
X102092197Y-98292353D01*
X102114857Y-98299130D01*
X102126374Y-98302574D01*
X102158798Y-98317556D01*
X102188744Y-98336967D01*
X102215658Y-98360445D01*
X102236892Y-98385088D01*
X102238943Y-98387468D01*
X102258192Y-98417568D01*
X102272956Y-98450042D01*
X102282981Y-98484328D01*
X102288258Y-98521176D01*
X102287785Y-98559942D01*
X102280909Y-98600813D01*
X102275632Y-98619713D01*
X102276007Y-98619831D01*
X102258000Y-98677127D01*
X102218494Y-98736116D01*
X102169112Y-98759659D01*
X102169529Y-98761190D01*
X102169528Y-98761190D01*
X102086188Y-98783911D01*
X102050744Y-98788326D01*
X102032051Y-98787983D01*
X102015072Y-98787672D01*
X101979808Y-98781960D01*
X101962802Y-98776647D01*
X101962790Y-98776643D01*
X101962788Y-98776642D01*
X101945763Y-98771323D01*
X101913520Y-98755944D01*
X101883823Y-98736176D01*
X101857191Y-98712364D01*
X101834239Y-98685059D01*
X101815363Y-98654733D01*
X101800992Y-98622073D01*
X101791388Y-98587670D01*
X101788502Y-98565601D01*
X101788501Y-98565595D01*
X101788495Y-98565548D01*
X101788494Y-98565544D01*
X101786762Y-98552301D01*
X101787198Y-98516578D01*
X101795628Y-98462435D01*
X101796607Y-98456950D01*
X101797613Y-98451952D01*
X101799420Y-98446044D01*
X101800040Y-98439899D01*
X101800913Y-98435563D01*
X101803046Y-98429147D01*
X101803004Y-98429137D01*
X101812537Y-98388223D01*
X101812819Y-98386648D01*
X101813141Y-98385088D01*
X101846482Y-98322407D01*
X101908418Y-98287702D01*
X101928430Y-98284784D01*
X101940233Y-98284022D01*
X101944375Y-98283755D01*
X101966784Y-98285505D01*
G37*
%TD.AperFunction*%
%TA.AperFunction,Conductor*%
G36*
X91601533Y-96349464D02*
G01*
X91602290Y-96349469D01*
X91619367Y-96349573D01*
X91654700Y-96354854D01*
X91688872Y-96365074D01*
X91721300Y-96380058D01*
X91751239Y-96399463D01*
X91778158Y-96422945D01*
X91799336Y-96447523D01*
X91801443Y-96449968D01*
X91820691Y-96480066D01*
X91835455Y-96512539D01*
X91845480Y-96546818D01*
X91845723Y-96548515D01*
X91850759Y-96583678D01*
X91850285Y-96622441D01*
X91844108Y-96659157D01*
X91833247Y-96693190D01*
X91817694Y-96725292D01*
X91797719Y-96754907D01*
X91773776Y-96781359D01*
X91746292Y-96804175D01*
X91715896Y-96822838D01*
X91683111Y-96837026D01*
X91661728Y-96842856D01*
X91648690Y-96846410D01*
X91613242Y-96850826D01*
X91593773Y-96850469D01*
X91577572Y-96850172D01*
X91542308Y-96844460D01*
X91525302Y-96839147D01*
X91525290Y-96839143D01*
X91525288Y-96839142D01*
X91508263Y-96833823D01*
X91476020Y-96818444D01*
X91446323Y-96798676D01*
X91419694Y-96774867D01*
X91396738Y-96747559D01*
X91377861Y-96717230D01*
X91363494Y-96684578D01*
X91353888Y-96650170D01*
X91352796Y-96641819D01*
X91349263Y-96614801D01*
X91349699Y-96579080D01*
X91355187Y-96543831D01*
X91365632Y-96509665D01*
X91380791Y-96477378D01*
X91400403Y-96447523D01*
X91424016Y-96420785D01*
X91451222Y-96397630D01*
X91481398Y-96378590D01*
X91514002Y-96364006D01*
X91548304Y-96354202D01*
X91583691Y-96349355D01*
X91601533Y-96349464D01*
G37*
%TD.AperFunction*%
%TA.AperFunction,Conductor*%
G36*
X105801533Y-95509464D02*
G01*
X105802323Y-95509469D01*
X105819368Y-95509573D01*
X105854700Y-95514854D01*
X105888873Y-95525074D01*
X105921303Y-95540058D01*
X105951239Y-95559462D01*
X105978158Y-95582945D01*
X106001442Y-95609967D01*
X106020690Y-95640065D01*
X106035455Y-95672540D01*
X106045481Y-95706827D01*
X106050758Y-95743674D01*
X106050285Y-95782440D01*
X106044108Y-95819158D01*
X106033245Y-95853195D01*
X106025471Y-95869240D01*
X106025472Y-95869240D01*
X106017694Y-95885294D01*
X105997720Y-95914907D01*
X105973781Y-95941355D01*
X105946296Y-95964172D01*
X105929822Y-95974287D01*
X105929816Y-95974291D01*
X105929803Y-95974299D01*
X105929802Y-95974300D01*
X105888151Y-95999874D01*
X105880112Y-96004179D01*
X105880178Y-96004304D01*
X105871505Y-96008913D01*
X105866994Y-96012496D01*
X105866991Y-96012498D01*
X105842405Y-96032027D01*
X105776623Y-96058733D01*
X105706845Y-96045635D01*
X105652557Y-95992082D01*
X105652331Y-95991653D01*
X105650525Y-95987536D01*
X105648155Y-95983723D01*
X105648152Y-95983718D01*
X105626102Y-95948249D01*
X105612355Y-95926136D01*
X105596740Y-95907560D01*
X105577861Y-95877230D01*
X105563496Y-95844583D01*
X105559927Y-95831803D01*
X105559082Y-95832085D01*
X105559081Y-95832082D01*
X105554789Y-95813406D01*
X105553890Y-95810187D01*
X105553681Y-95808590D01*
X105553682Y-95808590D01*
X105553679Y-95808576D01*
X105549262Y-95774802D01*
X105549698Y-95739078D01*
X105555186Y-95703832D01*
X105565630Y-95669670D01*
X105567863Y-95664914D01*
X105580791Y-95637377D01*
X105600402Y-95607523D01*
X105624022Y-95580779D01*
X105651228Y-95557625D01*
X105671588Y-95544779D01*
X105671591Y-95544777D01*
X105672336Y-95544307D01*
X105681392Y-95538593D01*
X105714003Y-95524005D01*
X105748299Y-95514204D01*
X105783691Y-95509355D01*
X105801533Y-95509464D01*
G37*
%TD.AperFunction*%
%TA.AperFunction,Conductor*%
G36*
X92601533Y-93049464D02*
G01*
X92602290Y-93049469D01*
X92619367Y-93049573D01*
X92654700Y-93054854D01*
X92688872Y-93065074D01*
X92721300Y-93080058D01*
X92751239Y-93099463D01*
X92778158Y-93122945D01*
X92799333Y-93147519D01*
X92801443Y-93149968D01*
X92820692Y-93180068D01*
X92835456Y-93212542D01*
X92845481Y-93246828D01*
X92850758Y-93283676D01*
X92850285Y-93322440D01*
X92844109Y-93359154D01*
X92833242Y-93393200D01*
X92831436Y-93396926D01*
X92831437Y-93396926D01*
X92817694Y-93425292D01*
X92797719Y-93454907D01*
X92773776Y-93481359D01*
X92746292Y-93504175D01*
X92715896Y-93522838D01*
X92683111Y-93537026D01*
X92661728Y-93542856D01*
X92648690Y-93546410D01*
X92613242Y-93550826D01*
X92595039Y-93550492D01*
X92577578Y-93550172D01*
X92542314Y-93544460D01*
X92508261Y-93533821D01*
X92476018Y-93518442D01*
X92446321Y-93498674D01*
X92419695Y-93474868D01*
X92396737Y-93447557D01*
X92377862Y-93417233D01*
X92363492Y-93384573D01*
X92353888Y-93350171D01*
X92349704Y-93318176D01*
X92349704Y-93318174D01*
X92349700Y-93318146D01*
X92349699Y-93318144D01*
X92349263Y-93314811D01*
X92349698Y-93279079D01*
X92355186Y-93243832D01*
X92365630Y-93209670D01*
X92379528Y-93180068D01*
X92380791Y-93177377D01*
X92400403Y-93147522D01*
X92424020Y-93120781D01*
X92451221Y-93097631D01*
X92481398Y-93078590D01*
X92514002Y-93064006D01*
X92548304Y-93054202D01*
X92583691Y-93049355D01*
X92601533Y-93049464D01*
G37*
%TD.AperFunction*%
%TD*%
M02*
