%TF.GenerationSoftware,KiCad,Pcbnew,(6.0.0)*%
%TF.CreationDate,2022-02-06T18:38:23+08:00*%
%TF.ProjectId,FurutaPendulum_Power_Board,46757275-7461-4506-956e-64756c756d5f,rev?*%
%TF.SameCoordinates,Original*%
%TF.FileFunction,Copper,L2,Inr*%
%TF.FilePolarity,Positive*%
%FSLAX46Y46*%
G04 Gerber Fmt 4.6, Leading zero omitted, Abs format (unit mm)*
G04 Created by KiCad (PCBNEW (6.0.0)) date 2022-02-06 18:38:23*
%MOMM*%
%LPD*%
G01*
G04 APERTURE LIST*
G04 Aperture macros list*
%AMRoundRect*
0 Rectangle with rounded corners*
0 $1 Rounding radius*
0 $2 $3 $4 $5 $6 $7 $8 $9 X,Y pos of 4 corners*
0 Add a 4 corners polygon primitive as box body*
4,1,4,$2,$3,$4,$5,$6,$7,$8,$9,$2,$3,0*
0 Add four circle primitives for the rounded corners*
1,1,$1+$1,$2,$3*
1,1,$1+$1,$4,$5*
1,1,$1+$1,$6,$7*
1,1,$1+$1,$8,$9*
0 Add four rect primitives between the rounded corners*
20,1,$1+$1,$2,$3,$4,$5,0*
20,1,$1+$1,$4,$5,$6,$7,0*
20,1,$1+$1,$6,$7,$8,$9,0*
20,1,$1+$1,$8,$9,$2,$3,0*%
G04 Aperture macros list end*
%TA.AperFunction,ComponentPad*%
%ADD10RoundRect,0.200000X0.200000X0.450000X-0.200000X0.450000X-0.200000X-0.450000X0.200000X-0.450000X0*%
%TD*%
%TA.AperFunction,ComponentPad*%
%ADD11O,0.800000X1.300000*%
%TD*%
%TA.AperFunction,ComponentPad*%
%ADD12RoundRect,0.200000X-0.200000X-0.450000X0.200000X-0.450000X0.200000X0.450000X-0.200000X0.450000X0*%
%TD*%
%TA.AperFunction,ComponentPad*%
%ADD13O,1.000000X2.100000*%
%TD*%
%TA.AperFunction,ComponentPad*%
%ADD14O,1.000000X1.600000*%
%TD*%
%TA.AperFunction,ViaPad*%
%ADD15C,0.500000*%
%TD*%
G04 APERTURE END LIST*
D10*
%TO.N,+12V*%
%TO.C,J2*%
X104375000Y-97200000D03*
D11*
%TO.N,GND*%
X103125000Y-97200000D03*
%TO.N,SWDIO*%
X101875000Y-97200000D03*
%TO.N,SWCLK*%
X100625000Y-97200000D03*
%TO.N,USART_TX*%
X99375000Y-97200000D03*
%TO.N,USART_RX*%
X98125000Y-97200000D03*
%TO.N,Button*%
X96875000Y-97200000D03*
%TO.N,+3V3*%
X95625000Y-97200000D03*
%TD*%
D12*
%TO.N,+3V3*%
%TO.C,J3*%
X92625000Y-113550000D03*
D11*
%TO.N,GND*%
X93875000Y-113550000D03*
%TO.N,SWCLK*%
X95125000Y-113550000D03*
%TO.N,SWDIO*%
X96375000Y-113550000D03*
%TD*%
D13*
%TO.N,GND*%
%TO.C,J1*%
X108320000Y-111370000D03*
D14*
X99680000Y-115550000D03*
X108320000Y-115550000D03*
D13*
X99680000Y-111370000D03*
%TD*%
D15*
%TO.N,D+*%
X104010000Y-108890000D03*
X91540000Y-104690000D03*
%TO.N,D-*%
X92530000Y-104630011D03*
X103250741Y-108894086D03*
%TO.N,GND*%
X93720000Y-97370000D03*
X104725000Y-105125000D03*
X98400000Y-110350000D03*
X98400000Y-111225000D03*
X97650000Y-111225000D03*
X97650000Y-110350000D03*
X92520000Y-101850000D03*
X100975000Y-104200000D03*
X99725000Y-104200000D03*
X107250000Y-102610000D03*
%TD*%
%TA.AperFunction,Conductor*%
%TO.N,GND*%
G36*
X107261690Y-93274002D02*
G01*
X107308183Y-93327658D01*
X107318287Y-93397932D01*
X107288793Y-93462512D01*
X107265840Y-93483213D01*
X107195376Y-93532552D01*
X107195373Y-93532554D01*
X107190865Y-93535711D01*
X107035711Y-93690865D01*
X107032554Y-93695373D01*
X107032552Y-93695376D01*
X106938638Y-93829500D01*
X106909856Y-93870605D01*
X106907533Y-93875587D01*
X106907530Y-93875592D01*
X106819447Y-94064486D01*
X106817124Y-94069468D01*
X106760334Y-94281413D01*
X106742121Y-94489584D01*
X106741210Y-94500000D01*
X106760334Y-94718587D01*
X106817124Y-94930532D01*
X106819446Y-94935512D01*
X106819447Y-94935514D01*
X106907530Y-95124408D01*
X106907533Y-95124413D01*
X106909856Y-95129395D01*
X106913012Y-95133902D01*
X106913013Y-95133904D01*
X106991389Y-95245836D01*
X107035711Y-95309135D01*
X107190865Y-95464289D01*
X107195373Y-95467446D01*
X107195376Y-95467448D01*
X107366096Y-95586987D01*
X107370605Y-95590144D01*
X107375587Y-95592467D01*
X107375592Y-95592470D01*
X107564486Y-95680553D01*
X107569468Y-95682876D01*
X107574776Y-95684298D01*
X107574778Y-95684299D01*
X107776098Y-95738242D01*
X107776100Y-95738242D01*
X107781413Y-95739666D01*
X108000000Y-95758790D01*
X108218587Y-95739666D01*
X108223900Y-95738242D01*
X108223902Y-95738242D01*
X108425222Y-95684299D01*
X108425224Y-95684298D01*
X108430532Y-95682876D01*
X108435514Y-95680553D01*
X108624408Y-95592470D01*
X108624413Y-95592467D01*
X108629395Y-95590144D01*
X108633904Y-95586987D01*
X108804624Y-95467448D01*
X108804627Y-95467446D01*
X108809135Y-95464289D01*
X108964289Y-95309135D01*
X109016787Y-95234160D01*
X109072244Y-95189832D01*
X109142863Y-95182523D01*
X109206224Y-95214554D01*
X109242209Y-95275755D01*
X109246000Y-95306431D01*
X109246000Y-106193569D01*
X109225998Y-106261690D01*
X109172342Y-106308183D01*
X109102068Y-106318287D01*
X109037488Y-106288793D01*
X109016787Y-106265840D01*
X108967448Y-106195376D01*
X108967446Y-106195373D01*
X108964289Y-106190865D01*
X108809135Y-106035711D01*
X108804627Y-106032554D01*
X108804624Y-106032552D01*
X108633904Y-105913013D01*
X108633902Y-105913012D01*
X108629395Y-105909856D01*
X108624413Y-105907533D01*
X108624408Y-105907530D01*
X108435514Y-105819447D01*
X108435512Y-105819446D01*
X108430532Y-105817124D01*
X108425224Y-105815702D01*
X108425222Y-105815701D01*
X108223902Y-105761758D01*
X108223900Y-105761758D01*
X108218587Y-105760334D01*
X108000000Y-105741210D01*
X107781413Y-105760334D01*
X107776100Y-105761758D01*
X107776098Y-105761758D01*
X107574778Y-105815701D01*
X107574776Y-105815702D01*
X107569468Y-105817124D01*
X107564488Y-105819446D01*
X107564486Y-105819447D01*
X107375592Y-105907530D01*
X107375587Y-105907533D01*
X107370605Y-105909856D01*
X107366098Y-105913012D01*
X107366096Y-105913013D01*
X107195376Y-106032552D01*
X107195373Y-106032554D01*
X107190865Y-106035711D01*
X107035711Y-106190865D01*
X107032554Y-106195373D01*
X107032552Y-106195376D01*
X106938638Y-106329500D01*
X106909856Y-106370605D01*
X106907533Y-106375587D01*
X106907530Y-106375592D01*
X106819447Y-106564486D01*
X106817124Y-106569468D01*
X106760334Y-106781413D01*
X106742121Y-106989584D01*
X106741210Y-107000000D01*
X106760334Y-107218587D01*
X106817124Y-107430532D01*
X106819446Y-107435512D01*
X106819447Y-107435514D01*
X106907530Y-107624408D01*
X106907533Y-107624413D01*
X106909856Y-107629395D01*
X106913012Y-107633902D01*
X106913013Y-107633904D01*
X106991389Y-107745836D01*
X107035711Y-107809135D01*
X107190865Y-107964289D01*
X107195373Y-107967446D01*
X107195376Y-107967448D01*
X107366096Y-108086987D01*
X107370605Y-108090144D01*
X107375587Y-108092467D01*
X107375592Y-108092470D01*
X107564486Y-108180553D01*
X107569468Y-108182876D01*
X107574776Y-108184298D01*
X107574778Y-108184299D01*
X107776098Y-108238242D01*
X107776100Y-108238242D01*
X107781413Y-108239666D01*
X108000000Y-108258790D01*
X108218587Y-108239666D01*
X108223900Y-108238242D01*
X108223902Y-108238242D01*
X108425222Y-108184299D01*
X108425224Y-108184298D01*
X108430532Y-108182876D01*
X108435514Y-108180553D01*
X108624408Y-108092470D01*
X108624413Y-108092467D01*
X108629395Y-108090144D01*
X108633904Y-108086987D01*
X108804624Y-107967448D01*
X108804627Y-107967446D01*
X108809135Y-107964289D01*
X108964289Y-107809135D01*
X109016787Y-107734160D01*
X109072244Y-107689832D01*
X109142863Y-107682523D01*
X109206224Y-107714554D01*
X109242209Y-107775755D01*
X109246000Y-107806431D01*
X109246000Y-115962575D01*
X109243579Y-115987153D01*
X109241024Y-116000000D01*
X109243445Y-116012172D01*
X109243445Y-116019754D01*
X109242838Y-116032104D01*
X109232882Y-116133188D01*
X109228065Y-116157408D01*
X109192813Y-116273617D01*
X109183369Y-116296418D01*
X109126124Y-116403517D01*
X109112406Y-116424047D01*
X109035374Y-116517909D01*
X109017909Y-116535374D01*
X108924047Y-116612406D01*
X108903517Y-116626124D01*
X108796418Y-116683369D01*
X108773617Y-116692813D01*
X108657408Y-116728065D01*
X108633188Y-116732882D01*
X108532104Y-116742838D01*
X108519754Y-116743445D01*
X108512172Y-116743445D01*
X108500000Y-116741024D01*
X108487153Y-116743579D01*
X108462575Y-116746000D01*
X91537425Y-116746000D01*
X91512847Y-116743579D01*
X91500000Y-116741024D01*
X91487828Y-116743445D01*
X91480246Y-116743445D01*
X91467896Y-116742838D01*
X91366812Y-116732882D01*
X91342592Y-116728065D01*
X91226383Y-116692813D01*
X91203582Y-116683369D01*
X91096483Y-116626124D01*
X91075953Y-116612406D01*
X90982091Y-116535374D01*
X90964626Y-116517909D01*
X90887594Y-116424047D01*
X90873876Y-116403517D01*
X90816631Y-116296418D01*
X90807187Y-116273617D01*
X90771935Y-116157408D01*
X90767118Y-116133188D01*
X90757162Y-116032104D01*
X90756555Y-116019754D01*
X90756555Y-116012172D01*
X90758976Y-116000000D01*
X90756421Y-115987153D01*
X90754000Y-115962575D01*
X90754000Y-113045685D01*
X91970500Y-113045685D01*
X91970501Y-114054314D01*
X91973507Y-114086127D01*
X92018791Y-114215076D01*
X92099990Y-114325010D01*
X92209924Y-114406209D01*
X92338873Y-114451493D01*
X92346515Y-114452215D01*
X92346518Y-114452216D01*
X92361421Y-114453624D01*
X92370685Y-114454500D01*
X92624828Y-114454500D01*
X92879314Y-114454499D01*
X92882262Y-114454220D01*
X92882271Y-114454220D01*
X92903478Y-114452216D01*
X92903480Y-114452216D01*
X92911127Y-114451493D01*
X93040076Y-114406209D01*
X93150010Y-114325010D01*
X93231209Y-114215076D01*
X93276493Y-114086127D01*
X93279500Y-114054315D01*
X93279500Y-113841178D01*
X94470500Y-113841178D01*
X94486024Y-113964061D01*
X94546899Y-114117814D01*
X94551557Y-114124225D01*
X94551558Y-114124227D01*
X94592698Y-114180851D01*
X94644098Y-114251597D01*
X94771514Y-114357005D01*
X94921141Y-114427414D01*
X95016298Y-114445566D01*
X95075791Y-114456915D01*
X95075793Y-114456915D01*
X95083577Y-114458400D01*
X95248616Y-114448017D01*
X95322415Y-114424038D01*
X95398351Y-114399365D01*
X95398354Y-114399364D01*
X95405887Y-114396916D01*
X95412577Y-114392670D01*
X95412580Y-114392669D01*
X95482636Y-114348210D01*
X95545510Y-114308309D01*
X95658710Y-114187763D01*
X95660569Y-114189508D01*
X95706891Y-114153791D01*
X95777627Y-114147717D01*
X95840418Y-114180851D01*
X95854537Y-114197146D01*
X95894098Y-114251597D01*
X96021514Y-114357005D01*
X96171141Y-114427414D01*
X96266298Y-114445566D01*
X96325791Y-114456915D01*
X96325793Y-114456915D01*
X96333577Y-114458400D01*
X96498616Y-114448017D01*
X96572415Y-114424038D01*
X96648351Y-114399365D01*
X96648354Y-114399364D01*
X96655887Y-114396916D01*
X96662577Y-114392670D01*
X96662580Y-114392669D01*
X96732636Y-114348210D01*
X96795510Y-114308309D01*
X96908710Y-114187763D01*
X96988375Y-114042853D01*
X97029500Y-113882683D01*
X97029500Y-113258822D01*
X97013976Y-113135939D01*
X96953101Y-112982186D01*
X96907325Y-112919180D01*
X96895463Y-112902854D01*
X96855902Y-112848403D01*
X96728486Y-112742995D01*
X96578859Y-112672586D01*
X96465973Y-112651052D01*
X96424209Y-112643085D01*
X96424207Y-112643085D01*
X96416423Y-112641600D01*
X96251384Y-112651983D01*
X96243840Y-112654434D01*
X96243841Y-112654434D01*
X96101649Y-112700635D01*
X96101646Y-112700636D01*
X96094113Y-112703084D01*
X96087423Y-112707330D01*
X96087420Y-112707331D01*
X96031223Y-112742995D01*
X95954490Y-112791691D01*
X95841290Y-112912237D01*
X95839431Y-112910492D01*
X95793109Y-112946209D01*
X95722373Y-112952283D01*
X95659582Y-112919149D01*
X95645463Y-112902854D01*
X95610561Y-112854816D01*
X95605902Y-112848403D01*
X95478486Y-112742995D01*
X95328859Y-112672586D01*
X95215973Y-112651052D01*
X95174209Y-112643085D01*
X95174207Y-112643085D01*
X95166423Y-112641600D01*
X95001384Y-112651983D01*
X94993840Y-112654434D01*
X94993841Y-112654434D01*
X94851649Y-112700635D01*
X94851646Y-112700636D01*
X94844113Y-112703084D01*
X94837423Y-112707330D01*
X94837420Y-112707331D01*
X94781223Y-112742995D01*
X94704490Y-112791691D01*
X94591290Y-112912237D01*
X94511625Y-113057147D01*
X94470500Y-113217317D01*
X94470500Y-113841178D01*
X93279500Y-113841178D01*
X93279499Y-113045686D01*
X93276493Y-113013873D01*
X93231209Y-112884924D01*
X93150010Y-112774990D01*
X93040076Y-112693791D01*
X92911127Y-112648507D01*
X92903485Y-112647785D01*
X92903482Y-112647784D01*
X92888579Y-112646376D01*
X92879315Y-112645500D01*
X92625172Y-112645500D01*
X92370686Y-112645501D01*
X92367738Y-112645780D01*
X92367729Y-112645780D01*
X92346522Y-112647784D01*
X92346520Y-112647784D01*
X92338873Y-112648507D01*
X92209924Y-112693791D01*
X92099990Y-112774990D01*
X92018791Y-112884924D01*
X91973507Y-113013873D01*
X91970500Y-113045685D01*
X90754000Y-113045685D01*
X90754000Y-111900000D01*
X100525500Y-111900000D01*
X100545416Y-112051280D01*
X100603808Y-112192250D01*
X100696696Y-112313304D01*
X100817750Y-112406192D01*
X100958720Y-112464584D01*
X101072020Y-112479500D01*
X101147980Y-112479500D01*
X101261280Y-112464584D01*
X101402250Y-112406192D01*
X101523304Y-112313304D01*
X101616192Y-112192250D01*
X101674584Y-112051280D01*
X101694500Y-111900000D01*
X106305500Y-111900000D01*
X106325416Y-112051280D01*
X106383808Y-112192250D01*
X106476696Y-112313304D01*
X106597750Y-112406192D01*
X106738720Y-112464584D01*
X106852020Y-112479500D01*
X106927980Y-112479500D01*
X107041280Y-112464584D01*
X107182250Y-112406192D01*
X107303304Y-112313304D01*
X107396192Y-112192250D01*
X107454584Y-112051280D01*
X107474500Y-111900000D01*
X107454584Y-111748720D01*
X107396192Y-111607750D01*
X107303304Y-111486696D01*
X107182250Y-111393808D01*
X107041280Y-111335416D01*
X106927980Y-111320500D01*
X106852020Y-111320500D01*
X106738720Y-111335416D01*
X106597750Y-111393808D01*
X106476696Y-111486696D01*
X106383808Y-111607750D01*
X106325416Y-111748720D01*
X106305500Y-111900000D01*
X101694500Y-111900000D01*
X101674584Y-111748720D01*
X101616192Y-111607750D01*
X101523304Y-111486696D01*
X101402250Y-111393808D01*
X101261280Y-111335416D01*
X101147980Y-111320500D01*
X101072020Y-111320500D01*
X100958720Y-111335416D01*
X100817750Y-111393808D01*
X100696696Y-111486696D01*
X100603808Y-111607750D01*
X100545416Y-111748720D01*
X100525500Y-111900000D01*
X90754000Y-111900000D01*
X90754000Y-108887859D01*
X102741091Y-108887859D01*
X102742255Y-108896761D01*
X102742255Y-108896764D01*
X102742999Y-108902453D01*
X102759829Y-109031151D01*
X102818030Y-109163425D01*
X102911017Y-109274046D01*
X102918488Y-109279019D01*
X102918489Y-109279020D01*
X103023842Y-109349149D01*
X103023844Y-109349150D01*
X103031315Y-109354123D01*
X103039879Y-109356799D01*
X103039882Y-109356800D01*
X103100283Y-109375671D01*
X103169251Y-109397218D01*
X103313739Y-109399866D01*
X103323452Y-109397218D01*
X103444504Y-109364216D01*
X103444506Y-109364215D01*
X103453163Y-109361855D01*
X103480511Y-109345063D01*
X103569244Y-109290581D01*
X103637762Y-109271983D01*
X103704992Y-109293069D01*
X103783101Y-109345063D01*
X103783103Y-109345064D01*
X103790574Y-109350037D01*
X103799138Y-109352713D01*
X103799141Y-109352714D01*
X103828400Y-109361855D01*
X103928510Y-109393132D01*
X104072998Y-109395780D01*
X104092530Y-109390455D01*
X104203763Y-109360130D01*
X104203765Y-109360129D01*
X104212422Y-109357769D01*
X104335572Y-109282154D01*
X104432551Y-109175014D01*
X104495560Y-109044962D01*
X104519536Y-108902453D01*
X104519688Y-108890000D01*
X104499201Y-108746948D01*
X104439388Y-108615395D01*
X104433530Y-108608596D01*
X104433527Y-108608592D01*
X104350916Y-108512718D01*
X104350913Y-108512716D01*
X104345056Y-108505918D01*
X104284423Y-108466618D01*
X104231324Y-108432200D01*
X104231322Y-108432199D01*
X104223790Y-108427317D01*
X104206921Y-108422272D01*
X104093938Y-108388482D01*
X104093936Y-108388482D01*
X104085337Y-108385910D01*
X104076363Y-108385855D01*
X104076361Y-108385855D01*
X104013082Y-108385469D01*
X103940827Y-108385028D01*
X103932196Y-108387495D01*
X103932194Y-108387495D01*
X103810509Y-108422272D01*
X103810505Y-108422274D01*
X103801879Y-108424739D01*
X103794288Y-108429528D01*
X103794287Y-108429529D01*
X103693873Y-108492885D01*
X103625588Y-108512319D01*
X103558106Y-108492055D01*
X103472065Y-108436286D01*
X103472063Y-108436285D01*
X103464531Y-108431403D01*
X103434000Y-108422272D01*
X103334679Y-108392568D01*
X103334677Y-108392568D01*
X103326078Y-108389996D01*
X103317104Y-108389941D01*
X103317102Y-108389941D01*
X103253823Y-108389555D01*
X103181568Y-108389114D01*
X103172937Y-108391581D01*
X103172935Y-108391581D01*
X103051250Y-108426358D01*
X103051246Y-108426360D01*
X103042620Y-108428825D01*
X103035033Y-108433612D01*
X103035031Y-108433613D01*
X102941091Y-108492885D01*
X102920402Y-108505939D01*
X102824740Y-108614256D01*
X102820926Y-108622379D01*
X102820925Y-108622381D01*
X102791265Y-108685555D01*
X102763324Y-108745068D01*
X102761944Y-108753932D01*
X102761943Y-108753935D01*
X102761648Y-108755835D01*
X102741091Y-108887859D01*
X90754000Y-108887859D01*
X90754000Y-107806431D01*
X90774002Y-107738310D01*
X90827658Y-107691817D01*
X90897932Y-107681713D01*
X90962512Y-107711207D01*
X90983213Y-107734160D01*
X91035711Y-107809135D01*
X91190865Y-107964289D01*
X91195373Y-107967446D01*
X91195376Y-107967448D01*
X91366096Y-108086987D01*
X91370605Y-108090144D01*
X91375587Y-108092467D01*
X91375592Y-108092470D01*
X91564486Y-108180553D01*
X91569468Y-108182876D01*
X91574776Y-108184298D01*
X91574778Y-108184299D01*
X91776098Y-108238242D01*
X91776100Y-108238242D01*
X91781413Y-108239666D01*
X92000000Y-108258790D01*
X92218587Y-108239666D01*
X92223900Y-108238242D01*
X92223902Y-108238242D01*
X92425222Y-108184299D01*
X92425224Y-108184298D01*
X92430532Y-108182876D01*
X92435514Y-108180553D01*
X92624408Y-108092470D01*
X92624413Y-108092467D01*
X92629395Y-108090144D01*
X92633904Y-108086987D01*
X92804624Y-107967448D01*
X92804627Y-107967446D01*
X92809135Y-107964289D01*
X92964289Y-107809135D01*
X93008612Y-107745836D01*
X93086987Y-107633904D01*
X93086988Y-107633902D01*
X93090144Y-107629395D01*
X93092467Y-107624413D01*
X93092470Y-107624408D01*
X93180553Y-107435514D01*
X93180554Y-107435512D01*
X93182876Y-107430532D01*
X93239666Y-107218587D01*
X93258790Y-107000000D01*
X93239666Y-106781413D01*
X93182876Y-106569468D01*
X93180553Y-106564486D01*
X93092470Y-106375592D01*
X93092467Y-106375587D01*
X93090144Y-106370605D01*
X93061362Y-106329500D01*
X92967448Y-106195376D01*
X92967446Y-106195373D01*
X92964289Y-106190865D01*
X92809135Y-106035711D01*
X92804627Y-106032554D01*
X92804624Y-106032552D01*
X92633904Y-105913013D01*
X92633902Y-105913012D01*
X92629395Y-105909856D01*
X92624413Y-105907533D01*
X92624408Y-105907530D01*
X92435514Y-105819447D01*
X92435512Y-105819446D01*
X92430532Y-105817124D01*
X92425224Y-105815702D01*
X92425222Y-105815701D01*
X92223902Y-105761758D01*
X92223900Y-105761758D01*
X92218587Y-105760334D01*
X92000000Y-105741210D01*
X91781413Y-105760334D01*
X91776100Y-105761758D01*
X91776098Y-105761758D01*
X91574778Y-105815701D01*
X91574776Y-105815702D01*
X91569468Y-105817124D01*
X91564488Y-105819446D01*
X91564486Y-105819447D01*
X91375592Y-105907530D01*
X91375587Y-105907533D01*
X91370605Y-105909856D01*
X91366098Y-105913012D01*
X91366096Y-105913013D01*
X91195376Y-106032552D01*
X91195373Y-106032554D01*
X91190865Y-106035711D01*
X91035711Y-106190865D01*
X91032554Y-106195373D01*
X91032552Y-106195376D01*
X90983213Y-106265840D01*
X90927756Y-106310168D01*
X90857137Y-106317477D01*
X90793776Y-106285446D01*
X90757791Y-106224245D01*
X90754000Y-106193569D01*
X90754000Y-104683773D01*
X91030350Y-104683773D01*
X91049088Y-104827065D01*
X91107289Y-104959339D01*
X91200276Y-105069960D01*
X91207747Y-105074933D01*
X91207748Y-105074934D01*
X91313101Y-105145063D01*
X91313103Y-105145064D01*
X91320574Y-105150037D01*
X91329138Y-105152713D01*
X91329141Y-105152714D01*
X91389542Y-105171585D01*
X91458510Y-105193132D01*
X91602998Y-105195780D01*
X91622530Y-105190455D01*
X91733763Y-105160130D01*
X91733765Y-105160129D01*
X91742422Y-105157769D01*
X91865572Y-105082154D01*
X91962551Y-104975014D01*
X91963491Y-104975865D01*
X92011257Y-104936298D01*
X92081738Y-104927758D01*
X92145648Y-104958678D01*
X92157492Y-104970970D01*
X92166418Y-104981588D01*
X92190276Y-105009971D01*
X92197747Y-105014944D01*
X92197748Y-105014945D01*
X92303101Y-105085074D01*
X92303103Y-105085075D01*
X92310574Y-105090048D01*
X92319138Y-105092724D01*
X92319141Y-105092725D01*
X92379542Y-105111595D01*
X92448510Y-105133143D01*
X92592998Y-105135791D01*
X92612530Y-105130466D01*
X92723763Y-105100141D01*
X92723765Y-105100140D01*
X92732422Y-105097780D01*
X92855572Y-105022165D01*
X92952551Y-104915025D01*
X93015560Y-104784973D01*
X93039536Y-104642464D01*
X93039688Y-104630011D01*
X93019201Y-104486959D01*
X92959388Y-104355406D01*
X92953530Y-104348607D01*
X92953527Y-104348603D01*
X92870916Y-104252729D01*
X92870913Y-104252727D01*
X92865056Y-104245929D01*
X92804423Y-104206628D01*
X92751324Y-104172211D01*
X92751322Y-104172210D01*
X92743790Y-104167328D01*
X92726921Y-104162283D01*
X92613938Y-104128493D01*
X92613936Y-104128493D01*
X92605337Y-104125921D01*
X92596363Y-104125866D01*
X92596361Y-104125866D01*
X92533082Y-104125480D01*
X92460827Y-104125039D01*
X92452196Y-104127506D01*
X92452194Y-104127506D01*
X92330509Y-104162283D01*
X92330505Y-104162285D01*
X92321879Y-104164750D01*
X92314292Y-104169537D01*
X92314290Y-104169538D01*
X92219214Y-104229527D01*
X92199661Y-104241864D01*
X92193718Y-104248593D01*
X92193717Y-104248594D01*
X92140737Y-104308583D01*
X92103999Y-104350181D01*
X92101436Y-104347917D01*
X92059906Y-104383170D01*
X91989533Y-104392559D01*
X91925256Y-104362411D01*
X91913279Y-104350278D01*
X91875056Y-104305918D01*
X91792996Y-104252729D01*
X91761324Y-104232200D01*
X91761322Y-104232199D01*
X91753790Y-104227317D01*
X91736921Y-104222272D01*
X91623938Y-104188482D01*
X91623936Y-104188482D01*
X91615337Y-104185910D01*
X91606363Y-104185855D01*
X91606361Y-104185855D01*
X91543082Y-104185469D01*
X91470827Y-104185028D01*
X91462196Y-104187495D01*
X91462194Y-104187495D01*
X91340509Y-104222272D01*
X91340505Y-104222274D01*
X91331879Y-104224739D01*
X91324292Y-104229526D01*
X91324290Y-104229527D01*
X91217254Y-104297062D01*
X91209661Y-104301853D01*
X91203718Y-104308582D01*
X91203717Y-104308583D01*
X91132914Y-104388752D01*
X91113999Y-104410170D01*
X91052583Y-104540982D01*
X91051203Y-104549846D01*
X91051202Y-104549849D01*
X91037539Y-104637604D01*
X91030350Y-104683773D01*
X90754000Y-104683773D01*
X90754000Y-97491178D01*
X94970500Y-97491178D01*
X94986024Y-97614061D01*
X95046899Y-97767814D01*
X95051557Y-97774225D01*
X95051558Y-97774227D01*
X95092698Y-97830851D01*
X95144098Y-97901597D01*
X95271514Y-98007005D01*
X95421141Y-98077414D01*
X95516298Y-98095566D01*
X95575791Y-98106915D01*
X95575793Y-98106915D01*
X95583577Y-98108400D01*
X95748616Y-98098017D01*
X95822415Y-98074038D01*
X95898351Y-98049365D01*
X95898354Y-98049364D01*
X95905887Y-98046916D01*
X95912577Y-98042670D01*
X95912580Y-98042669D01*
X95982636Y-97998210D01*
X96045510Y-97958309D01*
X96158710Y-97837763D01*
X96160569Y-97839508D01*
X96206891Y-97803791D01*
X96277627Y-97797717D01*
X96340418Y-97830851D01*
X96354537Y-97847146D01*
X96394098Y-97901597D01*
X96521514Y-98007005D01*
X96671141Y-98077414D01*
X96766298Y-98095566D01*
X96825791Y-98106915D01*
X96825793Y-98106915D01*
X96833577Y-98108400D01*
X96998616Y-98098017D01*
X97072415Y-98074038D01*
X97148351Y-98049365D01*
X97148354Y-98049364D01*
X97155887Y-98046916D01*
X97162577Y-98042670D01*
X97162580Y-98042669D01*
X97232636Y-97998210D01*
X97295510Y-97958309D01*
X97408710Y-97837763D01*
X97410569Y-97839508D01*
X97456891Y-97803791D01*
X97527627Y-97797717D01*
X97590418Y-97830851D01*
X97604537Y-97847146D01*
X97644098Y-97901597D01*
X97771514Y-98007005D01*
X97921141Y-98077414D01*
X98016298Y-98095566D01*
X98075791Y-98106915D01*
X98075793Y-98106915D01*
X98083577Y-98108400D01*
X98248616Y-98098017D01*
X98322415Y-98074038D01*
X98398351Y-98049365D01*
X98398354Y-98049364D01*
X98405887Y-98046916D01*
X98412577Y-98042670D01*
X98412580Y-98042669D01*
X98482636Y-97998210D01*
X98545510Y-97958309D01*
X98658710Y-97837763D01*
X98660569Y-97839508D01*
X98706891Y-97803791D01*
X98777627Y-97797717D01*
X98840418Y-97830851D01*
X98854537Y-97847146D01*
X98894098Y-97901597D01*
X99021514Y-98007005D01*
X99171141Y-98077414D01*
X99266298Y-98095566D01*
X99325791Y-98106915D01*
X99325793Y-98106915D01*
X99333577Y-98108400D01*
X99498616Y-98098017D01*
X99572415Y-98074038D01*
X99648351Y-98049365D01*
X99648354Y-98049364D01*
X99655887Y-98046916D01*
X99662577Y-98042670D01*
X99662580Y-98042669D01*
X99732636Y-97998210D01*
X99795510Y-97958309D01*
X99908710Y-97837763D01*
X99910569Y-97839508D01*
X99956891Y-97803791D01*
X100027627Y-97797717D01*
X100090418Y-97830851D01*
X100104537Y-97847146D01*
X100144098Y-97901597D01*
X100271514Y-98007005D01*
X100421141Y-98077414D01*
X100516298Y-98095566D01*
X100575791Y-98106915D01*
X100575793Y-98106915D01*
X100583577Y-98108400D01*
X100748616Y-98098017D01*
X100822415Y-98074038D01*
X100898351Y-98049365D01*
X100898354Y-98049364D01*
X100905887Y-98046916D01*
X100912577Y-98042670D01*
X100912580Y-98042669D01*
X100982636Y-97998210D01*
X101045510Y-97958309D01*
X101158710Y-97837763D01*
X101160569Y-97839508D01*
X101206891Y-97803791D01*
X101277627Y-97797717D01*
X101340418Y-97830851D01*
X101354537Y-97847146D01*
X101394098Y-97901597D01*
X101521514Y-98007005D01*
X101671141Y-98077414D01*
X101766298Y-98095566D01*
X101825791Y-98106915D01*
X101825793Y-98106915D01*
X101833577Y-98108400D01*
X101998616Y-98098017D01*
X102072415Y-98074038D01*
X102148351Y-98049365D01*
X102148354Y-98049364D01*
X102155887Y-98046916D01*
X102162577Y-98042670D01*
X102162580Y-98042669D01*
X102232636Y-97998210D01*
X102295510Y-97958309D01*
X102408710Y-97837763D01*
X102488375Y-97692853D01*
X102529500Y-97532683D01*
X102529500Y-96908822D01*
X102513976Y-96785939D01*
X102478242Y-96695685D01*
X103720500Y-96695685D01*
X103720501Y-97704314D01*
X103723507Y-97736127D01*
X103768791Y-97865076D01*
X103849990Y-97975010D01*
X103959924Y-98056209D01*
X104088873Y-98101493D01*
X104096515Y-98102215D01*
X104096518Y-98102216D01*
X104111421Y-98103624D01*
X104120685Y-98104500D01*
X104374828Y-98104500D01*
X104629314Y-98104499D01*
X104632262Y-98104220D01*
X104632271Y-98104220D01*
X104653478Y-98102216D01*
X104653480Y-98102216D01*
X104661127Y-98101493D01*
X104790076Y-98056209D01*
X104900010Y-97975010D01*
X104981209Y-97865076D01*
X105026493Y-97736127D01*
X105029500Y-97704315D01*
X105029499Y-96695686D01*
X105026493Y-96663873D01*
X104981209Y-96534924D01*
X104900010Y-96424990D01*
X104790076Y-96343791D01*
X104661127Y-96298507D01*
X104653485Y-96297785D01*
X104653482Y-96297784D01*
X104638579Y-96296376D01*
X104629315Y-96295500D01*
X104375172Y-96295500D01*
X104120686Y-96295501D01*
X104117738Y-96295780D01*
X104117729Y-96295780D01*
X104096522Y-96297784D01*
X104096520Y-96297784D01*
X104088873Y-96298507D01*
X103959924Y-96343791D01*
X103849990Y-96424990D01*
X103768791Y-96534924D01*
X103723507Y-96663873D01*
X103720500Y-96695685D01*
X102478242Y-96695685D01*
X102453101Y-96632186D01*
X102407325Y-96569180D01*
X102395463Y-96552854D01*
X102355902Y-96498403D01*
X102228486Y-96392995D01*
X102078859Y-96322586D01*
X101965973Y-96301052D01*
X101924209Y-96293085D01*
X101924207Y-96293085D01*
X101916423Y-96291600D01*
X101751384Y-96301983D01*
X101743840Y-96304434D01*
X101743841Y-96304434D01*
X101601649Y-96350635D01*
X101601646Y-96350636D01*
X101594113Y-96353084D01*
X101587423Y-96357330D01*
X101587420Y-96357331D01*
X101531223Y-96392995D01*
X101454490Y-96441691D01*
X101341290Y-96562237D01*
X101339431Y-96560492D01*
X101293109Y-96596209D01*
X101222373Y-96602283D01*
X101159582Y-96569149D01*
X101145463Y-96552854D01*
X101110561Y-96504816D01*
X101105902Y-96498403D01*
X100978486Y-96392995D01*
X100828859Y-96322586D01*
X100715973Y-96301052D01*
X100674209Y-96293085D01*
X100674207Y-96293085D01*
X100666423Y-96291600D01*
X100501384Y-96301983D01*
X100493840Y-96304434D01*
X100493841Y-96304434D01*
X100351649Y-96350635D01*
X100351646Y-96350636D01*
X100344113Y-96353084D01*
X100337423Y-96357330D01*
X100337420Y-96357331D01*
X100281223Y-96392995D01*
X100204490Y-96441691D01*
X100091290Y-96562237D01*
X100089431Y-96560492D01*
X100043109Y-96596209D01*
X99972373Y-96602283D01*
X99909582Y-96569149D01*
X99895463Y-96552854D01*
X99860561Y-96504816D01*
X99855902Y-96498403D01*
X99728486Y-96392995D01*
X99578859Y-96322586D01*
X99465973Y-96301052D01*
X99424209Y-96293085D01*
X99424207Y-96293085D01*
X99416423Y-96291600D01*
X99251384Y-96301983D01*
X99243840Y-96304434D01*
X99243841Y-96304434D01*
X99101649Y-96350635D01*
X99101646Y-96350636D01*
X99094113Y-96353084D01*
X99087423Y-96357330D01*
X99087420Y-96357331D01*
X99031223Y-96392995D01*
X98954490Y-96441691D01*
X98841290Y-96562237D01*
X98839431Y-96560492D01*
X98793109Y-96596209D01*
X98722373Y-96602283D01*
X98659582Y-96569149D01*
X98645463Y-96552854D01*
X98610561Y-96504816D01*
X98605902Y-96498403D01*
X98478486Y-96392995D01*
X98328859Y-96322586D01*
X98215973Y-96301052D01*
X98174209Y-96293085D01*
X98174207Y-96293085D01*
X98166423Y-96291600D01*
X98001384Y-96301983D01*
X97993840Y-96304434D01*
X97993841Y-96304434D01*
X97851649Y-96350635D01*
X97851646Y-96350636D01*
X97844113Y-96353084D01*
X97837423Y-96357330D01*
X97837420Y-96357331D01*
X97781223Y-96392995D01*
X97704490Y-96441691D01*
X97591290Y-96562237D01*
X97589431Y-96560492D01*
X97543109Y-96596209D01*
X97472373Y-96602283D01*
X97409582Y-96569149D01*
X97395463Y-96552854D01*
X97360561Y-96504816D01*
X97355902Y-96498403D01*
X97228486Y-96392995D01*
X97078859Y-96322586D01*
X96965973Y-96301052D01*
X96924209Y-96293085D01*
X96924207Y-96293085D01*
X96916423Y-96291600D01*
X96751384Y-96301983D01*
X96743840Y-96304434D01*
X96743841Y-96304434D01*
X96601649Y-96350635D01*
X96601646Y-96350636D01*
X96594113Y-96353084D01*
X96587423Y-96357330D01*
X96587420Y-96357331D01*
X96531223Y-96392995D01*
X96454490Y-96441691D01*
X96341290Y-96562237D01*
X96339431Y-96560492D01*
X96293109Y-96596209D01*
X96222373Y-96602283D01*
X96159582Y-96569149D01*
X96145463Y-96552854D01*
X96110561Y-96504816D01*
X96105902Y-96498403D01*
X95978486Y-96392995D01*
X95828859Y-96322586D01*
X95715973Y-96301052D01*
X95674209Y-96293085D01*
X95674207Y-96293085D01*
X95666423Y-96291600D01*
X95501384Y-96301983D01*
X95493840Y-96304434D01*
X95493841Y-96304434D01*
X95351649Y-96350635D01*
X95351646Y-96350636D01*
X95344113Y-96353084D01*
X95337423Y-96357330D01*
X95337420Y-96357331D01*
X95281223Y-96392995D01*
X95204490Y-96441691D01*
X95091290Y-96562237D01*
X95011625Y-96707147D01*
X94970500Y-96867317D01*
X94970500Y-97491178D01*
X90754000Y-97491178D01*
X90754000Y-95306431D01*
X90774002Y-95238310D01*
X90827658Y-95191817D01*
X90897932Y-95181713D01*
X90962512Y-95211207D01*
X90983213Y-95234160D01*
X91035711Y-95309135D01*
X91190865Y-95464289D01*
X91195373Y-95467446D01*
X91195376Y-95467448D01*
X91366096Y-95586987D01*
X91370605Y-95590144D01*
X91375587Y-95592467D01*
X91375592Y-95592470D01*
X91564486Y-95680553D01*
X91569468Y-95682876D01*
X91574776Y-95684298D01*
X91574778Y-95684299D01*
X91776098Y-95738242D01*
X91776100Y-95738242D01*
X91781413Y-95739666D01*
X92000000Y-95758790D01*
X92218587Y-95739666D01*
X92223900Y-95738242D01*
X92223902Y-95738242D01*
X92425222Y-95684299D01*
X92425224Y-95684298D01*
X92430532Y-95682876D01*
X92435514Y-95680553D01*
X92624408Y-95592470D01*
X92624413Y-95592467D01*
X92629395Y-95590144D01*
X92633904Y-95586987D01*
X92804624Y-95467448D01*
X92804627Y-95467446D01*
X92809135Y-95464289D01*
X92964289Y-95309135D01*
X93008612Y-95245836D01*
X93086987Y-95133904D01*
X93086988Y-95133902D01*
X93090144Y-95129395D01*
X93092467Y-95124413D01*
X93092470Y-95124408D01*
X93180553Y-94935514D01*
X93180554Y-94935512D01*
X93182876Y-94930532D01*
X93239666Y-94718587D01*
X93258790Y-94500000D01*
X93239666Y-94281413D01*
X93182876Y-94069468D01*
X93180553Y-94064486D01*
X93092470Y-93875592D01*
X93092467Y-93875587D01*
X93090144Y-93870605D01*
X93061362Y-93829500D01*
X92967448Y-93695376D01*
X92967446Y-93695373D01*
X92964289Y-93690865D01*
X92809135Y-93535711D01*
X92804627Y-93532554D01*
X92804624Y-93532552D01*
X92734160Y-93483213D01*
X92689832Y-93427756D01*
X92682523Y-93357137D01*
X92714554Y-93293776D01*
X92775755Y-93257791D01*
X92806431Y-93254000D01*
X107193569Y-93254000D01*
X107261690Y-93274002D01*
G37*
%TD.AperFunction*%
%TD*%
M02*
