%TF.GenerationSoftware,KiCad,Pcbnew,(6.0.0)*%
%TF.CreationDate,2022-02-06T18:38:24+08:00*%
%TF.ProjectId,FurutaPendulum_Power_Board,46757275-7461-4506-956e-64756c756d5f,rev?*%
%TF.SameCoordinates,Original*%
%TF.FileFunction,Soldermask,Top*%
%TF.FilePolarity,Negative*%
%FSLAX46Y46*%
G04 Gerber Fmt 4.6, Leading zero omitted, Abs format (unit mm)*
G04 Created by KiCad (PCBNEW (6.0.0)) date 2022-02-06 18:38:24*
%MOMM*%
%LPD*%
G01*
G04 APERTURE LIST*
G04 Aperture macros list*
%AMRoundRect*
0 Rectangle with rounded corners*
0 $1 Rounding radius*
0 $2 $3 $4 $5 $6 $7 $8 $9 X,Y pos of 4 corners*
0 Add a 4 corners polygon primitive as box body*
4,1,4,$2,$3,$4,$5,$6,$7,$8,$9,$2,$3,0*
0 Add four circle primitives for the rounded corners*
1,1,$1+$1,$2,$3*
1,1,$1+$1,$4,$5*
1,1,$1+$1,$6,$7*
1,1,$1+$1,$8,$9*
0 Add four rect primitives between the rounded corners*
20,1,$1+$1,$2,$3,$4,$5,0*
20,1,$1+$1,$4,$5,$6,$7,0*
20,1,$1+$1,$6,$7,$8,$9,0*
20,1,$1+$1,$8,$9,$2,$3,0*%
G04 Aperture macros list end*
%ADD10RoundRect,0.375000X0.375000X0.825000X-0.375000X0.825000X-0.375000X-0.825000X0.375000X-0.825000X0*%
%ADD11RoundRect,0.155000X-0.212500X-0.155000X0.212500X-0.155000X0.212500X0.155000X-0.212500X0.155000X0*%
%ADD12R,1.200000X0.900000*%
%ADD13RoundRect,0.200000X0.200000X0.450000X-0.200000X0.450000X-0.200000X-0.450000X0.200000X-0.450000X0*%
%ADD14O,0.800000X1.300000*%
%ADD15RoundRect,0.250000X-0.650000X0.325000X-0.650000X-0.325000X0.650000X-0.325000X0.650000X0.325000X0*%
%ADD16RoundRect,0.150000X-0.512500X-0.150000X0.512500X-0.150000X0.512500X0.150000X-0.512500X0.150000X0*%
%ADD17RoundRect,0.160000X-0.197500X-0.160000X0.197500X-0.160000X0.197500X0.160000X-0.197500X0.160000X0*%
%ADD18RoundRect,0.250000X-0.325000X-0.650000X0.325000X-0.650000X0.325000X0.650000X-0.325000X0.650000X0*%
%ADD19RoundRect,0.150000X0.150000X-0.512500X0.150000X0.512500X-0.150000X0.512500X-0.150000X-0.512500X0*%
%ADD20RoundRect,0.200000X-0.200000X-0.450000X0.200000X-0.450000X0.200000X0.450000X-0.200000X0.450000X0*%
%ADD21R,0.300000X1.400000*%
%ADD22C,0.650000*%
%ADD23R,0.600000X1.450000*%
%ADD24R,0.300000X1.450000*%
%ADD25O,1.000000X2.100000*%
%ADD26O,1.000000X1.600000*%
G04 APERTURE END LIST*
D10*
%TO.C,L1*%
X104325000Y-101970000D03*
X99875000Y-101970000D03*
%TD*%
D11*
%TO.C,C4*%
X92632500Y-111300000D03*
X93767500Y-111300000D03*
%TD*%
D12*
%TO.C,D1*%
X97680000Y-100510000D03*
X97680000Y-103810000D03*
%TD*%
D11*
%TO.C,C3*%
X91532500Y-97370000D03*
X92667500Y-97370000D03*
%TD*%
D13*
%TO.C,J2*%
X104375000Y-97200000D03*
D14*
X103125000Y-97200000D03*
X101875000Y-97200000D03*
X100625000Y-97200000D03*
X99375000Y-97200000D03*
X98125000Y-97200000D03*
X96875000Y-97200000D03*
X95625000Y-97200000D03*
%TD*%
D11*
%TO.C,C6*%
X106865000Y-100200000D03*
X108000000Y-100200000D03*
%TD*%
%TO.C,C2*%
X102642500Y-105120000D03*
X103777500Y-105120000D03*
%TD*%
%TO.C,C5*%
X106865000Y-99100000D03*
X108000000Y-99100000D03*
%TD*%
D15*
%TO.C,C8*%
X95340000Y-103655000D03*
X95340000Y-106605000D03*
%TD*%
D16*
%TO.C,U1*%
X97562500Y-105520000D03*
X97562500Y-106470000D03*
X97562500Y-107420000D03*
X99837500Y-107420000D03*
X99837500Y-106470000D03*
X99837500Y-105520000D03*
%TD*%
D17*
%TO.C,R1*%
X95402500Y-108810000D03*
X96597500Y-108810000D03*
%TD*%
D18*
%TO.C,C1*%
X101905000Y-107030000D03*
X104855000Y-107030000D03*
%TD*%
D19*
%TO.C,U2*%
X106300000Y-103937500D03*
X107250000Y-103937500D03*
X108200000Y-103937500D03*
X108200000Y-101662500D03*
X106300000Y-101662500D03*
%TD*%
D20*
%TO.C,J3*%
X92625000Y-113550000D03*
D14*
X93875000Y-113550000D03*
X95125000Y-113550000D03*
X96375000Y-113550000D03*
%TD*%
D21*
%TO.C,U3*%
X91530000Y-103340000D03*
X92030000Y-103340000D03*
X92530000Y-103340000D03*
X93030000Y-103340000D03*
X93530000Y-103340000D03*
X93530000Y-98940000D03*
X93030000Y-98940000D03*
X92530000Y-98940000D03*
X92030000Y-98940000D03*
X91530000Y-98940000D03*
%TD*%
D11*
%TO.C,C7*%
X95412500Y-110080000D03*
X96547500Y-110080000D03*
%TD*%
D17*
%TO.C,R2*%
X97932500Y-108900000D03*
X99127500Y-108900000D03*
%TD*%
D22*
%TO.C,J1*%
X101110000Y-111900000D03*
X106890000Y-111900000D03*
D23*
X100750000Y-110455000D03*
X101550000Y-110455000D03*
D24*
X102750000Y-110455000D03*
X103750000Y-110455000D03*
X104250000Y-110455000D03*
X105250000Y-110455000D03*
D23*
X106450000Y-110455000D03*
X107250000Y-110455000D03*
X107250000Y-110455000D03*
X106450000Y-110455000D03*
D24*
X105750000Y-110455000D03*
X104750000Y-110455000D03*
X103250000Y-110455000D03*
X102250000Y-110455000D03*
D23*
X101550000Y-110455000D03*
X100750000Y-110455000D03*
D25*
X108320000Y-111370000D03*
D26*
X99680000Y-115550000D03*
X108320000Y-115550000D03*
D25*
X99680000Y-111370000D03*
%TD*%
M02*
