M48
; DRILL file {KiCad (6.0.0)} date Sun Feb  6 18:38:29 2022
; FORMAT={-:-/ absolute / inch / decimal}
; #@! TF.CreationDate,2022-02-06T18:38:29+08:00
; #@! TF.GenerationSoftware,Kicad,Pcbnew,(6.0.0)
; #@! TF.FileFunction,MixedPlating,1,4
FMAT,2
INCH
; #@! TA.AperFunction,Plated,PTH,ViaDrill
T1C0.0118
; #@! TA.AperFunction,Plated,PTH,ComponentDrill
T2C0.0197
; #@! TA.AperFunction,Plated,PTH,ComponentDrill
T3C0.0236
; #@! TA.AperFunction,NonPlated,NPTH,ComponentDrill
T4C0.0256
%
G90
G05
T1
X3.6039Y-4.1217
X3.6425Y-4.0098
X3.6429Y-4.1193
X3.6898Y-3.8335
X3.8445Y-4.3445
X3.8445Y-4.3789
X3.874Y-4.3445
X3.874Y-4.3789
X3.9262Y-4.1024
X3.9754Y-4.1024
X4.065Y-4.2872
X4.0949Y-4.287
X4.123Y-4.1388
X4.2224Y-4.0398
T2
X3.6467Y-4.4705
X3.6959Y-4.4705
X3.7451Y-4.4705
X3.7648Y-3.8268
X3.7943Y-4.4705
X3.814Y-3.8268
X3.8632Y-3.8268
X3.9124Y-3.8268
X3.9616Y-3.8268
X4.0108Y-3.8268
X4.06Y-3.8268
X4.1093Y-3.8268
T4
X3.9807Y-4.4055
X4.2083Y-4.4055
T3
G00X3.9244Y-4.363
M15
G01X3.9244Y-4.4063
M16
G05
G00X3.9244Y-4.5374
M15
G01X3.9244Y-4.561
M16
G05
G00X4.2646Y-4.363
M15
G01X4.2646Y-4.4063
M16
G05
G00X4.2646Y-4.5374
M15
G01X4.2646Y-4.561
M16
G05
T0
M30
