%TF.GenerationSoftware,KiCad,Pcbnew,(6.0.0)*%
%TF.CreationDate,2022-02-06T18:38:24+08:00*%
%TF.ProjectId,FurutaPendulum_Power_Board,46757275-7461-4506-956e-64756c756d5f,rev?*%
%TF.SameCoordinates,Original*%
%TF.FileFunction,Legend,Top*%
%TF.FilePolarity,Positive*%
%FSLAX46Y46*%
G04 Gerber Fmt 4.6, Leading zero omitted, Abs format (unit mm)*
G04 Created by KiCad (PCBNEW (6.0.0)) date 2022-02-06 18:38:24*
%MOMM*%
%LPD*%
G01*
G04 APERTURE LIST*
%ADD10C,0.150000*%
%ADD11C,0.100000*%
%ADD12C,0.120000*%
G04 APERTURE END LIST*
D10*
X96616666Y-93752380D02*
X96616666Y-94466666D01*
X96569047Y-94609523D01*
X96473809Y-94704761D01*
X96330952Y-94752380D01*
X96235714Y-94752380D01*
X97569047Y-94752380D02*
X97092857Y-94752380D01*
X97092857Y-93752380D01*
X98473809Y-94657142D02*
X98426190Y-94704761D01*
X98283333Y-94752380D01*
X98188095Y-94752380D01*
X98045238Y-94704761D01*
X97950000Y-94609523D01*
X97902380Y-94514285D01*
X97854761Y-94323809D01*
X97854761Y-94180952D01*
X97902380Y-93990476D01*
X97950000Y-93895238D01*
X98045238Y-93800000D01*
X98188095Y-93752380D01*
X98283333Y-93752380D01*
X98426190Y-93800000D01*
X98473809Y-93847619D01*
X99188095Y-93752380D02*
X99188095Y-94466666D01*
X99140476Y-94609523D01*
X99045238Y-94704761D01*
X98902380Y-94752380D01*
X98807142Y-94752380D01*
X100140476Y-94752380D02*
X99664285Y-94752380D01*
X99664285Y-93752380D01*
X101045238Y-94657142D02*
X100997619Y-94704761D01*
X100854761Y-94752380D01*
X100759523Y-94752380D01*
X100616666Y-94704761D01*
X100521428Y-94609523D01*
X100473809Y-94514285D01*
X100426190Y-94323809D01*
X100426190Y-94180952D01*
X100473809Y-93990476D01*
X100521428Y-93895238D01*
X100616666Y-93800000D01*
X100759523Y-93752380D01*
X100854761Y-93752380D01*
X100997619Y-93800000D01*
X101045238Y-93847619D01*
X101759523Y-93752380D02*
X101759523Y-94466666D01*
X101711904Y-94609523D01*
X101616666Y-94704761D01*
X101473809Y-94752380D01*
X101378571Y-94752380D01*
X102711904Y-94752380D02*
X102235714Y-94752380D01*
X102235714Y-93752380D01*
X103616666Y-94657142D02*
X103569047Y-94704761D01*
X103426190Y-94752380D01*
X103330952Y-94752380D01*
X103188095Y-94704761D01*
X103092857Y-94609523D01*
X103045238Y-94514285D01*
X102997619Y-94323809D01*
X102997619Y-94180952D01*
X103045238Y-93990476D01*
X103092857Y-93895238D01*
X103188095Y-93800000D01*
X103330952Y-93752380D01*
X103426190Y-93752380D01*
X103569047Y-93800000D01*
X103616666Y-93847619D01*
D11*
%TO.C,L1*%
X102041666Y-102196190D02*
X101803571Y-102196190D01*
X101803571Y-101696190D01*
X102470238Y-102196190D02*
X102184523Y-102196190D01*
X102327380Y-102196190D02*
X102327380Y-101696190D01*
X102279761Y-101767619D01*
X102232142Y-101815238D01*
X102184523Y-101839047D01*
%TO.C,C4*%
X91526666Y-111478571D02*
X91502857Y-111502380D01*
X91431428Y-111526190D01*
X91383809Y-111526190D01*
X91312380Y-111502380D01*
X91264761Y-111454761D01*
X91240952Y-111407142D01*
X91217142Y-111311904D01*
X91217142Y-111240476D01*
X91240952Y-111145238D01*
X91264761Y-111097619D01*
X91312380Y-111050000D01*
X91383809Y-111026190D01*
X91431428Y-111026190D01*
X91502857Y-111050000D01*
X91526666Y-111073809D01*
X91955238Y-111192857D02*
X91955238Y-111526190D01*
X91836190Y-111002380D02*
X91717142Y-111359523D01*
X92026666Y-111359523D01*
%TO.C,D1*%
X97310952Y-102386190D02*
X97310952Y-101886190D01*
X97430000Y-101886190D01*
X97501428Y-101910000D01*
X97549047Y-101957619D01*
X97572857Y-102005238D01*
X97596666Y-102100476D01*
X97596666Y-102171904D01*
X97572857Y-102267142D01*
X97549047Y-102314761D01*
X97501428Y-102362380D01*
X97430000Y-102386190D01*
X97310952Y-102386190D01*
X98072857Y-102386190D02*
X97787142Y-102386190D01*
X97930000Y-102386190D02*
X97930000Y-101886190D01*
X97882380Y-101957619D01*
X97834761Y-102005238D01*
X97787142Y-102029047D01*
%TO.C,C3*%
X91966666Y-96678571D02*
X91942857Y-96702380D01*
X91871428Y-96726190D01*
X91823809Y-96726190D01*
X91752380Y-96702380D01*
X91704761Y-96654761D01*
X91680952Y-96607142D01*
X91657142Y-96511904D01*
X91657142Y-96440476D01*
X91680952Y-96345238D01*
X91704761Y-96297619D01*
X91752380Y-96250000D01*
X91823809Y-96226190D01*
X91871428Y-96226190D01*
X91942857Y-96250000D01*
X91966666Y-96273809D01*
X92133333Y-96226190D02*
X92442857Y-96226190D01*
X92276190Y-96416666D01*
X92347619Y-96416666D01*
X92395238Y-96440476D01*
X92419047Y-96464285D01*
X92442857Y-96511904D01*
X92442857Y-96630952D01*
X92419047Y-96678571D01*
X92395238Y-96702380D01*
X92347619Y-96726190D01*
X92204761Y-96726190D01*
X92157142Y-96702380D01*
X92133333Y-96678571D01*
%TO.C,J2*%
X99783333Y-95376190D02*
X99783333Y-95733333D01*
X99759523Y-95804761D01*
X99711904Y-95852380D01*
X99640476Y-95876190D01*
X99592857Y-95876190D01*
X99997619Y-95423809D02*
X100021428Y-95400000D01*
X100069047Y-95376190D01*
X100188095Y-95376190D01*
X100235714Y-95400000D01*
X100259523Y-95423809D01*
X100283333Y-95471428D01*
X100283333Y-95519047D01*
X100259523Y-95590476D01*
X99973809Y-95876190D01*
X100283333Y-95876190D01*
%TO.C,C6*%
X105416666Y-100478571D02*
X105392857Y-100502380D01*
X105321428Y-100526190D01*
X105273809Y-100526190D01*
X105202380Y-100502380D01*
X105154761Y-100454761D01*
X105130952Y-100407142D01*
X105107142Y-100311904D01*
X105107142Y-100240476D01*
X105130952Y-100145238D01*
X105154761Y-100097619D01*
X105202380Y-100050000D01*
X105273809Y-100026190D01*
X105321428Y-100026190D01*
X105392857Y-100050000D01*
X105416666Y-100073809D01*
X105845238Y-100026190D02*
X105750000Y-100026190D01*
X105702380Y-100050000D01*
X105678571Y-100073809D01*
X105630952Y-100145238D01*
X105607142Y-100240476D01*
X105607142Y-100430952D01*
X105630952Y-100478571D01*
X105654761Y-100502380D01*
X105702380Y-100526190D01*
X105797619Y-100526190D01*
X105845238Y-100502380D01*
X105869047Y-100478571D01*
X105892857Y-100430952D01*
X105892857Y-100311904D01*
X105869047Y-100264285D01*
X105845238Y-100240476D01*
X105797619Y-100216666D01*
X105702380Y-100216666D01*
X105654761Y-100240476D01*
X105630952Y-100264285D01*
X105607142Y-100311904D01*
%TO.C,C2*%
X104826666Y-105298571D02*
X104802857Y-105322380D01*
X104731428Y-105346190D01*
X104683809Y-105346190D01*
X104612380Y-105322380D01*
X104564761Y-105274761D01*
X104540952Y-105227142D01*
X104517142Y-105131904D01*
X104517142Y-105060476D01*
X104540952Y-104965238D01*
X104564761Y-104917619D01*
X104612380Y-104870000D01*
X104683809Y-104846190D01*
X104731428Y-104846190D01*
X104802857Y-104870000D01*
X104826666Y-104893809D01*
X105017142Y-104893809D02*
X105040952Y-104870000D01*
X105088571Y-104846190D01*
X105207619Y-104846190D01*
X105255238Y-104870000D01*
X105279047Y-104893809D01*
X105302857Y-104941428D01*
X105302857Y-104989047D01*
X105279047Y-105060476D01*
X104993333Y-105346190D01*
X105302857Y-105346190D01*
%TO.C,C5*%
X105449166Y-99378571D02*
X105425357Y-99402380D01*
X105353928Y-99426190D01*
X105306309Y-99426190D01*
X105234880Y-99402380D01*
X105187261Y-99354761D01*
X105163452Y-99307142D01*
X105139642Y-99211904D01*
X105139642Y-99140476D01*
X105163452Y-99045238D01*
X105187261Y-98997619D01*
X105234880Y-98950000D01*
X105306309Y-98926190D01*
X105353928Y-98926190D01*
X105425357Y-98950000D01*
X105449166Y-98973809D01*
X105901547Y-98926190D02*
X105663452Y-98926190D01*
X105639642Y-99164285D01*
X105663452Y-99140476D01*
X105711071Y-99116666D01*
X105830119Y-99116666D01*
X105877738Y-99140476D01*
X105901547Y-99164285D01*
X105925357Y-99211904D01*
X105925357Y-99330952D01*
X105901547Y-99378571D01*
X105877738Y-99402380D01*
X105830119Y-99426190D01*
X105711071Y-99426190D01*
X105663452Y-99402380D01*
X105639642Y-99378571D01*
%TO.C,C8*%
X95256666Y-105308571D02*
X95232857Y-105332380D01*
X95161428Y-105356190D01*
X95113809Y-105356190D01*
X95042380Y-105332380D01*
X94994761Y-105284761D01*
X94970952Y-105237142D01*
X94947142Y-105141904D01*
X94947142Y-105070476D01*
X94970952Y-104975238D01*
X94994761Y-104927619D01*
X95042380Y-104880000D01*
X95113809Y-104856190D01*
X95161428Y-104856190D01*
X95232857Y-104880000D01*
X95256666Y-104903809D01*
X95542380Y-105070476D02*
X95494761Y-105046666D01*
X95470952Y-105022857D01*
X95447142Y-104975238D01*
X95447142Y-104951428D01*
X95470952Y-104903809D01*
X95494761Y-104880000D01*
X95542380Y-104856190D01*
X95637619Y-104856190D01*
X95685238Y-104880000D01*
X95709047Y-104903809D01*
X95732857Y-104951428D01*
X95732857Y-104975238D01*
X95709047Y-105022857D01*
X95685238Y-105046666D01*
X95637619Y-105070476D01*
X95542380Y-105070476D01*
X95494761Y-105094285D01*
X95470952Y-105118095D01*
X95447142Y-105165714D01*
X95447142Y-105260952D01*
X95470952Y-105308571D01*
X95494761Y-105332380D01*
X95542380Y-105356190D01*
X95637619Y-105356190D01*
X95685238Y-105332380D01*
X95709047Y-105308571D01*
X95732857Y-105260952D01*
X95732857Y-105165714D01*
X95709047Y-105118095D01*
X95685238Y-105094285D01*
X95637619Y-105070476D01*
%TO.C,U1*%
X98349047Y-106136190D02*
X98349047Y-106540952D01*
X98372857Y-106588571D01*
X98396666Y-106612380D01*
X98444285Y-106636190D01*
X98539523Y-106636190D01*
X98587142Y-106612380D01*
X98610952Y-106588571D01*
X98634761Y-106540952D01*
X98634761Y-106136190D01*
X99134761Y-106636190D02*
X98849047Y-106636190D01*
X98991904Y-106636190D02*
X98991904Y-106136190D01*
X98944285Y-106207619D01*
X98896666Y-106255238D01*
X98849047Y-106279047D01*
%TO.C,R1*%
X94106666Y-109056190D02*
X93940000Y-108818095D01*
X93820952Y-109056190D02*
X93820952Y-108556190D01*
X94011428Y-108556190D01*
X94059047Y-108580000D01*
X94082857Y-108603809D01*
X94106666Y-108651428D01*
X94106666Y-108722857D01*
X94082857Y-108770476D01*
X94059047Y-108794285D01*
X94011428Y-108818095D01*
X93820952Y-108818095D01*
X94582857Y-109056190D02*
X94297142Y-109056190D01*
X94440000Y-109056190D02*
X94440000Y-108556190D01*
X94392380Y-108627619D01*
X94344761Y-108675238D01*
X94297142Y-108699047D01*
%TO.C,C1*%
X103296666Y-107008571D02*
X103272857Y-107032380D01*
X103201428Y-107056190D01*
X103153809Y-107056190D01*
X103082380Y-107032380D01*
X103034761Y-106984761D01*
X103010952Y-106937142D01*
X102987142Y-106841904D01*
X102987142Y-106770476D01*
X103010952Y-106675238D01*
X103034761Y-106627619D01*
X103082380Y-106580000D01*
X103153809Y-106556190D01*
X103201428Y-106556190D01*
X103272857Y-106580000D01*
X103296666Y-106603809D01*
X103772857Y-107056190D02*
X103487142Y-107056190D01*
X103630000Y-107056190D02*
X103630000Y-106556190D01*
X103582380Y-106627619D01*
X103534761Y-106675238D01*
X103487142Y-106699047D01*
%TO.C,U2*%
X106819047Y-102426190D02*
X106819047Y-102830952D01*
X106842857Y-102878571D01*
X106866666Y-102902380D01*
X106914285Y-102926190D01*
X107009523Y-102926190D01*
X107057142Y-102902380D01*
X107080952Y-102878571D01*
X107104761Y-102830952D01*
X107104761Y-102426190D01*
X107319047Y-102473809D02*
X107342857Y-102450000D01*
X107390476Y-102426190D01*
X107509523Y-102426190D01*
X107557142Y-102450000D01*
X107580952Y-102473809D01*
X107604761Y-102521428D01*
X107604761Y-102569047D01*
X107580952Y-102640476D01*
X107295238Y-102926190D01*
X107604761Y-102926190D01*
%TO.C,J3*%
X94333333Y-115476190D02*
X94333333Y-115833333D01*
X94309523Y-115904761D01*
X94261904Y-115952380D01*
X94190476Y-115976190D01*
X94142857Y-115976190D01*
X94523809Y-115476190D02*
X94833333Y-115476190D01*
X94666666Y-115666666D01*
X94738095Y-115666666D01*
X94785714Y-115690476D01*
X94809523Y-115714285D01*
X94833333Y-115761904D01*
X94833333Y-115880952D01*
X94809523Y-115928571D01*
X94785714Y-115952380D01*
X94738095Y-115976190D01*
X94595238Y-115976190D01*
X94547619Y-115952380D01*
X94523809Y-115928571D01*
%TO.C,U3*%
X92199047Y-100866190D02*
X92199047Y-101270952D01*
X92222857Y-101318571D01*
X92246666Y-101342380D01*
X92294285Y-101366190D01*
X92389523Y-101366190D01*
X92437142Y-101342380D01*
X92460952Y-101318571D01*
X92484761Y-101270952D01*
X92484761Y-100866190D01*
X92675238Y-100866190D02*
X92984761Y-100866190D01*
X92818095Y-101056666D01*
X92889523Y-101056666D01*
X92937142Y-101080476D01*
X92960952Y-101104285D01*
X92984761Y-101151904D01*
X92984761Y-101270952D01*
X92960952Y-101318571D01*
X92937142Y-101342380D01*
X92889523Y-101366190D01*
X92746666Y-101366190D01*
X92699047Y-101342380D01*
X92675238Y-101318571D01*
%TO.C,C7*%
X94104166Y-110298571D02*
X94080357Y-110322380D01*
X94008928Y-110346190D01*
X93961309Y-110346190D01*
X93889880Y-110322380D01*
X93842261Y-110274761D01*
X93818452Y-110227142D01*
X93794642Y-110131904D01*
X93794642Y-110060476D01*
X93818452Y-109965238D01*
X93842261Y-109917619D01*
X93889880Y-109870000D01*
X93961309Y-109846190D01*
X94008928Y-109846190D01*
X94080357Y-109870000D01*
X94104166Y-109893809D01*
X94270833Y-109846190D02*
X94604166Y-109846190D01*
X94389880Y-110346190D01*
%TO.C,R2*%
X100166666Y-109076190D02*
X100000000Y-108838095D01*
X99880952Y-109076190D02*
X99880952Y-108576190D01*
X100071428Y-108576190D01*
X100119047Y-108600000D01*
X100142857Y-108623809D01*
X100166666Y-108671428D01*
X100166666Y-108742857D01*
X100142857Y-108790476D01*
X100119047Y-108814285D01*
X100071428Y-108838095D01*
X99880952Y-108838095D01*
X100357142Y-108623809D02*
X100380952Y-108600000D01*
X100428571Y-108576190D01*
X100547619Y-108576190D01*
X100595238Y-108600000D01*
X100619047Y-108623809D01*
X100642857Y-108671428D01*
X100642857Y-108719047D01*
X100619047Y-108790476D01*
X100333333Y-109076190D01*
X100642857Y-109076190D01*
%TO.C,J1*%
X103833333Y-114226190D02*
X103833333Y-114583333D01*
X103809523Y-114654761D01*
X103761904Y-114702380D01*
X103690476Y-114726190D01*
X103642857Y-114726190D01*
X104333333Y-114726190D02*
X104047619Y-114726190D01*
X104190476Y-114726190D02*
X104190476Y-114226190D01*
X104142857Y-114297619D01*
X104095238Y-114345238D01*
X104047619Y-114369047D01*
D12*
%TO.C,L1*%
X104325000Y-100670000D02*
X104325000Y-99920000D01*
X104325000Y-104120000D02*
X99925000Y-104120000D01*
X99925000Y-100670000D02*
X99925000Y-99920000D01*
X104325000Y-104120000D02*
X104325000Y-103370000D01*
X99925000Y-99920000D02*
X104325000Y-99920000D01*
X99925000Y-104120000D02*
X99925000Y-103370000D01*
%TO.C,C4*%
X93084165Y-111660000D02*
X93315835Y-111660000D01*
X93084165Y-110940000D02*
X93315835Y-110940000D01*
%TO.C,D1*%
X96680000Y-99910000D02*
X96680000Y-103810000D01*
X98680000Y-99910000D02*
X96680000Y-99910000D01*
X98680000Y-99910000D02*
X98680000Y-103810000D01*
%TO.C,C3*%
X91984165Y-97730000D02*
X92215835Y-97730000D01*
X91984165Y-97010000D02*
X92215835Y-97010000D01*
%TO.C,J2*%
X105985000Y-98360000D02*
X105985000Y-92640000D01*
X104915000Y-98360000D02*
X105985000Y-98360000D01*
X95085000Y-98360000D02*
X94015000Y-98360000D01*
X95085000Y-98060000D02*
X95085000Y-98360000D01*
X100000000Y-98060000D02*
X104915000Y-98060000D01*
X104625000Y-98650000D02*
X105125000Y-98650000D01*
X94015000Y-92640000D02*
X100000000Y-92640000D01*
X94015000Y-98360000D02*
X94015000Y-92640000D01*
X104915000Y-98060000D02*
X104915000Y-98360000D01*
X105985000Y-92640000D02*
X100000000Y-92640000D01*
X104625000Y-98350000D02*
X104625000Y-98650000D01*
X100000000Y-98060000D02*
X95085000Y-98060000D01*
%TO.C,C6*%
X107316665Y-99840000D02*
X107548335Y-99840000D01*
X107316665Y-100560000D02*
X107548335Y-100560000D01*
%TO.C,C2*%
X103094165Y-105480000D02*
X103325835Y-105480000D01*
X103094165Y-104760000D02*
X103325835Y-104760000D01*
%TO.C,C5*%
X107316665Y-99460000D02*
X107548335Y-99460000D01*
X107316665Y-98740000D02*
X107548335Y-98740000D01*
%TO.C,C8*%
X94430000Y-104418748D02*
X94430000Y-105841252D01*
X96250000Y-104418748D02*
X96250000Y-105841252D01*
%TO.C,U1*%
X98700000Y-108030000D02*
X99500000Y-108030000D01*
X98700000Y-104910000D02*
X96900000Y-104910000D01*
X98700000Y-104910000D02*
X99500000Y-104910000D01*
X98700000Y-108030000D02*
X97900000Y-108030000D01*
%TO.C,R1*%
X95832379Y-108430000D02*
X96167621Y-108430000D01*
X95832379Y-109190000D02*
X96167621Y-109190000D01*
%TO.C,C1*%
X102668748Y-106120000D02*
X104091252Y-106120000D01*
X102668748Y-107940000D02*
X104091252Y-107940000D01*
%TO.C,U2*%
X105690000Y-102800000D02*
X105690000Y-104600000D01*
X108810000Y-102800000D02*
X108810000Y-103600000D01*
X105690000Y-102800000D02*
X105690000Y-102000000D01*
X108810000Y-102800000D02*
X108810000Y-102000000D01*
%TO.C,J3*%
X94500000Y-112690000D02*
X92085000Y-112690000D01*
X92085000Y-112390000D02*
X91015000Y-112390000D01*
X91015000Y-118110000D02*
X94500000Y-118110000D01*
X97985000Y-112390000D02*
X97985000Y-118110000D01*
X96915000Y-112690000D02*
X96915000Y-112390000D01*
X96915000Y-112390000D02*
X97985000Y-112390000D01*
X94500000Y-112690000D02*
X96915000Y-112690000D01*
X92375000Y-112400000D02*
X92375000Y-112100000D01*
X91015000Y-112390000D02*
X91015000Y-118110000D01*
X97985000Y-118110000D02*
X94500000Y-118110000D01*
X92085000Y-112690000D02*
X92085000Y-112390000D01*
X92375000Y-112100000D02*
X91875000Y-112100000D01*
D10*
%TO.C,U3*%
X90855000Y-99465000D02*
X91155000Y-99465000D01*
X94205000Y-99465000D02*
X93905000Y-99465000D01*
X94205000Y-102815000D02*
X94205000Y-99465000D01*
X94205000Y-102815000D02*
X93905000Y-102815000D01*
X90855000Y-102815000D02*
X91080000Y-102815000D01*
X90855000Y-102815000D02*
X90855000Y-99465000D01*
X91080000Y-102815000D02*
X91080000Y-104040000D01*
D12*
%TO.C,C7*%
X95864165Y-110440000D02*
X96095835Y-110440000D01*
X95864165Y-109720000D02*
X96095835Y-109720000D01*
%TO.C,R2*%
X98362379Y-109280000D02*
X98697621Y-109280000D01*
X98362379Y-108520000D02*
X98697621Y-108520000D01*
%TO.C,J1*%
X99300000Y-118400000D02*
X108700000Y-118400000D01*
X99300000Y-116500000D02*
X99300000Y-118400000D01*
X108700000Y-112600000D02*
X108700000Y-114600000D01*
X108700000Y-116500000D02*
X108700000Y-118400000D01*
X99300000Y-112600000D02*
X99300000Y-114600000D01*
%TD*%
M02*
