%TF.GenerationSoftware,KiCad,Pcbnew,(6.0.0)*%
%TF.CreationDate,2022-02-06T18:38:23+08:00*%
%TF.ProjectId,FurutaPendulum_Power_Board,46757275-7461-4506-956e-64756c756d5f,rev?*%
%TF.SameCoordinates,Original*%
%TF.FileFunction,Copper,L1,Top*%
%TF.FilePolarity,Positive*%
%FSLAX46Y46*%
G04 Gerber Fmt 4.6, Leading zero omitted, Abs format (unit mm)*
G04 Created by KiCad (PCBNEW (6.0.0)) date 2022-02-06 18:38:23*
%MOMM*%
%LPD*%
G01*
G04 APERTURE LIST*
G04 Aperture macros list*
%AMRoundRect*
0 Rectangle with rounded corners*
0 $1 Rounding radius*
0 $2 $3 $4 $5 $6 $7 $8 $9 X,Y pos of 4 corners*
0 Add a 4 corners polygon primitive as box body*
4,1,4,$2,$3,$4,$5,$6,$7,$8,$9,$2,$3,0*
0 Add four circle primitives for the rounded corners*
1,1,$1+$1,$2,$3*
1,1,$1+$1,$4,$5*
1,1,$1+$1,$6,$7*
1,1,$1+$1,$8,$9*
0 Add four rect primitives between the rounded corners*
20,1,$1+$1,$2,$3,$4,$5,0*
20,1,$1+$1,$4,$5,$6,$7,0*
20,1,$1+$1,$6,$7,$8,$9,0*
20,1,$1+$1,$8,$9,$2,$3,0*%
G04 Aperture macros list end*
%TA.AperFunction,SMDPad,CuDef*%
%ADD10RoundRect,0.375000X0.375000X0.825000X-0.375000X0.825000X-0.375000X-0.825000X0.375000X-0.825000X0*%
%TD*%
%TA.AperFunction,SMDPad,CuDef*%
%ADD11RoundRect,0.155000X-0.212500X-0.155000X0.212500X-0.155000X0.212500X0.155000X-0.212500X0.155000X0*%
%TD*%
%TA.AperFunction,SMDPad,CuDef*%
%ADD12R,1.200000X0.900000*%
%TD*%
%TA.AperFunction,ComponentPad*%
%ADD13RoundRect,0.200000X0.200000X0.450000X-0.200000X0.450000X-0.200000X-0.450000X0.200000X-0.450000X0*%
%TD*%
%TA.AperFunction,ComponentPad*%
%ADD14O,0.800000X1.300000*%
%TD*%
%TA.AperFunction,SMDPad,CuDef*%
%ADD15RoundRect,0.250000X-0.650000X0.325000X-0.650000X-0.325000X0.650000X-0.325000X0.650000X0.325000X0*%
%TD*%
%TA.AperFunction,SMDPad,CuDef*%
%ADD16RoundRect,0.150000X-0.512500X-0.150000X0.512500X-0.150000X0.512500X0.150000X-0.512500X0.150000X0*%
%TD*%
%TA.AperFunction,SMDPad,CuDef*%
%ADD17RoundRect,0.160000X-0.197500X-0.160000X0.197500X-0.160000X0.197500X0.160000X-0.197500X0.160000X0*%
%TD*%
%TA.AperFunction,SMDPad,CuDef*%
%ADD18RoundRect,0.250000X-0.325000X-0.650000X0.325000X-0.650000X0.325000X0.650000X-0.325000X0.650000X0*%
%TD*%
%TA.AperFunction,SMDPad,CuDef*%
%ADD19RoundRect,0.150000X0.150000X-0.512500X0.150000X0.512500X-0.150000X0.512500X-0.150000X-0.512500X0*%
%TD*%
%TA.AperFunction,ComponentPad*%
%ADD20RoundRect,0.200000X-0.200000X-0.450000X0.200000X-0.450000X0.200000X0.450000X-0.200000X0.450000X0*%
%TD*%
%TA.AperFunction,SMDPad,CuDef*%
%ADD21R,0.300000X1.400000*%
%TD*%
%TA.AperFunction,SMDPad,CuDef*%
%ADD22R,0.600000X1.450000*%
%TD*%
%TA.AperFunction,SMDPad,CuDef*%
%ADD23R,0.300000X1.450000*%
%TD*%
%TA.AperFunction,ComponentPad*%
%ADD24O,1.000000X2.100000*%
%TD*%
%TA.AperFunction,ComponentPad*%
%ADD25O,1.000000X1.600000*%
%TD*%
%TA.AperFunction,ViaPad*%
%ADD26C,0.500000*%
%TD*%
%TA.AperFunction,Conductor*%
%ADD27C,0.200000*%
%TD*%
%TA.AperFunction,Conductor*%
%ADD28C,0.250000*%
%TD*%
%TA.AperFunction,Conductor*%
%ADD29C,0.500000*%
%TD*%
%TA.AperFunction,Conductor*%
%ADD30C,1.000000*%
%TD*%
G04 APERTURE END LIST*
D10*
%TO.P,L1,1*%
%TO.N,+5V*%
X104325000Y-101970000D03*
%TO.P,L1,2*%
%TO.N,Net-(D1-Pad2)*%
X99875000Y-101970000D03*
%TD*%
D11*
%TO.P,C4,1*%
%TO.N,+3V3*%
X92632500Y-111300000D03*
%TO.P,C4,2*%
%TO.N,GND*%
X93767500Y-111300000D03*
%TD*%
D12*
%TO.P,D1,1,K*%
%TO.N,+12V*%
X97680000Y-100510000D03*
%TO.P,D1,2,A*%
%TO.N,Net-(D1-Pad2)*%
X97680000Y-103810000D03*
%TD*%
D11*
%TO.P,C3,1*%
%TO.N,+3V3*%
X91532500Y-97370000D03*
%TO.P,C3,2*%
%TO.N,GND*%
X92667500Y-97370000D03*
%TD*%
D13*
%TO.P,J2,1,Pin_1*%
%TO.N,+12V*%
X104375000Y-97200000D03*
D14*
%TO.P,J2,2,Pin_2*%
%TO.N,GND*%
X103125000Y-97200000D03*
%TO.P,J2,3,Pin_3*%
%TO.N,SWDIO*%
X101875000Y-97200000D03*
%TO.P,J2,4,Pin_4*%
%TO.N,SWCLK*%
X100625000Y-97200000D03*
%TO.P,J2,5,Pin_5*%
%TO.N,USART_TX*%
X99375000Y-97200000D03*
%TO.P,J2,6,Pin_6*%
%TO.N,USART_RX*%
X98125000Y-97200000D03*
%TO.P,J2,7,Pin_7*%
%TO.N,Button*%
X96875000Y-97200000D03*
%TO.P,J2,8,Pin_8*%
%TO.N,+3V3*%
X95625000Y-97200000D03*
%TD*%
D11*
%TO.P,C6,1*%
%TO.N,+3V3*%
X106865000Y-100200000D03*
%TO.P,C6,2*%
%TO.N,GND*%
X108000000Y-100200000D03*
%TD*%
%TO.P,C2,1*%
%TO.N,+5V*%
X102642500Y-105120000D03*
%TO.P,C2,2*%
%TO.N,GND*%
X103777500Y-105120000D03*
%TD*%
%TO.P,C5,1*%
%TO.N,+3V3*%
X106865000Y-99100000D03*
%TO.P,C5,2*%
%TO.N,GND*%
X108000000Y-99100000D03*
%TD*%
D15*
%TO.P,C8,1*%
%TO.N,+12V*%
X95340000Y-103655000D03*
%TO.P,C8,2*%
%TO.N,GND*%
X95340000Y-106605000D03*
%TD*%
D16*
%TO.P,U1,1,SW*%
%TO.N,Net-(D1-Pad2)*%
X97562500Y-105520000D03*
%TO.P,U1,2,GND*%
%TO.N,GND*%
X97562500Y-106470000D03*
%TO.P,U1,3,FB*%
%TO.N,Net-(C7-Pad2)*%
X97562500Y-107420000D03*
%TO.P,U1,4,EN*%
%TO.N,+5V*%
X99837500Y-107420000D03*
%TO.P,U1,5,IN*%
X99837500Y-106470000D03*
%TO.P,U1,6,NC*%
%TO.N,unconnected-(U1-Pad6)*%
X99837500Y-105520000D03*
%TD*%
D17*
%TO.P,R1,1*%
%TO.N,+12V*%
X95402500Y-108810000D03*
%TO.P,R1,2*%
%TO.N,Net-(C7-Pad2)*%
X96597500Y-108810000D03*
%TD*%
D18*
%TO.P,C1,1*%
%TO.N,+5V*%
X101905000Y-107030000D03*
%TO.P,C1,2*%
%TO.N,GND*%
X104855000Y-107030000D03*
%TD*%
D19*
%TO.P,U2,1,IN*%
%TO.N,+5V*%
X106300000Y-103937500D03*
%TO.P,U2,2,GND*%
%TO.N,GND*%
X107250000Y-103937500D03*
%TO.P,U2,3,EN*%
%TO.N,+5V*%
X108200000Y-103937500D03*
%TO.P,U2,4,BP*%
%TO.N,unconnected-(U2-Pad4)*%
X108200000Y-101662500D03*
%TO.P,U2,5,OUT*%
%TO.N,+3V3*%
X106300000Y-101662500D03*
%TD*%
D20*
%TO.P,J3,1,Pin_1*%
%TO.N,+3V3*%
X92625000Y-113550000D03*
D14*
%TO.P,J3,2,Pin_2*%
%TO.N,GND*%
X93875000Y-113550000D03*
%TO.P,J3,3,Pin_3*%
%TO.N,SWCLK*%
X95125000Y-113550000D03*
%TO.P,J3,4,Pin_4*%
%TO.N,SWDIO*%
X96375000Y-113550000D03*
%TD*%
D21*
%TO.P,U3,1,UD+*%
%TO.N,D+*%
X91530000Y-103340000D03*
%TO.P,U3,2,UD-*%
%TO.N,D-*%
X92030000Y-103340000D03*
%TO.P,U3,3,GND*%
%TO.N,GND*%
X92530000Y-103340000D03*
%TO.P,U3,4,~{RTS}*%
%TO.N,unconnected-(U3-Pad4)*%
X93030000Y-103340000D03*
%TO.P,U3,5,~{CTS}*%
%TO.N,unconnected-(U3-Pad5)*%
X93530000Y-103340000D03*
%TO.P,U3,6,TNOW*%
%TO.N,unconnected-(U3-Pad6)*%
X93530000Y-98940000D03*
%TO.P,U3,7,VCC*%
%TO.N,+3V3*%
X93030000Y-98940000D03*
%TO.P,U3,8,TXD*%
%TO.N,USART_RX*%
X92530000Y-98940000D03*
%TO.P,U3,9,RXD*%
%TO.N,USART_TX*%
X92030000Y-98940000D03*
%TO.P,U3,10,V3*%
%TO.N,+3V3*%
X91530000Y-98940000D03*
%TD*%
D11*
%TO.P,C7,1*%
%TO.N,+12V*%
X95412500Y-110080000D03*
%TO.P,C7,2*%
%TO.N,Net-(C7-Pad2)*%
X96547500Y-110080000D03*
%TD*%
D17*
%TO.P,R2,1*%
%TO.N,Net-(C7-Pad2)*%
X97932500Y-108900000D03*
%TO.P,R2,2*%
%TO.N,GND*%
X99127500Y-108900000D03*
%TD*%
D22*
%TO.P,J1,A1,GND*%
%TO.N,GND*%
X100750000Y-110455000D03*
%TO.P,J1,A4,VBUS*%
%TO.N,+5V*%
X101550000Y-110455000D03*
D23*
%TO.P,J1,A5,CC1*%
%TO.N,unconnected-(J1-PadA5)*%
X102750000Y-110455000D03*
%TO.P,J1,A6,D+*%
%TO.N,D+*%
X103750000Y-110455000D03*
%TO.P,J1,A7,D-*%
%TO.N,D-*%
X104250000Y-110455000D03*
%TO.P,J1,A8,SBU1*%
%TO.N,unconnected-(J1-PadA8)*%
X105250000Y-110455000D03*
D22*
%TO.P,J1,A9,VBUS*%
%TO.N,+5V*%
X106450000Y-110455000D03*
%TO.P,J1,A12,GND*%
%TO.N,GND*%
X107250000Y-110455000D03*
%TO.P,J1,B1,GND*%
X107250000Y-110455000D03*
%TO.P,J1,B4,VBUS*%
%TO.N,+5V*%
X106450000Y-110455000D03*
D23*
%TO.P,J1,B5,CC2*%
%TO.N,unconnected-(J1-PadB5)*%
X105750000Y-110455000D03*
%TO.P,J1,B6,D+*%
%TO.N,D+*%
X104750000Y-110455000D03*
%TO.P,J1,B7,D-*%
%TO.N,D-*%
X103250000Y-110455000D03*
%TO.P,J1,B8,SBU2*%
%TO.N,unconnected-(J1-PadB8)*%
X102250000Y-110455000D03*
D22*
%TO.P,J1,B9,VBUS*%
%TO.N,+5V*%
X101550000Y-110455000D03*
%TO.P,J1,B12,GND*%
%TO.N,GND*%
X100750000Y-110455000D03*
D24*
%TO.P,J1,S1,SHIELD*%
X108320000Y-111370000D03*
D25*
X99680000Y-115550000D03*
X108320000Y-115550000D03*
D24*
X99680000Y-111370000D03*
%TD*%
D26*
%TO.N,D+*%
X104010000Y-108890000D03*
X91540000Y-104690000D03*
%TO.N,D-*%
X92530000Y-104630011D03*
X103250741Y-108894086D03*
%TO.N,GND*%
X93720000Y-97370000D03*
X104725000Y-105125000D03*
X98400000Y-110350000D03*
X98400000Y-111225000D03*
X97650000Y-111225000D03*
X97650000Y-110350000D03*
X92520000Y-101850000D03*
X100975000Y-104200000D03*
X99725000Y-104200000D03*
X107250000Y-102610000D03*
%TD*%
D27*
%TO.N,D+*%
X91540000Y-104690000D02*
X91530000Y-104680000D01*
X91530000Y-104680000D02*
X91530000Y-103340000D01*
X104750000Y-110455000D02*
X104750000Y-109150000D01*
X104010000Y-108890000D02*
X104000000Y-108900000D01*
X104750000Y-109150000D02*
X104500000Y-108900000D01*
X103750000Y-109150000D02*
X103750000Y-110455000D01*
X104000000Y-108900000D02*
X103750000Y-109150000D01*
X104500000Y-108900000D02*
X104000000Y-108900000D01*
%TO.N,D-*%
X104250000Y-111429022D02*
X103979022Y-111700000D01*
X92030000Y-104149022D02*
X92030000Y-103340000D01*
X103520978Y-111700000D02*
X103250000Y-111429022D01*
X92530000Y-104630011D02*
X92510989Y-104630011D01*
X103979022Y-111700000D02*
X103520978Y-111700000D01*
X92510989Y-104630011D02*
X92030000Y-104149022D01*
X103250741Y-108894086D02*
X103250000Y-108894827D01*
X103250000Y-108894827D02*
X103250000Y-110455000D01*
X104250000Y-110455000D02*
X104250000Y-111429022D01*
X103250000Y-111429022D02*
X103250000Y-110455000D01*
D28*
%TO.N,Net-(C7-Pad2)*%
X97932500Y-108900000D02*
X96687500Y-108900000D01*
X96587500Y-110080000D02*
X96587500Y-108820000D01*
X96600000Y-107670000D02*
X96600000Y-108612500D01*
X96850000Y-107420000D02*
X96600000Y-107670000D01*
X96430000Y-108642500D02*
X96597500Y-108810000D01*
X96587500Y-108820000D02*
X96597500Y-108810000D01*
X97562500Y-107420000D02*
X96850000Y-107420000D01*
X96687500Y-108900000D02*
X96597500Y-108810000D01*
D29*
%TO.N,+5V*%
X104325000Y-103655000D02*
X104325000Y-101970000D01*
D28*
X106450000Y-110455000D02*
X106450000Y-111350727D01*
D29*
X101550000Y-110455000D02*
X101550000Y-107385000D01*
D28*
X106190479Y-112184521D02*
X105925364Y-112449636D01*
D29*
X102642500Y-106292500D02*
X101905000Y-107030000D01*
X102642500Y-102482500D02*
X103155000Y-101970000D01*
D28*
X101809521Y-112109521D02*
X101809521Y-111610248D01*
X106450000Y-111350727D02*
X106190479Y-111610248D01*
X105925364Y-112449636D02*
X102149636Y-112449636D01*
X102149636Y-112449636D02*
X101809521Y-112109521D01*
X106190479Y-111610248D02*
X106190479Y-112184521D01*
D29*
X106450000Y-110455000D02*
X106450000Y-105450000D01*
X106450000Y-105450000D02*
X106300000Y-105300000D01*
X99837500Y-106470000D02*
X101345000Y-106470000D01*
D28*
X101550000Y-111350727D02*
X101550000Y-110455000D01*
D29*
X107890000Y-105350000D02*
X106450000Y-105350000D01*
X108200000Y-105040000D02*
X107890000Y-105350000D01*
X103155000Y-101970000D02*
X104325000Y-101970000D01*
D28*
X101809521Y-111610248D02*
X101550000Y-111350727D01*
X101515000Y-107420000D02*
X101905000Y-107030000D01*
D29*
X108200000Y-103937500D02*
X108200000Y-105040000D01*
X99837500Y-107420000D02*
X101515000Y-107420000D01*
D28*
X106300000Y-103937500D02*
X106297500Y-103940000D01*
D29*
X102642500Y-105120000D02*
X102642500Y-106292500D01*
X106300000Y-105300000D02*
X106300000Y-103937500D01*
X106297500Y-103940000D02*
X104610000Y-103940000D01*
X102642500Y-105120000D02*
X102642500Y-102482500D01*
X104610000Y-103940000D02*
X104325000Y-103655000D01*
D28*
%TO.N,GND*%
X104720000Y-105120000D02*
X104725000Y-105125000D01*
X97562500Y-106470000D02*
X95475000Y-106470000D01*
X100750000Y-110455000D02*
X100750000Y-109150000D01*
X97946072Y-106470000D02*
X98700000Y-107223928D01*
X103777500Y-105952500D02*
X104855000Y-107030000D01*
X107250000Y-100950000D02*
X108000000Y-100200000D01*
X107967500Y-100167500D02*
X108000000Y-100200000D01*
X103777500Y-105120000D02*
X104720000Y-105120000D01*
X92667500Y-97370000D02*
X93720000Y-97370000D01*
X92520000Y-103330000D02*
X92520000Y-101850000D01*
X98700000Y-108472500D02*
X99127500Y-108900000D01*
X103777500Y-105120000D02*
X103777500Y-105952500D01*
X107250000Y-102610000D02*
X107250000Y-100950000D01*
X99127500Y-108900000D02*
X100500000Y-108900000D01*
X95475000Y-106470000D02*
X95340000Y-106605000D01*
X97562500Y-106470000D02*
X97946072Y-106470000D01*
X107250000Y-103937500D02*
X107250000Y-102610000D01*
X92530000Y-103340000D02*
X92520000Y-103330000D01*
X98700000Y-107223928D02*
X98700000Y-108472500D01*
X107967500Y-99100000D02*
X107967500Y-100167500D01*
X100750000Y-109150000D02*
X100500000Y-108900000D01*
X93875000Y-111407500D02*
X93767500Y-111300000D01*
X93875000Y-113550000D02*
X93875000Y-111407500D01*
D29*
%TO.N,+3V3*%
X95625000Y-96805000D02*
X95320000Y-96500000D01*
D28*
X92625000Y-111307500D02*
X92632500Y-111300000D01*
D29*
X91532500Y-96867500D02*
X91532500Y-97370000D01*
X91900000Y-96500000D02*
X91532500Y-96867500D01*
X106300000Y-100765000D02*
X106865000Y-100200000D01*
D28*
X94444282Y-100200000D02*
X95625000Y-99019282D01*
D29*
X106865000Y-99100000D02*
X106865000Y-97135000D01*
X95625000Y-96225000D02*
X95625000Y-96785000D01*
D28*
X91530000Y-98940000D02*
X91530000Y-97372500D01*
X93030000Y-98940000D02*
X93030000Y-99970000D01*
X95625000Y-97200000D02*
X95625000Y-96805000D01*
X91530000Y-97372500D02*
X91532500Y-97370000D01*
D29*
X106865000Y-97135000D02*
X105230000Y-95500000D01*
D28*
X95625000Y-99019282D02*
X95625000Y-97200000D01*
D29*
X106300000Y-101662500D02*
X106300000Y-100765000D01*
D28*
X93030000Y-99970000D02*
X93260000Y-100200000D01*
X92625000Y-113550000D02*
X92625000Y-111307500D01*
X106832500Y-100167500D02*
X106865000Y-100200000D01*
X95625000Y-96785000D02*
X95625000Y-97200000D01*
X93260000Y-100200000D02*
X94444282Y-100200000D01*
D29*
X105230000Y-95500000D02*
X96350000Y-95500000D01*
X95320000Y-96500000D02*
X91900000Y-96500000D01*
X106832500Y-99100000D02*
X106832500Y-100167500D01*
X96350000Y-95500000D02*
X95625000Y-96225000D01*
D30*
%TO.N,+12V*%
X99250000Y-99475000D02*
X102795000Y-99475000D01*
D28*
X95402500Y-108810000D02*
X95402500Y-110070000D01*
X94115480Y-104164520D02*
X94115480Y-108315480D01*
X94610000Y-108810000D02*
X95402500Y-108810000D01*
X95402500Y-110070000D02*
X95412500Y-110080000D01*
X94115480Y-108315480D02*
X94610000Y-108810000D01*
D30*
X97680000Y-100510000D02*
X98215000Y-100510000D01*
X96890000Y-100510000D02*
X97680000Y-100510000D01*
D28*
X94625000Y-103655000D02*
X94115480Y-104164520D01*
D30*
X98215000Y-100510000D02*
X99250000Y-99475000D01*
X104375000Y-97895000D02*
X104375000Y-97200000D01*
X95340000Y-103655000D02*
X95340000Y-102060000D01*
D28*
X95340000Y-103655000D02*
X94625000Y-103655000D01*
D30*
X95340000Y-102060000D02*
X96890000Y-100510000D01*
X102795000Y-99475000D02*
X104375000Y-97895000D01*
D29*
%TO.N,Net-(D1-Pad2)*%
X99080000Y-101970000D02*
X99520000Y-101970000D01*
D28*
X99520000Y-101970000D02*
X99875000Y-101970000D01*
X97562500Y-103927500D02*
X97680000Y-103810000D01*
D29*
X97680000Y-103370000D02*
X99080000Y-101970000D01*
X97562500Y-105520000D02*
X97562500Y-103927500D01*
X97680000Y-103810000D02*
X97680000Y-103370000D01*
D28*
%TO.N,USART_RX*%
X92530000Y-100470000D02*
X92530000Y-98940000D01*
X92720480Y-100660480D02*
X92530000Y-100470000D01*
X94619520Y-100660480D02*
X92720480Y-100660480D01*
X98125000Y-98475000D02*
X97729520Y-98870480D01*
X96409520Y-98870480D02*
X94619520Y-100660480D01*
X97729520Y-98870480D02*
X96409520Y-98870480D01*
X98125000Y-97200000D02*
X98125000Y-98475000D01*
%TO.N,USART_TX*%
X96595717Y-99320000D02*
X94805717Y-101110000D01*
X99375000Y-98095000D02*
X98150000Y-99320000D01*
X94805717Y-101110000D02*
X92480000Y-101110000D01*
X92480000Y-101110000D02*
X92030000Y-100660000D01*
X99375000Y-97200000D02*
X99375000Y-98095000D01*
X98150000Y-99320000D02*
X96595717Y-99320000D01*
X92030000Y-100660000D02*
X92030000Y-98940000D01*
%TD*%
%TA.AperFunction,Conductor*%
%TO.N,Net-(C7-Pad2)*%
G36*
X96881002Y-108958412D02*
G01*
X96851806Y-109011919D01*
X96824796Y-109058482D01*
X96804317Y-109093311D01*
X96800202Y-109100309D01*
X96800189Y-109100332D01*
X96800182Y-109100344D01*
X96778173Y-109139745D01*
X96758976Y-109178926D01*
X96742802Y-109220130D01*
X96729858Y-109265598D01*
X96720353Y-109317571D01*
X96714498Y-109378291D01*
X96714492Y-109378499D01*
X96714492Y-109378502D01*
X96712817Y-109438626D01*
X96709162Y-109446800D01*
X96701122Y-109450000D01*
X96473894Y-109450000D01*
X96465621Y-109446573D01*
X96462198Y-109438610D01*
X96460555Y-109376615D01*
X96460555Y-109376610D01*
X96460550Y-109376433D01*
X96454870Y-109314153D01*
X96445710Y-109260810D01*
X96434862Y-109219870D01*
X96433387Y-109214303D01*
X96433384Y-109214292D01*
X96433321Y-109214056D01*
X96423556Y-109187037D01*
X96418035Y-109171762D01*
X96418033Y-109171757D01*
X96417956Y-109171544D01*
X96399866Y-109130926D01*
X96379302Y-109089852D01*
X96356516Y-109045975D01*
X96331834Y-108997094D01*
X96331683Y-108996783D01*
X96308809Y-108947947D01*
X96308403Y-108939001D01*
X96311228Y-108934615D01*
X96377393Y-108869979D01*
X96602497Y-108650079D01*
X96881002Y-108958412D01*
G37*
%TD.AperFunction*%
%TD*%
%TA.AperFunction,Conductor*%
%TO.N,D-*%
G36*
X103346589Y-110168427D02*
G01*
X103350016Y-110176683D01*
X103350043Y-110196976D01*
X103350310Y-110225132D01*
X103351005Y-110250109D01*
X103352331Y-110272544D01*
X103354494Y-110293079D01*
X103357697Y-110312352D01*
X103362145Y-110331002D01*
X103368042Y-110349671D01*
X103375592Y-110368995D01*
X103375652Y-110369126D01*
X103381700Y-110382383D01*
X103382016Y-110391332D01*
X103379488Y-110395348D01*
X103250000Y-110530000D01*
X103120512Y-110395349D01*
X103117247Y-110387010D01*
X103118300Y-110382383D01*
X103124347Y-110369126D01*
X103124407Y-110368995D01*
X103131957Y-110349671D01*
X103137854Y-110331002D01*
X103142302Y-110312352D01*
X103145505Y-110293079D01*
X103147668Y-110272544D01*
X103148994Y-110250109D01*
X103149689Y-110225132D01*
X103149956Y-110196976D01*
X103149984Y-110176684D01*
X103153422Y-110168415D01*
X103161684Y-110165000D01*
X103338316Y-110165000D01*
X103346589Y-110168427D01*
G37*
%TD.AperFunction*%
%TD*%
%TA.AperFunction,Conductor*%
%TO.N,+12V*%
G36*
X95403273Y-108653734D02*
G01*
X95404575Y-108653708D01*
X95408744Y-108656493D01*
X95480861Y-108731486D01*
X95480879Y-108731504D01*
X95681210Y-108939823D01*
X95684734Y-108943488D01*
X95687999Y-108951827D01*
X95686731Y-108956899D01*
X95663139Y-109003316D01*
X95662971Y-109003635D01*
X95637418Y-109050292D01*
X95637353Y-109050409D01*
X95613764Y-109092333D01*
X95592444Y-109131707D01*
X95592390Y-109131820D01*
X95592382Y-109131835D01*
X95573785Y-109170531D01*
X95573780Y-109170542D01*
X95573687Y-109170736D01*
X95557756Y-109211686D01*
X95544910Y-109256821D01*
X95535412Y-109308408D01*
X95529521Y-109368713D01*
X95529515Y-109368930D01*
X95527822Y-109428632D01*
X95524162Y-109436804D01*
X95516127Y-109440000D01*
X95288873Y-109440000D01*
X95280600Y-109436573D01*
X95277178Y-109428632D01*
X95275484Y-109368930D01*
X95275478Y-109368713D01*
X95269587Y-109308408D01*
X95260089Y-109256821D01*
X95247243Y-109211686D01*
X95231312Y-109170736D01*
X95231219Y-109170542D01*
X95231214Y-109170531D01*
X95212617Y-109131835D01*
X95212609Y-109131820D01*
X95212555Y-109131707D01*
X95191235Y-109092333D01*
X95167645Y-109050409D01*
X95167581Y-109050293D01*
X95166483Y-109048288D01*
X95141946Y-109003486D01*
X95114500Y-108949484D01*
X95399435Y-108653188D01*
X95400103Y-108652493D01*
X95403273Y-108653734D01*
G37*
%TD.AperFunction*%
%TD*%
%TA.AperFunction,Conductor*%
%TO.N,+3V3*%
G36*
X91651482Y-98653427D02*
G01*
X91654909Y-98661790D01*
X91654750Y-98682451D01*
X91654748Y-98682591D01*
X91654158Y-98712644D01*
X91653455Y-98740445D01*
X91652874Y-98765974D01*
X91652649Y-98789289D01*
X91653012Y-98810445D01*
X91654195Y-98829499D01*
X91654220Y-98829690D01*
X91654221Y-98829699D01*
X91656395Y-98846223D01*
X91656397Y-98846233D01*
X91656433Y-98846508D01*
X91659956Y-98861528D01*
X91660100Y-98861901D01*
X91660101Y-98861905D01*
X91662322Y-98867668D01*
X91662100Y-98876620D01*
X91659838Y-98879985D01*
X91538433Y-99006231D01*
X91530229Y-99009819D01*
X91521567Y-99006231D01*
X91400162Y-98879985D01*
X91396897Y-98871646D01*
X91397677Y-98867669D01*
X91399898Y-98861905D01*
X91399899Y-98861902D01*
X91400043Y-98861528D01*
X91403566Y-98846508D01*
X91403602Y-98846233D01*
X91403604Y-98846223D01*
X91405778Y-98829699D01*
X91405779Y-98829690D01*
X91405804Y-98829499D01*
X91406987Y-98810445D01*
X91407350Y-98789289D01*
X91407125Y-98765974D01*
X91406544Y-98740445D01*
X91405841Y-98712644D01*
X91405251Y-98682591D01*
X91405249Y-98682451D01*
X91405090Y-98661790D01*
X91408453Y-98653491D01*
X91416790Y-98650000D01*
X91643209Y-98650000D01*
X91651482Y-98653427D01*
G37*
%TD.AperFunction*%
%TD*%
%TA.AperFunction,Conductor*%
%TO.N,+5V*%
G36*
X101695779Y-110456592D02*
G01*
X101814255Y-110579792D01*
X101817520Y-110588131D01*
X101816270Y-110593167D01*
X101794880Y-110635611D01*
X101794753Y-110635857D01*
X101771525Y-110679361D01*
X101750328Y-110718637D01*
X101731391Y-110755639D01*
X101714888Y-110792421D01*
X101700994Y-110831041D01*
X101689883Y-110873553D01*
X101681731Y-110922013D01*
X101676711Y-110978477D01*
X101676706Y-110978660D01*
X101676706Y-110978665D01*
X101675293Y-111033601D01*
X101671655Y-111041783D01*
X101663597Y-111045000D01*
X101436403Y-111045000D01*
X101428130Y-111041573D01*
X101424707Y-111033601D01*
X101423293Y-110978665D01*
X101423293Y-110978660D01*
X101423288Y-110978477D01*
X101418268Y-110922013D01*
X101410116Y-110873553D01*
X101399005Y-110831041D01*
X101385111Y-110792421D01*
X101368608Y-110755639D01*
X101349671Y-110718637D01*
X101328474Y-110679361D01*
X101305246Y-110635857D01*
X101305119Y-110635611D01*
X101283730Y-110593167D01*
X101283067Y-110584237D01*
X101285745Y-110579792D01*
X101404138Y-110456678D01*
X101550000Y-110305000D01*
X101695779Y-110456592D01*
G37*
%TD.AperFunction*%
%TD*%
%TA.AperFunction,Conductor*%
%TO.N,+3V3*%
G36*
X91804670Y-97501397D02*
G01*
X91807865Y-97509761D01*
X91806568Y-97514800D01*
X91783670Y-97559180D01*
X91783532Y-97559437D01*
X91758799Y-97604449D01*
X91736140Y-97645044D01*
X91736104Y-97645112D01*
X91715907Y-97683107D01*
X91715899Y-97683123D01*
X91715840Y-97683234D01*
X91715790Y-97683342D01*
X91715782Y-97683357D01*
X91698192Y-97720977D01*
X91698187Y-97720990D01*
X91698101Y-97721173D01*
X91698021Y-97721386D01*
X91683721Y-97759443D01*
X91683130Y-97761015D01*
X91683061Y-97761269D01*
X91671199Y-97804656D01*
X91671197Y-97804667D01*
X91671129Y-97804914D01*
X91662305Y-97855025D01*
X91662283Y-97855264D01*
X91656905Y-97913020D01*
X91656860Y-97913502D01*
X91656855Y-97913676D01*
X91656855Y-97913681D01*
X91655307Y-97971115D01*
X91651658Y-97979293D01*
X91643611Y-97982500D01*
X91416393Y-97982500D01*
X91408120Y-97979073D01*
X91404697Y-97971111D01*
X91404147Y-97950446D01*
X91403150Y-97913020D01*
X91403134Y-97912845D01*
X91397769Y-97854384D01*
X91397768Y-97854374D01*
X91397746Y-97854138D01*
X91389002Y-97803673D01*
X91377134Y-97759443D01*
X91362357Y-97719265D01*
X91344888Y-97680959D01*
X91324941Y-97642343D01*
X91302733Y-97601235D01*
X91280596Y-97559449D01*
X91278544Y-97555576D01*
X91278400Y-97555294D01*
X91256079Y-97510253D01*
X91255476Y-97501319D01*
X91258195Y-97496880D01*
X91533780Y-97215006D01*
X91804670Y-97501397D01*
G37*
%TD.AperFunction*%
%TD*%
%TA.AperFunction,Conductor*%
%TO.N,D+*%
G36*
X104846589Y-110168427D02*
G01*
X104850016Y-110176683D01*
X104850043Y-110196976D01*
X104850310Y-110225132D01*
X104851005Y-110250109D01*
X104852331Y-110272544D01*
X104854494Y-110293079D01*
X104857697Y-110312352D01*
X104862145Y-110331002D01*
X104868042Y-110349671D01*
X104875592Y-110368995D01*
X104875652Y-110369126D01*
X104881700Y-110382383D01*
X104882016Y-110391332D01*
X104879488Y-110395349D01*
X104758433Y-110521231D01*
X104750229Y-110524819D01*
X104741567Y-110521231D01*
X104620512Y-110395349D01*
X104617247Y-110387010D01*
X104618300Y-110382383D01*
X104624347Y-110369126D01*
X104624407Y-110368995D01*
X104631957Y-110349671D01*
X104637854Y-110331002D01*
X104642302Y-110312352D01*
X104645505Y-110293079D01*
X104647668Y-110272544D01*
X104648994Y-110250109D01*
X104649689Y-110225132D01*
X104649956Y-110196976D01*
X104649984Y-110176684D01*
X104653422Y-110168415D01*
X104661684Y-110165000D01*
X104838316Y-110165000D01*
X104846589Y-110168427D01*
G37*
%TD.AperFunction*%
%TD*%
%TA.AperFunction,Conductor*%
%TO.N,+3V3*%
G36*
X95746976Y-96403427D02*
G01*
X95750396Y-96411290D01*
X95753219Y-96491780D01*
X95753249Y-96492029D01*
X95762004Y-96564676D01*
X95762490Y-96568713D01*
X95762556Y-96569005D01*
X95775585Y-96626632D01*
X95777235Y-96633931D01*
X95796872Y-96690568D01*
X95820823Y-96741757D01*
X95848508Y-96790632D01*
X95871014Y-96826895D01*
X95879329Y-96840293D01*
X95879339Y-96840309D01*
X95879348Y-96840324D01*
X95912682Y-96893839D01*
X95912858Y-96894132D01*
X95948028Y-96954450D01*
X95948305Y-96954953D01*
X95981133Y-97018195D01*
X95981903Y-97027116D01*
X95979182Y-97031695D01*
X95625000Y-97400000D01*
X95265000Y-97025645D01*
X95301826Y-96954698D01*
X95337236Y-96893969D01*
X95370651Y-96840324D01*
X95401491Y-96790632D01*
X95429176Y-96741757D01*
X95453127Y-96690568D01*
X95472764Y-96633931D01*
X95487509Y-96568713D01*
X95496780Y-96491780D01*
X95500000Y-96400000D01*
X95738703Y-96400000D01*
X95746976Y-96403427D01*
G37*
%TD.AperFunction*%
%TD*%
%TA.AperFunction,Conductor*%
%TO.N,+12V*%
G36*
X95836507Y-102513427D02*
G01*
X95839934Y-102521765D01*
X95839261Y-102641192D01*
X95837452Y-102765747D01*
X95835182Y-102882675D01*
X95833058Y-102990984D01*
X95831691Y-103089685D01*
X95831688Y-103177784D01*
X95833658Y-103254293D01*
X95838211Y-103318220D01*
X95845955Y-103368573D01*
X95853882Y-103393148D01*
X95855352Y-103397705D01*
X95854630Y-103406631D01*
X95852650Y-103409407D01*
X95840778Y-103421753D01*
X95480940Y-103795940D01*
X95480865Y-103796018D01*
X95347240Y-103934971D01*
X95339036Y-103938559D01*
X95335542Y-103937864D01*
X94822500Y-103404364D01*
X94834044Y-103368573D01*
X94841788Y-103318220D01*
X94846341Y-103254293D01*
X94848311Y-103177784D01*
X94848308Y-103089685D01*
X94846941Y-102990984D01*
X94844817Y-102882675D01*
X94842547Y-102765747D01*
X94840738Y-102641192D01*
X94840066Y-102521766D01*
X94843446Y-102513474D01*
X94851766Y-102510000D01*
X95828234Y-102510000D01*
X95836507Y-102513427D01*
G37*
%TD.AperFunction*%
%TD*%
%TA.AperFunction,Conductor*%
%TO.N,+3V3*%
G36*
X93038433Y-98873769D02*
G01*
X93159838Y-99000015D01*
X93163103Y-99008354D01*
X93162322Y-99012331D01*
X93159956Y-99018471D01*
X93156433Y-99033491D01*
X93156397Y-99033766D01*
X93156395Y-99033776D01*
X93154221Y-99050300D01*
X93154195Y-99050500D01*
X93153012Y-99069554D01*
X93152649Y-99090710D01*
X93152650Y-99090827D01*
X93152650Y-99090860D01*
X93152874Y-99113985D01*
X93152875Y-99114079D01*
X93153452Y-99139430D01*
X93153453Y-99139460D01*
X93153455Y-99139554D01*
X93154156Y-99167289D01*
X93154158Y-99167355D01*
X93154748Y-99197408D01*
X93154750Y-99197548D01*
X93154909Y-99218210D01*
X93151546Y-99226509D01*
X93143209Y-99230000D01*
X92916790Y-99230000D01*
X92908517Y-99226573D01*
X92905090Y-99218210D01*
X92905249Y-99197548D01*
X92905251Y-99197408D01*
X92905841Y-99167355D01*
X92905843Y-99167289D01*
X92906544Y-99139554D01*
X92906546Y-99139460D01*
X92906547Y-99139430D01*
X92907124Y-99114079D01*
X92907125Y-99113985D01*
X92907349Y-99090860D01*
X92907349Y-99090827D01*
X92907350Y-99090710D01*
X92906987Y-99069554D01*
X92905804Y-99050500D01*
X92905778Y-99050300D01*
X92903604Y-99033776D01*
X92903602Y-99033766D01*
X92903566Y-99033491D01*
X92900043Y-99018471D01*
X92899900Y-99018099D01*
X92899900Y-99018098D01*
X92897678Y-99012333D01*
X92897900Y-99003381D01*
X92900162Y-99000015D01*
X93021567Y-98873769D01*
X93029771Y-98870181D01*
X93038433Y-98873769D01*
G37*
%TD.AperFunction*%
%TD*%
%TA.AperFunction,Conductor*%
%TO.N,+3V3*%
G36*
X95979174Y-97368297D02*
G01*
X95982439Y-97376635D01*
X95981119Y-97381809D01*
X95948736Y-97444005D01*
X95948443Y-97444534D01*
X95913513Y-97503921D01*
X95913320Y-97504236D01*
X95880118Y-97556809D01*
X95880115Y-97556811D01*
X95880116Y-97556812D01*
X95849261Y-97605640D01*
X95821476Y-97653647D01*
X95797374Y-97703935D01*
X95777564Y-97759610D01*
X95762658Y-97823777D01*
X95753266Y-97899538D01*
X95753257Y-97899799D01*
X95750407Y-97978722D01*
X95746684Y-97986866D01*
X95738715Y-97990000D01*
X95511285Y-97990000D01*
X95503012Y-97986573D01*
X95499593Y-97978722D01*
X95496742Y-97899799D01*
X95496733Y-97899538D01*
X95487341Y-97823777D01*
X95472435Y-97759610D01*
X95452625Y-97703935D01*
X95428523Y-97653647D01*
X95400738Y-97605640D01*
X95369883Y-97556812D01*
X95336666Y-97504214D01*
X95336486Y-97503921D01*
X95301556Y-97444534D01*
X95301263Y-97444005D01*
X95268881Y-97381810D01*
X95268100Y-97372889D01*
X95270826Y-97368297D01*
X95429415Y-97203384D01*
X95625000Y-97000000D01*
X95979174Y-97368297D01*
G37*
%TD.AperFunction*%
%TD*%
%TA.AperFunction,Conductor*%
%TO.N,D-*%
G36*
X92243485Y-104220652D02*
G01*
X92275690Y-104251169D01*
X92275701Y-104251179D01*
X92275829Y-104251300D01*
X92312511Y-104281708D01*
X92346388Y-104305338D01*
X92378584Y-104323487D01*
X92378854Y-104323606D01*
X92409991Y-104337348D01*
X92409999Y-104337351D01*
X92410223Y-104337450D01*
X92410465Y-104337533D01*
X92410467Y-104337534D01*
X92442252Y-104348462D01*
X92442258Y-104348464D01*
X92442430Y-104348523D01*
X92442596Y-104348569D01*
X92442601Y-104348571D01*
X92453181Y-104351529D01*
X92476329Y-104358003D01*
X92513042Y-104367184D01*
X92513044Y-104367186D01*
X92513044Y-104367185D01*
X92553627Y-104377348D01*
X92553825Y-104377400D01*
X92575490Y-104383313D01*
X92591431Y-104387663D01*
X92598510Y-104393147D01*
X92600020Y-104398102D01*
X92622063Y-104701459D01*
X92619245Y-104709959D01*
X92610785Y-104714000D01*
X92306813Y-104724170D01*
X92298431Y-104721022D01*
X92295518Y-104716716D01*
X92280693Y-104678573D01*
X92280591Y-104678298D01*
X92266049Y-104637711D01*
X92266012Y-104637607D01*
X92253206Y-104600775D01*
X92240817Y-104566831D01*
X92240813Y-104566820D01*
X92240770Y-104566703D01*
X92227279Y-104534228D01*
X92211297Y-104502162D01*
X92191393Y-104469318D01*
X92166130Y-104434507D01*
X92166000Y-104434353D01*
X92134194Y-104396683D01*
X92134184Y-104396671D01*
X92134076Y-104396544D01*
X92101669Y-104362508D01*
X92098447Y-104354153D01*
X92101870Y-104346167D01*
X92227165Y-104220872D01*
X92235438Y-104217445D01*
X92243485Y-104220652D01*
G37*
%TD.AperFunction*%
%TD*%
%TA.AperFunction,Conductor*%
%TO.N,USART_RX*%
G36*
X92538433Y-98873769D02*
G01*
X92659838Y-99000015D01*
X92663103Y-99008354D01*
X92662322Y-99012331D01*
X92659956Y-99018471D01*
X92656433Y-99033491D01*
X92656397Y-99033766D01*
X92656395Y-99033776D01*
X92654221Y-99050300D01*
X92654195Y-99050500D01*
X92653012Y-99069554D01*
X92652649Y-99090710D01*
X92652650Y-99090827D01*
X92652650Y-99090860D01*
X92652874Y-99113985D01*
X92652875Y-99114079D01*
X92653452Y-99139430D01*
X92653453Y-99139460D01*
X92653455Y-99139554D01*
X92654156Y-99167289D01*
X92654158Y-99167355D01*
X92654748Y-99197408D01*
X92654750Y-99197548D01*
X92654909Y-99218210D01*
X92651546Y-99226509D01*
X92643209Y-99230000D01*
X92416790Y-99230000D01*
X92408517Y-99226573D01*
X92405090Y-99218210D01*
X92405249Y-99197548D01*
X92405251Y-99197408D01*
X92405841Y-99167355D01*
X92405843Y-99167289D01*
X92406544Y-99139554D01*
X92406546Y-99139460D01*
X92406547Y-99139430D01*
X92407124Y-99114079D01*
X92407125Y-99113985D01*
X92407349Y-99090860D01*
X92407349Y-99090827D01*
X92407350Y-99090710D01*
X92406987Y-99069554D01*
X92405804Y-99050500D01*
X92405778Y-99050300D01*
X92403604Y-99033776D01*
X92403602Y-99033766D01*
X92403566Y-99033491D01*
X92400043Y-99018471D01*
X92399900Y-99018099D01*
X92399900Y-99018098D01*
X92397678Y-99012333D01*
X92397900Y-99003381D01*
X92400162Y-99000015D01*
X92521567Y-98873769D01*
X92529771Y-98870181D01*
X92538433Y-98873769D01*
G37*
%TD.AperFunction*%
%TD*%
%TA.AperFunction,Conductor*%
%TO.N,+5V*%
G36*
X101796480Y-109868427D02*
G01*
X101799907Y-109876792D01*
X101799478Y-109931474D01*
X101798233Y-109993073D01*
X101796746Y-110049913D01*
X101795499Y-110102109D01*
X101794972Y-110149777D01*
X101795648Y-110193032D01*
X101798007Y-110231989D01*
X101802532Y-110266765D01*
X101809702Y-110297475D01*
X101817327Y-110317288D01*
X101817101Y-110326238D01*
X101814842Y-110329598D01*
X101550000Y-110605000D01*
X101285159Y-110329599D01*
X101281894Y-110321260D01*
X101282673Y-110317287D01*
X101290149Y-110297859D01*
X101290297Y-110297475D01*
X101297467Y-110266765D01*
X101301992Y-110231989D01*
X101304351Y-110193032D01*
X101305027Y-110149777D01*
X101304500Y-110102109D01*
X101303253Y-110049913D01*
X101301766Y-109993073D01*
X101300521Y-109931474D01*
X101300092Y-109876791D01*
X101303454Y-109868492D01*
X101311792Y-109865000D01*
X101788207Y-109865000D01*
X101796480Y-109868427D01*
G37*
%TD.AperFunction*%
%TD*%
%TA.AperFunction,Conductor*%
%TO.N,+5V*%
G36*
X105192121Y-100520002D02*
G01*
X105238614Y-100573658D01*
X105250000Y-100626000D01*
X105250000Y-103250000D01*
X106570851Y-103250000D01*
X106638972Y-103270002D01*
X106685465Y-103323658D01*
X106696463Y-103385886D01*
X106696275Y-103388271D01*
X106695500Y-103393166D01*
X106695500Y-104481834D01*
X106710502Y-104576555D01*
X106715003Y-104585388D01*
X106715004Y-104585392D01*
X106736267Y-104627123D01*
X106750000Y-104684325D01*
X106750000Y-106894022D01*
X106749521Y-106905003D01*
X106742121Y-106989584D01*
X106741210Y-107000000D01*
X106741689Y-107005475D01*
X106749521Y-107094995D01*
X106750000Y-107105977D01*
X106750000Y-107874000D01*
X106729998Y-107942121D01*
X106676342Y-107988614D01*
X106624000Y-108000000D01*
X105780664Y-108000000D01*
X105712543Y-107979998D01*
X105666050Y-107926342D01*
X105655946Y-107856068D01*
X105662682Y-107829772D01*
X105675025Y-107796846D01*
X105675026Y-107796843D01*
X105677798Y-107789448D01*
X105684500Y-107727756D01*
X105684500Y-106332244D01*
X105677798Y-106270552D01*
X105627071Y-106135236D01*
X105621691Y-106128057D01*
X105621689Y-106128054D01*
X105545785Y-106026776D01*
X105540404Y-106019596D01*
X105481032Y-105975099D01*
X105431946Y-105938311D01*
X105431943Y-105938309D01*
X105424764Y-105932929D01*
X105333137Y-105898580D01*
X105296843Y-105884974D01*
X105296841Y-105884974D01*
X105289448Y-105882202D01*
X105281598Y-105881349D01*
X105281597Y-105881349D01*
X105231153Y-105875869D01*
X105231152Y-105875869D01*
X105227756Y-105875500D01*
X104831568Y-105875500D01*
X104763447Y-105855498D01*
X104720457Y-105805885D01*
X104693541Y-105846175D01*
X104628446Y-105874516D01*
X104612733Y-105875500D01*
X104482244Y-105875500D01*
X104478848Y-105875869D01*
X104478847Y-105875869D01*
X104428403Y-105881349D01*
X104428402Y-105881349D01*
X104420552Y-105882202D01*
X104368023Y-105901894D01*
X104297219Y-105907077D01*
X104234701Y-105873007D01*
X104193905Y-105832211D01*
X104159879Y-105769899D01*
X104157000Y-105743116D01*
X104157000Y-105726715D01*
X104177002Y-105658594D01*
X104217626Y-105621840D01*
X104216838Y-105620755D01*
X104224866Y-105614922D01*
X104233698Y-105610422D01*
X104284601Y-105559519D01*
X104346913Y-105525493D01*
X104417728Y-105530558D01*
X104443515Y-105543727D01*
X104498101Y-105580063D01*
X104498103Y-105580064D01*
X104505574Y-105585037D01*
X104514138Y-105587713D01*
X104514141Y-105587714D01*
X104643510Y-105628132D01*
X104642946Y-105629937D01*
X104696924Y-105655756D01*
X104722539Y-105697215D01*
X104736344Y-105666988D01*
X104798426Y-105627937D01*
X104918763Y-105595130D01*
X104918765Y-105595129D01*
X104927422Y-105592769D01*
X105050572Y-105517154D01*
X105147551Y-105410014D01*
X105210560Y-105279962D01*
X105234536Y-105137453D01*
X105234688Y-105125000D01*
X105214201Y-104981948D01*
X105154388Y-104850395D01*
X105148530Y-104843596D01*
X105148527Y-104843592D01*
X105065916Y-104747718D01*
X105065913Y-104747716D01*
X105060056Y-104740918D01*
X104982615Y-104690723D01*
X104946324Y-104667200D01*
X104946322Y-104667199D01*
X104938790Y-104662317D01*
X104921921Y-104657272D01*
X104808938Y-104623482D01*
X104808936Y-104623482D01*
X104800337Y-104620910D01*
X104791363Y-104620855D01*
X104791361Y-104620855D01*
X104728082Y-104620469D01*
X104655827Y-104620028D01*
X104647196Y-104622495D01*
X104647194Y-104622495D01*
X104525509Y-104657272D01*
X104525505Y-104657274D01*
X104516879Y-104659739D01*
X104509293Y-104664525D01*
X104509285Y-104664529D01*
X104446886Y-104703901D01*
X104378601Y-104723336D01*
X104310649Y-104702767D01*
X104290555Y-104686435D01*
X104233698Y-104629578D01*
X104118120Y-104570688D01*
X104108331Y-104569138D01*
X104108329Y-104569137D01*
X104080079Y-104564663D01*
X104022226Y-104555500D01*
X103532774Y-104555500D01*
X103474921Y-104564663D01*
X103446671Y-104569137D01*
X103446669Y-104569138D01*
X103436880Y-104570688D01*
X103321302Y-104629578D01*
X103229578Y-104721302D01*
X103170688Y-104836880D01*
X103155500Y-104932774D01*
X103155500Y-105307226D01*
X103170688Y-105403120D01*
X103229578Y-105518698D01*
X103321302Y-105610422D01*
X103330134Y-105614922D01*
X103338162Y-105620755D01*
X103337234Y-105622032D01*
X103380820Y-105663199D01*
X103398000Y-105726715D01*
X103398000Y-105898580D01*
X103395451Y-105922528D01*
X103395372Y-105924193D01*
X103393180Y-105934376D01*
X103394404Y-105944717D01*
X103397127Y-105967723D01*
X103397477Y-105973654D01*
X103397572Y-105973646D01*
X103398000Y-105978824D01*
X103398000Y-105984024D01*
X103398854Y-105989153D01*
X103398854Y-105989156D01*
X103401169Y-106003065D01*
X103402006Y-106008943D01*
X103408030Y-106059841D01*
X103411993Y-106068093D01*
X103413496Y-106077126D01*
X103418443Y-106086295D01*
X103418444Y-106086297D01*
X103437834Y-106122232D01*
X103440531Y-106127525D01*
X103459285Y-106166582D01*
X103459288Y-106166586D01*
X103462719Y-106173732D01*
X103466314Y-106178008D01*
X103468237Y-106179931D01*
X103470009Y-106181863D01*
X103470052Y-106181942D01*
X103469928Y-106182055D01*
X103470404Y-106182595D01*
X103473490Y-106188314D01*
X103481135Y-106195381D01*
X103513086Y-106224916D01*
X103516652Y-106228346D01*
X103988595Y-106700289D01*
X104022621Y-106762601D01*
X104025500Y-106789384D01*
X104025500Y-107727756D01*
X104032202Y-107789448D01*
X104034974Y-107796843D01*
X104034975Y-107796846D01*
X104047318Y-107829772D01*
X104052501Y-107900579D01*
X104018579Y-107962947D01*
X103956324Y-107997076D01*
X103929336Y-108000000D01*
X99226000Y-108000000D01*
X99157879Y-107979998D01*
X99111386Y-107926342D01*
X99100000Y-107874000D01*
X99100000Y-106276000D01*
X99120002Y-106207879D01*
X99173658Y-106161386D01*
X99226000Y-106150000D01*
X101700000Y-106150000D01*
X101700000Y-100626000D01*
X101720002Y-100557879D01*
X101773658Y-100511386D01*
X101826000Y-100500000D01*
X105124000Y-100500000D01*
X105192121Y-100520002D01*
G37*
%TD.AperFunction*%
%TD*%
%TA.AperFunction,Conductor*%
%TO.N,Net-(D1-Pad2)*%
G36*
X99352373Y-101444183D02*
G01*
X99919666Y-101776495D01*
X100236662Y-101962187D01*
X100242068Y-101969325D01*
X100240843Y-101978196D01*
X100238859Y-101980714D01*
X100145895Y-102070113D01*
X99553979Y-102639330D01*
X99545640Y-102642595D01*
X99540733Y-102641409D01*
X99459701Y-102601819D01*
X99459678Y-102601808D01*
X99407240Y-102576890D01*
X99375973Y-102562032D01*
X99295906Y-102527997D01*
X99248562Y-102512137D01*
X99218851Y-102502184D01*
X99218848Y-102502183D01*
X99218510Y-102502070D01*
X99142795Y-102486610D01*
X99121063Y-102485846D01*
X99068350Y-102483994D01*
X99068346Y-102483994D01*
X99067768Y-102483974D01*
X99067191Y-102484070D01*
X99067192Y-102484070D01*
X98993043Y-102496419D01*
X98993039Y-102496420D01*
X98992439Y-102496520D01*
X98991871Y-102496743D01*
X98978304Y-102502070D01*
X98915817Y-102526604D01*
X98880268Y-102549122D01*
X98859954Y-102561990D01*
X98836911Y-102576586D01*
X98762969Y-102641581D01*
X98754495Y-102644468D01*
X98746974Y-102641065D01*
X98409534Y-102303625D01*
X98406107Y-102295352D01*
X98409616Y-102286997D01*
X98526607Y-102172298D01*
X98526791Y-102172122D01*
X98635379Y-102070202D01*
X98635573Y-102070024D01*
X98731122Y-101984300D01*
X98731298Y-101984145D01*
X98817540Y-101909839D01*
X98817658Y-101909739D01*
X98898231Y-101842158D01*
X98898253Y-101842139D01*
X98976896Y-101776505D01*
X98976908Y-101776495D01*
X99057112Y-101708231D01*
X99057185Y-101708169D01*
X99057209Y-101708147D01*
X99057239Y-101708122D01*
X99110420Y-101661055D01*
X99142795Y-101632403D01*
X99237399Y-101544479D01*
X99338285Y-101445909D01*
X99346597Y-101442579D01*
X99352373Y-101444183D01*
G37*
%TD.AperFunction*%
%TD*%
%TA.AperFunction,Conductor*%
%TO.N,+3V3*%
G36*
X91447088Y-96616011D02*
G01*
X91448014Y-96616844D01*
X91784938Y-96953768D01*
X91788365Y-96962041D01*
X91785783Y-96969372D01*
X91768984Y-96990267D01*
X91768981Y-96990272D01*
X91768546Y-96990813D01*
X91754329Y-97021172D01*
X91754191Y-97021868D01*
X91748378Y-97051187D01*
X91748378Y-97051192D01*
X91748256Y-97051805D01*
X91748871Y-97082245D01*
X91754718Y-97112030D01*
X91764342Y-97140695D01*
X91764448Y-97140936D01*
X91764451Y-97140943D01*
X91767626Y-97148140D01*
X91776288Y-97167776D01*
X91789100Y-97192809D01*
X91789126Y-97192856D01*
X91801277Y-97215247D01*
X91801371Y-97215424D01*
X91807618Y-97227420D01*
X91808400Y-97236341D01*
X91805675Y-97240932D01*
X91532500Y-97525000D01*
X91418656Y-97330656D01*
X91418655Y-97330653D01*
X91316937Y-97157011D01*
X91315712Y-97148140D01*
X91317203Y-97144751D01*
X91334638Y-97117761D01*
X91342621Y-97082742D01*
X91343881Y-97077216D01*
X91343882Y-97077211D01*
X91344010Y-97076648D01*
X91345167Y-97028715D01*
X91342796Y-96990267D01*
X91341867Y-96975215D01*
X91337887Y-96917716D01*
X91337860Y-96917101D01*
X91336929Y-96857173D01*
X91336979Y-96855901D01*
X91342695Y-96794819D01*
X91343020Y-96792965D01*
X91350236Y-96765209D01*
X91358918Y-96731813D01*
X91359740Y-96729601D01*
X91389398Y-96669336D01*
X91390789Y-96667156D01*
X91430635Y-96617770D01*
X91438497Y-96613483D01*
X91447088Y-96616011D01*
G37*
%TD.AperFunction*%
%TD*%
%TA.AperFunction,Conductor*%
%TO.N,Net-(D1-Pad2)*%
G36*
X97808980Y-104933427D02*
G01*
X97812407Y-104941792D01*
X97811978Y-104996474D01*
X97810733Y-105058073D01*
X97809246Y-105114913D01*
X97807999Y-105167109D01*
X97807472Y-105214777D01*
X97808148Y-105258032D01*
X97810507Y-105296989D01*
X97815032Y-105331765D01*
X97822202Y-105362475D01*
X97829827Y-105382288D01*
X97829601Y-105391238D01*
X97827341Y-105394599D01*
X97570933Y-105661231D01*
X97562729Y-105664819D01*
X97554067Y-105661231D01*
X97297659Y-105394599D01*
X97294394Y-105386260D01*
X97295173Y-105382287D01*
X97302649Y-105362859D01*
X97302797Y-105362475D01*
X97309967Y-105331765D01*
X97314492Y-105296989D01*
X97316851Y-105258032D01*
X97317527Y-105214777D01*
X97317000Y-105167109D01*
X97315753Y-105114913D01*
X97314266Y-105058073D01*
X97313021Y-104996474D01*
X97312592Y-104941791D01*
X97315954Y-104933492D01*
X97324292Y-104930000D01*
X97800707Y-104930000D01*
X97808980Y-104933427D01*
G37*
%TD.AperFunction*%
%TD*%
%TA.AperFunction,Conductor*%
%TO.N,Net-(C7-Pad2)*%
G36*
X97437708Y-107155745D02*
G01*
X97457987Y-107175246D01*
X97594374Y-107306403D01*
X97703731Y-107411567D01*
X97707319Y-107419771D01*
X97703731Y-107428433D01*
X97523876Y-107601391D01*
X97437708Y-107684255D01*
X97429369Y-107687520D01*
X97424333Y-107686270D01*
X97381888Y-107664880D01*
X97381642Y-107664753D01*
X97338138Y-107641525D01*
X97338092Y-107641500D01*
X97298892Y-107620344D01*
X97298884Y-107620340D01*
X97298862Y-107620328D01*
X97261860Y-107601391D01*
X97225078Y-107584888D01*
X97224883Y-107584818D01*
X97224876Y-107584815D01*
X97186701Y-107571081D01*
X97186693Y-107571078D01*
X97186458Y-107570994D01*
X97186219Y-107570931D01*
X97186214Y-107570930D01*
X97144200Y-107559949D01*
X97144192Y-107559947D01*
X97143946Y-107559883D01*
X97143687Y-107559839D01*
X97143685Y-107559839D01*
X97095706Y-107551768D01*
X97095486Y-107551731D01*
X97095264Y-107551711D01*
X97095262Y-107551711D01*
X97086574Y-107550939D01*
X97039022Y-107546711D01*
X97038839Y-107546706D01*
X97038834Y-107546706D01*
X96983899Y-107545293D01*
X96975717Y-107541655D01*
X96972500Y-107533597D01*
X96972500Y-107306403D01*
X96975927Y-107298130D01*
X96983899Y-107294707D01*
X97038834Y-107293293D01*
X97038839Y-107293293D01*
X97039022Y-107293288D01*
X97086574Y-107289060D01*
X97095262Y-107288288D01*
X97095264Y-107288288D01*
X97095486Y-107288268D01*
X97095706Y-107288231D01*
X97143685Y-107280160D01*
X97143687Y-107280160D01*
X97143946Y-107280116D01*
X97144192Y-107280052D01*
X97144200Y-107280050D01*
X97186214Y-107269069D01*
X97186219Y-107269068D01*
X97186458Y-107269005D01*
X97186693Y-107268921D01*
X97186701Y-107268918D01*
X97224876Y-107255184D01*
X97224883Y-107255181D01*
X97225078Y-107255111D01*
X97261860Y-107238608D01*
X97298862Y-107219671D01*
X97338138Y-107198474D01*
X97381642Y-107175246D01*
X97381888Y-107175119D01*
X97424333Y-107153730D01*
X97433263Y-107153067D01*
X97437708Y-107155745D01*
G37*
%TD.AperFunction*%
%TD*%
%TA.AperFunction,Conductor*%
%TO.N,+3V3*%
G36*
X107111479Y-98493427D02*
G01*
X107114906Y-98501793D01*
X107114459Y-98558237D01*
X107114457Y-98558379D01*
X107113204Y-98620798D01*
X107113181Y-98620798D01*
X107113203Y-98620851D01*
X107111792Y-98677920D01*
X107110774Y-98730118D01*
X107110706Y-98777838D01*
X107112141Y-98821526D01*
X107115634Y-98861627D01*
X107121739Y-98898589D01*
X107131009Y-98932856D01*
X107131140Y-98933178D01*
X107131143Y-98933188D01*
X107141145Y-98957839D01*
X107141080Y-98966794D01*
X107138736Y-98970348D01*
X107008310Y-99105975D01*
X107008310Y-99105976D01*
X106865000Y-99255000D01*
X106591263Y-98970348D01*
X106587998Y-98962009D01*
X106588854Y-98957840D01*
X106598856Y-98933187D01*
X106598857Y-98933183D01*
X106598990Y-98932856D01*
X106608260Y-98898589D01*
X106614365Y-98861627D01*
X106617858Y-98821526D01*
X106619293Y-98777838D01*
X106619225Y-98730118D01*
X106618207Y-98677920D01*
X106616796Y-98620851D01*
X106616817Y-98620798D01*
X106616795Y-98620798D01*
X106615541Y-98558307D01*
X106615093Y-98501792D01*
X106618455Y-98493493D01*
X106626793Y-98490000D01*
X107103206Y-98490000D01*
X107111479Y-98493427D01*
G37*
%TD.AperFunction*%
%TD*%
%TA.AperFunction,Conductor*%
%TO.N,D-*%
G36*
X103323655Y-110456592D02*
G01*
X103379488Y-110514651D01*
X103382753Y-110522990D01*
X103381699Y-110527618D01*
X103375592Y-110541004D01*
X103368042Y-110560328D01*
X103362145Y-110578997D01*
X103357697Y-110597647D01*
X103354494Y-110616920D01*
X103352331Y-110637455D01*
X103351005Y-110659890D01*
X103350310Y-110684867D01*
X103350309Y-110684975D01*
X103350043Y-110713023D01*
X103350016Y-110733316D01*
X103346578Y-110741584D01*
X103338316Y-110745000D01*
X103161684Y-110745000D01*
X103153411Y-110741573D01*
X103149984Y-110733316D01*
X103149956Y-110713023D01*
X103149690Y-110684975D01*
X103149689Y-110684867D01*
X103148994Y-110659890D01*
X103147668Y-110637455D01*
X103145505Y-110616920D01*
X103142302Y-110597647D01*
X103137854Y-110578997D01*
X103131957Y-110560328D01*
X103124407Y-110541004D01*
X103118300Y-110527617D01*
X103117984Y-110518668D01*
X103120512Y-110514651D01*
X103176262Y-110456678D01*
X103250000Y-110380000D01*
X103323655Y-110456592D01*
G37*
%TD.AperFunction*%
%TD*%
%TA.AperFunction,Conductor*%
%TO.N,+5V*%
G36*
X101695779Y-110456592D02*
G01*
X101814255Y-110579792D01*
X101817520Y-110588131D01*
X101816270Y-110593167D01*
X101794880Y-110635611D01*
X101794753Y-110635857D01*
X101771525Y-110679361D01*
X101750328Y-110718637D01*
X101731391Y-110755639D01*
X101714888Y-110792421D01*
X101700994Y-110831041D01*
X101689883Y-110873553D01*
X101681731Y-110922013D01*
X101676711Y-110978477D01*
X101676706Y-110978660D01*
X101676706Y-110978665D01*
X101675293Y-111033601D01*
X101671655Y-111041783D01*
X101663597Y-111045000D01*
X101436403Y-111045000D01*
X101428130Y-111041573D01*
X101424707Y-111033601D01*
X101423293Y-110978665D01*
X101423293Y-110978660D01*
X101423288Y-110978477D01*
X101418268Y-110922013D01*
X101410116Y-110873553D01*
X101399005Y-110831041D01*
X101385111Y-110792421D01*
X101368608Y-110755639D01*
X101349671Y-110718637D01*
X101328474Y-110679361D01*
X101305246Y-110635857D01*
X101305119Y-110635611D01*
X101283730Y-110593167D01*
X101283067Y-110584237D01*
X101285745Y-110579792D01*
X101404138Y-110456678D01*
X101550000Y-110305000D01*
X101695779Y-110456592D01*
G37*
%TD.AperFunction*%
%TD*%
%TA.AperFunction,Conductor*%
%TO.N,+5V*%
G36*
X106595779Y-110456592D02*
G01*
X106714255Y-110579792D01*
X106717520Y-110588131D01*
X106716270Y-110593167D01*
X106694880Y-110635611D01*
X106694753Y-110635857D01*
X106671525Y-110679361D01*
X106650328Y-110718637D01*
X106631391Y-110755639D01*
X106614888Y-110792421D01*
X106600994Y-110831041D01*
X106589883Y-110873553D01*
X106581731Y-110922013D01*
X106576711Y-110978477D01*
X106576706Y-110978660D01*
X106576706Y-110978665D01*
X106575293Y-111033601D01*
X106571655Y-111041783D01*
X106563597Y-111045000D01*
X106336403Y-111045000D01*
X106328130Y-111041573D01*
X106324707Y-111033601D01*
X106323293Y-110978665D01*
X106323293Y-110978660D01*
X106323288Y-110978477D01*
X106318268Y-110922013D01*
X106310116Y-110873553D01*
X106299005Y-110831041D01*
X106285111Y-110792421D01*
X106268608Y-110755639D01*
X106249671Y-110718637D01*
X106228474Y-110679361D01*
X106205246Y-110635857D01*
X106205119Y-110635611D01*
X106183730Y-110593167D01*
X106183067Y-110584237D01*
X106185745Y-110579792D01*
X106304138Y-110456678D01*
X106450000Y-110305000D01*
X106595779Y-110456592D01*
G37*
%TD.AperFunction*%
%TD*%
%TA.AperFunction,Conductor*%
%TO.N,+3V3*%
G36*
X107082491Y-99579586D02*
G01*
X107082202Y-99643875D01*
X107081647Y-99704774D01*
X107081618Y-99710000D01*
X107081339Y-99760544D01*
X107081783Y-99811537D01*
X107083484Y-99858101D01*
X107086947Y-99900587D01*
X107092678Y-99939344D01*
X107101181Y-99974722D01*
X107112962Y-100007070D01*
X107119817Y-100020138D01*
X107125021Y-100030059D01*
X107125829Y-100038977D01*
X107123888Y-100042687D01*
X106971718Y-100237856D01*
X106971718Y-100237857D01*
X106881033Y-100354168D01*
X106575996Y-100096552D01*
X106575337Y-100088271D01*
X106584013Y-100058735D01*
X106584107Y-100058415D01*
X106587523Y-100038977D01*
X106590743Y-100020657D01*
X106590744Y-100020650D01*
X106590788Y-100020399D01*
X106594218Y-99979845D01*
X106594317Y-99974722D01*
X106595055Y-99936307D01*
X106595055Y-99936296D01*
X106595057Y-99936189D01*
X106593961Y-99888867D01*
X106591590Y-99837314D01*
X106588600Y-99780965D01*
X106585649Y-99719256D01*
X106583397Y-99651622D01*
X106582581Y-99584210D01*
X106583544Y-99579419D01*
X106584375Y-99577500D01*
X107082075Y-99577500D01*
X107082491Y-99579586D01*
G37*
%TD.AperFunction*%
%TD*%
%TA.AperFunction,Conductor*%
%TO.N,+5V*%
G36*
X106696480Y-109868427D02*
G01*
X106699907Y-109876792D01*
X106699478Y-109931474D01*
X106698233Y-109993073D01*
X106696746Y-110049913D01*
X106695499Y-110102109D01*
X106694972Y-110149777D01*
X106695648Y-110193032D01*
X106698007Y-110231989D01*
X106702532Y-110266765D01*
X106709702Y-110297475D01*
X106717327Y-110317288D01*
X106717101Y-110326238D01*
X106714842Y-110329598D01*
X106450000Y-110605000D01*
X106185159Y-110329599D01*
X106181894Y-110321260D01*
X106182673Y-110317287D01*
X106190149Y-110297859D01*
X106190297Y-110297475D01*
X106197467Y-110266765D01*
X106201992Y-110231989D01*
X106204351Y-110193032D01*
X106205027Y-110149777D01*
X106204500Y-110102109D01*
X106203253Y-110049913D01*
X106201766Y-109993073D01*
X106200521Y-109931474D01*
X106200092Y-109876791D01*
X106203454Y-109868492D01*
X106211792Y-109865000D01*
X106688207Y-109865000D01*
X106696480Y-109868427D01*
G37*
%TD.AperFunction*%
%TD*%
%TA.AperFunction,Conductor*%
%TO.N,GND*%
G36*
X90962512Y-97741259D02*
G01*
X90980687Y-97761061D01*
X90984578Y-97768698D01*
X91076302Y-97860422D01*
X91085134Y-97864922D01*
X91093162Y-97870755D01*
X91091765Y-97872677D01*
X91133319Y-97911923D01*
X91150500Y-97975441D01*
X91150500Y-98097255D01*
X91142533Y-98137306D01*
X91140266Y-98140699D01*
X91125500Y-98214933D01*
X91125501Y-99665066D01*
X91140266Y-99739301D01*
X91147161Y-99749621D01*
X91147162Y-99749622D01*
X91157498Y-99765090D01*
X91196516Y-99823484D01*
X91280699Y-99879734D01*
X91354933Y-99894500D01*
X91368767Y-99894500D01*
X91524500Y-99894499D01*
X91592620Y-99914501D01*
X91639113Y-99968156D01*
X91650500Y-100020499D01*
X91650500Y-100606080D01*
X91647951Y-100630028D01*
X91647872Y-100631693D01*
X91645680Y-100641876D01*
X91646904Y-100652217D01*
X91649627Y-100675223D01*
X91649977Y-100681154D01*
X91650072Y-100681146D01*
X91650500Y-100686324D01*
X91650500Y-100691524D01*
X91651354Y-100696653D01*
X91651354Y-100696656D01*
X91653669Y-100710565D01*
X91654506Y-100716443D01*
X91659201Y-100756109D01*
X91660530Y-100767341D01*
X91664493Y-100775593D01*
X91665996Y-100784626D01*
X91670943Y-100793795D01*
X91670944Y-100793797D01*
X91690334Y-100829732D01*
X91693031Y-100835025D01*
X91711785Y-100874082D01*
X91711788Y-100874086D01*
X91715219Y-100881232D01*
X91718814Y-100885508D01*
X91720737Y-100887431D01*
X91722509Y-100889363D01*
X91722552Y-100889442D01*
X91722428Y-100889555D01*
X91722904Y-100890095D01*
X91725990Y-100895814D01*
X91733635Y-100902881D01*
X91765586Y-100932416D01*
X91769152Y-100935846D01*
X92173522Y-101340216D01*
X92188664Y-101358964D01*
X92189779Y-101360189D01*
X92195429Y-101368940D01*
X92203607Y-101375387D01*
X92203609Y-101375389D01*
X92221800Y-101389729D01*
X92226241Y-101393675D01*
X92226303Y-101393602D01*
X92230267Y-101396961D01*
X92233944Y-101400638D01*
X92249692Y-101411892D01*
X92254362Y-101415398D01*
X92294647Y-101447156D01*
X92303281Y-101450188D01*
X92310734Y-101455514D01*
X92359850Y-101470203D01*
X92365492Y-101472036D01*
X92406367Y-101486390D01*
X92413851Y-101489018D01*
X92419416Y-101489500D01*
X92422124Y-101489500D01*
X92424758Y-101489614D01*
X92424856Y-101489643D01*
X92424849Y-101489807D01*
X92425553Y-101489851D01*
X92431778Y-101491713D01*
X92485635Y-101489597D01*
X92490582Y-101489500D01*
X94575798Y-101489500D01*
X94643919Y-101509502D01*
X94690412Y-101563158D01*
X94700516Y-101633432D01*
X94689946Y-101668850D01*
X94662947Y-101726617D01*
X94661016Y-101730567D01*
X94628007Y-101795212D01*
X94626267Y-101802322D01*
X94624177Y-101807942D01*
X94622297Y-101813593D01*
X94619199Y-101820222D01*
X94617709Y-101827386D01*
X94617708Y-101827389D01*
X94604415Y-101891303D01*
X94603449Y-101895573D01*
X94586189Y-101966108D01*
X94585500Y-101977214D01*
X94585466Y-101977212D01*
X94585223Y-101981271D01*
X94584863Y-101985305D01*
X94583372Y-101992473D01*
X94583570Y-101999790D01*
X94585454Y-102069415D01*
X94585500Y-102072823D01*
X94585500Y-102743019D01*
X94565498Y-102811140D01*
X94511842Y-102857633D01*
X94503729Y-102861001D01*
X94486129Y-102867599D01*
X94445236Y-102882929D01*
X94438057Y-102888309D01*
X94438054Y-102888311D01*
X94392647Y-102922342D01*
X94329596Y-102969596D01*
X94324215Y-102976776D01*
X94248311Y-103078054D01*
X94248309Y-103078057D01*
X94242929Y-103085236D01*
X94192202Y-103220552D01*
X94185804Y-103279452D01*
X94185763Y-103279826D01*
X94158521Y-103345388D01*
X94100159Y-103385815D01*
X94029204Y-103388271D01*
X93968186Y-103351976D01*
X93936477Y-103288454D01*
X93934500Y-103266219D01*
X93934499Y-102621123D01*
X93934499Y-102614934D01*
X93924468Y-102564498D01*
X93922156Y-102552874D01*
X93922155Y-102552872D01*
X93919734Y-102540699D01*
X93896767Y-102506326D01*
X93870377Y-102466832D01*
X93863484Y-102456516D01*
X93779301Y-102400266D01*
X93705067Y-102385500D01*
X93530029Y-102385500D01*
X93354934Y-102385501D01*
X93304581Y-102395516D01*
X93255421Y-102395516D01*
X93211135Y-102386707D01*
X93205067Y-102385500D01*
X93030029Y-102385500D01*
X92854934Y-102385501D01*
X92819182Y-102392612D01*
X92792874Y-102397844D01*
X92792872Y-102397845D01*
X92780699Y-102400266D01*
X92770379Y-102407161D01*
X92770378Y-102407162D01*
X92744109Y-102424715D01*
X92696516Y-102456516D01*
X92689623Y-102466832D01*
X92663234Y-102506326D01*
X92640266Y-102540699D01*
X92639805Y-102540391D01*
X92601862Y-102587476D01*
X92534499Y-102609898D01*
X92465707Y-102592340D01*
X92420307Y-102543578D01*
X92419734Y-102540699D01*
X92396767Y-102506326D01*
X92370377Y-102466832D01*
X92363484Y-102456516D01*
X92279301Y-102400266D01*
X92205067Y-102385500D01*
X92030029Y-102385500D01*
X91854934Y-102385501D01*
X91804581Y-102395516D01*
X91755421Y-102395516D01*
X91711135Y-102386707D01*
X91705067Y-102385500D01*
X91530029Y-102385500D01*
X91354934Y-102385501D01*
X91319182Y-102392612D01*
X91292874Y-102397844D01*
X91292872Y-102397845D01*
X91280699Y-102400266D01*
X91270379Y-102407161D01*
X91270378Y-102407162D01*
X91244109Y-102424715D01*
X91196516Y-102456516D01*
X91140266Y-102540699D01*
X91125500Y-102614933D01*
X91125501Y-104065066D01*
X91131821Y-104096843D01*
X91137605Y-104125921D01*
X91140266Y-104139301D01*
X91147161Y-104149621D01*
X91147162Y-104149622D01*
X91153478Y-104159074D01*
X91174694Y-104226826D01*
X91174237Y-104240019D01*
X91172493Y-104260015D01*
X91171302Y-104269494D01*
X91169399Y-104281073D01*
X91167202Y-104291603D01*
X91165847Y-104296943D01*
X91162775Y-104307197D01*
X91160875Y-104312678D01*
X91157670Y-104320966D01*
X91152996Y-104331892D01*
X91152641Y-104332722D01*
X91150289Y-104337895D01*
X91143508Y-104351959D01*
X91143495Y-104351977D01*
X91143498Y-104351978D01*
X91139966Y-104359301D01*
X91139729Y-104359792D01*
X91138861Y-104361556D01*
X91122945Y-104393270D01*
X91122774Y-104393611D01*
X91122724Y-104393711D01*
X91121815Y-104395549D01*
X91118478Y-104402360D01*
X91115584Y-104408267D01*
X91115410Y-104408572D01*
X91113999Y-104410170D01*
X91111678Y-104415113D01*
X91111676Y-104415117D01*
X91089738Y-104461845D01*
X91052583Y-104540982D01*
X91051203Y-104549846D01*
X91051202Y-104549849D01*
X91032568Y-104669530D01*
X91030350Y-104683773D01*
X91031514Y-104692675D01*
X91031514Y-104692678D01*
X91042426Y-104776121D01*
X91049088Y-104827065D01*
X91107289Y-104959339D01*
X91113063Y-104966208D01*
X91173027Y-105037543D01*
X91200276Y-105069960D01*
X91207747Y-105074933D01*
X91207748Y-105074934D01*
X91313101Y-105145063D01*
X91313103Y-105145064D01*
X91320574Y-105150037D01*
X91329138Y-105152713D01*
X91329141Y-105152714D01*
X91389542Y-105171585D01*
X91458510Y-105193132D01*
X91602998Y-105195780D01*
X91627801Y-105189018D01*
X91733763Y-105160130D01*
X91733765Y-105160129D01*
X91742422Y-105157769D01*
X91865572Y-105082154D01*
X91886298Y-105059257D01*
X91930909Y-105009971D01*
X91957584Y-104980502D01*
X91962551Y-104975014D01*
X91963491Y-104975865D01*
X92011257Y-104936298D01*
X92081738Y-104927758D01*
X92145648Y-104958678D01*
X92157492Y-104970970D01*
X92170599Y-104986562D01*
X92190276Y-105009971D01*
X92197747Y-105014944D01*
X92197748Y-105014945D01*
X92303101Y-105085074D01*
X92303103Y-105085075D01*
X92310574Y-105090048D01*
X92319138Y-105092724D01*
X92319141Y-105092725D01*
X92370197Y-105108676D01*
X92448510Y-105133143D01*
X92592998Y-105135791D01*
X92612530Y-105130466D01*
X92723763Y-105100141D01*
X92723765Y-105100140D01*
X92732422Y-105097780D01*
X92855572Y-105022165D01*
X92952551Y-104915025D01*
X93000882Y-104815268D01*
X93011645Y-104793054D01*
X93011645Y-104793053D01*
X93015560Y-104784973D01*
X93039536Y-104642464D01*
X93039688Y-104630011D01*
X93022350Y-104508949D01*
X93020474Y-104495846D01*
X93020473Y-104495844D01*
X93019201Y-104486959D01*
X93015201Y-104478160D01*
X93012696Y-104472651D01*
X93002708Y-104402360D01*
X93032309Y-104337828D01*
X93092099Y-104299544D01*
X93127394Y-104294499D01*
X93205066Y-104294499D01*
X93255419Y-104284484D01*
X93304579Y-104284484D01*
X93354933Y-104294500D01*
X93376323Y-104294500D01*
X93609981Y-104294499D01*
X93678100Y-104314501D01*
X93724593Y-104368156D01*
X93735980Y-104420499D01*
X93735980Y-108261560D01*
X93733431Y-108285508D01*
X93733352Y-108287173D01*
X93731160Y-108297356D01*
X93732384Y-108307697D01*
X93735107Y-108330703D01*
X93735457Y-108336634D01*
X93735552Y-108336626D01*
X93735980Y-108341804D01*
X93735980Y-108347004D01*
X93736834Y-108352133D01*
X93736834Y-108352136D01*
X93739149Y-108366045D01*
X93739986Y-108371923D01*
X93744744Y-108412120D01*
X93746010Y-108422821D01*
X93749973Y-108431073D01*
X93751476Y-108440106D01*
X93756423Y-108449275D01*
X93756424Y-108449277D01*
X93775814Y-108485212D01*
X93778511Y-108490505D01*
X93797265Y-108529562D01*
X93797268Y-108529566D01*
X93800699Y-108536712D01*
X93804294Y-108540988D01*
X93806217Y-108542911D01*
X93807989Y-108544843D01*
X93808032Y-108544922D01*
X93807908Y-108545035D01*
X93808384Y-108545575D01*
X93811470Y-108551294D01*
X93819115Y-108558361D01*
X93851066Y-108587896D01*
X93854632Y-108591326D01*
X94303522Y-109040216D01*
X94318664Y-109058964D01*
X94319779Y-109060189D01*
X94325429Y-109068940D01*
X94333607Y-109075387D01*
X94333609Y-109075389D01*
X94351800Y-109089729D01*
X94356241Y-109093675D01*
X94356303Y-109093602D01*
X94360267Y-109096961D01*
X94363944Y-109100638D01*
X94379692Y-109111892D01*
X94384362Y-109115398D01*
X94424647Y-109147156D01*
X94433281Y-109150188D01*
X94440734Y-109155514D01*
X94489850Y-109170203D01*
X94495492Y-109172036D01*
X94517866Y-109179893D01*
X94543851Y-109189018D01*
X94549416Y-109189500D01*
X94552124Y-109189500D01*
X94554758Y-109189614D01*
X94554856Y-109189643D01*
X94554849Y-109189807D01*
X94555553Y-109189851D01*
X94561778Y-109191713D01*
X94615635Y-109189597D01*
X94620582Y-109189500D01*
X94784766Y-109189500D01*
X94788240Y-109189548D01*
X94789692Y-109189589D01*
X94857222Y-109211492D01*
X94875252Y-109226444D01*
X94958326Y-109309518D01*
X94967163Y-109314021D01*
X94970804Y-109316666D01*
X95014157Y-109372890D01*
X95022690Y-109415031D01*
X95022949Y-109424169D01*
X95023000Y-109427739D01*
X95023000Y-109475080D01*
X95022960Y-109478241D01*
X95022864Y-109482067D01*
X95001160Y-109549664D01*
X94970967Y-109580841D01*
X94965140Y-109585075D01*
X94956302Y-109589578D01*
X94864578Y-109681302D01*
X94805688Y-109796880D01*
X94790500Y-109892774D01*
X94790500Y-110267226D01*
X94805688Y-110363120D01*
X94864578Y-110478698D01*
X94956302Y-110570422D01*
X95071880Y-110629312D01*
X95081669Y-110630862D01*
X95081671Y-110630863D01*
X95109921Y-110635337D01*
X95167774Y-110644500D01*
X95657226Y-110644500D01*
X95715079Y-110635337D01*
X95743329Y-110630863D01*
X95743331Y-110630862D01*
X95753120Y-110629312D01*
X95868698Y-110570422D01*
X95890905Y-110548215D01*
X95953217Y-110514189D01*
X96024032Y-110519254D01*
X96069095Y-110548215D01*
X96091302Y-110570422D01*
X96206880Y-110629312D01*
X96216669Y-110630862D01*
X96216671Y-110630863D01*
X96244921Y-110635337D01*
X96302774Y-110644500D01*
X96792226Y-110644500D01*
X96850079Y-110635337D01*
X96878329Y-110630863D01*
X96878331Y-110630862D01*
X96888120Y-110629312D01*
X97003698Y-110570422D01*
X97095422Y-110478698D01*
X97154312Y-110363120D01*
X97169500Y-110267226D01*
X97169500Y-109892774D01*
X97154312Y-109796880D01*
X97095422Y-109681302D01*
X97004265Y-109590145D01*
X96970239Y-109527833D01*
X96967397Y-109504089D01*
X96967037Y-109489168D01*
X96967000Y-109486129D01*
X96967000Y-109437324D01*
X96967049Y-109433820D01*
X96967268Y-109425961D01*
X96967403Y-109421094D01*
X96989291Y-109353557D01*
X97025902Y-109321349D01*
X97024814Y-109319851D01*
X97032841Y-109314018D01*
X97041674Y-109309518D01*
X97044592Y-109306600D01*
X97099533Y-109284859D01*
X97099816Y-109284824D01*
X97106721Y-109284147D01*
X97155304Y-109280734D01*
X97161473Y-109280452D01*
X97205210Y-109279528D01*
X97207871Y-109279500D01*
X97314766Y-109279500D01*
X97318240Y-109279548D01*
X97319692Y-109279589D01*
X97387222Y-109301492D01*
X97405252Y-109316444D01*
X97488326Y-109399518D01*
X97605316Y-109459127D01*
X97615105Y-109460678D01*
X97615107Y-109460678D01*
X97642880Y-109465077D01*
X97702377Y-109474500D01*
X97932453Y-109474500D01*
X98162622Y-109474499D01*
X98186988Y-109470640D01*
X98249886Y-109460679D01*
X98249888Y-109460678D01*
X98259684Y-109459127D01*
X98271898Y-109452904D01*
X98367842Y-109404018D01*
X98376674Y-109399518D01*
X98469518Y-109306674D01*
X98529127Y-109189684D01*
X98531107Y-109177186D01*
X98540888Y-109115426D01*
X98544500Y-109092623D01*
X98544499Y-108707378D01*
X98529127Y-108610316D01*
X98516256Y-108585054D01*
X98474018Y-108502158D01*
X98469518Y-108493326D01*
X98376674Y-108400482D01*
X98259684Y-108340873D01*
X98249895Y-108339322D01*
X98249893Y-108339322D01*
X98222120Y-108334923D01*
X98162623Y-108325500D01*
X97932547Y-108325500D01*
X97702378Y-108325501D01*
X97678012Y-108329360D01*
X97615114Y-108339321D01*
X97615112Y-108339322D01*
X97605316Y-108340873D01*
X97488326Y-108400482D01*
X97405253Y-108483555D01*
X97342941Y-108517581D01*
X97319752Y-108520409D01*
X97318313Y-108520449D01*
X97314755Y-108520500D01*
X97271434Y-108520500D01*
X97203313Y-108500498D01*
X97159167Y-108451703D01*
X97153049Y-108439695D01*
X97134518Y-108403326D01*
X97041674Y-108310482D01*
X97032836Y-108305979D01*
X97032140Y-108305473D01*
X96988787Y-108249249D01*
X96980246Y-108206831D01*
X96979543Y-108179945D01*
X96979500Y-108176652D01*
X96979500Y-108100500D01*
X96999502Y-108032379D01*
X97053158Y-107985886D01*
X97105500Y-107974500D01*
X98106834Y-107974500D01*
X98201555Y-107959498D01*
X98315723Y-107901326D01*
X98406326Y-107810723D01*
X98464498Y-107696555D01*
X98479500Y-107601834D01*
X98479500Y-107238166D01*
X98464498Y-107143445D01*
X98406326Y-107029277D01*
X98315723Y-106938674D01*
X98201555Y-106880502D01*
X98106834Y-106865500D01*
X97018166Y-106865500D01*
X96923445Y-106880502D01*
X96809277Y-106938674D01*
X96718674Y-107029277D01*
X96714171Y-107038115D01*
X96708343Y-107046136D01*
X96706430Y-107044746D01*
X96667151Y-107086335D01*
X96658177Y-107091098D01*
X96628768Y-107105220D01*
X96624492Y-107108814D01*
X96622552Y-107110754D01*
X96620641Y-107112507D01*
X96620551Y-107112556D01*
X96620439Y-107112433D01*
X96619904Y-107112905D01*
X96614186Y-107115990D01*
X96607119Y-107123635D01*
X96577584Y-107155586D01*
X96574154Y-107159152D01*
X96369784Y-107363522D01*
X96351036Y-107378664D01*
X96349811Y-107379779D01*
X96341060Y-107385429D01*
X96334613Y-107393607D01*
X96334611Y-107393609D01*
X96320271Y-107411800D01*
X96316325Y-107416241D01*
X96316398Y-107416303D01*
X96313039Y-107420267D01*
X96309362Y-107423944D01*
X96298108Y-107439692D01*
X96294602Y-107444362D01*
X96262844Y-107484647D01*
X96259812Y-107493281D01*
X96254486Y-107500734D01*
X96251501Y-107510715D01*
X96239799Y-107549844D01*
X96237964Y-107555492D01*
X96220982Y-107603851D01*
X96220500Y-107609416D01*
X96220500Y-107612124D01*
X96220386Y-107614758D01*
X96220357Y-107614856D01*
X96220193Y-107614849D01*
X96220149Y-107615553D01*
X96218287Y-107621778D01*
X96220019Y-107665869D01*
X96220403Y-107675635D01*
X96220500Y-107680582D01*
X96220500Y-108176294D01*
X96220456Y-108179636D01*
X96219831Y-108203190D01*
X96198029Y-108270756D01*
X96167939Y-108301782D01*
X96162161Y-108305981D01*
X96153326Y-108310482D01*
X96089095Y-108374713D01*
X96026783Y-108408739D01*
X95955968Y-108403674D01*
X95910905Y-108374713D01*
X95846674Y-108310482D01*
X95729684Y-108250873D01*
X95719895Y-108249322D01*
X95719893Y-108249322D01*
X95684465Y-108243711D01*
X95632623Y-108235500D01*
X95402547Y-108235500D01*
X95172378Y-108235501D01*
X95148012Y-108239360D01*
X95085114Y-108249321D01*
X95085112Y-108249322D01*
X95075316Y-108250873D01*
X95066479Y-108255376D01*
X95066478Y-108255376D01*
X95054341Y-108261560D01*
X94958326Y-108310482D01*
X94891846Y-108376962D01*
X94829534Y-108410988D01*
X94758719Y-108405923D01*
X94713656Y-108376962D01*
X94531885Y-108195191D01*
X94497859Y-108132879D01*
X94494980Y-108106096D01*
X94494980Y-104608931D01*
X94514982Y-104540810D01*
X94568638Y-104494317D01*
X94634590Y-104483668D01*
X94642244Y-104484500D01*
X96037756Y-104484500D01*
X96062297Y-104481834D01*
X96091597Y-104478651D01*
X96091598Y-104478651D01*
X96099448Y-104477798D01*
X96106841Y-104475026D01*
X96106843Y-104475026D01*
X96172594Y-104450377D01*
X96234764Y-104427071D01*
X96241943Y-104421691D01*
X96241946Y-104421689D01*
X96343224Y-104345785D01*
X96350404Y-104340404D01*
X96385713Y-104293291D01*
X96431689Y-104231946D01*
X96431691Y-104231943D01*
X96437071Y-104224764D01*
X96474149Y-104125858D01*
X96485026Y-104096843D01*
X96485026Y-104096841D01*
X96487798Y-104089448D01*
X96494500Y-104027756D01*
X96494500Y-103282244D01*
X96487798Y-103220552D01*
X96437071Y-103085236D01*
X96431691Y-103078057D01*
X96431689Y-103078054D01*
X96355785Y-102976776D01*
X96350404Y-102969596D01*
X96287353Y-102922342D01*
X96241946Y-102888311D01*
X96241943Y-102888309D01*
X96234764Y-102882929D01*
X96193871Y-102867599D01*
X96176271Y-102861001D01*
X96119506Y-102818360D01*
X96094806Y-102751798D01*
X96094500Y-102743019D01*
X96094500Y-102424715D01*
X96114502Y-102356594D01*
X96131405Y-102335620D01*
X97165619Y-101301405D01*
X97227931Y-101267380D01*
X97254714Y-101264500D01*
X98148235Y-101264500D01*
X98167185Y-101265933D01*
X98181255Y-101268074D01*
X98181259Y-101268074D01*
X98188489Y-101269174D01*
X98195780Y-101268581D01*
X98195783Y-101268581D01*
X98240848Y-101264915D01*
X98251063Y-101264500D01*
X98259053Y-101264500D01*
X98266302Y-101263655D01*
X98287113Y-101261229D01*
X98291487Y-101260796D01*
X98356549Y-101255504D01*
X98356552Y-101255503D01*
X98363847Y-101254910D01*
X98370809Y-101252655D01*
X98376677Y-101251482D01*
X98382484Y-101250110D01*
X98389754Y-101249262D01*
X98458060Y-101224468D01*
X98462163Y-101223060D01*
X98531222Y-101200688D01*
X98537479Y-101196891D01*
X98542926Y-101194398D01*
X98548254Y-101191730D01*
X98555134Y-101189232D01*
X98615849Y-101149426D01*
X98619558Y-101147085D01*
X98659051Y-101123120D01*
X98679135Y-101110933D01*
X98747748Y-101092694D01*
X98815330Y-101114445D01*
X98860425Y-101169281D01*
X98870500Y-101218652D01*
X98870500Y-101431503D01*
X98850498Y-101499624D01*
X98812788Y-101537250D01*
X98805395Y-101540612D01*
X98785636Y-101557638D01*
X98769847Y-101571243D01*
X98761936Y-101577525D01*
X98751056Y-101585473D01*
X98740194Y-101596335D01*
X98733348Y-101602693D01*
X98695918Y-101634944D01*
X98691034Y-101642479D01*
X98685301Y-101649051D01*
X98676074Y-101660455D01*
X97373206Y-102963323D01*
X97363766Y-102970865D01*
X97364089Y-102971245D01*
X97357253Y-102977063D01*
X97349661Y-102981853D01*
X97343719Y-102988581D01*
X97314329Y-103021859D01*
X97308983Y-103027546D01*
X97297649Y-103038880D01*
X97294964Y-103042463D01*
X97294962Y-103042465D01*
X97291447Y-103047155D01*
X97285060Y-103055000D01*
X97278075Y-103062909D01*
X97217989Y-103100727D01*
X97183634Y-103105501D01*
X97054934Y-103105501D01*
X97019182Y-103112612D01*
X96992874Y-103117844D01*
X96992872Y-103117845D01*
X96980699Y-103120266D01*
X96970379Y-103127161D01*
X96970378Y-103127162D01*
X96932238Y-103152647D01*
X96896516Y-103176516D01*
X96840266Y-103260699D01*
X96825500Y-103334933D01*
X96825501Y-104285066D01*
X96831828Y-104316876D01*
X96837578Y-104345785D01*
X96840266Y-104359301D01*
X96847161Y-104369620D01*
X96847162Y-104369622D01*
X96881158Y-104420499D01*
X96896516Y-104443484D01*
X96980699Y-104499734D01*
X96984707Y-104500531D01*
X97035499Y-104541462D01*
X97058000Y-104613323D01*
X97058000Y-104851576D01*
X97037998Y-104919697D01*
X96984342Y-104966190D01*
X96951712Y-104976025D01*
X96933236Y-104978951D01*
X96933234Y-104978952D01*
X96923445Y-104980502D01*
X96809277Y-105038674D01*
X96718674Y-105129277D01*
X96660502Y-105243445D01*
X96645500Y-105338166D01*
X96645500Y-105701834D01*
X96660502Y-105796555D01*
X96718674Y-105910723D01*
X96809277Y-106001326D01*
X96923445Y-106059498D01*
X97018166Y-106074500D01*
X98106834Y-106074500D01*
X98201555Y-106059498D01*
X98315723Y-106001326D01*
X98406326Y-105910723D01*
X98464498Y-105796555D01*
X98479500Y-105701834D01*
X98479500Y-105338166D01*
X98464498Y-105243445D01*
X98406326Y-105129277D01*
X98315723Y-105038674D01*
X98201555Y-104980502D01*
X98191766Y-104978952D01*
X98191764Y-104978951D01*
X98173288Y-104976025D01*
X98109135Y-104945612D01*
X98071609Y-104885343D01*
X98067000Y-104851576D01*
X98067000Y-104671698D01*
X98067019Y-104669530D01*
X98067088Y-104665516D01*
X98067556Y-104638330D01*
X98088727Y-104570564D01*
X98143175Y-104525002D01*
X98193537Y-104514499D01*
X98305066Y-104514499D01*
X98340818Y-104507388D01*
X98367126Y-104502156D01*
X98367128Y-104502155D01*
X98379301Y-104499734D01*
X98389621Y-104492839D01*
X98389622Y-104492838D01*
X98453168Y-104450377D01*
X98463484Y-104443484D01*
X98496742Y-104393711D01*
X98512839Y-104369620D01*
X98519734Y-104359301D01*
X98534500Y-104285067D01*
X98534499Y-103334934D01*
X98530057Y-103312601D01*
X98536388Y-103241887D01*
X98564542Y-103198929D01*
X98728050Y-103035421D01*
X98790362Y-103001395D01*
X98861177Y-103006460D01*
X98918013Y-103049007D01*
X98925598Y-103060377D01*
X98994606Y-103177064D01*
X98994608Y-103177067D01*
X98998644Y-103183891D01*
X99111109Y-103296356D01*
X99117933Y-103300392D01*
X99117936Y-103300394D01*
X99194017Y-103345388D01*
X99248008Y-103377318D01*
X99255619Y-103379529D01*
X99255621Y-103379530D01*
X99302114Y-103393037D01*
X99400742Y-103421691D01*
X99407147Y-103422195D01*
X99407152Y-103422196D01*
X99433977Y-103424307D01*
X99433984Y-103424307D01*
X99436433Y-103424500D01*
X99874645Y-103424500D01*
X100313566Y-103424499D01*
X100336135Y-103422723D01*
X100342840Y-103422196D01*
X100342841Y-103422196D01*
X100349258Y-103421691D01*
X100355438Y-103419896D01*
X100355441Y-103419895D01*
X100494379Y-103379530D01*
X100494381Y-103379529D01*
X100501992Y-103377318D01*
X100555983Y-103345388D01*
X100632064Y-103300394D01*
X100632067Y-103300392D01*
X100638891Y-103296356D01*
X100751356Y-103183891D01*
X100755392Y-103177067D01*
X100755394Y-103177064D01*
X100828281Y-103053818D01*
X100832318Y-103046992D01*
X100839790Y-103021275D01*
X100852717Y-102976776D01*
X100876691Y-102894258D01*
X100877195Y-102887853D01*
X100877196Y-102887848D01*
X100879308Y-102861001D01*
X100879500Y-102858567D01*
X100879499Y-101081434D01*
X100876691Y-101045742D01*
X100873762Y-101035658D01*
X100834530Y-100900621D01*
X100834529Y-100900619D01*
X100832318Y-100893008D01*
X100788357Y-100818674D01*
X100755394Y-100762936D01*
X100755392Y-100762933D01*
X100751356Y-100756109D01*
X100638891Y-100643644D01*
X100632067Y-100639608D01*
X100632064Y-100639606D01*
X100508818Y-100566719D01*
X100508819Y-100566719D01*
X100501992Y-100562682D01*
X100494381Y-100560471D01*
X100494379Y-100560470D01*
X100445139Y-100546165D01*
X100349258Y-100518309D01*
X100342853Y-100517805D01*
X100342848Y-100517804D01*
X100316023Y-100515693D01*
X100316016Y-100515693D01*
X100313567Y-100515500D01*
X100298810Y-100515500D01*
X99580713Y-100515501D01*
X99512593Y-100495499D01*
X99466100Y-100441843D01*
X99455996Y-100371570D01*
X99485489Y-100306989D01*
X99491619Y-100300406D01*
X99525620Y-100266405D01*
X99587932Y-100232379D01*
X99614715Y-100229500D01*
X101402523Y-100229500D01*
X101470644Y-100249502D01*
X101517137Y-100303158D01*
X101527241Y-100373432D01*
X101514171Y-100413901D01*
X101479159Y-100480834D01*
X101479155Y-100480844D01*
X101476291Y-100486319D01*
X101456289Y-100554440D01*
X101455648Y-100558899D01*
X101455647Y-100558903D01*
X101454237Y-100568709D01*
X101446000Y-100626000D01*
X101446000Y-105770000D01*
X101425998Y-105838121D01*
X101372342Y-105884614D01*
X101320000Y-105896000D01*
X100871274Y-105896000D01*
X100803153Y-105875998D01*
X100756660Y-105822342D01*
X100746825Y-105750291D01*
X100754500Y-105701834D01*
X100754500Y-105338166D01*
X100739498Y-105243445D01*
X100681326Y-105129277D01*
X100590723Y-105038674D01*
X100476555Y-104980502D01*
X100381834Y-104965500D01*
X99293166Y-104965500D01*
X99198445Y-104980502D01*
X99084277Y-105038674D01*
X98993674Y-105129277D01*
X98935502Y-105243445D01*
X98920500Y-105338166D01*
X98920500Y-105701834D01*
X98935502Y-105796555D01*
X98940003Y-105805388D01*
X98940004Y-105805391D01*
X98974140Y-105872386D01*
X98987245Y-105942163D01*
X98960545Y-106007948D01*
X98952545Y-106017081D01*
X98928484Y-106042016D01*
X98928480Y-106042022D01*
X98922227Y-106048502D01*
X98876291Y-106136319D01*
X98856289Y-106204440D01*
X98855648Y-106208899D01*
X98855647Y-106208903D01*
X98853441Y-106224245D01*
X98846000Y-106276000D01*
X98846000Y-107874000D01*
X98846360Y-107877347D01*
X98846360Y-107877351D01*
X98851179Y-107922172D01*
X98851804Y-107927990D01*
X98863190Y-107980332D01*
X98870384Y-108006555D01*
X98874284Y-108013403D01*
X98916362Y-108087298D01*
X98916365Y-108087302D01*
X98919425Y-108092676D01*
X98965918Y-108146332D01*
X98998502Y-108177773D01*
X99086319Y-108223709D01*
X99154440Y-108243711D01*
X99158899Y-108244352D01*
X99158903Y-108244353D01*
X99190220Y-108248855D01*
X99226000Y-108254000D01*
X100919500Y-108254000D01*
X100987621Y-108274002D01*
X101034114Y-108327658D01*
X101045500Y-108380000D01*
X101045500Y-109539746D01*
X101024265Y-109609748D01*
X101010266Y-109630699D01*
X100995500Y-109704933D01*
X100995501Y-111205066D01*
X100996709Y-111211138D01*
X100997315Y-111217294D01*
X100995816Y-111217442D01*
X100990156Y-111280710D01*
X100946604Y-111336778D01*
X100921124Y-111350989D01*
X100817750Y-111393808D01*
X100696696Y-111486696D01*
X100603808Y-111607750D01*
X100545416Y-111748720D01*
X100525500Y-111900000D01*
X100545416Y-112051280D01*
X100603808Y-112192250D01*
X100696696Y-112313304D01*
X100817750Y-112406192D01*
X100958720Y-112464584D01*
X101072020Y-112479500D01*
X101147980Y-112479500D01*
X101261280Y-112464584D01*
X101402250Y-112406192D01*
X101409223Y-112400841D01*
X101409641Y-112400680D01*
X101415952Y-112397036D01*
X101416520Y-112398021D01*
X101475445Y-112375243D01*
X101544993Y-112389511D01*
X101575018Y-112411712D01*
X101843158Y-112679852D01*
X101858300Y-112698600D01*
X101859415Y-112699825D01*
X101865065Y-112708576D01*
X101873243Y-112715023D01*
X101873245Y-112715025D01*
X101891436Y-112729365D01*
X101895880Y-112733314D01*
X101895942Y-112733240D01*
X101899899Y-112736593D01*
X101903580Y-112740274D01*
X101919290Y-112751501D01*
X101924016Y-112755049D01*
X101964283Y-112786792D01*
X101972920Y-112789825D01*
X101980370Y-112795149D01*
X101990346Y-112798133D01*
X101990347Y-112798133D01*
X102005682Y-112802719D01*
X102029485Y-112809838D01*
X102035122Y-112811670D01*
X102075835Y-112825967D01*
X102083487Y-112828654D01*
X102089052Y-112829136D01*
X102091760Y-112829136D01*
X102094394Y-112829250D01*
X102094492Y-112829279D01*
X102094485Y-112829443D01*
X102095189Y-112829487D01*
X102101414Y-112831349D01*
X102155271Y-112829233D01*
X102160218Y-112829136D01*
X105871444Y-112829136D01*
X105895392Y-112831685D01*
X105897057Y-112831764D01*
X105907240Y-112833956D01*
X105917581Y-112832732D01*
X105940587Y-112830009D01*
X105946518Y-112829659D01*
X105946510Y-112829564D01*
X105951688Y-112829136D01*
X105956888Y-112829136D01*
X105962017Y-112828282D01*
X105962020Y-112828282D01*
X105975929Y-112825967D01*
X105981807Y-112825130D01*
X106022365Y-112820330D01*
X106022366Y-112820330D01*
X106032705Y-112819106D01*
X106040957Y-112815143D01*
X106049990Y-112813640D01*
X106059159Y-112808693D01*
X106059161Y-112808692D01*
X106095096Y-112789302D01*
X106100389Y-112786605D01*
X106139446Y-112767851D01*
X106139450Y-112767848D01*
X106146596Y-112764417D01*
X106150872Y-112760822D01*
X106152795Y-112758899D01*
X106154727Y-112757127D01*
X106154806Y-112757084D01*
X106154919Y-112757208D01*
X106155459Y-112756732D01*
X106161178Y-112753646D01*
X106197781Y-112714049D01*
X106201210Y-112710484D01*
X106420695Y-112490999D01*
X106439443Y-112475857D01*
X106440668Y-112474742D01*
X106449419Y-112469092D01*
X106464264Y-112450261D01*
X106522146Y-112409148D01*
X106593066Y-112405856D01*
X106611432Y-112411859D01*
X106738720Y-112464584D01*
X106852020Y-112479500D01*
X106927980Y-112479500D01*
X107041280Y-112464584D01*
X107182250Y-112406192D01*
X107303304Y-112313304D01*
X107396192Y-112192250D01*
X107454584Y-112051280D01*
X107474500Y-111900000D01*
X107454584Y-111748720D01*
X107396192Y-111607750D01*
X107303304Y-111486696D01*
X107182250Y-111393808D01*
X107078879Y-111350990D01*
X107023599Y-111306441D01*
X107001178Y-111239077D01*
X107002929Y-111217322D01*
X107002686Y-111217298D01*
X107003293Y-111211135D01*
X107004500Y-111205067D01*
X107004499Y-109704934D01*
X106989734Y-109630699D01*
X106975735Y-109609748D01*
X106954500Y-109539746D01*
X106954500Y-108081368D01*
X106968853Y-108022965D01*
X106970841Y-108019164D01*
X106970841Y-108019163D01*
X106973709Y-108013681D01*
X106975452Y-108007744D01*
X106977770Y-108002004D01*
X106979868Y-108002851D01*
X107012772Y-107951660D01*
X107077354Y-107922172D01*
X107147628Y-107932281D01*
X107184372Y-107957796D01*
X107190865Y-107964289D01*
X107195373Y-107967446D01*
X107195376Y-107967448D01*
X107362270Y-108084308D01*
X107370605Y-108090144D01*
X107375587Y-108092467D01*
X107375592Y-108092470D01*
X107563182Y-108179945D01*
X107569468Y-108182876D01*
X107574776Y-108184298D01*
X107574778Y-108184299D01*
X107776098Y-108238242D01*
X107776100Y-108238242D01*
X107781413Y-108239666D01*
X108000000Y-108258790D01*
X108218587Y-108239666D01*
X108223900Y-108238242D01*
X108223902Y-108238242D01*
X108425222Y-108184299D01*
X108425224Y-108184298D01*
X108430532Y-108182876D01*
X108436818Y-108179945D01*
X108624408Y-108092470D01*
X108624413Y-108092467D01*
X108629395Y-108090144D01*
X108637730Y-108084308D01*
X108804624Y-107967448D01*
X108804627Y-107967446D01*
X108809135Y-107964289D01*
X108964289Y-107809135D01*
X108975561Y-107793038D01*
X109016787Y-107734160D01*
X109072244Y-107689832D01*
X109142863Y-107682523D01*
X109206224Y-107714554D01*
X109242209Y-107775755D01*
X109246000Y-107806431D01*
X109246000Y-115962575D01*
X109243579Y-115987153D01*
X109241024Y-116000000D01*
X109243445Y-116012172D01*
X109243445Y-116019754D01*
X109242838Y-116032104D01*
X109232882Y-116133188D01*
X109228065Y-116157408D01*
X109192813Y-116273617D01*
X109183369Y-116296418D01*
X109126124Y-116403517D01*
X109112406Y-116424047D01*
X109035374Y-116517909D01*
X109017909Y-116535374D01*
X108924047Y-116612406D01*
X108903517Y-116626124D01*
X108796418Y-116683369D01*
X108773617Y-116692813D01*
X108657408Y-116728065D01*
X108633188Y-116732882D01*
X108532104Y-116742838D01*
X108519754Y-116743445D01*
X108512172Y-116743445D01*
X108500000Y-116741024D01*
X108487153Y-116743579D01*
X108462575Y-116746000D01*
X91537425Y-116746000D01*
X91512847Y-116743579D01*
X91500000Y-116741024D01*
X91487828Y-116743445D01*
X91480246Y-116743445D01*
X91467896Y-116742838D01*
X91366812Y-116732882D01*
X91342592Y-116728065D01*
X91226383Y-116692813D01*
X91203582Y-116683369D01*
X91096483Y-116626124D01*
X91075953Y-116612406D01*
X90982091Y-116535374D01*
X90964626Y-116517909D01*
X90887594Y-116424047D01*
X90873876Y-116403517D01*
X90816631Y-116296418D01*
X90807187Y-116273617D01*
X90771935Y-116157408D01*
X90767118Y-116133188D01*
X90757162Y-116032104D01*
X90756555Y-116019754D01*
X90756555Y-116012172D01*
X90758976Y-116000000D01*
X90756421Y-115987153D01*
X90754000Y-115962575D01*
X90754000Y-113045685D01*
X91970500Y-113045685D01*
X91970501Y-114054314D01*
X91973507Y-114086127D01*
X92018791Y-114215076D01*
X92099990Y-114325010D01*
X92209924Y-114406209D01*
X92338873Y-114451493D01*
X92346515Y-114452215D01*
X92346518Y-114452216D01*
X92361421Y-114453624D01*
X92370685Y-114454500D01*
X92624828Y-114454500D01*
X92879314Y-114454499D01*
X92882262Y-114454220D01*
X92882271Y-114454220D01*
X92903478Y-114452216D01*
X92903480Y-114452216D01*
X92911127Y-114451493D01*
X93040076Y-114406209D01*
X93150010Y-114325010D01*
X93231209Y-114215076D01*
X93276493Y-114086127D01*
X93279500Y-114054315D01*
X93279500Y-113841178D01*
X94470500Y-113841178D01*
X94486024Y-113964061D01*
X94546899Y-114117814D01*
X94551557Y-114124225D01*
X94551558Y-114124227D01*
X94592698Y-114180851D01*
X94644098Y-114251597D01*
X94771514Y-114357005D01*
X94921141Y-114427414D01*
X95016298Y-114445566D01*
X95075791Y-114456915D01*
X95075793Y-114456915D01*
X95083577Y-114458400D01*
X95248616Y-114448017D01*
X95322415Y-114424038D01*
X95398351Y-114399365D01*
X95398354Y-114399364D01*
X95405887Y-114396916D01*
X95412577Y-114392670D01*
X95412580Y-114392669D01*
X95482636Y-114348210D01*
X95545510Y-114308309D01*
X95658710Y-114187763D01*
X95660569Y-114189508D01*
X95706891Y-114153791D01*
X95777627Y-114147717D01*
X95840418Y-114180851D01*
X95854537Y-114197146D01*
X95894098Y-114251597D01*
X96021514Y-114357005D01*
X96171141Y-114427414D01*
X96266298Y-114445566D01*
X96325791Y-114456915D01*
X96325793Y-114456915D01*
X96333577Y-114458400D01*
X96498616Y-114448017D01*
X96572415Y-114424038D01*
X96648351Y-114399365D01*
X96648354Y-114399364D01*
X96655887Y-114396916D01*
X96662577Y-114392670D01*
X96662580Y-114392669D01*
X96732636Y-114348210D01*
X96795510Y-114308309D01*
X96908710Y-114187763D01*
X96988375Y-114042853D01*
X97029500Y-113882683D01*
X97029500Y-113258822D01*
X97013976Y-113135939D01*
X96953101Y-112982186D01*
X96907325Y-112919180D01*
X96895463Y-112902854D01*
X96855902Y-112848403D01*
X96728486Y-112742995D01*
X96578859Y-112672586D01*
X96468243Y-112651485D01*
X96424209Y-112643085D01*
X96424207Y-112643085D01*
X96416423Y-112641600D01*
X96251384Y-112651983D01*
X96243840Y-112654434D01*
X96243841Y-112654434D01*
X96101649Y-112700635D01*
X96101646Y-112700636D01*
X96094113Y-112703084D01*
X96087423Y-112707330D01*
X96087420Y-112707331D01*
X96026486Y-112746001D01*
X95954490Y-112791691D01*
X95949063Y-112797470D01*
X95949062Y-112797471D01*
X95905977Y-112843352D01*
X95841290Y-112912237D01*
X95839431Y-112910492D01*
X95793109Y-112946209D01*
X95722373Y-112952283D01*
X95659582Y-112919149D01*
X95645463Y-112902854D01*
X95610561Y-112854816D01*
X95605902Y-112848403D01*
X95478486Y-112742995D01*
X95328859Y-112672586D01*
X95218243Y-112651485D01*
X95174209Y-112643085D01*
X95174207Y-112643085D01*
X95166423Y-112641600D01*
X95001384Y-112651983D01*
X94993840Y-112654434D01*
X94993841Y-112654434D01*
X94851649Y-112700635D01*
X94851646Y-112700636D01*
X94844113Y-112703084D01*
X94837423Y-112707330D01*
X94837420Y-112707331D01*
X94776486Y-112746001D01*
X94704490Y-112791691D01*
X94699063Y-112797470D01*
X94699062Y-112797471D01*
X94655977Y-112843352D01*
X94591290Y-112912237D01*
X94511625Y-113057147D01*
X94470500Y-113217317D01*
X94470500Y-113841178D01*
X93279500Y-113841178D01*
X93279499Y-113045686D01*
X93276493Y-113013873D01*
X93231209Y-112884924D01*
X93150010Y-112774990D01*
X93142439Y-112769398D01*
X93142436Y-112769395D01*
X93055641Y-112705287D01*
X93012730Y-112648726D01*
X93004500Y-112603936D01*
X93004500Y-111910536D01*
X93024502Y-111842415D01*
X93073298Y-111798269D01*
X93079864Y-111794924D01*
X93079868Y-111794921D01*
X93088698Y-111790422D01*
X93180422Y-111698698D01*
X93239312Y-111583120D01*
X93241252Y-111570875D01*
X93249507Y-111518751D01*
X93254500Y-111487226D01*
X93254500Y-111112774D01*
X93239312Y-111016880D01*
X93180422Y-110901302D01*
X93088698Y-110809578D01*
X92973120Y-110750688D01*
X92963331Y-110749138D01*
X92963329Y-110749137D01*
X92935079Y-110744663D01*
X92877226Y-110735500D01*
X92387774Y-110735500D01*
X92329921Y-110744663D01*
X92301671Y-110749137D01*
X92301669Y-110749138D01*
X92291880Y-110750688D01*
X92176302Y-110809578D01*
X92084578Y-110901302D01*
X92025688Y-111016880D01*
X92010500Y-111112774D01*
X92010500Y-111487226D01*
X92015493Y-111518751D01*
X92023749Y-111570875D01*
X92025688Y-111583120D01*
X92084578Y-111698698D01*
X92176302Y-111790422D01*
X92185138Y-111794924D01*
X92193161Y-111800753D01*
X92190839Y-111803948D01*
X92228402Y-111839521D01*
X92245342Y-111896601D01*
X92245343Y-111896621D01*
X92245500Y-111902913D01*
X92245500Y-112603936D01*
X92225498Y-112672057D01*
X92194359Y-112705287D01*
X92107564Y-112769395D01*
X92107561Y-112769398D01*
X92099990Y-112774990D01*
X92018791Y-112884924D01*
X91973507Y-113013873D01*
X91970500Y-113045685D01*
X90754000Y-113045685D01*
X90754000Y-107806431D01*
X90774002Y-107738310D01*
X90827658Y-107691817D01*
X90897932Y-107681713D01*
X90962512Y-107711207D01*
X90983213Y-107734160D01*
X91024440Y-107793038D01*
X91035711Y-107809135D01*
X91190865Y-107964289D01*
X91195373Y-107967446D01*
X91195376Y-107967448D01*
X91362270Y-108084308D01*
X91370605Y-108090144D01*
X91375587Y-108092467D01*
X91375592Y-108092470D01*
X91563182Y-108179945D01*
X91569468Y-108182876D01*
X91574776Y-108184298D01*
X91574778Y-108184299D01*
X91776098Y-108238242D01*
X91776100Y-108238242D01*
X91781413Y-108239666D01*
X92000000Y-108258790D01*
X92218587Y-108239666D01*
X92223900Y-108238242D01*
X92223902Y-108238242D01*
X92425222Y-108184299D01*
X92425224Y-108184298D01*
X92430532Y-108182876D01*
X92436818Y-108179945D01*
X92624408Y-108092470D01*
X92624413Y-108092467D01*
X92629395Y-108090144D01*
X92637730Y-108084308D01*
X92804624Y-107967448D01*
X92804627Y-107967446D01*
X92809135Y-107964289D01*
X92964289Y-107809135D01*
X92971224Y-107799232D01*
X93086987Y-107633904D01*
X93086988Y-107633902D01*
X93090144Y-107629395D01*
X93092467Y-107624413D01*
X93092470Y-107624408D01*
X93180553Y-107435514D01*
X93180554Y-107435512D01*
X93182876Y-107430532D01*
X93192770Y-107393609D01*
X93238242Y-107223902D01*
X93238242Y-107223900D01*
X93239666Y-107218587D01*
X93258790Y-107000000D01*
X93239666Y-106781413D01*
X93229002Y-106741614D01*
X93184299Y-106574778D01*
X93184298Y-106574776D01*
X93182876Y-106569468D01*
X93180553Y-106564486D01*
X93092470Y-106375592D01*
X93092467Y-106375587D01*
X93090144Y-106370605D01*
X93086987Y-106366096D01*
X92967448Y-106195376D01*
X92967446Y-106195373D01*
X92964289Y-106190865D01*
X92809135Y-106035711D01*
X92804627Y-106032554D01*
X92804624Y-106032552D01*
X92633904Y-105913013D01*
X92633902Y-105913012D01*
X92629395Y-105909856D01*
X92624413Y-105907533D01*
X92624408Y-105907530D01*
X92435514Y-105819447D01*
X92435512Y-105819446D01*
X92430532Y-105817124D01*
X92425224Y-105815702D01*
X92425222Y-105815701D01*
X92223902Y-105761758D01*
X92223900Y-105761758D01*
X92218587Y-105760334D01*
X92000000Y-105741210D01*
X91781413Y-105760334D01*
X91776100Y-105761758D01*
X91776098Y-105761758D01*
X91574778Y-105815701D01*
X91574776Y-105815702D01*
X91569468Y-105817124D01*
X91564488Y-105819446D01*
X91564486Y-105819447D01*
X91375592Y-105907530D01*
X91375587Y-105907533D01*
X91370605Y-105909856D01*
X91366098Y-105913012D01*
X91366096Y-105913013D01*
X91195376Y-106032552D01*
X91195373Y-106032554D01*
X91190865Y-106035711D01*
X91035711Y-106190865D01*
X91032554Y-106195373D01*
X91032552Y-106195376D01*
X90983213Y-106265840D01*
X90927756Y-106310168D01*
X90857137Y-106317477D01*
X90793776Y-106285446D01*
X90757791Y-106224245D01*
X90754000Y-106193569D01*
X90754000Y-97836483D01*
X90774002Y-97768362D01*
X90827658Y-97721869D01*
X90897932Y-97711765D01*
X90962512Y-97741259D01*
G37*
%TD.AperFunction*%
%TA.AperFunction,Conductor*%
G36*
X104012019Y-104811050D02*
G01*
X104015723Y-104811636D01*
X104018936Y-104812145D01*
X104056437Y-104824331D01*
X104061804Y-104827065D01*
X104064769Y-104828576D01*
X104096654Y-104851744D01*
X104110950Y-104866040D01*
X104112136Y-104867110D01*
X104112153Y-104867126D01*
X104120409Y-104874573D01*
X104130351Y-104883541D01*
X104150445Y-104899873D01*
X104155854Y-104902746D01*
X104155856Y-104902747D01*
X104231654Y-104943003D01*
X104231659Y-104943005D01*
X104237061Y-104945874D01*
X104281544Y-104959339D01*
X104301898Y-104965500D01*
X104305013Y-104966443D01*
X104349351Y-104975646D01*
X104448132Y-104967634D01*
X104454082Y-104965941D01*
X104454085Y-104965940D01*
X104512096Y-104949429D01*
X104512098Y-104949428D01*
X104516417Y-104948199D01*
X104562180Y-104927758D01*
X104578322Y-104920548D01*
X104578327Y-104920546D01*
X104582427Y-104918714D01*
X104586228Y-104916316D01*
X104586233Y-104916313D01*
X104594234Y-104911264D01*
X104606390Y-104903594D01*
X104638995Y-104889008D01*
X104673304Y-104879202D01*
X104708692Y-104874355D01*
X104726533Y-104874464D01*
X104727231Y-104874468D01*
X104744365Y-104874573D01*
X104779698Y-104879854D01*
X104813874Y-104890075D01*
X104846302Y-104905058D01*
X104871948Y-104921681D01*
X104876240Y-104924463D01*
X104903156Y-104947943D01*
X104926446Y-104974972D01*
X104945690Y-105005063D01*
X104953466Y-105022165D01*
X104960457Y-105037543D01*
X104970481Y-105071828D01*
X104975758Y-105108676D01*
X104975285Y-105147442D01*
X104969108Y-105184158D01*
X104958247Y-105218190D01*
X104946012Y-105243445D01*
X104942696Y-105250289D01*
X104922719Y-105279907D01*
X104903883Y-105300716D01*
X104898778Y-105306356D01*
X104871295Y-105329172D01*
X104840894Y-105347839D01*
X104808107Y-105362027D01*
X104755763Y-105376298D01*
X104685048Y-105375002D01*
X104682772Y-105374291D01*
X104633264Y-105358823D01*
X104601018Y-105343442D01*
X104585806Y-105333316D01*
X104585786Y-105333304D01*
X104584262Y-105332289D01*
X104582681Y-105331363D01*
X104560612Y-105318439D01*
X104560603Y-105318434D01*
X104559037Y-105317517D01*
X104533250Y-105304348D01*
X104527167Y-105302653D01*
X104527165Y-105302652D01*
X104441932Y-105278900D01*
X104441930Y-105278900D01*
X104435849Y-105277205D01*
X104365034Y-105272140D01*
X104362227Y-105272190D01*
X104362221Y-105272190D01*
X104328764Y-105272788D01*
X104328763Y-105272788D01*
X104319758Y-105272949D01*
X104274135Y-105287235D01*
X104231082Y-105300716D01*
X104231080Y-105300717D01*
X104225181Y-105302564D01*
X104219758Y-105305525D01*
X104219754Y-105305527D01*
X104166817Y-105334434D01*
X104162869Y-105336590D01*
X104159269Y-105339285D01*
X104108598Y-105377217D01*
X104108594Y-105377221D01*
X104104996Y-105379914D01*
X104081787Y-105403123D01*
X104076384Y-105408218D01*
X104072547Y-105411627D01*
X104067535Y-105415269D01*
X104061158Y-105422166D01*
X104047107Y-105433366D01*
X104047217Y-105433487D01*
X104006593Y-105470241D01*
X103979227Y-105499217D01*
X103933291Y-105587034D01*
X103913289Y-105655155D01*
X103912648Y-105659614D01*
X103912647Y-105659618D01*
X103903915Y-105720353D01*
X103903000Y-105726715D01*
X103903000Y-105728974D01*
X103900109Y-105736726D01*
X103903819Y-105758397D01*
X103904455Y-105770263D01*
X103907334Y-105797046D01*
X103936950Y-105891631D01*
X103939916Y-105897063D01*
X103939917Y-105897065D01*
X103964543Y-105942163D01*
X103970976Y-105953943D01*
X103973671Y-105957543D01*
X104014300Y-106011816D01*
X104013392Y-106012496D01*
X104024876Y-106037637D01*
X104036941Y-106040262D01*
X104054971Y-106052779D01*
X104055096Y-106052612D01*
X104113157Y-106096039D01*
X104117114Y-106098195D01*
X104117118Y-106098198D01*
X104136448Y-106108732D01*
X104175675Y-106130109D01*
X104217409Y-106148213D01*
X104315763Y-106160399D01*
X104361774Y-106157031D01*
X104382076Y-106155545D01*
X104382079Y-106155544D01*
X104386567Y-106155216D01*
X104390961Y-106154252D01*
X104390964Y-106154252D01*
X104413445Y-106149322D01*
X104457183Y-106139731D01*
X104463085Y-106137518D01*
X104464254Y-106137306D01*
X104465707Y-106136877D01*
X104465754Y-106137034D01*
X104507314Y-106129500D01*
X104612733Y-106129500D01*
X104613678Y-106129470D01*
X104613705Y-106129470D01*
X104627632Y-106129034D01*
X104627660Y-106129033D01*
X104628608Y-106129003D01*
X104634143Y-106128656D01*
X104638847Y-106128362D01*
X104638849Y-106128362D01*
X104644321Y-106128019D01*
X104691593Y-106116622D01*
X104751055Y-106118076D01*
X104751292Y-106116986D01*
X104755685Y-106117942D01*
X104760008Y-106119211D01*
X104764467Y-106119852D01*
X104764471Y-106119853D01*
X104795788Y-106124355D01*
X104831568Y-106129500D01*
X105202685Y-106129500D01*
X105246913Y-106137518D01*
X105284646Y-106151663D01*
X105315980Y-106168818D01*
X105328702Y-106178352D01*
X105340199Y-106186968D01*
X105344526Y-106190211D01*
X105369785Y-106215468D01*
X105391183Y-106244019D01*
X105408336Y-106275352D01*
X105422483Y-106313092D01*
X105430500Y-106357318D01*
X105430500Y-107703284D01*
X105424696Y-107741084D01*
X105416627Y-107766742D01*
X105409891Y-107793038D01*
X105409556Y-107799229D01*
X105409556Y-107799232D01*
X105405334Y-107877351D01*
X105404531Y-107892216D01*
X105405415Y-107898363D01*
X105414205Y-107959498D01*
X105414635Y-107962490D01*
X105425048Y-108006555D01*
X105429509Y-108014389D01*
X105471026Y-108087298D01*
X105471029Y-108087302D01*
X105474089Y-108092676D01*
X105520582Y-108146332D01*
X105553166Y-108177773D01*
X105640983Y-108223709D01*
X105709104Y-108243711D01*
X105713563Y-108244352D01*
X105713567Y-108244353D01*
X105744884Y-108248855D01*
X105780664Y-108254000D01*
X105819500Y-108254000D01*
X105887621Y-108274002D01*
X105934114Y-108327658D01*
X105945500Y-108380000D01*
X105945500Y-109349500D01*
X105925498Y-109417621D01*
X105871842Y-109464114D01*
X105819501Y-109475500D01*
X105594324Y-109475501D01*
X105574934Y-109475501D01*
X105524581Y-109485516D01*
X105475421Y-109485516D01*
X105431135Y-109476707D01*
X105425067Y-109475500D01*
X105410063Y-109475500D01*
X105230500Y-109475501D01*
X105162380Y-109455499D01*
X105115887Y-109401844D01*
X105104500Y-109349501D01*
X105104500Y-109201257D01*
X105106606Y-109181463D01*
X105106811Y-109177110D01*
X105109003Y-109166930D01*
X105105373Y-109136260D01*
X105105058Y-109130917D01*
X105104928Y-109130928D01*
X105104500Y-109125748D01*
X105104500Y-109120549D01*
X105103647Y-109115425D01*
X105103646Y-109115412D01*
X105101573Y-109102959D01*
X105100736Y-109097084D01*
X105096355Y-109060071D01*
X105095131Y-109049730D01*
X105091430Y-109042022D01*
X105090025Y-109033583D01*
X105067382Y-108991619D01*
X105064686Y-108986328D01*
X105047477Y-108950489D01*
X105047473Y-108950482D01*
X105044044Y-108943342D01*
X105040688Y-108939350D01*
X105038741Y-108937403D01*
X105037253Y-108935781D01*
X105037018Y-108935345D01*
X105037054Y-108935313D01*
X105036917Y-108935158D01*
X105033983Y-108929720D01*
X104997106Y-108895631D01*
X104993540Y-108892202D01*
X104786918Y-108685580D01*
X104774413Y-108670098D01*
X104771477Y-108666871D01*
X104765825Y-108658118D01*
X104741562Y-108638991D01*
X104737567Y-108635441D01*
X104737483Y-108635540D01*
X104733520Y-108632182D01*
X104729844Y-108628506D01*
X104725614Y-108625483D01*
X104715348Y-108618146D01*
X104710605Y-108614585D01*
X104681325Y-108591503D01*
X104681321Y-108591501D01*
X104673143Y-108585054D01*
X104665075Y-108582221D01*
X104658115Y-108577247D01*
X104612414Y-108563580D01*
X104606765Y-108561744D01*
X104569269Y-108548576D01*
X104569270Y-108548576D01*
X104561792Y-108545950D01*
X104556596Y-108545500D01*
X104553891Y-108545500D01*
X104551635Y-108545403D01*
X104551159Y-108545260D01*
X104551161Y-108545214D01*
X104550962Y-108545201D01*
X104545045Y-108543432D01*
X104495411Y-108545382D01*
X104494876Y-108545403D01*
X104489930Y-108545500D01*
X104479052Y-108545500D01*
X104475267Y-108545443D01*
X104471676Y-108545335D01*
X104458556Y-108544941D01*
X104449373Y-108544328D01*
X104435628Y-108542904D01*
X104390568Y-108529406D01*
X104387450Y-108527788D01*
X104381551Y-108524522D01*
X104364744Y-108514622D01*
X104362560Y-108513306D01*
X104335242Y-108496461D01*
X104335242Y-108496462D01*
X104334374Y-108495929D01*
X104334284Y-108495874D01*
X104333204Y-108495218D01*
X104325405Y-108490505D01*
X104299310Y-108474736D01*
X104295835Y-108472673D01*
X104295533Y-108472497D01*
X104295472Y-108472462D01*
X104295403Y-108472422D01*
X104293952Y-108471591D01*
X104292457Y-108470734D01*
X104282814Y-108465293D01*
X104276233Y-108461309D01*
X104223790Y-108427317D01*
X104215191Y-108424745D01*
X104215188Y-108424744D01*
X104172976Y-108412120D01*
X104113442Y-108373438D01*
X104084272Y-108308711D01*
X104094727Y-108238488D01*
X104141206Y-108186457D01*
X104140681Y-108185674D01*
X104170795Y-108165480D01*
X104170796Y-108165479D01*
X104178282Y-108160459D01*
X104212821Y-108118992D01*
X104237751Y-108089062D01*
X104237754Y-108089057D01*
X104241710Y-108084308D01*
X104260151Y-108050403D01*
X104274284Y-108024419D01*
X104274287Y-108024413D01*
X104275632Y-108021940D01*
X104293636Y-107980390D01*
X104305823Y-107882036D01*
X104304989Y-107870631D01*
X104300968Y-107815710D01*
X104300640Y-107811229D01*
X104285156Y-107740614D01*
X104284478Y-107738806D01*
X104279500Y-107704379D01*
X104279500Y-106789384D01*
X104278045Y-106762237D01*
X104275166Y-106735454D01*
X104245550Y-106640869D01*
X104211524Y-106578557D01*
X104174056Y-106528506D01*
X104170897Y-106524286D01*
X104170893Y-106524282D01*
X104168200Y-106520684D01*
X103887461Y-106239945D01*
X103866646Y-106201826D01*
X103847917Y-106196328D01*
X103826936Y-106179420D01*
X103696257Y-106048741D01*
X103696089Y-106048576D01*
X103692945Y-106045492D01*
X103692865Y-106045414D01*
X103692732Y-106045284D01*
X103692540Y-106045099D01*
X103692452Y-106045014D01*
X103690415Y-106043055D01*
X103655188Y-105981414D01*
X103653023Y-105970005D01*
X103652680Y-105967592D01*
X103652671Y-105967533D01*
X103652632Y-105967258D01*
X103651736Y-105961454D01*
X103651737Y-105961449D01*
X103651726Y-105961387D01*
X103651703Y-105961237D01*
X103651716Y-105961235D01*
X103650704Y-105952586D01*
X103650671Y-105952589D01*
X103650394Y-105949464D01*
X103650301Y-105928325D01*
X103650398Y-105927110D01*
X103650573Y-105925464D01*
X103652000Y-105898580D01*
X103652000Y-105765141D01*
X103656449Y-105749989D01*
X103654399Y-105746234D01*
X103652000Y-105729219D01*
X103652000Y-105726715D01*
X103651408Y-105722254D01*
X103643736Y-105664512D01*
X103643189Y-105660395D01*
X103626009Y-105596879D01*
X103612617Y-105559342D01*
X103555228Y-105478543D01*
X103511642Y-105437376D01*
X103511619Y-105437400D01*
X103499305Y-105428078D01*
X103491666Y-105419814D01*
X103487465Y-105415269D01*
X103482454Y-105411628D01*
X103478613Y-105408215D01*
X103473213Y-105403123D01*
X103451743Y-105381653D01*
X103428572Y-105349763D01*
X103427592Y-105347839D01*
X103424327Y-105341431D01*
X103412145Y-105303940D01*
X103411049Y-105297019D01*
X103409500Y-105277320D01*
X103409500Y-104962680D01*
X103411049Y-104942981D01*
X103412145Y-104936060D01*
X103424327Y-104898569D01*
X103428574Y-104890235D01*
X103451743Y-104858347D01*
X103458346Y-104851744D01*
X103490231Y-104828576D01*
X103493196Y-104827065D01*
X103498563Y-104824331D01*
X103536064Y-104812145D01*
X103539277Y-104811636D01*
X103542981Y-104811050D01*
X103562685Y-104809500D01*
X103992315Y-104809500D01*
X104012019Y-104811050D01*
G37*
%TD.AperFunction*%
%TA.AperFunction,Conductor*%
G36*
X107261690Y-93274002D02*
G01*
X107308183Y-93327658D01*
X107318287Y-93397932D01*
X107288793Y-93462512D01*
X107265840Y-93483213D01*
X107195376Y-93532552D01*
X107195373Y-93532554D01*
X107190865Y-93535711D01*
X107035711Y-93690865D01*
X107032554Y-93695373D01*
X107032552Y-93695376D01*
X106938638Y-93829500D01*
X106909856Y-93870605D01*
X106907533Y-93875587D01*
X106907530Y-93875592D01*
X106819447Y-94064486D01*
X106817124Y-94069468D01*
X106760334Y-94281413D01*
X106742121Y-94489584D01*
X106741210Y-94500000D01*
X106760334Y-94718587D01*
X106817124Y-94930532D01*
X106819446Y-94935512D01*
X106819447Y-94935514D01*
X106907530Y-95124408D01*
X106907533Y-95124413D01*
X106909856Y-95129395D01*
X106913012Y-95133902D01*
X106913013Y-95133904D01*
X106991389Y-95245836D01*
X107035711Y-95309135D01*
X107190865Y-95464289D01*
X107195373Y-95467446D01*
X107195376Y-95467448D01*
X107366096Y-95586987D01*
X107370605Y-95590144D01*
X107375587Y-95592467D01*
X107375592Y-95592470D01*
X107564486Y-95680553D01*
X107569468Y-95682876D01*
X107574776Y-95684298D01*
X107574778Y-95684299D01*
X107776098Y-95738242D01*
X107776100Y-95738242D01*
X107781413Y-95739666D01*
X108000000Y-95758790D01*
X108218587Y-95739666D01*
X108223900Y-95738242D01*
X108223902Y-95738242D01*
X108425222Y-95684299D01*
X108425224Y-95684298D01*
X108430532Y-95682876D01*
X108435514Y-95680553D01*
X108624408Y-95592470D01*
X108624413Y-95592467D01*
X108629395Y-95590144D01*
X108633904Y-95586987D01*
X108804624Y-95467448D01*
X108804627Y-95467446D01*
X108809135Y-95464289D01*
X108964289Y-95309135D01*
X109016787Y-95234160D01*
X109072244Y-95189832D01*
X109142863Y-95182523D01*
X109206224Y-95214554D01*
X109242209Y-95275755D01*
X109246000Y-95306431D01*
X109246000Y-106193569D01*
X109225998Y-106261690D01*
X109172342Y-106308183D01*
X109102068Y-106318287D01*
X109037488Y-106288793D01*
X109016787Y-106265840D01*
X108967448Y-106195376D01*
X108967446Y-106195373D01*
X108964289Y-106190865D01*
X108809135Y-106035711D01*
X108804627Y-106032554D01*
X108804624Y-106032552D01*
X108633904Y-105913013D01*
X108633902Y-105913012D01*
X108629395Y-105909856D01*
X108624413Y-105907533D01*
X108624408Y-105907530D01*
X108435514Y-105819447D01*
X108435512Y-105819446D01*
X108430532Y-105817124D01*
X108425218Y-105815700D01*
X108425215Y-105815699D01*
X108409320Y-105811440D01*
X108348696Y-105774490D01*
X108317673Y-105710631D01*
X108326100Y-105640136D01*
X108352833Y-105600638D01*
X108506794Y-105446677D01*
X108516234Y-105439135D01*
X108515911Y-105438755D01*
X108522747Y-105432937D01*
X108530339Y-105428147D01*
X108565672Y-105388140D01*
X108571017Y-105382454D01*
X108582351Y-105371120D01*
X108588553Y-105362845D01*
X108594940Y-105355000D01*
X108620060Y-105326557D01*
X108626001Y-105319830D01*
X108629814Y-105311708D01*
X108631654Y-105308907D01*
X108640063Y-105294912D01*
X108641685Y-105291949D01*
X108647070Y-105284764D01*
X108650224Y-105276352D01*
X108663546Y-105240818D01*
X108667471Y-105231502D01*
X108683601Y-105197145D01*
X108687417Y-105189018D01*
X108688799Y-105180144D01*
X108689785Y-105176917D01*
X108693920Y-105161154D01*
X108694644Y-105157860D01*
X108697798Y-105149448D01*
X108701276Y-105102650D01*
X108702426Y-105092626D01*
X108704500Y-105079303D01*
X108704500Y-105063938D01*
X108704846Y-105054601D01*
X108705509Y-105045685D01*
X108708507Y-105005334D01*
X108706634Y-104996558D01*
X108706041Y-104987864D01*
X108704500Y-104973264D01*
X108704500Y-104675493D01*
X108718233Y-104618290D01*
X108734997Y-104585389D01*
X108734997Y-104585388D01*
X108739498Y-104576555D01*
X108754500Y-104481834D01*
X108754500Y-103393166D01*
X108752341Y-103379530D01*
X108741049Y-103308238D01*
X108739498Y-103298445D01*
X108681326Y-103184277D01*
X108590723Y-103093674D01*
X108476555Y-103035502D01*
X108381834Y-103020500D01*
X108018166Y-103020500D01*
X107923445Y-103035502D01*
X107809277Y-103093674D01*
X107718674Y-103184277D01*
X107660502Y-103298445D01*
X107658951Y-103308238D01*
X107647660Y-103379530D01*
X107645500Y-103393166D01*
X107645500Y-104481834D01*
X107660502Y-104576555D01*
X107665003Y-104585388D01*
X107665003Y-104585389D01*
X107681767Y-104618290D01*
X107695500Y-104675493D01*
X107695500Y-104719500D01*
X107675498Y-104787621D01*
X107621842Y-104834114D01*
X107569500Y-104845500D01*
X107130000Y-104845500D01*
X107061879Y-104825498D01*
X107015386Y-104771842D01*
X107004000Y-104719500D01*
X107004000Y-104684325D01*
X106996982Y-104625030D01*
X106983249Y-104567828D01*
X106976617Y-104549849D01*
X106965664Y-104520161D01*
X106962583Y-104511809D01*
X106961049Y-104508798D01*
X106952084Y-104478160D01*
X106951050Y-104471629D01*
X106949500Y-104451926D01*
X106949500Y-103408104D01*
X106949824Y-103408104D01*
X106949589Y-103406981D01*
X106949678Y-103405846D01*
X106949500Y-103402151D01*
X106949500Y-103400945D01*
X106949511Y-103400225D01*
X106949513Y-103400219D01*
X106949515Y-103399952D01*
X106949517Y-103399824D01*
X106949500Y-103399119D01*
X106949500Y-103393166D01*
X106951701Y-103393166D01*
X106951741Y-103393037D01*
X106949067Y-103393166D01*
X106946779Y-103345670D01*
X106946587Y-103341680D01*
X106944323Y-103328867D01*
X106935993Y-103281737D01*
X106935992Y-103281733D01*
X106935589Y-103279452D01*
X106926467Y-103243445D01*
X106922259Y-103236055D01*
X106880489Y-103162702D01*
X106880486Y-103162698D01*
X106877426Y-103157324D01*
X106830933Y-103103668D01*
X106798349Y-103072227D01*
X106710532Y-103026291D01*
X106642411Y-103006289D01*
X106637952Y-103005648D01*
X106637948Y-103005647D01*
X106606631Y-103001144D01*
X106570851Y-102996000D01*
X105630000Y-102996000D01*
X105561879Y-102975998D01*
X105515386Y-102922342D01*
X105504000Y-102870000D01*
X105504000Y-102283047D01*
X105524002Y-102214926D01*
X105577658Y-102168433D01*
X105647932Y-102158329D01*
X105712512Y-102187823D01*
X105750896Y-102247549D01*
X105754449Y-102263337D01*
X105760502Y-102301555D01*
X105818674Y-102415723D01*
X105909277Y-102506326D01*
X106023445Y-102564498D01*
X106118166Y-102579500D01*
X106481834Y-102579500D01*
X106576555Y-102564498D01*
X106690723Y-102506326D01*
X106781326Y-102415723D01*
X106839498Y-102301555D01*
X106854500Y-102206834D01*
X107645500Y-102206834D01*
X107660502Y-102301555D01*
X107718674Y-102415723D01*
X107809277Y-102506326D01*
X107923445Y-102564498D01*
X108018166Y-102579500D01*
X108381834Y-102579500D01*
X108476555Y-102564498D01*
X108590723Y-102506326D01*
X108681326Y-102415723D01*
X108739498Y-102301555D01*
X108754500Y-102206834D01*
X108754500Y-101118166D01*
X108739498Y-101023445D01*
X108681326Y-100909277D01*
X108590723Y-100818674D01*
X108476555Y-100760502D01*
X108381834Y-100745500D01*
X108018166Y-100745500D01*
X107923445Y-100760502D01*
X107809277Y-100818674D01*
X107718674Y-100909277D01*
X107660502Y-101023445D01*
X107645500Y-101118166D01*
X107645500Y-102206834D01*
X106854500Y-102206834D01*
X106854500Y-101118166D01*
X106839498Y-101023445D01*
X106841093Y-101023192D01*
X106839382Y-100963390D01*
X106872149Y-100906322D01*
X106977066Y-100801405D01*
X107039378Y-100767379D01*
X107066161Y-100764500D01*
X107109726Y-100764500D01*
X107167579Y-100755337D01*
X107195829Y-100750863D01*
X107195831Y-100750862D01*
X107205620Y-100749312D01*
X107321198Y-100690422D01*
X107412922Y-100598698D01*
X107471812Y-100483120D01*
X107487000Y-100387226D01*
X107487000Y-100012774D01*
X107471812Y-99916880D01*
X107412922Y-99801302D01*
X107373905Y-99762285D01*
X107339879Y-99699973D01*
X107337000Y-99673190D01*
X107337000Y-99626810D01*
X107357002Y-99558689D01*
X107373905Y-99537715D01*
X107412922Y-99498698D01*
X107471812Y-99383120D01*
X107487000Y-99287226D01*
X107487000Y-98912774D01*
X107471812Y-98816880D01*
X107412922Y-98701302D01*
X107405910Y-98694290D01*
X107400083Y-98686270D01*
X107401280Y-98685400D01*
X107372379Y-98632473D01*
X107369500Y-98605690D01*
X107369500Y-97205624D01*
X107370841Y-97193619D01*
X107370345Y-97193579D01*
X107371065Y-97184632D01*
X107373046Y-97175876D01*
X107369742Y-97122618D01*
X107369500Y-97114816D01*
X107369500Y-97098774D01*
X107368035Y-97088543D01*
X107367003Y-97078477D01*
X107366984Y-97078158D01*
X107364098Y-97031641D01*
X107361051Y-97023201D01*
X107360370Y-97019911D01*
X107356418Y-97004062D01*
X107355473Y-97000832D01*
X107354201Y-96991948D01*
X107334774Y-96949218D01*
X107330964Y-96939860D01*
X107318075Y-96904158D01*
X107318074Y-96904157D01*
X107315027Y-96895716D01*
X107309731Y-96888467D01*
X107308146Y-96885486D01*
X107299920Y-96871408D01*
X107298104Y-96868569D01*
X107294388Y-96860395D01*
X107263757Y-96824846D01*
X107257465Y-96816923D01*
X107249527Y-96806056D01*
X107238665Y-96795194D01*
X107232307Y-96788347D01*
X107205915Y-96757718D01*
X107200056Y-96750918D01*
X107192521Y-96746034D01*
X107185949Y-96740301D01*
X107174545Y-96731074D01*
X105636677Y-95193206D01*
X105629135Y-95183766D01*
X105628755Y-95184089D01*
X105622937Y-95177253D01*
X105618147Y-95169661D01*
X105578140Y-95134328D01*
X105572454Y-95128983D01*
X105561120Y-95117649D01*
X105552845Y-95111447D01*
X105545000Y-95105060D01*
X105516557Y-95079940D01*
X105509830Y-95073999D01*
X105501708Y-95070186D01*
X105498907Y-95068346D01*
X105484912Y-95059937D01*
X105481949Y-95058315D01*
X105474764Y-95052930D01*
X105466354Y-95049777D01*
X105466352Y-95049776D01*
X105430818Y-95036454D01*
X105421502Y-95032529D01*
X105379018Y-95012583D01*
X105370144Y-95011201D01*
X105366917Y-95010215D01*
X105351134Y-95006075D01*
X105347856Y-95005354D01*
X105339448Y-95002202D01*
X105325691Y-95001180D01*
X105292643Y-94998724D01*
X105282596Y-94997570D01*
X105274114Y-94996249D01*
X105274111Y-94996249D01*
X105269303Y-94995500D01*
X105253938Y-94995500D01*
X105244601Y-94995154D01*
X105237048Y-94994593D01*
X105195333Y-94991493D01*
X105186558Y-94993366D01*
X105177862Y-94993959D01*
X105163262Y-94995500D01*
X96420625Y-94995500D01*
X96408620Y-94994159D01*
X96408580Y-94994655D01*
X96399633Y-94993935D01*
X96390877Y-94991954D01*
X96347339Y-94994655D01*
X96337619Y-94995258D01*
X96329817Y-94995500D01*
X96313774Y-94995500D01*
X96309344Y-94996135D01*
X96309337Y-94996135D01*
X96303536Y-94996966D01*
X96293481Y-94997996D01*
X96255601Y-95000346D01*
X96255599Y-95000346D01*
X96246642Y-95000902D01*
X96238201Y-95003949D01*
X96234923Y-95004628D01*
X96219055Y-95008584D01*
X96215831Y-95009527D01*
X96206948Y-95010799D01*
X96198779Y-95014513D01*
X96198773Y-95014515D01*
X96164221Y-95030225D01*
X96154853Y-95034039D01*
X96110716Y-95049972D01*
X96103466Y-95055269D01*
X96100499Y-95056846D01*
X96086386Y-95065093D01*
X96083563Y-95066898D01*
X96075395Y-95070612D01*
X96068598Y-95076469D01*
X96068596Y-95076470D01*
X96052086Y-95090696D01*
X96048008Y-95094211D01*
X96039847Y-95101243D01*
X96031936Y-95107525D01*
X96021056Y-95115473D01*
X96010194Y-95126335D01*
X96003348Y-95132693D01*
X95965918Y-95164944D01*
X95961034Y-95172479D01*
X95955301Y-95179051D01*
X95946074Y-95190455D01*
X95318206Y-95818323D01*
X95308766Y-95825865D01*
X95309089Y-95826245D01*
X95302253Y-95832063D01*
X95294661Y-95836853D01*
X95288719Y-95843581D01*
X95259329Y-95876859D01*
X95253983Y-95882546D01*
X95242649Y-95893880D01*
X95239964Y-95897463D01*
X95239962Y-95897465D01*
X95236447Y-95902155D01*
X95230062Y-95909998D01*
X95204580Y-95938851D01*
X95198998Y-95945171D01*
X95198086Y-95944365D01*
X95150672Y-95984630D01*
X95099475Y-95995500D01*
X92180271Y-95995500D01*
X92112150Y-95975498D01*
X92065657Y-95921842D01*
X92055553Y-95851568D01*
X92085047Y-95786988D01*
X92144773Y-95748604D01*
X92169289Y-95743979D01*
X92218587Y-95739666D01*
X92223900Y-95738242D01*
X92223902Y-95738242D01*
X92425222Y-95684299D01*
X92425224Y-95684298D01*
X92430532Y-95682876D01*
X92435514Y-95680553D01*
X92624408Y-95592470D01*
X92624413Y-95592467D01*
X92629395Y-95590144D01*
X92633904Y-95586987D01*
X92804624Y-95467448D01*
X92804627Y-95467446D01*
X92809135Y-95464289D01*
X92964289Y-95309135D01*
X93008612Y-95245836D01*
X93086987Y-95133904D01*
X93086988Y-95133902D01*
X93090144Y-95129395D01*
X93092467Y-95124413D01*
X93092470Y-95124408D01*
X93180553Y-94935514D01*
X93180554Y-94935512D01*
X93182876Y-94930532D01*
X93239666Y-94718587D01*
X93258790Y-94500000D01*
X93239666Y-94281413D01*
X93182876Y-94069468D01*
X93180553Y-94064486D01*
X93092470Y-93875592D01*
X93092467Y-93875587D01*
X93090144Y-93870605D01*
X93061362Y-93829500D01*
X92967448Y-93695376D01*
X92967446Y-93695373D01*
X92964289Y-93690865D01*
X92809135Y-93535711D01*
X92804627Y-93532554D01*
X92804624Y-93532552D01*
X92734160Y-93483213D01*
X92689832Y-93427756D01*
X92682523Y-93357137D01*
X92714554Y-93293776D01*
X92775755Y-93257791D01*
X92806431Y-93254000D01*
X107193569Y-93254000D01*
X107261690Y-93274002D01*
G37*
%TD.AperFunction*%
%TA.AperFunction,Conductor*%
G36*
X105036960Y-96024502D02*
G01*
X105057934Y-96041405D01*
X106323595Y-97307066D01*
X106357621Y-97369378D01*
X106360500Y-97396161D01*
X106360500Y-98605690D01*
X106340498Y-98673811D01*
X106324969Y-98693081D01*
X106324092Y-98694288D01*
X106317078Y-98701302D01*
X106258188Y-98816880D01*
X106243000Y-98912774D01*
X106243000Y-99287226D01*
X106258188Y-99383120D01*
X106262689Y-99391953D01*
X106314267Y-99493181D01*
X106328000Y-99550384D01*
X106328000Y-99749616D01*
X106314267Y-99806819D01*
X106258188Y-99916880D01*
X106243000Y-100012774D01*
X106243000Y-100056339D01*
X106222998Y-100124460D01*
X106206095Y-100145434D01*
X105993206Y-100358323D01*
X105983766Y-100365865D01*
X105984089Y-100366245D01*
X105977253Y-100372063D01*
X105969661Y-100376853D01*
X105963719Y-100383581D01*
X105934329Y-100416859D01*
X105928983Y-100422546D01*
X105917649Y-100433880D01*
X105914964Y-100437463D01*
X105914962Y-100437465D01*
X105911447Y-100442155D01*
X105905062Y-100449998D01*
X105873999Y-100485170D01*
X105870186Y-100493292D01*
X105868346Y-100496093D01*
X105859937Y-100510088D01*
X105858315Y-100513051D01*
X105852930Y-100520236D01*
X105849777Y-100528646D01*
X105849776Y-100528648D01*
X105836454Y-100564182D01*
X105832530Y-100573495D01*
X105812583Y-100615982D01*
X105811201Y-100624856D01*
X105810215Y-100628083D01*
X105806075Y-100643866D01*
X105805354Y-100647144D01*
X105802202Y-100655552D01*
X105801537Y-100664503D01*
X105798724Y-100702357D01*
X105797570Y-100712404D01*
X105797401Y-100713493D01*
X105795500Y-100725697D01*
X105795500Y-100741062D01*
X105795154Y-100750399D01*
X105795120Y-100750863D01*
X105791493Y-100799667D01*
X105793366Y-100808442D01*
X105793959Y-100817138D01*
X105795500Y-100831738D01*
X105795500Y-100924507D01*
X105781767Y-100981710D01*
X105760502Y-101023445D01*
X105758951Y-101033238D01*
X105754449Y-101061663D01*
X105724037Y-101125816D01*
X105663769Y-101163344D01*
X105592779Y-101162330D01*
X105533607Y-101123098D01*
X105505039Y-101058102D01*
X105504000Y-101041953D01*
X105504000Y-100626000D01*
X105502923Y-100615982D01*
X105498558Y-100575374D01*
X105498557Y-100575367D01*
X105498196Y-100572010D01*
X105494374Y-100554440D01*
X105487170Y-100521322D01*
X105487168Y-100521315D01*
X105486810Y-100519668D01*
X105479616Y-100493445D01*
X105445697Y-100433880D01*
X105433638Y-100412702D01*
X105433635Y-100412698D01*
X105430575Y-100407324D01*
X105399594Y-100371570D01*
X105385922Y-100355791D01*
X105385917Y-100355786D01*
X105384082Y-100353668D01*
X105351498Y-100322227D01*
X105263681Y-100276291D01*
X105195560Y-100256289D01*
X105191101Y-100255648D01*
X105191097Y-100255647D01*
X105148356Y-100249502D01*
X105124000Y-100246000D01*
X103396873Y-100246000D01*
X103328752Y-100225998D01*
X103282259Y-100172342D01*
X103272155Y-100102068D01*
X103305401Y-100033347D01*
X103335216Y-100001874D01*
X103337593Y-99999432D01*
X104861301Y-98475723D01*
X104875712Y-98463338D01*
X104893071Y-98450563D01*
X104927089Y-98410521D01*
X104934019Y-98403005D01*
X104939662Y-98397362D01*
X104957214Y-98375178D01*
X104959981Y-98371804D01*
X105002243Y-98322058D01*
X105006982Y-98316480D01*
X105010311Y-98309961D01*
X105013628Y-98304987D01*
X105016763Y-98299911D01*
X105021307Y-98294168D01*
X105052053Y-98228382D01*
X105053985Y-98224430D01*
X105083665Y-98166305D01*
X105086993Y-98159788D01*
X105088732Y-98152680D01*
X105090814Y-98147082D01*
X105092701Y-98141409D01*
X105095800Y-98134779D01*
X105110587Y-98063689D01*
X105111557Y-98059404D01*
X105113950Y-98049623D01*
X105128811Y-97988892D01*
X105129232Y-97982116D01*
X105129500Y-97977786D01*
X105129534Y-97977788D01*
X105129777Y-97973731D01*
X105130137Y-97969696D01*
X105131628Y-97962528D01*
X105129546Y-97885586D01*
X105129500Y-97882178D01*
X105129500Y-97155947D01*
X105114262Y-97025246D01*
X105102176Y-96991948D01*
X105056729Y-96866745D01*
X105054232Y-96859866D01*
X105050221Y-96853749D01*
X105050219Y-96853744D01*
X105050128Y-96853606D01*
X105050096Y-96853500D01*
X105046941Y-96847199D01*
X105048049Y-96846644D01*
X105029499Y-96784520D01*
X105029499Y-96695686D01*
X105026493Y-96663873D01*
X104981209Y-96534924D01*
X104900010Y-96424990D01*
X104790076Y-96343791D01*
X104661127Y-96298507D01*
X104653485Y-96297785D01*
X104653482Y-96297784D01*
X104638579Y-96296376D01*
X104629315Y-96295500D01*
X104375172Y-96295500D01*
X104120686Y-96295501D01*
X104117738Y-96295780D01*
X104117729Y-96295780D01*
X104096522Y-96297784D01*
X104096520Y-96297784D01*
X104088873Y-96298507D01*
X103959924Y-96343791D01*
X103849990Y-96424990D01*
X103768791Y-96534924D01*
X103723507Y-96663873D01*
X103720500Y-96695685D01*
X103720500Y-96792310D01*
X103706717Y-96849611D01*
X103697968Y-96866745D01*
X103663007Y-96935212D01*
X103661268Y-96942318D01*
X103661267Y-96942321D01*
X103646052Y-97004500D01*
X103621189Y-97106108D01*
X103620841Y-97111710D01*
X103620841Y-97111713D01*
X103620649Y-97114816D01*
X103620500Y-97117214D01*
X103620500Y-97530286D01*
X103600498Y-97598407D01*
X103583595Y-97619381D01*
X102519381Y-98683595D01*
X102457069Y-98717621D01*
X102430286Y-98720500D01*
X99590384Y-98720500D01*
X99522263Y-98700498D01*
X99475770Y-98646842D01*
X99465666Y-98576568D01*
X99495160Y-98511988D01*
X99501289Y-98505405D01*
X99605216Y-98401478D01*
X99623964Y-98386336D01*
X99625189Y-98385221D01*
X99633940Y-98379571D01*
X99640387Y-98371393D01*
X99640389Y-98371391D01*
X99654729Y-98353200D01*
X99658675Y-98348759D01*
X99658602Y-98348697D01*
X99661961Y-98344733D01*
X99665638Y-98341056D01*
X99676892Y-98325308D01*
X99680398Y-98320638D01*
X99712156Y-98280353D01*
X99715188Y-98271719D01*
X99720514Y-98264266D01*
X99735203Y-98215150D01*
X99737036Y-98209508D01*
X99751390Y-98168633D01*
X99751390Y-98168632D01*
X99754018Y-98161149D01*
X99754500Y-98155584D01*
X99754500Y-98152867D01*
X99754614Y-98150242D01*
X99754643Y-98150144D01*
X99754807Y-98150151D01*
X99754851Y-98149447D01*
X99756713Y-98143222D01*
X99754597Y-98089365D01*
X99754500Y-98084418D01*
X99754500Y-98050237D01*
X99774502Y-97982116D01*
X99795566Y-97958361D01*
X99795510Y-97958309D01*
X99797343Y-97956357D01*
X99908710Y-97837763D01*
X99910569Y-97839508D01*
X99956891Y-97803791D01*
X100027627Y-97797717D01*
X100090418Y-97830851D01*
X100104537Y-97847146D01*
X100144098Y-97901597D01*
X100271514Y-98007005D01*
X100421141Y-98077414D01*
X100516298Y-98095566D01*
X100575791Y-98106915D01*
X100575793Y-98106915D01*
X100583577Y-98108400D01*
X100748616Y-98098017D01*
X100844593Y-98066832D01*
X100898351Y-98049365D01*
X100898354Y-98049364D01*
X100905887Y-98046916D01*
X100912577Y-98042670D01*
X100912580Y-98042669D01*
X100988724Y-97994346D01*
X101045510Y-97958309D01*
X101158710Y-97837763D01*
X101160569Y-97839508D01*
X101206891Y-97803791D01*
X101277627Y-97797717D01*
X101340418Y-97830851D01*
X101354537Y-97847146D01*
X101394098Y-97901597D01*
X101521514Y-98007005D01*
X101671141Y-98077414D01*
X101766298Y-98095566D01*
X101825791Y-98106915D01*
X101825793Y-98106915D01*
X101833577Y-98108400D01*
X101998616Y-98098017D01*
X102094593Y-98066832D01*
X102148351Y-98049365D01*
X102148354Y-98049364D01*
X102155887Y-98046916D01*
X102162577Y-98042670D01*
X102162580Y-98042669D01*
X102238724Y-97994346D01*
X102295510Y-97958309D01*
X102408710Y-97837763D01*
X102488375Y-97692853D01*
X102529500Y-97532683D01*
X102529500Y-96908822D01*
X102519315Y-96828197D01*
X102514970Y-96793804D01*
X102514969Y-96793801D01*
X102513976Y-96785939D01*
X102453101Y-96632186D01*
X102355902Y-96498403D01*
X102228486Y-96392995D01*
X102078859Y-96322586D01*
X101965973Y-96301052D01*
X101924209Y-96293085D01*
X101924207Y-96293085D01*
X101916423Y-96291600D01*
X101751384Y-96301983D01*
X101743840Y-96304434D01*
X101743841Y-96304434D01*
X101601649Y-96350635D01*
X101601646Y-96350636D01*
X101594113Y-96353084D01*
X101587423Y-96357330D01*
X101587420Y-96357331D01*
X101531223Y-96392995D01*
X101454490Y-96441691D01*
X101449063Y-96447470D01*
X101449062Y-96447471D01*
X101419123Y-96479353D01*
X101341290Y-96562237D01*
X101339431Y-96560492D01*
X101293109Y-96596209D01*
X101222373Y-96602283D01*
X101159582Y-96569149D01*
X101145463Y-96552854D01*
X101138894Y-96543812D01*
X101105902Y-96498403D01*
X100978486Y-96392995D01*
X100828859Y-96322586D01*
X100715973Y-96301052D01*
X100674209Y-96293085D01*
X100674207Y-96293085D01*
X100666423Y-96291600D01*
X100501384Y-96301983D01*
X100493840Y-96304434D01*
X100493841Y-96304434D01*
X100351649Y-96350635D01*
X100351646Y-96350636D01*
X100344113Y-96353084D01*
X100337423Y-96357330D01*
X100337420Y-96357331D01*
X100281223Y-96392995D01*
X100204490Y-96441691D01*
X100199063Y-96447470D01*
X100199062Y-96447471D01*
X100169123Y-96479353D01*
X100091290Y-96562237D01*
X100089431Y-96560492D01*
X100043109Y-96596209D01*
X99972373Y-96602283D01*
X99909582Y-96569149D01*
X99895463Y-96552854D01*
X99888894Y-96543812D01*
X99855902Y-96498403D01*
X99728486Y-96392995D01*
X99578859Y-96322586D01*
X99465973Y-96301052D01*
X99424209Y-96293085D01*
X99424207Y-96293085D01*
X99416423Y-96291600D01*
X99251384Y-96301983D01*
X99243840Y-96304434D01*
X99243841Y-96304434D01*
X99101649Y-96350635D01*
X99101646Y-96350636D01*
X99094113Y-96353084D01*
X99087423Y-96357330D01*
X99087420Y-96357331D01*
X99031223Y-96392995D01*
X98954490Y-96441691D01*
X98949063Y-96447470D01*
X98949062Y-96447471D01*
X98919123Y-96479353D01*
X98841290Y-96562237D01*
X98839431Y-96560492D01*
X98793109Y-96596209D01*
X98722373Y-96602283D01*
X98659582Y-96569149D01*
X98645463Y-96552854D01*
X98638894Y-96543812D01*
X98605902Y-96498403D01*
X98478486Y-96392995D01*
X98328859Y-96322586D01*
X98215973Y-96301052D01*
X98174209Y-96293085D01*
X98174207Y-96293085D01*
X98166423Y-96291600D01*
X98001384Y-96301983D01*
X97993840Y-96304434D01*
X97993841Y-96304434D01*
X97851649Y-96350635D01*
X97851646Y-96350636D01*
X97844113Y-96353084D01*
X97837423Y-96357330D01*
X97837420Y-96357331D01*
X97781223Y-96392995D01*
X97704490Y-96441691D01*
X97699063Y-96447470D01*
X97699062Y-96447471D01*
X97669123Y-96479353D01*
X97591290Y-96562237D01*
X97589431Y-96560492D01*
X97543109Y-96596209D01*
X97472373Y-96602283D01*
X97409582Y-96569149D01*
X97395463Y-96552854D01*
X97388894Y-96543812D01*
X97355902Y-96498403D01*
X97228486Y-96392995D01*
X97078859Y-96322586D01*
X96965973Y-96301052D01*
X96924209Y-96293085D01*
X96924207Y-96293085D01*
X96916423Y-96291600D01*
X96751384Y-96301983D01*
X96743840Y-96304434D01*
X96743841Y-96304434D01*
X96601649Y-96350635D01*
X96601646Y-96350636D01*
X96594113Y-96353084D01*
X96508753Y-96407255D01*
X96507527Y-96408033D01*
X96439293Y-96427646D01*
X96371288Y-96407255D01*
X96325102Y-96353335D01*
X96315400Y-96283004D01*
X96345262Y-96218593D01*
X96350918Y-96212553D01*
X96522066Y-96041405D01*
X96584378Y-96007379D01*
X96611161Y-96004500D01*
X104968839Y-96004500D01*
X105036960Y-96024502D01*
G37*
%TD.AperFunction*%
%TA.AperFunction,Conductor*%
G36*
X94912621Y-97024502D02*
G01*
X94959114Y-97078158D01*
X94970500Y-97130500D01*
X94970500Y-97491178D01*
X94986024Y-97614061D01*
X95046899Y-97767814D01*
X95051557Y-97774225D01*
X95051558Y-97774227D01*
X95092698Y-97830851D01*
X95144098Y-97901597D01*
X95176037Y-97928019D01*
X95199815Y-97947690D01*
X95239554Y-98006524D01*
X95245500Y-98044775D01*
X95245500Y-98809898D01*
X95225498Y-98878019D01*
X95208595Y-98898993D01*
X94323993Y-99783595D01*
X94261681Y-99817621D01*
X94234898Y-99820500D01*
X94057114Y-99820500D01*
X93988993Y-99800498D01*
X93942500Y-99746842D01*
X93934414Y-99677468D01*
X93932686Y-99677298D01*
X93933293Y-99671135D01*
X93934500Y-99665067D01*
X93934499Y-98214934D01*
X93924827Y-98166305D01*
X93922156Y-98152874D01*
X93922155Y-98152872D01*
X93919734Y-98140699D01*
X93910992Y-98127615D01*
X93870377Y-98066832D01*
X93863484Y-98056516D01*
X93779301Y-98000266D01*
X93705067Y-97985500D01*
X93530029Y-97985500D01*
X93354934Y-97985501D01*
X93304581Y-97995516D01*
X93255421Y-97995516D01*
X93211135Y-97986707D01*
X93205067Y-97985500D01*
X93030029Y-97985500D01*
X92854934Y-97985501D01*
X92804581Y-97995516D01*
X92755421Y-97995516D01*
X92711135Y-97986707D01*
X92705067Y-97985500D01*
X92530029Y-97985500D01*
X92354934Y-97985501D01*
X92304581Y-97995516D01*
X92255421Y-97995516D01*
X92211135Y-97986707D01*
X92205067Y-97985500D01*
X92167810Y-97985500D01*
X92099689Y-97965498D01*
X92053196Y-97911842D01*
X92043092Y-97841568D01*
X92069028Y-97784780D01*
X92067583Y-97783730D01*
X92073410Y-97775710D01*
X92080422Y-97768698D01*
X92139312Y-97653120D01*
X92154500Y-97557226D01*
X92154500Y-97182774D01*
X92153725Y-97177879D01*
X92149343Y-97150209D01*
X92158443Y-97079798D01*
X92204166Y-97025485D01*
X92273792Y-97004500D01*
X94844500Y-97004500D01*
X94912621Y-97024502D01*
G37*
%TD.AperFunction*%
%TD*%
%TA.AperFunction,Conductor*%
%TO.N,Net-(C7-Pad2)*%
G36*
X97799012Y-108617766D02*
G01*
X97954243Y-108767044D01*
X98083731Y-108891567D01*
X98087319Y-108899771D01*
X98083731Y-108908433D01*
X97821468Y-109160639D01*
X97799012Y-109182234D01*
X97790673Y-109185499D01*
X97785601Y-109184231D01*
X97739183Y-109160639D01*
X97738864Y-109160471D01*
X97692207Y-109134918D01*
X97692090Y-109134853D01*
X97650166Y-109111264D01*
X97610792Y-109089944D01*
X97610679Y-109089890D01*
X97610664Y-109089882D01*
X97571968Y-109071285D01*
X97571957Y-109071280D01*
X97571763Y-109071187D01*
X97530813Y-109055256D01*
X97485678Y-109042410D01*
X97468383Y-109039226D01*
X97434326Y-109032955D01*
X97434320Y-109032954D01*
X97434091Y-109032912D01*
X97373786Y-109027021D01*
X97353007Y-109026432D01*
X97313868Y-109025322D01*
X97305696Y-109021662D01*
X97302500Y-109013627D01*
X97302500Y-108786373D01*
X97305927Y-108778100D01*
X97313868Y-108774678D01*
X97358238Y-108773419D01*
X97373786Y-108772978D01*
X97434091Y-108767087D01*
X97434320Y-108767045D01*
X97434326Y-108767044D01*
X97468383Y-108760773D01*
X97485678Y-108757589D01*
X97530813Y-108744743D01*
X97571763Y-108728812D01*
X97571957Y-108728719D01*
X97571968Y-108728714D01*
X97610664Y-108710117D01*
X97610679Y-108710109D01*
X97610792Y-108710055D01*
X97650166Y-108688735D01*
X97692090Y-108665146D01*
X97692207Y-108665081D01*
X97738864Y-108639528D01*
X97739183Y-108639360D01*
X97785601Y-108615769D01*
X97794529Y-108615075D01*
X97799012Y-108617766D01*
G37*
%TD.AperFunction*%
%TD*%
%TA.AperFunction,Conductor*%
%TO.N,Net-(D1-Pad2)*%
G36*
X97844075Y-102869396D02*
G01*
X98181124Y-103206445D01*
X98184551Y-103214718D01*
X98181405Y-103222700D01*
X98148161Y-103258326D01*
X98114960Y-103300423D01*
X98089199Y-103341176D01*
X98070565Y-103381035D01*
X98058746Y-103420448D01*
X98053427Y-103459865D01*
X98054297Y-103499735D01*
X98061043Y-103540507D01*
X98073350Y-103582629D01*
X98073459Y-103582901D01*
X98088009Y-103619298D01*
X98087898Y-103628252D01*
X98085322Y-103632009D01*
X97672997Y-104034890D01*
X97500339Y-103733572D01*
X97500339Y-103733571D01*
X97389912Y-103540858D01*
X97389711Y-103540507D01*
X97366085Y-103499276D01*
X97364946Y-103490395D01*
X97367668Y-103485493D01*
X97391066Y-103460327D01*
X97420068Y-103429134D01*
X97467309Y-103369950D01*
X97479031Y-103352996D01*
X97506670Y-103313025D01*
X97506680Y-103313010D01*
X97506751Y-103312907D01*
X97541620Y-103256663D01*
X97575146Y-103199879D01*
X97610448Y-103141388D01*
X97610676Y-103141026D01*
X97650895Y-103079590D01*
X97651257Y-103079068D01*
X97699714Y-103013153D01*
X97700160Y-103012584D01*
X97760118Y-102940774D01*
X97760594Y-102940238D01*
X97827297Y-102869634D01*
X97835470Y-102865974D01*
X97844075Y-102869396D01*
G37*
%TD.AperFunction*%
%TD*%
%TA.AperFunction,Conductor*%
%TO.N,Net-(C7-Pad2)*%
G36*
X96721875Y-108165927D02*
G01*
X96725298Y-108173894D01*
X96726932Y-108236355D01*
X96726949Y-108236547D01*
X96726950Y-108236558D01*
X96732514Y-108298090D01*
X96732589Y-108298921D01*
X96741759Y-108352527D01*
X96754231Y-108399506D01*
X96769792Y-108442187D01*
X96788233Y-108482902D01*
X96809341Y-108523981D01*
X96809373Y-108524040D01*
X96832864Y-108567681D01*
X96832905Y-108567757D01*
X96857358Y-108613995D01*
X96857360Y-108613997D01*
X96858714Y-108616558D01*
X96886556Y-108672718D01*
X96596279Y-108969995D01*
X96316278Y-108674344D01*
X96313077Y-108665981D01*
X96314370Y-108660945D01*
X96339025Y-108613037D01*
X96339164Y-108612775D01*
X96365433Y-108564769D01*
X96365467Y-108564706D01*
X96389456Y-108521492D01*
X96389461Y-108521482D01*
X96389493Y-108521425D01*
X96409767Y-108483031D01*
X96410906Y-108480875D01*
X96410912Y-108480863D01*
X96410969Y-108480755D01*
X96411014Y-108480659D01*
X96411021Y-108480644D01*
X96429609Y-108440575D01*
X96429612Y-108440567D01*
X96429694Y-108440391D01*
X96445467Y-108398029D01*
X96458085Y-108351364D01*
X96467348Y-108298090D01*
X96473053Y-108235904D01*
X96474698Y-108173890D01*
X96478343Y-108165710D01*
X96486394Y-108162500D01*
X96713602Y-108162500D01*
X96721875Y-108165927D01*
G37*
%TD.AperFunction*%
%TD*%
%TA.AperFunction,Conductor*%
%TO.N,D+*%
G36*
X104092467Y-109104463D02*
G01*
X104092210Y-109117592D01*
X104088622Y-109125797D01*
X104083831Y-109128582D01*
X104071402Y-109132258D01*
X104057871Y-109136259D01*
X104057121Y-109136454D01*
X104023107Y-109144106D01*
X104022831Y-109144164D01*
X103989502Y-109150823D01*
X103989372Y-109150849D01*
X103957482Y-109157921D01*
X103957269Y-109157985D01*
X103957262Y-109157987D01*
X103928570Y-109166633D01*
X103928565Y-109166635D01*
X103928173Y-109166753D01*
X103927800Y-109166926D01*
X103927797Y-109166927D01*
X103920069Y-109170509D01*
X103902291Y-109178749D01*
X103901781Y-109179140D01*
X103896240Y-109183388D01*
X103880685Y-109195312D01*
X103864203Y-109217847D01*
X103853692Y-109247757D01*
X103853624Y-109248467D01*
X103853624Y-109248468D01*
X103851010Y-109275858D01*
X103846813Y-109283768D01*
X103839363Y-109286446D01*
X103662356Y-109286446D01*
X103654083Y-109283019D01*
X103650673Y-109274109D01*
X103653042Y-109230684D01*
X103653204Y-109229285D01*
X103661315Y-109183388D01*
X103661650Y-109181995D01*
X103673578Y-109143088D01*
X103674001Y-109141929D01*
X103687061Y-109111292D01*
X103688571Y-109107748D01*
X103688900Y-109107045D01*
X103690213Y-109104463D01*
X103704956Y-109075453D01*
X103705027Y-109075315D01*
X103721220Y-109044474D01*
X103721280Y-109044360D01*
X103736239Y-109012351D01*
X103748560Y-108977309D01*
X103756920Y-108937202D01*
X103759450Y-108898423D01*
X103763408Y-108890392D01*
X103768166Y-108887867D01*
X103887564Y-108856680D01*
X103927736Y-108846187D01*
X103927737Y-108846187D01*
X104098388Y-108801612D01*
X104092467Y-109104463D01*
G37*
%TD.AperFunction*%
%TD*%
%TA.AperFunction,Conductor*%
%TO.N,+3V3*%
G36*
X95520124Y-96347208D02*
G01*
X95578294Y-96409861D01*
X95630804Y-96476269D01*
X95672376Y-96538323D01*
X95705996Y-96596813D01*
X95734648Y-96652529D01*
X95761316Y-96706262D01*
X95788985Y-96758801D01*
X95820639Y-96810937D01*
X95859263Y-96863459D01*
X95907842Y-96917158D01*
X95628516Y-97399969D01*
X95431029Y-97201705D01*
X95267401Y-97037434D01*
X95263990Y-97029154D01*
X95264810Y-97024874D01*
X95275646Y-96997479D01*
X95275648Y-96997474D01*
X95275788Y-96997119D01*
X95284304Y-96963259D01*
X95287505Y-96930111D01*
X95285358Y-96897363D01*
X95284543Y-96893825D01*
X95277926Y-96865122D01*
X95277830Y-96864705D01*
X95277376Y-96863550D01*
X95265022Y-96832169D01*
X95264887Y-96831825D01*
X95264710Y-96831503D01*
X95264707Y-96831497D01*
X95246653Y-96798695D01*
X95246497Y-96798411D01*
X95222626Y-96764154D01*
X95193241Y-96728742D01*
X95166140Y-96700129D01*
X95162939Y-96691767D01*
X95166362Y-96683811D01*
X95503277Y-96346896D01*
X95511550Y-96343469D01*
X95520124Y-96347208D01*
G37*
%TD.AperFunction*%
%TD*%
%TA.AperFunction,Conductor*%
%TO.N,+3V3*%
G36*
X92644495Y-111154019D02*
G01*
X92890315Y-111422443D01*
X92902523Y-111435774D01*
X92905584Y-111444190D01*
X92904210Y-111449197D01*
X92880571Y-111493361D01*
X92880438Y-111493604D01*
X92860330Y-111529123D01*
X92855012Y-111538516D01*
X92831860Y-111579051D01*
X92811214Y-111617255D01*
X92811153Y-111617385D01*
X92811147Y-111617396D01*
X92795809Y-111649864D01*
X92793255Y-111655271D01*
X92778160Y-111695240D01*
X92766108Y-111739306D01*
X92766063Y-111739561D01*
X92766061Y-111739571D01*
X92757736Y-111787001D01*
X92757278Y-111789610D01*
X92751849Y-111848293D01*
X92751844Y-111848483D01*
X92750304Y-111906113D01*
X92746657Y-111914291D01*
X92738608Y-111917500D01*
X92511403Y-111917500D01*
X92503130Y-111914073D01*
X92499707Y-111906100D01*
X92498192Y-111847073D01*
X92498187Y-111846874D01*
X92492889Y-111787001D01*
X92484970Y-111739571D01*
X92484360Y-111735918D01*
X92484359Y-111735912D01*
X92484316Y-111735656D01*
X92472679Y-111690616D01*
X92458188Y-111649658D01*
X92441054Y-111610559D01*
X92421486Y-111571094D01*
X92399696Y-111529042D01*
X92375954Y-111482299D01*
X92375818Y-111482021D01*
X92353849Y-111435776D01*
X92353394Y-111426833D01*
X92356183Y-111422445D01*
X92627635Y-111153608D01*
X92635925Y-111150221D01*
X92644495Y-111154019D01*
G37*
%TD.AperFunction*%
%TD*%
%TA.AperFunction,Conductor*%
%TO.N,D+*%
G36*
X104135887Y-108674034D02*
G01*
X104167640Y-108691950D01*
X104167942Y-108692126D01*
X104201836Y-108712608D01*
X104201926Y-108712663D01*
X104232518Y-108731527D01*
X104261385Y-108748531D01*
X104261501Y-108748591D01*
X104261515Y-108748599D01*
X104289915Y-108763338D01*
X104290131Y-108763450D01*
X104290361Y-108763546D01*
X104320136Y-108775976D01*
X104320140Y-108775977D01*
X104320412Y-108776091D01*
X104353884Y-108786261D01*
X104354175Y-108786318D01*
X104354183Y-108786320D01*
X104386906Y-108792727D01*
X104392203Y-108793764D01*
X104437023Y-108798408D01*
X104467800Y-108799333D01*
X104478651Y-108799659D01*
X104486818Y-108803333D01*
X104490000Y-108811354D01*
X104490000Y-108988628D01*
X104486573Y-108996901D01*
X104478633Y-109000323D01*
X104435151Y-109001560D01*
X104435141Y-109001561D01*
X104434953Y-109001566D01*
X104401273Y-109004846D01*
X104388632Y-109006077D01*
X104388629Y-109006077D01*
X104388397Y-109006100D01*
X104378875Y-109007834D01*
X104348816Y-109013307D01*
X104348808Y-109013309D01*
X104348560Y-109013354D01*
X104348307Y-109013425D01*
X104348305Y-109013425D01*
X104313925Y-109023011D01*
X104313916Y-109023014D01*
X104313672Y-109023082D01*
X104281962Y-109035035D01*
X104251659Y-109048965D01*
X104251586Y-109049002D01*
X104251572Y-109049009D01*
X104221036Y-109064604D01*
X104221024Y-109064611D01*
X104220992Y-109064627D01*
X104188267Y-109081730D01*
X104188139Y-109081796D01*
X104151667Y-109100058D01*
X104151292Y-109100237D01*
X104116677Y-109116056D01*
X104107728Y-109116378D01*
X104103345Y-109113488D01*
X104099812Y-109109782D01*
X104092513Y-109102125D01*
X104092513Y-109102126D01*
X103885118Y-108884571D01*
X104022675Y-108763338D01*
X104122402Y-108675446D01*
X104130875Y-108672547D01*
X104135887Y-108674034D01*
G37*
%TD.AperFunction*%
%TD*%
%TA.AperFunction,Conductor*%
%TO.N,+5V*%
G36*
X108208433Y-103796269D02*
G01*
X108464840Y-104062901D01*
X108468105Y-104071240D01*
X108467326Y-104075213D01*
X108459702Y-104095024D01*
X108452532Y-104125734D01*
X108448007Y-104160510D01*
X108445648Y-104199467D01*
X108444972Y-104242722D01*
X108444973Y-104242812D01*
X108444973Y-104242851D01*
X108445499Y-104290363D01*
X108445499Y-104290390D01*
X108446746Y-104342586D01*
X108448231Y-104399356D01*
X108448233Y-104399425D01*
X108449477Y-104460954D01*
X108449479Y-104461099D01*
X108449907Y-104515708D01*
X108446545Y-104524008D01*
X108438207Y-104527500D01*
X107961792Y-104527500D01*
X107953519Y-104524073D01*
X107950092Y-104515708D01*
X107950520Y-104461099D01*
X107950522Y-104460954D01*
X107951766Y-104399425D01*
X107951768Y-104399356D01*
X107953253Y-104342586D01*
X107954500Y-104290390D01*
X107954500Y-104290363D01*
X107955026Y-104242851D01*
X107955026Y-104242812D01*
X107955027Y-104242722D01*
X107954351Y-104199467D01*
X107951992Y-104160510D01*
X107947467Y-104125734D01*
X107940297Y-104095024D01*
X107932673Y-104075212D01*
X107932899Y-104066261D01*
X107935159Y-104062901D01*
X108191567Y-103796269D01*
X108199771Y-103792681D01*
X108208433Y-103796269D01*
G37*
%TD.AperFunction*%
%TD*%
%TA.AperFunction,Conductor*%
%TO.N,D-*%
G36*
X92038433Y-103273769D02*
G01*
X92159488Y-103399651D01*
X92162753Y-103407990D01*
X92161699Y-103412618D01*
X92155592Y-103426004D01*
X92148042Y-103445328D01*
X92142145Y-103463997D01*
X92137697Y-103482647D01*
X92134494Y-103501920D01*
X92132331Y-103522455D01*
X92131005Y-103544890D01*
X92130310Y-103569867D01*
X92130309Y-103569975D01*
X92130043Y-103598023D01*
X92130016Y-103618316D01*
X92126578Y-103626584D01*
X92118316Y-103630000D01*
X91941684Y-103630000D01*
X91933411Y-103626573D01*
X91929984Y-103618316D01*
X91929956Y-103598023D01*
X91929690Y-103569975D01*
X91929689Y-103569867D01*
X91928994Y-103544890D01*
X91927668Y-103522455D01*
X91925505Y-103501920D01*
X91922302Y-103482647D01*
X91917854Y-103463997D01*
X91911957Y-103445328D01*
X91904407Y-103426004D01*
X91898300Y-103412617D01*
X91897984Y-103403668D01*
X91900512Y-103399651D01*
X92021567Y-103273769D01*
X92029771Y-103270181D01*
X92038433Y-103273769D01*
G37*
%TD.AperFunction*%
%TD*%
%TA.AperFunction,Conductor*%
%TO.N,+12V*%
G36*
X95269012Y-108527766D02*
G01*
X95384570Y-108638892D01*
X95480932Y-108731559D01*
X95480936Y-108731564D01*
X95481014Y-108731639D01*
X95556007Y-108803756D01*
X95558170Y-108808703D01*
X95558509Y-108808570D01*
X95560007Y-108812397D01*
X95559312Y-108813065D01*
X95263016Y-109098000D01*
X95209013Y-109070553D01*
X95162206Y-109044918D01*
X95162089Y-109044853D01*
X95120166Y-109021264D01*
X95080792Y-108999944D01*
X95080679Y-108999890D01*
X95080664Y-108999882D01*
X95041968Y-108981285D01*
X95041957Y-108981280D01*
X95041763Y-108981187D01*
X95000813Y-108965256D01*
X94955678Y-108952410D01*
X94938383Y-108949226D01*
X94904326Y-108942955D01*
X94904320Y-108942954D01*
X94904091Y-108942912D01*
X94843786Y-108937021D01*
X94823007Y-108936432D01*
X94783868Y-108935322D01*
X94775696Y-108931662D01*
X94772500Y-108923627D01*
X94772500Y-108696373D01*
X94775927Y-108688100D01*
X94783868Y-108684678D01*
X94828238Y-108683419D01*
X94843786Y-108682978D01*
X94904091Y-108677087D01*
X94904320Y-108677045D01*
X94904326Y-108677044D01*
X94938383Y-108670773D01*
X94955678Y-108667589D01*
X95000813Y-108654743D01*
X95041763Y-108638812D01*
X95041957Y-108638719D01*
X95041968Y-108638714D01*
X95080664Y-108620117D01*
X95080679Y-108620109D01*
X95080792Y-108620055D01*
X95120166Y-108598735D01*
X95162090Y-108575146D01*
X95162207Y-108575081D01*
X95208864Y-108549528D01*
X95209183Y-108549360D01*
X95255601Y-108525769D01*
X95264529Y-108525075D01*
X95269012Y-108527766D01*
G37*
%TD.AperFunction*%
%TD*%
%TA.AperFunction,Conductor*%
%TO.N,D-*%
G36*
X104258433Y-110388769D02*
G01*
X104379488Y-110514651D01*
X104382753Y-110522990D01*
X104381699Y-110527618D01*
X104375592Y-110541004D01*
X104368042Y-110560328D01*
X104362145Y-110578997D01*
X104357697Y-110597647D01*
X104354494Y-110616920D01*
X104352331Y-110637455D01*
X104351005Y-110659890D01*
X104350310Y-110684867D01*
X104350309Y-110684975D01*
X104350043Y-110713023D01*
X104350016Y-110733316D01*
X104346578Y-110741584D01*
X104338316Y-110745000D01*
X104161684Y-110745000D01*
X104153411Y-110741573D01*
X104149984Y-110733316D01*
X104149956Y-110713023D01*
X104149690Y-110684975D01*
X104149689Y-110684867D01*
X104148994Y-110659890D01*
X104147668Y-110637455D01*
X104145505Y-110616920D01*
X104142302Y-110597647D01*
X104137854Y-110578997D01*
X104131957Y-110560328D01*
X104124407Y-110541004D01*
X104118300Y-110527617D01*
X104117984Y-110518668D01*
X104120512Y-110514651D01*
X104241567Y-110388769D01*
X104249771Y-110385181D01*
X104258433Y-110388769D01*
G37*
%TD.AperFunction*%
%TD*%
%TA.AperFunction,Conductor*%
%TO.N,D+*%
G36*
X91538433Y-103273769D02*
G01*
X91659488Y-103399651D01*
X91662753Y-103407990D01*
X91661699Y-103412618D01*
X91655592Y-103426004D01*
X91648042Y-103445328D01*
X91642145Y-103463997D01*
X91637697Y-103482647D01*
X91634494Y-103501920D01*
X91632331Y-103522455D01*
X91631005Y-103544890D01*
X91630310Y-103569867D01*
X91630309Y-103569975D01*
X91630043Y-103598023D01*
X91630016Y-103618316D01*
X91626578Y-103626584D01*
X91618316Y-103630000D01*
X91441684Y-103630000D01*
X91433411Y-103626573D01*
X91429984Y-103618316D01*
X91429956Y-103598023D01*
X91429690Y-103569975D01*
X91429689Y-103569867D01*
X91428994Y-103544890D01*
X91427668Y-103522455D01*
X91425505Y-103501920D01*
X91422302Y-103482647D01*
X91417854Y-103463997D01*
X91411957Y-103445328D01*
X91404407Y-103426004D01*
X91398300Y-103412617D01*
X91397984Y-103403668D01*
X91400512Y-103399651D01*
X91521567Y-103273769D01*
X91529771Y-103270181D01*
X91538433Y-103273769D01*
G37*
%TD.AperFunction*%
%TD*%
%TA.AperFunction,Conductor*%
%TO.N,D-*%
G36*
X103259531Y-108777882D02*
G01*
X103469663Y-108997743D01*
X103472902Y-109006092D01*
X103471624Y-109011149D01*
X103454150Y-109045357D01*
X103453994Y-109045652D01*
X103434256Y-109081714D01*
X103434205Y-109081808D01*
X103415980Y-109114396D01*
X103399585Y-109145013D01*
X103385205Y-109175398D01*
X103373024Y-109207295D01*
X103363228Y-109242445D01*
X103359806Y-109261454D01*
X103356043Y-109282358D01*
X103356041Y-109282371D01*
X103356002Y-109282589D01*
X103351531Y-109329469D01*
X103351526Y-109329639D01*
X103351526Y-109329644D01*
X103350315Y-109373450D01*
X103346660Y-109381626D01*
X103338619Y-109384827D01*
X103161383Y-109384827D01*
X103153110Y-109381400D01*
X103149687Y-109373449D01*
X103148476Y-109329506D01*
X103148471Y-109329324D01*
X103144011Y-109282322D01*
X103136807Y-109242071D01*
X103127049Y-109206822D01*
X103114925Y-109174824D01*
X103114841Y-109174645D01*
X103114836Y-109174633D01*
X103100683Y-109144457D01*
X103100623Y-109144328D01*
X103084331Y-109113584D01*
X103066239Y-109080842D01*
X103046609Y-109044489D01*
X103046453Y-109044189D01*
X103029142Y-109009788D01*
X103028484Y-109000858D01*
X103031185Y-108996393D01*
X103242665Y-108777830D01*
X103250880Y-108774268D01*
X103259531Y-108777882D01*
G37*
%TD.AperFunction*%
%TD*%
%TA.AperFunction,Conductor*%
%TO.N,D+*%
G36*
X103846589Y-110168427D02*
G01*
X103850016Y-110176683D01*
X103850043Y-110196976D01*
X103850310Y-110225132D01*
X103851005Y-110250109D01*
X103852331Y-110272544D01*
X103854494Y-110293079D01*
X103857697Y-110312352D01*
X103862145Y-110331002D01*
X103868042Y-110349671D01*
X103875592Y-110368995D01*
X103875652Y-110369126D01*
X103881700Y-110382383D01*
X103882016Y-110391332D01*
X103879488Y-110395349D01*
X103758433Y-110521231D01*
X103750229Y-110524819D01*
X103741567Y-110521231D01*
X103620512Y-110395349D01*
X103617247Y-110387010D01*
X103618300Y-110382383D01*
X103624347Y-110369126D01*
X103624407Y-110368995D01*
X103631957Y-110349671D01*
X103637854Y-110331002D01*
X103642302Y-110312352D01*
X103645505Y-110293079D01*
X103647668Y-110272544D01*
X103648994Y-110250109D01*
X103649689Y-110225132D01*
X103649956Y-110196976D01*
X103649984Y-110176684D01*
X103653422Y-110168415D01*
X103661684Y-110165000D01*
X103838316Y-110165000D01*
X103846589Y-110168427D01*
G37*
%TD.AperFunction*%
%TD*%
%TA.AperFunction,Conductor*%
%TO.N,USART_TX*%
G36*
X92038433Y-98873769D02*
G01*
X92159838Y-99000015D01*
X92163103Y-99008354D01*
X92162322Y-99012331D01*
X92159956Y-99018471D01*
X92156433Y-99033491D01*
X92156397Y-99033766D01*
X92156395Y-99033776D01*
X92154221Y-99050300D01*
X92154195Y-99050500D01*
X92153012Y-99069554D01*
X92152649Y-99090710D01*
X92152650Y-99090827D01*
X92152650Y-99090860D01*
X92152874Y-99113985D01*
X92152875Y-99114079D01*
X92153452Y-99139430D01*
X92153453Y-99139460D01*
X92153455Y-99139554D01*
X92154156Y-99167289D01*
X92154158Y-99167355D01*
X92154748Y-99197408D01*
X92154750Y-99197548D01*
X92154909Y-99218210D01*
X92151546Y-99226509D01*
X92143209Y-99230000D01*
X91916790Y-99230000D01*
X91908517Y-99226573D01*
X91905090Y-99218210D01*
X91905249Y-99197548D01*
X91905251Y-99197408D01*
X91905841Y-99167355D01*
X91905843Y-99167289D01*
X91906544Y-99139554D01*
X91906546Y-99139460D01*
X91906547Y-99139430D01*
X91907124Y-99114079D01*
X91907125Y-99113985D01*
X91907349Y-99090860D01*
X91907349Y-99090827D01*
X91907350Y-99090710D01*
X91906987Y-99069554D01*
X91905804Y-99050500D01*
X91905778Y-99050300D01*
X91903604Y-99033776D01*
X91903602Y-99033766D01*
X91903566Y-99033491D01*
X91900043Y-99018471D01*
X91899900Y-99018099D01*
X91899900Y-99018098D01*
X91897678Y-99012333D01*
X91897900Y-99003381D01*
X91900162Y-99000015D01*
X92021567Y-98873769D01*
X92029771Y-98870181D01*
X92038433Y-98873769D01*
G37*
%TD.AperFunction*%
%TD*%
%TA.AperFunction,Conductor*%
%TO.N,+5V*%
G36*
X106696480Y-109868427D02*
G01*
X106699907Y-109876792D01*
X106699478Y-109931474D01*
X106698233Y-109993073D01*
X106696746Y-110049913D01*
X106695499Y-110102109D01*
X106694972Y-110149777D01*
X106695648Y-110193032D01*
X106698007Y-110231989D01*
X106702532Y-110266765D01*
X106709702Y-110297475D01*
X106717327Y-110317288D01*
X106717101Y-110326238D01*
X106714842Y-110329598D01*
X106450000Y-110605000D01*
X106185159Y-110329599D01*
X106181894Y-110321260D01*
X106182673Y-110317287D01*
X106190149Y-110297859D01*
X106190297Y-110297475D01*
X106197467Y-110266765D01*
X106201992Y-110231989D01*
X106204351Y-110193032D01*
X106205027Y-110149777D01*
X106204500Y-110102109D01*
X106203253Y-110049913D01*
X106201766Y-109993073D01*
X106200521Y-109931474D01*
X106200092Y-109876791D01*
X106203454Y-109868492D01*
X106211792Y-109865000D01*
X106688207Y-109865000D01*
X106696480Y-109868427D01*
G37*
%TD.AperFunction*%
%TD*%
%TA.AperFunction,Conductor*%
%TO.N,Net-(C7-Pad2)*%
G36*
X96709352Y-109473427D02*
G01*
X96712776Y-109481417D01*
X96714262Y-109542990D01*
X96714274Y-109543136D01*
X96718150Y-109590344D01*
X96719340Y-109604840D01*
X96727422Y-109657918D01*
X96738197Y-109704594D01*
X96751352Y-109747239D01*
X96751404Y-109747378D01*
X96751407Y-109747388D01*
X96766542Y-109788135D01*
X96766575Y-109788223D01*
X96766605Y-109788298D01*
X96766611Y-109788312D01*
X96783554Y-109829914D01*
X96801952Y-109874620D01*
X96802034Y-109874827D01*
X96821462Y-109924714D01*
X96821599Y-109925084D01*
X96839155Y-109975086D01*
X96838663Y-109984027D01*
X96835403Y-109988115D01*
X96536533Y-110226062D01*
X96527927Y-110228534D01*
X96519815Y-110223833D01*
X96346755Y-109988115D01*
X96293704Y-109915856D01*
X96291570Y-109907160D01*
X96293465Y-109902347D01*
X96319916Y-109863511D01*
X96320037Y-109863336D01*
X96348463Y-109823189D01*
X96372899Y-109788312D01*
X96374091Y-109786611D01*
X96396738Y-109751736D01*
X96416271Y-109716631D01*
X96432554Y-109679363D01*
X96445453Y-109637999D01*
X96454834Y-109590606D01*
X96460561Y-109535250D01*
X96462163Y-109481352D01*
X96465834Y-109473185D01*
X96473858Y-109470000D01*
X96701079Y-109470000D01*
X96709352Y-109473427D01*
G37*
%TD.AperFunction*%
%TD*%
%TA.AperFunction,Conductor*%
%TO.N,+3V3*%
G36*
X92746988Y-112763427D02*
G01*
X92750407Y-112771278D01*
X92753266Y-112850461D01*
X92762658Y-112926222D01*
X92777564Y-112990389D01*
X92797374Y-113046064D01*
X92821476Y-113096352D01*
X92849261Y-113144359D01*
X92849304Y-113144427D01*
X92849310Y-113144437D01*
X92880116Y-113193187D01*
X92880118Y-113193190D01*
X92913320Y-113245763D01*
X92913513Y-113246078D01*
X92948443Y-113305465D01*
X92948736Y-113305994D01*
X92981119Y-113368191D01*
X92981900Y-113377112D01*
X92979175Y-113381702D01*
X92633433Y-113741231D01*
X92625229Y-113744819D01*
X92616567Y-113741231D01*
X92270826Y-113381703D01*
X92267561Y-113373364D01*
X92268881Y-113368190D01*
X92301263Y-113305994D01*
X92301556Y-113305465D01*
X92336486Y-113246078D01*
X92336679Y-113245763D01*
X92369881Y-113193190D01*
X92369884Y-113193188D01*
X92369883Y-113193187D01*
X92400689Y-113144437D01*
X92400695Y-113144427D01*
X92400738Y-113144359D01*
X92428523Y-113096352D01*
X92452625Y-113046064D01*
X92472435Y-112990389D01*
X92487341Y-112926222D01*
X92496733Y-112850461D01*
X92499593Y-112771278D01*
X92503316Y-112763134D01*
X92511285Y-112760000D01*
X92738715Y-112760000D01*
X92746988Y-112763427D01*
G37*
%TD.AperFunction*%
%TD*%
%TA.AperFunction,Conductor*%
%TO.N,D+*%
G36*
X91626886Y-104193427D02*
G01*
X91630308Y-104201382D01*
X91631511Y-104245752D01*
X91631528Y-104245938D01*
X91631529Y-104245947D01*
X91631703Y-104247796D01*
X91635952Y-104293023D01*
X91643187Y-104333530D01*
X91653076Y-104368994D01*
X91653176Y-104369253D01*
X91653177Y-104369256D01*
X91665395Y-104400903D01*
X91665400Y-104400915D01*
X91665484Y-104401132D01*
X91680271Y-104431665D01*
X91680361Y-104431826D01*
X91680361Y-104431827D01*
X91697283Y-104462281D01*
X91697300Y-104462311D01*
X91716418Y-104494764D01*
X91716433Y-104494790D01*
X91737475Y-104530719D01*
X91737608Y-104530953D01*
X91756441Y-104564875D01*
X91757461Y-104573771D01*
X91754963Y-104578320D01*
X91553072Y-104805800D01*
X91545017Y-104809713D01*
X91536219Y-104806474D01*
X91316813Y-104595856D01*
X91313217Y-104587655D01*
X91314271Y-104582558D01*
X91330982Y-104545944D01*
X91331119Y-104545654D01*
X91349909Y-104507303D01*
X91349959Y-104507203D01*
X91367218Y-104472814D01*
X91367234Y-104472780D01*
X91372283Y-104462311D01*
X91382800Y-104440500D01*
X91386511Y-104431827D01*
X91396397Y-104408717D01*
X91396476Y-104408533D01*
X91399041Y-104401132D01*
X91407989Y-104375315D01*
X91407991Y-104375308D01*
X91408067Y-104375089D01*
X91417394Y-104338339D01*
X91418185Y-104333530D01*
X91424243Y-104296672D01*
X91424278Y-104296459D01*
X91428539Y-104247621D01*
X91428582Y-104245947D01*
X91429711Y-104201403D01*
X91433346Y-104193220D01*
X91441407Y-104190000D01*
X91618613Y-104190000D01*
X91626886Y-104193427D01*
G37*
%TD.AperFunction*%
%TD*%
%TA.AperFunction,Conductor*%
%TO.N,+12V*%
G36*
X95621243Y-103651335D02*
G01*
X95621400Y-103659376D01*
X95618615Y-103663544D01*
X95334492Y-103936772D01*
X95332814Y-103938386D01*
X95332813Y-103938386D01*
X95095485Y-104166613D01*
X95087146Y-104169878D01*
X95081870Y-104168504D01*
X95010573Y-104130490D01*
X95010020Y-104130176D01*
X94936583Y-104085731D01*
X94936422Y-104085632D01*
X94866901Y-104042009D01*
X94866885Y-104042000D01*
X94866862Y-104041985D01*
X94800280Y-104002730D01*
X94782376Y-103994047D01*
X94736027Y-103971570D01*
X94735631Y-103971378D01*
X94671795Y-103951397D01*
X94607657Y-103946253D01*
X94581056Y-103951593D01*
X94542892Y-103959254D01*
X94542891Y-103959254D01*
X94542101Y-103959413D01*
X94474008Y-103994345D01*
X94473512Y-103994761D01*
X94473509Y-103994763D01*
X94410474Y-104047628D01*
X94401933Y-104050318D01*
X94394683Y-104046936D01*
X94233857Y-103886110D01*
X94230430Y-103877837D01*
X94233955Y-103869467D01*
X94280320Y-103824196D01*
X94318688Y-103786733D01*
X94318912Y-103786520D01*
X94354667Y-103753406D01*
X94399581Y-103711809D01*
X94399763Y-103711646D01*
X94470754Y-103649432D01*
X94470972Y-103649245D01*
X94535150Y-103595729D01*
X94535295Y-103595610D01*
X94595472Y-103547048D01*
X94595496Y-103547029D01*
X94654430Y-103499717D01*
X94654484Y-103499674D01*
X94714980Y-103449869D01*
X94779773Y-103393880D01*
X94851654Y-103327972D01*
X94933414Y-103248414D01*
X95621243Y-103651335D01*
G37*
%TD.AperFunction*%
%TD*%
%TA.AperFunction,Conductor*%
%TO.N,+3V3*%
G36*
X106971718Y-100237855D02*
G01*
X106971718Y-100237856D01*
X106971681Y-100239752D01*
X106966882Y-100485240D01*
X106963294Y-100493444D01*
X106959741Y-100495787D01*
X106934907Y-100506286D01*
X106904122Y-100523961D01*
X106903886Y-100524130D01*
X106903883Y-100524132D01*
X106873848Y-100545652D01*
X106873841Y-100545658D01*
X106873670Y-100545780D01*
X106859899Y-100557344D01*
X106842961Y-100571567D01*
X106842946Y-100571581D01*
X106842844Y-100571666D01*
X106842739Y-100571765D01*
X106842727Y-100571775D01*
X106815891Y-100596904D01*
X106810937Y-100601543D01*
X106777242Y-100635334D01*
X106777168Y-100635411D01*
X106777165Y-100635414D01*
X106741053Y-100672963D01*
X106741041Y-100672976D01*
X106701699Y-100714313D01*
X106701661Y-100714353D01*
X106658416Y-100759367D01*
X106658318Y-100759468D01*
X106618715Y-100799706D01*
X106610469Y-100803199D01*
X106602103Y-100799772D01*
X106265228Y-100462897D01*
X106261801Y-100454624D01*
X106265293Y-100446286D01*
X106305572Y-100406640D01*
X106350646Y-100363338D01*
X106392036Y-100323946D01*
X106429665Y-100287757D01*
X106463456Y-100254062D01*
X106480032Y-100236360D01*
X106493224Y-100222272D01*
X106493234Y-100222260D01*
X106493333Y-100222155D01*
X106493418Y-100222053D01*
X106493432Y-100222038D01*
X106511483Y-100200541D01*
X106519219Y-100191329D01*
X106541038Y-100160877D01*
X106549678Y-100145829D01*
X106558535Y-100130403D01*
X106558538Y-100130396D01*
X106558713Y-100130092D01*
X106569617Y-100104303D01*
X106575647Y-100098198D01*
X106974601Y-100090399D01*
X106971718Y-100237855D01*
G37*
%TD.AperFunction*%
%TD*%
%TA.AperFunction,Conductor*%
%TO.N,USART_RX*%
G36*
X98133433Y-97008769D02*
G01*
X98479174Y-97368297D01*
X98482439Y-97376635D01*
X98481119Y-97381809D01*
X98448736Y-97444005D01*
X98448443Y-97444534D01*
X98413513Y-97503921D01*
X98413320Y-97504236D01*
X98380118Y-97556809D01*
X98380115Y-97556811D01*
X98380116Y-97556812D01*
X98349261Y-97605640D01*
X98321476Y-97653647D01*
X98297374Y-97703935D01*
X98277564Y-97759610D01*
X98262658Y-97823777D01*
X98253266Y-97899538D01*
X98253257Y-97899799D01*
X98250407Y-97978722D01*
X98246684Y-97986866D01*
X98238715Y-97990000D01*
X98011285Y-97990000D01*
X98003012Y-97986573D01*
X97999593Y-97978722D01*
X97996742Y-97899799D01*
X97996733Y-97899538D01*
X97987341Y-97823777D01*
X97972435Y-97759610D01*
X97952625Y-97703935D01*
X97928523Y-97653647D01*
X97900738Y-97605640D01*
X97869883Y-97556812D01*
X97836666Y-97504214D01*
X97836486Y-97503921D01*
X97801556Y-97444534D01*
X97801263Y-97444005D01*
X97768881Y-97381810D01*
X97768100Y-97372889D01*
X97770826Y-97368297D01*
X98116567Y-97008769D01*
X98124771Y-97005181D01*
X98133433Y-97008769D01*
G37*
%TD.AperFunction*%
%TD*%
%TA.AperFunction,Conductor*%
%TO.N,+5V*%
G36*
X106595779Y-110456592D02*
G01*
X106714255Y-110579792D01*
X106717520Y-110588131D01*
X106716270Y-110593167D01*
X106694880Y-110635611D01*
X106694753Y-110635857D01*
X106671525Y-110679361D01*
X106650328Y-110718637D01*
X106631391Y-110755639D01*
X106614888Y-110792421D01*
X106600994Y-110831041D01*
X106589883Y-110873553D01*
X106581731Y-110922013D01*
X106576711Y-110978477D01*
X106576706Y-110978660D01*
X106576706Y-110978665D01*
X106575293Y-111033601D01*
X106571655Y-111041783D01*
X106563597Y-111045000D01*
X106336403Y-111045000D01*
X106328130Y-111041573D01*
X106324707Y-111033601D01*
X106323293Y-110978665D01*
X106323293Y-110978660D01*
X106323288Y-110978477D01*
X106318268Y-110922013D01*
X106310116Y-110873553D01*
X106299005Y-110831041D01*
X106285111Y-110792421D01*
X106268608Y-110755639D01*
X106249671Y-110718637D01*
X106228474Y-110679361D01*
X106205246Y-110635857D01*
X106205119Y-110635611D01*
X106183730Y-110593167D01*
X106183067Y-110584237D01*
X106185745Y-110579792D01*
X106304138Y-110456678D01*
X106450000Y-110305000D01*
X106595779Y-110456592D01*
G37*
%TD.AperFunction*%
%TD*%
%TA.AperFunction,Conductor*%
%TO.N,+12V*%
G36*
X95524380Y-109463427D02*
G01*
X95527803Y-109471389D01*
X95529344Y-109529320D01*
X95534767Y-109588116D01*
X95534808Y-109588348D01*
X95534809Y-109588358D01*
X95535370Y-109591558D01*
X95543602Y-109638523D01*
X95555683Y-109682678D01*
X95570842Y-109722718D01*
X95588914Y-109760778D01*
X95609732Y-109798995D01*
X95633116Y-109839480D01*
X95633130Y-109839505D01*
X95658887Y-109884354D01*
X95659015Y-109884584D01*
X95683034Y-109928674D01*
X95683983Y-109937578D01*
X95681450Y-109942105D01*
X95425643Y-110225882D01*
X95417559Y-110229732D01*
X95408786Y-110226426D01*
X95135229Y-109959731D01*
X95131697Y-109951502D01*
X95132787Y-109946419D01*
X95134794Y-109942105D01*
X95154603Y-109899517D01*
X95154700Y-109899317D01*
X95178219Y-109852024D01*
X95199794Y-109809505D01*
X95219165Y-109769621D01*
X95219213Y-109769510D01*
X95236043Y-109730320D01*
X95236047Y-109730310D01*
X95236125Y-109730128D01*
X95250467Y-109688782D01*
X95261982Y-109643340D01*
X95262818Y-109638240D01*
X95270430Y-109591770D01*
X95270465Y-109591558D01*
X95270785Y-109587881D01*
X95275689Y-109531383D01*
X95275706Y-109531192D01*
X95275711Y-109530999D01*
X95277213Y-109471405D01*
X95280847Y-109463221D01*
X95288909Y-109460000D01*
X95516107Y-109460000D01*
X95524380Y-109463427D01*
G37*
%TD.AperFunction*%
%TD*%
%TA.AperFunction,Conductor*%
%TO.N,Net-(C7-Pad2)*%
G36*
X96852039Y-108609437D02*
G01*
X96887925Y-108643091D01*
X96921166Y-108673170D01*
X96921286Y-108673268D01*
X96921300Y-108673280D01*
X96953320Y-108699407D01*
X96953520Y-108699570D01*
X96986747Y-108722191D01*
X97022604Y-108740929D01*
X97022958Y-108741059D01*
X97022963Y-108741061D01*
X97048357Y-108750369D01*
X97062849Y-108755681D01*
X97063203Y-108755762D01*
X97063205Y-108755763D01*
X97108940Y-108766276D01*
X97108943Y-108766277D01*
X97109241Y-108766345D01*
X97109544Y-108766381D01*
X97109549Y-108766382D01*
X97144676Y-108770570D01*
X97163539Y-108772819D01*
X97183829Y-108773511D01*
X97216199Y-108774615D01*
X97224350Y-108778322D01*
X97227500Y-108786308D01*
X97227500Y-109013545D01*
X97224073Y-109021818D01*
X97216047Y-109025242D01*
X97202779Y-109025523D01*
X97146788Y-109026706D01*
X97078374Y-109031512D01*
X97078192Y-109031535D01*
X97078182Y-109031536D01*
X97020120Y-109038882D01*
X97019568Y-109038952D01*
X96967682Y-109048557D01*
X96967538Y-109048591D01*
X96967534Y-109048592D01*
X96920136Y-109059833D01*
X96920115Y-109059838D01*
X96920028Y-109059859D01*
X96919928Y-109059886D01*
X96919917Y-109059889D01*
X96873918Y-109072392D01*
X96857242Y-109077084D01*
X96826740Y-109085665D01*
X96826579Y-109085709D01*
X96807720Y-109090726D01*
X96775578Y-109099276D01*
X96717971Y-109112693D01*
X96651156Y-109125469D01*
X96443845Y-108765391D01*
X96811751Y-108572311D01*
X96852039Y-108609437D01*
G37*
%TD.AperFunction*%
%TD*%
%TA.AperFunction,Conductor*%
%TO.N,+3V3*%
G36*
X106546480Y-101075927D02*
G01*
X106549907Y-101084292D01*
X106549478Y-101138974D01*
X106548233Y-101200573D01*
X106546746Y-101257413D01*
X106545499Y-101309609D01*
X106544972Y-101357277D01*
X106545648Y-101400532D01*
X106548007Y-101439489D01*
X106552532Y-101474265D01*
X106559702Y-101504975D01*
X106567327Y-101524788D01*
X106567101Y-101533738D01*
X106564841Y-101537099D01*
X106308433Y-101803731D01*
X106300229Y-101807319D01*
X106291567Y-101803731D01*
X106035159Y-101537099D01*
X106031894Y-101528760D01*
X106032673Y-101524787D01*
X106040149Y-101505359D01*
X106040297Y-101504975D01*
X106047467Y-101474265D01*
X106051992Y-101439489D01*
X106054351Y-101400532D01*
X106055027Y-101357277D01*
X106054500Y-101309609D01*
X106053253Y-101257413D01*
X106051766Y-101200573D01*
X106050521Y-101138974D01*
X106050092Y-101084291D01*
X106053454Y-101075992D01*
X106061792Y-101072500D01*
X106538207Y-101072500D01*
X106546480Y-101075927D01*
G37*
%TD.AperFunction*%
%TD*%
%TA.AperFunction,Conductor*%
%TO.N,USART_TX*%
G36*
X99383433Y-97008769D02*
G01*
X99729174Y-97368297D01*
X99732439Y-97376635D01*
X99731119Y-97381809D01*
X99698736Y-97444005D01*
X99698443Y-97444534D01*
X99663513Y-97503921D01*
X99663320Y-97504236D01*
X99630118Y-97556809D01*
X99630115Y-97556811D01*
X99630116Y-97556812D01*
X99599261Y-97605640D01*
X99571476Y-97653647D01*
X99547374Y-97703935D01*
X99527564Y-97759610D01*
X99512658Y-97823777D01*
X99503266Y-97899538D01*
X99503257Y-97899799D01*
X99500407Y-97978722D01*
X99496684Y-97986866D01*
X99488715Y-97990000D01*
X99261285Y-97990000D01*
X99253012Y-97986573D01*
X99249593Y-97978722D01*
X99246742Y-97899799D01*
X99246733Y-97899538D01*
X99237341Y-97823777D01*
X99222435Y-97759610D01*
X99202625Y-97703935D01*
X99178523Y-97653647D01*
X99150738Y-97605640D01*
X99119883Y-97556812D01*
X99086666Y-97504214D01*
X99086486Y-97503921D01*
X99051556Y-97444534D01*
X99051263Y-97444005D01*
X99018881Y-97381810D01*
X99018100Y-97372889D01*
X99020826Y-97368297D01*
X99366567Y-97008769D01*
X99374771Y-97005181D01*
X99383433Y-97008769D01*
G37*
%TD.AperFunction*%
%TD*%
%TA.AperFunction,Conductor*%
%TO.N,Net-(D1-Pad2)*%
G36*
X97904535Y-103894388D02*
G01*
X98016384Y-104097447D01*
X98017374Y-104106347D01*
X98015083Y-104110631D01*
X97975723Y-104157346D01*
X97937466Y-104206696D01*
X97937368Y-104206841D01*
X97937364Y-104206846D01*
X97905255Y-104254180D01*
X97905247Y-104254192D01*
X97905114Y-104254389D01*
X97878293Y-104302279D01*
X97878170Y-104302563D01*
X97856751Y-104351930D01*
X97856748Y-104351938D01*
X97856627Y-104352217D01*
X97839741Y-104406057D01*
X97839687Y-104406313D01*
X97839685Y-104406322D01*
X97827787Y-104463137D01*
X97827260Y-104465653D01*
X97827234Y-104465857D01*
X97827233Y-104465865D01*
X97824391Y-104488472D01*
X97818810Y-104532856D01*
X97818798Y-104533054D01*
X97815530Y-104585304D01*
X97814015Y-104609521D01*
X97814013Y-104609658D01*
X97814012Y-104609674D01*
X97812698Y-104686001D01*
X97809129Y-104694214D01*
X97801000Y-104697500D01*
X97324148Y-104697500D01*
X97315875Y-104694073D01*
X97312448Y-104685853D01*
X97311996Y-104585362D01*
X97311996Y-104585304D01*
X97310376Y-104488588D01*
X97307481Y-104404203D01*
X97303150Y-104329002D01*
X97297221Y-104259837D01*
X97289533Y-104193561D01*
X97279926Y-104127025D01*
X97268240Y-104057083D01*
X97254312Y-103980586D01*
X97254312Y-103980585D01*
X97239499Y-103902383D01*
X97241327Y-103893617D01*
X97244954Y-103890186D01*
X97499469Y-103736734D01*
X97499470Y-103736733D01*
X97501462Y-103735532D01*
X97738360Y-103592701D01*
X97904535Y-103894388D01*
G37*
%TD.AperFunction*%
%TD*%
%TA.AperFunction,Conductor*%
%TO.N,+5V*%
G36*
X101796480Y-109868427D02*
G01*
X101799907Y-109876792D01*
X101799478Y-109931474D01*
X101798233Y-109993073D01*
X101796746Y-110049913D01*
X101795499Y-110102109D01*
X101794972Y-110149777D01*
X101795648Y-110193032D01*
X101798007Y-110231989D01*
X101802532Y-110266765D01*
X101809702Y-110297475D01*
X101817327Y-110317288D01*
X101817101Y-110326238D01*
X101814842Y-110329598D01*
X101550000Y-110605000D01*
X101285159Y-110329599D01*
X101281894Y-110321260D01*
X101282673Y-110317287D01*
X101290149Y-110297859D01*
X101290297Y-110297475D01*
X101297467Y-110266765D01*
X101301992Y-110231989D01*
X101304351Y-110193032D01*
X101305027Y-110149777D01*
X101304500Y-110102109D01*
X101303253Y-110049913D01*
X101301766Y-109993073D01*
X101300521Y-109931474D01*
X101300092Y-109876791D01*
X101303454Y-109868492D01*
X101311792Y-109865000D01*
X101788207Y-109865000D01*
X101796480Y-109868427D01*
G37*
%TD.AperFunction*%
%TD*%
%TA.AperFunction,Conductor*%
%TO.N,+3V3*%
G36*
X107006696Y-99107654D02*
G01*
X107007847Y-99109143D01*
X107007847Y-99109144D01*
X107080166Y-99202722D01*
X107081378Y-99204290D01*
X107108896Y-99239897D01*
X107123212Y-99258422D01*
X107125559Y-99267063D01*
X107124293Y-99271052D01*
X107112792Y-99292765D01*
X107112789Y-99292771D01*
X107112605Y-99293119D01*
X107112470Y-99293485D01*
X107112469Y-99293488D01*
X107101181Y-99324163D01*
X107101067Y-99324473D01*
X107092719Y-99358784D01*
X107092679Y-99359049D01*
X107092678Y-99359055D01*
X107092641Y-99359301D01*
X107087072Y-99396390D01*
X107083636Y-99437625D01*
X107081922Y-99482826D01*
X107081921Y-99482881D01*
X107081921Y-99482901D01*
X107081441Y-99532282D01*
X107081441Y-99532328D01*
X107081703Y-99586467D01*
X107082203Y-99643714D01*
X107082203Y-99643715D01*
X107082219Y-99645527D01*
X107082219Y-99645579D01*
X107082490Y-99707795D01*
X107082054Y-99710000D01*
X106584363Y-99710000D01*
X106583622Y-99708367D01*
X106582577Y-99703396D01*
X106583286Y-99642627D01*
X106583346Y-99637493D01*
X106585463Y-99571445D01*
X106585469Y-99571284D01*
X106588232Y-99511048D01*
X106588235Y-99510993D01*
X106591023Y-99455889D01*
X106591025Y-99455845D01*
X106593205Y-99405473D01*
X106593205Y-99405452D01*
X106594152Y-99359301D01*
X106594152Y-99359291D01*
X106594154Y-99359192D01*
X106593241Y-99316488D01*
X106589841Y-99276807D01*
X106588834Y-99271052D01*
X106583379Y-99239897D01*
X106583326Y-99239593D01*
X106575200Y-99211622D01*
X106576182Y-99202722D01*
X106578922Y-99199391D01*
X106686714Y-99109144D01*
X106705995Y-99093002D01*
X106705996Y-99093001D01*
X106881693Y-98945902D01*
X107006696Y-99107654D01*
G37*
%TD.AperFunction*%
%TD*%
M02*
