G04 #@! TF.GenerationSoftware,KiCad,Pcbnew,(6.0.0)*
G04 #@! TF.CreationDate,2022-01-16T21:37:01+08:00*
G04 #@! TF.ProjectId,bldc_motor_encoder,626c6463-5f6d-46f7-946f-725f656e636f,rev?*
G04 #@! TF.SameCoordinates,Original*
G04 #@! TF.FileFunction,Copper,L1,Top*
G04 #@! TF.FilePolarity,Positive*
%FSLAX46Y46*%
G04 Gerber Fmt 4.6, Leading zero omitted, Abs format (unit mm)*
G04 Created by KiCad (PCBNEW (6.0.0)) date 2022-01-16 21:37:01*
%MOMM*%
%LPD*%
G01*
G04 APERTURE LIST*
G04 Aperture macros list*
%AMRoundRect*
0 Rectangle with rounded corners*
0 $1 Rounding radius*
0 $2 $3 $4 $5 $6 $7 $8 $9 X,Y pos of 4 corners*
0 Add a 4 corners polygon primitive as box body*
4,1,4,$2,$3,$4,$5,$6,$7,$8,$9,$2,$3,0*
0 Add four circle primitives for the rounded corners*
1,1,$1+$1,$2,$3*
1,1,$1+$1,$4,$5*
1,1,$1+$1,$6,$7*
1,1,$1+$1,$8,$9*
0 Add four rect primitives between the rounded corners*
20,1,$1+$1,$2,$3,$4,$5,0*
20,1,$1+$1,$4,$5,$6,$7,0*
20,1,$1+$1,$6,$7,$8,$9,0*
20,1,$1+$1,$8,$9,$2,$3,0*%
G04 Aperture macros list end*
G04 #@! TA.AperFunction,SMDPad,CuDef*
%ADD10RoundRect,0.250000X0.350000X0.650000X-0.350000X0.650000X-0.350000X-0.650000X0.350000X-0.650000X0*%
G04 #@! TD*
G04 #@! TA.AperFunction,SMDPad,CuDef*
%ADD11RoundRect,0.150000X0.150000X0.625000X-0.150000X0.625000X-0.150000X-0.625000X0.150000X-0.625000X0*%
G04 #@! TD*
G04 #@! TA.AperFunction,SMDPad,CuDef*
%ADD12RoundRect,0.140000X0.140000X0.170000X-0.140000X0.170000X-0.140000X-0.170000X0.140000X-0.170000X0*%
G04 #@! TD*
G04 #@! TA.AperFunction,ComponentPad*
%ADD13C,2.200000*%
G04 #@! TD*
G04 #@! TA.AperFunction,ViaPad*
%ADD14C,0.450000*%
G04 #@! TD*
G04 #@! TA.AperFunction,Conductor*
%ADD15C,0.250000*%
G04 #@! TD*
G04 APERTURE END LIST*
D10*
X112800000Y-95200000D03*
X103200000Y-95200000D03*
D11*
X104500000Y-92675000D03*
X105500000Y-92675000D03*
X106500000Y-92675000D03*
X107500000Y-92675000D03*
X108500000Y-92675000D03*
X109500000Y-92675000D03*
X110500000Y-92675000D03*
X111500000Y-92675000D03*
D12*
X104520000Y-89600000D03*
X105480000Y-89600000D03*
X105480000Y-90700000D03*
X104520000Y-90700000D03*
D13*
X102000000Y-86000000D03*
X102000000Y-98000000D03*
X114000000Y-98000000D03*
X114000000Y-86000000D03*
D14*
X108740000Y-95470000D03*
X105480000Y-88700000D03*
X104800000Y-95290000D03*
X111200000Y-98410000D03*
X107970000Y-91500000D03*
X105510000Y-94120000D03*
X106980000Y-94710000D03*
X109410000Y-90560000D03*
X107269650Y-89283139D03*
X109500000Y-93900000D03*
X110090000Y-90010000D03*
X106500000Y-88900000D03*
X103600000Y-92700000D03*
X103600000Y-90700000D03*
X103600000Y-89600000D03*
D15*
X106500000Y-92675000D02*
X107500000Y-92675000D01*
X107500000Y-94230000D02*
X108740000Y-95470000D01*
X107500000Y-92675000D02*
X107500000Y-94230000D01*
X105480000Y-89600000D02*
X105480000Y-88700000D01*
X104800000Y-96040000D02*
X107170000Y-98410000D01*
X104800000Y-95290000D02*
X104800000Y-96040000D01*
X107170000Y-98410000D02*
X111200000Y-98410000D01*
X105500000Y-94110000D02*
X105510000Y-94120000D01*
X105500000Y-92675000D02*
X105500000Y-94110000D01*
X110500000Y-90420000D02*
X110500000Y-92675000D01*
X110090000Y-90010000D02*
X110500000Y-90420000D01*
X108083139Y-89283139D02*
X108500000Y-89700000D01*
X107269650Y-89283139D02*
X108083139Y-89283139D01*
X108500000Y-89700000D02*
X108500000Y-92675000D01*
X111500000Y-89200000D02*
X111500000Y-92675000D01*
X110800000Y-88500000D02*
X111500000Y-89200000D01*
X106900000Y-88500000D02*
X110800000Y-88500000D01*
X106500000Y-88900000D02*
X106900000Y-88500000D01*
X109500000Y-92675000D02*
X109500000Y-93900000D01*
X103625000Y-92675000D02*
X103600000Y-92700000D01*
X104500000Y-92675000D02*
X103625000Y-92675000D01*
X106500000Y-91720000D02*
X105480000Y-90700000D01*
X106500000Y-92675000D02*
X106500000Y-91720000D01*
X104500000Y-92675000D02*
X104500000Y-90720000D01*
X104500000Y-90720000D02*
X104520000Y-90700000D01*
X104520000Y-90700000D02*
X103600000Y-90700000D01*
X104520000Y-89600000D02*
X103600000Y-89600000D01*
X105480000Y-89600000D02*
X105480000Y-90700000D01*
X104520000Y-89600000D02*
X104520000Y-90700000D01*
G04 #@! TA.AperFunction,Conductor*
G36*
X108522000Y-95075041D02*
G01*
X108549157Y-95101603D01*
X108580708Y-95130684D01*
X108609383Y-95154981D01*
X108636186Y-95175284D01*
X108650406Y-95184660D01*
X108661958Y-95192278D01*
X108661968Y-95192284D01*
X108662118Y-95192383D01*
X108662285Y-95192477D01*
X108688020Y-95206976D01*
X108688029Y-95206981D01*
X108688184Y-95207068D01*
X108715386Y-95220129D01*
X108715515Y-95220183D01*
X108715531Y-95220190D01*
X108744647Y-95232322D01*
X108744660Y-95232327D01*
X108744727Y-95232355D01*
X108777210Y-95244536D01*
X108777295Y-95244566D01*
X108806193Y-95254764D01*
X108812854Y-95260749D01*
X108813997Y-95265568D01*
X108819311Y-95537384D01*
X108816046Y-95545723D01*
X108807384Y-95549311D01*
X108535568Y-95543997D01*
X108527364Y-95540409D01*
X108524764Y-95536193D01*
X108514570Y-95507307D01*
X108514536Y-95507210D01*
X108502355Y-95474727D01*
X108502322Y-95474647D01*
X108490190Y-95445531D01*
X108490183Y-95445515D01*
X108490129Y-95445386D01*
X108477068Y-95418184D01*
X108462383Y-95392118D01*
X108462284Y-95391968D01*
X108462278Y-95391958D01*
X108454660Y-95380406D01*
X108445284Y-95366186D01*
X108424981Y-95339383D01*
X108400684Y-95310708D01*
X108371603Y-95279157D01*
X108345041Y-95251999D01*
X108341706Y-95243688D01*
X108345132Y-95235545D01*
X108505545Y-95075132D01*
X108513818Y-95071705D01*
X108522000Y-95075041D01*
G37*
G04 #@! TD.AperFunction*
G04 #@! TA.AperFunction,Conductor*
G36*
X105488433Y-88596269D02*
G01*
X105676879Y-88792230D01*
X105680144Y-88800569D01*
X105679001Y-88805389D01*
X105665739Y-88833115D01*
X105651383Y-88864697D01*
X105651337Y-88864808D01*
X105651336Y-88864811D01*
X105639334Y-88893960D01*
X105639328Y-88893976D01*
X105639281Y-88894090D01*
X105629281Y-88922560D01*
X105621234Y-88951375D01*
X105614987Y-88981803D01*
X105610391Y-89015112D01*
X105607295Y-89052569D01*
X105605548Y-89095443D01*
X105605000Y-89145000D01*
X105355000Y-89145000D01*
X105354451Y-89095443D01*
X105352704Y-89052569D01*
X105349608Y-89015112D01*
X105345012Y-88981803D01*
X105338765Y-88951375D01*
X105330718Y-88922560D01*
X105320718Y-88894090D01*
X105320671Y-88893976D01*
X105320665Y-88893960D01*
X105308663Y-88864811D01*
X105308662Y-88864808D01*
X105308616Y-88864697D01*
X105294260Y-88833115D01*
X105280998Y-88805388D01*
X105280520Y-88796448D01*
X105283120Y-88792231D01*
X105471567Y-88596269D01*
X105479771Y-88592681D01*
X105488433Y-88596269D01*
G37*
G04 #@! TD.AperFunction*
G04 #@! TA.AperFunction,Conductor*
G36*
X104808433Y-95186269D02*
G01*
X104996879Y-95382230D01*
X105000144Y-95390569D01*
X104999001Y-95395389D01*
X104985739Y-95423115D01*
X104971383Y-95454697D01*
X104971337Y-95454808D01*
X104971336Y-95454811D01*
X104959334Y-95483960D01*
X104959328Y-95483976D01*
X104959281Y-95484090D01*
X104949281Y-95512560D01*
X104941234Y-95541375D01*
X104934987Y-95571803D01*
X104930391Y-95605112D01*
X104927295Y-95642569D01*
X104925548Y-95685443D01*
X104925547Y-95685545D01*
X104925128Y-95723429D01*
X104921610Y-95731664D01*
X104913429Y-95735000D01*
X104686571Y-95735000D01*
X104678298Y-95731573D01*
X104674872Y-95723430D01*
X104674452Y-95685545D01*
X104674451Y-95685443D01*
X104672704Y-95642569D01*
X104669608Y-95605112D01*
X104665012Y-95571803D01*
X104658765Y-95541375D01*
X104650718Y-95512560D01*
X104640718Y-95484090D01*
X104640671Y-95483976D01*
X104640665Y-95483960D01*
X104628663Y-95454811D01*
X104628662Y-95454808D01*
X104628616Y-95454697D01*
X104614260Y-95423115D01*
X104600998Y-95395388D01*
X104600520Y-95386448D01*
X104603120Y-95382231D01*
X104791567Y-95186269D01*
X104799771Y-95182681D01*
X104808433Y-95186269D01*
G37*
G04 #@! TD.AperFunction*
G04 #@! TA.AperFunction,Conductor*
G36*
X111107769Y-98213120D02*
G01*
X111303731Y-98401567D01*
X111307319Y-98409771D01*
X111303731Y-98418433D01*
X111107770Y-98606879D01*
X111099431Y-98610144D01*
X111094612Y-98609001D01*
X111066924Y-98595758D01*
X111066884Y-98595739D01*
X111035415Y-98581434D01*
X111035399Y-98581427D01*
X111035302Y-98581383D01*
X111035188Y-98581336D01*
X111006039Y-98569334D01*
X111006023Y-98569328D01*
X111005909Y-98569281D01*
X110977439Y-98559281D01*
X110977264Y-98559232D01*
X110948811Y-98551286D01*
X110948805Y-98551285D01*
X110948624Y-98551234D01*
X110918196Y-98544987D01*
X110918015Y-98544962D01*
X110885069Y-98540416D01*
X110885065Y-98540416D01*
X110884887Y-98540391D01*
X110871967Y-98539323D01*
X110847566Y-98537306D01*
X110847554Y-98537305D01*
X110847430Y-98537295D01*
X110847307Y-98537290D01*
X110847291Y-98537289D01*
X110804658Y-98535552D01*
X110804648Y-98535552D01*
X110804556Y-98535548D01*
X110766571Y-98535128D01*
X110758336Y-98531610D01*
X110755000Y-98523429D01*
X110755000Y-98296571D01*
X110758427Y-98288298D01*
X110766570Y-98284872D01*
X110788402Y-98284630D01*
X110804556Y-98284451D01*
X110804646Y-98284447D01*
X110804660Y-98284447D01*
X110847291Y-98282710D01*
X110847307Y-98282709D01*
X110847430Y-98282704D01*
X110847554Y-98282694D01*
X110847566Y-98282693D01*
X110871967Y-98280676D01*
X110884887Y-98279608D01*
X110885065Y-98279583D01*
X110885069Y-98279583D01*
X110918015Y-98275037D01*
X110918016Y-98275037D01*
X110918196Y-98275012D01*
X110948624Y-98268765D01*
X110948805Y-98268714D01*
X110948811Y-98268713D01*
X110977264Y-98260767D01*
X110977267Y-98260766D01*
X110977439Y-98260718D01*
X111005909Y-98250718D01*
X111006023Y-98250671D01*
X111006039Y-98250665D01*
X111035188Y-98238663D01*
X111035191Y-98238662D01*
X111035302Y-98238616D01*
X111035399Y-98238572D01*
X111035415Y-98238565D01*
X111066831Y-98224284D01*
X111066884Y-98224260D01*
X111066908Y-98224248D01*
X111066933Y-98224237D01*
X111090175Y-98213120D01*
X111094612Y-98210998D01*
X111103553Y-98210520D01*
X111107769Y-98213120D01*
G37*
G04 #@! TD.AperFunction*
G04 #@! TA.AperFunction,Conductor*
G36*
X105625547Y-93714948D02*
G01*
X105627317Y-93758226D01*
X105630496Y-93796074D01*
X105635273Y-93829733D01*
X105641836Y-93860444D01*
X105650375Y-93889449D01*
X105661077Y-93917988D01*
X105674131Y-93947302D01*
X105689725Y-93978633D01*
X105708048Y-94013222D01*
X105514886Y-94232393D01*
X105303432Y-94030814D01*
X105319348Y-93993379D01*
X105332860Y-93959739D01*
X105344139Y-93928542D01*
X105353357Y-93898436D01*
X105360686Y-93868069D01*
X105366297Y-93836089D01*
X105370362Y-93801144D01*
X105373053Y-93761882D01*
X105374541Y-93716951D01*
X105375000Y-93665000D01*
X105625000Y-93665000D01*
X105625547Y-93714948D01*
G37*
G04 #@! TD.AperFunction*
G04 #@! TA.AperFunction,Conductor*
G36*
X110294432Y-89936003D02*
G01*
X110302636Y-89939591D01*
X110305236Y-89943808D01*
X110315463Y-89972789D01*
X110327644Y-90005272D01*
X110327672Y-90005339D01*
X110327677Y-90005352D01*
X110339809Y-90034468D01*
X110339816Y-90034484D01*
X110339870Y-90034613D01*
X110352931Y-90061815D01*
X110367616Y-90087881D01*
X110367715Y-90088031D01*
X110367721Y-90088041D01*
X110375339Y-90099593D01*
X110384715Y-90113813D01*
X110405018Y-90140616D01*
X110429315Y-90169291D01*
X110458396Y-90200842D01*
X110458449Y-90200896D01*
X110484959Y-90228001D01*
X110488294Y-90236312D01*
X110484868Y-90244455D01*
X110324455Y-90404868D01*
X110316182Y-90408295D01*
X110308001Y-90404959D01*
X110280896Y-90378449D01*
X110280842Y-90378396D01*
X110249291Y-90349315D01*
X110220616Y-90325018D01*
X110193813Y-90304715D01*
X110179593Y-90295339D01*
X110168041Y-90287721D01*
X110168031Y-90287715D01*
X110167881Y-90287616D01*
X110163188Y-90284972D01*
X110141979Y-90273023D01*
X110141970Y-90273018D01*
X110141815Y-90272931D01*
X110114613Y-90259870D01*
X110114484Y-90259816D01*
X110114468Y-90259809D01*
X110085352Y-90247677D01*
X110085339Y-90247672D01*
X110085272Y-90247644D01*
X110052789Y-90235463D01*
X110031643Y-90228001D01*
X110023808Y-90225236D01*
X110017146Y-90219252D01*
X110016003Y-90214432D01*
X110010689Y-89942616D01*
X110013954Y-89934277D01*
X110022616Y-89930689D01*
X110294432Y-89936003D01*
G37*
G04 #@! TD.AperFunction*
G04 #@! TA.AperFunction,Conductor*
G36*
X107375037Y-89084136D02*
G01*
X107402765Y-89097399D01*
X107402818Y-89097423D01*
X107434234Y-89111704D01*
X107434250Y-89111711D01*
X107434347Y-89111755D01*
X107434458Y-89111801D01*
X107434461Y-89111802D01*
X107463610Y-89123804D01*
X107463626Y-89123810D01*
X107463740Y-89123857D01*
X107492210Y-89133857D01*
X107492382Y-89133905D01*
X107492385Y-89133906D01*
X107520838Y-89141852D01*
X107520844Y-89141853D01*
X107521025Y-89141904D01*
X107551453Y-89148151D01*
X107551633Y-89148176D01*
X107551634Y-89148176D01*
X107584580Y-89152722D01*
X107584584Y-89152722D01*
X107584762Y-89152747D01*
X107597682Y-89153815D01*
X107622083Y-89155832D01*
X107622095Y-89155833D01*
X107622219Y-89155843D01*
X107622342Y-89155848D01*
X107622358Y-89155849D01*
X107664989Y-89157586D01*
X107665003Y-89157586D01*
X107665093Y-89157590D01*
X107681382Y-89157770D01*
X107703080Y-89158011D01*
X107711314Y-89161529D01*
X107714650Y-89169710D01*
X107714650Y-89396568D01*
X107711223Y-89404841D01*
X107703079Y-89408267D01*
X107665093Y-89408687D01*
X107665001Y-89408691D01*
X107664991Y-89408691D01*
X107622358Y-89410428D01*
X107622342Y-89410429D01*
X107622219Y-89410434D01*
X107622095Y-89410444D01*
X107622083Y-89410445D01*
X107597682Y-89412462D01*
X107584762Y-89413530D01*
X107584584Y-89413555D01*
X107584580Y-89413555D01*
X107551634Y-89418101D01*
X107551453Y-89418126D01*
X107521025Y-89424373D01*
X107520844Y-89424424D01*
X107520838Y-89424425D01*
X107492385Y-89432371D01*
X107492210Y-89432420D01*
X107463740Y-89442420D01*
X107463626Y-89442467D01*
X107463610Y-89442473D01*
X107434461Y-89454475D01*
X107434347Y-89454522D01*
X107434250Y-89454566D01*
X107434234Y-89454573D01*
X107402765Y-89468878D01*
X107375039Y-89482140D01*
X107366097Y-89482618D01*
X107361880Y-89480018D01*
X107165919Y-89291572D01*
X107162331Y-89283368D01*
X107165919Y-89274706D01*
X107361881Y-89086259D01*
X107370220Y-89082994D01*
X107375037Y-89084136D01*
G37*
G04 #@! TD.AperFunction*
G04 #@! TA.AperFunction,Conductor*
G36*
X106734455Y-88505132D02*
G01*
X106894868Y-88665545D01*
X106898295Y-88673818D01*
X106894959Y-88681999D01*
X106868396Y-88709157D01*
X106839315Y-88740708D01*
X106815018Y-88769383D01*
X106794715Y-88796186D01*
X106785339Y-88810406D01*
X106777721Y-88821958D01*
X106777715Y-88821968D01*
X106777616Y-88822118D01*
X106762931Y-88848184D01*
X106749870Y-88875386D01*
X106749816Y-88875515D01*
X106749809Y-88875531D01*
X106737677Y-88904647D01*
X106737644Y-88904727D01*
X106725463Y-88937210D01*
X106725429Y-88937307D01*
X106715236Y-88966192D01*
X106709252Y-88972854D01*
X106704432Y-88973997D01*
X106432616Y-88979311D01*
X106424277Y-88976046D01*
X106420689Y-88967384D01*
X106426003Y-88695568D01*
X106429591Y-88687364D01*
X106433807Y-88684764D01*
X106446384Y-88680325D01*
X106462789Y-88674536D01*
X106495272Y-88662355D01*
X106495339Y-88662327D01*
X106495352Y-88662322D01*
X106524468Y-88650190D01*
X106524484Y-88650183D01*
X106524613Y-88650129D01*
X106551815Y-88637068D01*
X106551970Y-88636981D01*
X106551979Y-88636976D01*
X106577714Y-88622477D01*
X106577881Y-88622383D01*
X106578031Y-88622284D01*
X106578041Y-88622278D01*
X106589593Y-88614660D01*
X106603813Y-88605284D01*
X106630616Y-88584981D01*
X106659291Y-88560684D01*
X106690842Y-88531603D01*
X106718002Y-88505040D01*
X106726312Y-88501706D01*
X106734455Y-88505132D01*
G37*
G04 #@! TD.AperFunction*
G04 #@! TA.AperFunction,Conductor*
G36*
X109621702Y-93458427D02*
G01*
X109625128Y-93466570D01*
X109625548Y-93504556D01*
X109627295Y-93547430D01*
X109630391Y-93584887D01*
X109634987Y-93618196D01*
X109641234Y-93648624D01*
X109649281Y-93677439D01*
X109659281Y-93705909D01*
X109659328Y-93706023D01*
X109659334Y-93706039D01*
X109671336Y-93735188D01*
X109671383Y-93735302D01*
X109671427Y-93735399D01*
X109671434Y-93735415D01*
X109685734Y-93766873D01*
X109685758Y-93766924D01*
X109699001Y-93794612D01*
X109699479Y-93803554D01*
X109696879Y-93807770D01*
X109508433Y-94003731D01*
X109500229Y-94007319D01*
X109491567Y-94003731D01*
X109303120Y-93807769D01*
X109299855Y-93799430D01*
X109300998Y-93794611D01*
X109314237Y-93766933D01*
X109314284Y-93766831D01*
X109328565Y-93735415D01*
X109328572Y-93735399D01*
X109328616Y-93735302D01*
X109328663Y-93735188D01*
X109340665Y-93706039D01*
X109340671Y-93706023D01*
X109340718Y-93705909D01*
X109350718Y-93677439D01*
X109358765Y-93648624D01*
X109365012Y-93618196D01*
X109369608Y-93584887D01*
X109372704Y-93547430D01*
X109374451Y-93504556D01*
X109374872Y-93466570D01*
X109378390Y-93458336D01*
X109386571Y-93455000D01*
X109613429Y-93455000D01*
X109621702Y-93458427D01*
G37*
G04 #@! TD.AperFunction*
G04 #@! TA.AperFunction,Conductor*
G36*
X103714207Y-92501591D02*
G01*
X103749160Y-92513241D01*
X103781389Y-92522997D01*
X103812315Y-92530999D01*
X103843357Y-92537387D01*
X103875935Y-92542300D01*
X103911468Y-92545878D01*
X103951377Y-92548261D01*
X103997081Y-92549588D01*
X104050000Y-92550000D01*
X104050000Y-92800000D01*
X104002194Y-92800624D01*
X103960714Y-92802622D01*
X103924421Y-92806179D01*
X103892174Y-92811483D01*
X103862833Y-92818720D01*
X103835260Y-92828077D01*
X103808313Y-92839740D01*
X103780853Y-92853895D01*
X103751741Y-92870729D01*
X103719837Y-92890430D01*
X103488189Y-92712423D01*
X103675112Y-92487908D01*
X103714207Y-92501591D01*
G37*
G04 #@! TD.AperFunction*
G04 #@! TA.AperFunction,Conductor*
G36*
X103733115Y-90514260D02*
G01*
X103764697Y-90528616D01*
X103794090Y-90540718D01*
X103822560Y-90550718D01*
X103851375Y-90558765D01*
X103881803Y-90565012D01*
X103915112Y-90569608D01*
X103952569Y-90572704D01*
X103995443Y-90574451D01*
X104045000Y-90575000D01*
X104045000Y-90825000D01*
X103995443Y-90825548D01*
X103952569Y-90827295D01*
X103915112Y-90830391D01*
X103881803Y-90834987D01*
X103851375Y-90841234D01*
X103822560Y-90849281D01*
X103794090Y-90859281D01*
X103764697Y-90871383D01*
X103733115Y-90885739D01*
X103698075Y-90902500D01*
X103487500Y-90700000D01*
X103698075Y-90497500D01*
X103733115Y-90514260D01*
G37*
G04 #@! TD.AperFunction*
G04 #@! TA.AperFunction,Conductor*
G36*
X103733115Y-89414260D02*
G01*
X103764697Y-89428616D01*
X103794090Y-89440718D01*
X103822560Y-89450718D01*
X103851375Y-89458765D01*
X103881803Y-89465012D01*
X103915112Y-89469608D01*
X103952569Y-89472704D01*
X103995443Y-89474451D01*
X104045000Y-89475000D01*
X104045000Y-89725000D01*
X103995443Y-89725548D01*
X103952569Y-89727295D01*
X103915112Y-89730391D01*
X103881803Y-89734987D01*
X103851375Y-89741234D01*
X103822560Y-89749281D01*
X103794090Y-89759281D01*
X103764697Y-89771383D01*
X103733115Y-89785739D01*
X103698075Y-89802500D01*
X103487500Y-89600000D01*
X103698075Y-89397500D01*
X103733115Y-89414260D01*
G37*
G04 #@! TD.AperFunction*
G04 #@! TA.AperFunction,Conductor*
G36*
X104772000Y-89722049D02*
G01*
X104749073Y-89768000D01*
X104728181Y-89808331D01*
X104709413Y-89844886D01*
X104692859Y-89879509D01*
X104678606Y-89914046D01*
X104666746Y-89950341D01*
X104657365Y-89990239D01*
X104650555Y-90035585D01*
X104646403Y-90088223D01*
X104645000Y-90150000D01*
X104395000Y-90150000D01*
X104393596Y-90088223D01*
X104389444Y-90035585D01*
X104382634Y-89990239D01*
X104373253Y-89950341D01*
X104361393Y-89914046D01*
X104347140Y-89879509D01*
X104330586Y-89844886D01*
X104311818Y-89808331D01*
X104290926Y-89768000D01*
X104268000Y-89722049D01*
X104520000Y-89460000D01*
X104772000Y-89722049D01*
G37*
G04 #@! TD.AperFunction*
G04 #@! TA.AperFunction,Conductor*
G36*
X104646403Y-90211776D02*
G01*
X104650555Y-90264414D01*
X104657365Y-90309760D01*
X104666746Y-90349658D01*
X104678606Y-90385953D01*
X104692859Y-90420490D01*
X104709413Y-90455113D01*
X104728181Y-90491668D01*
X104749073Y-90531999D01*
X104772000Y-90577951D01*
X104520000Y-90840000D01*
X104268000Y-90577951D01*
X104290926Y-90531999D01*
X104311818Y-90491668D01*
X104330586Y-90455113D01*
X104347140Y-90420490D01*
X104361393Y-90385953D01*
X104373253Y-90349658D01*
X104382634Y-90309760D01*
X104389444Y-90264414D01*
X104393596Y-90211776D01*
X104395000Y-90150000D01*
X104645000Y-90150000D01*
X104646403Y-90211776D01*
G37*
G04 #@! TD.AperFunction*
G04 #@! TA.AperFunction,Conductor*
G36*
X106680756Y-92430192D02*
G01*
X106722512Y-92452487D01*
X106724044Y-92453305D01*
X106724361Y-92453474D01*
X106724408Y-92453500D01*
X106763606Y-92474655D01*
X106763629Y-92474666D01*
X106763637Y-92474671D01*
X106800639Y-92493608D01*
X106837421Y-92510111D01*
X106837616Y-92510181D01*
X106837623Y-92510184D01*
X106875798Y-92523918D01*
X106875806Y-92523921D01*
X106876041Y-92524005D01*
X106876280Y-92524068D01*
X106876285Y-92524069D01*
X106918299Y-92535050D01*
X106918307Y-92535052D01*
X106918553Y-92535116D01*
X106918812Y-92535160D01*
X106918814Y-92535160D01*
X106923576Y-92535961D01*
X106967013Y-92543268D01*
X106967235Y-92543288D01*
X106967237Y-92543288D01*
X106999482Y-92546155D01*
X106999999Y-92546201D01*
X107000001Y-92546201D01*
X107023477Y-92548288D01*
X107090000Y-92550000D01*
X107090000Y-92800000D01*
X107023477Y-92801711D01*
X107000001Y-92803798D01*
X106999999Y-92803798D01*
X106999482Y-92803844D01*
X106967237Y-92806711D01*
X106967235Y-92806711D01*
X106967013Y-92806731D01*
X106966793Y-92806768D01*
X106918814Y-92814839D01*
X106918812Y-92814839D01*
X106918553Y-92814883D01*
X106918307Y-92814947D01*
X106918299Y-92814949D01*
X106876285Y-92825930D01*
X106876280Y-92825931D01*
X106876041Y-92825994D01*
X106875806Y-92826078D01*
X106875798Y-92826081D01*
X106837623Y-92839815D01*
X106837616Y-92839818D01*
X106837421Y-92839888D01*
X106800639Y-92856391D01*
X106763637Y-92875328D01*
X106763615Y-92875340D01*
X106763607Y-92875344D01*
X106724407Y-92896500D01*
X106724361Y-92896525D01*
X106680857Y-92919753D01*
X106680611Y-92919880D01*
X106638167Y-92941270D01*
X106629237Y-92941933D01*
X106624792Y-92939255D01*
X106580332Y-92896500D01*
X106356409Y-92681164D01*
X106354330Y-92676409D01*
X106353792Y-92676620D01*
X106352294Y-92672794D01*
X106630766Y-92405000D01*
X106680756Y-92430192D01*
G37*
G04 #@! TD.AperFunction*
G04 #@! TA.AperFunction,Conductor*
G36*
X107375208Y-92410745D02*
G01*
X107395487Y-92430246D01*
X107643591Y-92668836D01*
X107645670Y-92673591D01*
X107646208Y-92673380D01*
X107647706Y-92677206D01*
X107369234Y-92945000D01*
X107319243Y-92919807D01*
X107275638Y-92896525D01*
X107275591Y-92896499D01*
X107236393Y-92875344D01*
X107236370Y-92875333D01*
X107236362Y-92875328D01*
X107199360Y-92856391D01*
X107162578Y-92839888D01*
X107162383Y-92839818D01*
X107162376Y-92839815D01*
X107124201Y-92826081D01*
X107124193Y-92826078D01*
X107123958Y-92825994D01*
X107123719Y-92825931D01*
X107123714Y-92825930D01*
X107081700Y-92814949D01*
X107081692Y-92814947D01*
X107081446Y-92814883D01*
X107081187Y-92814839D01*
X107081185Y-92814839D01*
X107033206Y-92806768D01*
X107032986Y-92806731D01*
X107032764Y-92806711D01*
X107032762Y-92806711D01*
X107000516Y-92803844D01*
X106999999Y-92803798D01*
X106999998Y-92803798D01*
X106976522Y-92801711D01*
X106910000Y-92800000D01*
X106910000Y-92550000D01*
X106976522Y-92548288D01*
X106999998Y-92546201D01*
X106999999Y-92546201D01*
X107000516Y-92546155D01*
X107032762Y-92543288D01*
X107032764Y-92543288D01*
X107032986Y-92543268D01*
X107053816Y-92539764D01*
X107081185Y-92535160D01*
X107081187Y-92535160D01*
X107081446Y-92535116D01*
X107081692Y-92535052D01*
X107081700Y-92535050D01*
X107123714Y-92524069D01*
X107123719Y-92524068D01*
X107123958Y-92524005D01*
X107124193Y-92523921D01*
X107124201Y-92523918D01*
X107162376Y-92510184D01*
X107162383Y-92510181D01*
X107162578Y-92510111D01*
X107199360Y-92493608D01*
X107236362Y-92474671D01*
X107275638Y-92453474D01*
X107319142Y-92430246D01*
X107319388Y-92430119D01*
X107361833Y-92408730D01*
X107370763Y-92408067D01*
X107375208Y-92410745D01*
G37*
G04 #@! TD.AperFunction*
G04 #@! TA.AperFunction,Conductor*
G36*
X107501236Y-92528640D02*
G01*
X107501994Y-92528625D01*
X107506165Y-92531411D01*
X107648625Y-92679551D01*
X107764255Y-92799792D01*
X107767520Y-92808131D01*
X107766270Y-92813167D01*
X107744880Y-92855611D01*
X107744753Y-92855857D01*
X107721525Y-92899361D01*
X107700328Y-92938637D01*
X107681391Y-92975639D01*
X107664888Y-93012421D01*
X107650994Y-93051041D01*
X107639883Y-93093553D01*
X107631731Y-93142013D01*
X107626711Y-93198477D01*
X107626706Y-93198660D01*
X107626706Y-93198665D01*
X107625293Y-93253601D01*
X107621655Y-93261783D01*
X107613597Y-93265000D01*
X107386403Y-93265000D01*
X107378130Y-93261573D01*
X107374707Y-93253601D01*
X107373293Y-93198665D01*
X107373293Y-93198660D01*
X107373288Y-93198477D01*
X107368268Y-93142013D01*
X107360116Y-93093553D01*
X107349005Y-93051041D01*
X107335111Y-93012421D01*
X107318608Y-92975639D01*
X107299671Y-92938637D01*
X107278500Y-92899408D01*
X107278474Y-92899361D01*
X107278305Y-92899044D01*
X107278304Y-92899043D01*
X107255192Y-92855756D01*
X107230000Y-92805766D01*
X107497795Y-92527293D01*
X107501236Y-92528640D01*
G37*
G04 #@! TD.AperFunction*
G04 #@! TA.AperFunction,Conductor*
G36*
X105606403Y-89111776D02*
G01*
X105610555Y-89164414D01*
X105617365Y-89209760D01*
X105626746Y-89249658D01*
X105638606Y-89285953D01*
X105652859Y-89320490D01*
X105669413Y-89355113D01*
X105688181Y-89391668D01*
X105709073Y-89431999D01*
X105728316Y-89470568D01*
X105728943Y-89479498D01*
X105726280Y-89483899D01*
X105480000Y-89740000D01*
X105233720Y-89483899D01*
X105230455Y-89475560D01*
X105231684Y-89470566D01*
X105231685Y-89470565D01*
X105250926Y-89431999D01*
X105271818Y-89391668D01*
X105290586Y-89355113D01*
X105307140Y-89320490D01*
X105321393Y-89285953D01*
X105333253Y-89249658D01*
X105342634Y-89209760D01*
X105349444Y-89164414D01*
X105353596Y-89111776D01*
X105355000Y-89050000D01*
X105605000Y-89050000D01*
X105606403Y-89111776D01*
G37*
G04 #@! TD.AperFunction*
G04 #@! TA.AperFunction,Conductor*
G36*
X105770000Y-92805766D02*
G01*
X105744807Y-92855756D01*
X105721525Y-92899361D01*
X105700328Y-92938637D01*
X105681391Y-92975639D01*
X105664888Y-93012421D01*
X105650994Y-93051041D01*
X105639883Y-93093553D01*
X105631731Y-93142013D01*
X105626711Y-93198477D01*
X105625000Y-93265000D01*
X105375000Y-93265000D01*
X105373288Y-93198477D01*
X105368268Y-93142013D01*
X105360116Y-93093553D01*
X105349005Y-93051041D01*
X105335111Y-93012421D01*
X105318608Y-92975639D01*
X105299671Y-92938637D01*
X105278474Y-92899361D01*
X105255192Y-92855756D01*
X105230000Y-92805766D01*
X105500000Y-92525000D01*
X105770000Y-92805766D01*
G37*
G04 #@! TD.AperFunction*
G04 #@! TA.AperFunction,Conductor*
G36*
X110621870Y-92088427D02*
G01*
X110625293Y-92096399D01*
X110626711Y-92151522D01*
X110631731Y-92207986D01*
X110639883Y-92256446D01*
X110650994Y-92298958D01*
X110664888Y-92337578D01*
X110681391Y-92374360D01*
X110681457Y-92374490D01*
X110681458Y-92374491D01*
X110700309Y-92411324D01*
X110700328Y-92411362D01*
X110721500Y-92450592D01*
X110721525Y-92450638D01*
X110744753Y-92494142D01*
X110744880Y-92494388D01*
X110766270Y-92536833D01*
X110766933Y-92545763D01*
X110764255Y-92550208D01*
X110508433Y-92816231D01*
X110500229Y-92819819D01*
X110491567Y-92816231D01*
X110235745Y-92550208D01*
X110232480Y-92541869D01*
X110233730Y-92536833D01*
X110255119Y-92494388D01*
X110255246Y-92494142D01*
X110278449Y-92450684D01*
X110278474Y-92450638D01*
X110299671Y-92411362D01*
X110299690Y-92411324D01*
X110318541Y-92374491D01*
X110318542Y-92374490D01*
X110318608Y-92374360D01*
X110335111Y-92337578D01*
X110349005Y-92298958D01*
X110360116Y-92256446D01*
X110368268Y-92207986D01*
X110373288Y-92151522D01*
X110374707Y-92096399D01*
X110378345Y-92088217D01*
X110386403Y-92085000D01*
X110613597Y-92085000D01*
X110621870Y-92088427D01*
G37*
G04 #@! TD.AperFunction*
G04 #@! TA.AperFunction,Conductor*
G36*
X108621870Y-92088427D02*
G01*
X108625293Y-92096399D01*
X108626711Y-92151522D01*
X108631731Y-92207986D01*
X108639883Y-92256446D01*
X108650994Y-92298958D01*
X108664888Y-92337578D01*
X108681391Y-92374360D01*
X108681457Y-92374490D01*
X108681458Y-92374491D01*
X108700309Y-92411324D01*
X108700328Y-92411362D01*
X108721500Y-92450592D01*
X108721525Y-92450638D01*
X108744753Y-92494142D01*
X108744880Y-92494388D01*
X108766270Y-92536833D01*
X108766933Y-92545763D01*
X108764255Y-92550208D01*
X108508433Y-92816231D01*
X108500229Y-92819819D01*
X108491567Y-92816231D01*
X108235745Y-92550208D01*
X108232480Y-92541869D01*
X108233730Y-92536833D01*
X108255119Y-92494388D01*
X108255246Y-92494142D01*
X108278449Y-92450684D01*
X108278474Y-92450638D01*
X108299671Y-92411362D01*
X108299690Y-92411324D01*
X108318541Y-92374491D01*
X108318542Y-92374490D01*
X108318608Y-92374360D01*
X108335111Y-92337578D01*
X108349005Y-92298958D01*
X108360116Y-92256446D01*
X108368268Y-92207986D01*
X108373288Y-92151522D01*
X108374707Y-92096399D01*
X108378345Y-92088217D01*
X108386403Y-92085000D01*
X108613597Y-92085000D01*
X108621870Y-92088427D01*
G37*
G04 #@! TD.AperFunction*
G04 #@! TA.AperFunction,Conductor*
G36*
X111621870Y-92088427D02*
G01*
X111625293Y-92096399D01*
X111626711Y-92151522D01*
X111631731Y-92207986D01*
X111639883Y-92256446D01*
X111650994Y-92298958D01*
X111664888Y-92337578D01*
X111681391Y-92374360D01*
X111681457Y-92374490D01*
X111681458Y-92374491D01*
X111700309Y-92411324D01*
X111700328Y-92411362D01*
X111721500Y-92450592D01*
X111721525Y-92450638D01*
X111744753Y-92494142D01*
X111744880Y-92494388D01*
X111766270Y-92536833D01*
X111766933Y-92545763D01*
X111764255Y-92550208D01*
X111508433Y-92816231D01*
X111500229Y-92819819D01*
X111491567Y-92816231D01*
X111235745Y-92550208D01*
X111232480Y-92541869D01*
X111233730Y-92536833D01*
X111255119Y-92494388D01*
X111255246Y-92494142D01*
X111278449Y-92450684D01*
X111278474Y-92450638D01*
X111299671Y-92411362D01*
X111299690Y-92411324D01*
X111318541Y-92374491D01*
X111318542Y-92374490D01*
X111318608Y-92374360D01*
X111335111Y-92337578D01*
X111349005Y-92298958D01*
X111360116Y-92256446D01*
X111368268Y-92207986D01*
X111373288Y-92151522D01*
X111374707Y-92096399D01*
X111378345Y-92088217D01*
X111386403Y-92085000D01*
X111613597Y-92085000D01*
X111621870Y-92088427D01*
G37*
G04 #@! TD.AperFunction*
G04 #@! TA.AperFunction,Conductor*
G36*
X109508433Y-92533769D02*
G01*
X109764255Y-92799792D01*
X109767520Y-92808131D01*
X109766270Y-92813167D01*
X109744880Y-92855611D01*
X109744753Y-92855857D01*
X109721525Y-92899361D01*
X109700328Y-92938637D01*
X109681391Y-92975639D01*
X109664888Y-93012421D01*
X109650994Y-93051041D01*
X109639883Y-93093553D01*
X109631731Y-93142013D01*
X109626711Y-93198477D01*
X109626706Y-93198660D01*
X109626706Y-93198665D01*
X109625293Y-93253601D01*
X109621655Y-93261783D01*
X109613597Y-93265000D01*
X109386403Y-93265000D01*
X109378130Y-93261573D01*
X109374707Y-93253601D01*
X109373293Y-93198665D01*
X109373293Y-93198660D01*
X109373288Y-93198477D01*
X109368268Y-93142013D01*
X109360116Y-93093553D01*
X109349005Y-93051041D01*
X109335111Y-93012421D01*
X109318608Y-92975639D01*
X109299671Y-92938637D01*
X109278474Y-92899361D01*
X109255246Y-92855857D01*
X109255119Y-92855611D01*
X109233730Y-92813167D01*
X109233067Y-92804237D01*
X109235745Y-92799792D01*
X109491567Y-92533769D01*
X109499771Y-92530181D01*
X109508433Y-92533769D01*
G37*
G04 #@! TD.AperFunction*
G04 #@! TA.AperFunction,Conductor*
G36*
X104650000Y-92675000D02*
G01*
X104369234Y-92945000D01*
X104319243Y-92919807D01*
X104275638Y-92896525D01*
X104236362Y-92875328D01*
X104199360Y-92856391D01*
X104162578Y-92839888D01*
X104123958Y-92825994D01*
X104081446Y-92814883D01*
X104032986Y-92806731D01*
X103976522Y-92801711D01*
X103910000Y-92800000D01*
X103910000Y-92550000D01*
X103976522Y-92548288D01*
X104032986Y-92543268D01*
X104081446Y-92535116D01*
X104123958Y-92524005D01*
X104162578Y-92510111D01*
X104199360Y-92493608D01*
X104236362Y-92474671D01*
X104275638Y-92453474D01*
X104319243Y-92430192D01*
X104369234Y-92405000D01*
X104650000Y-92675000D01*
G37*
G04 #@! TD.AperFunction*
G04 #@! TA.AperFunction,Conductor*
G36*
X105703762Y-90607315D02*
G01*
X105716939Y-90607573D01*
X105736242Y-90607950D01*
X105744446Y-90611538D01*
X105747109Y-90615939D01*
X105760740Y-90656716D01*
X105760792Y-90656875D01*
X105774518Y-90700106D01*
X105787095Y-90739224D01*
X105787109Y-90739263D01*
X105787116Y-90739285D01*
X105788106Y-90742088D01*
X105799872Y-90775412D01*
X105814215Y-90809911D01*
X105831493Y-90843962D01*
X105853072Y-90878807D01*
X105880321Y-90915687D01*
X105914606Y-90955844D01*
X105914707Y-90955950D01*
X105914719Y-90955963D01*
X105925370Y-90967109D01*
X105949395Y-90992251D01*
X105952633Y-91000599D01*
X105949209Y-91008606D01*
X105788606Y-91169209D01*
X105780333Y-91172636D01*
X105772251Y-91169395D01*
X105755788Y-91153664D01*
X105735963Y-91134719D01*
X105735950Y-91134707D01*
X105735844Y-91134606D01*
X105695687Y-91100321D01*
X105658807Y-91073072D01*
X105623962Y-91051493D01*
X105623751Y-91051386D01*
X105623744Y-91051382D01*
X105590100Y-91034311D01*
X105589911Y-91034215D01*
X105555412Y-91019872D01*
X105554116Y-91019414D01*
X105519285Y-91007116D01*
X105519263Y-91007109D01*
X105519224Y-91007095D01*
X105480106Y-90994518D01*
X105436875Y-90980792D01*
X105436716Y-90980740D01*
X105395939Y-90967109D01*
X105389179Y-90961236D01*
X105387950Y-90956242D01*
X105383764Y-90742088D01*
X105383721Y-90739881D01*
X105381006Y-90601006D01*
X105703762Y-90607315D01*
G37*
G04 #@! TD.AperFunction*
G04 #@! TA.AperFunction,Conductor*
G36*
X106621870Y-92088427D02*
G01*
X106625293Y-92096399D01*
X106626711Y-92151522D01*
X106631731Y-92207986D01*
X106639883Y-92256446D01*
X106650994Y-92298958D01*
X106664888Y-92337578D01*
X106681391Y-92374360D01*
X106681457Y-92374490D01*
X106681458Y-92374491D01*
X106700309Y-92411324D01*
X106700328Y-92411362D01*
X106721499Y-92450591D01*
X106721525Y-92450638D01*
X106744807Y-92494243D01*
X106770000Y-92544234D01*
X106502205Y-92822707D01*
X106498764Y-92821360D01*
X106498006Y-92821375D01*
X106493835Y-92818589D01*
X106426541Y-92748612D01*
X106247043Y-92561957D01*
X106235745Y-92550208D01*
X106232480Y-92541869D01*
X106233730Y-92536833D01*
X106255119Y-92494388D01*
X106255246Y-92494142D01*
X106261230Y-92482935D01*
X106278474Y-92450638D01*
X106299671Y-92411362D01*
X106318608Y-92374360D01*
X106335111Y-92337578D01*
X106349005Y-92298958D01*
X106360116Y-92256446D01*
X106368268Y-92207986D01*
X106373288Y-92151522D01*
X106374707Y-92096399D01*
X106378345Y-92088217D01*
X106386403Y-92085000D01*
X106613597Y-92085000D01*
X106621870Y-92088427D01*
G37*
G04 #@! TD.AperFunction*
G04 #@! TA.AperFunction,Conductor*
G36*
X104626711Y-92151522D02*
G01*
X104631731Y-92207986D01*
X104639883Y-92256446D01*
X104650994Y-92298958D01*
X104664888Y-92337578D01*
X104681391Y-92374360D01*
X104700328Y-92411362D01*
X104721525Y-92450638D01*
X104744807Y-92494243D01*
X104770000Y-92544234D01*
X104500000Y-92825000D01*
X104230000Y-92544234D01*
X104255192Y-92494243D01*
X104278474Y-92450638D01*
X104299671Y-92411362D01*
X104318608Y-92374360D01*
X104335111Y-92337578D01*
X104349005Y-92298958D01*
X104360116Y-92256446D01*
X104368268Y-92207986D01*
X104373288Y-92151522D01*
X104375000Y-92085000D01*
X104625000Y-92085000D01*
X104626711Y-92151522D01*
G37*
G04 #@! TD.AperFunction*
G04 #@! TA.AperFunction,Conductor*
G36*
X104762663Y-90839693D02*
G01*
X104736842Y-90883649D01*
X104713633Y-90922475D01*
X104693062Y-90957934D01*
X104675154Y-90991790D01*
X104659932Y-91025805D01*
X104647423Y-91061744D01*
X104637650Y-91101370D01*
X104630638Y-91146445D01*
X104626413Y-91198734D01*
X104625000Y-91260000D01*
X104375000Y-91260000D01*
X104373707Y-91194893D01*
X104369893Y-91139403D01*
X104363651Y-91091547D01*
X104355076Y-91049342D01*
X104344264Y-91010806D01*
X104331308Y-90973957D01*
X104316304Y-90936813D01*
X104299345Y-90897391D01*
X104280527Y-90853708D01*
X104259945Y-90803784D01*
X104529974Y-90560356D01*
X104762663Y-90839693D01*
G37*
G04 #@! TD.AperFunction*
G04 #@! TA.AperFunction,Conductor*
G36*
X104660000Y-90700000D02*
G01*
X104397951Y-90952000D01*
X104351999Y-90929073D01*
X104311668Y-90908181D01*
X104275113Y-90889413D01*
X104240490Y-90872859D01*
X104205953Y-90858606D01*
X104169658Y-90846746D01*
X104129760Y-90837365D01*
X104084414Y-90830555D01*
X104031776Y-90826403D01*
X103970000Y-90825000D01*
X103970000Y-90575000D01*
X104031776Y-90573596D01*
X104084414Y-90569444D01*
X104129760Y-90562634D01*
X104169658Y-90553253D01*
X104205953Y-90541393D01*
X104240490Y-90527140D01*
X104275113Y-90510586D01*
X104311668Y-90491818D01*
X104351999Y-90470926D01*
X104397951Y-90448000D01*
X104660000Y-90700000D01*
G37*
G04 #@! TD.AperFunction*
G04 #@! TA.AperFunction,Conductor*
G36*
X104660000Y-89600000D02*
G01*
X104397951Y-89852000D01*
X104351999Y-89829073D01*
X104311668Y-89808181D01*
X104275113Y-89789413D01*
X104240490Y-89772859D01*
X104205953Y-89758606D01*
X104169658Y-89746746D01*
X104129760Y-89737365D01*
X104084414Y-89730555D01*
X104031776Y-89726403D01*
X103970000Y-89725000D01*
X103970000Y-89475000D01*
X104031776Y-89473596D01*
X104084414Y-89469444D01*
X104129760Y-89462634D01*
X104169658Y-89453253D01*
X104205953Y-89441393D01*
X104240490Y-89427140D01*
X104275113Y-89410586D01*
X104311668Y-89391818D01*
X104351999Y-89370926D01*
X104397951Y-89348000D01*
X104660000Y-89600000D01*
G37*
G04 #@! TD.AperFunction*
G04 #@! TA.AperFunction,Conductor*
G36*
X105614631Y-89600000D02*
G01*
X105616162Y-89601592D01*
X105726279Y-89716100D01*
X105729544Y-89724439D01*
X105728315Y-89729434D01*
X105709121Y-89767903D01*
X105709041Y-89768060D01*
X105688238Y-89808219D01*
X105688181Y-89808331D01*
X105669413Y-89844886D01*
X105652859Y-89879509D01*
X105638606Y-89914046D01*
X105626746Y-89950341D01*
X105617365Y-89990239D01*
X105610555Y-90035585D01*
X105606403Y-90088223D01*
X105605000Y-90150000D01*
X105355000Y-90150000D01*
X105353596Y-90088223D01*
X105349444Y-90035585D01*
X105342634Y-89990239D01*
X105333253Y-89950341D01*
X105321393Y-89914046D01*
X105307140Y-89879509D01*
X105290586Y-89844886D01*
X105271818Y-89808331D01*
X105250926Y-89768000D01*
X105231684Y-89729433D01*
X105231057Y-89720502D01*
X105233720Y-89716101D01*
X105343755Y-89601678D01*
X105480000Y-89460000D01*
X105614631Y-89600000D01*
G37*
G04 #@! TD.AperFunction*
G04 #@! TA.AperFunction,Conductor*
G36*
X105606403Y-90211776D02*
G01*
X105610555Y-90264414D01*
X105617365Y-90309760D01*
X105626746Y-90349658D01*
X105638606Y-90385953D01*
X105652859Y-90420490D01*
X105669413Y-90455113D01*
X105688181Y-90491668D01*
X105709073Y-90531999D01*
X105728316Y-90570568D01*
X105728943Y-90579498D01*
X105726280Y-90583899D01*
X105705376Y-90605636D01*
X105705376Y-90605637D01*
X105480000Y-90840000D01*
X105383721Y-90739882D01*
X105383721Y-90739881D01*
X105255845Y-90606906D01*
X105233720Y-90583899D01*
X105230455Y-90575560D01*
X105231684Y-90570566D01*
X105231685Y-90570565D01*
X105250926Y-90531999D01*
X105271818Y-90491668D01*
X105290586Y-90455113D01*
X105307140Y-90420490D01*
X105321393Y-90385953D01*
X105333253Y-90349658D01*
X105342634Y-90309760D01*
X105349444Y-90264414D01*
X105353596Y-90211776D01*
X105355000Y-90150000D01*
X105605000Y-90150000D01*
X105606403Y-90211776D01*
G37*
G04 #@! TD.AperFunction*
G04 #@! TA.AperFunction,Conductor*
G36*
X113376997Y-84420002D02*
G01*
X113423490Y-84473658D01*
X113433594Y-84543932D01*
X113404100Y-84608512D01*
X113367057Y-84637762D01*
X113197679Y-84725935D01*
X113193546Y-84729038D01*
X113193543Y-84729040D01*
X113096419Y-84801963D01*
X113000364Y-84874083D01*
X112829896Y-85052468D01*
X112826982Y-85056740D01*
X112826981Y-85056741D01*
X112773988Y-85134426D01*
X112690851Y-85256300D01*
X112586965Y-85480104D01*
X112521026Y-85717871D01*
X112494806Y-85963214D01*
X112509010Y-86209545D01*
X112510147Y-86214591D01*
X112510148Y-86214597D01*
X112532336Y-86313051D01*
X112563255Y-86450249D01*
X112656084Y-86678861D01*
X112785006Y-86889241D01*
X112946557Y-87075741D01*
X113136399Y-87233351D01*
X113349433Y-87357838D01*
X113354253Y-87359678D01*
X113354258Y-87359681D01*
X113468547Y-87403323D01*
X113579939Y-87445859D01*
X113585007Y-87446890D01*
X113585010Y-87446891D01*
X113704587Y-87471219D01*
X113821726Y-87495052D01*
X113826899Y-87495242D01*
X113826902Y-87495242D01*
X114063136Y-87503904D01*
X114063140Y-87503904D01*
X114068300Y-87504093D01*
X114073420Y-87503437D01*
X114073422Y-87503437D01*
X114149703Y-87493665D01*
X114313041Y-87472741D01*
X114317990Y-87471256D01*
X114317996Y-87471255D01*
X114544424Y-87403323D01*
X114544423Y-87403323D01*
X114549374Y-87401838D01*
X114653266Y-87350942D01*
X114766303Y-87295566D01*
X114766308Y-87295563D01*
X114770954Y-87293287D01*
X114775164Y-87290284D01*
X114775169Y-87290281D01*
X114967617Y-87153009D01*
X114967622Y-87153005D01*
X114971829Y-87150004D01*
X115146605Y-86975837D01*
X115290588Y-86775463D01*
X115340702Y-86674066D01*
X115361043Y-86632908D01*
X115409157Y-86580701D01*
X115477858Y-86562794D01*
X115545334Y-86584872D01*
X115590162Y-86639926D01*
X115600000Y-86688735D01*
X115600000Y-97310762D01*
X115579998Y-97378883D01*
X115526342Y-97425376D01*
X115456068Y-97435480D01*
X115391488Y-97405986D01*
X115358452Y-97361006D01*
X115326928Y-97288507D01*
X115192905Y-97081339D01*
X115166635Y-97052468D01*
X115140243Y-97023464D01*
X115026846Y-96898842D01*
X115022795Y-96895643D01*
X115022791Y-96895639D01*
X114837264Y-96749119D01*
X114837259Y-96749116D01*
X114833210Y-96745918D01*
X114828694Y-96743425D01*
X114828691Y-96743423D01*
X114621722Y-96629170D01*
X114621718Y-96629168D01*
X114617198Y-96626673D01*
X114612329Y-96624949D01*
X114612325Y-96624947D01*
X114389485Y-96546035D01*
X114389481Y-96546034D01*
X114384610Y-96544309D01*
X114379517Y-96543402D01*
X114379514Y-96543401D01*
X114146783Y-96501945D01*
X114146777Y-96501944D01*
X114141694Y-96501039D01*
X114062324Y-96500069D01*
X113900142Y-96498088D01*
X113900140Y-96498088D01*
X113894972Y-96498025D01*
X113778269Y-96515883D01*
X113716394Y-96525351D01*
X113646031Y-96515883D01*
X113591957Y-96469877D01*
X113571340Y-96401940D01*
X113590725Y-96333642D01*
X113608240Y-96311706D01*
X113668081Y-96251865D01*
X113680957Y-96230093D01*
X113747709Y-96117221D01*
X113747709Y-96117220D01*
X113751744Y-96110398D01*
X113756432Y-96094264D01*
X113795801Y-95958754D01*
X113797598Y-95952569D01*
X113798633Y-95939416D01*
X113800307Y-95918153D01*
X113800308Y-95918140D01*
X113800500Y-95915694D01*
X113800500Y-94484306D01*
X113800308Y-94481860D01*
X113800307Y-94481847D01*
X113798103Y-94453850D01*
X113797598Y-94447431D01*
X113751744Y-94289602D01*
X113668081Y-94148135D01*
X113551865Y-94031919D01*
X113545044Y-94027885D01*
X113417221Y-93952291D01*
X113417220Y-93952291D01*
X113410398Y-93948256D01*
X113402786Y-93946045D01*
X113402785Y-93946044D01*
X113258754Y-93904199D01*
X113258755Y-93904199D01*
X113252569Y-93902402D01*
X113239416Y-93901367D01*
X113218153Y-93899693D01*
X113218140Y-93899692D01*
X113215694Y-93899500D01*
X112384306Y-93899500D01*
X112381860Y-93899692D01*
X112381847Y-93899693D01*
X112360584Y-93901367D01*
X112347431Y-93902402D01*
X112341245Y-93904199D01*
X112341246Y-93904199D01*
X112197215Y-93946044D01*
X112197214Y-93946045D01*
X112189602Y-93948256D01*
X112182780Y-93952291D01*
X112182779Y-93952291D01*
X112054956Y-94027885D01*
X112048135Y-94031919D01*
X111931919Y-94148135D01*
X111848256Y-94289602D01*
X111802402Y-94447431D01*
X111801897Y-94453850D01*
X111799693Y-94481847D01*
X111799692Y-94481860D01*
X111799500Y-94484306D01*
X111799500Y-95915694D01*
X111799692Y-95918140D01*
X111799693Y-95918153D01*
X111801367Y-95939416D01*
X111802402Y-95952569D01*
X111804199Y-95958754D01*
X111843569Y-96094264D01*
X111848256Y-96110398D01*
X111852291Y-96117220D01*
X111852291Y-96117221D01*
X111919043Y-96230093D01*
X111931919Y-96251865D01*
X112048135Y-96368081D01*
X112189602Y-96451744D01*
X112197214Y-96453955D01*
X112197215Y-96453956D01*
X112301951Y-96484385D01*
X112347431Y-96497598D01*
X112360584Y-96498633D01*
X112381847Y-96500307D01*
X112381860Y-96500308D01*
X112384306Y-96500500D01*
X113120261Y-96500500D01*
X113188382Y-96520502D01*
X113234875Y-96574158D01*
X113244979Y-96644432D01*
X113215485Y-96709012D01*
X113195914Y-96727260D01*
X113166801Y-96749119D01*
X113000364Y-96874083D01*
X112829896Y-97052468D01*
X112826982Y-97056740D01*
X112826981Y-97056741D01*
X112807238Y-97085683D01*
X112690851Y-97256300D01*
X112675901Y-97288507D01*
X112607679Y-97435480D01*
X112586965Y-97480104D01*
X112521026Y-97717871D01*
X112494806Y-97963214D01*
X112509010Y-98209545D01*
X112510147Y-98214591D01*
X112510148Y-98214597D01*
X112518712Y-98252598D01*
X112563255Y-98450249D01*
X112656084Y-98678861D01*
X112785006Y-98889241D01*
X112946557Y-99075741D01*
X113136399Y-99233351D01*
X113201451Y-99271365D01*
X113344967Y-99355229D01*
X113344974Y-99355232D01*
X113349433Y-99357838D01*
X113354262Y-99359682D01*
X113355698Y-99360370D01*
X113408488Y-99407844D01*
X113427232Y-99476321D01*
X113405978Y-99544062D01*
X113351475Y-99589558D01*
X113301253Y-99600000D01*
X102688475Y-99600000D01*
X102620354Y-99579998D01*
X102573861Y-99526342D01*
X102563757Y-99456068D01*
X102593251Y-99391488D01*
X102633043Y-99360849D01*
X102766303Y-99295566D01*
X102766308Y-99295563D01*
X102770954Y-99293287D01*
X102775164Y-99290284D01*
X102775169Y-99290281D01*
X102967617Y-99153009D01*
X102967622Y-99153005D01*
X102971829Y-99150004D01*
X103146605Y-98975837D01*
X103156256Y-98962407D01*
X103287570Y-98779663D01*
X103290588Y-98775463D01*
X103399911Y-98554264D01*
X103439733Y-98423196D01*
X103470135Y-98323132D01*
X103470136Y-98323126D01*
X103471639Y-98318180D01*
X103503845Y-98073550D01*
X103505643Y-98000000D01*
X103494999Y-97870534D01*
X103485849Y-97759240D01*
X103485848Y-97759234D01*
X103485425Y-97754089D01*
X103425316Y-97514783D01*
X103326928Y-97288507D01*
X103192905Y-97081339D01*
X103166635Y-97052468D01*
X103140243Y-97023464D01*
X103026846Y-96898842D01*
X103022795Y-96895643D01*
X103022791Y-96895639D01*
X102837264Y-96749119D01*
X102837259Y-96749116D01*
X102833210Y-96745918D01*
X102828692Y-96743424D01*
X102828686Y-96743420D01*
X102816710Y-96736809D01*
X102766739Y-96686376D01*
X102751967Y-96616933D01*
X102777083Y-96550528D01*
X102834114Y-96508243D01*
X102877603Y-96500500D01*
X103615694Y-96500500D01*
X103618140Y-96500308D01*
X103618153Y-96500307D01*
X103639416Y-96498633D01*
X103652569Y-96497598D01*
X103698049Y-96484385D01*
X103802785Y-96453956D01*
X103802786Y-96453955D01*
X103810398Y-96451744D01*
X103951865Y-96368081D01*
X104068081Y-96251865D01*
X104072115Y-96245044D01*
X104072117Y-96245042D01*
X104084769Y-96223648D01*
X104136662Y-96175196D01*
X104206512Y-96162491D01*
X104272143Y-96189567D01*
X104302584Y-96231305D01*
X104304790Y-96230092D01*
X104304790Y-96230093D01*
X104324681Y-96266275D01*
X104329888Y-96276905D01*
X104346280Y-96314783D01*
X104351686Y-96321459D01*
X104351687Y-96321461D01*
X104354992Y-96325542D01*
X104367480Y-96344126D01*
X104374153Y-96356263D01*
X104380836Y-96364005D01*
X104404040Y-96387209D01*
X104412865Y-96397009D01*
X104436888Y-96426675D01*
X104451144Y-96436806D01*
X104467244Y-96450413D01*
X106788195Y-98771364D01*
X106791848Y-98775173D01*
X106831884Y-98818712D01*
X106839184Y-98823238D01*
X106839185Y-98823239D01*
X106866960Y-98840460D01*
X106876730Y-98847174D01*
X106909604Y-98872127D01*
X106922474Y-98877222D01*
X106942482Y-98887286D01*
X106954250Y-98894582D01*
X106962493Y-98896977D01*
X106962500Y-98896980D01*
X106993893Y-98906101D01*
X107005120Y-98909945D01*
X107035487Y-98921968D01*
X107035489Y-98921969D01*
X107043472Y-98925129D01*
X107052009Y-98926026D01*
X107052016Y-98926028D01*
X107057239Y-98926577D01*
X107079216Y-98930888D01*
X107086178Y-98932911D01*
X107086180Y-98932911D01*
X107092512Y-98934751D01*
X107099327Y-98935251D01*
X107100404Y-98935331D01*
X107100417Y-98935331D01*
X107102712Y-98935500D01*
X107135538Y-98935500D01*
X107148709Y-98936190D01*
X107186661Y-98940179D01*
X107195127Y-98938747D01*
X107195130Y-98938747D01*
X107203897Y-98937264D01*
X107224909Y-98935500D01*
X110792686Y-98935500D01*
X110797816Y-98935605D01*
X110801237Y-98935744D01*
X110820163Y-98936516D01*
X110825403Y-98936839D01*
X110834155Y-98937562D01*
X110871773Y-98946631D01*
X110874254Y-98947653D01*
X110878399Y-98949449D01*
X110896724Y-98957778D01*
X110898903Y-98958793D01*
X110903562Y-98961022D01*
X110909285Y-98963942D01*
X110923463Y-98971640D01*
X110961370Y-98992222D01*
X110961372Y-98992223D01*
X110968047Y-98995847D01*
X110975396Y-98997775D01*
X111107136Y-99032336D01*
X111107138Y-99032336D01*
X111114486Y-99034264D01*
X111194562Y-99035522D01*
X111258266Y-99036523D01*
X111258269Y-99036523D01*
X111265863Y-99036642D01*
X111413437Y-99002843D01*
X111493836Y-98962407D01*
X111541906Y-98938231D01*
X111541909Y-98938229D01*
X111548689Y-98934819D01*
X111663810Y-98836495D01*
X111730485Y-98743708D01*
X111747724Y-98719718D01*
X111747725Y-98719717D01*
X111752156Y-98713550D01*
X111808624Y-98573080D01*
X111829956Y-98423196D01*
X111830094Y-98410000D01*
X111811906Y-98259701D01*
X111792954Y-98209545D01*
X111761076Y-98125182D01*
X111761075Y-98125179D01*
X111758392Y-98118080D01*
X111672640Y-97993311D01*
X111559603Y-97892599D01*
X111552897Y-97889048D01*
X111552895Y-97889047D01*
X111474605Y-97847595D01*
X111425805Y-97821757D01*
X111278972Y-97784874D01*
X111271374Y-97784834D01*
X111271372Y-97784834D01*
X111206775Y-97784496D01*
X111127579Y-97784082D01*
X111120200Y-97785854D01*
X111120196Y-97785854D01*
X110987746Y-97817652D01*
X110987742Y-97817653D01*
X110980367Y-97819424D01*
X110973623Y-97822905D01*
X110973620Y-97822906D01*
X110907604Y-97856980D01*
X110904178Y-97858683D01*
X110902341Y-97859562D01*
X110898887Y-97861213D01*
X110896686Y-97862239D01*
X110878424Y-97870540D01*
X110874271Y-97872338D01*
X110871755Y-97873374D01*
X110834156Y-97882437D01*
X110825405Y-97883160D01*
X110820166Y-97883483D01*
X110803221Y-97884174D01*
X110797804Y-97884395D01*
X110792674Y-97884500D01*
X107439859Y-97884500D01*
X107371738Y-97864498D01*
X107350764Y-97847595D01*
X105362405Y-95859236D01*
X105328379Y-95796924D01*
X105325500Y-95770141D01*
X105325500Y-95697336D01*
X105325604Y-95692207D01*
X105326515Y-95669847D01*
X105326839Y-95664598D01*
X105327308Y-95658923D01*
X105346218Y-95607559D01*
X105344064Y-95606375D01*
X105347723Y-95599719D01*
X105352156Y-95593550D01*
X105408624Y-95453080D01*
X105429956Y-95303196D01*
X105430094Y-95290000D01*
X105411906Y-95139701D01*
X105358392Y-94998080D01*
X105272640Y-94873311D01*
X105159603Y-94772599D01*
X105152897Y-94769048D01*
X105152895Y-94769047D01*
X105092704Y-94737178D01*
X105025805Y-94701757D01*
X104878972Y-94664874D01*
X104871374Y-94664834D01*
X104871372Y-94664834D01*
X104806775Y-94664496D01*
X104727579Y-94664082D01*
X104720200Y-94665854D01*
X104720196Y-94665854D01*
X104587746Y-94697652D01*
X104587742Y-94697653D01*
X104580367Y-94699424D01*
X104445835Y-94768861D01*
X104440113Y-94773853D01*
X104440111Y-94773854D01*
X104409329Y-94800707D01*
X104344847Y-94830415D01*
X104274540Y-94820545D01*
X104220729Y-94774231D01*
X104200500Y-94705758D01*
X104200500Y-94484306D01*
X104200308Y-94481860D01*
X104200307Y-94481847D01*
X104198103Y-94453850D01*
X104197598Y-94447431D01*
X104151744Y-94289602D01*
X104068081Y-94148135D01*
X104062475Y-94142529D01*
X104058978Y-94138021D01*
X104033029Y-94071937D01*
X104041238Y-94030814D01*
X105303432Y-94030814D01*
X105514886Y-94232393D01*
X105708048Y-94013222D01*
X105689725Y-93978633D01*
X105674131Y-93947302D01*
X105661077Y-93917988D01*
X105650375Y-93889449D01*
X105641836Y-93860444D01*
X105635273Y-93829733D01*
X105630496Y-93796074D01*
X105627317Y-93758226D01*
X105625547Y-93714948D01*
X105625000Y-93665000D01*
X105375000Y-93665000D01*
X105374541Y-93716951D01*
X105373053Y-93761882D01*
X105370362Y-93801144D01*
X105366297Y-93836089D01*
X105360686Y-93868069D01*
X105353357Y-93898436D01*
X105344139Y-93928542D01*
X105332860Y-93959739D01*
X105319348Y-93993379D01*
X105303432Y-94030814D01*
X104041238Y-94030814D01*
X104046927Y-94002314D01*
X104096260Y-93951257D01*
X104165365Y-93934977D01*
X104193688Y-93939795D01*
X104228604Y-93949939D01*
X104242706Y-93949899D01*
X104246000Y-93942630D01*
X104246000Y-93936878D01*
X104754000Y-93936878D01*
X104757973Y-93950409D01*
X104765871Y-93951544D01*
X104905790Y-93910893D01*
X104920226Y-93904646D01*
X104935862Y-93895399D01*
X105004679Y-93877940D01*
X105064138Y-93895399D01*
X105079774Y-93904646D01*
X105094210Y-93910893D01*
X105228605Y-93949939D01*
X105242706Y-93949899D01*
X105246000Y-93942630D01*
X105246000Y-92947115D01*
X105241525Y-92931876D01*
X105240135Y-92930671D01*
X105232452Y-92929000D01*
X104772115Y-92929000D01*
X104756876Y-92933475D01*
X104755671Y-92934865D01*
X104754000Y-92942548D01*
X104754000Y-93936878D01*
X104246000Y-93936878D01*
X104246000Y-92947115D01*
X104241525Y-92931876D01*
X104240135Y-92930671D01*
X104232452Y-92929000D01*
X103710116Y-92929000D01*
X103694877Y-92933475D01*
X103693672Y-92934865D01*
X103692001Y-92942548D01*
X103692001Y-93363984D01*
X103692195Y-93368920D01*
X103694430Y-93397336D01*
X103696730Y-93409931D01*
X103739107Y-93555790D01*
X103745352Y-93570221D01*
X103821911Y-93699678D01*
X103836407Y-93718364D01*
X103833648Y-93720504D01*
X103860091Y-93768930D01*
X103855026Y-93839745D01*
X103812479Y-93896581D01*
X103745959Y-93921392D01*
X103701817Y-93916710D01*
X103658754Y-93904199D01*
X103658755Y-93904199D01*
X103652569Y-93902402D01*
X103639416Y-93901367D01*
X103618153Y-93899693D01*
X103618140Y-93899692D01*
X103615694Y-93899500D01*
X102784306Y-93899500D01*
X102781860Y-93899692D01*
X102781847Y-93899693D01*
X102760584Y-93901367D01*
X102747431Y-93902402D01*
X102741245Y-93904199D01*
X102741246Y-93904199D01*
X102597215Y-93946044D01*
X102597214Y-93946045D01*
X102589602Y-93948256D01*
X102582780Y-93952291D01*
X102582779Y-93952291D01*
X102454956Y-94027885D01*
X102448135Y-94031919D01*
X102331919Y-94148135D01*
X102248256Y-94289602D01*
X102202402Y-94447431D01*
X102201897Y-94453850D01*
X102199693Y-94481847D01*
X102199692Y-94481860D01*
X102199500Y-94484306D01*
X102199500Y-95915694D01*
X102199692Y-95918140D01*
X102199693Y-95918153D01*
X102201367Y-95939416D01*
X102202402Y-95952569D01*
X102204199Y-95958754D01*
X102243569Y-96094264D01*
X102248256Y-96110398D01*
X102252291Y-96117220D01*
X102252291Y-96117221D01*
X102319043Y-96230093D01*
X102331919Y-96251865D01*
X102392890Y-96312836D01*
X102426916Y-96375148D01*
X102421851Y-96445963D01*
X102379304Y-96502799D01*
X102312784Y-96527610D01*
X102281701Y-96525978D01*
X102219046Y-96514818D01*
X102146782Y-96501945D01*
X102146778Y-96501945D01*
X102141694Y-96501039D01*
X102062324Y-96500069D01*
X101900142Y-96498088D01*
X101900140Y-96498088D01*
X101894972Y-96498025D01*
X101651070Y-96535347D01*
X101416540Y-96612003D01*
X101197679Y-96725935D01*
X101193546Y-96729038D01*
X101193543Y-96729040D01*
X101004499Y-96870978D01*
X101000364Y-96874083D01*
X100829896Y-97052468D01*
X100826982Y-97056740D01*
X100826981Y-97056741D01*
X100807238Y-97085683D01*
X100690851Y-97256300D01*
X100675901Y-97288507D01*
X100640288Y-97365229D01*
X100593464Y-97418596D01*
X100525220Y-97438177D01*
X100457225Y-97417753D01*
X100411065Y-97363811D01*
X100400000Y-97312179D01*
X100400000Y-92712423D01*
X103488189Y-92712423D01*
X103719837Y-92890430D01*
X103751741Y-92870729D01*
X103780853Y-92853895D01*
X103808313Y-92839740D01*
X103835260Y-92828077D01*
X103862833Y-92818720D01*
X103892174Y-92811483D01*
X103924421Y-92806179D01*
X103960714Y-92802622D01*
X103977613Y-92801808D01*
X104032986Y-92806731D01*
X104081446Y-92814883D01*
X104123958Y-92825994D01*
X104162578Y-92839888D01*
X104199360Y-92856391D01*
X104236362Y-92875328D01*
X104275638Y-92896525D01*
X104319243Y-92919807D01*
X104369234Y-92945000D01*
X104497126Y-92822012D01*
X104500000Y-92825000D01*
X104573534Y-92748534D01*
X104650000Y-92675000D01*
X104647012Y-92672126D01*
X104770000Y-92544234D01*
X104744807Y-92494243D01*
X104721525Y-92450638D01*
X104700328Y-92411362D01*
X104695990Y-92402885D01*
X104754000Y-92402885D01*
X104758475Y-92418124D01*
X104759865Y-92419329D01*
X104767548Y-92421000D01*
X105628000Y-92421000D01*
X105696121Y-92441002D01*
X105742614Y-92494658D01*
X105754000Y-92547000D01*
X105754000Y-92789128D01*
X105500000Y-92525000D01*
X105230000Y-92805766D01*
X105255192Y-92855756D01*
X105278474Y-92899361D01*
X105299671Y-92938637D01*
X105318608Y-92975639D01*
X105335111Y-93012421D01*
X105349005Y-93051041D01*
X105360116Y-93093553D01*
X105368268Y-93142013D01*
X105373288Y-93198477D01*
X105375000Y-93265000D01*
X105625000Y-93265000D01*
X105626711Y-93198477D01*
X105631731Y-93142013D01*
X105639883Y-93093553D01*
X105650994Y-93051041D01*
X105664888Y-93012421D01*
X105681391Y-92975639D01*
X105700328Y-92938637D01*
X105721525Y-92899361D01*
X105744807Y-92855756D01*
X105754000Y-92837515D01*
X105754000Y-93936878D01*
X105757973Y-93950409D01*
X105765871Y-93951544D01*
X105905790Y-93910893D01*
X105920225Y-93904646D01*
X106052132Y-93826638D01*
X106120948Y-93809179D01*
X106162653Y-93817940D01*
X106209923Y-93836655D01*
X106209925Y-93836656D01*
X106217453Y-93839636D01*
X106225491Y-93840609D01*
X106225492Y-93840609D01*
X106249561Y-93843522D01*
X106307228Y-93850500D01*
X106692772Y-93850500D01*
X106782547Y-93839636D01*
X106790076Y-93836655D01*
X106790080Y-93836654D01*
X106802118Y-93831888D01*
X106872818Y-93825409D01*
X106935798Y-93858182D01*
X106971061Y-93919803D01*
X106974500Y-93949040D01*
X106974500Y-94215565D01*
X106974389Y-94220841D01*
X106971913Y-94279919D01*
X106975970Y-94297215D01*
X106981337Y-94320097D01*
X106983500Y-94331770D01*
X106989099Y-94372646D01*
X106992510Y-94380527D01*
X106992510Y-94380529D01*
X106994595Y-94385347D01*
X107001627Y-94406610D01*
X107002069Y-94408493D01*
X107004790Y-94420093D01*
X107024681Y-94456275D01*
X107029888Y-94466905D01*
X107046280Y-94504783D01*
X107051686Y-94511459D01*
X107051687Y-94511461D01*
X107054992Y-94515542D01*
X107067480Y-94534126D01*
X107074153Y-94546263D01*
X107080836Y-94554005D01*
X107104040Y-94577209D01*
X107112865Y-94587009D01*
X107136888Y-94616675D01*
X107151144Y-94626806D01*
X107167244Y-94640413D01*
X108080330Y-95553499D01*
X108083882Y-95557198D01*
X108099132Y-95573743D01*
X108102619Y-95577688D01*
X108106946Y-95582795D01*
X108129138Y-95620945D01*
X108135901Y-95639425D01*
X108178582Y-95756057D01*
X108182819Y-95762363D01*
X108182821Y-95762366D01*
X108221412Y-95819794D01*
X108263022Y-95881716D01*
X108374998Y-95983607D01*
X108381675Y-95987232D01*
X108381676Y-95987233D01*
X108501370Y-96052222D01*
X108501372Y-96052223D01*
X108508047Y-96055847D01*
X108515396Y-96057775D01*
X108647136Y-96092336D01*
X108647138Y-96092336D01*
X108654486Y-96094264D01*
X108734562Y-96095522D01*
X108798266Y-96096523D01*
X108798269Y-96096523D01*
X108805863Y-96096642D01*
X108953437Y-96062843D01*
X109022332Y-96028193D01*
X109081906Y-95998231D01*
X109081909Y-95998229D01*
X109088689Y-95994819D01*
X109203810Y-95896495D01*
X109292156Y-95773550D01*
X109348624Y-95633080D01*
X109369956Y-95483196D01*
X109370094Y-95470000D01*
X109368047Y-95453080D01*
X109352818Y-95327241D01*
X109351906Y-95319701D01*
X109298392Y-95178080D01*
X109212640Y-95053311D01*
X109099603Y-94952599D01*
X109092897Y-94949048D01*
X109092895Y-94949047D01*
X108972515Y-94885310D01*
X108965805Y-94881757D01*
X108958443Y-94879908D01*
X108958441Y-94879907D01*
X108921791Y-94870701D01*
X108908250Y-94866476D01*
X108902915Y-94864476D01*
X108894033Y-94861145D01*
X108889846Y-94859489D01*
X108887340Y-94858444D01*
X108854360Y-94838272D01*
X108847672Y-94832605D01*
X108843759Y-94829147D01*
X108827213Y-94813897D01*
X108823539Y-94810369D01*
X108454416Y-94441246D01*
X108062405Y-94049236D01*
X108028380Y-93986923D01*
X108025500Y-93960140D01*
X108025500Y-93949040D01*
X108045502Y-93880919D01*
X108099158Y-93834426D01*
X108169432Y-93824322D01*
X108197882Y-93831888D01*
X108209920Y-93836654D01*
X108209924Y-93836655D01*
X108217453Y-93839636D01*
X108307228Y-93850500D01*
X108692772Y-93850500D01*
X108736527Y-93845205D01*
X108806557Y-93856878D01*
X108859159Y-93904559D01*
X108876903Y-93956465D01*
X108886554Y-94043883D01*
X108938582Y-94186057D01*
X108942819Y-94192363D01*
X108942821Y-94192366D01*
X108961956Y-94220841D01*
X109023022Y-94311716D01*
X109134998Y-94413607D01*
X109141675Y-94417232D01*
X109141676Y-94417233D01*
X109261370Y-94482222D01*
X109261372Y-94482223D01*
X109268047Y-94485847D01*
X109275396Y-94487775D01*
X109407136Y-94522336D01*
X109407138Y-94522336D01*
X109414486Y-94524264D01*
X109494562Y-94525522D01*
X109558266Y-94526523D01*
X109558269Y-94526523D01*
X109565863Y-94526642D01*
X109713437Y-94492843D01*
X109803730Y-94447431D01*
X109841906Y-94428231D01*
X109841909Y-94428229D01*
X109848689Y-94424819D01*
X109963810Y-94326495D01*
X110052156Y-94203550D01*
X110108624Y-94063080D01*
X110124344Y-93952629D01*
X110153745Y-93888006D01*
X110213417Y-93849538D01*
X110264224Y-93845296D01*
X110272556Y-93846304D01*
X110307228Y-93850500D01*
X110692772Y-93850500D01*
X110782547Y-93839636D01*
X110790075Y-93836656D01*
X110790077Y-93836655D01*
X110881975Y-93800270D01*
X110922783Y-93784113D01*
X110929624Y-93778921D01*
X110937111Y-93774702D01*
X110938765Y-93777637D01*
X110990184Y-93758072D01*
X111059656Y-93772706D01*
X111062855Y-93774762D01*
X111062889Y-93774702D01*
X111070376Y-93778921D01*
X111077217Y-93784113D01*
X111118025Y-93800270D01*
X111209923Y-93836655D01*
X111209925Y-93836656D01*
X111217453Y-93839636D01*
X111307228Y-93850500D01*
X111692772Y-93850500D01*
X111782547Y-93839636D01*
X111790075Y-93836656D01*
X111790077Y-93836655D01*
X111881975Y-93800270D01*
X111922783Y-93784113D01*
X112042922Y-93692922D01*
X112134113Y-93572783D01*
X112189636Y-93432547D01*
X112200500Y-93342772D01*
X112200500Y-92007228D01*
X112189636Y-91917453D01*
X112134113Y-91777217D01*
X112128920Y-91770375D01*
X112128918Y-91770372D01*
X112051138Y-91667901D01*
X112025884Y-91601548D01*
X112025500Y-91591721D01*
X112025500Y-89214425D01*
X112025611Y-89209148D01*
X112027727Y-89158666D01*
X112028087Y-89150081D01*
X112018665Y-89109908D01*
X112016502Y-89098239D01*
X112012066Y-89065861D01*
X112010901Y-89057354D01*
X112005403Y-89044649D01*
X111998369Y-89023380D01*
X111997171Y-89018271D01*
X111997170Y-89018269D01*
X111995209Y-89009907D01*
X111991071Y-89002381D01*
X111991070Y-89002377D01*
X111975330Y-88973747D01*
X111970114Y-88963102D01*
X111953720Y-88925217D01*
X111945009Y-88914460D01*
X111932515Y-88895867D01*
X111929029Y-88889525D01*
X111929028Y-88889524D01*
X111925847Y-88883737D01*
X111919164Y-88875995D01*
X111895960Y-88852791D01*
X111887134Y-88842990D01*
X111868518Y-88820001D01*
X111863112Y-88813325D01*
X111848856Y-88803194D01*
X111832756Y-88789587D01*
X111181805Y-88138636D01*
X111178152Y-88134827D01*
X111143934Y-88097615D01*
X111138116Y-88091288D01*
X111123906Y-88082477D01*
X111103045Y-88069543D01*
X111093262Y-88062819D01*
X111067240Y-88043067D01*
X111060396Y-88037872D01*
X111052409Y-88034710D01*
X111052406Y-88034708D01*
X111047517Y-88032772D01*
X111027516Y-88022713D01*
X111015750Y-88015418D01*
X110976119Y-88003904D01*
X110964895Y-88000060D01*
X110934516Y-87988033D01*
X110934513Y-87988032D01*
X110926528Y-87984871D01*
X110917991Y-87983974D01*
X110917984Y-87983972D01*
X110912761Y-87983423D01*
X110890784Y-87979112D01*
X110883822Y-87977089D01*
X110883820Y-87977089D01*
X110877488Y-87975249D01*
X110870673Y-87974749D01*
X110869596Y-87974669D01*
X110869583Y-87974669D01*
X110867288Y-87974500D01*
X110834461Y-87974500D01*
X110821290Y-87973810D01*
X110783338Y-87969821D01*
X110774872Y-87971253D01*
X110774869Y-87971253D01*
X110766102Y-87972736D01*
X110745090Y-87974500D01*
X106914425Y-87974500D01*
X106909148Y-87974389D01*
X106850081Y-87971913D01*
X106832890Y-87975945D01*
X106809908Y-87981335D01*
X106798238Y-87983498D01*
X106757354Y-87989099D01*
X106749474Y-87992509D01*
X106744649Y-87994597D01*
X106723380Y-88001631D01*
X106718271Y-88002829D01*
X106718269Y-88002830D01*
X106709907Y-88004791D01*
X106702381Y-88008929D01*
X106702377Y-88008930D01*
X106673747Y-88024670D01*
X106663102Y-88029886D01*
X106625217Y-88046280D01*
X106618540Y-88051687D01*
X106614460Y-88054991D01*
X106595870Y-88067483D01*
X106583737Y-88074153D01*
X106575995Y-88080836D01*
X106552791Y-88104040D01*
X106542991Y-88112865D01*
X106513325Y-88136888D01*
X106503194Y-88151144D01*
X106489587Y-88167244D01*
X106416492Y-88240339D01*
X106412791Y-88243893D01*
X106396265Y-88259125D01*
X106392341Y-88262593D01*
X106385638Y-88268274D01*
X106352642Y-88288451D01*
X106350165Y-88289483D01*
X106345958Y-88291148D01*
X106334482Y-88295451D01*
X106319662Y-88299990D01*
X106280367Y-88309424D01*
X106150413Y-88376498D01*
X106080707Y-88389967D01*
X106014783Y-88363612D01*
X105988785Y-88335900D01*
X105956943Y-88289571D01*
X105956940Y-88289568D01*
X105952640Y-88283311D01*
X105839603Y-88182599D01*
X105832897Y-88179048D01*
X105832895Y-88179047D01*
X105743059Y-88131482D01*
X105705805Y-88111757D01*
X105558972Y-88074874D01*
X105551374Y-88074834D01*
X105551372Y-88074834D01*
X105486775Y-88074496D01*
X105407579Y-88074082D01*
X105400200Y-88075854D01*
X105400196Y-88075854D01*
X105267746Y-88107652D01*
X105267742Y-88107653D01*
X105260367Y-88109424D01*
X105207393Y-88136766D01*
X105148343Y-88167244D01*
X105125835Y-88178861D01*
X105120113Y-88183853D01*
X105120111Y-88183854D01*
X105017474Y-88273390D01*
X105017471Y-88273393D01*
X105011749Y-88278385D01*
X104987488Y-88312905D01*
X104951851Y-88363612D01*
X104924696Y-88402249D01*
X104869702Y-88543302D01*
X104868711Y-88550830D01*
X104850074Y-88692389D01*
X104821351Y-88757316D01*
X104793577Y-88781744D01*
X104778030Y-88791798D01*
X104774000Y-88800691D01*
X104774000Y-91495717D01*
X104760478Y-91541771D01*
X104754000Y-91571548D01*
X104754000Y-92402885D01*
X104695990Y-92402885D01*
X104681391Y-92374360D01*
X104664888Y-92337578D01*
X104650994Y-92298958D01*
X104639883Y-92256446D01*
X104631731Y-92207986D01*
X104626711Y-92151522D01*
X104625000Y-92085000D01*
X104375000Y-92085000D01*
X104373288Y-92151522D01*
X104368268Y-92207986D01*
X104360116Y-92256446D01*
X104349005Y-92298958D01*
X104335111Y-92337578D01*
X104318608Y-92374360D01*
X104299671Y-92411362D01*
X104278474Y-92450638D01*
X104277487Y-92452487D01*
X104275638Y-92453474D01*
X104236362Y-92474671D01*
X104199360Y-92493608D01*
X104162578Y-92510111D01*
X104123958Y-92524005D01*
X104081446Y-92535116D01*
X104032986Y-92543268D01*
X103976522Y-92548288D01*
X103963685Y-92548618D01*
X103951377Y-92548261D01*
X103911468Y-92545878D01*
X103875935Y-92542300D01*
X103843357Y-92537387D01*
X103812315Y-92530999D01*
X103781389Y-92522997D01*
X103749160Y-92513241D01*
X103714207Y-92501591D01*
X103675112Y-92487908D01*
X103488189Y-92712423D01*
X100400000Y-92712423D01*
X100400000Y-92402885D01*
X103692000Y-92402885D01*
X103696475Y-92418124D01*
X103697865Y-92419329D01*
X103705548Y-92421000D01*
X104227885Y-92421000D01*
X104243124Y-92416525D01*
X104244329Y-92415135D01*
X104246000Y-92407452D01*
X104246000Y-91414283D01*
X104259522Y-91368229D01*
X104266000Y-91338452D01*
X104266000Y-90972115D01*
X104261525Y-90956876D01*
X104260135Y-90955671D01*
X104252452Y-90954000D01*
X103751576Y-90954000D01*
X103736781Y-90958344D01*
X103734937Y-90968775D01*
X103736688Y-90978359D01*
X103778357Y-91121784D01*
X103784604Y-91136220D01*
X103859876Y-91263499D01*
X103869516Y-91275926D01*
X103942424Y-91348834D01*
X103976450Y-91411146D01*
X103971385Y-91481961D01*
X103942424Y-91527025D01*
X103831547Y-91637901D01*
X103821911Y-91650322D01*
X103745352Y-91779779D01*
X103739107Y-91794210D01*
X103696731Y-91940065D01*
X103694430Y-91952667D01*
X103692193Y-91981084D01*
X103692000Y-91986014D01*
X103692000Y-92402885D01*
X100400000Y-92402885D01*
X100400000Y-90700000D01*
X103487500Y-90700000D01*
X103698075Y-90902500D01*
X103733115Y-90885739D01*
X103764697Y-90871383D01*
X103794090Y-90859281D01*
X103822560Y-90849281D01*
X103851375Y-90841234D01*
X103881803Y-90834987D01*
X103915112Y-90830391D01*
X103952569Y-90827295D01*
X103994973Y-90825567D01*
X104031776Y-90826403D01*
X104084414Y-90830555D01*
X104129760Y-90837365D01*
X104169658Y-90846746D01*
X104205953Y-90858606D01*
X104240490Y-90872859D01*
X104275113Y-90889413D01*
X104301809Y-90903119D01*
X104316304Y-90936813D01*
X104331308Y-90973957D01*
X104344264Y-91010806D01*
X104355076Y-91049342D01*
X104363651Y-91091547D01*
X104369893Y-91139403D01*
X104373707Y-91194893D01*
X104375000Y-91260000D01*
X104625000Y-91260000D01*
X104626413Y-91198734D01*
X104630638Y-91146445D01*
X104637650Y-91101370D01*
X104647423Y-91061744D01*
X104659932Y-91025805D01*
X104675154Y-90991790D01*
X104693062Y-90957934D01*
X104713633Y-90922475D01*
X104736842Y-90883649D01*
X104762663Y-90839693D01*
X104652392Y-90707316D01*
X104660000Y-90700000D01*
X104657211Y-90697318D01*
X104772000Y-90577951D01*
X104749073Y-90531999D01*
X104728181Y-90491668D01*
X104709413Y-90455113D01*
X104692859Y-90420490D01*
X104678606Y-90385953D01*
X104666746Y-90349658D01*
X104657365Y-90309760D01*
X104650555Y-90264414D01*
X104646403Y-90211776D01*
X104645000Y-90150000D01*
X104646403Y-90088223D01*
X104650555Y-90035585D01*
X104657365Y-89990239D01*
X104666746Y-89950341D01*
X104678606Y-89914046D01*
X104692859Y-89879509D01*
X104709413Y-89844886D01*
X104728181Y-89808331D01*
X104749073Y-89768000D01*
X104772000Y-89722049D01*
X104657211Y-89602682D01*
X104660000Y-89600000D01*
X104588632Y-89531368D01*
X104520000Y-89460000D01*
X104517318Y-89462789D01*
X104397951Y-89348000D01*
X104351999Y-89370926D01*
X104311668Y-89391818D01*
X104275113Y-89410586D01*
X104240490Y-89427140D01*
X104205953Y-89441393D01*
X104169658Y-89453253D01*
X104129760Y-89462634D01*
X104084414Y-89469444D01*
X104031776Y-89473596D01*
X103994982Y-89474432D01*
X103952569Y-89472704D01*
X103915112Y-89469608D01*
X103881803Y-89465012D01*
X103851375Y-89458765D01*
X103822560Y-89450718D01*
X103794090Y-89440718D01*
X103764697Y-89428616D01*
X103733115Y-89414260D01*
X103698075Y-89397500D01*
X103487500Y-89600000D01*
X103698075Y-89802500D01*
X103733115Y-89785739D01*
X103764697Y-89771383D01*
X103794090Y-89759281D01*
X103822560Y-89749281D01*
X103851375Y-89741234D01*
X103881803Y-89734987D01*
X103915112Y-89730391D01*
X103952569Y-89727295D01*
X103994973Y-89725567D01*
X104031776Y-89726403D01*
X104084414Y-89730555D01*
X104129760Y-89737365D01*
X104169658Y-89746746D01*
X104205953Y-89758606D01*
X104240490Y-89772859D01*
X104275113Y-89789413D01*
X104311668Y-89808181D01*
X104311767Y-89808232D01*
X104311818Y-89808331D01*
X104330586Y-89844886D01*
X104347140Y-89879509D01*
X104361393Y-89914046D01*
X104373253Y-89950341D01*
X104382634Y-89990239D01*
X104389444Y-90035585D01*
X104393596Y-90088223D01*
X104395000Y-90150000D01*
X104393596Y-90211776D01*
X104389444Y-90264414D01*
X104382634Y-90309760D01*
X104373253Y-90349658D01*
X104361393Y-90385953D01*
X104347140Y-90420490D01*
X104330586Y-90455113D01*
X104311818Y-90491668D01*
X104311767Y-90491767D01*
X104311668Y-90491818D01*
X104275113Y-90510586D01*
X104240490Y-90527140D01*
X104205953Y-90541393D01*
X104169658Y-90553253D01*
X104129760Y-90562634D01*
X104084414Y-90569444D01*
X104031776Y-90573596D01*
X103994982Y-90574432D01*
X103952569Y-90572704D01*
X103915112Y-90569608D01*
X103881803Y-90565012D01*
X103851375Y-90558765D01*
X103822560Y-90550718D01*
X103794090Y-90540718D01*
X103764697Y-90528616D01*
X103733115Y-90514260D01*
X103698075Y-90497500D01*
X103487500Y-90700000D01*
X100400000Y-90700000D01*
X100400000Y-89868775D01*
X103734937Y-89868775D01*
X103736688Y-89878359D01*
X103778357Y-90021784D01*
X103784605Y-90036222D01*
X103813961Y-90085860D01*
X103831421Y-90154677D01*
X103813961Y-90214140D01*
X103784605Y-90263778D01*
X103778357Y-90278216D01*
X103736688Y-90421641D01*
X103735232Y-90429609D01*
X103738052Y-90443031D01*
X103749513Y-90446000D01*
X104247885Y-90446000D01*
X104263124Y-90441525D01*
X104264329Y-90440135D01*
X104266000Y-90432452D01*
X104266000Y-89872115D01*
X104261525Y-89856876D01*
X104260135Y-89855671D01*
X104252452Y-89854000D01*
X103751576Y-89854000D01*
X103736781Y-89858344D01*
X103734937Y-89868775D01*
X100400000Y-89868775D01*
X100400000Y-89329609D01*
X103735232Y-89329609D01*
X103738052Y-89343031D01*
X103749513Y-89346000D01*
X104247885Y-89346000D01*
X104263124Y-89341525D01*
X104264329Y-89340135D01*
X104266000Y-89332452D01*
X104266000Y-88806442D01*
X104262027Y-88792911D01*
X104254129Y-88791776D01*
X104128216Y-88828357D01*
X104113780Y-88834604D01*
X103986501Y-88909876D01*
X103974074Y-88919516D01*
X103869516Y-89024074D01*
X103859876Y-89036501D01*
X103784604Y-89163780D01*
X103778357Y-89178216D01*
X103736688Y-89321641D01*
X103735232Y-89329609D01*
X100400000Y-89329609D01*
X100400000Y-86693410D01*
X100420002Y-86625289D01*
X100473658Y-86578796D01*
X100543932Y-86568692D01*
X100608512Y-86598186D01*
X100642743Y-86646006D01*
X100656084Y-86678861D01*
X100785006Y-86889241D01*
X100946557Y-87075741D01*
X101136399Y-87233351D01*
X101349433Y-87357838D01*
X101354253Y-87359678D01*
X101354258Y-87359681D01*
X101468547Y-87403323D01*
X101579939Y-87445859D01*
X101585007Y-87446890D01*
X101585010Y-87446891D01*
X101704587Y-87471219D01*
X101821726Y-87495052D01*
X101826899Y-87495242D01*
X101826902Y-87495242D01*
X102063136Y-87503904D01*
X102063140Y-87503904D01*
X102068300Y-87504093D01*
X102073420Y-87503437D01*
X102073422Y-87503437D01*
X102149703Y-87493665D01*
X102313041Y-87472741D01*
X102317990Y-87471256D01*
X102317996Y-87471255D01*
X102544424Y-87403323D01*
X102544423Y-87403323D01*
X102549374Y-87401838D01*
X102653266Y-87350942D01*
X102766303Y-87295566D01*
X102766308Y-87295563D01*
X102770954Y-87293287D01*
X102775164Y-87290284D01*
X102775169Y-87290281D01*
X102967617Y-87153009D01*
X102967622Y-87153005D01*
X102971829Y-87150004D01*
X103146605Y-86975837D01*
X103290588Y-86775463D01*
X103399911Y-86554264D01*
X103433045Y-86445207D01*
X103470135Y-86323132D01*
X103470136Y-86323126D01*
X103471639Y-86318180D01*
X103503845Y-86073550D01*
X103505643Y-86000000D01*
X103497660Y-85902906D01*
X103485849Y-85759240D01*
X103485848Y-85759234D01*
X103485425Y-85754089D01*
X103425316Y-85514783D01*
X103364629Y-85375213D01*
X103328993Y-85293256D01*
X103328993Y-85293255D01*
X103326928Y-85288507D01*
X103192905Y-85081339D01*
X103166635Y-85052468D01*
X103073397Y-84950001D01*
X103026846Y-84898842D01*
X103022795Y-84895643D01*
X103022791Y-84895639D01*
X102837264Y-84749119D01*
X102837259Y-84749116D01*
X102833210Y-84745918D01*
X102828695Y-84743425D01*
X102828682Y-84743417D01*
X102634654Y-84636308D01*
X102584684Y-84585876D01*
X102569912Y-84516433D01*
X102595028Y-84450028D01*
X102652059Y-84407743D01*
X102695548Y-84400000D01*
X113308876Y-84400000D01*
X113376997Y-84420002D01*
G37*
G04 #@! TD.AperFunction*
G04 #@! TA.AperFunction,Conductor*
G36*
X106318473Y-89499076D02*
G01*
X106407136Y-89522336D01*
X106407138Y-89522336D01*
X106414486Y-89524264D01*
X106494562Y-89525522D01*
X106558266Y-89526523D01*
X106558269Y-89526523D01*
X106565863Y-89526642D01*
X106573267Y-89524946D01*
X106573269Y-89524946D01*
X106580055Y-89523392D01*
X106650922Y-89527684D01*
X106708219Y-89569608D01*
X106712759Y-89575933D01*
X106792672Y-89694855D01*
X106904648Y-89796746D01*
X106911325Y-89800371D01*
X106911326Y-89800372D01*
X107031020Y-89865361D01*
X107031022Y-89865362D01*
X107037697Y-89868986D01*
X107045046Y-89870914D01*
X107176786Y-89905475D01*
X107176788Y-89905475D01*
X107184136Y-89907403D01*
X107264212Y-89908661D01*
X107327916Y-89909662D01*
X107327919Y-89909662D01*
X107335513Y-89909781D01*
X107483087Y-89875982D01*
X107568140Y-89833204D01*
X107570349Y-89832122D01*
X107570834Y-89831890D01*
X107572933Y-89830913D01*
X107591249Y-89822588D01*
X107595395Y-89820792D01*
X107597876Y-89819770D01*
X107635481Y-89810702D01*
X107642233Y-89810144D01*
X107644217Y-89809980D01*
X107649453Y-89809656D01*
X107666926Y-89808944D01*
X107671859Y-89808743D01*
X107676987Y-89808639D01*
X107813279Y-89808639D01*
X107881400Y-89828641D01*
X107902376Y-89845545D01*
X107937597Y-89880767D01*
X107971621Y-89943080D01*
X107974500Y-89969861D01*
X107974500Y-91400960D01*
X107954498Y-91469081D01*
X107900842Y-91515574D01*
X107830568Y-91525678D01*
X107802118Y-91518112D01*
X107790080Y-91513346D01*
X107790076Y-91513345D01*
X107782547Y-91510364D01*
X107692772Y-91499500D01*
X107307228Y-91499500D01*
X107217453Y-91510364D01*
X107129890Y-91545032D01*
X107059193Y-91551511D01*
X106996213Y-91518739D01*
X106967874Y-91477924D01*
X106953720Y-91445217D01*
X106945008Y-91434458D01*
X106932520Y-91415874D01*
X106925847Y-91403737D01*
X106919165Y-91395995D01*
X106895956Y-91372786D01*
X106887130Y-91362985D01*
X106868517Y-91339999D01*
X106868515Y-91339997D01*
X106863112Y-91333325D01*
X106856110Y-91328349D01*
X106856107Y-91328346D01*
X106848865Y-91323199D01*
X106832760Y-91309590D01*
X106229162Y-90705993D01*
X106227160Y-90703945D01*
X106214564Y-90690763D01*
X106214551Y-90690751D01*
X106213972Y-90690145D01*
X106209249Y-90684916D01*
X106196554Y-90670047D01*
X106191035Y-90663102D01*
X106189556Y-90661100D01*
X106172088Y-90628180D01*
X106167687Y-90615715D01*
X106160499Y-90573766D01*
X106160499Y-90488006D01*
X106154707Y-90440135D01*
X106150805Y-90407893D01*
X106149833Y-90399860D01*
X106095319Y-90262172D01*
X106067999Y-90226179D01*
X106042746Y-90159826D01*
X106057375Y-90090353D01*
X106067999Y-90073821D01*
X106090127Y-90044668D01*
X106095319Y-90037828D01*
X106149833Y-89900140D01*
X106160500Y-89811995D01*
X106160500Y-89620952D01*
X106180502Y-89552831D01*
X106234158Y-89506338D01*
X106304432Y-89496234D01*
X106318473Y-89499076D01*
G37*
G04 #@! TD.AperFunction*
G04 #@! TA.AperFunction,Conductor*
G36*
X110598261Y-89045502D02*
G01*
X110619236Y-89062405D01*
X110937596Y-89380766D01*
X110971621Y-89443078D01*
X110974500Y-89469861D01*
X110974500Y-89847140D01*
X110954498Y-89915261D01*
X110900842Y-89961754D01*
X110830568Y-89971858D01*
X110765988Y-89942364D01*
X110759405Y-89936235D01*
X110749651Y-89926481D01*
X110746100Y-89922783D01*
X110730879Y-89906270D01*
X110727398Y-89902332D01*
X110724088Y-89898426D01*
X110703933Y-89858935D01*
X110701906Y-89859701D01*
X110651076Y-89725182D01*
X110651075Y-89725179D01*
X110648392Y-89718080D01*
X110562640Y-89593311D01*
X110449603Y-89492599D01*
X110442897Y-89489048D01*
X110442895Y-89489047D01*
X110382704Y-89457178D01*
X110315805Y-89421757D01*
X110168972Y-89384874D01*
X110161374Y-89384834D01*
X110161372Y-89384834D01*
X110096775Y-89384496D01*
X110017579Y-89384082D01*
X110010200Y-89385854D01*
X110010196Y-89385854D01*
X109877746Y-89417652D01*
X109877742Y-89417653D01*
X109870367Y-89419424D01*
X109735835Y-89488861D01*
X109730113Y-89493853D01*
X109730111Y-89493854D01*
X109627474Y-89583390D01*
X109627471Y-89583393D01*
X109621749Y-89588385D01*
X109598861Y-89620952D01*
X109546921Y-89694855D01*
X109534696Y-89712249D01*
X109479702Y-89853302D01*
X109477665Y-89868775D01*
X109464094Y-89971858D01*
X109459941Y-90003402D01*
X109476554Y-90153883D01*
X109528582Y-90296057D01*
X109532819Y-90302363D01*
X109532821Y-90302366D01*
X109571412Y-90359794D01*
X109613022Y-90421716D01*
X109724998Y-90523607D01*
X109731675Y-90527232D01*
X109731676Y-90527233D01*
X109851370Y-90592222D01*
X109851372Y-90592223D01*
X109858047Y-90595847D01*
X109879096Y-90601369D01*
X109880472Y-90601730D01*
X109941288Y-90638362D01*
X109972644Y-90702059D01*
X109974500Y-90723606D01*
X109974500Y-91400960D01*
X109954498Y-91469081D01*
X109900842Y-91515574D01*
X109830568Y-91525678D01*
X109802118Y-91518112D01*
X109790080Y-91513346D01*
X109790076Y-91513345D01*
X109782547Y-91510364D01*
X109692772Y-91499500D01*
X109307228Y-91499500D01*
X109217453Y-91510364D01*
X109209924Y-91513345D01*
X109209920Y-91513346D01*
X109197882Y-91518112D01*
X109127182Y-91524591D01*
X109064202Y-91491818D01*
X109028939Y-91430197D01*
X109025500Y-91400960D01*
X109025500Y-89714425D01*
X109025611Y-89709148D01*
X109027727Y-89658666D01*
X109028087Y-89650081D01*
X109018665Y-89609908D01*
X109016502Y-89598239D01*
X109014468Y-89583390D01*
X109010901Y-89557354D01*
X109005403Y-89544649D01*
X108998369Y-89523380D01*
X108997171Y-89518271D01*
X108997170Y-89518269D01*
X108995209Y-89509907D01*
X108991071Y-89502381D01*
X108991070Y-89502377D01*
X108975330Y-89473747D01*
X108970114Y-89463102D01*
X108953720Y-89425217D01*
X108945009Y-89414460D01*
X108932515Y-89395867D01*
X108929029Y-89389525D01*
X108929028Y-89389524D01*
X108925847Y-89383737D01*
X108919164Y-89375995D01*
X108895960Y-89352791D01*
X108887134Y-89342990D01*
X108868518Y-89320001D01*
X108863112Y-89313325D01*
X108848856Y-89303194D01*
X108832756Y-89289587D01*
X108783764Y-89240595D01*
X108749738Y-89178283D01*
X108754803Y-89107468D01*
X108797350Y-89050632D01*
X108863870Y-89025821D01*
X108872859Y-89025500D01*
X110530140Y-89025500D01*
X110598261Y-89045502D01*
G37*
G04 #@! TD.AperFunction*
M02*
