G04 #@! TF.GenerationSoftware,KiCad,Pcbnew,(6.0.0)*
G04 #@! TF.CreationDate,2022-01-16T21:37:01+08:00*
G04 #@! TF.ProjectId,bldc_motor_encoder,626c6463-5f6d-46f7-946f-725f656e636f,rev?*
G04 #@! TF.SameCoordinates,Original*
G04 #@! TF.FileFunction,Legend,Bot*
G04 #@! TF.FilePolarity,Positive*
%FSLAX46Y46*%
G04 Gerber Fmt 4.6, Leading zero omitted, Abs format (unit mm)*
G04 Created by KiCad (PCBNEW (6.0.0)) date 2022-01-16 21:37:01*
%MOMM*%
%LPD*%
G01*
G04 APERTURE LIST*
G04 Aperture macros list*
%AMRoundRect*
0 Rectangle with rounded corners*
0 $1 Rounding radius*
0 $2 $3 $4 $5 $6 $7 $8 $9 X,Y pos of 4 corners*
0 Add a 4 corners polygon primitive as box body*
4,1,4,$2,$3,$4,$5,$6,$7,$8,$9,$2,$3,0*
0 Add four circle primitives for the rounded corners*
1,1,$1+$1,$2,$3*
1,1,$1+$1,$4,$5*
1,1,$1+$1,$6,$7*
1,1,$1+$1,$8,$9*
0 Add four rect primitives between the rounded corners*
20,1,$1+$1,$2,$3,$4,$5,0*
20,1,$1+$1,$4,$5,$6,$7,0*
20,1,$1+$1,$6,$7,$8,$9,0*
20,1,$1+$1,$8,$9,$2,$3,0*%
G04 Aperture macros list end*
%ADD10C,0.200000*%
%ADD11C,0.150000*%
%ADD12C,0.070000*%
%ADD13C,0.120000*%
%ADD14C,1.000000*%
%ADD15RoundRect,0.140000X0.140000X0.170000X-0.140000X0.170000X-0.140000X-0.170000X0.140000X-0.170000X0*%
%ADD16C,2.200000*%
%ADD17R,1.450000X1.450000*%
%ADD18RoundRect,0.062500X-0.062500X-0.375000X0.062500X-0.375000X0.062500X0.375000X-0.062500X0.375000X0*%
%ADD19RoundRect,0.062500X-0.375000X-0.062500X0.375000X-0.062500X0.375000X0.062500X-0.375000X0.062500X0*%
G04 APERTURE END LIST*
D10*
X110190476Y-88452380D02*
X110190476Y-87452380D01*
X109857142Y-88166666D01*
X109523809Y-87452380D01*
X109523809Y-88452380D01*
X109095238Y-88166666D02*
X108619047Y-88166666D01*
X109190476Y-88452380D02*
X108857142Y-87452380D01*
X108523809Y-88452380D01*
X108285714Y-87452380D02*
X107619047Y-87452380D01*
X108047619Y-88452380D01*
X107333333Y-87452380D02*
X106714285Y-87452380D01*
X107047619Y-87833333D01*
X106904761Y-87833333D01*
X106809523Y-87880952D01*
X106761904Y-87928571D01*
X106714285Y-88023809D01*
X106714285Y-88261904D01*
X106761904Y-88357142D01*
X106809523Y-88404761D01*
X106904761Y-88452380D01*
X107190476Y-88452380D01*
X107285714Y-88404761D01*
X107333333Y-88357142D01*
X106095238Y-87452380D02*
X106000000Y-87452380D01*
X105904761Y-87500000D01*
X105857142Y-87547619D01*
X105809523Y-87642857D01*
X105761904Y-87833333D01*
X105761904Y-88071428D01*
X105809523Y-88261904D01*
X105857142Y-88357142D01*
X105904761Y-88404761D01*
X106000000Y-88452380D01*
X106095238Y-88452380D01*
X106190476Y-88404761D01*
X106238095Y-88357142D01*
X106285714Y-88261904D01*
X106333333Y-88071428D01*
X106333333Y-87833333D01*
X106285714Y-87642857D01*
X106238095Y-87547619D01*
X106190476Y-87500000D01*
X106095238Y-87452380D01*
D11*
X107466668Y-95304380D02*
X106800001Y-95304380D01*
X107466668Y-96304380D01*
X106800001Y-96304380D01*
X105361906Y-96304380D02*
X105361906Y-95304380D01*
X104980954Y-95304380D01*
X104885716Y-95352000D01*
X104838097Y-95399619D01*
X104790478Y-95494857D01*
X104790478Y-95637714D01*
X104838097Y-95732952D01*
X104885716Y-95780571D01*
X104980954Y-95828190D01*
X105361906Y-95828190D01*
X109095239Y-95780571D02*
X108952382Y-95828190D01*
X108904763Y-95875809D01*
X108857144Y-95971047D01*
X108857144Y-96113904D01*
X108904763Y-96209142D01*
X108952382Y-96256761D01*
X109047620Y-96304380D01*
X109428572Y-96304380D01*
X109428572Y-95304380D01*
X109095239Y-95304380D01*
X109000001Y-95352000D01*
X108952382Y-95399619D01*
X108904763Y-95494857D01*
X108904763Y-95590095D01*
X108952382Y-95685333D01*
X109000001Y-95732952D01*
X109095239Y-95780571D01*
X109428572Y-95780571D01*
X111438096Y-96018666D02*
X110961905Y-96018666D01*
X111533334Y-96304380D02*
X111200001Y-95304380D01*
X110866667Y-96304380D01*
D12*
X106343333Y-94888571D02*
X106367142Y-94912380D01*
X106438571Y-94936190D01*
X106486190Y-94936190D01*
X106557619Y-94912380D01*
X106605238Y-94864761D01*
X106629047Y-94817142D01*
X106652857Y-94721904D01*
X106652857Y-94650476D01*
X106629047Y-94555238D01*
X106605238Y-94507619D01*
X106557619Y-94460000D01*
X106486190Y-94436190D01*
X106438571Y-94436190D01*
X106367142Y-94460000D01*
X106343333Y-94483809D01*
X106152857Y-94483809D02*
X106129047Y-94460000D01*
X106081428Y-94436190D01*
X105962380Y-94436190D01*
X105914761Y-94460000D01*
X105890952Y-94483809D01*
X105867142Y-94531428D01*
X105867142Y-94579047D01*
X105890952Y-94650476D01*
X106176666Y-94936190D01*
X105867142Y-94936190D01*
D13*
X107833335Y-97300000D02*
G75*
G03*
X107833335Y-97300000I-700000J0D01*
G01*
X105800002Y-97300000D02*
G75*
G03*
X105800002Y-97300000I-700000J0D01*
G01*
X109866668Y-97300000D02*
G75*
G03*
X109866668Y-97300000I-700000J0D01*
G01*
X111900001Y-97300000D02*
G75*
G03*
X111900001Y-97300000I-700000J0D01*
G01*
X108367836Y-95070000D02*
X108152164Y-95070000D01*
X108367836Y-94350000D02*
X108152164Y-94350000D01*
X106865000Y-93610000D02*
X106390000Y-93610000D01*
X109610000Y-90390000D02*
X109610000Y-90865000D01*
X109135000Y-90390000D02*
X109610000Y-90390000D01*
X106390000Y-90390000D02*
X106390000Y-90865000D01*
X106865000Y-90390000D02*
X106390000Y-90390000D01*
X109610000Y-93610000D02*
X109610000Y-93135000D01*
X109135000Y-93610000D02*
X109610000Y-93610000D01*
%LPC*%
D14*
X107133335Y-97300000D03*
X105100002Y-97300000D03*
X109166668Y-97300000D03*
X111200001Y-97300000D03*
D15*
X107780000Y-94710000D03*
X108740000Y-94710000D03*
D16*
X102000000Y-86000000D03*
X102000000Y-98000000D03*
X114000000Y-98000000D03*
X114000000Y-86000000D03*
D17*
X108000000Y-92000000D03*
D18*
X107250000Y-93437500D03*
X107750000Y-93437500D03*
X108250000Y-93437500D03*
X108750000Y-93437500D03*
D19*
X109437500Y-92750000D03*
X109437500Y-92250000D03*
X109437500Y-91750000D03*
X109437500Y-91250000D03*
D18*
X108750000Y-90562500D03*
X108250000Y-90562500D03*
X107750000Y-90562500D03*
X107250000Y-90562500D03*
D19*
X106562500Y-91250000D03*
X106562500Y-91750000D03*
X106562500Y-92250000D03*
X106562500Y-92750000D03*
M02*
