G04 #@! TF.GenerationSoftware,KiCad,Pcbnew,(6.0.0)*
G04 #@! TF.CreationDate,2022-01-16T21:37:01+08:00*
G04 #@! TF.ProjectId,bldc_motor_encoder,626c6463-5f6d-46f7-946f-725f656e636f,rev?*
G04 #@! TF.SameCoordinates,Original*
G04 #@! TF.FileFunction,Copper,L3,Inr*
G04 #@! TF.FilePolarity,Positive*
%FSLAX46Y46*%
G04 Gerber Fmt 4.6, Leading zero omitted, Abs format (unit mm)*
G04 Created by KiCad (PCBNEW (6.0.0)) date 2022-01-16 21:37:01*
%MOMM*%
%LPD*%
G01*
G04 APERTURE LIST*
G04 #@! TA.AperFunction,ComponentPad*
%ADD10C,2.200000*%
G04 #@! TD*
G04 #@! TA.AperFunction,ViaPad*
%ADD11C,0.450000*%
G04 #@! TD*
G04 APERTURE END LIST*
D10*
X102000000Y-86000000D03*
X102000000Y-98000000D03*
X114000000Y-98000000D03*
X114000000Y-86000000D03*
D11*
X108740000Y-95470000D03*
X105480000Y-88700000D03*
X104800000Y-95290000D03*
X111200000Y-98410000D03*
X107970000Y-91500000D03*
X105510000Y-94120000D03*
X106980000Y-94710000D03*
X109410000Y-90560000D03*
X107269650Y-89283139D03*
X109500000Y-93900000D03*
X110090000Y-90010000D03*
X106500000Y-88900000D03*
X103600000Y-92700000D03*
X103600000Y-90700000D03*
X103600000Y-89600000D03*
G04 #@! TA.AperFunction,Conductor*
G36*
X113376997Y-84420002D02*
G01*
X113423490Y-84473658D01*
X113433594Y-84543932D01*
X113404100Y-84608512D01*
X113367057Y-84637762D01*
X113197679Y-84725935D01*
X113193546Y-84729038D01*
X113193543Y-84729040D01*
X113096419Y-84801963D01*
X113000364Y-84874083D01*
X112829896Y-85052468D01*
X112826982Y-85056740D01*
X112826981Y-85056741D01*
X112773988Y-85134426D01*
X112690851Y-85256300D01*
X112586965Y-85480104D01*
X112521026Y-85717871D01*
X112494806Y-85963214D01*
X112509010Y-86209545D01*
X112510147Y-86214591D01*
X112510148Y-86214597D01*
X112532336Y-86313051D01*
X112563255Y-86450249D01*
X112656084Y-86678861D01*
X112785006Y-86889241D01*
X112946557Y-87075741D01*
X113136399Y-87233351D01*
X113349433Y-87357838D01*
X113354253Y-87359678D01*
X113354258Y-87359681D01*
X113468547Y-87403323D01*
X113579939Y-87445859D01*
X113585007Y-87446890D01*
X113585010Y-87446891D01*
X113704587Y-87471219D01*
X113821726Y-87495052D01*
X113826899Y-87495242D01*
X113826902Y-87495242D01*
X114063136Y-87503904D01*
X114063140Y-87503904D01*
X114068300Y-87504093D01*
X114073420Y-87503437D01*
X114073422Y-87503437D01*
X114149703Y-87493665D01*
X114313041Y-87472741D01*
X114317990Y-87471256D01*
X114317996Y-87471255D01*
X114544424Y-87403323D01*
X114544423Y-87403323D01*
X114549374Y-87401838D01*
X114653266Y-87350942D01*
X114766303Y-87295566D01*
X114766308Y-87295563D01*
X114770954Y-87293287D01*
X114775164Y-87290284D01*
X114775169Y-87290281D01*
X114967617Y-87153009D01*
X114967622Y-87153005D01*
X114971829Y-87150004D01*
X115146605Y-86975837D01*
X115290588Y-86775463D01*
X115340702Y-86674066D01*
X115361043Y-86632908D01*
X115409157Y-86580701D01*
X115477858Y-86562794D01*
X115545334Y-86584872D01*
X115590162Y-86639926D01*
X115600000Y-86688735D01*
X115600000Y-97310762D01*
X115579998Y-97378883D01*
X115526342Y-97425376D01*
X115456068Y-97435480D01*
X115391488Y-97405986D01*
X115358452Y-97361006D01*
X115326928Y-97288507D01*
X115192905Y-97081339D01*
X115166635Y-97052468D01*
X115140243Y-97023464D01*
X115026846Y-96898842D01*
X115022795Y-96895643D01*
X115022791Y-96895639D01*
X114837264Y-96749119D01*
X114837259Y-96749116D01*
X114833210Y-96745918D01*
X114828694Y-96743425D01*
X114828691Y-96743423D01*
X114621722Y-96629170D01*
X114621718Y-96629168D01*
X114617198Y-96626673D01*
X114612329Y-96624949D01*
X114612325Y-96624947D01*
X114389485Y-96546035D01*
X114389481Y-96546034D01*
X114384610Y-96544309D01*
X114379517Y-96543402D01*
X114379514Y-96543401D01*
X114146783Y-96501945D01*
X114146777Y-96501944D01*
X114141694Y-96501039D01*
X114062324Y-96500069D01*
X113900142Y-96498088D01*
X113900140Y-96498088D01*
X113894972Y-96498025D01*
X113651070Y-96535347D01*
X113416540Y-96612003D01*
X113197679Y-96725935D01*
X113193546Y-96729038D01*
X113193543Y-96729040D01*
X113004499Y-96870978D01*
X113000364Y-96874083D01*
X112829896Y-97052468D01*
X112826982Y-97056740D01*
X112826981Y-97056741D01*
X112807238Y-97085683D01*
X112690851Y-97256300D01*
X112675901Y-97288507D01*
X112607679Y-97435480D01*
X112586965Y-97480104D01*
X112521026Y-97717871D01*
X112494806Y-97963214D01*
X112495103Y-97968366D01*
X112495103Y-97968370D01*
X112496734Y-97996647D01*
X112509010Y-98209545D01*
X112510147Y-98214591D01*
X112510148Y-98214597D01*
X112522012Y-98267241D01*
X112563255Y-98450249D01*
X112656084Y-98678861D01*
X112785006Y-98889241D01*
X112946557Y-99075741D01*
X113136399Y-99233351D01*
X113201451Y-99271365D01*
X113344967Y-99355229D01*
X113344974Y-99355232D01*
X113349433Y-99357838D01*
X113354262Y-99359682D01*
X113355698Y-99360370D01*
X113408488Y-99407844D01*
X113427232Y-99476321D01*
X113405978Y-99544062D01*
X113351475Y-99589558D01*
X113301253Y-99600000D01*
X102688475Y-99600000D01*
X102620354Y-99579998D01*
X102573861Y-99526342D01*
X102563757Y-99456068D01*
X102593251Y-99391488D01*
X102633043Y-99360849D01*
X102766303Y-99295566D01*
X102766308Y-99295563D01*
X102770954Y-99293287D01*
X102775164Y-99290284D01*
X102775169Y-99290281D01*
X102967617Y-99153009D01*
X102967622Y-99153005D01*
X102971829Y-99150004D01*
X103146605Y-98975837D01*
X103181531Y-98927233D01*
X103287570Y-98779663D01*
X103290588Y-98775463D01*
X103399911Y-98554264D01*
X103439733Y-98423196D01*
X103445747Y-98403402D01*
X110569941Y-98403402D01*
X110586554Y-98553883D01*
X110638582Y-98696057D01*
X110642819Y-98702363D01*
X110642821Y-98702366D01*
X110661881Y-98730729D01*
X110723022Y-98821716D01*
X110834998Y-98923607D01*
X110841675Y-98927232D01*
X110841676Y-98927233D01*
X110961370Y-98992222D01*
X110961372Y-98992223D01*
X110968047Y-98995847D01*
X110975396Y-98997775D01*
X111107136Y-99032336D01*
X111107138Y-99032336D01*
X111114486Y-99034264D01*
X111194562Y-99035522D01*
X111258266Y-99036523D01*
X111258269Y-99036523D01*
X111265863Y-99036642D01*
X111413437Y-99002843D01*
X111480731Y-98968998D01*
X111541906Y-98938231D01*
X111541909Y-98938229D01*
X111548689Y-98934819D01*
X111663810Y-98836495D01*
X111730485Y-98743708D01*
X111747724Y-98719718D01*
X111747725Y-98719717D01*
X111752156Y-98713550D01*
X111808624Y-98573080D01*
X111829956Y-98423196D01*
X111830094Y-98410000D01*
X111811906Y-98259701D01*
X111792954Y-98209545D01*
X111761076Y-98125182D01*
X111761075Y-98125179D01*
X111758392Y-98118080D01*
X111672640Y-97993311D01*
X111559603Y-97892599D01*
X111552897Y-97889048D01*
X111552895Y-97889047D01*
X111492704Y-97857178D01*
X111425805Y-97821757D01*
X111278972Y-97784874D01*
X111271374Y-97784834D01*
X111271372Y-97784834D01*
X111206775Y-97784496D01*
X111127579Y-97784082D01*
X111120200Y-97785854D01*
X111120196Y-97785854D01*
X110987746Y-97817652D01*
X110987742Y-97817653D01*
X110980367Y-97819424D01*
X110845835Y-97888861D01*
X110840113Y-97893853D01*
X110840111Y-97893854D01*
X110737474Y-97983390D01*
X110737471Y-97983393D01*
X110731749Y-97988385D01*
X110723891Y-97999566D01*
X110674251Y-98070197D01*
X110644696Y-98112249D01*
X110589702Y-98253302D01*
X110569941Y-98403402D01*
X103445747Y-98403402D01*
X103470135Y-98323132D01*
X103470136Y-98323126D01*
X103471639Y-98318180D01*
X103503845Y-98073550D01*
X103505643Y-98000000D01*
X103496219Y-97885378D01*
X103485849Y-97759240D01*
X103485848Y-97759234D01*
X103485425Y-97754089D01*
X103425316Y-97514783D01*
X103326928Y-97288507D01*
X103192905Y-97081339D01*
X103166635Y-97052468D01*
X103140243Y-97023464D01*
X103026846Y-96898842D01*
X103022795Y-96895643D01*
X103022791Y-96895639D01*
X102837264Y-96749119D01*
X102837259Y-96749116D01*
X102833210Y-96745918D01*
X102828694Y-96743425D01*
X102828691Y-96743423D01*
X102621722Y-96629170D01*
X102621718Y-96629168D01*
X102617198Y-96626673D01*
X102612329Y-96624949D01*
X102612325Y-96624947D01*
X102389485Y-96546035D01*
X102389481Y-96546034D01*
X102384610Y-96544309D01*
X102379517Y-96543402D01*
X102379514Y-96543401D01*
X102146783Y-96501945D01*
X102146777Y-96501944D01*
X102141694Y-96501039D01*
X102062324Y-96500069D01*
X101900142Y-96498088D01*
X101900140Y-96498088D01*
X101894972Y-96498025D01*
X101651070Y-96535347D01*
X101416540Y-96612003D01*
X101197679Y-96725935D01*
X101193546Y-96729038D01*
X101193543Y-96729040D01*
X101004499Y-96870978D01*
X101000364Y-96874083D01*
X100829896Y-97052468D01*
X100826982Y-97056740D01*
X100826981Y-97056741D01*
X100807238Y-97085683D01*
X100690851Y-97256300D01*
X100675901Y-97288507D01*
X100640288Y-97365229D01*
X100593464Y-97418596D01*
X100525220Y-97438177D01*
X100457225Y-97417753D01*
X100411065Y-97363811D01*
X100400000Y-97312179D01*
X100400000Y-95283402D01*
X104169941Y-95283402D01*
X104186554Y-95433883D01*
X104238582Y-95576057D01*
X104242819Y-95582363D01*
X104242821Y-95582366D01*
X104281412Y-95639794D01*
X104323022Y-95701716D01*
X104434998Y-95803607D01*
X104441675Y-95807232D01*
X104441676Y-95807233D01*
X104561370Y-95872222D01*
X104561372Y-95872223D01*
X104568047Y-95875847D01*
X104575396Y-95877775D01*
X104707136Y-95912336D01*
X104707138Y-95912336D01*
X104714486Y-95914264D01*
X104794562Y-95915522D01*
X104858266Y-95916523D01*
X104858269Y-95916523D01*
X104865863Y-95916642D01*
X105013437Y-95882843D01*
X105080731Y-95848998D01*
X105141906Y-95818231D01*
X105141909Y-95818229D01*
X105148689Y-95814819D01*
X105263810Y-95716495D01*
X105352156Y-95593550D01*
X105408624Y-95453080D01*
X105429956Y-95303196D01*
X105430094Y-95290000D01*
X105411906Y-95139701D01*
X105402727Y-95115410D01*
X105361076Y-95005182D01*
X105361075Y-95005179D01*
X105358392Y-94998080D01*
X105354093Y-94991826D01*
X105354090Y-94991819D01*
X105319596Y-94941631D01*
X105297495Y-94874162D01*
X105315380Y-94805455D01*
X105367571Y-94757324D01*
X105425414Y-94744279D01*
X105568265Y-94746523D01*
X105568268Y-94746523D01*
X105575863Y-94746642D01*
X105723437Y-94712843D01*
X105742209Y-94703402D01*
X106349941Y-94703402D01*
X106366554Y-94853883D01*
X106418582Y-94996057D01*
X106422819Y-95002363D01*
X106422821Y-95002366D01*
X106461412Y-95059794D01*
X106503022Y-95121716D01*
X106614998Y-95223607D01*
X106621675Y-95227232D01*
X106621676Y-95227233D01*
X106741370Y-95292222D01*
X106741372Y-95292223D01*
X106748047Y-95295847D01*
X106755396Y-95297775D01*
X106887136Y-95332336D01*
X106887138Y-95332336D01*
X106894486Y-95334264D01*
X106974562Y-95335522D01*
X107038266Y-95336523D01*
X107038269Y-95336523D01*
X107045863Y-95336642D01*
X107193437Y-95302843D01*
X107260731Y-95268998D01*
X107321906Y-95238231D01*
X107321909Y-95238229D01*
X107328689Y-95234819D01*
X107443810Y-95136495D01*
X107532156Y-95013550D01*
X107588624Y-94873080D01*
X107609956Y-94723196D01*
X107610094Y-94710000D01*
X107609592Y-94705847D01*
X107601610Y-94639888D01*
X107591906Y-94559701D01*
X107578773Y-94524946D01*
X107541076Y-94425182D01*
X107541075Y-94425179D01*
X107538392Y-94418080D01*
X107452640Y-94293311D01*
X107339603Y-94192599D01*
X107332897Y-94189048D01*
X107332895Y-94189047D01*
X107235117Y-94137277D01*
X107205805Y-94121757D01*
X107058972Y-94084874D01*
X107051374Y-94084834D01*
X107051372Y-94084834D01*
X106986775Y-94084496D01*
X106907579Y-94084082D01*
X106900200Y-94085854D01*
X106900196Y-94085854D01*
X106767746Y-94117652D01*
X106767742Y-94117653D01*
X106760367Y-94119424D01*
X106625835Y-94188861D01*
X106620113Y-94193853D01*
X106620111Y-94193854D01*
X106517474Y-94283390D01*
X106517471Y-94283393D01*
X106511749Y-94288385D01*
X106424696Y-94412249D01*
X106369702Y-94553302D01*
X106368711Y-94560831D01*
X106355118Y-94664082D01*
X106349941Y-94703402D01*
X105742209Y-94703402D01*
X105790731Y-94678998D01*
X105851906Y-94648231D01*
X105851909Y-94648229D01*
X105858689Y-94644819D01*
X105973810Y-94546495D01*
X106062156Y-94423550D01*
X106118624Y-94283080D01*
X106139956Y-94133196D01*
X106140028Y-94126354D01*
X106140051Y-94124121D01*
X106140051Y-94124120D01*
X106140094Y-94120000D01*
X106135839Y-94084834D01*
X106122818Y-93977241D01*
X106121906Y-93969701D01*
X106098997Y-93909073D01*
X106093075Y-93893402D01*
X108869941Y-93893402D01*
X108886554Y-94043883D01*
X108938582Y-94186057D01*
X108942819Y-94192363D01*
X108942821Y-94192366D01*
X108981412Y-94249794D01*
X109023022Y-94311716D01*
X109134998Y-94413607D01*
X109141675Y-94417232D01*
X109141676Y-94417233D01*
X109261370Y-94482222D01*
X109261372Y-94482223D01*
X109268047Y-94485847D01*
X109275396Y-94487775D01*
X109407136Y-94522336D01*
X109407138Y-94522336D01*
X109414486Y-94524264D01*
X109494562Y-94525522D01*
X109558266Y-94526523D01*
X109558269Y-94526523D01*
X109565863Y-94526642D01*
X109713437Y-94492843D01*
X109780731Y-94458998D01*
X109841906Y-94428231D01*
X109841909Y-94428229D01*
X109848689Y-94424819D01*
X109963810Y-94326495D01*
X110052156Y-94203550D01*
X110108624Y-94063080D01*
X110129956Y-93913196D01*
X110130094Y-93900000D01*
X110111906Y-93749701D01*
X110096740Y-93709566D01*
X110061076Y-93615182D01*
X110061075Y-93615179D01*
X110058392Y-93608080D01*
X109972640Y-93483311D01*
X109859603Y-93382599D01*
X109852897Y-93379048D01*
X109852895Y-93379047D01*
X109753693Y-93326523D01*
X109725805Y-93311757D01*
X109578972Y-93274874D01*
X109571374Y-93274834D01*
X109571372Y-93274834D01*
X109506775Y-93274496D01*
X109427579Y-93274082D01*
X109420200Y-93275854D01*
X109420196Y-93275854D01*
X109287746Y-93307652D01*
X109287742Y-93307653D01*
X109280367Y-93309424D01*
X109145835Y-93378861D01*
X109140113Y-93383853D01*
X109140111Y-93383854D01*
X109037474Y-93473390D01*
X109037471Y-93473393D01*
X109031749Y-93478385D01*
X108944696Y-93602249D01*
X108889702Y-93743302D01*
X108869941Y-93893402D01*
X106093075Y-93893402D01*
X106071076Y-93835182D01*
X106071075Y-93835179D01*
X106068392Y-93828080D01*
X105982640Y-93703311D01*
X105869603Y-93602599D01*
X105862897Y-93599048D01*
X105862895Y-93599047D01*
X105802704Y-93567178D01*
X105735805Y-93531757D01*
X105588972Y-93494874D01*
X105581374Y-93494834D01*
X105581372Y-93494834D01*
X105516775Y-93494496D01*
X105437579Y-93494082D01*
X105430200Y-93495854D01*
X105430196Y-93495854D01*
X105297746Y-93527652D01*
X105297742Y-93527653D01*
X105290367Y-93529424D01*
X105155835Y-93598861D01*
X105150113Y-93603853D01*
X105150111Y-93603854D01*
X105047474Y-93693390D01*
X105047471Y-93693393D01*
X105041749Y-93698385D01*
X104954696Y-93822249D01*
X104899702Y-93963302D01*
X104898711Y-93970831D01*
X104883568Y-94085854D01*
X104879941Y-94113402D01*
X104896554Y-94263883D01*
X104948582Y-94406057D01*
X104952819Y-94412363D01*
X104952821Y-94412366D01*
X104991203Y-94469483D01*
X105012596Y-94537180D01*
X104993992Y-94605695D01*
X104941300Y-94653277D01*
X104878980Y-94663438D01*
X104878972Y-94664874D01*
X104727579Y-94664082D01*
X104720200Y-94665854D01*
X104720196Y-94665854D01*
X104587746Y-94697652D01*
X104587742Y-94697653D01*
X104580367Y-94699424D01*
X104526403Y-94727277D01*
X104468188Y-94757324D01*
X104445835Y-94768861D01*
X104440113Y-94773853D01*
X104440111Y-94773854D01*
X104337474Y-94863390D01*
X104337471Y-94863393D01*
X104331749Y-94868385D01*
X104244696Y-94992249D01*
X104189702Y-95133302D01*
X104169941Y-95283402D01*
X100400000Y-95283402D01*
X100400000Y-92693402D01*
X102969941Y-92693402D01*
X102986554Y-92843883D01*
X103038582Y-92986057D01*
X103042819Y-92992363D01*
X103042821Y-92992366D01*
X103081412Y-93049794D01*
X103123022Y-93111716D01*
X103234998Y-93213607D01*
X103241675Y-93217232D01*
X103241676Y-93217233D01*
X103361370Y-93282222D01*
X103361372Y-93282223D01*
X103368047Y-93285847D01*
X103375396Y-93287775D01*
X103507136Y-93322336D01*
X103507138Y-93322336D01*
X103514486Y-93324264D01*
X103594562Y-93325522D01*
X103658266Y-93326523D01*
X103658269Y-93326523D01*
X103665863Y-93326642D01*
X103813437Y-93292843D01*
X103880731Y-93258998D01*
X103941906Y-93228231D01*
X103941909Y-93228229D01*
X103948689Y-93224819D01*
X104063810Y-93126495D01*
X104152156Y-93003550D01*
X104208624Y-92863080D01*
X104229956Y-92713196D01*
X104230094Y-92700000D01*
X104211906Y-92549701D01*
X104158392Y-92408080D01*
X104072640Y-92283311D01*
X103959603Y-92182599D01*
X103952897Y-92179048D01*
X103952895Y-92179047D01*
X103853693Y-92126523D01*
X103825805Y-92111757D01*
X103678972Y-92074874D01*
X103671374Y-92074834D01*
X103671372Y-92074834D01*
X103606775Y-92074496D01*
X103527579Y-92074082D01*
X103520200Y-92075854D01*
X103520196Y-92075854D01*
X103387746Y-92107652D01*
X103387742Y-92107653D01*
X103380367Y-92109424D01*
X103245835Y-92178861D01*
X103240113Y-92183853D01*
X103240111Y-92183854D01*
X103137474Y-92273390D01*
X103137471Y-92273393D01*
X103131749Y-92278385D01*
X103044696Y-92402249D01*
X102989702Y-92543302D01*
X102969941Y-92693402D01*
X100400000Y-92693402D01*
X100400000Y-91493402D01*
X107339941Y-91493402D01*
X107356554Y-91643883D01*
X107408582Y-91786057D01*
X107412819Y-91792363D01*
X107412821Y-91792366D01*
X107451412Y-91849794D01*
X107493022Y-91911716D01*
X107604998Y-92013607D01*
X107611675Y-92017232D01*
X107611676Y-92017233D01*
X107731370Y-92082222D01*
X107731372Y-92082223D01*
X107738047Y-92085847D01*
X107745396Y-92087775D01*
X107877136Y-92122336D01*
X107877138Y-92122336D01*
X107884486Y-92124264D01*
X107964562Y-92125522D01*
X108028266Y-92126523D01*
X108028269Y-92126523D01*
X108035863Y-92126642D01*
X108183437Y-92092843D01*
X108250731Y-92058998D01*
X108311906Y-92028231D01*
X108311909Y-92028229D01*
X108318689Y-92024819D01*
X108433810Y-91926495D01*
X108522156Y-91803550D01*
X108578624Y-91663080D01*
X108599956Y-91513196D01*
X108600094Y-91500000D01*
X108581906Y-91349701D01*
X108556408Y-91282222D01*
X108531076Y-91215182D01*
X108531075Y-91215179D01*
X108528392Y-91208080D01*
X108442640Y-91083311D01*
X108329603Y-90982599D01*
X108322897Y-90979048D01*
X108322895Y-90979047D01*
X108262704Y-90947178D01*
X108195805Y-90911757D01*
X108048972Y-90874874D01*
X108041374Y-90874834D01*
X108041372Y-90874834D01*
X107976775Y-90874496D01*
X107897579Y-90874082D01*
X107890200Y-90875854D01*
X107890196Y-90875854D01*
X107757746Y-90907652D01*
X107757742Y-90907653D01*
X107750367Y-90909424D01*
X107615835Y-90978861D01*
X107610113Y-90983853D01*
X107610111Y-90983854D01*
X107507474Y-91073390D01*
X107507471Y-91073393D01*
X107501749Y-91078385D01*
X107497382Y-91084599D01*
X107425665Y-91186642D01*
X107414696Y-91202249D01*
X107359702Y-91343302D01*
X107339941Y-91493402D01*
X100400000Y-91493402D01*
X100400000Y-90693402D01*
X102969941Y-90693402D01*
X102986554Y-90843883D01*
X103038582Y-90986057D01*
X103042819Y-90992363D01*
X103042821Y-90992366D01*
X103081412Y-91049794D01*
X103123022Y-91111716D01*
X103234998Y-91213607D01*
X103241675Y-91217232D01*
X103241676Y-91217233D01*
X103361370Y-91282222D01*
X103361372Y-91282223D01*
X103368047Y-91285847D01*
X103375396Y-91287775D01*
X103507136Y-91322336D01*
X103507138Y-91322336D01*
X103514486Y-91324264D01*
X103594562Y-91325522D01*
X103658266Y-91326523D01*
X103658269Y-91326523D01*
X103665863Y-91326642D01*
X103813437Y-91292843D01*
X103880731Y-91258998D01*
X103941906Y-91228231D01*
X103941909Y-91228229D01*
X103948689Y-91224819D01*
X104063810Y-91126495D01*
X104152156Y-91003550D01*
X104208624Y-90863080D01*
X104229956Y-90713196D01*
X104230094Y-90700000D01*
X104212354Y-90553402D01*
X108779941Y-90553402D01*
X108796554Y-90703883D01*
X108848582Y-90846057D01*
X108852819Y-90852363D01*
X108852821Y-90852366D01*
X108864755Y-90870125D01*
X108933022Y-90971716D01*
X109044998Y-91073607D01*
X109051675Y-91077232D01*
X109051676Y-91077233D01*
X109171370Y-91142222D01*
X109171372Y-91142223D01*
X109178047Y-91145847D01*
X109185396Y-91147775D01*
X109317136Y-91182336D01*
X109317138Y-91182336D01*
X109324486Y-91184264D01*
X109404562Y-91185522D01*
X109468266Y-91186523D01*
X109468269Y-91186523D01*
X109475863Y-91186642D01*
X109623437Y-91152843D01*
X109717748Y-91105410D01*
X109751906Y-91088231D01*
X109751909Y-91088229D01*
X109758689Y-91084819D01*
X109873810Y-90986495D01*
X109954588Y-90874082D01*
X109957724Y-90869718D01*
X109957725Y-90869717D01*
X109962156Y-90863550D01*
X110018624Y-90723080D01*
X110019697Y-90723512D01*
X110052844Y-90669134D01*
X110116705Y-90638114D01*
X110139575Y-90636386D01*
X110142843Y-90636437D01*
X110148266Y-90636523D01*
X110148269Y-90636523D01*
X110155863Y-90636642D01*
X110303437Y-90602843D01*
X110386729Y-90560952D01*
X110431906Y-90538231D01*
X110431909Y-90538229D01*
X110438689Y-90534819D01*
X110553810Y-90436495D01*
X110642156Y-90313550D01*
X110698624Y-90173080D01*
X110719956Y-90023196D01*
X110720094Y-90010000D01*
X110701906Y-89859701D01*
X110680491Y-89803027D01*
X110651076Y-89725182D01*
X110651075Y-89725179D01*
X110648392Y-89718080D01*
X110605516Y-89655696D01*
X110566939Y-89599566D01*
X110562640Y-89593311D01*
X110449603Y-89492599D01*
X110442897Y-89489048D01*
X110442895Y-89489047D01*
X110375312Y-89453264D01*
X110315805Y-89421757D01*
X110168972Y-89384874D01*
X110161374Y-89384834D01*
X110161372Y-89384834D01*
X110096775Y-89384496D01*
X110017579Y-89384082D01*
X110010200Y-89385854D01*
X110010196Y-89385854D01*
X109877746Y-89417652D01*
X109877742Y-89417653D01*
X109870367Y-89419424D01*
X109735835Y-89488861D01*
X109730113Y-89493853D01*
X109730111Y-89493854D01*
X109627474Y-89583390D01*
X109627471Y-89583393D01*
X109621749Y-89588385D01*
X109584803Y-89640954D01*
X109546921Y-89694855D01*
X109534696Y-89712249D01*
X109479702Y-89853302D01*
X109476699Y-89852131D01*
X109447806Y-89900602D01*
X109384255Y-89932252D01*
X109361477Y-89934207D01*
X109337579Y-89934082D01*
X109330200Y-89935854D01*
X109330196Y-89935854D01*
X109197746Y-89967652D01*
X109197742Y-89967653D01*
X109190367Y-89969424D01*
X109183622Y-89972905D01*
X109183623Y-89972905D01*
X109070225Y-90031434D01*
X109055835Y-90038861D01*
X109050113Y-90043853D01*
X109050111Y-90043854D01*
X108947474Y-90133390D01*
X108947471Y-90133393D01*
X108941749Y-90138385D01*
X108917365Y-90173080D01*
X108867020Y-90244714D01*
X108854696Y-90262249D01*
X108799702Y-90403302D01*
X108793250Y-90452306D01*
X108781271Y-90543302D01*
X108779941Y-90553402D01*
X104212354Y-90553402D01*
X104211906Y-90549701D01*
X104158392Y-90408080D01*
X104072640Y-90283311D01*
X104066975Y-90278264D01*
X104066970Y-90278258D01*
X104028993Y-90244423D01*
X103991437Y-90184174D01*
X103992416Y-90113184D01*
X104030980Y-90054536D01*
X104058029Y-90031434D01*
X104058035Y-90031427D01*
X104063810Y-90026495D01*
X104152156Y-89903550D01*
X104208624Y-89763080D01*
X104229956Y-89613196D01*
X104230094Y-89600000D01*
X104229441Y-89594599D01*
X104221202Y-89526523D01*
X104211906Y-89449701D01*
X104196335Y-89408493D01*
X104161076Y-89315182D01*
X104161075Y-89315179D01*
X104158392Y-89308080D01*
X104072640Y-89183311D01*
X103959603Y-89082599D01*
X103952897Y-89079048D01*
X103952895Y-89079047D01*
X103872223Y-89036334D01*
X103825805Y-89011757D01*
X103678972Y-88974874D01*
X103671374Y-88974834D01*
X103671372Y-88974834D01*
X103606775Y-88974496D01*
X103527579Y-88974082D01*
X103520200Y-88975854D01*
X103520196Y-88975854D01*
X103387746Y-89007652D01*
X103387742Y-89007653D01*
X103380367Y-89009424D01*
X103245835Y-89078861D01*
X103240113Y-89083853D01*
X103240111Y-89083854D01*
X103137474Y-89173390D01*
X103137471Y-89173393D01*
X103131749Y-89178385D01*
X103127382Y-89184599D01*
X103058127Y-89283139D01*
X103044696Y-89302249D01*
X102989702Y-89443302D01*
X102987867Y-89457241D01*
X102973074Y-89569608D01*
X102969941Y-89593402D01*
X102986554Y-89743883D01*
X103038582Y-89886057D01*
X103042819Y-89892363D01*
X103042821Y-89892366D01*
X103070938Y-89934207D01*
X103123022Y-90011716D01*
X103128640Y-90016828D01*
X103172318Y-90056572D01*
X103209240Y-90117212D01*
X103207517Y-90188188D01*
X103170348Y-90244713D01*
X103131749Y-90278385D01*
X103044696Y-90402249D01*
X102989702Y-90543302D01*
X102987867Y-90557241D01*
X102977414Y-90636642D01*
X102969941Y-90693402D01*
X100400000Y-90693402D01*
X100400000Y-88893402D01*
X105869941Y-88893402D01*
X105886554Y-89043883D01*
X105938582Y-89186057D01*
X105942819Y-89192363D01*
X105942821Y-89192366D01*
X105981412Y-89249794D01*
X106023022Y-89311716D01*
X106134998Y-89413607D01*
X106141675Y-89417232D01*
X106141676Y-89417233D01*
X106261370Y-89482222D01*
X106261372Y-89482223D01*
X106268047Y-89485847D01*
X106275396Y-89487775D01*
X106407136Y-89522336D01*
X106407138Y-89522336D01*
X106414486Y-89524264D01*
X106494562Y-89525522D01*
X106558266Y-89526523D01*
X106558269Y-89526523D01*
X106565863Y-89526642D01*
X106573267Y-89524946D01*
X106573269Y-89524946D01*
X106580055Y-89523392D01*
X106650922Y-89527684D01*
X106708219Y-89569608D01*
X106712759Y-89575933D01*
X106792672Y-89694855D01*
X106904648Y-89796746D01*
X106911325Y-89800371D01*
X106911326Y-89800372D01*
X107031020Y-89865361D01*
X107031022Y-89865362D01*
X107037697Y-89868986D01*
X107045046Y-89870914D01*
X107176786Y-89905475D01*
X107176788Y-89905475D01*
X107184136Y-89907403D01*
X107264212Y-89908661D01*
X107327916Y-89909662D01*
X107327919Y-89909662D01*
X107335513Y-89909781D01*
X107483087Y-89875982D01*
X107550381Y-89842137D01*
X107611556Y-89811370D01*
X107611559Y-89811368D01*
X107618339Y-89807958D01*
X107733460Y-89709634D01*
X107821806Y-89586689D01*
X107878274Y-89446219D01*
X107899606Y-89296335D01*
X107899744Y-89283139D01*
X107881556Y-89132840D01*
X107878154Y-89123838D01*
X107830726Y-88998321D01*
X107830725Y-88998318D01*
X107828042Y-88991219D01*
X107742290Y-88866450D01*
X107629253Y-88765738D01*
X107622547Y-88762187D01*
X107622545Y-88762186D01*
X107562354Y-88730317D01*
X107495455Y-88694896D01*
X107348622Y-88658013D01*
X107341024Y-88657973D01*
X107341022Y-88657973D01*
X107276425Y-88657635D01*
X107197229Y-88657221D01*
X107189845Y-88658994D01*
X107182295Y-88659867D01*
X107182102Y-88658198D01*
X107120340Y-88655107D01*
X107062607Y-88613786D01*
X107057997Y-88607505D01*
X106976939Y-88489566D01*
X106972640Y-88483311D01*
X106859603Y-88382599D01*
X106852897Y-88379048D01*
X106852895Y-88379047D01*
X106792704Y-88347178D01*
X106725805Y-88311757D01*
X106578972Y-88274874D01*
X106571374Y-88274834D01*
X106571372Y-88274834D01*
X106506775Y-88274496D01*
X106427579Y-88274082D01*
X106420200Y-88275854D01*
X106420196Y-88275854D01*
X106287746Y-88307652D01*
X106287742Y-88307653D01*
X106280367Y-88309424D01*
X106145835Y-88378861D01*
X106140113Y-88383853D01*
X106140111Y-88383854D01*
X106037474Y-88473390D01*
X106037471Y-88473393D01*
X106031749Y-88478385D01*
X105944696Y-88602249D01*
X105889702Y-88743302D01*
X105888711Y-88750831D01*
X105872666Y-88872705D01*
X105869941Y-88893402D01*
X100400000Y-88893402D01*
X100400000Y-86693410D01*
X100420002Y-86625289D01*
X100473658Y-86578796D01*
X100543932Y-86568692D01*
X100608512Y-86598186D01*
X100642743Y-86646006D01*
X100656084Y-86678861D01*
X100785006Y-86889241D01*
X100946557Y-87075741D01*
X101136399Y-87233351D01*
X101349433Y-87357838D01*
X101354253Y-87359678D01*
X101354258Y-87359681D01*
X101468547Y-87403323D01*
X101579939Y-87445859D01*
X101585007Y-87446890D01*
X101585010Y-87446891D01*
X101704587Y-87471219D01*
X101821726Y-87495052D01*
X101826899Y-87495242D01*
X101826902Y-87495242D01*
X102063136Y-87503904D01*
X102063140Y-87503904D01*
X102068300Y-87504093D01*
X102073420Y-87503437D01*
X102073422Y-87503437D01*
X102149703Y-87493665D01*
X102313041Y-87472741D01*
X102317990Y-87471256D01*
X102317996Y-87471255D01*
X102544424Y-87403323D01*
X102544423Y-87403323D01*
X102549374Y-87401838D01*
X102653266Y-87350942D01*
X102766303Y-87295566D01*
X102766308Y-87295563D01*
X102770954Y-87293287D01*
X102775164Y-87290284D01*
X102775169Y-87290281D01*
X102967617Y-87153009D01*
X102967622Y-87153005D01*
X102971829Y-87150004D01*
X103146605Y-86975837D01*
X103290588Y-86775463D01*
X103399911Y-86554264D01*
X103433045Y-86445207D01*
X103470135Y-86323132D01*
X103470136Y-86323126D01*
X103471639Y-86318180D01*
X103503845Y-86073550D01*
X103505643Y-86000000D01*
X103497660Y-85902906D01*
X103485849Y-85759240D01*
X103485848Y-85759234D01*
X103485425Y-85754089D01*
X103425316Y-85514783D01*
X103364629Y-85375213D01*
X103328993Y-85293256D01*
X103328993Y-85293255D01*
X103326928Y-85288507D01*
X103192905Y-85081339D01*
X103166635Y-85052468D01*
X103073397Y-84950001D01*
X103026846Y-84898842D01*
X103022795Y-84895643D01*
X103022791Y-84895639D01*
X102837264Y-84749119D01*
X102837259Y-84749116D01*
X102833210Y-84745918D01*
X102828695Y-84743425D01*
X102828682Y-84743417D01*
X102634654Y-84636308D01*
X102584684Y-84585876D01*
X102569912Y-84516433D01*
X102595028Y-84450028D01*
X102652059Y-84407743D01*
X102695548Y-84400000D01*
X113308876Y-84400000D01*
X113376997Y-84420002D01*
G37*
G04 #@! TD.AperFunction*
M02*
